
<svg width="72px" height="103px" viewBox="0 0 72 103" version="1.1" xmlns="http://www.w3.org/2000/svg" xmlns:xlink="http://www.w3.org/1999/xlink">
    <g id="lila----rojo" stroke="none" stroke-width="1" fill="none" fill-rule="evenodd">
        <g id="Home" transform="translate(-826.000000, -2053.000000)">
            <g id="tipo-de-piel" transform="translate(0.000000, 1949.000000)">
                <g id="sticker" transform="translate(826.000000, 104.000000)">
                    <path d="M24.6482308,90.3888162 C24.4820769,89.6141676 23.7606923,89.0862486 22.9742308,89.1289784 L14.9946923,89.6541405 L14.5793077,86.2660865 L20.7297692,85.7988162 C21.6103846,85.7326541 22.2708462,84.9717892 22.2099231,84.0992757 L22.1517692,83.2405459 C22.1226923,82.8160054 21.9233077,82.4204108 21.6006923,82.1433568 C21.2766923,81.8607892 20.8543846,81.7312216 20.4306923,81.7560324 L14.0863846,82.231573 L13.6322308,78.1929243 C13.5366923,77.3410865 12.8028462,76.723573 11.9180769,76.7787081 L11.115,76.8379784 C10.6802308,76.8696811 10.2773077,77.0778162 9.999,77.4100054 C9.72069231,77.743573 9.59192308,78.1763838 9.639,78.6078162 L10.0793077,82.537573 L3.51761538,82.9386811 C3.07176923,82.9648703 2.655,83.1771405 2.37253846,83.5244919 C2.08869231,83.8690865 1.96407692,84.3170595 2.02776923,84.7581405 L2.14684615,85.5879243 C2.26453846,86.4149514 3.02469231,87.0228162 3.83884615,86.9580324 L10.5556154,86.5224649 L10.9377692,89.9050054 L2.06792308,90.4053568 C1.60961538,90.4301676 1.18315385,90.6507081 0.899307692,91.0090865 C0.615461538,91.3674649 0.497769231,91.8306 0.579461538,92.2799514 L0.727615385,93.1111135 C0.871615385,93.9050595 1.59438462,94.4826 2.39746154,94.4247081 L11.421,93.9174649 L12.1714615,100.388951 C12.2656154,101.198059 12.9565385,101.801789 13.7637692,101.801789 C13.8011538,101.801789 13.8385385,101.799032 13.8759231,101.797654 L14.7080769,101.739762 C15.1456154,101.710816 15.5513077,101.502681 15.831,101.167735 C16.1120769,100.831411 16.2408462,100.3986 16.191,99.9630324 L15.4613077,93.6610865 L23.3633077,93.1497081 C23.8285385,93.116627 24.2563846,92.8864378 24.5388462,92.5170324 C24.8199231,92.1462486 24.9251538,91.6734649 24.8268462,91.2186 L24.6482308,90.3888162 Z" id="Fill-1" fill="#FBDDE8"></path>
                    <path d="M24.6482308,90.3888162 C24.4820769,89.6141676 23.7606923,89.0862486 22.9742308,89.1289784 L14.9946923,89.6541405 L14.5793077,86.2660865 L20.7297692,85.7988162 C21.6103846,85.7326541 22.2708462,84.9717892 22.2099231,84.0992757 L22.1517692,83.2405459 C22.1226923,82.8160054 21.9233077,82.4204108 21.6006923,82.1433568 C21.2766923,81.8607892 20.8543846,81.7312216 20.4306923,81.7560324 L14.0863846,82.231573 L13.6322308,78.1929243 C13.5366923,77.3410865 12.8028462,76.723573 11.9180769,76.7787081 L11.115,76.8379784 C10.6802308,76.8696811 10.2773077,77.0778162 9.999,77.4100054 C9.72069231,77.743573 9.59192308,78.1763838 9.639,78.6078162 L10.0793077,82.537573 L3.51761538,82.9386811 C3.07176923,82.9648703 2.655,83.1771405 2.37253846,83.5244919 C2.08869231,83.8690865 1.96407692,84.3170595 2.02776923,84.7581405 L2.14684615,85.5879243 C2.26453846,86.4149514 3.02469231,87.0228162 3.83884615,86.9580324 L10.5556154,86.5224649 L10.9377692,89.9050054 L2.06792308,90.4053568 C1.60961538,90.4301676 1.18315385,90.6507081 0.899307692,91.0090865 C0.615461538,91.3674649 0.497769231,91.8306 0.579461538,92.2799514 L0.727615385,93.1111135 C0.871615385,93.9050595 1.59438462,94.4826 2.39746154,94.4247081 L11.421,93.9174649 L12.1714615,100.388951 C12.2656154,101.198059 12.9565385,101.801789 13.7637692,101.801789 C13.8011538,101.801789 13.8385385,101.799032 13.8759231,101.797654 L14.7080769,101.739762 C15.1456154,101.710816 15.5513077,101.502681 15.831,101.167735 C16.1120769,100.831411 16.2408462,100.3986 16.191,99.9630324 L15.4613077,93.6610865 L23.3633077,93.1497081 C23.8285385,93.116627 24.2563846,92.8864378 24.5388462,92.5170324 C24.8199231,92.1462486 24.9251538,91.6734649 24.8268462,91.2186 L24.6482308,90.3888162 Z" id="Stroke-3" stroke="#373535" stroke-width="0.8"></path>
                    <path d="M49.2575538,94.9047973 L44.3809385,94.9047973 C44.7257077,90.9502297 45.0510923,85.8626351 45.1770923,82.3381216 C45.1923231,81.9025541 45.0303231,81.483527 44.7284769,81.1706351 C44.4252462,80.8605 44.0084769,80.6840676 43.5737077,80.6840676 L30.9252462,80.6840676 C30.0390923,80.6840676 29.3218615,81.3980676 29.3218615,82.2802297 L29.3218615,83.0521216 C29.3218615,83.9356622 30.0390923,84.6510405 30.9252462,84.6510405 L41.0703231,84.6510405 C40.9263231,87.603527 40.6203231,92.0777432 40.3807846,94.9047973 L27.6215538,94.9047973 C26.7354,94.9047973 26.0167846,95.6201757 26.0167846,96.5023378 L26.0167846,97.2728514 C26.0167846,98.1536351 26.7354,98.8690135 27.6215538,98.8690135 L49.2575538,98.8690135 C50.1437077,98.8690135 50.8623231,98.1536351 50.8623231,97.2728514 L50.8623231,96.5023378 C50.8623231,95.6201757 50.1437077,94.9047973 49.2575538,94.9047973" id="Fill-5" fill="#FBDDE8"></path>
                    <path d="M49.2575538,94.9047973 L44.3809385,94.9047973 C44.7257077,90.9502297 45.0510923,85.8626351 45.1770923,82.3381216 C45.1923231,81.9025541 45.0303231,81.483527 44.7284769,81.1706351 C44.4252462,80.8605 44.0084769,80.6840676 43.5737077,80.6840676 L30.9252462,80.6840676 C30.0390923,80.6840676 29.3218615,81.3980676 29.3218615,82.2802297 L29.3218615,83.0521216 C29.3218615,83.9356622 30.0390923,84.6510405 30.9252462,84.6510405 L41.0703231,84.6510405 C40.9263231,87.603527 40.6203231,92.0777432 40.3807846,94.9047973 L27.6215538,94.9047973 C26.7354,94.9047973 26.0167846,95.6201757 26.0167846,96.5023378 L26.0167846,97.2728514 C26.0167846,98.1536351 26.7354,98.8690135 27.6215538,98.8690135 L49.2575538,98.8690135 C50.1437077,98.8690135 50.8623231,98.1536351 50.8623231,97.2728514 L50.8623231,96.5023378 C50.8623231,95.6201757 50.1437077,94.9047973 49.2575538,94.9047973 Z" id="Stroke-7" stroke="#373535" stroke-width="0.8"></path>
                    <path d="M70.7699077,90.0159649 C67.7583692,87.4328838 64.4768308,85.4383703 61.0000615,84.0751541 L61.0000615,78.7573703 C61.0000615,77.8738297 60.2814462,77.1598297 59.3952923,77.1598297 L58.6226769,77.1598297 C57.7351385,77.1598297 57.0165231,77.8738297 57.0165231,78.7573703 L57.0165231,99.9678568 C57.0165231,100.850019 57.7351385,101.565397 58.6226769,101.565397 L59.3952923,101.565397 C60.2814462,101.565397 61.0000615,100.850019 61.0000615,99.9678568 L61.0000615,88.3963703 C63.2043692,89.4053432 65.7548308,91.1007486 68.0643692,93.1352351 C68.3897538,93.4233162 68.8148308,93.5570189 69.2496,93.5335865 C69.6829846,93.5005054 70.0831385,93.2937486 70.3600615,92.9629378 L70.9554462,92.2503162 C71.5176,91.5790459 71.4331385,90.5866135 70.7699077,90.0159649" id="Fill-9" fill="#FBDDE8"></path>
                    <path d="M70.7699077,90.0159649 C67.7583692,87.4328838 64.4768308,85.4383703 61.0000615,84.0751541 L61.0000615,78.7573703 C61.0000615,77.8738297 60.2814462,77.1598297 59.3952923,77.1598297 L58.6226769,77.1598297 C57.7351385,77.1598297 57.0165231,77.8738297 57.0165231,78.7573703 L57.0165231,99.9678568 C57.0165231,100.850019 57.7351385,101.565397 58.6226769,101.565397 L59.3952923,101.565397 C60.2814462,101.565397 61.0000615,100.850019 61.0000615,99.9678568 L61.0000615,88.3963703 C63.2043692,89.4053432 65.7548308,91.1007486 68.0643692,93.1352351 C68.3897538,93.4233162 68.8148308,93.5570189 69.2496,93.5335865 C69.6829846,93.5005054 70.0831385,93.2937486 70.3600615,92.9629378 L70.9554462,92.2503162 C71.5176,91.5790459 71.4331385,90.5866135 70.7699077,90.0159649 Z" id="Stroke-11" stroke="#373535" stroke-width="0.8"></path>
                    <path d="M54.1869231,37.4531595 L54.1869231,8.85456486 C54.1869231,4.2687 50.4526154,0.551213514 45.846,0.551213514 C41.2393846,0.551213514 37.5064615,4.2687 37.5064615,8.85456486 L37.5064615,28.3434568 C36.6798462,28.2579973 35.8463077,28.2056189 34.9989231,28.2056189 C34.1501538,28.2056189 33.3152308,28.2579973 32.4913846,28.3434568 L32.4913846,8.85456486 C32.4913846,4.2687 28.7570769,0.551213514 24.1504615,0.551213514 C19.5438462,0.551213514 15.8095385,4.2687 15.8095385,8.85456486 L15.8095385,37.4531595 C12.4906154,41.6131054 10.4995385,46.8688622 10.4995385,52.5932676 C10.4995385,66.0627811 21.4684615,76.9822946 34.9989231,76.9822946 C48.528,76.9822946 59.4969231,66.0627811 59.4969231,52.5932676 C59.4969231,46.8688622 57.5058462,41.6131054 54.1869231,37.4531595" id="Fill-13" fill="#FEFEFE"></path>
                    <path d="M54.1869231,37.4531595 L54.1869231,8.85456486 C54.1869231,4.2687 50.4526154,0.551213514 45.846,0.551213514 C41.2393846,0.551213514 37.5064615,4.2687 37.5064615,8.85456486 L37.5064615,28.3434568 C36.6798462,28.2579973 35.8463077,28.2056189 34.9989231,28.2056189 C34.1501538,28.2056189 33.3152308,28.2579973 32.4913846,28.3434568 L32.4913846,8.85456486 C32.4913846,4.2687 28.7570769,0.551213514 24.1504615,0.551213514 C19.5438462,0.551213514 15.8095385,4.2687 15.8095385,8.85456486 L15.8095385,37.4531595 C12.4906154,41.6131054 10.4995385,46.8688622 10.4995385,52.5932676 C10.4995385,66.0627811 21.4684615,76.9822946 34.9989231,76.9822946 C48.528,76.9822946 59.4969231,66.0627811 59.4969231,52.5932676 C59.4969231,46.8688622 57.5058462,41.6131054 54.1869231,37.4531595 Z" id="Stroke-15" stroke="#373535" stroke-width="0.8" stroke-linecap="round" stroke-linejoin="round"></path>
                    <path d="M51.0046615,9.98318108 C51.0046615,7.14647838 48.6951231,4.84734324 45.8455846,4.84734324 C42.9974308,4.84734324 40.6878923,7.14647838 40.6878923,9.98318108 L40.6878923,28.8738568 C44.5662,29.7932351 48.0858923,31.6292351 51.0046615,34.1392622 L51.0046615,9.98318108 Z" id="Fill-17" fill="#FBDDE8"></path>
                    <path d="M51.0046615,9.98318108 C51.0046615,7.14647838 48.6951231,4.84734324 45.8455846,4.84734324 C42.9974308,4.84734324 40.6878923,7.14647838 40.6878923,9.98318108 L40.6878923,28.8738568 C44.5662,29.7932351 48.0858923,31.6292351 51.0046615,34.1392622 L51.0046615,9.98318108 Z" id="Stroke-19" stroke="#373535" stroke-width="0.8" stroke-linecap="round" stroke-linejoin="round"></path>
                    <path d="M29.3084308,9.98318108 C29.3084308,7.14647838 26.9988923,4.84734324 24.1493538,4.84734324 C21.3012,4.84734324 18.9916615,7.14647838 18.9916615,9.98318108 L18.9916615,34.1392622 C21.9104308,31.6292351 25.4301231,29.7932351 29.3084308,28.8738568 L29.3084308,9.98318108 Z" id="Fill-21" fill="#FBDDE8"></path>
                    <path d="M29.3084308,9.98318108 C29.3084308,7.14647838 26.9988923,4.84734324 24.1493538,4.84734324 C21.3012,4.84734324 18.9916615,7.14647838 18.9916615,9.98318108 L18.9916615,34.1392622 C21.9104308,31.6292351 25.4301231,29.7932351 29.3084308,28.8738568 L29.3084308,9.98318108 Z" id="Stroke-23" stroke="#373535" stroke-width="0.8" stroke-linecap="round" stroke-linejoin="round"></path>
                    <path d="M24.0356769,47.3642514 C24.0356769,45.6330081 25.4452154,44.2311973 27.1829077,44.2311973 C28.9206,44.2311973 30.3301385,45.6330081 30.3301385,47.3642514 C30.3301385,49.0941162 28.9206,50.495927 27.1829077,50.495927 C25.4452154,50.495927 24.0356769,49.0941162 24.0356769,47.3642514" id="Fill-25" fill="#292929"></path>
                    <path d="M34.9983692,57.4758973 C34.9983692,60.1458162 32.8051385,61.8853297 30.6091385,61.8853297 C28.3840615,61.8853297 26.7349846,60.7054378 26.7876,58.7867351" id="Stroke-27" stroke="#373535" stroke-width="0.8" stroke-linecap="round"></path>
                    <path d="M31.8505846,55.539 C31.8505846,54.4693784 33.2601231,53.6023784 34.9978154,53.6023784 C36.7368923,53.6023784 38.1450462,54.4693784 38.1450462,55.539 C38.1450462,56.6072432 36.7368923,57.4756216 34.9978154,57.4756216 C33.2601231,57.4756216 31.8505846,56.6072432 31.8505846,55.539" id="Fill-29" fill="#FBDDE8"></path>
                    <path d="M31.8505846,55.539 C31.8505846,54.4693784 33.2601231,53.6023784 34.9978154,53.6023784 C36.7368923,53.6023784 38.1450462,54.4693784 38.1450462,55.539 C38.1450462,56.6072432 36.7368923,57.4756216 34.9978154,57.4756216 C33.2601231,57.4756216 31.8505846,56.6072432 31.8505846,55.539 Z" id="Stroke-31" stroke="#373535" stroke-width="0.8" stroke-linecap="round"></path>
                    <g id="Group-36" transform="translate(22.153846, 43.083146)">
                        <path d="M5.22373846,0.454175676 C3.02496923,0.454175676 1.24158462,2.22814865 1.24158462,4.41839189 C1.24158462,6.60725676 3.02496923,8.38260811 5.22373846,8.38260811 C7.42250769,8.38260811 9.20589231,6.60725676 9.20589231,4.41839189 C9.20589231,2.22814865 7.42250769,0.454175676 5.22373846,0.454175676" id="Fill-33" fill="#FEFEFE"></path>
                        <path d="M5.22373846,0.454175676 C3.02496923,0.454175676 1.24158462,2.22814865 1.24158462,4.41839189 C1.24158462,6.60725676 3.02496923,8.38260811 5.22373846,8.38260811 C7.42250769,8.38260811 9.20589231,6.60725676 9.20589231,4.41839189 C9.20589231,2.22814865 7.42250769,0.454175676 5.22373846,0.454175676" id="Stroke-35" stroke="#373535" stroke-width="0.8" stroke-linecap="round"></path>
                    </g>
                    <path d="M29.5295538,47.5459216 C29.5295538,48.7271919 28.5658615,49.6865432 27.3778615,49.6865432 C26.1898615,49.6865432 25.2261692,48.7271919 25.2261692,47.5459216 C25.2261692,46.3618946 26.1898615,45.4025432 27.3778615,45.4025432 C28.5658615,45.4039216 29.5295538,46.363273 29.5295538,47.5459216" id="Fill-37" fill="#373535"></path>
                    <path d="M28.1266615,46.0517595 C28.1266615,45.6451378 28.4589692,45.314327 28.8674308,45.314327 C29.2758923,45.314327 29.6082,45.6451378 29.6082,46.0517595 C29.6082,46.4583811 29.2758923,46.7878135 28.8674308,46.7878135 C28.4589692,46.7878135 28.1266615,46.4583811 28.1266615,46.0517595" id="Fill-39" fill="#FEFEFE"></path>
                    <g id="Group-44" transform="translate(16.615385, 51.353416)">
                        <path d="M4.62807692,0.221367568 C2.42930769,0.221367568 0.645923077,1.99534054 0.645923077,4.18558378 C0.645923077,6.37444865 2.42930769,8.1498 4.62807692,8.1498 C6.82823077,8.1498 8.61023077,6.37444865 8.61023077,4.18558378 C8.61023077,1.99534054 6.82823077,0.221367568 4.62807692,0.221367568" id="Fill-41" fill="#FBDDE8"></path>
                        <path d="M4.62807692,0.221367568 C2.42930769,0.221367568 0.645923077,1.99534054 0.645923077,4.18558378 C0.645923077,6.37444865 2.42930769,8.1498 4.62807692,8.1498 C6.82823077,8.1498 8.61023077,6.37444865 8.61023077,4.18558378 C8.61023077,1.99534054 6.82823077,0.221367568 4.62807692,0.221367568" id="Stroke-43" stroke="#373535" stroke-width="0.8" stroke-linecap="round"></path>
                    </g>
                    <path d="M45.9610615,47.3642514 C45.9610615,45.6330081 44.5515231,44.2311973 42.8138308,44.2311973 C41.0747538,44.2311973 39.6666,45.6330081 39.6666,47.3642514 C39.6666,49.0941162 41.0747538,50.495927 42.8138308,50.495927 C44.5515231,50.495927 45.9610615,49.0941162 45.9610615,47.3642514" id="Fill-45" fill="#292929"></path>
                    <path d="M34.9983692,57.4758973 C34.9983692,60.1458162 37.1916,61.8853297 39.3876,61.8853297 C41.6126769,61.8853297 43.2603692,60.7054378 43.2091385,58.7867351" id="Stroke-47" stroke="#373535" stroke-width="0.8" stroke-linecap="round"></path>
                    <g id="Group-52" transform="translate(37.384615, 43.083146)">
                        <path d="M5.23453846,0.454175676 C3.03438462,0.454175676 1.25238462,2.22814865 1.25238462,4.41839189 C1.25238462,6.60725676 3.03438462,8.38260811 5.23453846,8.38260811 C7.43330769,8.38260811 9.21669231,6.60725676 9.21669231,4.41839189 C9.21669231,2.22814865 7.43330769,0.454175676 5.23453846,0.454175676" id="Fill-49" fill="#FEFEFE"></path>
                        <path d="M5.23453846,0.454175676 C3.03438462,0.454175676 1.25238462,2.22814865 1.25238462,4.41839189 C1.25238462,6.60725676 3.03438462,8.38260811 5.23453846,8.38260811 C7.43330769,8.38260811 9.21669231,6.60725676 9.21669231,4.41839189 C9.21669231,2.22814865 7.43330769,0.454175676 5.23453846,0.454175676" id="Stroke-51" stroke="#373535" stroke-width="0.8" stroke-linecap="round"></path>
                    </g>
                    <path d="M44.7704308,47.5459216 C44.7704308,48.7271919 43.8081231,49.6865432 42.6187385,49.6865432 C41.4307385,49.6865432 40.4684308,48.7271919 40.4684308,47.5459216 C40.4684308,46.3618946 41.4307385,45.4025432 42.6187385,45.4025432 C43.8081231,45.4039216 44.7704308,46.363273 44.7704308,47.5459216" id="Fill-53" fill="#373535"></path>
                    <path d="M43.3682308,46.0517595 C43.3682308,45.6451378 43.7005385,45.314327 44.109,45.314327 C44.5174615,45.314327 44.8483846,45.6451378 44.8483846,46.0517595 C44.8483846,46.4583811 44.5174615,46.7878135 44.109,46.7878135 C43.7005385,46.7878135 43.3682308,46.4583811 43.3682308,46.0517595" id="Fill-55" fill="#FEFEFE"></path>
                    <g id="Group-60" transform="translate(44.307692, 51.353416)">
                        <path d="M4.44489231,0.221367568 C6.64504615,0.221367568 8.42704615,1.99534054 8.42704615,4.18558378 C8.42704615,6.37444865 6.64504615,8.1498 4.44489231,8.1498 C2.24612308,8.1498 0.462738462,6.37444865 0.462738462,4.18558378 C0.462738462,1.99534054 2.24612308,0.221367568 4.44489231,0.221367568" id="Fill-57" fill="#FBDDE8"></path>
                        <path d="M4.44489231,0.221367568 C6.64504615,0.221367568 8.42704615,1.99534054 8.42704615,4.18558378 C8.42704615,6.37444865 6.64504615,8.1498 4.44489231,8.1498 C2.24612308,8.1498 0.462738462,6.37444865 0.462738462,4.18558378 C0.462738462,1.99534054 2.24612308,0.221367568 4.44489231,0.221367568" id="Stroke-59" stroke="#373535" stroke-width="0.8" stroke-linecap="round"></path>
                    </g>
                </g>
            </g>
        </g>
    </g>
</svg>