<svg width="79" height="76" xmlns="http://www.w3.org/2000/svg" xmlns:xlink="http://www.w3.org/1999/xlink">
  <defs>
    <path id="a" d="M.352.566h15.876v22.291H.352z"/>
  </defs>
  <g fill="none" fill-rule="evenodd">
    <path d="M2.452 37.408c0-20.407 16.544-36.95 36.951-36.95S76.353 17 76.353 37.407h-4.232c0-18.072-14.648-32.72-32.718-32.72-18.07 0-32.718 14.648-32.718 32.718l-4.233.002z" fill="#F16C59"/>
    <path d="M2.452 37.408c0-20.407 16.544-36.95 36.951-36.95S76.353 17 76.353 37.407h-4.232c0-18.072-14.648-32.72-32.718-32.72-18.07 0-32.718 14.648-32.718 32.718l-4.233.002z" stroke="#373535" stroke-width=".8" stroke-linecap="round" stroke-linejoin="round"/>
    <path d="M6.685 37.406c0-18.07 14.648-32.718 32.718-32.718 18.07 0 32.718 14.648 32.718 32.72l-4.233-.003c0-15.733-12.753-28.485-28.485-28.485S10.918 21.672 10.918 37.405H6.685z" fill="#FFF588"/>
    <path d="M6.685 37.406c0-18.07 14.648-32.718 32.718-32.718 18.07 0 32.718 14.648 32.718 32.72l-4.233-.003c0-15.733-12.753-28.485-28.485-28.485S10.918 21.672 10.918 37.405H6.685z" stroke="#373535" stroke-width=".8" stroke-linecap="round" stroke-linejoin="round"/>
    <path d="M10.918 37.405c0-15.733 12.753-28.485 28.485-28.485 15.731 0 28.485 12.752 28.485 28.485l-4.233-.002c0-13.394-10.858-24.252-24.252-24.252-13.394 0-24.252 10.858-24.252 24.252l-4.233.002z" fill="#6EC287"/>
    <path d="M10.918 37.405c0-15.733 12.753-28.485 28.485-28.485 15.731 0 28.485 12.752 28.485 28.485l-4.233-.002c0-13.394-10.858-24.252-24.252-24.252-13.394 0-24.252 10.858-24.252 24.252l-4.233.002z" stroke="#373535" stroke-width=".8" stroke-linecap="round" stroke-linejoin="round"/>
    <path d="M15.151 37.403c0-13.394 10.857-24.252 24.252-24.252 13.394 0 24.251 10.858 24.251 24.252l-4.233-.002c0-11.056-8.962-20.019-20.018-20.019-11.056 0-20.019 8.963-20.019 20.02h-4.233z" fill="#9395C9"/>
    <path d="M15.151 37.403c0-13.394 10.857-24.252 24.252-24.252 13.394 0 24.251 10.858 24.251 24.252l-4.233-.002c0-11.056-8.962-20.019-20.018-20.019-11.056 0-20.019 8.963-20.019 20.02h-4.233z" stroke="#373535" stroke-width=".8" stroke-linecap="round" stroke-linejoin="round"/>
    <path d="M19.385 37.401c0-11.056 8.962-20.019 20.018-20.019 11.056 0 20.018 8.963 20.018 20.02l-4.233-.003c0-8.718-7.066-15.784-15.785-15.784-8.718 0-15.785 7.066-15.785 15.784l-4.233.002z" fill="#70CFF5"/>
    <path d="M19.385 37.401c0-11.056 8.962-20.019 20.018-20.019 11.056 0 20.018 8.963 20.018 20.02l-4.233-.003c0-8.718-7.066-15.784-15.785-15.784-8.718 0-15.785 7.066-15.785 15.784l-4.233.002z" stroke="#373535" stroke-width=".8" stroke-linecap="round" stroke-linejoin="round"/>
    <path fill="#FFF588" d="M10.246 37.397H.457l7.919 5.754L5.35 52.46l7.919-5.752 7.918 5.752-3.025-9.308 7.92-5.754h-9.788l-3.025-9.31z"/>
    <path stroke="#373535" stroke-width=".8" stroke-linecap="round" stroke-linejoin="round" d="M13.27 28.088l3.024 9.31h9.788l-7.919 5.753 3.025 9.307-7.918-5.752-7.92 5.752 3.026-9.307-7.919-5.753h9.789z"/>
    <path fill="#FFF588" d="M65.733 28.088l3.024 9.31h9.789l-7.919 5.753 3.025 9.307-7.919-5.752-7.918 5.752 3.025-9.307-7.92-5.753h9.79z"/>
    <g>
      <path stroke="#373535" stroke-width=".8" stroke-linecap="round" stroke-linejoin="round" d="M65.733 28.088l3.024 9.31h9.789l-7.919 5.753 3.025 9.307-7.919-5.752-7.918 5.752 3.025-9.307-7.92-5.753h9.79z"/>
      <path d="M11.635 75.15c-2.643 0-5.12-.613-7.167-1.774a.456.456 0 0 1-.22-.493l1.16-5.42a.458.458 0 0 1 .448-.362h.165c.22 0 .408.157.45.372.678 3.541 3.008 5.74 6.077 5.74 1.765 0 2.86-.957 2.86-2.501 0-.991-.374-1.772-2.243-2.596l-3.958-1.8c-2.925-1.315-4.471-3.448-4.471-6.168 0-2.94 1.973-6.374 7.536-6.374 2.208 0 4.8.63 6.604 1.604.188.1.28.319.224.523l-1.355 4.923a.458.458 0 0 1-.441.336h-.166a.456.456 0 0 1-.446-.36c-.74-3.299-2.652-5.116-5.39-5.116-1.773 0-2.833.759-2.833 2.031 0 .97.379 1.705 2.308 2.6l4.177 1.962c2.974 1.361 4.245 3.116 4.245 5.863 0 4.128-3.11 7.01-7.564 7.01" fill="#F16C59"/>
      <g transform="translate(3.429 52.75)">
        <mask id="b" fill="#fff">
          <use xlink:href="#a"/>
        </mask>
        <path d="M8.843.566C2.943.566.85 4.248.85 7.398c0 2.912 1.64 5.19 4.742 6.584l3.951 1.798c1.83.808 1.98 1.492 1.98 2.182 0 1.28-.899 2.044-2.404 2.044-2.836 0-4.993-2.058-5.627-5.369a.915.915 0 0 0-.898-.743h-.166a.917.917 0 0 0-.895.724L.372 20.036c-.084.391.096.791.443.988 2.115 1.198 4.67 1.834 7.391 1.834 4.724 0 8.022-3.072 8.022-7.468 0-2.915-1.393-4.851-4.517-6.28L7.544 7.152C5.652 6.274 5.5 5.642 5.5 4.965c0-1 .866-1.575 2.376-1.575 2.5 0 4.255 1.69 4.943 4.762a.914.914 0 0 0 .891.714h.167a.914.914 0 0 0 .881-.672l1.354-4.922a.914.914 0 0 0-.447-1.047C13.797 1.217 11.12.566 8.843.566m0 .916c2.129 0 4.644.607 6.387 1.547l-1.354 4.923h-.167c-.829-3.706-3.069-5.476-5.834-5.476-2.24 0-3.29 1.134-3.29 2.49 0 1.298.662 2.128 2.57 3.013l4.176 1.963c2.904 1.327 3.983 2.986 3.983 5.448 0 3.788-2.821 6.552-7.108 6.552-2.708 0-5.088-.662-6.94-1.714l1.162-5.42h.166c.747 3.899 3.4 6.113 6.525 6.113 1.963 0 3.32-1.107 3.32-2.96 0-1.3-.637-2.183-2.517-3.014l-3.955-1.798C3.202 11.906 1.764 9.915 1.764 7.4c0-3.07 2.102-5.917 7.079-5.917" fill="#373535" mask="url(#b)"/>
      </g>
      <path d="M28.756 74.598a.458.458 0 0 1-.457-.457v-.167c0-.21.145-.395.35-.445.67-.162.894-.36.894-1.213V63.88c0-1.844-.859-2.058-1.506-2.058-.724 0-1.232.32-1.59 1.005v9.488c0 .865.213 1.053.893 1.212.207.05.352.235.352.446v.167a.458.458 0 0 1-.457.457h-6.968a.458.458 0 0 1-.457-.457v-.167c0-.213.146-.398.354-.446.955-.22 1.278-.568 1.278-1.38V57.717c0-1.046-.253-1.344-1.226-1.454a.456.456 0 0 1-.406-.454v-.167c0-.203.134-.381.327-.438l5.724-1.686a.453.453 0 0 1 .587.439v6.592c.852-.947 2.125-1.493 3.608-1.493 2.813 0 4.493 1.733 4.493 4.633v8.46c0 .812.324 1.16 1.278 1.38a.457.457 0 0 1 .354.446v.167a.458.458 0 0 1-.457.457h-6.968z" fill="#FFF588"/>
      <path d="M26.905 62.945c.27-.464.617-.665 1.133-.665.39 0 1.048 0 1.048 1.601v8.434c0 .64-.084.659-.545.77a.918.918 0 0 0-.545.381.912.912 0 0 0-.551-.382c-.49-.115-.54-.126-.54-.769v-9.37zm-.914-9.905a.906.906 0 0 0-.258.038l-5.725 1.686a.914.914 0 0 0-.655.877v.167c0 .464.349.856.81.907.69.08.821.121.821 1V72.15c0 .523-.079.739-.922.933a.913.913 0 0 0-.709.89v.167c0 .504.41.915.913.915h6.97a.911.911 0 0 0 .76-.407.913.913 0 0 0 .76.407h6.969c.504 0 .914-.41.914-.915v-.166a.915.915 0 0 0-.71-.89c-.842-.195-.922-.411-.922-.934v-8.462c0-3.14-1.897-5.09-4.952-5.09-1.193 0-2.282.345-3.15.955v-5.598a.917.917 0 0 0-.914-.915zm0 .915v8.295c.525-1.632 2.047-2.737 4.064-2.737 2.627 0 4.038 1.63 4.038 4.175v8.462c0 1.105.552 1.576 1.632 1.824v.166h-6.968v-.166c.91-.221 1.243-.636 1.243-1.659v-8.434c0-1.687-.69-2.515-1.962-2.515-1.079 0-1.688.606-2.047 1.354v9.595c0 1.023.304 1.438 1.245 1.659v.166h-6.97v-.166c1.08-.248 1.632-.72 1.632-1.824V57.715c0-1.272-.414-1.77-1.632-1.907v-.167l5.725-1.686z" fill="#373535"/>
      <path d="M40.485 59.086c-1.544 0-2.752-1.198-2.752-2.726s1.208-2.726 2.752-2.726a2.696 2.696 0 0 1 2.725 2.726 2.696 2.696 0 0 1-2.725 2.726zm-3.512 15.512a.457.457 0 0 1-.457-.458v-.166c0-.213.146-.397.354-.445.954-.222 1.278-.568 1.278-1.38v-8.794c0-1.249-.26-1.45-1.215-1.533a.458.458 0 0 1-.417-.456V61.2c0-.206.136-.385.334-.44l5.724-1.604a.45.45 0 0 1 .399.075c.114.087.18.221.18.364V72.15c0 .811.324 1.158 1.278 1.379a.457.457 0 0 1 .355.445v.166a.458.458 0 0 1-.458.458h-7.355z" fill="#6EC287"/>
      <path d="M40.485 53.178c-1.8 0-3.21 1.398-3.21 3.182 0 1.54 1.05 2.793 2.496 3.106l-3.045.853a.915.915 0 0 0-.667.881v.166c0 .473.36.868.833.91.722.065.799.07.799 1.08v8.794c0 .523-.08.74-.924.933a.914.914 0 0 0-.708.89v.168c0 .504.409.914.914.914h7.355c.506 0 .915-.41.915-.914v-.167a.914.914 0 0 0-.709-.89c-.843-.195-.923-.41-.923-.934V59.595a.914.914 0 0 0-.913-.914h-.016c.61-.575.985-1.396.985-2.321a3.148 3.148 0 0 0-3.182-3.182m2.213 6.417V72.15c0 1.105.552 1.576 1.63 1.824v.167h-7.355v-.167c1.079-.248 1.63-.72 1.63-1.824v-8.795c0-1.437-.385-1.88-1.63-1.99V61.2l5.725-1.605m-2.213-5.502c1.3 0 2.267.995 2.267 2.267 0 1.272-.968 2.269-2.267 2.269-1.3 0-2.295-.997-2.295-2.269 0-1.272.996-2.267 2.295-2.267" fill="#373535"/>
      <path d="M54.064 74.598a.458.458 0 0 1-.457-.457v-.167c0-.21.145-.395.35-.445.67-.162.894-.36.894-1.213V63.88c0-1.849-.79-2.085-1.479-2.085-.707 0-1.251.34-1.617 1.008v9.512c0 .865.213 1.053.893 1.212.207.05.352.235.352.446v.167a.458.458 0 0 1-.457.457h-6.968a.458.458 0 0 1-.458-.457v-.167c0-.213.147-.398.355-.446.954-.22 1.277-.568 1.277-1.38v-8.82c0-1.274-.259-1.477-1.214-1.563a.456.456 0 0 1-.418-.455v-.166c0-.205.138-.386.336-.44l5.725-1.577a.464.464 0 0 1 .398.077.46.46 0 0 1 .18.364v.991c.85-.953 2.125-1.504 3.607-1.504 2.815 0 4.495 1.743 4.495 4.662v8.432c0 .811.322 1.159 1.277 1.38a.457.457 0 0 1 .354.445v.167a.458.458 0 0 1-.457.457h-6.968z" fill="#9395C9"/>
      <path d="M52.213 62.927c.369-.6.832-.675 1.16-.675.407 0 1.02 0 1.02 1.63v8.434c0 .637-.083.658-.544.77a.911.911 0 0 0-.545.38.917.917 0 0 0-.552-.381c-.488-.116-.54-.128-.54-.77v-9.388zm3.15-4.329c-1.207 0-2.29.337-3.15.943a.915.915 0 0 0-1.157-.855l-5.724 1.577a.914.914 0 0 0-.671.88v.167c0 .474.36.87.833.91.722.065.798.07.798 1.108v8.82c0 .524-.08.741-.923.936a.914.914 0 0 0-.708.89v.167c0 .504.409.913.913.913h6.969c.317 0 .597-.16.761-.406a.909.909 0 0 0 .76.406h6.968c.505 0 .914-.41.914-.913v-.167a.914.914 0 0 0-.708-.89c-.844-.195-.922-.412-.922-.935v-8.433c0-3.157-1.898-5.118-4.952-5.118zm0 .915c2.627 0 4.038 1.604 4.038 4.203v8.433c0 1.106.552 1.576 1.631 1.825v.167h-6.968v-.167c.912-.22 1.244-.637 1.244-1.658V63.88c0-1.688-.636-2.544-1.935-2.544-1.08 0-1.715.636-2.075 1.356v9.623c0 1.021.304 1.437 1.245 1.658v.167h-6.97v-.167c1.08-.25 1.633-.719 1.633-1.825v-8.82c0-1.466-.386-1.908-1.632-2.019v-.167l5.724-1.575v2.71c.526-1.66 2.047-2.765 4.066-2.765z" fill="#373535"/>
      <path d="M69.51 64.613c-.03-1.769-.323-2.945-.872-3.5-.247-.248-.554-.37-.938-.37-1.243 0-2.025 1.478-2.057 3.87h3.867zm-1.366 10.4c-3.177 0-6.597-2.41-6.597-7.704 0-4.859 2.78-8.253 6.763-8.253 1.633 0 3.102.578 4.139 1.627 1.18 1.192 1.763 2.904 1.737 5.085a.456.456 0 0 1-.457.451h-8.01c.368 2.924 1.91 4.588 4.277 4.588 1.59 0 2.533-.574 3.152-1.918a.457.457 0 0 1 .54-.25l.193.056a.457.457 0 0 1 .326.517c-.63 3.632-2.897 5.801-6.063 5.801z" fill="#70CFF5"/>
      <path d="M66.117 64.156c.112-1.791.72-2.956 1.584-2.956.262 0 .452.074.612.235.248.25.637.924.724 2.72h-2.92zm2.192-5.558c-4.25 0-7.22 3.582-7.22 8.712 0 5.606 3.657 8.159 7.055 8.159 3.406 0 5.842-2.31 6.514-6.178a.916.916 0 0 0-.65-1.036l-.195-.055a.913.913 0 0 0-1.08.497c-.547 1.19-1.315 1.653-2.737 1.653-2.526 0-3.43-1.999-3.743-3.674h7.477c.5 0 .907-.402.913-.903.027-2.275-.618-4.147-1.869-5.413-1.123-1.136-2.708-1.762-4.465-1.762zm-3.124 6.473h4.784c.027-3.54-.886-4.785-2.268-4.785-1.548 0-2.516 1.714-2.516 4.48v.305zm3.124-5.557c2.683 0 5.475 1.685 5.42 6.248h-8.517c.277 3.539 2.102 5.502 4.784 5.502 1.493 0 2.765-.442 3.567-2.184l.193.054c-.69 3.983-3.207 5.422-5.612 5.422-3.208 0-6.14-2.49-6.14-7.246 0-4.535 2.517-7.796 6.305-7.796z" fill="#373535"/>
    </g>
  </g>
</svg>