<svg width="59" height="68" xmlns="http://www.w3.org/2000/svg">
  <g fill="none" fill-rule="evenodd">
    <path d="M19.169 10.06c3.44-4.402 9.65-5.298 13.868-2.003 4.218 3.294 4.85 9.536 1.41 13.941-3.442 4.404-9.648 5.3-13.867 2.003-4.22-3.295-4.85-9.535-1.411-13.94" fill="#E42127"/>
    <path d="M19.169 10.06c3.44-4.402 9.65-5.298 13.868-2.003 4.218 3.294 4.85 9.536 1.41 13.941-3.442 4.404-9.648 5.3-13.867 2.003-4.22-3.295-4.85-9.535-1.411-13.94" fill="#F16550"/>
    <path d="M19.169 10.06c3.44-4.402 9.65-5.298 13.868-2.003 4.218 3.294 4.85 9.536 1.41 13.941-3.442 4.404-9.648 5.3-13.867 2.003-4.22-3.295-4.85-9.535-1.411-13.94z" stroke="#151117" stroke-width=".8" stroke-linecap="round" stroke-linejoin="round"/>
    <path d="M30.422 14.233c3.29-4.209 9.227-5.069 13.259-1.916 4.034 3.152 4.639 9.119 1.347 13.328-3.288 4.212-9.223 5.07-13.26 1.917-4.033-3.153-4.634-9.118-1.346-13.329" fill="#E42127"/>
    <path d="M30.422 14.233c3.29-4.209 9.227-5.069 13.259-1.916 4.034 3.152 4.639 9.119 1.347 13.328-3.288 4.212-9.223 5.07-13.26 1.917-4.033-3.153-4.634-9.118-1.346-13.329" fill="#F16550"/>
    <path d="M30.422 14.233c3.29-4.209 9.227-5.069 13.259-1.916 4.034 3.152 4.639 9.119 1.347 13.328-3.288 4.212-9.223 5.07-13.26 1.917-4.033-3.153-4.634-9.118-1.346-13.329z" stroke="#151117" stroke-width=".8" stroke-linecap="round" stroke-linejoin="round"/>
    <path d="M41.355 29.55c3.286-4.21 9.227-5.069 13.259-1.916 4.036 3.149 4.638 9.116 1.347 13.328-3.289 4.21-9.224 5.068-13.259 1.916-4.032-3.153-4.634-9.12-1.347-13.328" fill="#E42127"/>
    <path d="M41.355 29.55c3.286-4.21 9.227-5.069 13.259-1.916 4.036 3.149 4.638 9.116 1.347 13.328-3.289 4.21-9.224 5.068-13.259 1.916-4.032-3.153-4.634-9.12-1.347-13.328" fill="#F16550"/>
    <path d="M41.355 29.55c3.286-4.21 9.227-5.069 13.259-1.916 4.036 3.149 4.638 9.116 1.347 13.328-3.289 4.21-9.224 5.068-13.259 1.916-4.032-3.153-4.634-9.12-1.347-13.328z" stroke="#151117" stroke-width=".8" stroke-linecap="round" stroke-linejoin="round"/>
    <path d="M38.364 20.064c3.286-4.21 9.227-5.068 13.26-1.915 4.033 3.15 4.637 9.116 1.346 13.328-3.289 4.209-9.224 5.068-13.258 1.916-4.033-3.153-4.637-9.12-1.348-13.329" fill="#E42127"/>
    <path d="M38.364 20.064c3.286-4.21 9.227-5.068 13.26-1.915 4.033 3.15 4.637 9.116 1.346 13.328-3.289 4.209-9.224 5.068-13.258 1.916-4.033-3.153-4.637-9.12-1.348-13.329" fill="#F16550"/>
    <path d="M38.364 20.064c3.286-4.21 9.227-5.068 13.26-1.915 4.033 3.15 4.637 9.116 1.346 13.328-3.289 4.209-9.224 5.068-13.258 1.916-4.033-3.153-4.637-9.12-1.348-13.329z" stroke="#151117" stroke-width=".8" stroke-linecap="round" stroke-linejoin="round"/>
    <path d="M7.174 53.4c2.757-3.528 7.648-4.307 10.93-1.748 3.278 2.564 3.701 7.5.944 11.026-2.754 3.53-7.647 4.313-10.924 1.749-3.28-2.56-3.707-7.498-.95-11.026" fill="#E42127"/>
    <path d="M7.174 53.4c2.757-3.528 7.648-4.307 10.93-1.748 3.278 2.564 3.701 7.5.944 11.026-2.754 3.53-7.647 4.313-10.924 1.749-3.28-2.56-3.707-7.498-.95-11.026" fill="#F16550"/>
    <path d="M7.174 53.4c2.757-3.528 7.648-4.307 10.93-1.748 3.278 2.564 3.701 7.5.944 11.026-2.754 3.53-7.647 4.313-10.924 1.749-3.28-2.56-3.707-7.498-.95-11.026z" stroke="#151117" stroke-width=".8" stroke-linecap="round" stroke-linejoin="round"/>
    <path d="M12.21 54.612c2.758-3.528 7.65-4.308 10.932-1.749 3.279 2.564 3.7 7.5.942 11.026-2.754 3.53-7.644 4.312-10.923 1.749-3.28-2.56-3.707-7.498-.95-11.026" fill="#E42127"/>
    <path d="M12.21 54.612c2.758-3.528 7.65-4.308 10.932-1.749 3.279 2.564 3.7 7.5.942 11.026-2.754 3.53-7.644 4.312-10.923 1.749-3.28-2.56-3.707-7.498-.95-11.026" fill="#F16550"/>
    <path d="M12.21 54.612c2.758-3.528 7.65-4.308 10.932-1.749 3.279 2.564 3.7 7.5.942 11.026-2.754 3.53-7.644 4.312-10.923 1.749-3.28-2.56-3.707-7.498-.95-11.026z" stroke="#151117" stroke-width=".8" stroke-linecap="round" stroke-linejoin="round"/>
    <path d="M2.558 47.069c2.755-3.526 7.648-4.308 10.93-1.746 3.278 2.561 3.701 7.497.945 11.028-2.755 3.527-7.648 4.308-10.927 1.747-3.28-2.563-3.705-7.501-.948-11.03" fill="#E42127"/>
    <path d="M2.558 47.069c2.755-3.526 7.648-4.308 10.93-1.746 3.278 2.561 3.701 7.497.945 11.028-2.755 3.527-7.648 4.308-10.927 1.747-3.28-2.563-3.705-7.501-.948-11.03" fill="#F16550"/>
    <path d="M2.558 47.069c2.755-3.526 7.648-4.308 10.93-1.746 3.278 2.561 3.701 7.497.945 11.028-2.755 3.527-7.648 4.308-10.927 1.747-3.28-2.563-3.705-7.501-.948-11.03z" stroke="#151117" stroke-width=".8" stroke-linecap="round" stroke-linejoin="round"/>
    <path d="M10.942 49.322c2.755-3.528 7.648-4.31 10.93-1.748 3.278 2.563 3.702 7.5.944 11.025-2.754 3.53-7.647 4.313-10.926 1.75-3.28-2.563-3.705-7.499-.948-11.027" fill="#E42127"/>
    <path d="M10.942 49.322c2.755-3.528 7.648-4.31 10.93-1.748 3.278 2.563 3.702 7.5.944 11.025-2.754 3.53-7.647 4.313-10.926 1.75-3.28-2.563-3.705-7.499-.948-11.027" fill="#F16550"/>
    <path d="M10.942 49.322c2.755-3.528 7.648-4.31 10.93-1.748 3.278 2.563 3.702 7.5.944 11.025-2.754 3.53-7.647 4.313-10.926 1.75-3.28-2.563-3.705-7.499-.948-11.027z" stroke="#151117" stroke-width=".8" stroke-linecap="round" stroke-linejoin="round"/>
    <path d="M19.517 54.291c2.758-3.526 7.649-4.308 10.931-1.748 3.279 2.563 3.7 7.5.946 11.027-2.757 3.529-7.648 4.31-10.927 1.747-3.28-2.56-3.705-7.498-.95-11.026" fill="#E42127"/>
    <path d="M19.517 54.291c2.758-3.526 7.649-4.308 10.931-1.748 3.279 2.563 3.7 7.5.946 11.027-2.757 3.529-7.648 4.31-10.927 1.747-3.28-2.56-3.705-7.498-.95-11.026" fill="#F16550"/>
    <path d="M19.517 54.291c2.758-3.526 7.649-4.308 10.931-1.748 3.279 2.563 3.7 7.5.946 11.027-2.757 3.529-7.648 4.31-10.927 1.747-3.28-2.56-3.705-7.498-.95-11.026z" stroke="#151117" stroke-width=".8" stroke-linecap="round" stroke-linejoin="round"/>
    <path d="M28.567 50.473c2.754-3.528 7.648-4.308 10.929-1.748 3.278 2.563 3.702 7.5.945 11.027-2.755 3.528-7.648 4.31-10.926 1.747-3.28-2.56-3.705-7.498-.948-11.026" fill="#E42127"/>
    <path d="M28.567 50.473c2.754-3.528 7.648-4.308 10.929-1.748 3.278 2.563 3.702 7.5.945 11.027-2.755 3.528-7.648 4.31-10.926 1.747-3.28-2.56-3.705-7.498-.948-11.026" fill="#F16550"/>
    <path d="M28.567 50.473c2.754-3.528 7.648-4.308 10.929-1.748 3.278 2.563 3.702 7.5.945 11.027-2.755 3.528-7.648 4.31-10.926 1.747-3.28-2.56-3.705-7.498-.948-11.026z" stroke="#151117" stroke-width=".8" stroke-linecap="round" stroke-linejoin="round"/>
    <path d="M41.268 41.758c2.757-3.529 7.648-4.31 10.93-1.749 3.28 2.563 3.701 7.5.947 11.028-2.757 3.528-7.648 4.31-10.927 1.747-3.281-2.563-3.707-7.498-.95-11.026" fill="#E42127"/>
    <path d="M41.268 41.758c2.757-3.529 7.648-4.31 10.93-1.749 3.28 2.563 3.701 7.5.947 11.028-2.757 3.528-7.648 4.31-10.927 1.747-3.281-2.563-3.707-7.498-.95-11.026" fill="#F16550"/>
    <path d="M41.268 41.758c2.757-3.529 7.648-4.31 10.93-1.749 3.28 2.563 3.701 7.5.947 11.028-2.757 3.528-7.648 4.31-10.927 1.747-3.281-2.563-3.707-7.498-.95-11.026z" stroke="#151117" stroke-width=".8" stroke-linecap="round" stroke-linejoin="round"/>
    <path d="M2.19 40.943c2.756-3.528 7.647-4.31 10.93-1.748 3.28 2.563 3.7 7.5.943 11.026-2.755 3.527-7.647 4.312-10.923 1.748-3.282-2.562-3.707-7.498-.95-11.026" fill="#E42127"/>
    <path d="M2.19 40.943c2.756-3.528 7.647-4.31 10.93-1.748 3.28 2.563 3.7 7.5.943 11.026-2.755 3.527-7.647 4.312-10.923 1.748-3.282-2.562-3.707-7.498-.95-11.026" fill="#F16550"/>
    <path d="M2.19 40.943c2.756-3.528 7.647-4.31 10.93-1.748 3.28 2.563 3.7 7.5.943 11.026-2.755 3.527-7.647 4.312-10.923 1.748-3.282-2.562-3.707-7.498-.95-11.026z" stroke="#151117" stroke-width=".8" stroke-linecap="round" stroke-linejoin="round"/>
    <path d="M21.212 47.775c2.97-3.8 8.24-4.64 11.77-1.882 3.53 2.76 3.99 8.074 1.023 11.874-2.969 3.798-8.24 4.642-11.77 1.884-3.533-2.76-3.991-8.076-1.023-11.876" fill="#E42127"/>
    <path d="M21.212 47.775c2.97-3.8 8.24-4.64 11.77-1.882 3.53 2.76 3.99 8.074 1.023 11.874-2.969 3.798-8.24 4.642-11.77 1.884-3.533-2.76-3.991-8.076-1.023-11.876" fill="#F16550"/>
    <path d="M21.212 47.775c2.97-3.8 8.24-4.64 11.77-1.882 3.53 2.76 3.99 8.074 1.023 11.874-2.969 3.798-8.24 4.642-11.77 1.884-3.533-2.76-3.991-8.076-1.023-11.876z" stroke="#151117" stroke-width=".8" stroke-linecap="round" stroke-linejoin="round"/>
    <path d="M3.004 30.502c2.968-3.8 8.237-4.642 11.769-1.88 3.531 2.758 3.99 8.072 1.022 11.873-2.969 3.798-8.24 4.642-11.77 1.88C.496 39.618.036 34.3 3.005 30.503" fill="#E42127"/>
    <path d="M3.004 30.502c2.968-3.8 8.237-4.642 11.769-1.88 3.531 2.758 3.99 8.072 1.022 11.873-2.969 3.798-8.24 4.642-11.77 1.88C.496 39.618.036 34.3 3.005 30.503" fill="#F16550"/>
    <path d="M3.004 30.502c2.968-3.8 8.237-4.642 11.769-1.88 3.531 2.758 3.99 8.072 1.022 11.873-2.969 3.798-8.24 4.642-11.77 1.88C.496 39.618.036 34.3 3.005 30.503z" stroke="#151117" stroke-width=".8" stroke-linecap="round" stroke-linejoin="round"/>
    <path d="M10.413 39.338c2.968-3.799 8.24-4.64 11.77-1.882 3.53 2.76 3.99 8.073 1.023 11.874-2.969 3.798-8.242 4.643-11.771 1.881-3.532-2.758-3.99-8.075-1.022-11.873" fill="#E42127"/>
    <path d="M10.413 39.338c2.968-3.799 8.24-4.64 11.77-1.882 3.53 2.76 3.99 8.073 1.023 11.874-2.969 3.798-8.242 4.643-11.771 1.881-3.532-2.758-3.99-8.075-1.022-11.873" fill="#F16550"/>
    <path d="M10.413 39.338c2.968-3.799 8.24-4.64 11.77-1.882 3.53 2.76 3.99 8.073 1.023 11.874-2.969 3.798-8.242 4.643-11.771 1.881-3.532-2.758-3.99-8.075-1.022-11.873z" stroke="#151117" stroke-width=".8" stroke-linecap="round" stroke-linejoin="round"/>
    <path d="M6.53 21.233C9.239 17.77 14.043 17 17.262 19.515c3.217 2.517 3.634 7.365.93 10.827-2.705 3.462-7.507 4.23-10.728 1.717-3.22-2.519-3.64-7.363-.932-10.826" fill="#E42127"/>
    <path d="M6.53 21.233C9.239 17.77 14.043 17 17.262 19.515c3.217 2.517 3.634 7.365.93 10.827-2.705 3.462-7.507 4.23-10.728 1.717-3.22-2.519-3.64-7.363-.932-10.826" fill="#F16550"/>
    <path d="M6.53 21.233C9.239 17.77 14.043 17 17.262 19.515c3.217 2.517 3.634 7.365.93 10.827-2.705 3.462-7.507 4.23-10.728 1.717-3.22-2.519-3.64-7.363-.932-10.826z" stroke="#151117" stroke-width=".8" stroke-linecap="round" stroke-linejoin="round"/>
    <path d="M34.584 45.447c2.606-3.337 7.233-4.077 10.336-1.653 3.103 2.421 3.505 7.092.897 10.43-2.606 3.337-7.233 4.077-10.337 1.653-3.101-2.424-3.502-7.093-.896-10.43" fill="#E42127"/>
    <path d="M34.584 45.447c2.606-3.337 7.233-4.077 10.336-1.653 3.103 2.421 3.505 7.092.897 10.43-2.606 3.337-7.233 4.077-10.337 1.653-3.101-2.424-3.502-7.093-.896-10.43" fill="#F16550"/>
    <path d="M34.584 45.447c2.606-3.337 7.233-4.077 10.336-1.653 3.103 2.421 3.505 7.092.897 10.43-2.606 3.337-7.233 4.077-10.337 1.653-3.101-2.424-3.502-7.093-.896-10.43z" stroke="#151117" stroke-width=".8" stroke-linecap="round" stroke-linejoin="round"/>
    <path d="M12.55 27.68c2.971-3.798 8.24-4.64 11.771-1.88 3.532 2.758 3.99 8.072 1.022 11.873-2.968 3.798-8.237 4.641-11.77 1.881-3.532-2.758-3.99-8.073-1.023-11.873" fill="#E42127"/>
    <path d="M12.55 27.68c2.971-3.798 8.24-4.64 11.771-1.88 3.532 2.758 3.99 8.072 1.022 11.873-2.968 3.798-8.237 4.641-11.77 1.881-3.532-2.758-3.99-8.073-1.023-11.873" fill="#F16550"/>
    <path d="M12.55 27.68c2.971-3.798 8.24-4.64 11.771-1.88 3.532 2.758 3.99 8.072 1.022 11.873-2.968 3.798-8.237 4.641-11.77 1.881-3.532-2.758-3.99-8.073-1.023-11.873z" stroke="#151117" stroke-width=".8" stroke-linecap="round" stroke-linejoin="round"/>
    <path d="M22.445 38.128c2.969-3.798 8.238-4.64 11.771-1.881 3.531 2.758 3.988 8.074 1.02 11.874-2.969 3.798-8.237 4.642-11.77 1.88-3.53-2.758-3.989-8.072-1.02-11.873" fill="#E42127"/>
    <path d="M22.445 38.128c2.969-3.798 8.238-4.64 11.771-1.881 3.531 2.758 3.988 8.074 1.02 11.874-2.969 3.798-8.237 4.642-11.77 1.88-3.53-2.758-3.989-8.072-1.02-11.873" fill="#F16550"/>
    <path d="M22.445 38.128c2.969-3.798 8.238-4.64 11.771-1.881 3.531 2.758 3.988 8.074 1.02 11.874-2.969 3.798-8.237 4.642-11.77 1.88-3.53-2.758-3.989-8.072-1.02-11.873z" stroke="#151117" stroke-width=".8" stroke-linecap="round" stroke-linejoin="round"/>
    <path d="M38.687 32.966c3.39-4.337 9.406-5.301 13.44-2.15 4.033 3.153 4.553 9.226 1.164 13.563-3.39 4.337-9.404 5.3-13.437 2.148-4.036-3.151-4.557-9.224-1.167-13.561" fill="#E42127"/>
    <path d="M38.687 32.966c3.39-4.337 9.406-5.301 13.44-2.15 4.033 3.153 4.553 9.226 1.164 13.563-3.39 4.337-9.404 5.3-13.437 2.148-4.036-3.151-4.557-9.224-1.167-13.561" fill="#F16550"/>
    <path d="M38.687 32.966c3.39-4.337 9.406-5.301 13.44-2.15 4.033 3.153 4.553 9.226 1.164 13.563-3.39 4.337-9.404 5.3-13.437 2.148-4.036-3.151-4.557-9.224-1.167-13.561z" stroke="#151117" stroke-width=".8" stroke-linecap="round" stroke-linejoin="round"/>
    <path d="M14.425 14.011c3.288-4.21 9.226-5.068 13.258-1.916 4.036 3.15 4.638 9.117 1.348 13.329-3.287 4.208-9.225 5.068-13.257 1.915-4.034-3.152-4.636-9.12-1.35-13.328" fill="#E42127"/>
    <path d="M14.425 14.011c3.288-4.21 9.226-5.068 13.258-1.916 4.036 3.15 4.638 9.117 1.348 13.329-3.287 4.208-9.225 5.068-13.257 1.915-4.034-3.152-4.636-9.12-1.35-13.328" fill="#F16550"/>
    <path d="M14.425 14.011c3.288-4.21 9.226-5.068 13.258-1.916 4.036 3.15 4.638 9.117 1.348 13.329-3.287 4.208-9.225 5.068-13.257 1.915-4.034-3.152-4.636-9.12-1.35-13.328z" stroke="#151117" stroke-width=".8" stroke-linecap="round" stroke-linejoin="round"/>
    <path d="M24.546 25.51c3.39-4.337 9.406-5.3 13.44-2.149 4.034 3.15 4.553 9.225 1.166 13.562-3.39 4.337-9.408 5.302-13.44 2.15-4.032-3.151-4.556-9.225-1.166-13.563" fill="#E42127"/>
    <path d="M24.546 25.51c3.39-4.337 9.406-5.3 13.44-2.149 4.034 3.15 4.553 9.225 1.166 13.562-3.39 4.337-9.408 5.302-13.44 2.15-4.032-3.151-4.556-9.225-1.166-13.563" fill="#F16550"/>
    <path d="M24.546 25.51c3.39-4.337 9.406-5.3 13.44-2.149 4.034 3.15 4.553 9.225 1.166 13.562-3.39 4.337-9.408 5.302-13.44 2.15-4.032-3.151-4.556-9.225-1.166-13.563z" stroke="#151117" stroke-width=".8" stroke-linecap="round" stroke-linejoin="round"/>
    <path d="M40.658 17.013c1.084-2.523-.511-6.019-5.454-8.14-6.942-2.977-13.777 3.57-15.56 6.636 4.16-1.857 5.54 2.38 11.315 4.857 6.25 2.682 8.852-1.375 9.699-3.353" fill="#E42127"/>
    <path d="M40.658 17.013c1.084-2.523-.511-6.019-5.454-8.14-6.942-2.977-13.777 3.57-15.56 6.636 4.16-1.857 5.54 2.38 11.315 4.857 6.25 2.682 8.852-1.375 9.699-3.353" fill="#68C083"/>
    <path d="M40.658 17.013c1.084-2.523-.511-6.019-5.454-8.14-6.942-2.977-13.777 3.57-15.56 6.636 4.16-1.857 5.54 2.38 11.315 4.857 6.25 2.682 8.852-1.375 9.699-3.353z" stroke="#151117" stroke-width=".8" stroke-linecap="round" stroke-linejoin="round"/>
    <path d="M42.001 18.272c2.373-1.978 6.652-1.388 10.524 3.259 5.447 6.525.588 15.996-2.145 18.906.665-5.084-4.346-5.207-8.875-10.635-4.899-5.874-1.365-9.978.496-11.53" fill="#E42127"/>
    <path d="M42.001 18.272c2.373-1.978 6.652-1.388 10.524 3.259 5.447 6.525.588 15.996-2.145 18.906.665-5.084-4.346-5.207-8.875-10.635-4.899-5.874-1.365-9.978.496-11.53" fill="#68C083"/>
    <path d="M42.001 18.272c2.373-1.978 6.652-1.388 10.524 3.259 5.447 6.525.588 15.996-2.145 18.906.665-5.084-4.346-5.207-8.875-10.635-4.899-5.874-1.365-9.978.496-11.53z" stroke="#151117" stroke-width=".8" stroke-linecap="round" stroke-linejoin="round"/>
    <path d="M40.361 18.624c-.96-.753-1.386-1.814-.952-2.372L51.414.886c.434-.558 1.57-.402 2.53.35.966.752 1.392 1.813.956 2.375L42.893 18.977c-.438.556-1.568.4-2.532-.353" fill="#E42127"/>
    <path d="M40.361 18.624c-.96-.753-1.386-1.814-.952-2.372L51.414.886c.434-.558 1.57-.402 2.53.35.966.752 1.392 1.813.956 2.375L42.893 18.977c-.438.556-1.568.4-2.532-.353" fill="#68C083"/>
    <path d="M40.361 18.624c-.96-.753-1.386-1.814-.952-2.372L51.414.886c.434-.558 1.57-.402 2.53.35.966.752 1.392 1.813.956 2.375L42.893 18.977c-.438.556-1.568.4-2.532-.353z" stroke="#151117" stroke-width=".8"/>
    <path d="M42.09 18.783c-1.227-2.457-4.922-3.499-9.736-1.098-6.76 3.374-6.18 12.823-4.99 16.165 1.271-4.377 5.394-2.69 11.017-5.498 6.087-3.035 4.67-7.64 3.71-9.569" fill="#E42127"/>
    <path d="M42.09 18.783c-1.227-2.457-4.922-3.499-9.736-1.098-6.76 3.374-6.18 12.823-4.99 16.165 1.271-4.377 5.394-2.69 11.017-5.498 6.087-3.035 4.67-7.64 3.71-9.569" fill="#68C083"/>
    <path d="M42.09 18.783c-1.227-2.457-4.922-3.499-9.736-1.098-6.76 3.374-6.18 12.823-4.99 16.165 1.271-4.377 5.394-2.69 11.017-5.498 6.087-3.035 4.67-7.64 3.71-9.569z" stroke="#151117" stroke-width=".8" stroke-linecap="round" stroke-linejoin="round"/>
    <path d="M54.898 3.605c-.434.559-1.567.402-2.527-.349-.961-.752-1.389-1.81-.954-2.369.437-.557 1.57-.4 2.53.35.963.75 1.386 1.81.951 2.368" fill="#E42127"/>
    <path d="M54.898 3.605c-.434.559-1.567.402-2.527-.349-.961-.752-1.389-1.81-.954-2.369.437-.557 1.57-.4 2.53.35.963.75 1.386 1.81.951 2.368" fill="#68C083"/>
    <path d="M54.898 3.605c-.434.559-1.567.402-2.527-.349-.961-.752-1.389-1.81-.954-2.369.437-.557 1.57-.4 2.53.35.963.75 1.386 1.81.951 2.368zM42.895 18.974c7.47 5.78 10.753 8.35 7.484 21.463M19.643 15.51c2.458-2.12 11.433-4.303 19.18.955" stroke="#151117" stroke-width=".8"/>
    <path d="M27.364 33.851c.08-2.96 4.796-15.184 13.103-16.78" stroke="#151117" stroke-width=".8" stroke-linecap="round" stroke-linejoin="round"/>
  </g>
</svg>