<svg width="109" height="62" xmlns="http://www.w3.org/2000/svg">
  <g fill="none" fill-rule="evenodd">
    <path d="M15.6018462,14.4028385 L32.8153846,14.4028385 L32.8153846,9.11083846 L15.6018462,9.11083846 L15.6018462,14.4028385 Z M41.7710769,45.1080692 L41.7710769,60.6933 L35.0252308,60.6933 L35.0252308,50.4561462 L5.59938462,50.4561462 L5.59938462,45.1080692 L41.7710769,45.1080692 Z M42.9923077,33.8262231 C35.3741538,33.3028385 27.2907692,29.9880692 24.2086154,25.9173 C21.3009231,30.1043769 13.7409231,33.3028385 5.42492308,33.6517615 L2.69169231,28.1853 C11.0658462,28.1853 18.2187692,25.4520692 20.2541538,21.8465308 L5.48307692,21.8465308 L5.48307692,16.6106077 L42.9923077,16.6106077 L42.9923077,21.8465308 L28.3956923,21.8465308 C30.5473846,25.4520692 37.9329231,28.2434538 45.6092308,28.2434538 L42.9923077,33.8262231 Z M0.830769231,42.0259154 L0.830769231,36.6176077 L20.7193846,36.6176077 L20.7193846,31.7326846 L27.5233846,31.7326846 L27.5233846,36.6176077 L47.6446154,36.6176077 L47.6446154,42.0259154 L0.830769231,42.0259154 Z" fill="#9395C9"/>
    <path d="M15.6018462,14.4028385 L32.8153846,14.4028385 L32.8153846,9.11083846 L15.6018462,9.11083846 L15.6018462,14.4028385 Z M41.7710769,45.1080692 L41.7710769,60.6933 L35.0252308,60.6933 L35.0252308,50.4561462 L5.59938462,50.4561462 L5.59938462,45.1080692 L41.7710769,45.1080692 Z M42.9923077,33.8262231 C35.3741538,33.3028385 27.2907692,29.9880692 24.2086154,25.9173 C21.3009231,30.1043769 13.7409231,33.3028385 5.42492308,33.6517615 L2.69169231,28.1853 C11.0658462,28.1853 18.2187692,25.4520692 20.2541538,21.8465308 L5.48307692,21.8465308 L5.48307692,16.6106077 L42.9923077,16.6106077 L42.9923077,21.8465308 L28.3956923,21.8465308 C30.5473846,25.4520692 37.9329231,28.2434538 45.6092308,28.2434538 L42.9923077,33.8262231 Z M0.830769231,42.0259154 L0.830769231,36.6176077 L20.7193846,36.6176077 L20.7193846,31.7326846 L27.5233846,31.7326846 L27.5233846,36.6176077 L47.6446154,36.6176077 L47.6446154,42.0259154 L0.830769231,42.0259154 Z" stroke="#373535" stroke-width=".8"/>
    <path d="M93.2538462,22.4853923 L99.8833846,22.4853923 L99.8833846,28.1263154 L93.2538462,28.1263154 L93.2538462,40.2223154 L86.508,40.2223154 L86.508,8.81923846 L93.2538462,8.81923846 L93.2538462,22.4853923 Z M64.8747692,50.6339308 C64.8747692,53.3069308 68.9455385,55.0536231 75.7495385,55.0536231 C82.6698462,55.0536231 86.6243077,53.3069308 86.6243077,50.6339308 C86.6243077,48.0149308 82.728,46.2121615 75.7495385,46.2121615 C68.9455385,46.2121615 64.8747692,48.0149308 64.8747692,50.6339308 Z M75.7495385,60.4598538 C64.4676923,60.4598538 57.8963077,56.7380077 57.8963077,50.6339308 C57.8963077,44.5257 64.4676923,40.7457 75.7495385,40.7457 C87.0895385,40.7457 93.7190769,44.5257 93.7190769,50.6339308 C93.7190769,56.7380077 87.0313846,60.4598538 75.7495385,60.4598538 Z M79.2969231,28.8262385 L72.7255385,27.8355462 C73.3070769,25.4533154 73.8304615,21.0897 73.8304615,17.1373154 L54.2326154,17.1373154 L54.2326154,11.7871615 L80.6926154,11.7871615 C80.6926154,19.1124692 80.2855385,24.6370846 79.2969231,28.8262385 Z M68.0150769,37.7217 C62.0252308,37.9543154 55.2793846,38.1890077 51.8483077,38.1890077 L50.976,32.7225462 C54.1163077,32.7225462 57.6055385,32.7225462 60.9784615,32.6041615 L60.9784615,23.2413923 L67.7243077,23.2413923 L67.7243077,32.4297 C72.3766154,32.2552385 80.1692308,31.7900077 83.6003077,31.2084692 L84.2981538,36.3841615 C80.5763077,36.8493923 73.4815385,37.5472385 68.0150769,37.7217 Z" fill="#9395C9"/>
    <path d="M93.2538462,22.4853923 L99.8833846,22.4853923 L99.8833846,28.1263154 L93.2538462,28.1263154 L93.2538462,40.2223154 L86.508,40.2223154 L86.508,8.81923846 L93.2538462,8.81923846 L93.2538462,22.4853923 Z M64.8747692,50.6339308 C64.8747692,53.3069308 68.9455385,55.0536231 75.7495385,55.0536231 C82.6698462,55.0536231 86.6243077,53.3069308 86.6243077,50.6339308 C86.6243077,48.0149308 82.728,46.2121615 75.7495385,46.2121615 C68.9455385,46.2121615 64.8747692,48.0149308 64.8747692,50.6339308 Z M75.7495385,60.4598538 C64.4676923,60.4598538 57.8963077,56.7380077 57.8963077,50.6339308 C57.8963077,44.5257 64.4676923,40.7457 75.7495385,40.7457 C87.0895385,40.7457 93.7190769,44.5257 93.7190769,50.6339308 C93.7190769,56.7380077 87.0313846,60.4598538 75.7495385,60.4598538 Z M79.2969231,28.8262385 L72.7255385,27.8355462 C73.3070769,25.4533154 73.8304615,21.0897 73.8304615,17.1373154 L54.2326154,17.1373154 L54.2326154,11.7871615 L80.6926154,11.7871615 C80.6926154,19.1124692 80.2855385,24.6370846 79.2969231,28.8262385 Z M68.0150769,37.7217 C62.0252308,37.9543154 55.2793846,38.1890077 51.8483077,38.1890077 L50.976,32.7225462 C54.1163077,32.7225462 57.6055385,32.7225462 60.9784615,32.6041615 L60.9784615,23.2413923 L67.7243077,23.2413923 L67.7243077,32.4297 C72.3766154,32.2552385 80.1692308,31.7900077 83.6003077,31.2084692 L84.2981538,36.3841615 C80.5763077,36.8493923 73.4815385,37.5472385 68.0150769,37.7217 Z" stroke="#373535" stroke-width=".8"/>
    <path d="M19.6331538,10.3736077 L36.8466923,10.3736077 L36.8466923,5.08160769 L19.6331538,5.08160769 L19.6331538,10.3736077 Z M45.8003077,41.0788385 L45.8003077,56.6640692 L39.0544615,56.6640692 L39.0544615,46.4269154 L9.63069231,46.4269154 L9.63069231,41.0788385 L45.8003077,41.0788385 Z M47.0236154,29.7949154 C39.4054615,29.2715308 31.3220769,25.9567615 28.2399231,21.8880692 C25.3301538,26.0730692 17.7722308,29.2715308 9.45415385,29.6204538 L6.72092308,24.1539923 C15.0971538,24.1539923 22.248,21.4228385 24.2833846,17.8173 L9.51438462,17.8173 L9.51438462,12.5813769 L47.0236154,12.5813769 L47.0236154,17.8173 L32.4249231,17.8173 C34.5766154,21.4228385 41.9642308,24.2142231 49.6384615,24.2142231 L47.0236154,29.7949154 Z M4.86,37.9946077 L4.86,32.5883769 L24.7506923,32.5883769 L24.7506923,27.7013769 L31.5526154,27.7013769 L31.5526154,32.5883769 L51.6738462,32.5883769 L51.6738462,37.9946077 L4.86,37.9946077 Z" fill="#FBDDE8"/>
    <path d="M19.6331538,10.3736077 L36.8466923,10.3736077 L36.8466923,5.08160769 L19.6331538,5.08160769 L19.6331538,10.3736077 Z M45.8003077,41.0788385 L45.8003077,56.6640692 L39.0544615,56.6640692 L39.0544615,46.4269154 L9.63069231,46.4269154 L9.63069231,41.0788385 L45.8003077,41.0788385 Z M47.0236154,29.7949154 C39.4054615,29.2715308 31.3220769,25.9567615 28.2399231,21.8880692 C25.3301538,26.0730692 17.7722308,29.2715308 9.45415385,29.6204538 L6.72092308,24.1539923 C15.0971538,24.1539923 22.248,21.4228385 24.2833846,17.8173 L9.51438462,17.8173 L9.51438462,12.5813769 L47.0236154,12.5813769 L47.0236154,17.8173 L32.4249231,17.8173 C34.5766154,21.4228385 41.9642308,24.2142231 49.6384615,24.2142231 L47.0236154,29.7949154 Z M4.86,37.9946077 L4.86,32.5883769 L24.7506923,32.5883769 L24.7506923,27.7013769 L31.5526154,27.7013769 L31.5526154,32.5883769 L51.6738462,32.5883769 L51.6738462,37.9946077 L4.86,37.9946077 Z" stroke="#373535" stroke-width=".8"/>
    <path d="M97.2839077,18.4553308 L103.913446,18.4553308 L103.913446,24.0962538 L97.2839077,24.0962538 L97.2839077,36.1922538 L90.5380615,36.1922538 L90.5380615,4.78917692 L97.2839077,4.78917692 L97.2839077,18.4553308 Z M68.9048308,46.6038692 C68.9048308,49.2768692 72.9756,51.0235615 79.7796,51.0235615 C86.6999077,51.0235615 90.6543692,49.2768692 90.6543692,46.6038692 C90.6543692,43.9848692 86.7580615,42.1821 79.7796,42.1821 C72.9756,42.1821 68.9048308,43.9848692 68.9048308,46.6038692 Z M79.7796,56.4297923 C68.4977538,56.4297923 61.9263692,52.7079462 61.9263692,46.6038692 C61.9263692,40.4956385 68.4977538,36.7156385 79.7796,36.7156385 C91.1196,36.7156385 97.7491385,40.4956385 97.7491385,46.6038692 C97.7491385,52.7079462 91.0614462,56.4297923 79.7796,56.4297923 Z M83.3269846,24.7961769 L76.7556,23.8054846 C77.3371385,21.4232538 77.8605231,17.0596385 77.8605231,13.1072538 L58.2626769,13.1072538 L58.2626769,7.7571 L84.7226769,7.7571 C84.7226769,15.0824077 84.3156,20.6070231 83.3269846,24.7961769 Z M72.0451385,33.6916385 C66.0552923,33.9242538 59.3094462,34.1589462 55.8783692,34.1589462 L55.0060615,28.6924846 C58.1463692,28.6924846 61.6356,28.6924846 65.0085231,28.5741 L65.0085231,19.2113308 L71.7543692,19.2113308 L71.7543692,28.3996385 C76.4066769,28.2251769 84.1992923,27.7599462 87.6303692,27.1784077 L88.3282154,32.3541 C84.6063692,32.8193308 77.5116,33.5171769 72.0451385,33.6916385 Z" fill="#FBDDE8"/>
    <path d="M97.2839077,18.4553308 L103.913446,18.4553308 L103.913446,24.0962538 L97.2839077,24.0962538 L97.2839077,36.1922538 L90.5380615,36.1922538 L90.5380615,4.78917692 L97.2839077,4.78917692 L97.2839077,18.4553308 Z M68.9048308,46.6038692 C68.9048308,49.2768692 72.9756,51.0235615 79.7796,51.0235615 C86.6999077,51.0235615 90.6543692,49.2768692 90.6543692,46.6038692 C90.6543692,43.9848692 86.7580615,42.1821 79.7796,42.1821 C72.9756,42.1821 68.9048308,43.9848692 68.9048308,46.6038692 Z M79.7796,56.4297923 C68.4977538,56.4297923 61.9263692,52.7079462 61.9263692,46.6038692 C61.9263692,40.4956385 68.4977538,36.7156385 79.7796,36.7156385 C91.1196,36.7156385 97.7491385,40.4956385 97.7491385,46.6038692 C97.7491385,52.7079462 91.0614462,56.4297923 79.7796,56.4297923 Z M83.3269846,24.7961769 L76.7556,23.8054846 C77.3371385,21.4232538 77.8605231,17.0596385 77.8605231,13.1072538 L58.2626769,13.1072538 L58.2626769,7.7571 L84.7226769,7.7571 C84.7226769,15.0824077 84.3156,20.6070231 83.3269846,24.7961769 Z M72.0451385,33.6916385 C66.0552923,33.9242538 59.3094462,34.1589462 55.8783692,34.1589462 L55.0060615,28.6924846 C58.1463692,28.6924846 61.6356,28.6924846 65.0085231,28.5741 L65.0085231,19.2113308 L71.7543692,19.2113308 L71.7543692,28.3996385 C76.4066769,28.2251769 84.1992923,27.7599462 87.6303692,27.1784077 L88.3282154,32.3541 C84.6063692,32.8193308 77.5116,33.5171769 72.0451385,33.6916385 Z" stroke="#373535" stroke-width=".8"/>
    <path d="M23.5896923,6.41291538 L40.8032308,6.41291538 L40.8032308,1.12091538 L23.5896923,1.12091538 L23.5896923,6.41291538 Z M49.7589231,37.1202231 L49.7589231,52.7033769 L43.0130769,52.7033769 L43.0130769,42.4683 L13.5893077,42.4683 L13.5893077,37.1202231 L49.7589231,37.1202231 Z M50.9801538,25.8363 C43.362,25.3129154 35.2786154,21.9981462 32.1985385,17.9273769 C29.2887692,22.1144538 21.7287692,25.3129154 13.4127692,25.6618385 L10.6795385,20.1953769 C19.0536923,20.1953769 26.2066154,17.4642231 28.242,13.8566077 L13.4709231,13.8566077 L13.4709231,8.62276154 L50.9801538,8.62276154 L50.9801538,13.8566077 L36.3835385,13.8566077 C38.5352308,17.4642231 45.9207692,20.2535308 53.5970769,20.2535308 L50.9801538,25.8363 Z M8.81861538,34.0359923 L8.81861538,28.6297615 L28.7072308,28.6297615 L28.7072308,23.7427615 L35.5112308,23.7427615 L35.5112308,28.6297615 L55.6324615,28.6297615 L55.6324615,34.0359923 L8.81861538,34.0359923 Z" fill="#F16C59"/>
    <path d="M23.5896923,6.41291538 L40.8032308,6.41291538 L40.8032308,1.12091538 L23.5896923,1.12091538 L23.5896923,6.41291538 Z M49.7589231,37.1202231 L49.7589231,52.7033769 L43.0130769,52.7033769 L43.0130769,42.4683 L13.5893077,42.4683 L13.5893077,37.1202231 L49.7589231,37.1202231 Z M50.9801538,25.8363 C43.362,25.3129154 35.2786154,21.9981462 32.1985385,17.9273769 C29.2887692,22.1144538 21.7287692,25.3129154 13.4127692,25.6618385 L10.6795385,20.1953769 C19.0536923,20.1953769 26.2066154,17.4642231 28.242,13.8566077 L13.4709231,13.8566077 L13.4709231,8.62276154 L50.9801538,8.62276154 L50.9801538,13.8566077 L36.3835385,13.8566077 C38.5352308,17.4642231 45.9207692,20.2535308 53.5970769,20.2535308 L50.9801538,25.8363 Z M8.81861538,34.0359923 L8.81861538,28.6297615 L28.7072308,28.6297615 L28.7072308,23.7427615 L35.5112308,23.7427615 L35.5112308,28.6297615 L55.6324615,28.6297615 L55.6324615,34.0359923 L8.81861538,34.0359923 Z" stroke="#373535" stroke-width=".8"/>
    <path d="M101.242108,14.4960923 L107.871646,14.4960923 L107.871646,20.1370154 L101.242108,20.1370154 L101.242108,32.2330154 L94.4962615,32.2330154 L94.4962615,0.829938462 L101.242108,0.829938462 L101.242108,14.4960923 Z M72.8630308,42.6446308 C72.8630308,45.3176308 76.9338,47.0643231 83.7378,47.0643231 C90.6581077,47.0643231 94.6125692,45.3176308 94.6125692,42.6446308 C94.6125692,40.0256308 90.7162615,38.2228615 83.7378,38.2228615 C76.9338,38.2228615 72.8630308,40.0256308 72.8630308,42.6446308 Z M83.7378,52.4705538 C72.4559538,52.4705538 65.8845692,48.7487077 65.8845692,42.6446308 C65.8845692,36.5364 72.4559538,32.7564 83.7378,32.7564 C95.0778,32.7564 101.707338,36.5364 101.707338,42.6446308 C101.707338,48.7487077 95.0196462,52.4705538 83.7378,52.4705538 Z M87.2851846,20.8369385 L80.7138,19.8462462 C81.2953385,17.4640154 81.8187231,13.1004 81.8187231,9.14801538 L62.2208769,9.14801538 L62.2208769,3.79786154 L88.6808769,3.79786154 C88.6808769,11.1231692 88.2738,16.6477846 87.2851846,20.8369385 Z M76.0033385,29.7324 C70.0134923,29.9650154 63.2676462,30.1997077 59.8365692,30.1997077 L58.9642615,24.7332462 C62.1045692,24.7332462 65.5938,24.7332462 68.9667231,24.6148615 L68.9667231,15.2520923 L75.7125692,15.2520923 L75.7125692,24.4404 C80.3648769,24.2659385 88.1574923,23.8007077 91.5885692,23.2191692 L92.2864154,28.3948615 C88.5645692,28.8600923 81.4698,29.5579385 76.0033385,29.7324 Z" fill="#F16C59"/>
    <path d="M101.242108,14.4960923 L107.871646,14.4960923 L107.871646,20.1370154 L101.242108,20.1370154 L101.242108,32.2330154 L94.4962615,32.2330154 L94.4962615,0.829938462 L101.242108,0.829938462 L101.242108,14.4960923 Z M72.8630308,42.6446308 C72.8630308,45.3176308 76.9338,47.0643231 83.7378,47.0643231 C90.6581077,47.0643231 94.6125692,45.3176308 94.6125692,42.6446308 C94.6125692,40.0256308 90.7162615,38.2228615 83.7378,38.2228615 C76.9338,38.2228615 72.8630308,40.0256308 72.8630308,42.6446308 Z M83.7378,52.4705538 C72.4559538,52.4705538 65.8845692,48.7487077 65.8845692,42.6446308 C65.8845692,36.5364 72.4559538,32.7564 83.7378,32.7564 C95.0778,32.7564 101.707338,36.5364 101.707338,42.6446308 C101.707338,48.7487077 95.0196462,52.4705538 83.7378,52.4705538 Z M87.2851846,20.8369385 L80.7138,19.8462462 C81.2953385,17.4640154 81.8187231,13.1004 81.8187231,9.14801538 L62.2208769,9.14801538 L62.2208769,3.79786154 L88.6808769,3.79786154 C88.6808769,11.1231692 88.2738,16.6477846 87.2851846,20.8369385 Z M76.0033385,29.7324 C70.0134923,29.9650154 63.2676462,30.1997077 59.8365692,30.1997077 L58.9642615,24.7332462 C62.1045692,24.7332462 65.5938,24.7332462 68.9667231,24.6148615 L68.9667231,15.2520923 L75.7125692,15.2520923 L75.7125692,24.4404 C80.3648769,24.2659385 88.1574923,23.8007077 91.5885692,23.2191692 L92.2864154,28.3948615 C88.5645692,28.8600923 81.4698,29.5579385 76.0033385,29.7324 Z" stroke="#373535" stroke-width=".8"/>
  </g>
</svg>