<svg width="60" height="69" xmlns="http://www.w3.org/2000/svg">
  <g fill="none" fill-rule="evenodd">
    <path d="M31.8873333,2.7258 C36.519,-0.398533333 42.7023333,0.6678 45.696,5.1058 C48.6896667,9.54146667 47.362,15.6734667 42.728,18.8001333 C38.094,21.9244667 31.9153333,20.8581333 28.9216667,16.4201333 C25.9256667,11.9821333 27.2556667,5.85246667 31.8873333,2.7258" fill="#E42127" transform="rotate(-18 51.441 45.128)"/>
    <path d="M31.8873333,2.7258 C36.519,-0.398533333 42.7023333,0.6678 45.696,5.1058 C48.6896667,9.54146667 47.362,15.6734667 42.728,18.8001333 C38.094,21.9244667 31.9153333,20.8581333 28.9216667,16.4201333 C25.9256667,11.9821333 27.2556667,5.85246667 31.8873333,2.7258" fill="#F16550" transform="rotate(-18 51.441 45.128)"/>
    <path d="M31.8873333,2.7258 C36.519,-0.398533333 42.7023333,0.6678 45.696,5.1058 C48.6896667,9.54146667 47.362,15.6734667 42.728,18.8001333 C38.094,21.9244667 31.9153333,20.8581333 28.9216667,16.4201333 C25.9256667,11.9821333 27.2556667,5.85246667 31.8873333,2.7258 Z" stroke="#151117" stroke-width=".8" stroke-linecap="round" stroke-linejoin="round" transform="rotate(-18 51.441 45.128)"/>
    <path d="M41.3004667,10.1712333 C45.7291333,7.18456667 51.6418,8.2019 54.5024667,12.4462333 C57.3654667,16.6905667 56.0961333,22.5519 51.6651333,25.5385667 C47.2364667,28.5275667 41.3261333,27.5102333 38.4608,23.2635667 C35.6001333,19.0192333 36.8718,13.1602333 41.3004667,10.1712333" fill="#E42127" transform="rotate(-18 51.441 45.128)"/>
    <path d="M41.3004667,10.1712333 C45.7291333,7.18456667 51.6418,8.2019 54.5024667,12.4462333 C57.3654667,16.6905667 56.0961333,22.5519 51.6651333,25.5385667 C47.2364667,28.5275667 41.3261333,27.5102333 38.4608,23.2635667 C35.6001333,19.0192333 36.8718,13.1602333 41.3004667,10.1712333" fill="#F16550" transform="rotate(-18 51.441 45.128)"/>
    <path d="M41.3004667,10.1712333 C45.7291333,7.18456667 51.6418,8.2019 54.5024667,12.4462333 C57.3654667,16.6905667 56.0961333,22.5519 51.6651333,25.5385667 C47.2364667,28.5275667 41.3261333,27.5102333 38.4608,23.2635667 C35.6001333,19.0192333 36.8718,13.1602333 41.3004667,10.1712333 Z" stroke="#151117" stroke-width=".8" stroke-linecap="round" stroke-linejoin="round" transform="rotate(-18 51.441 45.128)"/>
    <path d="M46.9651,28.1166667 C51.3914333,25.1276667 57.3064333,26.1473333 60.1671,30.3916667 C63.0324333,34.6336667 61.7607667,40.495 57.3297667,43.484 C52.9011,46.4706667 46.9907667,45.4533333 44.1277667,41.209 C41.2671,36.9646667 42.5387667,31.1033333 46.9651,28.1166667" fill="#E42127" transform="rotate(-18 51.441 45.128)"/>
    <path d="M46.9651,28.1166667 C51.3914333,25.1276667 57.3064333,26.1473333 60.1671,30.3916667 C63.0324333,34.6336667 61.7607667,40.495 57.3297667,43.484 C52.9011,46.4706667 46.9907667,45.4533333 44.1277667,41.209 C41.2671,36.9646667 42.5387667,31.1033333 46.9651,28.1166667" fill="#F16550" transform="rotate(-18 51.441 45.128)"/>
    <path d="M46.9651,28.1166667 C51.3914333,25.1276667 57.3064333,26.1473333 60.1671,30.3916667 C63.0324333,34.6336667 61.7607667,40.495 57.3297667,43.484 C52.9011,46.4706667 46.9907667,45.4533333 44.1277667,41.209 C41.2671,36.9646667 42.5387667,31.1033333 46.9651,28.1166667 Z" stroke="#151117" stroke-width=".8" stroke-linecap="round" stroke-linejoin="round" transform="rotate(-18 51.441 45.128)"/>
    <path d="M47.0519,18.1715333 C51.4782333,15.1825333 57.3932333,16.2022 60.2539,20.4465333 C63.1169,24.6885333 61.8475667,30.5498667 57.4165667,33.5388667 C52.9879,36.5255333 47.0775667,35.5082 44.2145667,31.2638667 C41.3539,27.0195333 42.6232333,21.1582 47.0519,18.1715333" fill="#E42127" transform="rotate(-18 51.441 45.128)"/>
    <path d="M47.0519,18.1715333 C51.4782333,15.1825333 57.3932333,16.2022 60.2539,20.4465333 C63.1169,24.6885333 61.8475667,30.5498667 57.4165667,33.5388667 C52.9879,36.5255333 47.0775667,35.5082 44.2145667,31.2638667 C41.3539,27.0195333 42.6232333,21.1582 47.0519,18.1715333" fill="#F16550" transform="rotate(-18 51.441 45.128)"/>
    <path d="M47.0519,18.1715333 C51.4782333,15.1825333 57.3932333,16.2022 60.2539,20.4465333 C63.1169,24.6885333 61.8475667,30.5498667 57.4165667,33.5388667 C52.9879,36.5255333 47.0775667,35.5082 44.2145667,31.2638667 C41.3539,27.0195333 42.6232333,21.1582 47.0519,18.1715333 Z" stroke="#151117" stroke-width=".8" stroke-linecap="round" stroke-linejoin="round" transform="rotate(-18 51.441 45.128)"/>
    <path d="M7.08656667,40.2378667 C10.7989,37.7342 15.6919,38.5042 18.0229,41.9528667 C20.3469,45.4038667 19.2245667,50.2292 15.5122333,52.7305333 C11.8022333,55.2365333 6.9069,54.4688667 4.5829,51.0178667 C2.25423333,47.5692 3.37423333,42.7415333 7.08656667,40.2378667" fill="#E42127" transform="rotate(-18 51.441 45.128)"/>
    <path d="M7.08656667,40.2378667 C10.7989,37.7342 15.6919,38.5042 18.0229,41.9528667 C20.3469,45.4038667 19.2245667,50.2292 15.5122333,52.7305333 C11.8022333,55.2365333 6.9069,54.4688667 4.5829,51.0178667 C2.25423333,47.5692 3.37423333,42.7415333 7.08656667,40.2378667" fill="#F16550" transform="rotate(-18 51.441 45.128)"/>
    <path d="M7.08656667,40.2378667 C10.7989,37.7342 15.6919,38.5042 18.0229,41.9528667 C20.3469,45.4038667 19.2245667,50.2292 15.5122333,52.7305333 C11.8022333,55.2365333 6.9069,54.4688667 4.5829,51.0178667 C2.25423333,47.5692 3.37423333,42.7415333 7.08656667,40.2378667 Z" stroke="#151117" stroke-width=".8" stroke-linecap="round" stroke-linejoin="round" transform="rotate(-18 51.441 45.128)"/>
    <path d="M11.5026333,42.9461667 C15.2149667,40.4425 20.1079667,41.2125 22.4389667,44.6611667 C24.7653,48.1121667 23.6406333,52.9375 19.9283,55.4388333 C16.2183,57.9448333 11.3253,57.1771667 8.99896667,53.7261667 C6.6703,50.2775 7.7903,45.4498333 11.5026333,42.9461667" fill="#E42127" transform="rotate(-18 51.441 45.128)"/>
    <path d="M11.5026333,42.9461667 C15.2149667,40.4425 20.1079667,41.2125 22.4389667,44.6611667 C24.7653,48.1121667 23.6406333,52.9375 19.9283,55.4388333 C16.2183,57.9448333 11.3253,57.1771667 8.99896667,53.7261667 C6.6703,50.2775 7.7903,45.4498333 11.5026333,42.9461667" fill="#F16550" transform="rotate(-18 51.441 45.128)"/>
    <path d="M11.5026333,42.9461667 C15.2149667,40.4425 20.1079667,41.2125 22.4389667,44.6611667 C24.7653,48.1121667 23.6406333,52.9375 19.9283,55.4388333 C16.2183,57.9448333 11.3253,57.1771667 8.99896667,53.7261667 C6.6703,50.2775 7.7903,45.4498333 11.5026333,42.9461667 Z" stroke="#151117" stroke-width=".8" stroke-linecap="round" stroke-linejoin="round" transform="rotate(-18 51.441 45.128)"/>
    <path d="M4.65313333,32.7891667 C8.36313333,30.2878333 13.2584667,31.0555 15.5871333,34.5065 C17.9134667,37.9551667 16.7911333,42.7805 13.0788,45.2865 C9.3688,47.7901667 4.47346667,47.0201667 2.14713333,43.5715 C-0.181533333,40.1205 0.9408,35.2928333 4.65313333,32.7891667" fill="#E42127" transform="rotate(-18 51.441 45.128)"/>
    <path d="M4.65313333,32.7891667 C8.36313333,30.2878333 13.2584667,31.0555 15.5871333,34.5065 C17.9134667,37.9551667 16.7911333,42.7805 13.0788,45.2865 C9.3688,47.7901667 4.47346667,47.0201667 2.14713333,43.5715 C-0.181533333,40.1205 0.9408,35.2928333 4.65313333,32.7891667" fill="#F16550" transform="rotate(-18 51.441 45.128)"/>
    <path d="M4.65313333,32.7891667 C8.36313333,30.2878333 13.2584667,31.0555 15.5871333,34.5065 C17.9134667,37.9551667 16.7911333,42.7805 13.0788,45.2865 C9.3688,47.7901667 4.47346667,47.0201667 2.14713333,43.5715 C-0.181533333,40.1205 0.9408,35.2928333 4.65313333,32.7891667 Z" stroke="#151117" stroke-width=".8" stroke-linecap="round" stroke-linejoin="round" transform="rotate(-18 51.441 45.128)"/>
    <path d="M11.9310333,37.5230333 C15.6410333,35.0193667 20.5363667,35.7870333 22.8650333,39.2380333 C25.1913667,42.6890333 24.0690333,47.5143667 20.3567,50.0157 C16.6467,52.5217 11.7513667,51.7540333 9.42503333,48.3030333 C7.09636667,44.8520333 8.2187,40.0267 11.9310333,37.5230333" fill="#E42127" transform="rotate(-18 51.441 45.128)"/>
    <path d="M11.9310333,37.5230333 C15.6410333,35.0193667 20.5363667,35.7870333 22.8650333,39.2380333 C25.1913667,42.6890333 24.0690333,47.5143667 20.3567,50.0157 C16.6467,52.5217 11.7513667,51.7540333 9.42503333,48.3030333 C7.09636667,44.8520333 8.2187,40.0267 11.9310333,37.5230333" fill="#F16550" transform="rotate(-18 51.441 45.128)"/>
    <path d="M11.9310333,37.5230333 C15.6410333,35.0193667 20.5363667,35.7870333 22.8650333,39.2380333 C25.1913667,42.6890333 24.0690333,47.5143667 20.3567,50.0157 C16.6467,52.5217 11.7513667,51.7540333 9.42503333,48.3030333 C7.09636667,44.8520333 8.2187,40.0267 11.9310333,37.5230333 Z" stroke="#151117" stroke-width=".8" stroke-linecap="round" stroke-linejoin="round" transform="rotate(-18 51.441 45.128)"/>
    <path d="M18.5504667,44.8989333 C22.2628,42.3976 27.1558,43.1652667 29.4868,46.6139333 C31.8131333,50.0649333 30.6884667,54.8902667 26.9784667,57.3939333 C23.2661333,59.8976 18.3731333,59.1299333 16.0468,55.6789333 C13.7181333,52.2302667 14.8404667,47.4026 18.5504667,44.8989333" fill="#E42127" transform="rotate(-18 51.441 45.128)"/>
    <path d="M18.5504667,44.8989333 C22.2628,42.3976 27.1558,43.1652667 29.4868,46.6139333 C31.8131333,50.0649333 30.6884667,54.8902667 26.9784667,57.3939333 C23.2661333,59.8976 18.3731333,59.1299333 16.0468,55.6789333 C13.7181333,52.2302667 14.8404667,47.4026 18.5504667,44.8989333" fill="#F16550" transform="rotate(-18 51.441 45.128)"/>
    <path d="M18.5504667,44.8989333 C22.2628,42.3976 27.1558,43.1652667 29.4868,46.6139333 C31.8131333,50.0649333 30.6884667,54.8902667 26.9784667,57.3939333 C23.2661333,59.8976 18.3731333,59.1299333 16.0468,55.6789333 C13.7181333,52.2302667 14.8404667,47.4026 18.5504667,44.8989333 Z" stroke="#151117" stroke-width=".8" stroke-linecap="round" stroke-linejoin="round" transform="rotate(-18 51.441 45.128)"/>
    <path d="M28.3371667,44.0638333 C32.0471667,41.5601667 36.9425,42.3301667 39.2711667,45.7788333 C41.5975,49.2298333 40.4751667,54.0551667 36.7628333,56.5588333 C33.0528333,59.0625 28.1575,58.2948333 25.8311667,54.8438333 C23.5025,51.3951667 24.6248333,46.5675 28.3371667,44.0638333" fill="#E42127" transform="rotate(-18 51.441 45.128)"/>
    <path d="M28.3371667,44.0638333 C32.0471667,41.5601667 36.9425,42.3301667 39.2711667,45.7788333 C41.5975,49.2298333 40.4751667,54.0551667 36.7628333,56.5588333 C33.0528333,59.0625 28.1575,58.2948333 25.8311667,54.8438333 C23.5025,51.3951667 24.6248333,46.5675 28.3371667,44.0638333" fill="#F16550" transform="rotate(-18 51.441 45.128)"/>
    <path d="M28.3371667,44.0638333 C32.0471667,41.5601667 36.9425,42.3301667 39.2711667,45.7788333 C41.5975,49.2298333 40.4751667,54.0551667 36.7628333,56.5588333 C33.0528333,59.0625 28.1575,58.2948333 25.8311667,54.8438333 C23.5025,51.3951667 24.6248333,46.5675 28.3371667,44.0638333 Z" stroke="#151117" stroke-width=".8" stroke-linecap="round" stroke-linejoin="round" transform="rotate(-18 51.441 45.128)"/>
    <path d="M43.1097333,39.7002667 C46.8220667,37.1966 51.7150667,37.9642667 54.0460667,41.4152667 C56.3724,44.8662667 55.2477333,49.6916 51.5377333,52.1952667 C47.8254,54.6989333 42.9324,53.9312667 40.6060667,50.4802667 C38.2774,47.0292667 39.3974,42.2039333 43.1097333,39.7002667" fill="#E42127" transform="rotate(-18 51.441 45.128)"/>
    <path d="M43.1097333,39.7002667 C46.8220667,37.1966 51.7150667,37.9642667 54.0460667,41.4152667 C56.3724,44.8662667 55.2477333,49.6916 51.5377333,52.1952667 C47.8254,54.6989333 42.9324,53.9312667 40.6060667,50.4802667 C38.2774,47.0292667 39.3974,42.2039333 43.1097333,39.7002667" fill="#F16550" transform="rotate(-18 51.441 45.128)"/>
    <path d="M43.1097333,39.7002667 C46.8220667,37.1966 51.7150667,37.9642667 54.0460667,41.4152667 C56.3724,44.8662667 55.2477333,49.6916 51.5377333,52.1952667 C47.8254,54.6989333 42.9324,53.9312667 40.6060667,50.4802667 C38.2774,47.0292667 39.3974,42.2039333 43.1097333,39.7002667 Z" stroke="#151117" stroke-width=".8" stroke-linecap="round" stroke-linejoin="round" transform="rotate(-18 51.441 45.128)"/>
    <path d="M6.1957,26.8496667 C9.90803333,24.346 14.8010333,25.1136667 17.1320333,28.5646667 C19.4583667,32.0156667 18.3337,36.841 14.6213667,39.3423333 C10.9113667,41.846 6.01603333,41.0806667 3.69203333,37.6296667 C1.36336667,34.1786667 2.48336667,29.3533333 6.1957,26.8496667" fill="#E42127" transform="rotate(-18 51.441 45.128)"/>
    <path d="M6.1957,26.8496667 C9.90803333,24.346 14.8010333,25.1136667 17.1320333,28.5646667 C19.4583667,32.0156667 18.3337,36.841 14.6213667,39.3423333 C10.9113667,41.846 6.01603333,41.0806667 3.69203333,37.6296667 C1.36336667,34.1786667 2.48336667,29.3533333 6.1957,26.8496667" fill="#F16550" transform="rotate(-18 51.441 45.128)"/>
    <path d="M6.1957,26.8496667 C9.90803333,24.346 14.8010333,25.1136667 17.1320333,28.5646667 C19.4583667,32.0156667 18.3337,36.841 14.6213667,39.3423333 C10.9113667,41.846 6.01603333,41.0806667 3.69203333,37.6296667 C1.36336667,34.1786667 2.48336667,29.3533333 6.1957,26.8496667 Z" stroke="#151117" stroke-width=".8" stroke-linecap="round" stroke-linejoin="round" transform="rotate(-18 51.441 45.128)"/>
    <path d="M22.1757667,39.2252 C26.1751,36.5302 31.4461,37.3585333 33.9521,41.0732 C36.4557667,44.7878667 35.2517667,49.9842 31.2547667,52.6815333 C27.2577667,55.3765333 21.9844333,54.5505333 19.4784333,50.8358667 C16.9724333,47.1188667 18.1787667,41.9225333 22.1757667,39.2252" fill="#E42127" transform="rotate(-18 51.441 45.128)"/>
    <path d="M22.1757667,39.2252 C26.1751,36.5302 31.4461,37.3585333 33.9521,41.0732 C36.4557667,44.7878667 35.2517667,49.9842 31.2547667,52.6815333 C27.2577667,55.3765333 21.9844333,54.5505333 19.4784333,50.8358667 C16.9724333,47.1188667 18.1787667,41.9225333 22.1757667,39.2252" fill="#F16550" transform="rotate(-18 51.441 45.128)"/>
    <path d="M22.1757667,39.2252 C26.1751,36.5302 31.4461,37.3585333 33.9521,41.0732 C36.4557667,44.7878667 35.2517667,49.9842 31.2547667,52.6815333 C27.2577667,55.3765333 21.9844333,54.5505333 19.4784333,50.8358667 C16.9724333,47.1188667 18.1787667,41.9225333 22.1757667,39.2252 Z" stroke="#151117" stroke-width=".8" stroke-linecap="round" stroke-linejoin="round" transform="rotate(-18 51.441 45.128)"/>
    <path d="M10.1969,17.1712333 C14.1939,14.4739 19.4649,15.3022333 21.9709,19.0192333 C24.4769,22.7339 23.2705667,27.9302333 19.2735667,30.6275667 C15.2765667,33.3225667 10.0032333,32.4965667 7.49956667,28.7795667 C4.99356667,25.0649 6.1999,19.8662333 10.1969,17.1712333" fill="#E42127" transform="rotate(-18 51.441 45.128)"/>
    <path d="M10.1969,17.1712333 C14.1939,14.4739 19.4649,15.3022333 21.9709,19.0192333 C24.4769,22.7339 23.2705667,27.9302333 19.2735667,30.6275667 C15.2765667,33.3225667 10.0032333,32.4965667 7.49956667,28.7795667 C4.99356667,25.0649 6.1999,19.8662333 10.1969,17.1712333" fill="#F16550" transform="rotate(-18 51.441 45.128)"/>
    <path d="M10.1969,17.1712333 C14.1939,14.4739 19.4649,15.3022333 21.9709,19.0192333 C24.4769,22.7339 23.2705667,27.9302333 19.2735667,30.6275667 C15.2765667,33.3225667 10.0032333,32.4965667 7.49956667,28.7795667 C4.99356667,25.0649 6.1999,19.8662333 10.1969,17.1712333 Z" stroke="#151117" stroke-width=".8" stroke-linecap="round" stroke-linejoin="round" transform="rotate(-18 51.441 45.128)"/>
    <path d="M14.5126333,27.8637333 C18.5096333,25.1687333 23.7829667,25.9970667 26.2889667,29.7117333 C28.7926333,33.4264 27.5886333,38.6227333 23.5916333,41.3200667 C19.5946333,44.0150667 14.3189667,43.1890667 11.8153,39.4720667 C9.3093,35.7574 10.5156333,30.5587333 14.5126333,27.8637333" fill="#E42127" transform="rotate(-18 51.441 45.128)"/>
    <path d="M14.5126333,27.8637333 C18.5096333,25.1687333 23.7829667,25.9970667 26.2889667,29.7117333 C28.7926333,33.4264 27.5886333,38.6227333 23.5916333,41.3200667 C19.5946333,44.0150667 14.3189667,43.1890667 11.8153,39.4720667 C9.3093,35.7574 10.5156333,30.5587333 14.5126333,27.8637333" fill="#F16550" transform="rotate(-18 51.441 45.128)"/>
    <path d="M14.5126333,27.8637333 C18.5096333,25.1687333 23.7829667,25.9970667 26.2889667,29.7117333 C28.7926333,33.4264 27.5886333,38.6227333 23.5916333,41.3200667 C19.5946333,44.0150667 14.3189667,43.1890667 11.8153,39.4720667 C9.3093,35.7574 10.5156333,30.5587333 14.5126333,27.8637333 Z" stroke="#151117" stroke-width=".8" stroke-linecap="round" stroke-linejoin="round" transform="rotate(-18 51.441 45.128)"/>
    <path d="M16.4154667,9.44556667 C20.0601333,6.98856667 24.8668,7.74223333 27.1511333,11.1279 C29.4331333,14.5159 28.3318,19.2549 24.6894667,21.7119 C21.0471333,24.1689 16.2428,23.4152333 13.9561333,20.0295667 C11.6718,16.6392333 12.7708,11.9025667 16.4154667,9.44556667" fill="#E42127" transform="rotate(-18 51.441 45.128)"/>
    <path d="M16.4154667,9.44556667 C20.0601333,6.98856667 24.8668,7.74223333 27.1511333,11.1279 C29.4331333,14.5159 28.3318,19.2549 24.6894667,21.7119 C21.0471333,24.1689 16.2428,23.4152333 13.9561333,20.0295667 C11.6718,16.6392333 12.7708,11.9025667 16.4154667,9.44556667" fill="#F16550" transform="rotate(-18 51.441 45.128)"/>
    <path d="M16.4154667,9.44556667 C20.0601333,6.98856667 24.8668,7.74223333 27.1511333,11.1279 C29.4331333,14.5159 28.3318,19.2549 24.6894667,21.7119 C21.0471333,24.1689 16.2428,23.4152333 13.9561333,20.0295667 C11.6718,16.6392333 12.7708,11.9025667 16.4154667,9.44556667 Z" stroke="#151117" stroke-width=".8" stroke-linecap="round" stroke-linejoin="round" transform="rotate(-18 51.441 45.128)"/>
    <path d="M35.6129667,41.1436667 C39.1223,38.7753333 43.7516333,39.501 45.9543,42.7653333 C48.1569667,46.0273333 47.0953,50.5936667 43.5836333,52.962 C40.0743,55.3303333 35.4449667,54.6046667 33.2423,51.3403333 C31.0419667,48.076 32.1036333,43.512 35.6129667,41.1436667" fill="#E42127" transform="rotate(-18 51.441 45.128)"/>
    <path d="M35.6129667,41.1436667 C39.1223,38.7753333 43.7516333,39.501 45.9543,42.7653333 C48.1569667,46.0273333 47.0953,50.5936667 43.5836333,52.962 C40.0743,55.3303333 35.4449667,54.6046667 33.2423,51.3403333 C31.0419667,48.076 32.1036333,43.512 35.6129667,41.1436667" fill="#F16550" transform="rotate(-18 51.441 45.128)"/>
    <path d="M35.6129667,41.1436667 C39.1223,38.7753333 43.7516333,39.501 45.9543,42.7653333 C48.1569667,46.0273333 47.0953,50.5936667 43.5836333,52.962 C40.0743,55.3303333 35.4449667,54.6046667 33.2423,51.3403333 C31.0419667,48.076 32.1036333,43.512 35.6129667,41.1436667 Z" stroke="#151117" stroke-width=".8" stroke-linecap="round" stroke-linejoin="round" transform="rotate(-18 51.441 45.128)"/>
    <path d="M20.1478667,17.4379333 C24.1472,14.7429333 29.4182,15.5712667 31.9242,19.2859333 C34.4302,23.0006 33.2238667,28.1969333 29.2268667,30.8942667 C25.2298667,33.5892667 19.9588667,32.7632667 17.4505333,29.0462667 C14.9445333,25.3316 16.1508667,20.1352667 20.1478667,17.4379333" fill="#E42127" transform="rotate(-18 51.441 45.128)"/>
    <path d="M20.1478667,17.4379333 C24.1472,14.7429333 29.4182,15.5712667 31.9242,19.2859333 C34.4302,23.0006 33.2238667,28.1969333 29.2268667,30.8942667 C25.2298667,33.5892667 19.9588667,32.7632667 17.4505333,29.0462667 C14.9445333,25.3316 16.1508667,20.1352667 20.1478667,17.4379333" fill="#F16550" transform="rotate(-18 51.441 45.128)"/>
    <path d="M20.1478667,17.4379333 C24.1472,14.7429333 29.4182,15.5712667 31.9242,19.2859333 C34.4302,23.0006 33.2238667,28.1969333 29.2268667,30.8942667 C25.2298667,33.5892667 19.9588667,32.7632667 17.4505333,29.0462667 C14.9445333,25.3316 16.1508667,20.1352667 20.1478667,17.4379333 Z" stroke="#151117" stroke-width=".8" stroke-linecap="round" stroke-linejoin="round" transform="rotate(-18 51.441 45.128)"/>
    <path d="M26.3298,30.4318 C30.3268,27.7368 35.5978,28.5651333 38.1061333,32.2798 C40.6121333,35.9944667 39.4034667,41.1908 35.4064667,43.8881333 C31.4094667,46.5831333 26.1384667,45.7571333 23.6324667,42.0401333 C21.1264667,38.3254667 22.3328,33.1291333 26.3298,30.4318" fill="#E42127" transform="rotate(-18 51.441 45.128)"/>
    <path d="M26.3298,30.4318 C30.3268,27.7368 35.5978,28.5651333 38.1061333,32.2798 C40.6121333,35.9944667 39.4034667,41.1908 35.4064667,43.8881333 C31.4094667,46.5831333 26.1384667,45.7571333 23.6324667,42.0401333 C21.1264667,38.3254667 22.3328,33.1291333 26.3298,30.4318" fill="#F16550" transform="rotate(-18 51.441 45.128)"/>
    <path d="M26.3298,30.4318 C30.3268,27.7368 35.5978,28.5651333 38.1061333,32.2798 C40.6121333,35.9944667 39.4034667,41.1908 35.4064667,43.8881333 C31.4094667,46.5831333 26.1384667,45.7571333 23.6324667,42.0401333 C21.1264667,38.3254667 22.3328,33.1291333 26.3298,30.4318 Z" stroke="#151117" stroke-width=".8" stroke-linecap="round" stroke-linejoin="round" transform="rotate(-18 51.441 45.128)"/>
    <path d="M43.3717667,30.5412333 C47.9357667,27.4635667 53.9557667,28.4062333 56.8187667,32.6505667 C59.6794333,36.8949 58.2981,42.8309 53.7341,45.9085667 C49.1701,48.9862333 43.1524333,48.0435667 40.2917667,43.7992333 C37.4264333,39.5549 38.8077667,33.6189 43.3717667,30.5412333" fill="#E42127" transform="rotate(-18 51.441 45.128)"/>
    <path d="M43.3717667,30.5412333 C47.9357667,27.4635667 53.9557667,28.4062333 56.8187667,32.6505667 C59.6794333,36.8949 58.2981,42.8309 53.7341,45.9085667 C49.1701,48.9862333 43.1524333,48.0435667 40.2917667,43.7992333 C37.4264333,39.5549 38.8077667,33.6189 43.3717667,30.5412333" fill="#F16550" transform="rotate(-18 51.441 45.128)"/>
    <path d="M43.3717667,30.5412333 C47.9357667,27.4635667 53.9557667,28.4062333 56.8187667,32.6505667 C59.6794333,36.8949 58.2981,42.8309 53.7341,45.9085667 C49.1701,48.9862333 43.1524333,48.0435667 40.2917667,43.7992333 C37.4264333,39.5549 38.8077667,33.6189 43.3717667,30.5412333 Z" stroke="#151117" stroke-width=".8" stroke-linecap="round" stroke-linejoin="round" transform="rotate(-18 51.441 45.128)"/>
    <path d="M26.1543333,5.0169 C30.583,2.0279 36.4956667,3.04756667 39.3563333,7.2919 C42.2216667,11.5339 40.95,17.3952333 36.519,20.3842333 C32.0926667,23.3709 26.18,22.3535667 23.3193333,18.1092333 C20.4563333,13.8649 21.728,8.00356667 26.1543333,5.0169" fill="#E42127" transform="rotate(-18 51.441 45.128)"/>
    <path d="M26.1543333,5.0169 C30.583,2.0279 36.4956667,3.04756667 39.3563333,7.2919 C42.2216667,11.5339 40.95,17.3952333 36.519,20.3842333 C32.0926667,23.3709 26.18,22.3535667 23.3193333,18.1092333 C20.4563333,13.8649 21.728,8.00356667 26.1543333,5.0169" fill="#F16550" transform="rotate(-18 51.441 45.128)"/>
    <path d="M26.1543333,5.0169 C30.583,2.0279 36.4956667,3.04756667 39.3563333,7.2919 C42.2216667,11.5339 40.95,17.3952333 36.519,20.3842333 C32.0926667,23.3709 26.18,22.3535667 23.3193333,18.1092333 C20.4563333,13.8649 21.728,8.00356667 26.1543333,5.0169 Z" stroke="#151117" stroke-width=".8" stroke-linecap="round" stroke-linejoin="round" transform="rotate(-18 51.441 45.128)"/>
    <path d="M32.2268333,19.0808333 C36.7908333,16.0031667 42.8108333,16.9458333 45.6738333,21.1901667 C48.5368333,25.4321667 47.1531667,31.3705 42.5915,34.4481667 C38.0275,37.5258333 32.0051667,36.5831667 29.1445,32.3388333 C26.2838333,28.0968333 27.6628333,22.1585 32.2268333,19.0808333" fill="#E42127" transform="rotate(-18 51.441 45.128)"/>
    <path d="M32.2268333,19.0808333 C36.7908333,16.0031667 42.8108333,16.9458333 45.6738333,21.1901667 C48.5368333,25.4321667 47.1531667,31.3705 42.5915,34.4481667 C38.0275,37.5258333 32.0051667,36.5831667 29.1445,32.3388333 C26.2838333,28.0968333 27.6628333,22.1585 32.2268333,19.0808333" fill="#F16550" transform="rotate(-18 51.441 45.128)"/>
    <path d="M32.2268333,19.0808333 C36.7908333,16.0031667 42.8108333,16.9458333 45.6738333,21.1901667 C48.5368333,25.4321667 47.1531667,31.3705 42.5915,34.4481667 C38.0275,37.5258333 32.0051667,36.5831667 29.1445,32.3388333 C26.2838333,28.0968333 27.6628333,22.1585 32.2268333,19.0808333 Z" stroke="#151117" stroke-width=".8" stroke-linecap="round" stroke-linejoin="round" transform="rotate(-18 51.441 45.128)"/>
    <path d="M50.1757667,15.9784333 C51.9864333,13.9134333 51.5501,10.0961 47.5041,6.55176667 C41.8224333,1.57476667 33.2987667,5.68843333 30.6551,8.05443333 C35.1864333,7.57376667 35.1887667,12.0304333 39.9161,16.1697667 C45.0307667,20.6521 48.7594333,17.5977667 50.1757667,15.9784333" fill="#E42127" transform="rotate(-18 51.441 45.128)"/>
    <path d="M50.1757667,15.9784333 C51.9864333,13.9134333 51.5501,10.0961 47.5041,6.55176667 C41.8224333,1.57476667 33.2987667,5.68843333 30.6551,8.05443333 C35.1864333,7.57376667 35.1887667,12.0304333 39.9161,16.1697667 C45.0307667,20.6521 48.7594333,17.5977667 50.1757667,15.9784333" fill="#68C083" transform="rotate(-18 51.441 45.128)"/>
    <path d="M50.1757667,15.9784333 C51.9864333,13.9134333 51.5501,10.0961 47.5041,6.55176667 C41.8224333,1.57476667 33.2987667,5.68843333 30.6551,8.05443333 C35.1864333,7.57376667 35.1887667,12.0304333 39.9161,16.1697667 C45.0307667,20.6521 48.7594333,17.5977667 50.1757667,15.9784333 Z" stroke="#151117" stroke-width=".8" stroke-linecap="round" stroke-linejoin="round" transform="rotate(-18 51.441 45.128)"/>
    <path d="M51.0645333,17.5905333 C53.9322,16.4425333 57.8195333,18.3255333 60.0665333,23.9418667 C63.2305333,31.8308667 55.6822,39.3372 52.1845333,41.2598667 C54.3872,36.6305333 49.6598667,34.9645333 47.0302,28.4032 C44.1858667,21.3028667 48.8152,18.4912 51.0645333,17.5905333" fill="#E42127" transform="rotate(-18 51.441 45.128)"/>
    <path d="M51.0645333,17.5905333 C53.9322,16.4425333 57.8195333,18.3255333 60.0665333,23.9418667 C63.2305333,31.8308667 55.6822,39.3372 52.1845333,41.2598667 C54.3872,36.6305333 49.6598667,34.9645333 47.0302,28.4032 C44.1858667,21.3028667 48.8152,18.4912 51.0645333,17.5905333" fill="#68C083" transform="rotate(-18 51.441 45.128)"/>
    <path d="M51.0645333,17.5905333 C53.9322,16.4425333 57.8195333,18.3255333 60.0665333,23.9418667 C63.2305333,31.8308667 55.6822,39.3372 52.1845333,41.2598667 C54.3872,36.6305333 49.6598667,34.9645333 47.0302,28.4032 C44.1858667,21.3028667 48.8152,18.4912 51.0645333,17.5905333 Z" stroke="#151117" stroke-width=".8" stroke-linecap="round" stroke-linejoin="round" transform="rotate(-18 51.441 45.128)"/>
    <path d="M49.3964333,17.4185667 C48.7151,16.4059 48.6381,15.2649 49.2237667,14.8682333 L65.3891,3.96456667 C65.9747667,3.5679 67.0061,4.06723333 67.6874333,5.0799 C68.3734333,6.09256667 68.4504333,7.23356667 67.8624333,7.63256667 L51.6947667,18.5362333 C51.1067667,18.9305667 50.0801,18.4335667 49.3964333,17.4185667" fill="#E42127" transform="rotate(-18 51.441 45.128)"/>
    <path d="M49.3964333,17.4185667 C48.7151,16.4059 48.6381,15.2649 49.2237667,14.8682333 L65.3891,3.96456667 C65.9747667,3.5679 67.0061,4.06723333 67.6874333,5.0799 C68.3734333,6.09256667 68.4504333,7.23356667 67.8624333,7.63256667 L51.6947667,18.5362333 C51.1067667,18.9305667 50.0801,18.4335667 49.3964333,17.4185667" fill="#68C083" transform="rotate(-18 51.441 45.128)"/>
    <path d="M49.3964333,17.4185667 C48.7151,16.4059 48.6381,15.2649 49.2237667,14.8682333 L65.3891,3.96456667 C65.9747667,3.5679 67.0061,4.06723333 67.6874333,5.0799 C68.3734333,6.09256667 68.4504333,7.23356667 67.8624333,7.63256667 L51.6947667,18.5362333 C51.1067667,18.9305667 50.0801,18.4335667 49.3964333,17.4185667 Z" stroke="#151117" stroke-width=".8" transform="rotate(-18 51.441 45.128)"/>
    <path d="M50.9915,18.1043333 C50.5831667,15.3883333 47.3911667,13.2556667 42.0711667,14.0513333 C34.5998333,15.1713333 32.2315,24.3366667 32.3295,27.8833333 C34.8915,24.1126667 38.2911667,26.992 44.5071667,26.0586667 C51.2341667,25.053 51.3088333,20.2346667 50.9915,18.1043333" fill="#E42127" transform="rotate(-18 51.441 45.128)"/>
    <path d="M50.9915,18.1043333 C50.5831667,15.3883333 47.3911667,13.2556667 42.0711667,14.0513333 C34.5998333,15.1713333 32.2315,24.3366667 32.3295,27.8833333 C34.8915,24.1126667 38.2911667,26.992 44.5071667,26.0586667 C51.2341667,25.053 51.3088333,20.2346667 50.9915,18.1043333" fill="#68C083" transform="rotate(-18 51.441 45.128)"/>
    <path d="M50.9915,18.1043333 C50.5831667,15.3883333 47.3911667,13.2556667 42.0711667,14.0513333 C34.5998333,15.1713333 32.2315,24.3366667 32.3295,27.8833333 C34.8915,24.1126667 38.2911667,26.992 44.5071667,26.0586667 C51.2341667,25.053 51.3088333,20.2346667 50.9915,18.1043333 Z" stroke="#151117" stroke-width=".8" stroke-linecap="round" stroke-linejoin="round" transform="rotate(-18 51.441 45.128)"/>
    <path d="M67.8626667,7.6272 C67.277,8.02386667 66.248,7.52453333 65.5666667,6.5142 C64.8853333,5.50153333 64.806,4.36286667 65.3916667,3.9662 C65.9796667,3.57186667 67.0086667,4.0712 67.69,5.08153333 C68.3736667,6.09186667 68.4483333,7.23053333 67.8626667,7.6272" fill="#E42127" transform="rotate(-18 51.441 45.128)"/>
    <path d="M67.8626667,7.6272 C67.277,8.02386667 66.248,7.52453333 65.5666667,6.5142 C64.8853333,5.50153333 64.806,4.36286667 65.3916667,3.9662 C65.9796667,3.57186667 67.0086667,4.0712 67.69,5.08153333 C68.3736667,6.09186667 68.4483333,7.23053333 67.8626667,7.6272" fill="#68C083" transform="rotate(-18 51.441 45.128)"/>
    <path d="M67.8626667 7.6272C67.277 8.02386667 66.248 7.52453333 65.5666667 6.5142 64.8853333 5.50153333 64.806 4.36286667 65.3916667 3.9662 65.9796667 3.57186667 67.0086667 4.0712 67.69 5.08153333 68.3736667 6.09186667 68.4483333 7.23053333 67.8626667 7.6272zM51.6980333 18.5350667C57.0157 26.3400667 59.3443667 29.7980667 52.1833667 41.2594M30.6537 8.05606667C33.6473667 6.7984 42.8570333 7.49606667 48.5993667 14.8904" stroke="#151117" stroke-width=".8" transform="rotate(-18 51.441 45.128)"/>
    <path d="M32.3295,27.8842667 C33.3211667,25.0936 41.5835,14.9249333 49.9765,15.9749333" stroke="#151117" stroke-width=".8" stroke-linecap="round" stroke-linejoin="round" transform="rotate(-18 51.441 45.128)"/>
  </g>
</svg>