<svg width="48" height="48" xmlns="http://www.w3.org/2000/svg">
  <g fill="none" fill-rule="evenodd">
    <path d="M0.4002,23.8742 C0.4002,10.9092 10.9092,0.4002 23.8742,0.4002 C36.8392,0.4002 47.3492,10.9092 47.3492,23.8742 C47.3492,36.8392 36.8392,47.3482 23.8742,47.3482 C10.9092,47.3482 0.4002,36.8392 0.4002,23.8742" fill="#FADCE7"/>
    <path d="M0.4002,23.8742 C0.4002,10.9092 10.9092,0.4002 23.8742,0.4002 C36.8392,0.4002 47.3492,10.9092 47.3492,23.8742 C47.3492,36.8392 36.8392,47.3482 23.8742,47.3482 C10.9092,47.3482 0.4002,36.8392 0.4002,23.8742 Z" stroke="#231F20" stroke-width=".8" stroke-linecap="round" stroke-linejoin="round"/>
    <path d="M21.7688,12.6929 L18.5948,21.4309 C17.7068,23.8539 16.6838,24.7079 14.8738,24.7079 C13.0658,24.7079 12.0408,23.8539 11.1548,21.4309 L7.9798,12.6929 L6.9558,21.0219 C6.6828,23.2739 5.6248,24.7079 3.6788,24.7079 C1.7338,24.7079 0.1288,23.2739 0.4028,21.0219 L2.4508,4.1599 C2.7228,1.9079 3.7818,0.4749 5.7268,0.4749 C7.9458,0.4749 9.0028,1.1569 9.6528,2.7269 L14.8738,15.5939 L20.0958,2.7269 C20.7448,1.1569 21.8028,0.4749 24.0218,0.4749 C25.9658,0.4749 27.0248,1.9079 27.2978,4.1599 L29.3458,21.0219 C29.6198,23.2739 28.0148,24.7079 26.0688,24.7079 C24.1228,24.7079 23.0658,23.2739 22.7918,21.0219 L21.7688,12.6929" fill="#F16550" transform="translate(9 5.748)"/>
    <path d="M21.7688,12.6929 L18.5948,21.4309 C17.7068,23.8539 16.6838,24.7079 14.8738,24.7079 C13.0658,24.7079 12.0408,23.8539 11.1548,21.4309 L7.9798,12.6929 L6.9558,21.0219 C6.6828,23.2739 5.6248,24.7079 3.6788,24.7079 C1.7338,24.7079 0.1288,23.2739 0.4028,21.0219 L2.4508,4.1599 C2.7228,1.9079 3.7818,0.4749 5.7268,0.4749 C7.9458,0.4749 9.0028,1.1569 9.6528,2.7269 L14.8738,15.5939 L20.0958,2.7269 C20.7448,1.1569 21.8028,0.4749 24.0218,0.4749 C25.9658,0.4749 27.0248,1.9079 27.2978,4.1599 L29.3458,21.0219 C29.6198,23.2739 28.0148,24.7079 26.0688,24.7079 C24.1228,24.7079 23.0658,23.2739 22.7918,21.0219 L21.7688,12.6929" stroke="#231F20" stroke-width=".8" stroke-linecap="round" stroke-linejoin="round" transform="translate(9 5.748)"/>
    <path d="M10.97,38.9973 L11.915,38.9973 L12.313,34.6863 L14.106,38.9973 L14.874,38.9973 L16.667,34.6863 L17.038,38.9973 L18.01,38.9973 L17.525,32.8143 L16.464,32.8143 L14.486,37.5043 L12.516,32.8143 L11.455,32.8143 L10.97,38.9973 Z M20.775,39.1033 C22.135,39.1033 22.948,38.1493 22.948,36.9393 C22.948,35.7293 22.135,34.7743 20.775,34.7743 C19.414,34.7743 18.602,35.7293 18.602,36.9393 C18.602,38.1493 19.414,39.1033 20.775,39.1033 Z M20.775,38.2463 C19.997,38.2463 19.565,37.6893 19.565,36.9393 C19.565,36.1883 19.997,35.6313 20.775,35.6313 C21.552,35.6313 21.985,36.1883 21.985,36.9393 C21.985,37.6893 21.552,38.2463 20.775,38.2463 Z M28.142,34.7743 C27.603,34.7743 27.117,34.9423 26.755,35.4283 C26.393,34.9423 25.908,34.7743 25.368,34.7743 C24.556,34.7743 23.672,35.2073 23.672,36.5063 L23.672,38.9973 L24.635,38.9973 L24.635,36.5413 C24.635,35.8523 24.989,35.5963 25.448,35.5963 C25.925,35.5963 26.269,35.8613 26.269,36.5853 L26.269,38.9973 L27.241,38.9973 L27.241,36.5853 C27.241,35.8613 27.585,35.5963 28.063,35.5963 C28.522,35.5963 28.875,35.8523 28.875,36.5413 L28.875,38.9973 L29.838,38.9973 L29.838,36.5063 C29.838,35.2073 28.954,34.7743 28.142,34.7743 Z M30.757,38.9973 L31.72,38.9973 L31.72,34.8813 L30.757,34.8813 L30.757,38.9973 Z M32.736,34.8813 L32.736,39.3863 C32.736,39.8183 32.594,40.1363 32.214,40.1363 C31.852,40.1363 31.711,39.8893 31.711,39.5713 L31.711,39.5273 L30.739,39.5273 L30.739,39.6153 C30.739,40.4633 31.366,40.9583 32.205,40.9583 C33.177,40.9583 33.699,40.2693 33.699,39.4213 L33.699,34.8813 L32.736,34.8813 Z M34.714,38.9973 L35.677,38.9973 L35.677,34.8813 L34.714,34.8813 L34.714,38.9973 Z M31.234,33.9883 C31.605,33.9883 31.896,33.6973 31.896,33.3263 C31.896,32.9553 31.605,32.6643 31.234,32.6643 C30.863,32.6643 30.571,32.9553 30.571,33.3263 C30.571,33.6973 30.863,33.9883 31.234,33.9883 Z M33.212,33.9883 C33.583,33.9883 33.875,33.6973 33.875,33.3263 C33.875,32.9553 33.583,32.6643 33.212,32.6643 C32.841,32.6643 32.55,32.9553 32.55,33.3263 C32.55,33.6973 32.841,33.9883 33.212,33.9883 Z M35.192,33.9883 C35.562,33.9883 35.854,33.6973 35.854,33.3263 C35.854,32.9553 35.562,32.6643 35.192,32.6643 C34.82,32.6643 34.529,32.9553 34.529,33.3263 C34.529,33.6973 34.82,33.9883 35.192,33.9883 Z" fill="#231F20"/>
  </g>
</svg>