<svg width="40" height="34" xmlns="http://www.w3.org/2000/svg">
  <g fill="none" fill-rule="evenodd">
    <path d="M30.4977273,28.037227 C31.1013636,27.6549568 31.4813636,27.0980919 31.3459091,26.7939297 C31.2104545,26.4897676 30.6113636,26.5522541 30.0086364,26.9345243 C29.4059091,27.3177135 29.0268182,27.8736595 29.1604545,28.1787405 C29.2959091,28.4829027 29.895,28.4185784 30.4977273,28.037227 Z" stroke="#151117" stroke-width=".8"/>
    <path d="M10.5403636,5.51562703 C7.16036364,8.13822162 5.274,15.8194649 2.82945455,19.5254649 C0.384909091,23.2305459 -0.528727273,27.3316811 1.41490909,29.893627 C3.36036364,32.455573 7.184,34.6922216 13.944,32.8406 C20.7049091,30.9898973 25.4367273,33.5380595 29.244,31.0376811 C33.0503636,28.5382216 38.2812727,21.427627 29.9603636,10.4686 C21.6403636,-0.492264865 13.9203636,2.89395135 10.5403636,5.51562703" fill="#F16550"/>
    <path d="M10.5403636,5.51562703 C7.16036364,8.13822162 5.274,15.8194649 2.82945455,19.5254649 C0.384909091,23.2305459 -0.528727273,27.3316811 1.41490909,29.893627 C3.36036364,32.455573 7.184,34.6922216 13.944,32.8406 C20.7049091,30.9898973 25.4367273,33.5380595 29.244,31.0376811 C33.0503636,28.5382216 38.2812727,21.427627 29.9603636,10.4686 C21.6403636,-0.492264865 13.9203636,2.89395135 10.5403636,5.51562703 Z" stroke="#151117" stroke-width=".8" stroke-linecap="round" stroke-linejoin="round"/>
    <path d="M26.3681818,9.86165405 C24.8990909,5.36905946 25.3381818,4.37938378 22.9909091,1.2863027 C29.7136364,4.10095135 29.3827273,8.5963027 29.2963636,9.59424865 C31.1518182,9.09068108 36.7318182,13.8157622 39.2272727,18.8027351 C34.3036364,15.1610595 34.5990909,14.2191676 31.38,13.6641405 C36.8981818,19.1353838 36.6536364,23.7060865 38.3854545,24.5128973 C36.2909091,24.5533297 33.8454545,20.0056 30.6190909,17.0806811 C33.4045455,21.9307351 30.2272727,24.5533297 31.8954545,27.7824108 C28.6072727,25.8094919 28.0136364,21.4859784 27.2909091,16.3823027 C20.5909091,17.2819243 18.3827273,15.6756541 14.6636364,16.9152757 C18.1881818,14.2375459 21.8009091,10.916573 24.0818182,11.8612216 C20.42,8.81776216 16.41,6.61695135 13.2227273,7.28041081 C18.3981818,4.82597838 21.8472727,4.92981622 26.3681818,9.86165405" fill="#FEFEFE"/>
    <path d="M13.6409091,9.05300541 C12.1718182,4.56041081 12.6109091,3.57073514 10.2636364,0.477654054 C16.9863636,3.2923027 16.6554545,7.78765405 16.5690909,8.7856 C18.4245455,8.28203243 24.0045455,13.0071135 26.5,17.9940865 C21.5763636,14.3524108 21.8718182,13.4105189 18.6527273,12.8554919 C24.1709091,18.3267351 23.9263636,22.8974378 25.6581818,23.7042486 C23.5636364,23.7446811 21.1181818,19.1969514 17.8918182,16.2720324 C20.6772727,21.1220865 17.5,23.7446811 19.1681818,26.9737622 C15.88,25.0008432 15.2863636,20.6773297 14.5636364,15.5736541 C7.86363636,16.4732757 5.65545455,14.8670054 1.93636364,16.106627 C5.46090909,13.4288973 9.07363636,10.1079243 11.3545455,11.052573 C7.69272727,8.00911351 3.68272727,5.8083027 0.495454545,6.47176216 C5.67090909,4.01732973 9.12,4.12116757 13.6409091,9.05300541" fill="#68C083" transform="translate(12.727 .809)"/>
    <path d="M13.6409091,9.05300541 C12.1718182,4.56041081 12.6109091,3.57073514 10.2636364,0.477654054 C16.9863636,3.2923027 16.6554545,7.78765405 16.5690909,8.7856 C18.4245455,8.28203243 24.0045455,13.0071135 26.5,17.9940865 C21.5763636,14.3524108 21.8718182,13.4105189 18.6527273,12.8554919 C24.1709091,18.3267351 23.9263636,22.8974378 25.6581818,23.7042486 C23.5636364,23.7446811 21.1181818,19.1969514 17.8918182,16.2720324 C20.6772727,21.1220865 17.5,23.7446811 19.1681818,26.9737622 C15.88,25.0008432 15.2863636,20.6773297 14.5636364,15.5736541 C7.86363636,16.4732757 5.65545455,14.8670054 1.93636364,16.106627 C5.46090909,13.4288973 9.07363636,10.1079243 11.3545455,11.052573 C7.69272727,8.00911351 3.68272727,5.8083027 0.495454545,6.47176216 C5.67090909,4.01732973 9.12,4.12116757 13.6409091,9.05300541" stroke="#151117" stroke-width=".8" stroke-linecap="round" stroke-linejoin="round" transform="translate(12.727 .809)"/>
    <path d="M26.9580909,12.2594811 C26.0853636,10.4400216 23.5344545,8.55899459 21.7835455,8.10137297 M25.9317273,4.54331892 C27.499,6.9031027 28.6480909,10.6182919 26.9580909,12.2594811 C29.7462727,12.8218595 32.4380909,15.7228865 33.3053636,17.439427 M29.7071818,19.9453189 C30.089,17.2666703 28.7626364,13.971427 26.9580909,12.2594811 M32.0871818,12.6518595 C30.1735455,11.2404 28.2862727,11.7871568 26.9580909,12.2594811 M36.3553636,9.34007568 C34.3508182,9.26748108 30.6135455,9.42461622 26.9580909,12.2594811 M26.9580909,12.2594811 C25.2899091,13.5542378 23.7235455,14.1248865 21.0717273,14.5889405" stroke="#151117" stroke-width=".8" stroke-linecap="round" stroke-linejoin="round"/>
    <path d="M2.75981818,28.3953297 C3.20618182,28.0488973 3.73072727,27.9818162 3.93072727,28.244627 C4.12981818,28.5074378 3.93072727,29.0018162 3.48436364,29.3482486 C3.038,29.6956 2.51345455,29.7617622 2.31345455,29.4989514 C2.11436364,29.2361405 2.31345455,28.7417622 2.75981818,28.3953297" fill="#FEFEFE"/>
    <path d="M2.75981818,28.3953297 C3.20618182,28.0488973 3.73072727,27.9818162 3.93072727,28.244627 C4.12981818,28.5074378 3.93072727,29.0018162 3.48436364,29.3482486 C3.038,29.6956 2.51345455,29.7617622 2.31345455,29.4989514 C2.11436364,29.2361405 2.31345455,28.7417622 2.75981818,28.3953297 Z" stroke="#151117" stroke-width=".8"/>
    <path d="M7.85609091,23.6849514 C8.30245455,23.3385189 8.827,23.2714378 9.02609091,23.5342486 C9.22609091,23.7988973 9.02609091,24.2914378 8.57972727,24.6397081 C8.13245455,24.9852216 7.60972727,25.0523027 7.40972727,24.788573 C7.21063636,24.5257622 7.40972727,24.0313838 7.85609091,23.6849514" fill="#FEFEFE"/>
    <path d="M7.85609091,23.6849514 C8.30245455,23.3385189 8.827,23.2714378 9.02609091,23.5342486 C9.22609091,23.7988973 9.02609091,24.2914378 8.57972727,24.6397081 C8.13245455,24.9852216 7.60972727,25.0523027 7.40972727,24.788573 C7.21063636,24.5257622 7.40972727,24.0313838 7.85609091,23.6849514 Z" stroke="#151117" stroke-width=".8"/>
    <path d="M11.7956364,21.7842595 C12.242,21.437827 12.7665455,21.3707459 12.9665455,21.6335568 C13.1656364,21.8982054 12.9665455,22.3907459 12.5201818,22.7371784 C12.0738182,23.0845297 11.5492727,23.1506919 11.3492727,22.8878811 C11.1501818,22.6250703 11.3492727,22.1306919 11.7956364,21.7842595" fill="#FEFEFE"/>
    <path d="M11.7956364,21.7842595 C12.242,21.437827 12.7665455,21.3707459 12.9665455,21.6335568 C13.1656364,21.8982054 12.9665455,22.3907459 12.5201818,22.7371784 C12.0738182,23.0845297 11.5492727,23.1506919 11.3492727,22.8878811 C11.1501818,22.6250703 11.3492727,22.1306919 11.7956364,21.7842595 Z" stroke="#151117" stroke-width=".8"/>
    <path d="M2.83618182,25.1108378 C3.28254545,24.7653243 3.80709091,24.6973243 4.00709091,24.9601351 C4.20618182,25.2247838 4.00709091,25.7182432 3.55981818,26.0655946 C3.11436364,26.412027 2.58981818,26.4781892 2.38981818,26.2144595 C2.19072727,25.9516486 2.38981818,25.4572703 2.83618182,25.1108378" fill="#FEFEFE"/>
    <path d="M2.83618182,25.1108378 C3.28254545,24.7653243 3.80709091,24.6973243 4.00709091,24.9601351 C4.20618182,25.2247838 4.00709091,25.7182432 3.55981818,26.0655946 C3.11436364,26.412027 2.58981818,26.4781892 2.38981818,26.2144595 C2.19072727,25.9516486 2.38981818,25.4572703 2.83618182,25.1108378 Z" stroke="#151117" stroke-width=".8"/>
    <path d="M7.742,30.4179622 C8.33109091,30.1625027 8.70109091,29.7067189 8.57109091,29.3998 C8.44109091,29.0947189 7.85836364,29.0524486 7.27018182,29.308827 C6.68109091,29.5642865 6.31018182,30.0182324 6.44018182,30.3251514 C6.57018182,30.6320703 7.15290909,30.6725027 7.742,30.4179622" fill="#FEFEFE"/>
    <path d="M7.742,30.4179622 C8.33109091,30.1625027 8.70109091,29.7067189 8.57109091,29.3998 C8.44109091,29.0947189 7.85836364,29.0524486 7.27018182,29.308827 C6.68109091,29.5642865 6.31018182,30.0182324 6.44018182,30.3251514 C6.57018182,30.6320703 7.15290909,30.6725027 7.742,30.4179622 Z" stroke="#151117" stroke-width=".8"/>
    <path d="M12.0224545,28.3073892 C12.6115455,28.0519297 12.9815455,27.5961459 12.8515455,27.289227 C12.7215455,26.9841459 12.1388182,26.9418757 11.5506364,27.1973351 C10.9615455,27.4527946 10.5906364,27.9085784 10.7206364,28.2154973 C10.8506364,28.5214973 11.4333636,28.5628486 12.0224545,28.3073892" fill="#FEFEFE"/>
    <path d="M12.0224545,28.3073892 C12.6115455,28.0519297 12.9815455,27.5961459 12.8515455,27.289227 C12.7215455,26.9841459 12.1388182,26.9418757 11.5506364,27.1973351 C10.9615455,27.4527946 10.5906364,27.9085784 10.7206364,28.2154973 C10.8506364,28.5214973 11.4333636,28.5628486 12.0224545,28.3073892 Z" stroke="#151117" stroke-width=".8"/>
    <path d="M16.6131818,24.6703081 C17.2477273,24.5820919 17.7259091,24.2420919 17.6804545,23.9131189 C17.6359091,23.5813892 17.085,23.3856595 16.4504545,23.4729568 C15.8159091,23.5630108 15.3377273,23.901173 15.3831818,24.2319838 C15.4277273,24.5637135 15.9786364,24.7585243 16.6131818,24.6703081" fill="#FEFEFE"/>
    <path d="M16.6131818,24.6703081 C17.2477273,24.5820919 17.7259091,24.2420919 17.6804545,23.9131189 C17.6359091,23.5813892 17.085,23.3856595 16.4504545,23.4729568 C15.8159091,23.5630108 15.3377273,23.901173 15.3831818,24.2319838 C15.4277273,24.5637135 15.9786364,24.7585243 16.6131818,24.6703081 Z" stroke="#151117" stroke-width=".8"/>
    <path d="M22.2421818,23.1348865 C22.9276364,22.9391568 23.4467273,22.5118595 23.4012727,22.1828865 C23.3558182,21.8520757 22.764,21.7418054 22.0794545,21.9384541 C21.394,22.1341838 20.8749091,22.5596432 20.9203636,22.8904541 C20.9649091,23.2212649 21.5576364,23.3296973 22.2421818,23.1348865" fill="#FEFEFE"/>
    <path d="M22.2421818,23.1348865 C22.9276364,22.9391568 23.4467273,22.5118595 23.4012727,22.1828865 C23.3558182,21.8520757 22.764,21.7418054 22.0794545,21.9384541 C21.394,22.1341838 20.8749091,22.5596432 20.9203636,22.8904541 C20.9649091,23.2212649 21.5576364,23.3296973 22.2421818,23.1348865 Z" stroke="#151117" stroke-width=".8"/>
    <path d="M20.8523636,27.474573 C21.5378182,27.2797622 22.0569091,26.8524649 22.0114545,26.5216541 C21.966,26.1917622 21.3741818,26.0824108 20.6896364,26.2772216 C20.0041818,26.4747892 19.4850909,26.9002486 19.5305455,27.2301405 C19.5750909,27.5618703 20.1678182,27.6703027 20.8523636,27.474573" fill="#FEFEFE"/>
    <path d="M20.8523636,27.474573 C21.5378182,27.2797622 22.0569091,26.8524649 22.0114545,26.5216541 C21.966,26.1917622 21.3741818,26.0824108 20.6896364,26.2772216 C20.0041818,26.4747892 19.4850909,26.9002486 19.5305455,27.2301405 C19.5750909,27.5618703 20.1678182,27.6703027 20.8523636,27.474573 Z" stroke="#151117" stroke-width=".8"/>
    <path d="M16.2283636,30.1631459 C16.9129091,29.9674162 17.4329091,29.5401189 17.3874545,29.2111459 C17.342,28.8803351 16.7501818,28.7700649 16.0656364,28.9667135 C15.3801818,29.1624432 14.8610909,29.5879027 14.9065455,29.9187135 C14.9501818,30.2504432 15.5438182,30.3588757 16.2283636,30.1631459" fill="#FEFEFE"/>
    <path d="M16.2283636,30.1631459 C16.9129091,29.9674162 17.4329091,29.5401189 17.3874545,29.2111459 C17.342,28.8803351 16.7501818,28.7700649 16.0656364,28.9667135 C15.3801818,29.1624432 14.8610909,29.5879027 14.9065455,29.9187135 C14.9501818,30.2504432 15.5438182,30.3588757 16.2283636,30.1631459 Z" stroke="#151117" stroke-width=".8"/>
    <path d="M10.4173636,32.3060649 C11.1019091,32.1103351 11.6219091,31.6839568 11.5764545,31.3531459 C11.531,31.0232541 10.9391818,30.9129838 10.2546364,31.1087135 C9.56918182,31.3053622 9.05009091,31.7308216 9.09554545,32.0616324 C9.14009091,32.3933622 9.73281818,32.5017946 10.4173636,32.3060649" fill="#FEFEFE"/>
    <path d="M10.4173636,32.3060649 C11.1019091,32.1103351 11.6219091,31.6839568 11.5764545,31.3531459 C11.531,31.0232541 10.9391818,30.9129838 10.2546364,31.1087135 C9.56918182,31.3053622 9.05009091,31.7308216 9.09554545,32.0616324 C9.14009091,32.3933622 9.73281818,32.5017946 10.4173636,32.3060649 Z" stroke="#151117" stroke-width=".8"/>
    <path d="M21.4973636,30.3731189 C22.1828182,30.1773892 22.7019091,29.7510108 22.6564545,29.4202 C22.611,29.0903081 22.0191818,28.9800378 21.3346364,29.1776054 C20.6491818,29.3733351 20.1300909,29.7987946 20.1755455,30.1286865 C20.2200909,30.4604162 20.8128182,30.5688486 21.4973636,30.3731189" fill="#FEFEFE"/>
    <path d="M21.4973636,30.3731189 C22.1828182,30.1773892 22.7019091,29.7510108 22.6564545,29.4202 C22.611,29.0903081 22.0191818,28.9800378 21.3346364,29.1776054 C20.6491818,29.3733351 20.1300909,29.7987946 20.1755455,30.1286865 C20.2200909,30.4604162 20.8128182,30.5688486 21.4973636,30.3731189 Z" stroke="#151117" stroke-width=".8"/>
    <path d="M25.9864545,30.1155459 C26.671,29.9198162 27.191,29.4934378 27.1455455,29.162627 C27.101,28.8327351 26.5082727,28.7224649 25.8228182,28.9181946 C25.1382727,29.1148432 24.6191818,29.5403027 24.6637273,29.8711135 C24.7082727,30.2028432 25.301,30.3112757 25.9864545,30.1155459" fill="#FEFEFE"/>
    <path d="M25.9864545,30.1155459 C26.671,29.9198162 27.191,29.4934378 27.1455455,29.162627 C27.101,28.8327351 26.5082727,28.7224649 25.8228182,28.9181946 C25.1382727,29.1148432 24.6191818,29.5403027 24.6637273,29.8711135 C24.7082727,30.2028432 25.301,30.3112757 25.9864545,30.1155459 Z" stroke="#151117" stroke-width=".8"/>
    <path d="M26.3042727,25.7462703 C26.9888182,25.5505405 27.5088182,25.1241622 27.4633636,24.7933514 C27.4197273,24.4634595 26.8260909,24.3531892 26.1415455,24.5489189 C25.4560909,24.7464865 24.937,25.1719459 24.9824545,25.5018378 C25.027,25.8335676 25.6197273,25.942 26.3042727,25.7462703" fill="#FEFEFE"/>
    <path d="M26.3042727,25.7462703 C26.9888182,25.5505405 27.5088182,25.1241622 27.4633636,24.7933514 C27.4197273,24.4634595 26.8260909,24.3531892 26.1415455,24.5489189 C25.4560909,24.7464865 24.937,25.1719459 24.9824545,25.5018378 C25.027,25.8335676 25.6197273,25.942 26.3042727,25.7462703 Z" stroke="#151117" stroke-width=".8"/>
    <path d="M26.1005455,22.5057946 C26.7850909,22.3100649 27.3050909,21.8836865 27.2596364,21.5528757 C27.2141818,21.2229838 26.6223636,21.1127135 25.9378182,21.3084432 C25.2523636,21.5050919 24.7332727,21.9305514 24.7787273,22.2613622 C24.8223636,22.5930919 25.416,22.7015243 26.1005455,22.5057946" fill="#FEFEFE"/>
    <path d="M26.1005455,22.5057946 C26.7850909,22.3100649 27.3050909,21.8836865 27.2596364,21.5528757 C27.2141818,21.2229838 26.6223636,21.1127135 25.9378182,21.3084432 C25.2523636,21.5050919 24.7332727,21.9305514 24.7787273,22.2613622 C24.8223636,22.5930919 25.416,22.7015243 26.1005455,22.5057946 Z" stroke="#151117" stroke-width=".8"/>
    <path d="M24.012,19.7543676 C24.6965455,19.5586378 25.2165455,19.1322595 25.1710909,18.8014486 C25.1256364,18.4715568 24.5338182,18.3612865 23.8483636,18.5588541 C23.1638182,18.7536649 22.6447273,19.1800432 22.6892727,19.5099351 C22.7338182,19.8416649 23.3265455,19.9500973 24.012,19.7543676" fill="#FEFEFE"/>
    <path d="M24.012,19.7543676 C24.6965455,19.5586378 25.2165455,19.1322595 25.1710909,18.8014486 C25.1256364,18.4715568 24.5338182,18.3612865 23.8483636,18.5588541 C23.1638182,18.7536649 22.6447273,19.1800432 22.6892727,19.5099351 C22.7338182,19.8416649 23.3265455,19.9500973 24.012,19.7543676 Z" stroke="#151117" stroke-width=".8"/>
    <path d="M18.2600909,19.7337838 C18.8846364,19.3873514 19.2964545,18.8543784 19.1791818,18.5428649 C19.0628182,18.2304324 18.461,18.258 17.8364545,18.6044324 C17.2128182,18.9499459 16.801,19.4838378 16.9164545,19.7944324 C17.0337273,20.1059459 17.6355455,20.0792973 18.2600909,19.7337838" fill="#FEFEFE"/>
    <path d="M18.2600909,19.7337838 C18.8846364,19.3873514 19.2964545,18.8543784 19.1791818,18.5428649 C19.0628182,18.2304324 18.461,18.258 17.8364545,18.6044324 C17.2128182,18.9499459 16.801,19.4838378 16.9164545,19.7944324 C17.0337273,20.1059459 17.6355455,20.0792973 18.2600909,19.7337838 Z" stroke="#151117" stroke-width=".8"/>
    <path d="M18.4327273,12.2002108 C19.0572727,11.8537784 19.4690909,11.3217243 19.3518182,11.0092919 C19.2354545,10.6977784 18.6336364,10.7262649 18.0090909,11.0708595 C17.3854545,11.4154541 16.9727273,11.9502649 17.0890909,12.2608595 C17.2063636,12.5732919 17.8081818,12.5448054 18.4327273,12.2002108" fill="#FEFEFE"/>
    <path d="M18.4327273,12.2002108 C19.0572727,11.8537784 19.4690909,11.3217243 19.3518182,11.0092919 C19.2354545,10.6977784 18.6336364,10.7262649 18.0090909,11.0708595 C17.3854545,11.4154541 16.9727273,11.9502649 17.0890909,12.2608595 C17.2063636,12.5732919 17.8081818,12.5448054 18.4327273,12.2002108 Z" stroke="#151117" stroke-width=".8"/>
    <path d="M14.1140909,13.6665297 C14.7386364,13.3200973 15.1504545,12.7880432 15.0331818,12.4756108 C14.9168182,12.1640973 14.315,12.1916649 13.6904545,12.5371784 C13.0659091,12.8836108 12.6540909,13.4165838 12.7704545,13.7280973 C12.8877273,14.0396108 13.4895455,14.0129622 14.1140909,13.6665297" fill="#FEFEFE"/>
    <path d="M14.1140909,13.6665297 C14.7386364,13.3200973 15.1504545,12.7880432 15.0331818,12.4756108 C14.9168182,12.1640973 14.315,12.1916649 13.6904545,12.5371784 C13.0659091,12.8836108 12.6540909,13.4165838 12.7704545,13.7280973 C12.8877273,14.0396108 13.4895455,14.0129622 14.1140909,13.6665297 Z" stroke="#151117" stroke-width=".8"/>
    <path d="M12.9697273,10.0241189 C13.5942727,9.67860541 14.0060909,9.14563243 13.8888182,8.83411892 C13.7724545,8.52168649 13.1706364,8.54925405 12.5460909,8.89476757 C11.9224545,9.23936216 11.5097273,9.77417297 11.6260909,10.0856865 C11.7433636,10.3972 12.3451818,10.3696324 12.9697273,10.0241189" fill="#FEFEFE"/>
    <path d="M12.9697273,10.0241189 C13.5942727,9.67860541 14.0060909,9.14563243 13.8888182,8.83411892 C13.7724545,8.52168649 13.1706364,8.54925405 12.5460909,8.89476757 C11.9224545,9.23936216 11.5097273,9.77417297 11.6260909,10.0856865 C11.7433636,10.3972 12.3451818,10.3696324 12.9697273,10.0241189 Z" stroke="#151117" stroke-width=".8"/>
    <path d="M9.39772727,13.9887027 C9.91954545,13.4998378 10.1904545,12.8814054 10.0022727,12.6075676 C9.81227273,12.3328108 9.23590909,12.5083243 8.71409091,12.999027 C8.19227273,13.4878919 7.92136364,14.1063243 8.10954545,14.3801622 C8.29954545,14.6530811 8.87590909,14.4775676 9.39772727,13.9887027" fill="#FEFEFE"/>
    <path d="M9.39772727,13.9887027 C9.91954545,13.4998378 10.1904545,12.8814054 10.0022727,12.6075676 C9.81227273,12.3328108 9.23590909,12.5083243 8.71409091,12.999027 C8.19227273,13.4878919 7.92136364,14.1063243 8.10954545,14.3801622 C8.29954545,14.6530811 8.87590909,14.4775676 9.39772727,13.9887027 Z" stroke="#151117" stroke-width=".8"/>
    <path d="M9.57218182,10.0958865 C10.094,9.60702162 10.3649091,8.98858919 10.1767273,8.71475135 C9.98672727,8.43999459 9.41036364,8.61550811 8.88854545,9.10621081 C8.36581818,9.59507568 8.09581818,10.2135081 8.284,10.4873459 C8.474,10.7611838 9.05036364,10.5856703 9.57218182,10.0958865" fill="#FEFEFE"/>
    <path d="M9.57218182,10.0958865 C10.094,9.60702162 10.3649091,8.98858919 10.1767273,8.71475135 C9.98672727,8.43999459 9.41036364,8.61550811 8.88854545,9.10621081 C8.36581818,9.59507568 8.09581818,10.2135081 8.284,10.4873459 C8.474,10.7611838 9.05036364,10.5856703 9.57218182,10.0958865 Z" stroke="#151117" stroke-width=".8"/>
    <path d="M14.1522727,5.80637297 C14.7931818,5.49118378 15.2304545,4.98118378 15.1295455,4.66231892 C15.0268182,4.34529189 14.425,4.34253514 13.7840909,4.65588649 C13.1440909,4.97015676 12.7059091,5.48199459 12.8077273,5.79902162 C12.9095455,6.11788649 13.5113636,6.12064324 14.1522727,5.80637297" fill="#FEFEFE"/>
    <path d="M14.1522727,5.80637297 C14.7931818,5.49118378 15.2304545,4.98118378 15.1295455,4.66231892 C15.0268182,4.34529189 14.425,4.34253514 13.7840909,4.65588649 C13.1440909,4.97015676 12.7059091,5.48199459 12.8077273,5.79902162 C12.9095455,6.11788649 13.5113636,6.12064324 14.1522727,5.80637297 Z" stroke="#151117" stroke-width=".8"/>
    <path d="M11.7956364,18.119427 C12.4201818,17.7748324 12.832,17.2400216 12.7156364,16.9285081 C12.5983636,16.6169946 11.9965455,16.6445622 11.3729091,16.9900757 C10.7483636,17.3346703 10.3365455,17.8694811 10.4538182,18.1800757 C10.5701818,18.4925081 11.1710909,18.4658595 11.7956364,18.119427" fill="#FEFEFE"/>
    <path d="M11.7956364,18.119427 C12.4201818,17.7748324 12.832,17.2400216 12.7156364,16.9285081 C12.5983636,16.6169946 11.9965455,16.6445622 11.3729091,16.9900757 C10.7483636,17.3346703 10.3365455,17.8694811 10.4538182,18.1800757 C10.5701818,18.4925081 11.1710909,18.4658595 11.7956364,18.119427 Z" stroke="#151117" stroke-width=".8"/>
    <path d="M6.63718182,20.261427 C7.06809091,19.6889405 7.22990909,19.0328324 6.99718182,18.7957514 C6.76536364,18.5586703 6.22627273,18.8315892 5.79536364,19.4040757 C5.36445455,19.9765622 5.20263636,20.6335892 5.43536364,20.8697514 C5.66809091,21.1077514 6.20627273,20.8339135 6.63718182,20.261427" fill="#FEFEFE"/>
    <path d="M6.63718182,20.261427 C7.06809091,19.6889405 7.22990909,19.0328324 6.99718182,18.7957514 C6.76536364,18.5586703 6.22627273,18.8315892 5.79536364,19.4040757 C5.36445455,19.9765622 5.20263636,20.6335892 5.43536364,20.8697514 C5.66809091,21.1077514 6.20627273,20.8339135 6.63718182,20.261427 Z" stroke="#151117" stroke-width=".8"/>
  </g>
</svg>