<svg width="50" height="50" xmlns="http://www.w3.org/2000/svg">
  <g fill="none" fill-rule="evenodd">
    <path d="M0,24.6551429 C0,11.0387143 11.0385714,0.000142857143 24.6557143,0.000142857143 C38.2721429,0.000142857143 49.31,11.0387143 49.31,24.6551429 C49.31,38.2715714 38.2714286,49.3101429 24.6557143,49.3101429 C11.0385714,49.3101429 0,38.2715714 0,24.6551429" fill="#FADCE7"/>
    <path d="M21.8561429,33.3744286 C21.8561429,32.4151429 23.1025714,32.3922857 24.6397143,32.3922857 C26.1782857,32.3922857 27.4247143,32.4151429 27.4247143,33.3744286 C27.4247143,34.3337143 26.1782857,35.7772857 24.6397143,35.7772857 C23.1025714,35.7772857 21.8561429,34.3337143 21.8561429,33.3744286" fill="#231F20"/>
    <path d="M24.6351429,38.1547143 C11.6437143,38.1547143 9.24228571,31.2282857 9.24228571,24.2847143 C9.24228571,10.614 17.0508571,5.65471429 24.6401429,5.65471429 C32.2294286,5.65471429 40.0372857,10.614 40.0372857,24.2847143 C40.0372857,31.2282857 37.6358571,38.1547143 24.6444286,38.1547143 L24.6351429,38.1547143 Z" fill="#231F20"/>
    <path d="M24.6351429,38.1547143 C11.6437143,38.1547143 9.24228571,31.2282857 9.24228571,24.2847143 C9.24228571,10.614 17.0508571,5.65471429 24.6401429,5.65471429 C32.2294286,5.65471429 40.0372857,10.614 40.0372857,24.2847143 C40.0372857,31.2282857 37.6358571,38.1547143 24.6444286,38.1547143 L24.6351429,38.1547143 Z" stroke="#231F20" stroke-width=".8"/>
    <path d="M24.64,38.3325714 C29.3814286,38.3325714 31.9664286,39.5318571 31.9664286,41.5982857 C31.9664286,43.6311429 29.6042857,45.259 27.3821429,45.259 C25.7478571,45.259 24.64,43.9418571 24.64,43.1832857 C24.64,43.9418571 23.5314286,45.259 21.8978571,45.259 C19.675,45.259 17.3128571,43.6311429 17.3128571,41.5982857 C17.3128571,39.5318571 19.8978571,38.3325714 24.64,38.3325714" fill="#FFF584"/>
    <path d="M24.64,38.3325714 C29.3814286,38.3325714 31.9664286,39.5318571 31.9664286,41.5982857 C31.9664286,43.6311429 29.6042857,45.259 27.3821429,45.259 C25.7478571,45.259 24.64,43.9418571 24.64,43.1832857 C24.64,43.9418571 23.5314286,45.259 21.8978571,45.259 C19.675,45.259 17.3128571,43.6311429 17.3128571,41.5982857 C17.3128571,39.5318571 19.8978571,38.3325714 24.64,38.3325714 Z" stroke="#231F20" stroke-width=".8"/>
    <path d="M19.5347143,36.55 L19.5347143,40.4657143 C19.5347143,41.9514286 21.8204286,43.1557143 24.6397143,43.1557143 C27.4597143,43.1557143 29.7454286,41.9514286 29.7454286,40.4657143 L29.7454286,36.55 L19.5347143,36.55 Z" fill="#FEFEFE"/>
    <path d="M19.5347143,36.55 L19.5347143,40.4657143 C19.5347143,41.9514286 21.8204286,43.1557143 24.6397143,43.1557143 C27.4597143,43.1557143 29.7454286,41.9514286 29.7454286,40.4657143 L29.7454286,36.55 L19.5347143,36.55 Z" stroke="#231F20" stroke-width=".8"/>
    <path d="M37.5641429,20.0339286 L37.5641429,31.0460714 C35.1741429,36.0603571 29.9384286,39.4610714 24.6398571,39.4446429 C19.2991429,39.4282143 14.057,35.9417857 11.7155714,30.8475 L11.7155714,19.9475 C11.7291429,16.0875 17.4155714,11.1653571 24.6398571,11.1653571 C31.777,11.1653571 37.5641429,16.1382143 37.5641429,20.0339286" fill="#FEFEFE"/>
    <path d="M37.5641429,20.0339286 L37.5641429,31.0460714 C35.1741429,36.0603571 29.9384286,39.4610714 24.6398571,39.4446429 C19.2991429,39.4282143 14.057,35.9417857 11.7155714,30.8475 L11.7155714,19.9475 C11.7291429,16.0875 17.4155714,11.1653571 24.6398571,11.1653571 C31.777,11.1653571 37.5641429,16.1382143 37.5641429,20.0339286 Z" stroke="#231F20" stroke-width=".8" stroke-linecap="round" stroke-linejoin="round"/>
    <path d="M40.0376429,23.4790714 C40.0376429,18.7269286 33.1497857,12.2126429 24.6555,12.2126429 C16.0569286,12.2126429 9.28907143,18.6655 9.27335714,23.3740714 L9.27335714,16.8726429 C9.27335714,11.4940714 15.7519286,3.98978571 24.6555,3.98978571 C33.5583571,3.98978571 40.0376429,12.1869286 40.0376429,16.8726429 L40.0376429,23.4790714 Z" fill="#FEFEFE"/>
    <path d="M40.0376429,23.4790714 C40.0376429,18.7269286 33.1497857,12.2126429 24.6555,12.2126429 C16.0569286,12.2126429 9.28907143,18.6655 9.27335714,23.3740714 L9.27335714,16.8726429 C9.27335714,11.4940714 15.7519286,3.98978571 24.6555,3.98978571 C33.5583571,3.98978571 40.0376429,12.1869286 40.0376429,16.8726429 L40.0376429,23.4790714 Z" stroke="#231F20" stroke-width=".8" stroke-linecap="round" stroke-linejoin="round"/>
    <path d="M19.1887143 24.1602143L20.9615714 20.4187857M19.1887143 24.1602143L19.1887143 20.0452143M30.0892857 24.1602143L30.0892857 20.0452143M19.1887143 24.1602143L15.9701429 21.5959286M19.1887143 24.1602143L17.4158571 20.4187857M19.188 24.1602143L22.4065714 21.5966429M23.6635 28.6409286C23.6635 28.1016429 24.1006429 27.6637857 24.6399286 27.6637857 25.1792143 27.6637857 25.6163571 28.1016429 25.6163571 28.6409286" stroke="#231F20" stroke-width=".8" stroke-linecap="round"/>
    <path d="M19.1887143,25.1437857 C17.7187143,25.1437857 16.5244286,25.6295 16.5244286,24.1609286 C16.5244286,22.6902143 17.7187143,21.4952143 19.1887143,21.4952143 C20.658,21.4952143 21.853,22.6902143 21.853,24.1609286 C21.853,25.6295 20.658,25.1437857 19.1887143,25.1437857" fill="#FEFEFE"/>
    <path d="M19.1887143,25.1437857 C17.7187143,25.1437857 16.5244286,25.6295 16.5244286,24.1609286 C16.5244286,22.6902143 17.7187143,21.4952143 19.1887143,21.4952143 C20.658,21.4952143 21.853,22.6902143 21.853,24.1609286 C21.853,25.6295 20.658,25.1437857 19.1887143,25.1437857 Z" stroke="#231F20" stroke-width=".8" stroke-linecap="round"/>
    <path d="M20.3305714,23.4281429 C20.0177143,23.4281429 19.7627143,23.1445714 19.7627143,22.7945714 C19.7627143,22.6502857 19.8134286,22.5231429 19.887,22.4167143 C19.6741429,22.3045714 19.4391429,22.2374286 19.1877143,22.2374286 C18.2784286,22.2374286 17.5398571,23.061 17.5398571,24.0781429 C17.5398571,25.0945714 18.2784286,25.1438571 19.1877143,25.1438571 C20.0998571,25.1438571 20.8377143,25.0945714 20.8377143,24.0781429 C20.8377143,23.7938571 20.7748571,23.5281429 20.672,23.2874286 C20.5762857,23.3702857 20.4612857,23.4281429 20.3305714,23.4281429" fill="#231F20"/>
    <path d="M30.0892857 24.1602143L31.8621429 20.4187857M30.0892857 24.1602143L26.8707143 21.5959286M30.0892857 24.1602143L28.3164286 20.4187857M30.0892857 24.1602143L33.3078571 21.5959286" stroke="#231F20" stroke-width=".8" stroke-linecap="round"/>
    <path d="M30.0892857,25.1437857 C28.6192857,25.1437857 27.425,25.6295 27.425,24.1609286 C27.425,22.6902143 28.6192857,21.4952143 30.0892857,21.4952143 C31.5585714,21.4952143 32.7535714,22.6902143 32.7535714,24.1609286 C32.7535714,25.6295 31.5585714,25.1437857 30.0892857,25.1437857" fill="#FEFEFE"/>
    <path d="M30.0892857,25.1437857 C28.6192857,25.1437857 27.425,25.6295 27.425,24.1609286 C27.425,22.6902143 28.6192857,21.4952143 30.0892857,21.4952143 C31.5585714,21.4952143 32.7535714,22.6902143 32.7535714,24.1609286 C32.7535714,25.6295 31.5585714,25.1437857 30.0892857,25.1437857 Z" stroke="#231F20" stroke-width=".8" stroke-linecap="round"/>
    <path d="M31.2311429,23.4281429 C30.9182857,23.4281429 30.6632857,23.1445714 30.6632857,22.7945714 C30.6632857,22.6502857 30.714,22.5231429 30.7875714,22.4167143 C30.5747143,22.3045714 30.3397143,22.2374286 30.089,22.2374286 C29.179,22.2374286 28.4404286,23.061 28.4404286,24.0781429 C28.4404286,25.0945714 29.179,25.1438571 30.089,25.1438571 C31.0004286,25.1438571 31.7382857,25.0945714 31.7382857,24.0781429 C31.7382857,23.7938571 31.6754286,23.5281429 31.5725714,23.2874286 C31.4768571,23.3702857 31.3618571,23.4281429 31.2311429,23.4281429" fill="#231F20"/>
    <path d="M19.4042857 30.4412857C19.4042857 31.8691429 18.2464286 33.0277143 16.8185714 33.0277143 15.3892857 33.0277143 14.2314286 31.8691429 14.2314286 30.4412857 14.2314286 29.0127143 15.3892857 27.8541429 16.8185714 27.8541429 18.2464286 27.8548571 19.4042857 29.0127143 19.4042857 30.4412857M35.0480714 30.4412857C35.0480714 31.8691429 33.8902143 33.0277143 32.4623571 33.0277143 31.0330714 33.0277143 29.8752143 31.8691429 29.8752143 30.4412857 29.8752143 29.0127143 31.0330714 27.8541429 32.4623571 27.8541429 33.8902143 27.8548571 35.0480714 29.0127143 35.0480714 30.4412857" fill="#FADCE7"/>
    <path d="M32.034,5.71264286 C33.6304286,4.10978571 36.0025714,3.89121429 37.3318571,5.22264286 C38.6618571,6.55478571 38.4454286,8.93335714 36.8482857,10.5355 C35.2525714,12.1376429 30.4375714,7.31478571 32.034,5.71264286" fill="#231F20"/>
    <path d="M32.034,5.71264286 C33.6304286,4.10978571 36.0025714,3.89121429 37.3318571,5.22264286 C38.6618571,6.55478571 38.4454286,8.93335714 36.8482857,10.5355 C35.2525714,12.1376429 30.4375714,7.31478571 32.034,5.71264286 Z" stroke="#231F20" stroke-width=".8"/>
    <path d="M17.2467857,5.71264286 C15.6503571,4.10978571 13.2775,3.89121429 11.9482143,5.22264286 C10.6189286,6.55478571 10.8346429,8.93335714 12.4317857,10.5355 C14.0282143,12.1376429 18.8432143,7.31478571 17.2467857,5.71264286" fill="#231F20"/>
    <path d="M17.2467857,5.71264286 C15.6503571,4.10978571 13.2775,3.89121429 11.9482143,5.22264286 C10.6189286,6.55478571 10.8346429,8.93335714 12.4317857,10.5355 C14.0282143,12.1376429 18.8432143,7.31478571 17.2467857,5.71264286 Z" stroke="#231F20" stroke-width=".8"/>
    <path d="M24.64,35.7775 C25.6235714,35.7775 26.4828571,35.2389286 26.9785714,34.6225 C26.5264286,33.8632143 25.6542857,33.3417857 24.64,33.3417857 C23.6257143,33.3417857 22.7542857,33.8632143 22.3021429,34.6225 C22.7971429,35.2389286 23.6571429,35.7775 24.64,35.7775" fill="#F16550"/>
    <path d="M21.8561429,33.3744286 C21.8561429,32.4151429 23.1025714,32.3922857 24.6397143,32.3922857 C26.1782857,32.3922857 27.4247143,32.4151429 27.4247143,33.3744286 C27.4247143,34.3337143 26.1782857,35.7772857 24.6397143,35.7772857 C23.1025714,35.7772857 21.8561429,34.3337143 21.8561429,33.3744286 Z" stroke="#231F20" stroke-width=".8" stroke-linecap="round"/>
    <path d="M37.0521429,30.029 C37.5042857,30.099 37.3735714,30.4797143 37.1914286,31.654 C37.1107143,32.1761429 36.68,34.8332857 36.5535714,35.6511429 C36.23,37.7354286 36.8407143,37.3582857 36.5214286,39.4161429 C36.1857143,41.5761429 34.65,42.8968571 34.3964286,44.5311429 C34.1521429,46.1025714 32.6728571,46.9947143 31.2635714,46.7761429 C29.6985714,46.5332857 28.7307143,45.3682857 28.9857143,43.724 C29.2757143,41.8547143 31.0442857,39.7011429 31.5264286,38.4254286 C31.75,37.8325714 33.0835714,34.0732857 33.1742857,33.4897143 C33.2357143,33.0968571 33.6571429,32.6254286 34.06,32.6875714 C34.4035714,32.7411429 34.4607143,33.0647143 34.3535714,33.7604286 C34.1285714,35.2054286 33.8114286,36.9632857 33.4321429,39.4068571 C33.7657143,37.2547143 34.4442857,34.0918571 34.7592857,32.0604286 C34.9378571,30.9118571 35.31,30.5032857 35.7514286,30.5711429 C36.2035714,30.6411429 36.1671429,31.1032857 36.0042857,32.1497143 C35.6471429,34.4511429 35.1457143,37.6061429 34.9364286,38.9547143 C35.1735714,37.4268571 35.6764286,34.2497143 36.0492857,31.8504286 C36.2785714,30.3718571 36.7214286,29.9775714 37.0521429,30.029" fill="#FEFEFE"/>
    <path d="M37.0521429,30.029 C37.5042857,30.099 37.3735714,30.4797143 37.1914286,31.654 C37.1107143,32.1761429 36.68,34.8332857 36.5535714,35.6511429 C36.23,37.7354286 36.8407143,37.3582857 36.5214286,39.4161429 C36.1857143,41.5761429 34.65,42.8968571 34.3964286,44.5311429 C34.1521429,46.1025714 32.6728571,46.9947143 31.2635714,46.7761429 C29.6985714,46.5332857 28.7307143,45.3682857 28.9857143,43.724 C29.2757143,41.8547143 31.0442857,39.7011429 31.5264286,38.4254286 C31.75,37.8325714 33.0835714,34.0732857 33.1742857,33.4897143 C33.2357143,33.0968571 33.6571429,32.6254286 34.06,32.6875714 C34.4035714,32.7411429 34.4607143,33.0647143 34.3535714,33.7604286 C34.1285714,35.2054286 33.8114286,36.9632857 33.4321429,39.4068571 C33.7657143,37.2547143 34.4442857,34.0918571 34.7592857,32.0604286 C34.9378571,30.9118571 35.31,30.5032857 35.7514286,30.5711429 C36.2035714,30.6411429 36.1671429,31.1032857 36.0042857,32.1497143 C35.6471429,34.4511429 35.1457143,37.6061429 34.9364286,38.9547143 C35.1735714,37.4268571 35.6764286,34.2497143 36.0492857,31.8504286 C36.2785714,30.3718571 36.7214286,29.9775714 37.0521429,30.029 Z" stroke="#231F20" stroke-width=".8" stroke-linecap="round" stroke-linejoin="round"/>
    <path d="M12.2286429,30.029 C11.7765,30.099 11.9065,30.4797143 12.0893571,31.654 C12.1700714,32.1761429 12.6007857,34.8332857 12.7272143,35.6511429 C13.0500714,37.7354286 12.4400714,37.3582857 12.7593571,39.4161429 C13.0943571,41.5761429 14.6300714,42.8968571 14.8843571,44.5311429 C15.1286429,46.1025714 16.6079286,46.9947143 18.0165,46.7761429 C19.5822143,46.5332857 20.5493571,45.3682857 20.2950714,43.724 C20.0043571,41.8547143 18.2357857,39.7011429 17.7543571,38.4254286 C17.5300714,37.8325714 16.1965,34.0732857 16.1057857,33.4897143 C16.0450714,33.0968571 15.6236429,32.6254286 15.2200714,32.6875714 C14.8765,32.7411429 14.8193571,33.0647143 14.9272143,33.7604286 C15.1515,35.2054286 15.4693571,36.9632857 15.8486429,39.4068571 C15.5150714,37.2547143 14.8365,34.0918571 14.5207857,32.0604286 C14.3429286,30.9118571 13.9707857,30.5032857 13.5286429,30.5711429 C13.0772143,30.6411429 13.1136429,31.1032857 13.2765,32.1497143 C13.6336429,34.4511429 14.1350714,37.6061429 14.3443571,38.9547143 C14.1072143,37.4268571 13.6036429,34.2497143 13.2307857,31.8504286 C13.0015,30.3718571 12.5593571,29.9775714 12.2286429,30.029" fill="#FEFEFE"/>
    <path d="M12.2286429,30.029 C11.7765,30.099 11.9065,30.4797143 12.0893571,31.654 C12.1700714,32.1761429 12.6007857,34.8332857 12.7272143,35.6511429 C13.0500714,37.7354286 12.4400714,37.3582857 12.7593571,39.4161429 C13.0943571,41.5761429 14.6300714,42.8968571 14.8843571,44.5311429 C15.1286429,46.1025714 16.6079286,46.9947143 18.0165,46.7761429 C19.5822143,46.5332857 20.5493571,45.3682857 20.2950714,43.724 C20.0043571,41.8547143 18.2357857,39.7011429 17.7543571,38.4254286 C17.5300714,37.8325714 16.1965,34.0732857 16.1057857,33.4897143 C16.0450714,33.0968571 15.6236429,32.6254286 15.2200714,32.6875714 C14.8765,32.7411429 14.8193571,33.0647143 14.9272143,33.7604286 C15.1515,35.2054286 15.4693571,36.9632857 15.8486429,39.4068571 C15.5150714,37.2547143 14.8365,34.0918571 14.5207857,32.0604286 C14.3429286,30.9118571 13.9707857,30.5032857 13.5286429,30.5711429 C13.0772143,30.6411429 13.1136429,31.1032857 13.2765,32.1497143 C13.6336429,34.4511429 14.1350714,37.6061429 14.3443571,38.9547143 C14.1072143,37.4268571 13.6036429,34.2497143 13.2307857,31.8504286 C13.0015,30.3718571 12.5593571,29.9775714 12.2286429,30.029 Z" stroke="#231F20" stroke-width=".8" stroke-linecap="round" stroke-linejoin="round"/>
  </g>
</svg>