<svg width="41" height="37" xmlns="http://www.w3.org/2000/svg">
  <g fill="none" fill-rule="evenodd">
    <path d="M6.8044,0.971 L6.7834,0.971 C6.2134,0.971 5.6474,1.047 5.1234,1.212 C2.5594,1.996 0.3904,5.148 0.4004,8.591 C0.4004,10.995 1.4484,13.171 3.1554,14.756 C4.8624,16.339 7.2244,17.324 9.8414,17.324 L9.8424,17.324 C12.4584,17.324 14.8224,16.339 16.5294,14.756 C18.2364,13.171 19.2834,10.995 19.2844,8.591 C19.2854,6.585 18.9424,4.986 18.2094,3.857 C17.4734,2.73 16.3674,2.022 14.6664,1.769 L14.6644,1.769 C14.5714,1.754 14.4474,1.746 14.3054,1.746 L14.3024,1.746 L14.2734,1.746 C13.7164,1.746 12.9124,1.876 12.2244,2.094 L9.5174,3.454 C9.3454,3.579 9.2024,3.704 9.1174,3.813 C9.0414,3.907 8.9304,3.956 8.8174,3.956 C8.7334,3.956 8.6474,3.929 8.5754,3.871 C8.4104,3.737 8.3844,3.495 8.5184,3.329 C8.6404,3.181 8.7884,3.042 8.9514,2.913 C8.9994,2.438 9.0894,1.94 9.2184,1.427 C8.4834,1.142 7.6384,0.971 6.8044,0.971" fill="#F16550" transform="translate(0 17.47)"/>
    <path d="M6.8044,0.971 L6.7834,0.971 C6.2134,0.971 5.6474,1.047 5.1234,1.212 C2.5594,1.996 0.3904,5.148 0.4004,8.591 C0.4004,10.995 1.4484,13.171 3.1554,14.756 C4.8624,16.339 7.2244,17.324 9.8414,17.324 L9.8424,17.324 C12.4584,17.324 14.8224,16.339 16.5294,14.756 C18.2364,13.171 19.2834,10.995 19.2844,8.591 C19.2854,6.585 18.9424,4.986 18.2094,3.857 C17.4734,2.73 16.3674,2.022 14.6664,1.769 L14.6644,1.769 C14.5714,1.754 14.4474,1.746 14.3054,1.746 L14.3024,1.746 L14.2734,1.746 C13.7164,1.746 12.9124,1.876 12.2244,2.094 L9.5174,3.454 C9.3454,3.579 9.2024,3.704 9.1174,3.813 C9.0414,3.907 8.9304,3.956 8.8174,3.956 C8.7334,3.956 8.6474,3.929 8.5754,3.871 C8.4104,3.737 8.3844,3.495 8.5184,3.329 C8.6404,3.181 8.7884,3.042 8.9514,2.913 C8.9994,2.438 9.0894,1.94 9.2184,1.427 C8.4834,1.142 7.6384,0.971 6.8044,0.971" stroke="#151117" stroke-width=".8" stroke-linecap="round" stroke-linejoin="round" transform="translate(0 17.47)"/>
    <path d="M12.8708,0.3416 C12.4958,0.3416 11.7698,0.3806 10.9978,0.5306 C11.0948,1.0916 11.1608,1.6376 11.1958,2.1686 L11.2008,2.2776 C11.2008,3.1346 10.5348,3.8536 9.6668,3.9116 L9.6548,3.9116 L9.5638,3.9146 L9.5598,3.9146 C8.7008,3.9146 7.9818,3.2506 7.9248,2.3836 C7.9108,2.1746 7.8898,1.9516 7.8608,1.7166 C7.6978,1.6396 7.5468,1.5736 7.4038,1.5216 C6.7918,1.2916 6.3218,1.2476 5.6808,1.2466 L5.6698,1.2466 C4.1688,1.2466 2.7588,2.2236 1.7168,3.6416 C0.6748,5.0546 0.0318,6.8876 0.0358,8.4216 L0.0388,8.5996 C0.1748,13.0416 4.3358,16.5966 9.4698,16.5996 L9.8298,16.5926 L9.8288,16.5946 C15.0318,16.4236 19.0928,12.6606 19.0858,8.2216 L19.0818,7.9826 C19.0308,6.3196 18.3878,4.3726 17.2948,2.8776 C16.1978,1.3776 14.6908,0.3416 12.8798,0.3416 L12.8788,0.3416 L12.8708,0.3416" fill="#F16550" transform="translate(21 19.47)"/>
    <path d="M12.8708,0.3416 C12.4958,0.3416 11.7698,0.3806 10.9978,0.5306 C11.0948,1.0916 11.1608,1.6376 11.1958,2.1686 L11.2008,2.2776 C11.2008,3.1346 10.5348,3.8536 9.6668,3.9116 L9.6548,3.9116 L9.5638,3.9146 L9.5598,3.9146 C8.7008,3.9146 7.9818,3.2506 7.9248,2.3836 C7.9108,2.1746 7.8898,1.9516 7.8608,1.7166 C7.6978,1.6396 7.5468,1.5736 7.4038,1.5216 C6.7918,1.2916 6.3218,1.2476 5.6808,1.2466 L5.6698,1.2466 C4.1688,1.2466 2.7588,2.2236 1.7168,3.6416 C0.6748,5.0546 0.0318,6.8876 0.0358,8.4216 L0.0388,8.5996 C0.1748,13.0416 4.3358,16.5966 9.4698,16.5996 L9.8298,16.5926 L9.8288,16.5946 C15.0318,16.4236 19.0928,12.6606 19.0858,8.2216 L19.0818,7.9826 C19.0308,6.3196 18.3878,4.3726 17.2948,2.8776 C16.1978,1.3776 14.6908,0.3416 12.8798,0.3416 L12.8788,0.3416 L12.8708,0.3416" stroke="#151117" stroke-width=".8" transform="translate(21 19.47)"/>
    <path d="M22.3625,1.4001 C21.9835,1.4001 21.6325,1.6531 21.5285,2.0361 L20.9805,4.0051 L20.8725,4.0851 C19.0695,5.3961 16.3425,8.4461 14.0525,11.8331 C11.9505,14.9311 10.2085,18.3411 9.7875,20.9251 L11.7325,19.9471 C12.2035,17.6681 13.7015,14.9481 15.4955,12.4151 C17.3425,9.8151 19.5015,7.4311 21.2235,6.0141 L21.5405,5.7551 L21.7795,6.0871 C27.9105,14.5571 29.4955,19.8031 29.6935,22.8021 C29.7225,23.2601 30.1045,23.6131 30.5565,23.6131 L30.6175,23.6121 C31.0775,23.5821 31.4295,23.1991 31.4295,22.7461 L31.4275,22.6881 C31.1315,18.0671 28.2375,11.9241 22.7935,4.5241 L23.1035,4.2951 L22.7935,4.5241 L22.6815,4.3731 L23.2025,2.5031 L23.2335,2.2691 C23.2335,1.8891 22.9825,1.5391 22.5975,1.4331 L22.3625,1.4001" fill="#FEFEFE" transform="translate(0 -1)"/>
    <g>
      <path d="M0.7873,20.4554 C1.2083,17.8724 2.9513,14.4614 5.0523,11.3644 C7.3423,7.9764 10.0693,4.9274 11.8723,3.6154 L11.9803,3.5364 L12.5283,1.5684 C12.6323,1.1844 12.9833,0.9314 13.3623,0.9314 L13.5973,0.9634 C13.9823,1.0694 14.2333,1.4204 14.2333,1.7994 L14.2023,2.0334 L13.6823,3.9034 L13.7933,4.0544 L14.1033,3.8264 L13.7933,4.0544 C19.2383,11.4554 22.1313,17.5974 22.4283,22.2184 L22.4293,22.2764 C22.4293,22.7294 22.0773,23.1124 21.6183,23.1424 L21.5573,23.1434 C21.1043,23.1434 20.7223,22.7904 20.6933,22.3324 C20.4953,19.3344 18.9103,14.0874 12.7793,5.6174 L12.5403,5.2864 L12.2233,5.5454 C10.5013,6.9624 8.3433,9.3454 6.4953,11.9454 C4.7023,14.4794 3.2043,17.1994 2.7323,19.4784 L0.7873,20.4554" fill="#68C083" transform="translate(9 -.53)"/>
      <path d="M0.7873,20.4554 C1.2083,17.8724 2.9513,14.4614 5.0523,11.3644 C7.3423,7.9764 10.0693,4.9274 11.8723,3.6154 L11.9803,3.5364 L12.5283,1.5684 C12.6323,1.1844 12.9833,0.9314 13.3623,0.9314 L13.5973,0.9634 C13.9823,1.0694 14.2333,1.4204 14.2333,1.7994 L14.2023,2.0334 L13.6823,3.9034 L13.7933,4.0544 L14.1033,3.8264 L13.7933,4.0544 C19.2383,11.4554 22.1313,17.5974 22.4283,22.2184 L22.4293,22.2764 C22.4293,22.7294 22.0773,23.1124 21.6183,23.1424 L21.5573,23.1434 C21.1043,23.1434 20.7223,22.7904 20.6933,22.3324 C20.4953,19.3344 18.9103,14.0874 12.7793,5.6174 L12.5403,5.2864 L12.2233,5.5454 C10.5013,6.9624 8.3433,9.3454 6.4953,11.9454 C4.7023,14.4794 3.2043,17.1994 2.7323,19.4784 L0.7873,20.4554" stroke="#151117" stroke-width=".8" stroke-linecap="round" stroke-linejoin="round" transform="translate(9 -.53)"/>
    </g>
  </g>
</svg>