<svg width="46" height="38" xmlns="http://www.w3.org/2000/svg">
  <g fill="none" fill-rule="evenodd">
    <path d="M44.4822672,12.7313917 C44.4822672,15.1780167 43.6148534,17.7179125 42.064681,20.3025167 C40.7395086,22.3421417 38.9604569,24.4272458 36.6328707,26.5115792 C32.5704569,30.2300792 27.8710603,33.1762042 25.3153707,34.7648917 C24.6318362,35.1271833 23.9033017,35.6266833 23.7194224,35.8062875 C23.3105431,36.1231 22.8520086,36.3057875 22.39425,36.3057875 C21.8953707,36.3057875 21.4376121,36.1231 21.0729569,35.8062875 C20.8890776,35.6266833 20.1155431,35.1271833 19.4289052,34.7648917 C16.921319,33.1762042 12.1722672,30.2300792 8.16028448,26.5115792 C5.83269828,24.4272458 4.05287069,22.3421417 2.72847414,20.3025167 C1.13252586,17.7179125 0.310112069,15.1780167 0.310112069,12.7313917 C0.310112069,3.57157917 6.97321552,0.308641667 12.6300259,0.308641667 C16.3277845,0.308641667 20.1155431,1.893475 22.39425,4.93287083 C24.7218362,1.893475 28.4195948,0.308641667 32.1165776,0.308641667 C33.8956293,0.308641667 37.3195086,0.6701625 40.1459741,2.892475 C41.5169224,3.9331 42.5635603,5.24968333 43.2959741,6.78980833 C44.0726121,8.51339167 44.4822672,10.4636 44.4822672,12.7313917" fill="#F16550" transform="translate(1 1)"/>
    <path d="M44.4822672,12.7313917 C44.4822672,15.1780167 43.6148534,17.7179125 42.064681,20.3025167 C40.7395086,22.3421417 38.9604569,24.4272458 36.6328707,26.5115792 C32.5704569,30.2300792 27.8710603,33.1762042 25.3153707,34.7648917 C24.6318362,35.1271833 23.9033017,35.6266833 23.7194224,35.8062875 C23.3105431,36.1231 22.8520086,36.3057875 22.39425,36.3057875 C21.8953707,36.3057875 21.4376121,36.1231 21.0729569,35.8062875 C20.8890776,35.6266833 20.1155431,35.1271833 19.4289052,34.7648917 C16.921319,33.1762042 12.1722672,30.2300792 8.16028448,26.5115792 C5.83269828,24.4272458 4.05287069,22.3421417 2.72847414,20.3025167 C1.13252586,17.7179125 0.310112069,15.1780167 0.310112069,12.7313917 C0.310112069,3.57157917 6.97321552,0.308641667 12.6300259,0.308641667 C16.3277845,0.308641667 20.1155431,1.893475 22.39425,4.93287083 C24.7218362,1.893475 28.4195948,0.308641667 32.1165776,0.308641667 C33.8956293,0.308641667 37.3195086,0.6701625 40.1459741,2.892475 C41.5169224,3.9331 42.5635603,5.24968333 43.2959741,6.78980833 C44.0726121,8.51339167 44.4822672,10.4636 44.4822672,12.7313917 Z" stroke="#231F20" stroke-width=".8" stroke-linecap="round" transform="translate(1 1)"/>
    <path d="M16.3512155 13.4555125L18.5127672 8.9230125M16.3512155 13.4555125L16.3512155 8.47130417M16.3512155 13.4555125L12.4269052 10.3490542M16.3512155 13.4555125L14.1896638 8.9230125" stroke="#231F20" stroke-width=".994" stroke-linecap="round" transform="translate(1 1)"/>
    <path d="M15.5609224,21.7736521 C15.5609224,23.6537146 14.0262672,25.1784229 12.1339397,25.1784229 C10.2408362,25.1784229 8.70540517,23.6537146 8.70540517,21.7736521 C8.70540517,19.8935896 10.2408362,18.3681104 12.1339397,18.3681104 C14.0262672,18.3688813 15.5609224,19.8935896 15.5609224,21.7736521" fill="#FADCE7" transform="translate(1 1)"/>
    <path d="M16.3504397,13.4551271 L20.27475,10.3502104" stroke="#231F20" stroke-width=".994" stroke-linecap="round" transform="translate(1 1)"/>
    <path d="M20.8919483,18.7963854 C20.8919483,17.9723646 21.5646207,17.3032813 22.3947931,17.3032813 C23.2226379,17.3032813 23.8953103,17.9723646 23.8953103,18.7963854" stroke="#231F20" stroke-width=".8" stroke-linecap="round" transform="translate(1 1)"/>
    <path d="M18.0029483,22.0050562 C18.0029483,22.0050562 18.7508793,24.4062021 22.3943276,24.4062021 C26.037,24.4062021 26.784931,22.0050562 26.784931,22.0050562" stroke="#231F20" stroke-linecap="round" transform="translate(1 1)"/>
    <path d="M16.3512155,16.6833771 C14.5589741,16.6833771 13.102681,15.2349812 13.102681,13.4558979 C13.102681,11.6752729 14.5589741,10.2268771 16.3512155,10.2268771 C18.142681,10.2268771 19.59975,11.6752729 19.59975,13.4558979 C19.59975,15.2349812 18.142681,16.6833771 16.3512155,16.6833771" fill="#FEFEFE" transform="translate(1 1)"/>
    <path d="M16.3512155,9.75867292 C14.2959569,9.75867292 12.6294052,11.4136521 12.6294052,13.4555896 C12.6294052,15.4967562 14.2959569,17.1525062 16.3512155,17.1525062 C18.4056983,17.1525062 20.0730259,15.4967562 20.0730259,13.4555896 C20.0730259,11.4136521 18.4056983,9.75867292 16.3512155,9.75867292" fill="#231F20" transform="translate(1 1)"/>
    <path d="M16.3512155,10.6970083 C17.8819914,10.6970083 19.1280259,11.9349667 19.1280259,13.4558208 C19.1280259,14.976675 17.8819914,16.2138625 16.3512155,16.2138625 C14.8196638,16.2138625 13.5744052,14.976675 13.5744052,13.4558208 C13.5736293,11.9349667 14.8196638,10.6970083 16.3512155,10.6970083" fill="#FEFEFE" transform="translate(1 1)"/>
    <path d="M18.3620948,13.4908938 C18.3620948,14.5931854 17.4620948,15.4873521 16.3502845,15.4873521 C15.2415776,15.4873521 14.3408017,14.5931854 14.3408017,13.4908938 C14.3408017,12.3870604 15.2415776,11.4928938 16.3502845,11.4928938 C17.4620948,11.4944354 18.3620948,12.3886021 18.3620948,13.4908938" fill="#231F20" transform="translate(1 1)"/>
    <path d="M17.0512759,12.0975354 C17.0512759,11.7182854 17.3608448,11.4099521 17.7433448,11.4099521 C18.125069,11.4099521 18.4338621,11.7182854 18.4338621,12.0975354 C18.4338621,12.4767854 18.125069,12.7851187 17.7433448,12.7851187 C17.3608448,12.7851187 17.0512759,12.4767854 17.0512759,12.0975354" fill="#FEFEFE" transform="translate(1 1)"/>
    <path d="M28.4368966 13.4555125L30.5984483 8.9230125M28.4368966 13.4555125L28.4368966 8.47130417M28.4368966 13.4555125L24.5125862 10.3490542M28.4368966 13.4555125L26.274569 8.9230125" stroke="#231F20" stroke-width=".994" stroke-linecap="round" transform="translate(1 1)"/>
    <path d="M29.2271897,21.7736521 C29.2271897,23.6537146 30.7618448,25.1784229 32.6541724,25.1784229 C34.5472759,25.1784229 36.081931,23.6537146 36.081931,21.7736521 C36.081931,19.8935896 34.5472759,18.3681104 32.6541724,18.3681104 C30.7618448,18.3688813 29.2271897,19.8935896 29.2271897,21.7736521" fill="#FADCE7" transform="translate(1 1)"/>
    <path d="M28.4368966,13.4555125 L32.3612069,10.3490542" stroke="#231F20" stroke-width=".994" stroke-linecap="round" transform="translate(1 1)"/>
    <path d="M28.4368966,16.6833771 C26.6446552,16.6833771 25.1883621,15.2349812 25.1883621,13.4558979 C25.1883621,11.6752729 26.6446552,10.2268771 28.4368966,10.2268771 C30.2275862,10.2268771 31.685431,11.6752729 31.685431,13.4558979 C31.685431,15.2349812 30.2275862,16.6833771 28.4368966,16.6833771" fill="#FEFEFE" transform="translate(1 1)"/>
    <path d="M28.4368966,9.75867292 C26.3816379,9.75867292 24.7150862,11.4136521 24.7150862,13.4555896 C24.7150862,15.4967562 26.3816379,17.1525062 28.4368966,17.1525062 C30.4913793,17.1525062 32.157931,15.4967562 32.157931,13.4555896 C32.157931,11.4136521 30.4913793,9.75867292 28.4368966,9.75867292" fill="#231F20" transform="translate(1 1)"/>
    <path d="M28.4368966,10.6970083 C29.9676724,10.6970083 31.2137069,11.9349667 31.2137069,13.4558208 C31.2137069,14.976675 29.9676724,16.2138625 28.4368966,16.2138625 C26.9053448,16.2138625 25.6593103,14.976675 25.6593103,13.4558208 C25.6593103,11.9349667 26.9053448,10.6970083 28.4368966,10.6970083" fill="#FEFEFE" transform="translate(1 1)"/>
    <path d="M30.447,13.4908938 C30.447,14.5931854 29.547,15.4873521 28.4359655,15.4873521 C27.3272586,15.4873521 26.4264828,14.5931854 26.4264828,13.4908938 C26.4264828,12.3870604 27.3272586,11.4928938 28.4359655,11.4928938 C29.547,11.4944354 30.447,12.3886021 30.447,13.4908938" fill="#231F20" transform="translate(1 1)"/>
    <path d="M29.1370345,12.0975354 C29.1370345,11.7182854 29.4466034,11.4099521 29.8291034,11.4099521 C30.2108276,11.4099521 30.5203966,11.7182854 30.5203966,12.0975354 C30.5203966,12.4767854 30.2108276,12.7851187 29.8291034,12.7851187 C29.4466034,12.7851187 29.1370345,12.4767854 29.1370345,12.0975354" fill="#FEFEFE" transform="translate(1 1)"/>
  </g>
</svg>