<svg id="e58b2244-28cd-439a-9b4e-4d9dd7ad561f" data-name="Capa 1" xmlns="http://www.w3.org/2000/svg" width="57.86mm" height="67.95mm" viewBox="0 0 164 192.6"><polygon points="119.5 192.6 44.5 192.6 24.5 117.61 139.5 117.61 119.5 192.6" fill="#e686b7"/><path d="M306.61,300.2c1.86,4.12,3.84,8.18,5.53,12.37,1.18,2.91,0,5.38-2.45,7.11a6,6,0,0,1-7.32,0c-2.47-1.7-3.68-4.19-2.54-7.08,1.66-4.21,3.68-8.28,5.54-12.41Z" transform="translate(-224 -300.2)" fill="#edd29c"/><path d="M367,396.8h0a61.19,61.19,0,0,0-122,0h0A21,21,0,1,0,265.33,423,21,21,0,0,0,306,423a21,21,0,0,0,40.67,0A21,21,0,1,0,367,396.8Z" transform="translate(-224 -300.2)" fill="#f1e3f0"/><path d="M306,358.3a1.5,1.5,0,0,1-1.5-1.5v-30a1.5,1.5,0,1,1,3,0v30A1.5,1.5,0,0,1,306,358.3Z" transform="translate(-224 -300.2)" fill="#010101"/></svg>