<?xml version="1.0" encoding="UTF-8" standalone="no"?><!DOCTYPE svg PUBLIC "-//W3C//DTD SVG 1.1//EN" "http://www.w3.org/Graphics/SVG/1.1/DTD/svg11.dtd"><svg width="100%" height="100%" viewBox="0 0 800 800" version="1.1" xmlns="http://www.w3.org/2000/svg" xmlns:xlink="http://www.w3.org/1999/xlink" xml:space="preserve" xmlns:serif="http://www.serif.com/" style="fill-rule:evenodd;clip-rule:evenodd;stroke-linejoin:round;stroke-miterlimit:2;"><g id="Layer-1" serif:id="Layer 1"><path d="M90.015,40.779l652.164,105.002c0,0 5.738,0.687 6.019,8.093c0.411,11.305 22.303,502.533 22.303,502.533c0.12,5.387 -5.706,10.598 -7.374,11.72c0,0 0.939,1.635 0.97,4.137c0.159,12.296 -1.836,62.645 -1.71,68.505c0.286,13.293 -7.302,27.85 -23.872,27.85l-677.527,0c-9.394,0 -31.232,-5.435 -31.232,-38.866c0.701,-14.773 5.81,-654.896 5.81,-654.896l0,-11.772c0,-6.966 6.811,-10.215 24.81,-17.998c8.267,-3.576 17.015,-6.755 22.489,-7.285c5.141,-0.499 4.308,0.778 7.15,2.977" style="fill-rule:nonzero;"/><path d="M94.88,599.05l665.456,16.596l1.875,39.558l-72.644,3.75c0,0 -2.979,0.105 -4.443,1.829c-1.464,1.726 -1.211,4.176 -1.211,4.176l-0.151,61.057l-588.882,-4.216l0,-122.75Z" style="fill:#ed1c24;fill-rule:nonzero;"/><path d="M694.078,721.104l-0.142,-51.659l56.452,-3.237l-56.31,54.896Z" style="fill:#fff;fill-rule:nonzero;"/><path d="M95.537,46.609l-0.657,552.44l665.456,16.596l-21.46,-461.655l-643.339,-107.381Z" style="fill:#fff;fill-rule:nonzero;"/><path d="M538.495,166.625c-4.973,6.968 -14.439,6.857 -22.256,2.895c-9.069,-4.599 -12.699,-14.527 -9.296,-21.362c3.404,-6.834 13.54,-8.701 22.643,-4.168c9.102,4.532 13.345,16.42 8.909,22.635" style="fill-rule:nonzero;"/><path d="M316.474,112.065c5.274,8.306 4.573,17.522 -2.701,22.14c-7.275,4.619 -19.872,1.738 -25.146,-6.569c-5.274,-8.307 -4.153,-18.283 3.121,-22.902c7.275,-4.619 19.452,-0.976 24.726,7.331" style="fill-rule:nonzero;"/><path d="M255.684,504.818l17.04,0.687l0,3.46l-13.085,-0.52l0,8.508l12.706,0.487l0,3.461l-12.706,-0.48l0,11.492l13.085,0.47l0,3.46l-17.04,-0.603l0,-30.422Z" style="fill:#231f20;fill-rule:nonzero;"/><path d="M282.61,532.739l9.635,0.347l0,3.448l-13.59,-0.481l0,-30.309l3.955,0.16l0,26.835Z" style="fill:#231f20;fill-rule:nonzero;"/><path d="M313.028,510.569l0,8.474l11.023,0.423l0,3.432l-11.023,-0.417l0,14.79l-3.955,-0.14l0,-30.16l15.357,0.62l0,3.431l-11.402,-0.453Z" style="fill:#231f20;fill-rule:nonzero;"/><path d="M333.939,538.011l-3.956,-0.14l0,-30.055l3.956,0.16l0,30.035Z" style="fill:#231f20;fill-rule:nonzero;"/><path d="M340.544,506.809l23.814,24.47l0,-22.076l3.955,0.158l0,31.094l-23.814,-24.419l0,22.348l-3.955,-0.14l0,-31.435Z" style="fill:#231f20;fill-rule:nonzero;"/><path d="M391.831,536.667l1.388,0.05c8.079,0.29 15.063,-2.291 15.063,-10.907c0,-8.658 -6.984,-11.73 -15.063,-12.05l-1.388,-0.055l0,22.962Zm-3.955,-26.516l6.563,0.265c9.72,0.392 17.798,5.516 17.798,15.386c0,10.105 -7.91,14.701 -17.924,14.346l-6.437,-0.227l0,-29.77Z" style="fill:#231f20;fill-rule:nonzero;"/><path d="M417.243,511.337l17.04,0.687l0,3.37l-13.086,-0.521l0,8.283l12.707,0.489l0,3.37l-12.707,-0.481l0,11.19l13.086,0.47l0,3.369l-17.04,-0.603l0,-29.623Z" style="fill:#231f20;fill-rule:nonzero;"/><path d="M467.519,518.936c-1.178,-1.878 -2.691,-2.874 -5.091,-2.97c-2.523,-0.1 -5.301,1.389 -5.301,3.965c0,2.302 2.441,3.608 4.417,4.385l2.273,0.906c4.503,1.809 7.868,4.234 7.868,9.139c0,5.334 -4.46,8.991 -10.141,8.791c-5.131,-0.182 -9.129,-3.837 -9.802,-8.589l3.998,-0.634c-0.043,3.238 2.734,5.681 6.142,5.803c3.409,0.122 5.849,-2.44 5.849,-5.517c0,-3.155 -2.736,-4.623 -5.471,-5.777l-2.187,-0.94c-3.618,-1.583 -6.9,-3.622 -6.9,-7.721c0,-4.766 4.543,-7.433 9.339,-7.238c3.534,0.143 6.44,1.856 8.163,4.768l-3.156,1.629Z" style="fill:#231f20;fill-rule:nonzero;"/><path d="M477.07,513.75l17.04,0.687l0,3.336l-13.086,-0.52l0,8.2l12.707,0.488l0,3.336l-12.707,-0.48l0,11.079l13.086,0.47l0,3.336l-17.04,-0.604l0,-29.328Z" style="fill:#231f20;fill-rule:nonzero;"/><path d="M505.427,524.805l-0.084,-0.004l-3.701,19.147l-4.082,-0.144l6.479,-30.204l10.898,23.398l10.897,-22.514l6.479,30.55l-4.081,-0.145l-3.703,-19.346l-0.083,-0.004l-9.509,19.498l-9.51,-20.232Z" style="fill:#231f20;fill-rule:nonzero;"/><path d="M548.68,523.326l-5.639,11.51l11.276,0.42l-5.637,-11.93Zm-7.279,14.758l-3.619,7.143l-4.249,-0.15l15.147,-29.668l15.146,30.74l-4.25,-0.15l-3.618,-7.383l-14.557,-0.532Z" style="fill:#231f20;fill-rule:nonzero;"/><path d="M567.148,516.006l23.814,23.589l0,-21.249l3.955,0.159l0,29.927l-23.814,-23.538l0,21.512l-3.955,-0.138l0,-30.262Z" style="fill:#231f20;fill-rule:nonzero;"/><path d="M613.387,525.863l-5.638,11.381l11.276,0.419l-5.638,-11.8Zm-7.279,14.592l-3.618,7.062l-4.249,-0.15l15.146,-29.333l15.146,30.406l-4.249,-0.151l-3.618,-7.301l-14.558,-0.533Z" style="fill:#231f20;fill-rule:nonzero;"/><path d="M218.302,555.653l-0.083,-0.002l-3.704,20.109l-4.08,-0.117l6.479,-31.727l10.897,24.443l10.897,-23.708l6.48,31.987l-4.081,-0.117l-3.703,-20.259l-0.084,-0.003l-9.509,20.531l-9.509,-21.137Z" style="fill:#231f20;fill-rule:nonzero;"/><path d="M267.612,538.983l-6.9,5.767l-1.851,-1.151l5.258,-6.51l3.493,1.894Zm-6.059,14.744l-5.638,12.123l11.276,0.343l-5.638,-12.466Zm-7.279,15.544l-3.618,7.524l-4.25,-0.122l15.147,-31.251l15.146,32.119l-4.248,-0.121l-3.619,-7.714l-14.558,-0.435Z" style="fill:#231f20;fill-rule:nonzero;"/><path d="M294.497,553.554c-1.178,-1.924 -2.693,-2.937 -5.091,-3.017c-2.524,-0.083 -5.301,1.472 -5.301,4.122c0,2.371 2.44,3.694 4.417,4.478l2.272,0.914c4.503,1.826 7.869,4.296 7.869,9.344c0,5.489 -4.461,9.288 -10.141,9.126c-5.133,-0.146 -9.129,-3.876 -9.803,-8.761l3.997,-0.684c-0.042,3.333 2.735,5.825 6.143,5.923c3.408,0.1 5.848,-2.555 5.848,-5.722c0,-3.247 -2.734,-4.736 -5.469,-5.904l-2.188,-0.95c-3.618,-1.599 -6.9,-3.671 -6.9,-7.89c0,-4.905 4.544,-7.685 9.34,-7.523c3.534,0.119 6.437,1.86 8.163,4.844l-3.156,1.7Z" style="fill:#231f20;fill-rule:nonzero;"/><path d="M320.875,575.452l3.03,0.089c3.66,0.106 7.489,-0.818 7.489,-5.082c0,-4.226 -4.544,-5.242 -8.079,-5.351l-2.44,-0.075l0,10.419Zm0,-13.414l1.01,0.032c3.744,0.118 6.816,-0.504 6.816,-4.809c0,-4.227 -3.029,-5.044 -6.732,-5.167l-1.094,-0.036l0,9.98Zm-3.955,-13.466l3.871,0.13c5.975,0.2 11.613,1.863 11.613,8.639c0,2.19 -1.262,4.701 -3.408,5.59l0,0.081c3.744,0.753 6.353,4.3 6.353,7.804c0,6.013 -5.428,8.248 -11.023,8.088l-7.406,-0.213l0,-30.119Z" style="fill:#231f20;fill-rule:nonzero;"/><path d="M352.598,556.68l-5.638,11.939l11.276,0.343l-5.638,-12.282Zm-7.279,15.31l-3.618,7.412l-4.249,-0.122l15.146,-30.782l15.146,31.649l-4.249,-0.121l-3.618,-7.601l-14.558,-0.435Z" style="fill:#231f20;fill-rule:nonzero;"/><path d="M375.401,564.659l1.262,0.04c4.039,0.125 8.415,-0.448 8.415,-5.188c0,-4.662 -4.712,-5.488 -8.625,-5.618l-1.052,-0.034l0,10.8Zm15.778,16.159l-4.797,-0.138l-9.34,-12.884l-1.641,-0.05l0,12.62l-3.955,-0.113l0,-29.851l4.797,0.161c2.818,0.094 5.848,0.237 8.372,1.664c2.651,1.549 4.165,4.402 4.165,7.245c0,4.263 -3.029,7.722 -7.615,8.094l10.014,13.252Z" style="fill:#231f20;fill-rule:nonzero;"/><path d="M407.125,558.448l-5.639,11.832l11.277,0.343l-5.638,-12.175Zm-7.279,15.17l-3.618,7.344l-4.249,-0.122l15.146,-30.499l15.146,31.366l-4.249,-0.122l-3.618,-7.533l-14.558,-0.434Z" style="fill:#231f20;fill-rule:nonzero;"/><path d="M431.148,581.962l-3.954,-0.113l0,-26.201l-7.531,-0.249l0,-3.377l19.016,0.637l0,3.367l-7.531,-0.248l0,26.184Z" style="fill:#231f20;fill-rule:nonzero;"/><path d="M469.898,568.389c0,-6.465 -5.218,-12.051 -12.665,-12.297c-7.446,-0.247 -12.663,5.018 -12.663,11.509c0,6.726 5.806,12.098 12.663,12.297c6.858,0.199 12.665,-4.811 12.665,-11.509m3.955,0.122c0,8.718 -7.447,15.083 -16.62,14.821c-9.172,-0.261 -16.619,-7.088 -16.619,-15.854c0,-8.453 7.531,-15.126 16.619,-14.82c9.089,0.304 16.62,7.447 16.62,15.853" style="fill:#231f20;fill-rule:nonzero;"/><path d="M495.561,580.471l1.389,0.041c8.078,0.235 15.062,-2.346 15.062,-10.812c0,-8.507 -6.984,-11.484 -15.062,-11.75l-1.389,-0.046l0,22.567Zm-3.954,-26.035l6.562,0.222c9.72,0.325 17.798,5.31 17.798,15.009c0,9.932 -7.91,14.495 -17.924,14.209l-6.436,-0.184l0,-29.256Z" style="fill:#231f20;fill-rule:nonzero;"/><path d="M520.974,555.422l17.04,0.572l0,3.311l-13.084,-0.432l0,8.141l12.705,0.401l0,3.311l-12.705,-0.394l0,10.996l13.084,0.382l0,3.31l-17.04,-0.488l0,-29.11Z" style="fill:#231f20;fill-rule:nonzero;"/><path d="M547.901,581.998l9.634,0.281l0,3.3l-13.59,-0.39l0,-28.996l3.956,0.132l0,25.673Z" style="fill:#231f20;fill-rule:nonzero;"/><path d="M586.187,564.254l-5.639,11.475l11.276,0.341l-5.637,-11.816Zm-7.279,14.712l-3.619,7.121l-4.249,-0.121l15.148,-29.577l15.145,30.444l-4.25,-0.122l-3.617,-7.311l-14.558,-0.434Z" style="fill:#231f20;fill-rule:nonzero;"/><path d="M610.505,553.864l0.127,-0.185c1.135,-1.444 2.313,-2.809 4.543,-2.73c1.431,0.049 2.65,0.547 3.744,1.116c1.094,0.57 2.105,1.099 3.029,1.13c1.222,0.043 2.105,-0.876 2.694,-1.727l1.977,1.547c-0.968,1.749 -2.65,3.019 -4.965,2.94c-1.177,-0.04 -2.356,-0.573 -3.491,-1.106c-1.095,-0.494 -2.188,-1.024 -3.282,-1.063c-1.053,-0.036 -1.978,0.883 -2.399,1.667l-1.977,-1.589Zm-5.849,2.997l23.815,23.281l0,-21.111l3.954,0.132l0,29.733l-23.814,-23.229l0,21.374l-3.955,-0.114l0,-30.066Z" style="fill:#231f20;fill-rule:nonzero;"/><path d="M666.168,574.492c0,-6.251 -5.217,-11.658 -12.664,-11.904c-7.447,-0.246 -12.665,4.838 -12.665,11.116c0,6.506 5.807,11.704 12.665,11.905c6.858,0.199 12.664,-4.64 12.664,-11.117m3.955,0.122c0,8.43 -7.446,14.577 -16.619,14.316c-9.173,-0.262 -16.619,-6.871 -16.619,-15.349c0,-8.175 7.531,-14.62 16.619,-14.314c9.088,0.305 16.619,7.219 16.619,15.347" style="fill:#231f20;fill-rule:nonzero;"/><path d="M200.741,308.797l108.386,11.065l0,34.187l-67.148,-6.934l0.73,31.385l62.769,5.109l0.812,31.777l-63.499,-4.014l0.472,61.758l-40.921,-0.477l-1.601,-163.856Z" style="fill-rule:nonzero;"/><path d="M320.566,320.718l41.023,4.075l3.531,153.323l-41.566,-1.731l-2.988,-155.667Z" style="fill-rule:nonzero;"/><path d="M381.964,326.695l45.913,4.347l67.646,99.974l-3.261,-93.726l37.219,4.075l5.705,143.714l-47.543,-1.359l-66.184,-98.669l2.68,95.524l-38.371,-1.201l-3.804,-152.679Z" style="fill-rule:nonzero;"/><path d="M590.53,391.091c-1.4,8.572 -9.749,14.31 -20.126,12.615c-10.376,-1.694 -18.061,-11.006 -16.661,-19.578c1.4,-8.572 9.926,-12.927 20.303,-11.233c10.375,1.695 17.883,9.624 16.484,18.196" style="fill:#ed1c24;fill-rule:nonzero;"/><path d="M593.678,455.028c-1.402,8.589 -9.754,14.341 -20.13,12.646c-10.376,-1.694 -18.058,-11.022 -16.656,-19.611c1.402,-8.589 9.931,-12.955 20.306,-11.261c10.376,1.695 17.882,9.636 16.48,18.226" style="fill:#ed1c24;fill-rule:nonzero;"/><path d="M258.16,275.943c-2.266,2.441 -7.34,3.691 -11.666,3.144c-5.46,-0.69 -15.834,-2.001 -15.834,-2.001l0.035,-26.553l15.762,1.472c5.949,0.763 8.889,2.871 11.094,5.223c6.137,6.543 2.875,16.277 0.609,18.715m-28.412,-74.475l12.975,1.635c9.587,1.67 12.396,7.6 12.333,11.421c-0.068,4.119 0.055,6.461 -1.776,9.208c-1.612,2.417 -4.129,4.315 -8.969,4.04c-4.235,-0.242 -14.244,-1.429 -14.244,-1.429l-0.319,-24.875Zm60.806,52.035c-2.545,-4.228 -11.008,-10.349 -17.173,-12.139c-1.841,-0.535 -2.576,-0.613 -3.36,-1.487c4.009,-0.518 12.544,-4.482 15.107,-8.138c3.845,-5.489 4.86,-9.462 4.86,-17.225c0,-20.983 -15.405,-30.543 -29.477,-33.104c-13.617,-2.477 -62.111,-9.26 -62.111,-9.26l0.405,127.619c0,0 40.053,4.998 60.357,4.998c27.642,0 36.217,-17.646 36.217,-30.355c0,-8.359 -1.468,-15.328 -4.825,-20.909" style="fill-rule:nonzero;"/><path d="M382.029,198.759l31.398,4.339l2.373,62.285c0,7.546 0.503,15.084 -0.651,22c-1.164,6.973 -4.208,14.153 -9.006,19.176c-4.801,5.019 -11.862,12.404 -39.956,12.404c-17.536,0 -36.236,-6.084 -47.33,-15.747c-13.406,-11.677 -14.724,-32.771 -14.724,-39.04l-0.718,-76.895l30.394,4.56l2.226,76.481c0,17.268 15.121,23.978 25.321,23.978c8.385,0 14.474,-0.969 18.163,-4.83c3.689,-3.858 4.556,-8.259 4.556,-15.335l-2.046,-73.376Z" style="fill-rule:nonzero;"/><path d="M429.537,205.475l85.94,12.626l0.788,24.245l-54.389,-7.212l0.12,20.666l51.841,6.519l0.569,23.561l-51.041,-6.078l0.18,21.857l56.136,5.697l0.502,24.856l-86.753,-8.76l-3.893,-117.977Z" style="fill-rule:nonzero;"/><path d="M528.848,220.27l35.527,5.02l53.215,77.738l-2.958,-70.273l28.921,4.397l5.406,107.783l-36.605,-3.541l-52.822,-76.743l2.501,71.752l-28.648,-2.905l-4.537,-113.228Z" style="fill-rule:nonzero;"/><path d="M607.338,360.325c0,0 8.062,-1.976 14.541,6.086c6.48,8.06 25.559,30.933 25.559,65.016c0,22.815 -16.763,50.463 -25.231,53.413c0,0 -12.884,1.88 -9.916,-2.559c1.812,-2.71 6.332,-11.632 7.764,-15.935c2.421,-7.272 7.075,-12.507 7.075,-45.257c0,-14.511 -9.083,-39.587 -18.815,-54.42c0,0 -4.257,-5.138 -0.977,-6.344" style="fill:#ed1c24;fill-rule:nonzero;"/><path d="M139.632,642.555l7.592,0.146l-0.746,38.645l-3.836,-0.074l0.674,-34.862l-6.069,-0.117l2.385,-3.738Z" style="fill:#fff;fill-rule:nonzero;"/><path d="M184.602,643.424l-0.071,3.678l-13.732,-0.266l-2.137,10.501c1.688,-0.46 3.207,-0.678 4.554,-0.651c3.516,0.068 6.394,1.301 8.632,3.701c2.237,2.4 3.32,5.438 3.249,9.117c-0.049,2.539 -0.681,4.857 -1.895,6.953c-1.214,2.097 -2.835,3.691 -4.862,4.781c-2.028,1.092 -4.355,1.612 -6.982,1.561c-3.135,-0.061 -5.761,-1.07 -7.878,-3.03c-2.117,-1.959 -3.357,-4.467 -3.718,-7.522l3.967,0.076c0.269,1.495 0.749,2.713 1.44,3.655c0.692,0.942 1.623,1.709 2.794,2.3c1.172,0.593 2.405,0.902 3.701,0.926c2.54,0.05 4.739,-0.871 6.598,-2.759c1.858,-1.888 2.815,-4.276 2.871,-7.162c0.051,-2.606 -0.732,-4.738 -2.347,-6.396c-1.615,-1.658 -3.797,-2.514 -6.547,-2.567c-2.277,-0.044 -5.048,0.594 -8.315,1.916l3.944,-19.135l16.734,0.323Z" style="fill:#fff;fill-rule:nonzero;"/><path d="M202.28,669.494l-14.448,-0.279l0.061,-3.205l14.449,0.279l-0.062,3.205Z" style="fill:#fff;"/><path d="M213.096,643.974l7.593,0.145l-0.747,38.645l-3.835,-0.072l0.673,-34.864l-6.069,-0.116l2.385,-3.738Z" style="fill:#fff;fill-rule:nonzero;"/><path d="M246.468,647.404c-2.123,-0.041 -3.895,0.551 -5.313,1.776c-1.419,1.226 -2.145,2.705 -2.179,4.439c-0.033,1.717 0.686,3.285 2.16,4.707c1.473,1.421 3.21,2.151 5.21,2.189c1.281,0.026 2.497,-0.266 3.65,-0.875c1.153,-0.608 2.06,-1.454 2.722,-2.536c0.661,-1.082 1.002,-2.176 1.024,-3.278c0.03,-1.56 -0.574,-3.008 -1.812,-4.346c-1.238,-1.338 -3.059,-2.03 -5.462,-2.076m-0.138,16.606c-2.658,-0.05 -4.904,0.769 -6.739,2.459c-1.834,1.691 -2.774,3.683 -2.818,5.977c-0.028,1.419 0.331,2.766 1.076,4.042c0.745,1.275 1.802,2.269 3.171,2.979c1.368,0.709 2.962,1.082 4.781,1.117c2.815,0.054 5.069,-0.735 6.763,-2.367c1.694,-1.631 2.562,-3.559 2.606,-5.784c0.041,-2.154 -0.801,-4.084 -2.526,-5.791c-1.726,-1.706 -3.83,-2.584 -6.314,-2.632m5.621,-1.835c2.584,1.346 4.426,2.862 5.523,4.547c1.098,1.686 1.626,3.588 1.585,5.707c-0.057,2.978 -1.08,5.586 -3.069,7.826c-2.435,2.739 -5.868,4.065 -10.299,3.979c-4.274,-0.082 -7.49,-1.366 -9.65,-3.852c-2.159,-2.486 -3.211,-5.2 -3.154,-8.142c0.041,-2.154 0.657,-4.083 1.846,-5.786c1.19,-1.702 3.146,-3.202 5.869,-4.498c-1.873,-1.018 -3.268,-2.263 -4.185,-3.735c-0.918,-1.471 -1.361,-3.04 -1.329,-4.704c0.033,-1.68 0.568,-3.313 1.606,-4.896c1.038,-1.583 2.455,-2.818 4.25,-3.702c1.795,-0.885 3.727,-1.308 5.794,-1.268c2.014,0.039 3.87,0.539 5.568,1.5c1.699,0.962 3.018,2.249 3.96,3.861c0.941,1.613 1.395,3.294 1.361,5.046c-0.034,1.751 -0.524,3.301 -1.47,4.65c-0.946,1.348 -2.348,2.504 -4.206,3.467" style="fill:#fff;fill-rule:nonzero;"/><path d="M281.366,680.299l4.466,0.086c5.342,0.103 9.052,-0.158 11.132,-0.782c2.925,-0.889 5.244,-2.547 6.955,-4.974c1.711,-2.426 2.601,-5.416 2.67,-8.968c0.072,-3.727 -0.768,-6.929 -2.521,-9.607c-1.753,-2.677 -4.232,-4.536 -7.435,-5.579c-2.403,-0.781 -6.38,-1.226 -11.932,-1.333l-2.732,-0.053l-0.603,31.21Zm-3.775,3.58l0.746,-38.644l8.013,0.154c5.78,0.111 9.965,0.657 12.557,1.636c3.723,1.385 6.608,3.718 8.656,7c2.048,3.281 3.028,7.163 2.942,11.646c-0.075,3.871 -0.977,7.261 -2.707,10.171c-1.729,2.91 -3.943,5.04 -6.64,6.39c-2.699,1.349 -6.456,1.977 -11.272,1.884l-12.295,-0.237Z" style="fill:#fff;fill-rule:nonzero;"/><path d="M317.056,645.982l22.146,0.428l-0.073,3.782l-18.284,-0.353l-0.234,12.111l18.127,0.35l-0.073,3.784l-18.127,-0.351l-0.294,15.185l18.127,0.35l-0.072,3.783l-21.99,-0.424l0.747,-38.645Z" style="fill:#fff;fill-rule:nonzero;"/><path d="M357.361,685.42l0.747,-38.645l0.84,0.016l25.147,30.12l0.573,-29.623l3.809,0.073l-0.747,38.645l-0.867,-0.017l-24.943,-29.755l-0.566,29.263l-3.993,-0.077Z" style="fill:#fff;fill-rule:nonzero;"/><path d="M415.057,650.661c-2.859,-0.056 -5.585,0.638 -8.175,2.078c-2.59,1.44 -4.629,3.408 -6.115,5.904c-1.488,2.497 -2.261,5.296 -2.321,8.398c-0.089,4.594 1.428,8.501 4.551,11.727c3.122,3.225 6.929,4.881 11.421,4.968c2.999,0.058 5.789,-0.615 8.37,-2.022c2.581,-1.405 4.61,-3.356 6.087,-5.853c1.48,-2.496 2.249,-5.287 2.309,-8.372c0.059,-3.066 -0.603,-5.854 -1.985,-8.362c-1.381,-2.508 -3.357,-4.531 -5.923,-6.071c-2.568,-1.541 -5.307,-2.339 -8.219,-2.395m-0.099,-3.761c5.854,0.114 10.714,2.161 14.582,6.143c3.868,3.981 5.746,8.827 5.636,14.537c-0.108,5.657 -2.17,10.418 -6.18,14.282c-4.01,3.865 -8.845,5.742 -14.506,5.633c-5.732,-0.11 -10.531,-2.165 -14.398,-6.165c-3.867,-3.999 -5.747,-8.783 -5.639,-14.353c0.071,-3.712 1.036,-7.137 2.894,-10.272c1.857,-3.136 4.355,-5.571 7.49,-7.306c3.137,-1.735 6.511,-2.568 10.121,-2.499" style="fill:#fff;fill-rule:nonzero;"/><path d="M439.012,648.338l4.203,0.081l12.231,30.104l13.593,-29.605l4.204,0.081l-17.56,38.319l-0.841,-0.015l-15.83,-38.965Z" style="fill:#fff;fill-rule:nonzero;"/><path d="M480.95,687.807l-3.856,-0.074l0.741,-38.645l3.856,0.074l-0.741,38.645Z" style="fill:#fff;"/><path d="M489.231,649.307l22.146,0.428l-0.072,3.783l-18.285,-0.354l-0.233,12.112l18.127,0.35l-0.074,3.783l-18.127,-0.35l-0.294,15.185l18.127,0.349l-0.072,3.783l-21.989,-0.424l0.746,-38.645Z" style="fill:#fff;fill-rule:nonzero;"/><path d="M514.199,688.449l6.279,-38.538l0.628,0.013l15.098,32.011l16.171,-31.408l0.62,0.012l4.813,38.753l-3.787,-0.073l-3.284,-27.711l-14.198,27.373l-0.986,-0.02l-13.29,-28.114l-4.334,27.774l-3.73,-0.072Z" style="fill:#fff;fill-rule:nonzero;"/><path d="M568.304,670.888l-0.286,14.816l4.79,0.093c2.824,0.055 4.899,-0.181 6.225,-0.708c1.327,-0.526 2.401,-1.368 3.221,-2.526c0.821,-1.158 1.245,-2.42 1.272,-3.786c0.033,-1.716 -0.5,-3.225 -1.597,-4.525c-1.098,-1.301 -2.623,-2.206 -4.577,-2.717c-1.312,-0.34 -3.599,-0.542 -6.863,-0.605l-2.185,-0.042Zm0.313,-16.262l-0.238,12.373l2.211,0.043c2.685,0.052 4.664,-0.159 5.939,-0.634c1.272,-0.475 2.288,-1.244 3.046,-2.306c0.758,-1.064 1.15,-2.251 1.175,-3.565c0.034,-1.769 -0.558,-3.169 -1.775,-4.2c-1.218,-1.031 -3.179,-1.572 -5.881,-1.625l-4.477,-0.086Zm-3.709,-3.856l7.619,0.147c3.064,0.059 5.413,0.468 7.046,1.227c1.631,0.759 2.911,1.9 3.835,3.425c0.926,1.524 1.372,3.206 1.335,5.046c-0.033,1.715 -0.481,3.27 -1.344,4.665c-0.865,1.393 -2.116,2.512 -3.753,3.356c1.995,0.723 3.524,1.554 4.589,2.494c1.065,0.941 1.886,2.069 2.464,3.385c0.577,1.316 0.851,2.736 0.821,4.261c-0.06,3.099 -1.244,5.7 -3.554,7.801c-2.309,2.102 -5.373,3.117 -9.191,3.042l-10.614,-0.205l0.747,-38.644Z" style="fill:#fff;fill-rule:nonzero;"/><path d="M598.351,655.2l-0.253,13.136l6.656,0.18c2.578,0.05 4.491,-0.158 5.737,-0.625c1.247,-0.465 2.227,-1.231 2.939,-2.295c0.715,-1.064 1.084,-2.261 1.11,-3.592c0.025,-1.296 -0.303,-2.481 -0.985,-3.554c-0.681,-1.073 -1.587,-1.849 -2.719,-2.326c-1.131,-0.477 -3.02,-0.741 -5.67,-0.792l-6.815,-0.132Zm-3.788,-3.857l7.697,0.148c4.291,0.083 7.195,0.314 8.712,0.695c2.284,0.571 4.127,1.732 5.53,3.488c1.403,1.755 2.08,3.895 2.032,6.421c-0.041,2.104 -0.572,3.945 -1.592,5.52c-1.021,1.577 -2.458,2.756 -4.313,3.535c-1.855,0.781 -4.402,1.148 -7.642,1.103l13.55,18.212l-4.778,-0.093l-13.551,-18.211l-2.183,-0.043l-0.347,17.943l-3.862,-0.074l0.747,-38.644Z" style="fill:#fff;fill-rule:nonzero;"/><path d="M625.687,651.943l22.146,0.428l-0.073,3.783l-18.284,-0.353l-0.234,12.111l18.127,0.35l-0.072,3.783l-18.128,-0.35l-0.293,15.185l18.126,0.35l-0.072,3.782l-21.988,-0.424l0.746,-38.645Z" style="fill:#fff;fill-rule:nonzero;"/></g></svg>