<svg id="a4195457-d171-4874-8edf-ffba3922b47c" data-name="Capa 1" xmlns="http://www.w3.org/2000/svg" width="67.41mm" height="66.03mm" viewBox="0 0 191.08 187.16"><path d="M351,351.09a18,18,0,0,1,10.11-23.36l.44-.15-9.77-24.66-141.32,56,9.76,24.66A18,18,0,0,1,233.46,417l9.77,24.66,141.32-56L374.79,361l-.42.19A18,18,0,0,1,351,351.09Z" transform="translate(-210.46 -302.92)" fill="#bedfe1"/><polygon points="80.79 53.55 90.04 61.92 102.19 59.04 97.08 70.43 103.57 81.09 91.17 79.76 83.03 89.23 80.47 77.01 68.95 72.2 79.77 65.99 80.79 53.55" fill="#3c8552"/><path d="M380.94,444.74a18,18,0,0,1,18.85-17.11l.46.05,1.29-26.49-151.82-7.4-1.29,26.49a18,18,0,0,1-1.75,35.91l-1.29,26.49,151.82,7.4,1.29-26.49c-.16,0-.31,0-.46,0A18,18,0,0,1,380.94,444.74Z" transform="translate(-210.46 -302.92)" fill="#f1e3f0"/><polygon points="113.83 122.04 118.8 133.49 131.05 135.88 121.7 144.14 123.21 156.53 112.46 150.19 101.14 155.46 103.85 143.27 95.35 134.14 107.77 132.95 113.83 122.04" fill="#e686b7"/></svg>