<?xml version="1.0" encoding="UTF-8" standalone="no"?><!DOCTYPE svg PUBLIC "-//W3C//DTD SVG 1.1//EN" "http://www.w3.org/Graphics/SVG/1.1/DTD/svg11.dtd"><svg width="100%" height="100%" viewBox="0 0 169 169" version="1.1" xmlns="http://www.w3.org/2000/svg" xmlns:xlink="http://www.w3.org/1999/xlink" xml:space="preserve" xmlns:serif="http://www.serif.com/" style="fill-rule:evenodd;clip-rule:evenodd;stroke-linejoin:round;stroke-miterlimit:2;"><g><path d="M14.142,0l154.15,154.15l-14.143,14.141l-154.149,-154.149l14.142,-14.142Z" style="fill:#ffd2d2;"/><path d="M59.542,64.708c1.486,1.485 3.25,1.603 4.557,0.669l-0.832,-0.832c-0.957,0.568 -2.054,0.452 -3.026,-0.521c-1.283,-1.283 -1.135,-2.909 0.141,-4.185c1.276,-1.276 2.901,-1.424 4.185,-0.14c0.972,0.972 1.089,2.069 0.521,3.026l0.832,0.832c0.934,-1.307 0.816,-3.072 -0.67,-4.557c-1.765,-1.766 -4.035,-1.61 -5.676,0.031c-1.634,1.634 -1.798,3.911 -0.032,5.677Z" style="fill-rule:nonzero;"/><path d="M63.199,68.1l1.78,1.781c1.806,1.805 4.075,1.447 5.483,0.039c1.408,-1.408 1.766,-3.678 -0.039,-5.483l-1.78,-1.781l-5.444,5.444Zm1.452,0.07l4.062,-4.061l0.957,0.957c1.392,1.393 1.035,3.042 0.008,4.069c-1.027,1.027 -2.677,1.385 -4.07,-0.008l-0.957,-0.957Z" style="fill-rule:nonzero;"/><path d="M68.472,73.374l0.716,0.715l4.378,-3.678l-2.34,5.716l0.583,0.583l5.716,-2.341l-3.694,4.363l0.731,0.731l5.024,-5.864l-0.794,-0.793l-6.151,2.481l2.496,-6.136l-0.793,-0.793l-5.872,5.016Z" style="fill-rule:nonzero;"/><path d="M75.193,80.094l0.863,0.863l3.445,-0.739l-0.739,3.445l0.863,0.864l0.934,-4.511l4.51,-0.933l-0.863,-0.863l-3.453,0.746l0.747,-3.453l-0.863,-0.863l-0.942,4.503l-4.502,0.941Z" style="fill-rule:nonzero;"/><path d="M89.76,83.774l-1.968,-1.968l-5.443,5.444l0.761,0.761l1.672,-1.672l1.206,1.206c1.067,1.066 2.62,1.051 3.717,-0.047c1.098,-1.097 1.129,-2.651 0.055,-3.724Zm-3.135,3.041l-1.159,-1.16l2.396,-2.396l1.16,1.159c0.646,0.646 0.622,1.619 -0.078,2.319c-0.692,0.693 -1.673,0.724 -2.319,0.078Z" style="fill-rule:nonzero;"/><path d="M88.384,93.472c0.514,0.514 1.276,0.779 1.905,0.6l-0.567,0.567l0.723,0.723l3.631,-3.632l-0.722,-0.722l-0.559,0.559c0.178,-0.63 -0.04,-1.345 -0.585,-1.89c-1.128,-1.128 -2.651,-0.972 -3.717,0.094c-1.066,1.066 -1.268,2.542 -0.109,3.701Zm0.754,-0.551c-0.724,-0.724 -0.631,-1.704 0.085,-2.42c0.716,-0.716 1.696,-0.809 2.42,-0.086c0.778,0.778 0.607,1.759 -0.07,2.436c-0.677,0.677 -1.657,0.848 -2.435,0.07Z" style="fill-rule:nonzero;"/><path d="M91.605,96.506l0.722,0.722l5.444,-5.443l-0.723,-0.723l-5.443,5.444Z" style="fill-rule:nonzero;"/><path d="M94.879,99.967c0.513,0.513 1.275,0.778 1.905,0.6l-0.567,0.567l0.723,0.722l3.631,-3.631l-0.722,-0.722l-0.559,0.559c0.178,-0.63 -0.041,-1.345 -0.585,-1.89c-1.129,-1.128 -2.651,-0.973 -3.717,0.093c-1.066,1.066 -1.268,2.542 -0.109,3.702Zm0.753,-0.551c-0.723,-0.724 -0.63,-1.705 0.086,-2.42c0.716,-0.716 1.696,-0.81 2.42,-0.086c0.778,0.778 0.607,1.759 -0.07,2.435c-0.677,0.677 -1.657,0.849 -2.436,0.071Z" style="fill-rule:nonzero;"/><path d="M99.538,104.625c0.933,0.934 2.122,1.067 3.009,0.351l-0.731,-0.731c-0.529,0.342 -1.121,0.234 -1.626,-0.272c-0.638,-0.638 -0.63,-1.564 0.156,-2.349c0.786,-0.786 1.712,-0.794 2.349,-0.157c0.506,0.506 0.607,1.105 0.241,1.658l0.731,0.731c0.739,-0.91 0.669,-2.053 -0.319,-3.041c-1.089,-1.089 -2.604,-1.05 -3.732,0.078c-1.129,1.129 -1.167,2.643 -0.078,3.732Z" style="fill-rule:nonzero;"/><path d="M106.919,103.016c0.342,0.342 0.832,0.318 1.151,0c0.318,-0.319 0.334,-0.801 -0.008,-1.143c-0.334,-0.334 -0.816,-0.318 -1.135,0c-0.318,0.319 -0.342,0.809 -0.008,1.143Zm-4.752,4.053l0.723,0.722l3.624,-3.624l-0.723,-0.722l-3.624,3.624Z" style="fill-rule:nonzero;"/><path d="M105.543,110.631c1.182,1.182 2.744,1.05 3.802,-0.008c1.059,-1.058 1.191,-2.62 0.008,-3.803c-1.183,-1.182 -2.744,-1.05 -3.802,0.008c-1.059,1.058 -1.191,2.62 -0.008,3.803Zm0.652,-0.653c-0.739,-0.739 -0.622,-1.712 0.086,-2.42c0.708,-0.708 1.68,-0.825 2.42,-0.085c0.747,0.747 0.622,1.712 -0.086,2.42c-0.708,0.708 -1.673,0.832 -2.42,0.085Z" style="fill-rule:nonzero;"/></g></svg>