<?xml version="1.0" encoding="UTF-8" standalone="no"?><!DOCTYPE svg PUBLIC "-//W3C//DTD SVG 1.1//EN" "http://www.w3.org/Graphics/SVG/1.1/DTD/svg11.dtd"><svg width="100%" height="100%" viewBox="0 0 169 169" version="1.1" xmlns="http://www.w3.org/2000/svg" xmlns:xlink="http://www.w3.org/1999/xlink" xml:space="preserve" xmlns:serif="http://www.serif.com/" style="fill-rule:evenodd;clip-rule:evenodd;stroke-linejoin:round;stroke-miterlimit:2;"><g><path d="M14.142,0l154.15,154.15l-14.143,14.141l-154.149,-154.149l14.142,-14.142Z" style="fill:#fff685;"/><path d="M59.542,64.708c1.486,1.485 3.25,1.603 4.557,0.669l-0.832,-0.832c-0.957,0.568 -2.054,0.452 -3.026,-0.521c-1.283,-1.283 -1.135,-2.909 0.141,-4.185c1.276,-1.276 2.901,-1.424 4.185,-0.14c0.972,0.972 1.089,2.069 0.521,3.026l0.832,0.832c0.934,-1.307 0.816,-3.072 -0.67,-4.557c-1.765,-1.766 -4.035,-1.61 -5.676,0.031c-1.634,1.634 -1.798,3.911 -0.032,5.677Z" style="fill-rule:nonzero;"/><path d="M63.199,68.1l1.78,1.781c1.806,1.805 4.075,1.447 5.483,0.039c1.408,-1.408 1.766,-3.678 -0.039,-5.483l-1.78,-1.781l-5.444,5.444Zm1.452,0.07l4.062,-4.061l0.957,0.957c1.392,1.393 1.035,3.042 0.008,4.069c-1.027,1.027 -2.677,1.385 -4.07,-0.008l-0.957,-0.957Z" style="fill-rule:nonzero;"/><path d="M68.472,73.374l0.716,0.715l4.378,-3.678l-2.34,5.716l0.583,0.583l5.716,-2.341l-3.694,4.363l0.731,0.731l5.024,-5.864l-0.794,-0.793l-6.151,2.481l2.496,-6.136l-0.793,-0.793l-5.872,5.016Z" style="fill-rule:nonzero;"/><path d="M75.193,80.094l0.863,0.863l3.445,-0.739l-0.739,3.445l0.863,0.864l0.934,-4.511l4.51,-0.933l-0.863,-0.863l-3.453,0.746l0.747,-3.453l-0.863,-0.863l-0.942,4.503l-4.502,0.941Z" style="fill-rule:nonzero;"/><path d="M89.76,83.774l-1.968,-1.968l-5.443,5.444l0.761,0.761l1.672,-1.672l1.206,1.206c1.067,1.066 2.62,1.051 3.717,-0.047c1.098,-1.097 1.129,-2.651 0.055,-3.724Zm-3.135,3.041l-1.159,-1.16l2.396,-2.396l1.16,1.159c0.646,0.646 0.622,1.619 -0.078,2.319c-0.692,0.693 -1.673,0.724 -2.319,0.078Z" style="fill-rule:nonzero;"/><path d="M88.485,93.573c1.183,1.183 2.745,1.051 3.803,-0.008c1.058,-1.058 1.19,-2.619 0.008,-3.802c-1.183,-1.183 -2.745,-1.051 -3.803,0.008c-1.058,1.058 -1.191,2.619 -0.008,3.802Zm0.653,-0.652c-0.74,-0.739 -0.623,-1.712 0.085,-2.42c0.708,-0.708 1.681,-0.825 2.42,-0.086c0.747,0.747 0.623,1.712 -0.085,2.42c-0.709,0.708 -1.673,0.833 -2.42,0.086Z" style="fill-rule:nonzero;"/><path d="M97.071,94.539c-0.568,-0.568 -1.345,-0.802 -1.998,-0.616l0.598,-0.598l-0.715,-0.715l-5.257,5.257l0.715,0.715l2.223,-2.224c-0.178,0.645 0.04,1.407 0.577,1.944c1.051,1.051 2.573,1.004 3.694,-0.116c1.136,-1.136 1.198,-2.612 0.163,-3.647Zm-3.313,3.018c-0.7,-0.701 -0.669,-1.712 0.07,-2.452c0.739,-0.739 1.743,-0.762 2.443,-0.062c0.685,0.685 0.646,1.689 -0.085,2.42c-0.732,0.732 -1.743,0.778 -2.428,0.094Z" style="fill-rule:nonzero;"/><path d="M97.501,98.964l2.379,2.379l0.652,-0.652l-2.379,-2.38l-0.652,0.653Z" style="fill-rule:nonzero;"/><path d="M100.362,105.45c0.576,0.576 1.245,0.763 1.89,0.523l-0.59,0.59l0.722,0.723l3.624,-3.624l-0.722,-0.722l-1.976,1.975c-0.646,0.646 -1.416,0.809 -2.116,0.109c-0.6,-0.6 -0.46,-1.207 0.194,-1.86l2.061,-2.061l-0.722,-0.723l-2.248,2.248c-0.98,0.98 -0.933,2.005 -0.117,2.822Z" style="fill-rule:nonzero;"/><path d="M109.275,106.743c-0.568,-0.568 -1.345,-0.802 -1.998,-0.616l0.598,-0.598l-0.715,-0.715l-5.257,5.257l0.715,0.715l2.223,-2.224c-0.178,0.645 0.04,1.407 0.577,1.944c1.051,1.051 2.573,1.004 3.693,-0.116c1.137,-1.136 1.199,-2.612 0.164,-3.647Zm-3.313,3.017c-0.701,-0.7 -0.669,-1.711 0.07,-2.451c0.739,-0.739 1.743,-0.762 2.443,-0.062c0.685,0.685 0.646,1.689 -0.085,2.42c-0.732,0.732 -1.743,0.778 -2.428,0.093Z" style="fill-rule:nonzero;"/></g></svg>