<svg xmlns="http://www.w3.org/2000/svg" width="48px" height="48px" viewBox="0 0 32 32"><title>clean_32px</title><path d="M32,16A16,16,0,1,1,16,0,16,16,0,0,1,32,16" transform="translate(0 0)" fill="#d6ffc9" fill-rule="evenodd"/><path d="M5,14.19a1.39,1.39,0,0,1-1-1.84,1.27,1.27,0,0,1,1.4-1l-.15.49a.8.8,0,0,0-.85.64,1,1,0,0,0,.74,1.25,1,1,0,0,0,1.31-.63.8.8,0,0,0-.35-1l.15-.49a1.26,1.26,0,0,1,.6,1.61A1.4,1.4,0,0,1,5,14.19Z" transform="translate(0 0)"/><path d="M5,10.13l.25-.4,2,1.26.6-1,.37.23-.84,1.37Z" transform="translate(0 0)"/><path d="M6.36,8,7.54,6.81l.31.29L7,8l.57.54.86-.9.31.29-.87.91.57.54.87-.9.3.29L8.4,10Z" transform="translate(0 0)"/><path d="M10.94,7l-1,.6.14.71-.42.27-.55-3L9.5,5.4l2.44,1.82-.43.26Zm-.35-.27L9.65,6l.24,1.16Z" transform="translate(0 0)"/><path d="M11.34,4.43l.48-.13,1.89,1.64-.58-2,.43-.12.78,2.72-.47.14L12,5l.57,2-.43.13Z" transform="translate(0 0)"/><path d="M17.67,5.79a.79.79,0,0,1-1,.72l-1-.08.22-2.82.94.07c.57,0,.89.35.85.81a.59.59,0,0,1-.58.59A.64.64,0,0,1,17.67,5.79Zm-.46-.08a.4.4,0,0,0-.41-.43l-.53,0-.06.82.52,0A.4.4,0,0,0,17.21,5.71Zm-.85-1.66-.06.78.46,0c.29,0,.47-.11.49-.35s-.14-.4-.43-.42Z" transform="translate(0 0)"/><path d="M18.85,4l1.64.53-.13.39-1.19-.38-.24.75,1.19.38-.13.4L18.8,5.67l-.24.75,1.19.39-.13.39L18,6.67Z" transform="translate(0 0)"/><path d="M21.77,7.66l-1-.61-.57.45-.43-.27,2.45-1.8.35.22-.57,3-.42-.27Zm.09-.44.24-1.16-.94.72Z" transform="translate(0 0)"/><path d="M22.75,8.05l1.38-1.3.32.34L23.09,8.37a.55.55,0,0,0-.05.85.56.56,0,0,0,.86,0l1.35-1.29.32.34L24.2,9.58a1,1,0,0,1-1.46-.07A1,1,0,0,1,22.75,8.05Z" transform="translate(0 0)"/><path d="M26.12,9.91l-.41-.71L26.09,9l1.05,1.84-.38.22-.41-.72L24.27,11.5,24,11.1Z" transform="translate(0 0)"/><path d="M26.11,12.92l1.33-1.44.14.52-1,1,1.38.39.14.52-1.88-.56-1.13.31L25,13.23Z" transform="translate(0 0)"/><path d="M27.05,17.81a1.39,1.39,0,0,1,1,1.84,1.27,1.27,0,0,1-1.4,1l.15-.49a.8.8,0,0,0,.85-.64,1.07,1.07,0,0,0-2.05-.62.8.8,0,0,0,.35,1l-.15.49a1.26,1.26,0,0,1-.6-1.61A1.4,1.4,0,0,1,27.05,17.81Z" transform="translate(0 0)"/><path d="M27.05,21.87l-.25.4-2-1.26-.6,1-.37-.22.84-1.37Z" transform="translate(0 0)"/><path d="M25.65,24l-1.19,1.23-.31-.29L25,24l-.57-.54-.86.9-.31-.3.87-.9-.57-.54-.87.9-.3-.29L23.6,22Z" transform="translate(0 0)"/><path d="M21.06,25l1-.6-.15-.71.43-.27.55,3-.35.22-2.44-1.82.43-.26Zm.35.27.94.73-.24-1.16Z" transform="translate(0 0)"/><path d="M20.66,27.57l-.48.13-1.89-1.64.58,2-.43.12-.78-2.72.47-.14L20,27l-.57-2,.43-.13Z" transform="translate(0 0)"/><path d="M14.33,26.21a.79.79,0,0,1,1-.72l1,.08-.22,2.82-.94-.07c-.57-.05-.89-.35-.85-.81a.59.59,0,0,1,.58-.59A.64.64,0,0,1,14.33,26.21ZM15.64,28l.06-.78-.46,0c-.29,0-.48.11-.49.35s.14.4.43.42Zm-.85-1.66a.4.4,0,0,0,.41.43l.53,0,.06-.82-.52,0A.4.4,0,0,0,14.79,26.29Z" transform="translate(0 0)"/><path d="M13.15,28l-1.64-.53.13-.39,1.19.38.24-.75-1.19-.38L12,26l1.19.38.24-.75-1.19-.39.13-.39,1.64.53Z" transform="translate(0 0)"/><path d="M10.23,24.34l1,.61.57-.45.43.27-2.45,1.8-.35-.22.57-3,.42.27Zm-.09.44-.25,1.16.95-.72Z" transform="translate(0 0)"/><path d="M9.24,23.94l-1.38,1.3-.32-.34L8.9,23.62a.56.56,0,0,0,0-.86.55.55,0,0,0-.85,0L6.73,24l-.32-.33L7.79,22.4a1,1,0,0,1,1.46.08A1,1,0,0,1,9.24,23.94Z" transform="translate(0 0)"/><path d="M5.88,22.09l.41.71L5.91,23l-1-1.84L5.24,21l.41.72L7.73,20.5l.23.4Z" transform="translate(0 0)"/><path d="M5.89,19.08,4.56,20.52,4.42,20l1-1L4,18.58l-.14-.52,1.88.56,1.13-.31.12.46Z" transform="translate(0 0)"/><path d="M20.39,17.34C19.29,19.49,16,20,16,20s-1.46-3-.35-5.1S20,12.24,20,12.24,21.5,15.19,20.39,17.34Z" transform="translate(0 0)" fill="#fde7e8"/><path d="M16,20.28a.27.27,0,0,1-.23-.14c-.06-.12-1.5-3.09-.35-5.33S19.86,12,20,12a.25.25,0,0,1,.27.14c.06.12,1.5,3.09.35,5.33s-4.4,2.8-4.54,2.82Zm3.85-7.75c-.69.15-3.09.79-4,2.51s0,4.05.28,4.7c.69-.15,3.09-.79,4-2.51S20.17,13.18,19.89,12.53Z" transform="translate(0 0)" fill="#262626"/><path d="M11.61,17.35C12.72,19.5,16,20,16,20s1.46-3,.35-5.1S12,12.24,12,12.24,10.5,15.2,11.61,17.35Z" transform="translate(0 0)" fill="#fde7e8"/><path d="M16,20.28h0c-.14,0-3.38-.58-4.54-2.82h0c-1.15-2.24.29-5.2.35-5.33A.25.25,0,0,1,12,12c.14,0,3.38.58,4.54,2.82s-.29,5.21-.35,5.33A.24.24,0,0,1,16,20.28Zm-4.13-3.05c.89,1.72,3.29,2.36,4,2.51.28-.65,1.16-3,.28-4.7s-3.29-2.36-4-2.51c-.28.65-1.16,3-.28,4.7Z" transform="translate(0 0)" fill="#262626"/><path d="M18.64,15.52c0,2.42-2.64,4.38-2.64,4.38s-2.64-2-2.64-4.38S16,11.14,16,11.14,18.64,13.1,18.64,15.52Z" transform="translate(0 0)" fill="#fde7e8"/><path d="M16,20.15a.21.21,0,0,1-.15,0C15.74,20,13.1,18,13.1,15.52s2.64-4.5,2.75-4.58a.24.24,0,0,1,.3,0c.11.08,2.75,2.06,2.75,4.58S16.26,20,16.15,20.1A.21.21,0,0,1,16,20.15Zm0-8.68c-.55.45-2.39,2.12-2.39,4s1.84,3.61,2.39,4.06c.55-.45,2.39-2.12,2.39-4.06S16.55,11.92,16,11.47Z" transform="translate(0 0)" fill="#262626"/></svg>