<svg xmlns="http://www.w3.org/2000/svg" width="9.77cm" height="9.77cm" viewBox="0 0 277 277"><title>clean_beauty_badge</title><path d="M281.23,142.09A138.5,138.5,0,1,1,142.73,3.59a138.5,138.5,0,0,1,138.5,138.5" transform="translate(-4.23 -3.59)" fill="#d6ffc9" fill-rule="evenodd"/><path d="M47.11,126.44c-7.18-2.18-10.92-8.31-8.59-16,2-6.48,6.89-9.56,12.07-8.75L49.31,106c-3.42-.23-6.15,1.65-7.33,5.54-1.58,5.2,1,9.25,6.36,10.88s9.77-.29,11.35-5.49c1.18-3.89,0-7-3-8.68L58,104c4.75,2.22,7.13,7.52,5.17,14C60.8,125.62,54.29,128.62,47.11,126.44Z" transform="translate(-4.23 -3.59)"/><path d="M47.08,91.24l2.12-3.43L66.82,98.73,72,90.37l3.22,2-7.31,11.78Z" transform="translate(-4.23 -3.59)"/><path d="M59.24,73.22,69.53,62.51l2.6,2.5-7.5,7.81,4.93,4.73,7.5-7.8,2.63,2.52-7.5,7.81,4.92,4.73L84.62,77l2.6,2.5L76.92,90.22Z" transform="translate(-4.23 -3.59)"/><path d="M98.89,64.48l-8.3,5.16,1.28,6.17-3.72,2.31L83.42,52.19l3-1.86,21.15,15.72-3.72,2.31Zm-3-2.36-8.14-6.33,2.1,10.08Z" transform="translate(-4.23 -3.59)"/><path d="M102.43,41.93l4.08-1.16L122.86,55l-5-17.47,3.71-1.06,6.75,23.61-4.08,1.17L107.89,47l5,17.47-3.7,1.06Z" transform="translate(-4.23 -3.59)"/><path d="M157.15,53.73c-.32,4.23-3.45,6.59-8.31,6.22l-8.62-.66,1.87-24.45,8.17.63c4.89.37,7.67,3,7.37,7-.25,3.31-2.19,4.82-5.06,5.16A5.48,5.48,0,0,1,157.15,53.73Zm-4-.72c.15-2.06-1.27-3.58-3.54-3.75l-4.57-.35-.55,7.16,4.54.35C151.45,56.6,153,55.35,153.17,53Zm-7.33-14.33-.52,6.7,4,.31c2.51.19,4.1-.95,4.27-3s-1.21-3.46-3.76-3.66Z" transform="translate(-4.23 -3.59)"/><path d="M167.43,38l14.14,4.56L180.46,46l-10.3-3.33-2.1,6.5,10.3,3.33L177.25,56l-10.31-3.32-2.1,6.5,10.31,3.32L174,65.93,159.9,61.37Z" transform="translate(-4.23 -3.59)"/><path d="M192.65,69.86l-8.27-5.21-5,3.86-3.7-2.33,21.24-15.61,3,1.88L195,78.36,191.34,76Zm.79-3.77L195.57,56l-8.14,6.3Z" transform="translate(-4.23 -3.59)"/><path d="M201.16,73.3,213.07,62,215.84,65,204.11,76.06c-2.57,2.43-2.52,5.14-.4,7.37s4.81,2.44,7.38,0l11.73-11.09,2.77,2.93L213.67,86.54c-4.14,3.92-8.81,3.37-12.59-.62S197,77.23,201.16,73.3Z" transform="translate(-4.23 -3.59)"/><path d="M230.32,89.41l-3.51-6.19,3.28-1.86,9,15.89-3.29,1.86-3.53-6.21-18,10.25-2-3.5Z" transform="translate(-4.23 -3.59)"/><path d="M230.28,115.46,241.77,103l1.24,4.49-8.51,9,11.89,3.33,1.24,4.49-16.27-4.85-9.76,2.69-1.08-3.92Z" transform="translate(-4.23 -3.59)"/><path d="M238.34,157.73c7.18,2.19,10.92,8.31,8.6,16-2,6.47-6.9,9.55-12.08,8.75l1.28-4.23c3.42.23,6.15-1.65,7.33-5.54,1.58-5.2-1-9.24-6.36-10.87s-9.76.29-11.35,5.49c-1.18,3.88.05,7,3,8.68l-1.29,4.22c-4.75-2.21-7.13-7.52-5.16-14C224.65,158.55,231.16,155.56,238.34,157.73Z" transform="translate(-4.23 -3.59)"/><path d="M238.37,192.94l-2.12,3.43-17.62-10.92-5.18,8.36-3.22-2L217.54,180Z" transform="translate(-4.23 -3.59)"/><path d="M226.22,211l-10.3,10.72-2.6-2.51,7.5-7.8-4.93-4.74-7.5,7.81-2.63-2.53,7.5-7.8-4.92-4.74-7.51,7.81-2.6-2.51L208.53,194Z" transform="translate(-4.23 -3.59)"/><path d="M186.56,219.7l8.3-5.16-1.28-6.17,3.72-2.31L202,232l-3,1.87-21.15-15.72,3.71-2.31Zm3,2.36,8.13,6.32-2.1-10.07Z" transform="translate(-4.23 -3.59)"/><path d="M183,242.24l-4.08,1.17-16.35-14.23,5,17.47-3.71,1.06-6.75-23.6,4.08-1.17,16.36,14.22-5-17.47,3.7-1.06Z" transform="translate(-4.23 -3.59)"/><path d="M128.3,230.44c.32-4.23,3.45-6.59,8.31-6.21l8.62.66-1.87,24.44-8.17-.62c-4.89-.38-7.68-3-7.37-7,.25-3.32,2.19-4.82,5.06-5.17A5.48,5.48,0,0,1,128.3,230.44Zm11.31,15.05.52-6.7-4-.3c-2.52-.2-4.12.95-4.28,3s1.21,3.47,3.76,3.66Zm-7.33-14.33c-.16,2.07,1.27,3.58,3.54,3.75l4.57.35.55-7.16-4.54-.34C134,227.57,132.46,228.83,132.28,231.16Z" transform="translate(-4.23 -3.59)"/><path d="M118,246.15l-14.13-4.57,1.11-3.43,10.29,3.33,2.11-6.5-10.3-3.33,1.12-3.47,10.3,3.33,2.1-6.5-10.31-3.33,1.11-3.44,14.14,4.57Z" transform="translate(-4.23 -3.59)"/><path d="M92.8,214.32l8.27,5.2,5-3.85,3.7,2.33L88.52,233.61l-3-1.89,4.87-25.9,3.71,2.33Zm-.8,3.76-2.12,10.09,8.14-6.3Z" transform="translate(-4.23 -3.59)"/><path d="M84.18,210.79,72.24,222.05l-2.77-2.93L81.23,208c2.57-2.42,2.53-5.13.41-7.38s-4.81-2.45-7.39,0L62.49,211.72l-2.77-2.93,11.94-11.27c4.16-3.92,8.83-3.36,12.61.64S88.34,206.87,84.18,210.79Z" transform="translate(-4.23 -3.59)"/><path d="M55.13,194.77,58.65,201l-3.29,1.87-9-15.89,3.28-1.87,3.53,6.21,18-10.24,2,3.5Z" transform="translate(-4.23 -3.59)"/><path d="M55.17,168.71l-11.48,12.5-1.24-4.49,8.5-8.95-11.89-3.34-1.23-4.49,16.26,4.85,9.76-2.69L64.94,166Z" transform="translate(-4.23 -3.59)"/><path d="M180.75,153.71C171.18,172.33,143.08,177,143.08,177s-12.61-25.55-3.05-44.17,37.68-23.27,37.68-23.27S190.31,135.09,180.75,153.71Z" transform="translate(-4.23 -3.59)" fill="#fde7e8"/><path d="M143.08,179.17a2.21,2.21,0,0,1-2-1.22c-.53-1.09-13-26.77-3-46.14s38.07-24.23,39.26-24.43a2.15,2.15,0,0,1,2.32,1.19c.53,1.08,13,26.76,3,46.14s-38.07,24.23-39.26,24.43ZM176.43,112c-6,1.32-26.8,6.88-34.45,21.78s0,35,2.38,40.68c6-1.32,26.78-6.88,34.44-21.78S178.85,117.67,176.43,112Z" transform="translate(-4.23 -3.59)" fill="#262626"/><path d="M104.72,153.74C114.29,172.35,142.4,177,142.4,177s12.59-25.56,3-44.18-37.69-23.24-37.69-23.24S95.14,135.12,104.72,153.74Z" transform="translate(-4.23 -3.59)" fill="#fde7e8"/><path d="M142.4,179.17l-.35,0c-1.19-.2-29.31-5-39.28-24.4h0c-10-19.38,2.46-45.06,3-46.14a2.18,2.18,0,0,1,2.32-1.2c1.2.2,29.32,5,39.28,24.4s-2.46,45.06-3,46.14A2.19,2.19,0,0,1,142.4,179.17Zm-35.73-26.43c7.66,14.89,28.46,20.43,34.45,21.75,2.42-5.64,10-25.79,2.35-40.68S115,113.37,109,112.05c-2.42,5.65-10,25.79-2.34,40.69Z" transform="translate(-4.23 -3.59)" fill="#262626"/><path d="M165.61,137.94c0,20.94-22.88,37.91-22.88,37.91s-22.88-17-22.88-37.91S142.73,100,142.73,100,165.61,117,165.61,137.94Z" transform="translate(-4.23 -3.59)" fill="#fde7e8"/><path d="M142.73,178a2.19,2.19,0,0,1-1.31-.43c-1-.72-23.76-17.88-23.76-39.67S140.45,99,141.42,98.28a2.19,2.19,0,0,1,2.61,0c1,.72,23.77,17.88,23.77,39.66S145,176.89,144,177.61A2.14,2.14,0,0,1,142.73,178Zm0-75.2C138,106.75,122,121.19,122,137.94s16,31.2,20.69,35.11c4.73-3.91,20.69-18.35,20.69-35.11S147.46,106.75,142.73,102.84Z" transform="translate(-4.23 -3.59)" fill="#262626"/></svg>