<svg id="ac8da531-11ca-47d5-9adc-2f3fb9b5a89e" data-name="Capa 1" xmlns="http://www.w3.org/2000/svg" width="61.43mm" height="65.3mm" viewBox="0 0 174.13 185.11"><path d="M364.52,351.3A27.88,27.88,0,1,0,319,320.76a80.75,80.75,0,0,0-38.76,0,27.88,27.88,0,1,0-45.6,30.49,80.61,80.61,0,1,0,129.89.09Z" transform="translate(-218.94 -303.95)" fill="#f1e3f0"/><path d="M270.48,323.8a17.75,17.75,0,1,0-29.28,19.6A80.63,80.63,0,0,1,270.48,323.8Z" transform="translate(-218.94 -303.95)" fill="#fff"/><path d="M358,343.48a17.75,17.75,0,1,0-29.23-19.63A80.68,80.68,0,0,1,358,343.48Z" transform="translate(-218.94 -303.95)" fill="#fff"/><circle cx="80.61" cy="114.23" r="26.82" fill="#fff"/><circle cx="80.61" cy="90.38" r="8.33" fill="#010101"/><path d="M284.82,418.18c0-8.14,6.59-3.37,14.72-3.37s14.73-4.77,14.73,3.37a14.73,14.73,0,0,1-29.45,0Z" transform="translate(-218.94 -303.95)" fill="#010101"/><path d="M322.81,344.67c-7.74,0-13.81,10.95-13.81,24.94s6.07,24.93,13.81,24.93,13.81-11,13.81-24.93S330.56,344.67,322.81,344.67Z" transform="translate(-218.94 -303.95)"/><ellipse cx="99.69" cy="60.27" rx="5.08" ry="7.28" fill="#fff"/><circle cx="106.96" cy="76.98" r="3.92" fill="#fff"/><polygon points="109.3 54.75 110 56.92 112.28 56.92 110.44 58.26 111.14 60.42 109.3 59.08 107.46 60.42 108.16 58.26 106.32 56.92 108.6 56.92 109.3 54.75" fill="#fff"/><path d="M336.57,347.75a2.11,2.11,0,0,1-1.87-1.14c-2.39-4.65-10.64-9.47-19.93-6.45a2.1,2.1,0,0,1-1.31-4c12-3.93,22,2.76,25,8.52a2.11,2.11,0,0,1-1.87,3.06Z" transform="translate(-218.94 -303.95)"/><path d="M276.27,344.67c-7.75,0-13.81,10.95-13.81,24.94s6.06,24.93,13.81,24.93,13.81-11,13.81-24.93S284,344.67,276.27,344.67Z" transform="translate(-218.94 -303.95)"/><ellipse cx="53.15" cy="60.27" rx="5.08" ry="7.28" fill="#fff"/><circle cx="60.41" cy="76.98" r="3.92" fill="#fff"/><polygon points="62.75 54.75 63.46 56.92 65.73 56.92 63.89 58.26 64.59 60.42 62.75 59.08 60.91 60.42 61.62 58.26 59.77 56.92 62.05 56.92 62.75 54.75" fill="#fff"/><path d="M262.51,347.75a2,2,0,0,1-.95-.24,2.09,2.09,0,0,1-.91-2.82c3-5.76,12.93-12.45,25-8.52a2.1,2.1,0,1,1-1.3,4c-9.29-3-17.55,1.8-19.93,6.45A2.12,2.12,0,0,1,262.51,347.75Z" transform="translate(-218.94 -303.95)"/><circle cx="131.76" cy="108.5" r="12.22" fill="#e686b7"/><path d="M350.7,426.77A14.32,14.32,0,1,1,365,412.45,14.34,14.34,0,0,1,350.7,426.77Zm0-24.44a10.12,10.12,0,1,0,10.12,10.12A10.13,10.13,0,0,0,350.7,402.33Z" transform="translate(-218.94 -303.95)" fill="#e686b7"/><circle cx="29.45" cy="108.5" r="12.22" fill="#e686b7"/><path d="M248.39,426.77a14.32,14.32,0,1,1,14.32-14.32A14.33,14.33,0,0,1,248.39,426.77Zm0-24.44a10.12,10.12,0,1,0,10.12,10.12A10.13,10.13,0,0,0,248.39,402.33Z" transform="translate(-218.94 -303.95)" fill="#e686b7"/><circle cx="146.13" cy="157.11" r="28" fill="#bfe0e2"/><path d="M377.56,459.55h-11v-11a1.5,1.5,0,0,0-3,0v11h-11a1.5,1.5,0,0,0,0,3h11v11a1.5,1.5,0,0,0,3,0v-11h11a1.5,1.5,0,0,0,0-3Z" transform="translate(-218.94 -303.95)" fill="#010101"/></svg>