<svg width="15" height="16" xmlns="http://www.w3.org/2000/svg">
  <g fill="none" fill-rule="evenodd">
    <g transform="translate(.882 .47)">
      <ellipse stroke="#262626" cx="6.618" cy="7.529" rx="6.618" ry="7.059"/>
      <path d="M4.614 8.413h.911c0 .389.101.688.303.898.202.21.461.314.78.314a.985.985 0 0 0 .356-.064.831.831 0 0 0 .485-.465.938.938 0 0 0 .07-.369.788.788 0 0 0-.084-.38.808.808 0 0 0-.213-.254 1.336 1.336 0 0 0-.285-.17 3.95 3.95 0 0 0-.299-.118 13.814 13.814 0 0 1-.713-.294 2.525 2.525 0 0 1-.584-.355 1.48 1.48 0 0 1-.393-.505c-.096-.198-.144-.446-.144-.744a1.555 1.555 0 0 1 .805-1.381c.161-.092.335-.157.521-.195v-.922h.81v.914a1.682 1.682 0 0 1 .97.618c.122.158.217.338.285.538.069.2.103.418.103.655h-.911c0-.292-.079-.529-.235-.71a.757.757 0 0 0-.599-.27.946.946 0 0 0-.587.186c-.165.124-.247.313-.247.567a.728.728 0 0 0 .249.558c.077.069.163.128.257.178.095.05.195.095.3.136.218.086.44.175.666.267.226.093.432.208.616.346.185.137.336.306.452.504a1.4 1.4 0 0 1 .175.72c0 .265-.039.503-.115.715a1.711 1.711 0 0 1-.318.553 1.642 1.642 0 0 1-.473.376c-.18.095-.375.163-.587.205v.905h-.81v-.914a1.707 1.707 0 0 1-.592-.225 1.86 1.86 0 0 1-.48-.426 1.966 1.966 0 0 1-.326-.61 2.441 2.441 0 0 1-.119-.782z" fill="#0A0A0A"/>
    </g>
  </g>
</svg>