<svg width="169" height="169" xmlns="http://www.w3.org/2000/svg">
  <g fill="none" fill-rule="evenodd">
    <path fill="#D5F3FF" d="M14.142 0l154.15 154.15-14.143 14.141L0 14.142z"/>
    <path d="M65.873 70.287l5.941-5.941 2.088 2.088c.313.312.538.646.678 1a2.754 2.754 0 0 1-.037 2.138 2.944 2.944 0 0 1-.628.918c-.27.27-.577.48-.92.63a2.747 2.747 0 0 1-2.142.037 2.948 2.948 0 0 1-.998-.675l-1.318-1.318-1.893 1.894-.771-.77zm3.368-1.827l1.318 1.318c.193.193.403.332.628.416.225.084.452.122.681.114.23-.008.455-.064.676-.166a2.08 2.08 0 0 0 .6-.422c.174-.174.312-.372.415-.593a1.734 1.734 0 0 0-.352-1.997l-1.318-1.317-2.648 2.647zm7.053 1.625a.826.826 0 0 1 .596-.249.804.804 0 0 1 .601.245.798.798 0 0 1 .24.596.826.826 0 0 1-.248.597.788.788 0 0 1-.589.24.817.817 0 0 1-.588-.248.827.827 0 0 1-.25-.59.783.783 0 0 1 .238-.591zm-5.08 5.543l3.853-3.853.73.73-3.854 3.853-.729-.73zm3.982.096c.288-.287.598-.509.93-.665.333-.156.67-.244 1.011-.265.341-.02.677.033 1.007.162.33.128.638.335.922.619.265.265.466.553.603.864.137.31.206.625.207.945.001.319-.058.63-.178.932-.12.302-.302.575-.545.818a8.548 8.548 0 0 1-.207.199 3.449 3.449 0 0 1-.31.253l-2.897-2.896c-.163.163-.294.34-.394.53-.099.19-.157.388-.174.592-.016.205.016.413.098.624.081.211.224.419.429.623.292.293.575.454.847.483.272.03.52-.007.744-.11l.75.75c-.197.13-.415.221-.655.274-.24.052-.49.063-.748.03a2.506 2.506 0 0 1-.791-.244 2.87 2.87 0 0 1-.769-.561c-.323-.323-.548-.662-.675-1.015a2.469 2.469 0 0 1-.147-1.05c.029-.347.127-.683.294-1.007.167-.325.383-.62.648-.885zm1.11.414l2.209 2.209c.318-.318.468-.671.452-1.06-.017-.39-.187-.747-.51-1.07-.307-.306-.654-.478-1.042-.516-.388-.037-.758.109-1.108.437zm1.84 6.423l5.942-5.941.738.737-5.942 5.941-.737-.737zm5.463 2.868l.72.721c-.292.293-.413.586-.362.88.051.295.21.574.474.84.232.232.462.374.688.426.227.053.434-.015.622-.203a.576.576 0 0 0 .178-.315.813.813 0 0 0-.052-.383 3.355 3.355 0 0 0-.244-.522c-.112-.2-.237-.444-.375-.731a5.977 5.977 0 0 1-.253-.547 1.772 1.772 0 0 1-.126-.537 1.34 1.34 0 0 1 .066-.522 1.3 1.3 0 0 1 .33-.499c.193-.193.398-.322.614-.387.217-.065.438-.08.661-.044.224.036.442.116.653.238.211.123.41.279.599.467.22.22.393.455.517.704.125.248.197.498.216.75a1.69 1.69 0 0 1-.505 1.367l-.713-.713c.226-.226.334-.466.323-.72-.011-.255-.144-.509-.398-.763-.21-.21-.426-.339-.648-.387a.61.61 0 0 0-.59.184.533.533 0 0 0-.166.31.831.831 0 0 0 .054.378c.05.14.122.299.217.474.095.176.207.382.334.62.09.18.18.366.265.56.085.192.14.383.165.57.025.189.01.377-.043.566-.054.19-.172.375-.354.558-.194.193-.4.323-.62.391a1.48 1.48 0 0 1-.673.048 1.987 1.987 0 0 1-.688-.253 3.155 3.155 0 0 1-.65-.505 3.25 3.25 0 0 1-.551-.721 2.116 2.116 0 0 1-.26-.777 1.72 1.72 0 0 1 .09-.785c.091-.26.253-.506.485-.738zm4.645 3.353c.287-.288.597-.51.93-.665.333-.156.67-.245 1.01-.266.342-.02.678.034 1.008.162.33.128.637.335.921.62.266.265.467.553.603.863.137.311.206.626.207.945.002.319-.058.63-.178.932-.12.303-.301.575-.545.818a8.55 8.55 0 0 1-.207.2 3.449 3.449 0 0 1-.31.252l-2.897-2.896c-.162.163-.294.34-.393.53-.1.19-.158.388-.174.593-.017.204.016.412.097.623.082.212.225.42.43.624.292.293.574.454.846.483.272.029.52-.008.744-.11l.75.75c-.196.13-.414.22-.655.273-.24.053-.49.063-.748.031a2.506 2.506 0 0 1-.79-.244 2.87 2.87 0 0 1-.77-.562c-.323-.323-.548-.661-.675-1.015a2.469 2.469 0 0 1-.147-1.05c.03-.347.127-.682.294-1.007.167-.324.384-.62.649-.884zm1.11.414l2.208 2.208c.318-.317.469-.67.452-1.06-.017-.39-.186-.746-.51-1.07-.306-.306-.654-.478-1.042-.515-.388-.037-.757.108-1.108.437zm3.469 4.198c.26-.26.551-.47.876-.632a2.736 2.736 0 0 1 1.013-.284c.35-.028.706.025 1.065.157.359.133.703.364 1.031.692.288.288.497.581.628.88.131.3.2.595.207.883.007.289-.04.562-.139.818-.1.257-.237.49-.414.7l-.737-.737a1.36 1.36 0 0 0 .306-.89c-.005-.33-.17-.655-.493-.978a1.793 1.793 0 0 0-.667-.444 1.554 1.554 0 0 0-.688-.083c-.229.025-.45.096-.663.212a2.572 2.572 0 0 0-.588.443c-.182.182-.33.38-.445.59-.115.212-.184.431-.208.66-.023.227.007.456.092.687.084.23.236.456.457.677.307.307.607.47.9.49.292.019.584-.056.874-.224l.737.737c-.215.16-.45.284-.706.37-.256.088-.524.121-.804.1a2.466 2.466 0 0 1-.85-.228 2.932 2.932 0 0 1-.838-.607c-.335-.334-.568-.68-.7-1.04a2.501 2.501 0 0 1-.16-1.062c.026-.35.12-.687.282-1.011.161-.325.372-.617.632-.876zm4.611 4.611a2.967 2.967 0 0 1 1.979-.872 2.625 2.625 0 0 1 1.99.79c.33.328.54.683.635 1.064.093.382.09.742-.013 1.082l.663-.663.73.73-3.854 3.852-.73-.729.672-.671c-.34.102-.7.107-1.083.014-.383-.092-.741-.306-1.076-.64a2.596 2.596 0 0 1-.613-.936 2.7 2.7 0 0 1-.17-1.052 2.944 2.944 0 0 1 .87-1.968zm.73.73a2.07 2.07 0 0 0-.433.62 1.808 1.808 0 0 0-.054 1.392c.084.23.226.445.425.643.198.2.414.342.646.427a1.799 1.799 0 0 0 1.394-.052c.225-.1.432-.245.62-.433a2.07 2.07 0 0 0 .432-.619c.101-.225.157-.456.168-.694a1.764 1.764 0 0 0-.534-1.355 1.745 1.745 0 0 0-1.35-.53c-.238.011-.47.068-.697.17a2.078 2.078 0 0 0-.617.43z" fill="#0A0A0A"/>
  </g>
</svg>