<svg xmlns="http://www.w3.org/2000/svg" width="100" height="100" viewBox="0 0 78 62" stroke-linejoin="round"><path d="M10.9 0.8l67.1 43.6 -10.9 16.8 -67.1-43.6 10.9-16.8Z" fill="#fef9fe"/><path d="M13.3 19l4 2.7 0.5-0.8 -3.1-2 1.5-2.2 3.1 2 0.5-0.8 -3.1-2 1.5-2.3 3.1 2 0.5-0.8 -4-2.7 -4.7 7Z"/><path d="M18.7 22.6l0.9 0.6 1.6-2.4c0.6-0.9 1.5-1.2 2.3-0.7 0.8 0.5 0.8 1.3 0.1 2.3l-1.6 2.5 0.9 0.6 1.9-2.8c0.8-1.2 0.7-2.3-0.5-3 -0.8-0.5-1.6-0.5-2.3-0.1l0.6-0.8 -0.9-0.6 -3.1 4.6Z"/><path d="M26.6 26.9c-0.4-0.3-0.7-0.6-0.1-1.5l1.4-2.2 1.2 0.8 0.5-0.7 -1.2-0.8 1-1.5 -0.9-0.6 -1 1.5 -0.8-0.6 -0.5 0.7 0.8 0.6 -1.6 2.3c-1 1.5-0.2 2.2 0.4 2.5 0.3 0.2 0.6 0.4 0.8 0.4l0.5-0.8c-0.1-0.1-0.4-0.2-0.6-0.3Z"/><path d="M27.8 28.7l0.9 0.6 1.3-2c0.7-1 1.7-1.6 2.6-1 0.2 0.1 0.3 0.2 0.4 0.3l0.5-0.8c-0.1-0.1-0.2-0.2-0.4-0.3 -0.6-0.4-1.4-0.4-2.1 0.2l0.7-1 -0.9-0.6 -3.1 4.6Z"/><path d="M37 31.2c0.8-1.3 0.6-2.7-0.7-3.6 -1.4-0.9-2.9-0.6-3.9 0.9 -1 1.5-0.7 3 0.7 4 1.1 0.7 2.3 0.7 3 0l-0.9-0.6c-0.5 0.3-1.1 0.3-1.7-0.1 -0.9-0.6-1.1-1.5-0.5-2.4l3.6 2.4c0.2-0.2 0.2-0.3 0.4-0.5Zm-3.5-2.6c0.6-0.8 1.4-0.9 2.3-0.4 0.8 0.6 1 1.4 0.5 2.2l-2.7-1.8Z"/><path d="M37.5 35.2l0.7 0.5 5.1-3.2 -0.9-0.6 -3.8 2.5 0.9-4.4 -0.9-0.6 -1 6Z"/><path d="M45.1 32.5c0.4 0.3 0.9 0.2 1.2-0.2 0.3-0.4 0.2-0.9-0.2-1.2 -0.4-0.3-0.9-0.2-1.2 0.2 -0.3 0.4-0.2 0.9 0.2 1.2Zm-4 5.1l0.9 0.6 3.1-4.6 -0.9-0.6 -3.1 4.6Z"/><path d="M44.9 40.3c1.1 0.7 2.2 0.6 2.7-0.3 0.4-0.5 0.3-1.3-0.2-1.9l-0.9-1.1c-0.3-0.3-0.3-0.7-0.1-0.9 0.3-0.4 0.8-0.4 1.2-0.1 0.6 0.4 0.8 0.9 0.5 1.4l0.9 0.6c0.5-0.8 0.3-1.8-0.8-2.6 -1-0.7-2.1-0.6-2.6 0.2 -0.4 0.6-0.4 1.2 0.2 1.9l1 1.1c0.3 0.3 0.2 0.6 0 0.9 -0.3 0.4-0.8 0.4-1.3 0.1 -0.7-0.5-0.9-1.1-0.6-1.5l-0.9-0.6c-0.5 0.8-0.3 2 0.9 2.8Z"/><path d="M50.2 42.6c-0.4-0.3-0.7-0.6-0.1-1.5l1.4-2.2 1.2 0.8 0.5-0.7 -1.2-0.8 1-1.5 -0.9-0.6 -1 1.5 -0.8-0.6 -0.5 0.7 0.8 0.6 -1.6 2.3c-1 1.5-0.2 2.2 0.4 2.5 0.3 0.2 0.6 0.4 0.8 0.4l0.5-0.8c-0.1-0.1-0.4-0.2-0.6-0.3Z"/><path d="M53.1 45.8c0.7 0.5 1.6 0.5 2.3 0.2l-0.5 0.8 0.9 0.6 3.1-4.6 -0.9-0.6 -0.5 0.8c0.1-0.8-0.3-1.5-1-2 -1.4-1-3-0.5-3.9 0.9 -0.9 1.4-0.8 3 0.7 3.9Zm0.6-0.7c-0.9-0.6-1.1-1.7-0.4-2.7 0.6-0.9 1.7-1.3 2.6-0.6 1 0.7 1.1 1.8 0.5 2.7 -0.6 0.9-1.6 1.3-2.7 0.6Z"/><path d="M58.6 49.5c1.1 0.7 2.2 0.6 2.7-0.3 0.4-0.5 0.3-1.3-0.2-1.9l-0.9-1.1c-0.3-0.3-0.3-0.7-0.1-0.9 0.3-0.4 0.8-0.4 1.2-0.1 0.6 0.4 0.8 0.9 0.5 1.4l0.9 0.6c0.5-0.8 0.3-1.8-0.8-2.6 -1-0.7-2.1-0.6-2.6 0.2 -0.4 0.6-0.4 1.2 0.2 1.9l1 1.1c0.3 0.3 0.2 0.6 0 0.9 -0.3 0.4-0.8 0.4-1.3 0.1 -0.7-0.5-0.9-1.1-0.6-1.5l-0.9-0.6c-0.5 0.8-0.3 2 0.9 2.8Z"/></svg>