<svg width="30" height="101" xmlns="http://www.w3.org/2000/svg">
  <g stroke="#231F20" stroke-linecap="round" stroke-linejoin="round" fill="none" fill-rule="evenodd">
    <path d="M15.5 32.518c-5.103.016-9.235.42-11.33.799a3.28 3.28 0 0 0-2.7 3.232v61.57a2.348 2.348 0 0 0 2.348 2.348h23.316a2.348 2.348 0 0 0 2.348-2.348v-61.57a3.28 3.28 0 0 0-2.7-3.232c-2.096-.379-5.515-.783-10.617-.8h-.666z"/>
    <path d="M5.958 32.876V2.426c0-.197.18-.356.401-.356 0 0 4.423-.714 9.519-.714 4.893 0 8.715.714 8.715.714.221 0 .402.16.402.356V33.04c-2.088-.276-4.98-.509-8.83-.521h-.666c-3.91.012-7.25.253-9.541.535v-.177zM1.47 83.677h28.012M1.602 35.518h27.714M5.958 27.927h19.037"/>
  </g>
</svg>