<?xml version="1.0" encoding="UTF-8"?>
<svg width="101px" height="101px" viewBox="0 0 101 101" version="1.1" xmlns="http://www.w3.org/2000/svg" xmlns:xlink="http://www.w3.org/1999/xlink">
    <!-- Generator: Sketch 57.1 (83088) - https://sketch.com -->
    <title>Todo tipo de piel</title>
    <desc>Created with Sketch.</desc>
    <g id="Page-1" stroke="none" stroke-width="1" fill="none" fill-rule="evenodd">
        <g id="Home" transform="translate(-275.000000, -3740.000000)">
            <g id="no-contiene" transform="translate(0.000000, 3701.000000)">
                <g id="stickers" transform="translate(71.000000, 20.000000)">
                    <g id="Todo-tipo-de-piel" transform="translate(204.118700, 19.630600)">
                        <path d="M99.5542,49.9777 C99.5542,77.3577 77.3582,99.5537 49.9772,99.5537 C22.5972,99.5537 0.4012,77.3577 0.4012,49.9777 C0.4012,22.5967 22.5972,0.4007 49.9772,0.4007 C77.3582,0.4007 99.5542,22.5967 99.5542,49.9777" id="Fill-504" fill="#FFF684"></path>
                        <path d="M49.977,0.801 C22.861,0.801 0.801,22.862 0.801,49.978 C0.801,77.094 22.861,99.154 49.977,99.154 C77.093,99.154 99.154,77.094 99.154,49.978 C99.154,22.862 77.093,0.801 49.977,0.801 M49.977,99.954 C22.42,99.954 8.66862138e-13,77.534 8.66862138e-13,49.978 C8.66862138e-13,22.42 22.42,-1.42108547e-13 49.977,-1.42108547e-13 C77.535,-1.42108547e-13 99.955,22.42 99.955,49.978 C99.955,77.534 77.535,99.954 49.977,99.954" id="Fill-505" fill="#232020"></path>
                        <path d="M14.3237,59.925 L12.1777,61.561 L14.8687,61.706 L14.3237,59.925 Z M15.1267,59.315 L15.8747,61.763 L17.5247,61.853 L17.8607,62.949 L10.9767,62.407 L10.7067,61.522 L16.1067,57.22 L16.4427,58.317 L15.1267,59.315 Z" id="Fill-506" fill="#000000"></path>
                        <path d="M12.3159,61.5178 L14.7999,61.6528 L14.2969,60.0078 L12.3159,61.5178 Z M14.9369,61.7598 L12.0389,61.6038 L12.1469,61.5208 L14.3499,59.8418 L14.3719,59.9108 L14.9369,61.7598 Z M11.0149,62.3608 L17.7919,62.8938 L17.4879,61.9008 L15.8369,61.8108 L15.8269,61.7778 L15.0689,59.2958 L15.0959,59.2748 L16.3849,58.2978 L16.0809,57.3048 L10.7639,61.5388 L11.0149,62.3608 Z M17.9299,63.0048 L17.8569,62.9988 L10.9389,62.4548 L10.6489,61.5038 L10.6749,61.4828 L16.1329,57.1348 L16.5009,58.3348 L16.4729,58.3568 L15.1839,59.3328 L15.9129,61.7148 L17.5619,61.8048 L17.5729,61.8378 L17.9299,63.0048 Z" id="Fill-507" fill="#000000"></path>
                        <path d="M11.4233,53.4074 C10.6763,53.5024 10.1943,54.0824 10.2823,54.7744 L10.4413,56.0134 L13.0273,55.6834 L12.8693,54.4454 C12.7813,53.7534 12.1693,53.3124 11.4233,53.4074 M11.2903,52.3594 C12.5923,52.1934 13.6383,52.9864 13.8003,54.2614 L13.9663,55.5644 L15.8783,55.3214 L16.0123,56.3684 L9.6363,57.1804 L9.3363,54.8304 C9.1733,53.5544 9.9873,52.5254 11.2903,52.3594" id="Fill-508" fill="#000000"></path>
                        <path d="M11.4292,53.4572 C11.0812,53.5012 10.7792,53.6582 10.5782,53.8982 C10.3792,54.1382 10.2912,54.4472 10.3322,54.7692 L10.4842,55.9582 L12.9712,55.6412 L12.8202,54.4512 C12.7792,54.1312 12.6172,53.8532 12.3642,53.6722 C12.1092,53.4882 11.7792,53.4072 11.4292,53.4572 L11.4292,53.4572 Z M10.3982,56.0692 L10.3912,56.0202 L10.2332,54.7802 C10.1892,54.4322 10.2832,54.0962 10.5012,53.8352 C10.7182,53.5742 11.0432,53.4052 11.4172,53.3572 C11.7882,53.3102 12.1472,53.3942 12.4222,53.5912 C12.6992,53.7892 12.8742,54.0902 12.9192,54.4392 L13.0822,55.7272 L13.0332,55.7332 L10.3982,56.0692 Z M11.6252,52.3882 C11.5172,52.3882 11.4082,52.3952 11.2962,52.4092 C10.6802,52.4872 10.1492,52.7722 9.8032,53.2102 C9.4562,53.6472 9.3092,54.2212 9.3862,54.8242 L9.6792,57.1252 L15.9562,56.3252 L15.8352,55.3772 L13.9232,55.6202 L13.9162,55.5702 L13.7502,54.2682 C13.6742,53.6652 13.3872,53.1462 12.9432,52.8102 C12.5772,52.5332 12.1182,52.3882 11.6252,52.3882 L11.6252,52.3882 Z M9.5932,57.2362 L9.5862,57.1862 L9.2862,54.8362 C9.2062,54.2062 9.3622,53.6062 9.7242,53.1472 C10.0872,52.6892 10.6412,52.3922 11.2842,52.3102 L11.2902,52.3592 L11.2842,52.3102 C11.9242,52.2282 12.5372,52.3772 13.0032,52.7302 C13.4692,53.0832 13.7702,53.6252 13.8502,54.2562 L14.0092,55.5092 L15.9212,55.2662 L15.9282,55.3152 L16.0682,56.4112 L16.0182,56.4182 L9.5932,57.2362 Z" id="Fill-509" fill="#000000"></path>
                        <polygon id="Fill-510" fill="#000000" points="10.0483 49.5763 10.0043 51.4383 9.0133 51.4153 9.1253 46.6283 10.1153 46.6513 10.0713 48.5213 15.5013 48.6483 15.4763 49.7033"></polygon>
                        <path d="M9.0639,51.3664 L9.9559,51.3874 L9.9999,49.5254 L10.0489,49.5264 L15.4269,49.6524 L15.4509,48.6974 L10.0209,48.5704 L10.0219,48.5204 L10.0649,46.7004 L9.1739,46.6794 L9.0639,51.3664 Z M10.0529,51.4894 L8.9619,51.4644 L8.9629,51.4144 L9.0769,46.5774 L10.1669,46.6024 L10.1659,46.6524 L10.1229,48.4724 L15.5519,48.5994 L15.5249,49.7544 L15.4749,49.7534 L10.0969,49.6274 L10.0529,51.4894 Z" id="Fill-511" fill="#000000"></path>
                        <path d="M13.4057,40.4748 C12.1017,40.2088 10.8767,40.7818 10.6027,42.1768 C10.3277,43.5728 11.2457,44.5668 12.5517,44.8148 C13.8557,45.0798 15.0817,44.5068 15.3547,43.1118 C15.6307,41.7158 14.7127,40.7228 13.4057,40.4748 M12.3387,45.9038 C10.5377,45.5488 9.2727,44.0378 9.6757,41.9958 C10.0767,39.9518 11.8197,39.0318 13.6197,39.3858 C15.4207,39.7398 16.6847,41.2498 16.2827,43.2938 C15.8817,45.3378 14.1377,46.2568 12.3387,45.9038" id="Fill-512" fill="#000000"></path>
                        <path d="M12.7934,40.4611 C12.3154,40.4611 11.8764,40.5841 11.5184,40.8231 C11.0664,41.1231 10.7684,41.5951 10.6514,42.1871 C10.5354,42.7781 10.6344,43.3281 10.9374,43.7761 C11.2764,44.2801 11.8544,44.6311 12.5624,44.7661 C13.2684,44.9091 13.9354,44.8031 14.4394,44.4661 C14.8904,44.1651 15.1894,43.6931 15.3064,43.1021 C15.4224,42.5111 15.3234,41.9611 15.0214,41.5131 C14.6814,41.0091 14.1044,40.6581 13.3964,40.5231 C13.1904,40.4821 12.9884,40.4611 12.7934,40.4611 M13.1644,44.9281 C12.9624,44.9281 12.7534,44.9061 12.5424,44.8631 C11.8094,44.7251 11.2094,44.3581 10.8544,43.8321 C10.5354,43.3611 10.4324,42.7851 10.5544,42.1671 C10.6754,41.5491 10.9884,41.0561 11.4624,40.7401 C11.9894,40.3891 12.6824,40.2771 13.4154,40.4261 C14.1494,40.5651 14.7494,40.9311 15.1044,41.4561 C15.4224,41.9281 15.5254,42.5031 15.4034,43.1211 C15.2824,43.7391 14.9684,44.2331 14.4954,44.5491 C14.1204,44.7991 13.6614,44.9281 13.1644,44.9281 M12.3484,45.8551 C13.2354,46.0291 14.1104,45.8871 14.8094,45.4551 C15.5524,44.9931 16.0454,44.2431 16.2334,43.2841 C16.4224,42.3251 16.2504,41.4441 15.7364,40.7351 C15.2554,40.0711 14.5004,39.6091 13.6094,39.4351 C12.7164,39.2591 11.8444,39.4011 11.1484,39.8341 C10.4054,40.2951 9.9124,41.0461 9.7244,42.0051 C9.5354,42.9631 9.7074,43.8451 10.2214,44.5531 C10.7024,45.2171 11.4574,45.6791 12.3484,45.8551 M13.0864,46.0271 C12.8374,46.0271 12.5834,46.0031 12.3284,45.9521 C11.4134,45.7731 10.6364,45.2961 10.1404,44.6111 C9.6094,43.8801 9.4324,42.9721 9.6264,41.9851 C9.8194,40.9991 10.3284,40.2261 11.0974,39.7481 C11.8144,39.3031 12.7104,39.1531 13.6294,39.3371 C14.5444,39.5171 15.3214,39.9921 15.8174,40.6771 C16.3484,41.4081 16.5254,42.3161 16.3314,43.3041 C16.1384,44.2901 15.6294,45.0641 14.8604,45.5401 C14.3434,45.8611 13.7304,46.0271 13.0864,46.0271" id="Fill-513" fill="#000000"></path>
                        <path d="M15.892,31.6301 C15.216,31.2991 14.496,31.5201 14.191,32.1461 L13.642,33.2661 L15.983,34.4101 L16.531,33.2891 C16.837,32.6631 16.568,31.9601 15.892,31.6301 M16.355,30.6821 C17.534,31.2581 17.972,32.4931 17.408,33.6471 L16.831,34.8251 L18.562,35.6711 L18.099,36.6181 L12.33,33.7991 L13.371,31.6731 C13.934,30.5201 15.177,30.1071 16.355,30.6821" id="Fill-514" fill="#000000"></path>
                        <path d="M13.7094,33.2433 L15.9594,34.3443 L16.4854,33.2673 C16.6214,32.9903 16.6434,32.6843 16.5474,32.4053 C16.4404,32.0963 16.2004,31.8363 15.8704,31.6753 L15.8694,31.6753 C15.5414,31.5133 15.1884,31.4813 14.8794,31.5893 C14.6004,31.6843 14.3714,31.8903 14.2354,32.1673 L13.7094,33.2433 Z M16.0064,34.4763 L15.9614,34.4553 L13.5744,33.2883 L13.5974,33.2433 L14.1464,32.1233 C14.2934,31.8223 14.5424,31.5983 14.8474,31.4943 C15.1844,31.3803 15.5624,31.4113 15.9134,31.5853 C16.2684,31.7583 16.5264,32.0383 16.6424,32.3723 C16.7464,32.6783 16.7234,33.0113 16.5754,33.3113 L16.0064,34.4763 Z M12.3974,33.7753 L18.0754,36.5523 L18.4954,35.6943 L16.7654,34.8483 L16.7864,34.8043 L17.3624,33.6253 C17.6294,33.0793 17.6744,32.4893 17.4874,31.9653 C17.3014,31.4393 16.8914,30.9993 16.3334,30.7263 C15.1694,30.1603 13.9724,30.5573 13.4154,31.6943 L12.3974,33.7753 Z M18.1224,36.6843 L18.0774,36.6633 L12.2644,33.8223 L12.2854,33.7763 L13.3254,31.6503 C13.8974,30.4783 15.1824,30.0533 16.3764,30.6373 C16.9584,30.9213 17.3874,31.3813 17.5824,31.9313 C17.7774,32.4813 17.7314,33.0983 17.4524,33.6693 L16.8974,34.8023 L18.6284,35.6473 L18.6064,35.6923 L18.1224,36.6843 Z" id="Fill-515" fill="#000000"></path>
                        <path d="M20.2456,27.9347 L17.6346,27.2437 L19.1736,29.4577 L20.2456,27.9347 Z M21.2196,28.1937 L19.7466,30.2877 L20.6876,31.6457 L20.0276,32.5837 L16.2296,26.8157 L16.7636,26.0577 L23.4756,27.6817 L22.8156,28.6207 L21.2196,28.1937 Z" id="Fill-516" fill="#000000"></path>
                        <path d="M17.7534,27.3263 L19.1734,29.3713 L20.1634,27.9653 L17.7534,27.3263 Z M19.1734,29.5453 L19.1324,29.4863 L17.5154,27.1603 L20.3274,27.9043 L19.1734,29.5453 Z M16.2904,26.8163 L20.0284,32.4953 L20.6274,31.6453 L19.6864,30.2873 L19.7054,30.2593 L21.1984,28.1363 L21.2324,28.1453 L22.7954,28.5623 L23.3934,27.7133 L16.7844,26.1143 L16.2904,26.8163 Z M20.0264,32.6733 L19.9854,32.6113 L16.1694,26.8143 L16.1894,26.7873 L16.7414,26.0013 L16.7744,26.0093 L23.5594,27.6503 L22.8364,28.6783 L22.8034,28.6683 L21.2394,28.2513 L19.8074,30.2873 L20.7484,31.6453 L20.7294,31.6743 L20.0264,32.6733 Z" id="Fill-517" fill="#000000"></path>
                        <path d="M22.7915,24.3127 L23.6735,23.4287 C24.1655,22.9347 24.1395,22.1807 23.6065,21.6497 C23.0735,21.1177 22.3195,21.0927 21.8275,21.5867 L20.9445,22.4707 L22.7915,24.3127 Z M24.8745,23.3557 L27.2375,23.9237 L26.3885,24.7757 L24.1935,24.2467 L23.4605,24.9807 L24.8255,26.3417 L24.0795,27.0897 L19.5295,22.5497 L21.2025,20.8737 C22.1105,19.9627 23.4225,19.9747 24.3525,20.9017 C25.0605,21.6087 25.2365,22.5497 24.8745,23.3557 L24.8745,23.3557 Z" id="Fill-518" fill="#000000"></path>
                        <path d="M21.0151,22.4709 L22.7911,24.2419 L23.6381,23.3939 C24.1131,22.9159 24.0851,22.1979 23.5721,21.6849 C23.3121,21.4259 22.9891,21.2829 22.6611,21.2829 L22.6601,21.2829 C22.3641,21.2839 22.0801,21.4039 21.8631,21.6219 L21.0151,22.4709 Z M22.7911,24.3829 L20.8741,22.4709 L21.7921,21.5519 C22.0291,21.3149 22.3371,21.1829 22.6601,21.1829 L22.6611,21.1829 C23.0151,21.1829 23.3641,21.3359 23.6421,21.6149 C24.1971,22.1679 24.2251,22.9459 23.7081,23.4639 L22.7911,24.3829 Z M19.6001,22.5499 L24.0791,27.0199 L24.7551,26.3419 L23.3901,24.9809 L24.1781,24.1909 L24.2051,24.1979 L26.3721,24.7199 L27.1391,23.9509 L24.8041,23.3899 L24.8281,23.3349 C25.1901,22.5329 24.9941,21.6139 24.3171,20.9369 C23.3991,20.0219 22.1341,20.0119 21.2381,20.9089 L19.6001,22.5499 Z M24.0791,27.1599 L24.0441,27.1249 L19.4591,22.5499 L21.1671,20.8379 C22.0901,19.9129 23.4451,19.9259 24.3871,20.8669 C25.0791,21.5569 25.2891,22.4919 24.9441,23.3209 L27.3361,23.8969 L27.2731,23.9589 L26.4041,24.8309 L26.3761,24.8249 L24.2091,24.3019 L23.5311,24.9809 L24.8961,26.3419 L24.0791,27.1599 Z" id="Fill-519" fill="#000000"></path>
                        <path d="M29.3403,19.257 L27.1123,17.736 L27.8223,20.335 L29.3403,19.257 Z M30.1713,19.825 L28.0853,21.307 L28.5193,22.9 L27.5853,23.564 L25.9313,16.864 L26.6873,16.328 L32.4673,20.096 L31.5323,20.76 L30.1713,19.825 Z" id="Fill-520" fill="#000000"></path>
                        <path d="M27.1967,17.8537 L27.8517,20.2527 L29.2527,19.2577 L27.1967,17.8537 Z M27.7937,20.4167 L27.7747,20.3477 L27.0287,17.6177 L27.1407,17.6947 L29.4277,19.2557 L29.3697,19.2977 L27.7937,20.4167 Z M25.9877,16.8857 L27.6167,23.4807 L28.4617,22.8787 L28.0277,21.2867 L28.0557,21.2657 L30.1717,19.7647 L31.5317,20.6997 L32.3787,20.0977 L26.6877,16.3887 L25.9877,16.8857 Z M27.5537,23.6467 L25.8747,16.8427 L26.6857,16.2677 L26.7147,16.2867 L32.5557,20.0937 L32.4967,20.1367 L31.5337,20.8207 L31.5047,20.8007 L30.1727,19.8857 L28.1427,21.3277 L28.5767,22.9197 L28.5487,22.9407 L27.5537,23.6467 Z" id="Fill-521" fill="#000000"></path>
                        <polygon id="Fill-522" fill="#000000" points="34.6372 13.0978 32.9082 13.7908 32.5392 12.8708 36.9842 11.0868 37.3532 12.0068 35.6162 12.7038 37.6402 17.7438 36.6602 18.1378"></polygon>
                        <path d="M34.6645,13.0324 L34.6845,13.0794 L36.6875,18.0724 L37.5745,17.7174 L35.5515,12.6774 L35.5985,12.6574 L37.2875,11.9794 L36.9565,11.1524 L32.6045,12.8984 L32.9355,13.7254 L34.6645,13.0324 Z M36.6335,18.2034 L36.6135,18.1564 L34.6095,13.1634 L32.8815,13.8564 L32.8615,13.8094 L32.4745,12.8444 L32.5205,12.8244 L37.0115,11.0214 L37.0305,11.0684 L37.4185,12.0344 L37.3715,12.0534 L35.6825,12.7314 L37.7055,17.7714 L37.6585,17.7914 L36.6335,18.2034 Z" id="Fill-523" fill="#000000"></path>
                        <path d="M44.3461,12.6164 C44.0801,11.3104 43.0741,10.4064 41.6811,10.6994 C40.2871,10.9924 39.7311,12.2264 40.0141,13.5284 C40.2801,14.8334 41.2861,15.7384 42.6791,15.4444 C44.0731,15.1514 44.6291,13.9174 44.3461,12.6164 M38.9271,13.7574 C38.5481,11.9594 39.4461,10.2034 41.4861,9.7734 C43.5261,9.3444 45.0551,10.5904 45.4331,12.3874 C45.8121,14.1844 44.9141,15.9404 42.8741,16.3704 C40.8341,16.8004 39.3051,15.5544 38.9271,13.7574" id="Fill-524" fill="#000000"></path>
                        <path d="M42.1938,10.6945 C42.0308,10.6945 41.8628,10.7125 41.6918,10.7485 C41.0998,10.8725 40.6318,11.1785 40.3378,11.6335 C40.0068,12.1435 39.9098,12.8135 40.0628,13.5175 C40.2068,14.2245 40.5658,14.7985 41.0748,15.1315 C41.5278,15.4295 42.0808,15.5195 42.6688,15.3955 C43.2598,15.2715 43.7278,14.9655 44.0228,14.5095 C44.3528,14.0005 44.4508,13.3315 44.2978,12.6275 L44.2978,12.6265 C44.1538,11.9205 43.7948,11.3465 43.2868,11.0125 C42.9648,10.8015 42.5928,10.6945 42.1938,10.6945 M42.1658,15.5495 C41.7468,15.5495 41.3578,15.4365 41.0188,15.2155 C40.4888,14.8665 40.1148,14.2715 39.9648,13.5385 C39.8058,12.8075 39.9088,12.1125 40.2538,11.5795 C40.5628,11.1015 41.0528,10.7805 41.6708,10.6505 C42.2908,10.5235 42.8668,10.6175 43.3408,10.9295 C43.8718,11.2785 44.2458,11.8735 44.3948,12.6055 C44.5538,13.3365 44.4518,14.0315 44.1068,14.5645 C43.7978,15.0425 43.3068,15.3635 42.6898,15.4935 C42.5108,15.5315 42.3358,15.5495 42.1658,15.5495 M42.2818,9.7375 C42.0268,9.7375 41.7638,9.7655 41.4968,9.8225 C40.5398,10.0245 39.7948,10.5275 39.3418,11.2785 C38.9188,11.9815 38.7888,12.8575 38.9758,13.7465 C39.1628,14.6355 39.6348,15.3845 40.3058,15.8585 C41.0218,16.3625 41.9098,16.5235 42.8638,16.3215 C43.8208,16.1195 44.5658,15.6165 45.0178,14.8655 C45.4418,14.1625 45.5718,13.2865 45.3838,12.3975 C45.1978,11.5085 44.7248,10.7585 44.0538,10.2865 C43.5388,9.9235 42.9358,9.7375 42.2818,9.7375 M42.0778,16.5065 C41.4028,16.5065 40.7818,16.3155 40.2488,15.9395 C39.5568,15.4525 39.0708,14.6805 38.8788,13.7675 C38.6858,12.8535 38.8198,11.9515 39.2558,11.2265 C39.7228,10.4515 40.4908,9.9315 41.4748,9.7245 C42.4608,9.5195 43.3718,9.6835 44.1118,10.2045 C44.8028,10.6915 45.2898,11.4635 45.4818,12.3765 C45.6738,13.2905 45.5408,14.1925 45.1038,14.9175 C44.6368,15.6925 43.8698,16.2125 42.8848,16.4195 C42.6088,16.4775 42.3398,16.5065 42.0778,16.5065" id="Fill-525" fill="#000000"></path>
                        <path d="M49.2348,14.5422 C50.8018,14.5162 51.4628,13.3862 51.4438,12.2392 C51.4248,11.0932 50.7278,9.9852 49.1598,10.0122 L48.1318,10.0282 L48.2078,14.5592 L49.2348,14.5422 Z M47.0618,9.1022 L49.2358,9.0652 C51.3628,9.0302 52.4978,10.5522 52.5258,12.2212 C52.5538,13.8902 51.4698,15.4492 49.3418,15.4842 L47.1698,15.5212 L47.0618,9.1022 Z" id="Fill-526" fill="#000000"></path>
                        <path d="M48.1831,10.0773 L48.2561,14.5083 L49.2341,14.4923 C50.8551,14.4653 51.4111,13.2623 51.3941,12.2403 C51.3841,11.6433 51.1901,11.1033 50.8451,10.7193 C50.4601,10.2883 49.8971,10.0613 49.2131,10.0613 L49.1611,10.0613 L48.1831,10.0773 Z M48.1591,14.6093 L48.1581,14.5593 L48.0811,9.9793 L49.1591,9.9623 C49.1771,9.9613 49.1951,9.9613 49.2131,9.9613 C49.9261,9.9613 50.5151,10.1993 50.9201,10.6523 C51.2801,11.0553 51.4841,11.6183 51.4941,12.2383 C51.5221,13.9473 50.2941,14.5743 49.2361,14.5923 L48.1591,14.6093 Z M47.1131,9.1503 L47.2181,15.4703 L49.3411,15.4343 C50.3221,15.4183 51.1391,15.0713 51.7051,14.4313 C52.2161,13.8543 52.4911,13.0693 52.4761,12.2223 C52.4401,10.0793 50.8131,9.1153 49.2951,9.1153 L49.2371,9.1153 L47.1131,9.1503 Z M47.1211,15.5713 L47.1201,15.5213 L47.0111,9.0533 L47.0611,9.0523 L49.2351,9.0153 C49.2591,9.0153 49.2841,9.0153 49.3081,9.0153 C50.2851,9.0153 51.1131,9.3443 51.7041,9.9703 C52.2511,10.5483 52.5611,11.3483 52.5761,12.2203 C52.5901,13.0933 52.3081,13.9013 51.7801,14.4983 C51.1951,15.1593 50.3521,15.5173 49.3431,15.5343 L47.1211,15.5713 Z" id="Fill-527" fill="#000000"></path>
                        <path d="M59.2866,13.3547 C59.5446,12.0487 58.9666,10.8267 57.5676,10.5587 C56.1706,10.2917 55.1816,11.2147 54.9386,12.5237 C54.6816,13.8307 55.2596,15.0527 56.6576,15.3207 C58.0556,15.5867 59.0446,14.6647 59.2866,13.3547 M53.8486,12.3157 C54.1926,10.5117 55.6986,9.2387 57.7456,9.6297 C59.7926,10.0217 60.7226,11.7597 60.3776,13.5637 C60.0326,15.3677 58.5266,16.6407 56.4796,16.2497 C54.4326,15.8577 53.5036,14.1197 53.8486,12.3157" id="Fill-528" fill="#000000"></path>
                        <path d="M57.0971,10.5627 C56.6821,10.5627 56.2981,10.6767 55.9701,10.9017 C55.4681,11.2447 55.1191,11.8237 54.9881,12.5327 C54.8481,13.2417 54.9581,13.9087 55.2981,14.4127 C55.6011,14.8607 56.0751,15.1587 56.6671,15.2717 C57.2601,15.3827 57.8091,15.2827 58.2561,14.9767 C58.7581,14.6337 59.1061,14.0547 59.2381,13.3457 L59.2381,13.3447 C59.3771,12.6377 59.2671,11.9707 58.9271,11.4677 C58.6241,11.0187 58.1511,10.7207 57.5581,10.6077 C57.4011,10.5777 57.2461,10.5627 57.0971,10.5627 M57.1281,15.4167 C56.9721,15.4167 56.8121,15.4007 56.6481,15.3697 C56.0291,15.2507 55.5341,14.9397 55.2151,14.4677 C54.8611,13.9417 54.7441,13.2487 54.8901,12.5137 C55.0261,11.7797 55.3891,11.1767 55.9131,10.8187 C56.3831,10.4987 56.9571,10.3927 57.5771,10.5097 C58.1971,10.6277 58.6921,10.9397 59.0101,11.4117 C59.3651,11.9377 59.4811,12.6307 59.3351,13.3647 C59.2001,14.0997 58.8361,14.7017 58.3131,15.0597 C57.9671,15.2957 57.5641,15.4167 57.1281,15.4167 M57.0141,9.6087 C56.3351,9.6087 55.7131,9.8047 55.1881,10.1897 C54.5261,10.6747 54.0681,11.4327 53.8971,12.3257 C53.5311,14.2447 54.5961,15.8377 56.4901,16.2007 C57.4491,16.3827 58.3301,16.2077 59.0371,15.6897 C59.7001,15.2047 60.1581,14.4467 60.3281,13.5537 C60.6951,11.6347 59.6291,10.0417 57.7361,9.6787 C57.4901,9.6317 57.2481,9.6087 57.0141,9.6087 M57.2121,16.3707 C56.9711,16.3707 56.7231,16.3467 56.4701,16.2977 C54.5201,15.9247 53.4211,14.2837 53.7991,12.3057 C53.9741,11.3897 54.4471,10.6097 55.1291,10.1097 C55.8601,9.5737 56.7691,9.3887 57.7551,9.5817 C59.7051,9.9547 60.8041,11.5957 60.4261,13.5737 C60.2511,14.4897 59.7791,15.2697 59.0961,15.7697 C58.5531,16.1677 57.9111,16.3707 57.2121,16.3707" id="Fill-529" fill="#000000"></path>
                        <polygon id="Fill-530" fill="#000000" points="66.6167 13.6691 64.9347 12.8691 65.3607 11.9751 69.6847 14.0291 69.2617 14.9251 67.5697 14.1211 65.2397 19.0261 64.2867 18.5741"></polygon>
                        <path d="M64.353,18.551 L65.216,18.96 L67.546,14.055 L69.238,14.859 L69.619,14.053 L65.384,12.041 L65.001,12.846 L66.683,13.646 L66.662,13.691 L64.353,18.551 Z M65.263,19.093 L64.22,18.598 L64.242,18.553 L66.55,13.693 L64.869,12.893 L65.337,11.908 L65.382,11.93 L69.751,14.006 L69.285,14.991 L67.593,14.188 L65.263,19.093 Z" id="Fill-531" fill="#000000"></path>
                        <polygon id="Fill-532" fill="#000000" points="71.0688 14.9006 71.9648 15.4576 68.5798 20.9156 67.6828 20.3586"></polygon>
                        <path d="M67.7514,20.342 L68.5634,20.846 L71.8974,15.474 L71.0854,14.97 L67.7514,20.342 Z M68.5964,20.985 L68.5534,20.957 L67.6144,20.375 L67.6404,20.332 L71.0524,14.831 L71.0954,14.859 L72.0334,15.441 L72.0084,15.484 L68.5964,20.985 Z" id="Fill-533" fill="#000000"></path>
                        <path d="M75.2553,20.672 C75.7243,20.084 75.6653,19.333 75.1203,18.899 L74.1463,18.12 L72.5213,20.157 L73.4953,20.936 C74.0403,21.37 74.7853,21.26 75.2553,20.672 M76.0793,21.33 C75.2613,22.356 73.9603,22.515 72.9563,21.714 L71.9313,20.896 L70.7303,22.401 L69.9043,21.743 L73.9093,16.724 L75.7603,18.2 C76.7643,19.001 76.8983,20.305 76.0793,21.33" id="Fill-534" fill="#000000"></path>
                        <path d="M72.5913,20.1496 L73.5273,20.8966 C74.0543,21.3166 74.7623,21.2086 75.2163,20.6406 C75.6683,20.0736 75.6153,19.3576 75.0893,18.9376 L74.1533,18.1906 L72.5913,20.1496 Z M74.2343,21.2526 C73.9663,21.2526 73.6983,21.1616 73.4643,20.9746 L72.4503,20.1656 L74.1383,18.0496 L75.1523,18.8596 C75.7233,19.3146 75.7823,20.0896 75.2943,20.7036 C75.0053,21.0646 74.6193,21.2526 74.2343,21.2526 L74.2343,21.2526 Z M69.9753,21.7356 L70.7223,22.3316 L71.9233,20.8256 L72.9873,21.6746 C73.9793,22.4646 75.2343,22.3096 76.0403,21.2986 C76.4283,20.8136 76.6103,20.2406 76.5533,19.6856 C76.4963,19.1316 76.2043,18.6186 75.7293,18.2396 L73.9173,16.7946 L69.9753,21.7356 Z M70.7373,22.4716 L69.8343,21.7516 L69.8653,21.7116 L73.9023,16.6536 L75.7913,18.1616 C76.2873,18.5566 76.5933,19.0946 76.6533,19.6756 C76.7123,20.2566 76.5233,20.8556 76.1183,21.3616 C75.2873,22.4016 73.9453,22.5656 72.9253,21.7536 L71.9393,20.9656 L70.7373,22.4716 Z" id="Fill-535" fill="#000000"></path>
                        <path d="M80.0053,27.0637 C81.0193,26.2037 81.3273,24.8857 80.4003,23.8077 C79.4733,22.7287 78.1243,22.8357 77.1223,23.7097 C76.1073,24.5707 75.7993,25.8867 76.7263,26.9657 C77.6533,28.0437 79.0013,27.9377 80.0053,27.0637 M76.3983,22.8687 C77.7893,21.6717 79.7593,21.6127 81.1163,23.1917 C82.4743,24.7707 82.1203,26.7097 80.7283,27.9057 C79.3373,29.1017 77.3673,29.1617 76.0093,27.5827 C74.6513,26.0017 75.0063,24.0647 76.3983,22.8687" id="Fill-536" fill="#000000"></path>
                        <path d="M78.7934,23.0763 C78.2314,23.0763 77.6554,23.3113 77.1554,23.7483 C76.6054,24.2143 76.2764,24.8033 76.2284,25.4083 C76.1864,25.9483 76.3704,26.4753 76.7644,26.9333 C77.1574,27.3903 77.6504,27.6523 78.1904,27.6913 C78.2384,27.6953 78.2854,27.6963 78.3334,27.6963 C78.8954,27.6963 79.4724,27.4623 79.9724,27.0253 L79.9734,27.0253 C80.5224,26.5593 80.8514,25.9693 80.8974,25.3633 C80.9404,24.8243 80.7554,24.2973 80.3614,23.8403 C79.9694,23.3833 79.4764,23.1203 78.9364,23.0813 C78.8884,23.0783 78.8414,23.0763 78.7934,23.0763 M78.3334,27.7973 C78.2834,27.7973 78.2334,27.7953 78.1844,27.7913 C77.6164,27.7503 77.0994,27.4763 76.6884,26.9983 C76.2764,26.5193 76.0834,25.9673 76.1284,25.4003 C76.1794,24.7683 76.5204,24.1543 77.0904,23.6723 C77.6514,23.1803 78.3134,22.9413 78.9424,22.9813 C79.5104,23.0223 80.0264,23.2973 80.4384,23.7753 C80.8494,24.2533 81.0424,24.8053 80.9974,25.3713 C80.9484,26.0043 80.6064,26.6183 80.0374,27.1013 C79.5194,27.5533 78.9194,27.7973 78.3334,27.7973 M78.6504,22.0373 C77.8694,22.0373 77.0854,22.3433 76.4304,22.9063 C74.9494,24.1793 74.7924,26.0893 76.0474,27.5503 C76.6844,28.2903 77.4834,28.7003 78.3584,28.7343 C78.3974,28.7363 78.4374,28.7363 78.4764,28.7363 C79.2564,28.7363 80.0404,28.4303 80.6954,27.8673 C81.3844,27.2763 81.8134,26.5013 81.9034,25.6863 C82.0014,24.8163 81.7154,23.9653 81.0784,23.2233 C80.4414,22.4833 79.6434,22.0733 78.7684,22.0393 C78.7294,22.0373 78.6894,22.0373 78.6504,22.0373 M78.4764,28.8373 C78.4354,28.8373 78.3954,28.8363 78.3554,28.8343 C77.4514,28.7993 76.6274,28.3773 75.9714,27.6143 C74.6784,26.1093 74.8404,24.1413 76.3654,22.8303 C77.0384,22.2513 77.8464,21.9363 78.6504,21.9363 C78.6904,21.9363 78.7314,21.9373 78.7724,21.9393 C79.6754,21.9743 80.4994,22.3963 81.1544,23.1593 C81.8104,23.9213 82.1044,24.7993 82.0034,25.6973 C81.9094,26.5383 81.4684,27.3353 80.7604,27.9433 C80.0874,28.5223 79.2804,28.8373 78.4764,28.8373" id="Fill-537" fill="#000000"></path>
                        <path d="M81.9086,34.5744 C82.5736,35.9964 83.8766,36.1374 84.9156,35.6514 C85.9556,35.1644 86.6816,34.0744 86.0166,32.6524 L85.5816,31.7204 L81.4716,33.6434 L81.9086,34.5744 Z M85.9896,30.3644 L86.9116,32.3354 C87.8146,34.2634 86.8876,35.9244 85.3746,36.6324 C83.8606,37.3414 81.9936,36.9884 81.0916,35.0584 L80.1696,33.0884 L85.9896,30.3644 Z" id="Fill-538" fill="#000000"></path>
                        <path d="M81.5385,33.6681 L81.9535,34.5531 C82.2545,35.1941 82.7145,35.6191 83.2855,35.7801 C83.7795,35.9191 84.3535,35.8591 84.8935,35.6061 C85.8205,35.1721 86.6595,34.1441 85.9725,32.6741 L85.5575,31.7871 L81.5385,33.6681 Z M83.8315,35.9541 C83.6345,35.9541 83.4415,35.9291 83.2585,35.8771 C82.6585,35.7071 82.1765,35.2641 81.8635,34.5961 L81.4055,33.6191 L81.4505,33.5991 L85.6055,31.6541 L85.6265,31.6991 L86.0615,32.6311 C86.5115,33.5921 86.4855,34.9711 84.9365,35.6961 C84.5725,35.8671 84.1935,35.9541 83.8315,35.9541 L83.8315,35.9541 Z M80.2355,33.1121 L81.1365,35.0371 C81.5525,35.9271 82.2035,36.5311 83.0185,36.7871 C83.7535,37.0181 84.5835,36.9461 85.3525,36.5871 C86.1215,36.2271 86.7075,35.6361 87.0035,34.9221 C87.3295,34.1321 87.2825,33.2451 86.8665,32.3561 L85.9655,30.4311 L80.2355,33.1121 Z M83.9025,37.0201 C83.5905,37.0201 83.2825,36.9751 82.9885,36.8831 C82.1455,36.6181 81.4745,35.9951 81.0465,35.0801 L80.1025,33.0641 L80.1475,33.0431 L86.0145,30.2981 L86.0345,30.3431 L86.9565,32.3141 C87.3855,33.2291 87.4335,34.1441 87.0955,34.9601 C86.7905,35.6971 86.1865,36.3071 85.3955,36.6771 C84.9095,36.9041 84.3995,37.0201 83.9025,37.0201 L83.9025,37.0201 Z" id="Fill-539" fill="#000000"></path>
                        <polygon id="Fill-540" fill="#000000" points="88.9545 37.3469 89.9755 41.0989 89.0635 41.3469 88.3195 38.6129 86.5935 39.0819 87.3395 41.8179 86.4185 42.0689 85.6735 39.3329 83.9475 39.8039 84.6925 42.5379 83.7805 42.7859 82.7595 39.0339"></polygon>
                        <path d="M82.8208,39.0695 L83.8158,42.7245 L84.6318,42.5035 L83.8858,39.7685 L83.9348,39.7565 L85.7088,39.2715 L85.7208,39.3205 L86.4538,42.0075 L87.2778,41.7825 L86.5318,39.0475 L86.5808,39.0345 L88.3548,38.5505 L88.3678,38.5995 L89.0988,41.2855 L89.9148,41.0635 L88.9198,37.4085 L82.8208,39.0695 Z M83.7458,42.8475 L83.7328,42.7985 L82.6978,38.9995 L82.7468,38.9865 L88.9898,37.2855 L89.0028,37.3345 L90.0378,41.1335 L89.9888,41.1465 L89.0288,41.4085 L89.0158,41.3595 L88.2848,38.6735 L86.6548,39.1175 L87.4008,41.8525 L87.3518,41.8655 L86.3838,42.1305 L86.3708,42.0815 L85.6378,39.3945 L84.0088,39.8395 L84.7548,42.5735 L84.7058,42.5865 L83.7458,42.8475 Z" id="Fill-541" fill="#000000"></path>
                        <path d="M88.6772,50.0451 C89.4292,50.0171 89.9612,49.4831 89.9362,48.7861 L89.8902,47.5391 L87.2852,47.6351 L87.3312,48.8821 C87.3572,49.5781 87.9252,50.0721 88.6772,50.0451 M88.7162,51.0991 C87.4062,51.1481 86.4362,50.2651 86.3892,48.9811 L86.3412,47.6691 L84.4152,47.7391 L84.3762,46.6851 L90.7962,46.4501 L90.8822,48.8161 C90.9292,50.1001 90.0282,51.0511 88.7162,51.0991" id="Fill-542" fill="#000000"></path>
                        <path d="M87.3374,47.6828 L87.3814,48.8798 C87.4054,49.5348 87.9214,49.9958 88.6174,49.9958 C88.6364,49.9958 88.6554,49.9958 88.6754,49.9958 C89.4004,49.9678 89.9104,49.4598 89.8864,48.7878 L89.8424,47.5908 L87.3374,47.6828 Z M88.6164,50.0958 C87.8644,50.0958 87.3074,49.5948 87.2814,48.8838 L87.2334,47.5868 L87.2834,47.5848 L89.9384,47.4878 L89.9854,48.7848 C90.0124,49.5148 89.4634,50.0658 88.6794,50.0948 C88.6574,50.0958 88.6374,50.0958 88.6164,50.0958 L88.6164,50.0958 Z M86.3894,47.6178 L86.4394,48.9788 C86.4614,49.5858 86.7004,50.1268 87.1124,50.5028 C87.5244,50.8768 88.0934,51.0718 88.7144,51.0488 C89.3354,51.0268 89.8894,50.7908 90.2724,50.3868 C90.6554,49.9828 90.8554,49.4248 90.8324,48.8178 L90.7484,46.5018 L84.4284,46.7328 L84.4634,47.6878 L86.3894,47.6178 Z M88.6154,51.1508 C88.0084,51.1508 87.4534,50.9488 87.0454,50.5768 C86.6124,50.1828 86.3624,49.6178 86.3394,48.9828 L86.2934,47.7208 L84.3674,47.7908 L84.3244,46.6368 L84.3744,46.6348 L90.8444,46.3988 L90.8464,46.4488 L90.9324,48.8138 C90.9554,49.4488 90.7464,50.0318 90.3454,50.4548 C89.9424,50.8788 89.3654,51.1248 88.7184,51.1488 C88.6844,51.1498 88.6494,51.1508 88.6154,51.1508 L88.6154,51.1508 Z" id="Fill-543" fill="#000000"></path>
                        <polygon id="Fill-544" fill="#000000" points="90.8159 52.7287 90.7319 53.7817 84.3239 53.2687 84.4079 52.2157"></polygon>
                        <path d="M84.3774,53.2228 L90.6864,53.7278 L90.7624,52.7748 L84.4534,52.2698 L84.3774,53.2228 Z M90.7774,53.8348 L90.7284,53.8308 L84.2704,53.3148 L84.3614,52.1618 L84.4114,52.1658 L90.8694,52.6828 L90.7774,53.8348 Z" id="Fill-545" fill="#000000"></path>
                        <polygon id="Fill-546" fill="#000000" points="90.4917 56.0676 89.7417 59.8846 88.8137 59.7026 89.3607 56.9216 87.6057 56.5756 87.0587 59.3576 86.1227 59.1726 86.6697 56.3916 84.9137 56.0466 84.3667 58.8286 83.4397 58.6456 84.1907 54.8286"></polygon>
                        <path d="M88.8725,59.6633 L89.7025,59.8263 L90.4335,56.1063 L84.2295,54.8873 L83.4985,58.6063 L84.3275,58.7693 L84.8745,55.9873 L86.7275,56.3523 L86.7185,56.4013 L86.1815,59.1343 L87.0195,59.2993 L87.5665,56.5173 L89.4195,56.8823 L89.4095,56.9313 L88.8725,59.6633 Z M89.7805,59.9433 L88.7555,59.7413 L88.7655,59.6923 L89.3025,56.9603 L87.6445,56.6343 L87.0985,59.4163 L86.0635,59.2123 L86.0735,59.1633 L86.6105,56.4313 L84.9525,56.1043 L84.4055,58.8873 L83.3815,58.6843 L83.3915,58.6363 L84.1515,54.7693 L84.2005,54.7793 L90.5505,56.0283 L90.5405,56.0773 L89.7805,59.9433 Z" id="Fill-547" fill="#000000"></path>
                        <polygon id="Fill-548" fill="#000000" points="89.0932 62.1642 88.7392 63.1592 83.6162 61.3342 82.7512 63.7662 81.8172 63.4332 83.0372 60.0062"></polygon>
                        <path d="M81.8803,63.4025 L82.7213,63.7025 L83.5863,61.2705 L83.6333,61.2875 L88.7093,63.0955 L89.0293,62.1945 L83.0673,60.0695 L81.8803,63.4025 Z M82.7813,63.8295 L81.7533,63.4635 L81.7703,63.4165 L83.0073,59.9425 L83.0543,59.9595 L89.1563,62.1335 L88.7703,63.2225 L88.7233,63.2065 L83.6473,61.3975 L82.7813,63.8295 Z" id="Fill-549" fill="#000000"></path>
                        <polygon id="Fill-550" fill="#232020" points="24.0443 72.6504 74.2733 72.6504 74.2733 63.3154 24.0443 63.3154"></polygon>
                        <path d="M49.1577,77.6564 C35.7637,77.6564 24.8677,66.7604 24.8677,53.3664 C24.8677,39.9724 35.7637,29.0764 49.1577,29.0764 C62.5517,29.0764 73.4477,39.9724 73.4477,53.3664 C73.4477,66.7604 62.5517,77.6564 49.1577,77.6564" id="Fill-551" fill="#FFFFFF"></path>
                        <path d="M49.1577,28.5607 C35.4587,28.5607 24.3527,39.6657 24.3527,53.3657 C24.3527,67.0667 35.4587,78.1717 49.1577,78.1717 C62.8577,78.1717 73.9647,67.0667 73.9647,53.3657 C73.9647,39.6657 62.8577,28.5607 49.1577,28.5607" id="Fill-552" fill="#232020"></path>
                        <path d="M49.1577,29.592 C62.2657,29.592 72.9327,40.257 72.9327,53.365 C72.9327,66.476 62.2657,77.141 49.1577,77.141 C36.0497,77.141 25.3847,66.476 25.3847,53.365 C25.3847,40.257 36.0497,29.592 49.1577,29.592" id="Fill-553" fill="#FFFFFF"></path>
                        <path d="M41.0307,63.9377 C41.0307,66.6257 38.8517,68.8037 36.1647,68.8037 C33.4757,68.8037 31.2967,66.6257 31.2967,63.9377 C31.2967,61.2507 33.4767,59.0707 36.1647,59.0707 C38.8517,59.0717 41.0307,61.2507 41.0307,63.9377" id="Fill-554" fill="#FBDDE8"></path>
                        <path d="M50.7983,61.0646 C50.5773,61.0646 50.3983,60.8846 50.3983,60.6646 C50.3983,59.9796 49.8423,59.4236 49.1583,59.4236 C48.4743,59.4236 47.9183,59.9796 47.9183,60.6646 C47.9183,60.8846 47.7383,61.0646 47.5183,61.0646 C47.2973,61.0646 47.1173,60.8846 47.1173,60.6646 C47.1173,59.5396 48.0333,58.6236 49.1583,58.6236 C50.2833,58.6236 51.1983,59.5396 51.1983,60.6646 C51.1983,60.8846 51.0193,61.0646 50.7983,61.0646" id="Fill-555" fill="#232020"></path>
                        <path d="M49.1586,67.2326 C44.9316,67.2326 44.0156,64.4296 43.9796,64.3106 C43.9146,64.0996 44.0326,63.8766 44.2436,63.8106 C44.4516,63.7426 44.6776,63.8626 44.7436,64.0726 C44.7766,64.1746 45.5516,66.4316 49.1586,66.4316 C52.8006,66.4316 53.5646,64.0976 53.5726,64.0746 C53.6376,63.8626 53.8626,63.7426 54.0726,63.8106 C54.2836,63.8766 54.4016,64.0996 54.3366,64.3106 C54.2996,64.4296 53.3836,67.2326 49.1586,67.2326" id="Fill-556" fill="#232020"></path>
                        <path d="M42.5581,58.342 C40.6001,58.342 39.0091,56.749 39.0091,54.793 C39.0091,52.836 40.6001,51.243 42.5581,51.243 C44.5151,51.243 46.1061,52.836 46.1061,54.793 C46.1061,56.749 44.5151,58.342 42.5581,58.342" id="Fill-557" fill="#FFFFFF"></path>
                        <path d="M42.5581,51.7599 C44.2301,51.7599 45.5911,53.1209 45.5911,54.7939 C45.5911,56.4659 44.2301,57.8249 42.5581,57.8249 C40.8851,57.8249 39.5241,56.4659 39.5241,54.7939 C39.5241,53.1209 40.8851,51.7599 42.5581,51.7599" id="Fill-558" fill="#FFFFFF"></path>
                        <path d="M43.3227,54.3088 C43.3227,53.8918 43.6607,53.5528 44.0787,53.5528 C44.4957,53.5528 44.8327,53.8918 44.8327,54.3088 C44.8327,54.7258 44.4957,55.0648 44.0787,55.0648 C43.6607,55.0648 43.3227,54.7258 43.3227,54.3088" id="Fill-559" fill="#FFFFFF"></path>
                        <path d="M57.2846,63.9377 C57.2846,66.6257 59.4646,68.8037 62.1506,68.8037 C64.8406,68.8037 67.0186,66.6257 67.0186,63.9377 C67.0186,61.2507 64.8406,59.0707 62.1506,59.0707 C59.4646,59.0717 57.2846,61.2507 57.2846,63.9377" id="Fill-560" fill="#FBDDE8"></path>
                        <path d="M55.7583,58.342 C53.8013,58.342 52.2093,56.749 52.2093,54.793 C52.2093,52.836 53.8013,51.243 55.7583,51.243 C57.7153,51.243 59.3063,52.836 59.3063,54.793 C59.3063,56.749 57.7153,58.342 55.7583,58.342" id="Fill-561" fill="#FFFFFF"></path>
                        <path d="M55.7583,51.7599 C57.4303,51.7599 58.7913,53.1209 58.7913,54.7939 C58.7913,56.4659 57.4303,57.8249 55.7583,57.8249 C54.0853,57.8249 52.7253,56.4659 52.7253,54.7939 C52.7253,53.1209 54.0853,51.7599 55.7583,51.7599" id="Fill-562" fill="#FFFFFF"></path>
                        <path d="M55.2973,55.84 C55.2973,55.592 55.4983,55.391 55.7463,55.391 C55.9953,55.391 56.1963,55.592 56.1963,55.84 C56.1963,56.089 55.9953,56.29 55.7463,56.29 C55.4983,56.29 55.2973,56.089 55.2973,55.84" id="Fill-563" fill="#FFFFFF"></path>
                        <path d="M56.5229,54.3088 C56.5229,53.8918 56.8619,53.5528 57.2789,53.5528 C57.6959,53.5528 58.0329,53.8918 58.0329,54.3088 C58.0329,54.7258 57.6959,55.0648 57.2789,55.0648 C56.8619,55.0648 56.5229,54.7258 56.5229,54.3088" id="Fill-564" fill="#FFFFFF"></path>
                        <polygon id="Fill-565" fill="#232020" points="74.2729 72.6506 68.1289 72.6506 68.1289 43.1396 74.2729 49.9056"></polygon>
                        <path d="M28.6684,47.3 L24.0424,49.905 C24.0424,37.259 35.9904,23.334 49.1574,28.56 C62.3244,23.334 74.2724,37.259 74.2724,49.905 L69.6474,47.3 L28.6684,47.3 Z" id="Fill-566" fill="#232020"></path>
                        <polygon id="Fill-567" fill="#232020" points="24.0434 72.6506 30.1874 72.6506 30.1874 43.1396 24.0434 49.9056"></polygon>
                        <path d="M26.6284,79.6867 L25.6454,74.9117 C25.3254,73.1577 25.0664,72.3977 24.3764,70.7577 C26.0354,70.0987 27.1864,70.2947 28.0394,71.5427 C28.4004,72.0737 28.6934,72.8417 28.7784,73.6807 C29.2334,74.1277 29.6294,75.2307 29.8534,75.5457 C30.2404,74.8977 30.5034,73.7127 30.7514,73.4317 L32.2104,65.6877 C32.3484,64.9947 32.5244,64.4187 32.7404,63.9597 C32.9504,63.5117 33.2174,63.2277 33.5404,63.1117 C33.8644,62.9957 34.2464,63.0407 34.6864,63.2467 C35.4514,63.6047 35.7294,64.6927 35.5204,66.5087 L34.8104,72.6907 L37.8694,65.7547 C38.6584,64.0707 39.5864,63.4767 40.6484,63.9747 C41.1844,64.2267 41.4984,64.6027 41.5924,65.1007 C41.6854,65.5997 41.5554,66.2217 41.2064,66.9687 L37.9884,73.8307 L42.5314,68.6227 C43.4604,67.5637 44.3254,67.2227 45.1294,67.5997 C45.5994,67.8197 45.8894,68.1167 45.9994,68.4897 C46.1114,68.8637 46.0414,69.3167 45.7904,69.8527 C45.6594,70.1297 45.3274,70.5877 44.7954,71.2247 L40.5094,76.3607 L44.9124,73.4337 C45.8614,72.8047 46.6054,72.6177 47.1424,72.8687 C47.5054,73.0397 47.7524,73.3157 47.8834,73.6967 C48.0144,74.0787 47.9884,74.4597 47.8104,74.8417 C47.6084,75.2727 47.1344,75.7487 46.3864,76.2737 L41.4124,79.7457 L40.7614,81.5437 C39.4674,83.5547 38.1354,85.0697 36.7654,86.0877 L34.8524,86.9447 L34.1104,88.5247449 C32.8254,88.5287 31.6174,88.2657 30.4874,87.7367 C29.3974,87.2247 28.3614,86.4357 27.3784,85.3687 L28.3424,83.3137 C27.7834,82.3617 27.2124,81.1527 26.6284,79.6867" id="Fill-568" fill="#FFFFFF"></path>
                        <path d="M27.8559,85.2922 C28.7469,86.2202 29.6879,86.9192 30.6579,87.3742 C31.6539,87.8412 32.7299,88.0922 33.8579,88.1212 L34.4899,86.7742 C34.5309,86.6882 34.6009,86.6182 34.6889,86.5792 L36.6019,85.7232 C37.8509,84.7822 39.1629,83.2882 40.4249,81.3272 L41.0369,79.6092 C41.0649,79.5312 41.1159,79.4642 41.1839,79.4172 L46.1579,75.9452 C47.0119,75.3462 47.3309,74.9222 47.4479,74.6732 C47.5829,74.3842 47.6009,74.1072 47.5049,73.8262 C47.4099,73.5492 47.2359,73.3542 46.9719,73.2302 C46.5809,73.0442 45.9409,73.2322 45.1329,73.7672 L40.7309,76.6932 C40.5649,76.8022 40.3439,76.7762 40.2109,76.6272 C40.0789,76.4792 40.0749,76.2572 40.2029,76.1042 L44.4889,70.9692 C45.1219,70.2112 45.3489,69.8512 45.4289,69.6822 C45.6349,69.2412 45.6989,68.8782 45.6169,68.6052 C45.5389,68.3422 45.3239,68.1332 44.9599,67.9622 C44.7299,67.8542 44.0269,67.5232 42.8329,68.8862 L38.2909,74.0932 C38.1589,74.2432 37.9379,74.2752 37.7699,74.1652 C37.6029,74.0572 37.5419,73.8412 37.6269,73.6602 L40.8439,66.7992 C41.1559,66.1312 41.2749,65.5842 41.1989,65.1742 C41.1289,64.8072 40.8939,64.5322 40.4779,64.3372 C40.0689,64.1452 39.7179,64.1612 39.3729,64.3832 C38.9759,64.6382 38.5919,65.1562 38.2319,65.9252 L35.1759,72.8522 C35.0959,73.0322 34.8949,73.1312 34.7059,73.0762 C34.5139,73.0242 34.3899,72.8412 34.4129,72.6452 L35.1229,66.4632 C35.2509,65.3512 35.2499,63.9512 34.5159,63.6082 C34.1779,63.4492 33.8969,63.4072 33.6749,63.4882 C33.4589,63.5652 33.2659,63.7822 33.1029,64.1302 C32.9019,64.5582 32.7329,65.1082 32.6029,65.7662 L31.1449,73.5062 C31.1309,73.5762 31.0989,73.6432 31.0509,73.6962 C30.9779,73.7832 30.8399,74.1762 30.7399,74.4632 C30.5859,74.8962 30.4149,75.3872 30.1969,75.7512 C30.1269,75.8672 30.0029,75.9402 29.8689,75.9452 C29.7219,75.9822 29.6049,75.8872 29.5269,75.7772 C29.4389,75.6532 29.3249,75.4222 29.1949,75.1502 C29.0029,74.7522 28.7419,74.2052 28.4989,73.9662 C28.4319,73.9002 28.3899,73.8132 28.3799,73.7212 C28.3079,72.9992 28.0629,72.2872 27.7099,71.7692 C27.0439,70.7962 26.2179,70.5562 24.9069,70.9902 C25.4909,72.4042 25.7429,73.2132 26.0389,74.8402 L27.0129,79.5712 C27.5829,80.9972 28.1459,82.1882 28.6869,83.1112 C28.7539,83.2252 28.7599,83.3642 28.7049,83.4832 L27.8559,85.2922 Z M34.0839,88.9252 C32.7539,88.9252 31.4879,88.6462 30.3179,88.0992 C29.1869,87.5672 28.0989,86.7402 27.0849,85.6402 C26.9739,85.5202 26.9469,85.3462 27.0159,85.1982 L27.8909,83.3332 C27.3579,82.3962 26.8089,81.2212 26.2559,79.8352 C26.2489,79.8132 26.2419,79.7902 26.2369,79.7682 L25.2529,74.9922 C24.9399,73.2742 24.6939,72.5432 24.0079,70.9132 C23.9659,70.8142 23.9659,70.7022 24.0069,70.6042 C24.0489,70.5042 24.1279,70.4262 24.2289,70.3862 C26.1059,69.6392 27.4229,69.9352 28.3699,71.3172 C28.7739,71.9102 29.0589,72.7012 29.1619,73.5052 C29.4189,73.8052 29.6419,74.2372 29.8309,74.6272 C29.8839,74.4832 29.9349,74.3372 29.9849,74.1972 C30.1369,73.7632 30.2469,73.4642 30.3759,73.2682 L31.8169,65.6132 C31.9609,64.8892 32.1499,64.2762 32.3779,63.7902 C32.6349,63.2432 32.9799,62.8882 33.4049,62.7352 C33.8339,62.5832 34.3209,62.6342 34.8559,62.8842 C35.8029,63.3272 36.1509,64.5282 35.9179,66.5552 L35.5079,70.1162 L37.5029,65.5942 C37.9389,64.6652 38.4079,64.0512 38.9409,63.7092 C39.5169,63.3412 40.1689,63.3092 40.8179,63.6122 C41.4739,63.9212 41.8669,64.3962 41.9859,65.0262 C42.0939,65.6132 41.9589,66.3042 41.5689,67.1382 L39.5609,71.4192 L42.2299,68.3592 C43.2889,67.1542 44.3219,66.7802 45.2989,67.2372 C45.8749,67.5072 46.2389,67.8902 46.3829,68.3762 C46.5229,68.8422 46.4459,69.3962 46.1529,70.0222 C46.0049,70.3352 45.6619,70.8122 45.1019,71.4812 L42.5799,74.5042 L44.6909,73.1012 C45.7769,72.3822 46.6339,72.1882 47.3109,72.5062 C47.7749,72.7242 48.0949,73.0812 48.2609,73.5662 C48.4259,74.0472 48.3959,74.5332 48.1719,75.0122 C47.9389,75.5102 47.4299,76.0302 46.6159,76.6012 L41.7459,80.0012 L41.1369,81.6802 C39.7839,83.8032 38.4059,85.3662 37.0029,86.4092 L35.1519,87.2482 L34.4729,88.6942 C34.4039,88.8442 34.2369,88.9352 34.0839,88.9252 L34.0839,88.9252 Z" id="Fill-569" fill="#232020"></path>
                        <path d="M71.9467,83.3127 L72.9097,85.3687 C71.9277,86.4357 70.8907,87.2247 69.8007,87.7367 C68.6717,88.2657 67.4637,88.5287 66.1777,88.5247449 L65.4357,86.9437 L63.5237,86.0877 C62.1547,85.0697 60.8227,83.5547 59.5267,81.5437 L58.8757,79.7457 L53.9017,76.2737 C53.1537,75.7497 52.6787,75.2727 52.4777,74.8417 C52.2997,74.4597 52.2737,74.0787 52.4047,73.6967 C52.5357,73.3147 52.7847,73.0397 53.1477,72.8687 C53.6837,72.6167 54.4267,72.8047 55.3767,73.4337 L59.7807,76.3607 L55.4937,71.2257 C54.9617,70.5877 54.6297,70.1297 54.4997,69.8527 C54.2487,69.3167 54.1777,68.8637 54.2897,68.4897 C54.3997,68.1167 54.6907,67.8197 55.1587,67.5997 C55.9627,67.2217 56.8297,67.5637 57.7567,68.6247 L62.3007,73.8307 L59.0837,66.9687 C58.7327,66.2217 58.6037,65.5997 58.6977,65.0997 C58.7897,64.6017 59.1037,64.2267 59.6397,63.9747 C60.7037,63.4767 61.6297,64.0697 62.4187,65.7547 L65.4777,72.6897 L64.7677,66.5077 C64.5587,64.6927 64.8367,63.6057 65.6017,63.2467 C66.0417,63.0397 66.4257,62.9957 66.7477,63.1117 C67.0707,63.2277 67.3387,63.5117 67.5497,63.9597 C67.7637,64.4187 67.9397,64.9947 68.0777,65.6877 L69.5377,73.4327 C69.7867,73.7117 70.0497,74.8967 70.4347,75.5447 C70.6597,75.2307 71.0537,74.1277 71.5107,73.6807 C71.5957,72.8417 71.8867,72.0737 72.2497,71.5427 C73.1017,70.2947 74.2527,70.0987 75.9117,70.7577 C75.2227,72.3977 74.9647,73.1567 74.6437,74.9117 L73.6607,79.6867 C73.0757,81.1517 72.5047,82.3617 71.9467,83.3127" id="Fill-570" fill="#FFFFFF"></path>
                        <path d="M53.6586,73.1613 C53.5306,73.1613 53.4166,73.1833 53.3176,73.2303 C53.0536,73.3543 52.8776,73.5503 52.7826,73.8263 C52.6866,74.1073 52.7056,74.3843 52.8406,74.6723 C52.9576,74.9223 53.2756,75.3463 54.1316,75.9463 L59.1036,79.4173 C59.1726,79.4643 59.2226,79.5313 59.2516,79.6093 L59.9026,81.4083 C61.1276,83.2893 62.4386,84.7823 63.7626,85.7663 L65.5986,86.5783 C65.6866,86.6173 65.7576,86.6863 65.7986,86.7733 L66.4306,88.1213 C67.5586,88.0923 68.6346,87.8413 69.6306,87.3743 C70.6026,86.9183 71.5456,86.2183 72.4316,85.2923 L71.5846,83.4823 C71.5286,83.3633 71.5346,83.2243 71.6016,83.1103 C72.1446,82.1833 72.7126,80.9813 73.2896,79.5383 L74.2526,74.8303 C74.5476,73.2143 74.7996,72.4063 75.3816,70.9903 C74.0716,70.5563 73.2436,70.7963 72.5796,71.7683 C72.2266,72.2853 71.9826,72.9973 71.9096,73.7213 C71.8996,73.8143 71.8576,73.9013 71.7906,73.9673 C71.5476,74.2053 71.2856,74.7503 71.0956,75.1483 C70.9646,75.4213 70.8486,75.6533 70.7606,75.7773 C70.6816,75.8883 70.5486,75.9453 70.4186,75.9443 C70.2836,75.9383 70.1606,75.8653 70.0916,75.7493 C69.8756,75.3883 69.7046,74.8993 69.5536,74.4703 C69.4516,74.1813 69.3126,73.7863 69.2386,73.6983 C69.1936,73.6453 69.1576,73.5743 69.1436,73.5073 L67.6836,65.7623 C67.5546,65.1063 67.3876,64.5573 67.1866,64.1303 C67.0236,63.7823 66.8306,63.5663 66.6116,63.4873 C66.3906,63.4093 66.1086,63.4493 65.7726,63.6083 C65.0386,63.9523 65.0376,65.3503 65.1656,66.4623 L65.8756,72.6433 C65.8976,72.8403 65.7736,73.0233 65.5826,73.0753 C65.3916,73.1273 65.1916,73.0313 65.1116,72.8503 L62.0526,65.9163 C61.6956,65.1553 61.3126,64.6373 60.9166,64.3833 C60.5676,64.1603 60.2166,64.1443 59.8096,64.3373 C59.3936,64.5323 59.1586,64.8063 59.0916,65.1723 C59.0126,65.5863 59.1336,66.1333 59.4456,66.7993 L62.6626,73.6603 C62.7476,73.8413 62.6856,74.0573 62.5186,74.1653 C62.3516,74.2753 62.1306,74.2433 61.9986,74.0933 L57.4546,68.8873 C56.2626,67.5223 55.5586,67.8503 55.3286,67.9623 C54.9646,68.1333 54.7506,68.3433 54.6736,68.6023 C54.5916,68.8783 54.6546,69.2413 54.8616,69.6823 C54.9396,69.8503 55.1666,70.2103 55.8006,70.9703 L60.0876,76.1033 C60.2156,76.2573 60.2116,76.4793 60.0786,76.6273 C59.9466,76.7753 59.7266,76.8043 59.5586,76.6933 L55.1546,73.7663 C54.5496,73.3653 54.0416,73.1613 53.6586,73.1613 M66.2056,88.9255044 C66.0366,88.9303 65.8866,88.8433 65.8156,88.6943 L65.1376,87.2483 L63.3606,86.4533 C61.8846,85.3673 60.5076,83.8033 59.1906,81.7613 L58.5436,80.0013 L53.6736,76.6013 C52.8576,76.0303 52.3486,75.5103 52.1156,75.0113 C51.8916,74.5333 51.8616,74.0473 52.0266,73.5663 C52.1926,73.0823 52.5126,72.7243 52.9776,72.5063 C53.6546,72.1883 54.5126,72.3823 55.5966,73.1003 L57.7096,74.5043 L55.1866,71.4823 C54.6256,70.8103 54.2826,70.3333 54.1376,70.0223 C53.8446,69.3973 53.7666,68.8433 53.9056,68.3753 C54.0496,67.8903 54.4136,67.5083 54.9886,67.2373 C55.9676,66.7783 57.0016,67.1523 58.0566,68.3603 L60.7296,71.4223 L58.7206,67.1393 C58.3306,66.3063 58.1936,65.6143 58.3046,65.0263 C58.4206,64.3973 58.8126,63.9223 59.4706,63.6123 C60.1226,63.3073 60.7716,63.3403 61.3476,63.7093 C61.8816,64.0513 62.3486,64.6643 62.7806,65.5853 L64.7796,70.1163 L64.3706,66.5543 C64.1376,64.5293 64.4846,63.3293 65.4316,62.8843 C65.9686,62.6323 66.4556,62.5803 66.8836,62.7353 C67.3076,62.8883 67.6536,63.2423 67.9116,63.7903 C68.1386,64.2753 68.3266,64.8883 68.4706,65.6093 L69.9136,73.2673 C70.0436,73.4653 70.1536,73.7663 70.3066,74.2043 C70.3556,74.3413 70.4056,74.4843 70.4586,74.6253 C70.6466,74.2363 70.8696,73.8053 71.1286,73.5053 C71.2306,72.6983 71.5156,71.9073 71.9196,71.3173 C72.8636,69.9353 74.1796,69.6393 76.0586,70.3863 C76.1586,70.4263 76.2386,70.5043 76.2806,70.6023 C76.3216,70.7023 76.3216,70.8133 76.2806,70.9133 C75.5956,72.5453 75.3486,73.2763 75.0376,74.9833 L74.0526,79.7673 C73.4786,81.2193 72.9286,82.3983 72.3976,83.3323 L73.2716,85.1983 C73.3406,85.3463 73.3136,85.5193 73.2046,85.6393 C72.1926,86.7383 71.1046,87.5663 69.9706,88.0993 C68.8016,88.6463 67.5346,88.9255044 66.2056,88.9255044" id="Fill-571" fill="#232020"></path>
                        <path d="M50.7983,61.0646 C50.5773,61.0646 50.3983,60.8846 50.3983,60.6646 C50.3983,59.9796 49.8413,59.4236 49.1573,59.4236 C48.4743,59.4236 47.9183,59.9796 47.9183,60.6646 C47.9183,60.8846 47.7383,61.0646 47.5183,61.0646 C47.2973,61.0646 47.1173,60.8846 47.1173,60.6646 C47.1173,59.5396 48.0323,58.6236 49.1573,58.6236 C50.2823,58.6236 51.1983,59.5396 51.1983,60.6646 C51.1983,60.8846 51.0193,61.0646 50.7983,61.0646" id="Fill-572" fill="#232020"></path>
                        <path d="M50.7983,61.0646 C50.5773,61.0646 50.3983,60.8846 50.3983,60.6646 C50.3983,59.9796 49.8413,59.4236 49.1573,59.4236 C48.4743,59.4236 47.9183,59.9796 47.9183,60.6646 C47.9183,60.8846 47.7383,61.0646 47.5183,61.0646 C47.2973,61.0646 47.1173,60.8846 47.1173,60.6646 C47.1173,59.5396 48.0323,58.6236 49.1573,58.6236 C50.2823,58.6236 51.1983,59.5396 51.1983,60.6646 C51.1983,60.8846 51.0193,61.0646 50.7983,61.0646" id="Fill-573" fill="#232020"></path>
                        <path d="M42.5571,56.3693 C40.3621,56.3693 38.6411,55.1603 38.6411,53.6183 C38.6411,53.3973 38.8211,53.2183 39.0411,53.2183 C39.2621,53.2183 39.4421,53.3973 39.4421,53.6183 C39.4421,54.6763 40.8691,55.5683 42.5571,55.5683 C44.2461,55.5683 45.6741,54.6763 45.6741,53.6183 C45.6741,53.3973 45.8541,53.2183 46.0751,53.2183 C46.2951,53.2183 46.4751,53.3973 46.4751,53.6183 C46.4751,55.1603 44.7531,56.3693 42.5571,56.3693" id="Fill-574" fill="#232020"></path>
                        <path d="M38.2719,55.548 C38.1189,55.548 37.9719,55.459 37.9059,55.309 C37.8169,55.107 37.9089,54.871 38.1109,54.781 L39.2369,54.284 C39.4379,54.198 39.6749,54.286 39.7639,54.489 C39.8529,54.692 39.7609,54.927 39.5589,55.017 L38.4329,55.514 C38.3809,55.536 38.3259,55.548 38.2719,55.548" id="Fill-575" fill="#232020"></path>
                        <path d="M39.8725,57.3263 C39.7905,57.3263 39.7075,57.3013 39.6365,57.2493 C39.4585,57.1183 39.4195,56.8683 39.5495,56.6893 L40.4785,55.4183 C40.6105,55.2413 40.8595,55.2013 41.0385,55.3313 C41.2165,55.4623 41.2555,55.7123 41.1255,55.8903 L40.1955,57.1623 C40.1165,57.2683 39.9955,57.3263 39.8725,57.3263" id="Fill-576" fill="#232020"></path>
                        <path d="M42.5581,57.8166 C42.3371,57.8166 42.1581,57.6366 42.1581,57.4166 L42.1581,55.9686 C42.1581,55.7486 42.3371,55.5686 42.5581,55.5686 C42.7791,55.5686 42.9581,55.7486 42.9581,55.9686 L42.9581,57.4166 C42.9581,57.6366 42.7791,57.8166 42.5581,57.8166" id="Fill-577" fill="#232020"></path>
                        <path d="M46.8442,55.547 C46.7902,55.547 46.7362,55.536 46.6832,55.513 L45.5562,55.017 C45.3542,54.928 45.2622,54.692 45.3512,54.489 C45.4412,54.287 45.6732,54.193 45.8782,54.284 L47.0052,54.78 C47.2072,54.869 47.2992,55.106 47.2102,55.308 C47.1442,55.457 46.9972,55.547 46.8442,55.547" id="Fill-578" fill="#232020"></path>
                        <path d="M45.2436,57.3254 C45.1206,57.3254 44.9996,57.2684 44.9216,57.1614 L43.9906,55.8904 C43.8596,55.7134 43.8976,55.4624 44.0766,55.3324 C44.2546,55.1994 44.5046,55.2384 44.6356,55.4184 L45.5656,56.6884 C45.6966,56.8664 45.6586,57.1174 45.4796,57.2474 C45.4086,57.3004 45.3256,57.3254 45.2436,57.3254" id="Fill-579" fill="#232020"></path>
                        <path d="M55.7573,56.3693 C53.5613,56.3693 51.8403,55.1603 51.8403,53.6183 C51.8403,53.3973 52.0203,53.2183 52.2403,53.2183 C52.4613,53.2183 52.6413,53.3973 52.6413,53.6183 C52.6413,54.6763 54.0683,55.5683 55.7573,55.5683 C57.4463,55.5683 58.8743,54.6763 58.8743,53.6183 C58.8743,53.3973 59.0543,53.2183 59.2753,53.2183 C59.4953,53.2183 59.6753,53.3973 59.6753,53.6183 C59.6753,55.1603 57.9533,56.3693 55.7573,56.3693" id="Fill-580" fill="#232020"></path>
                        <path d="M60.0444,55.548 C59.9904,55.548 59.9364,55.537 59.8834,55.514 L58.7554,55.017 C58.5534,54.928 58.4614,54.692 58.5504,54.489 C58.6394,54.287 58.8724,54.197 59.0774,54.284 L60.2054,54.781 C60.4074,54.87 60.4994,55.107 60.4104,55.309 C60.3444,55.458 60.1974,55.548 60.0444,55.548" id="Fill-581" fill="#232020"></path>
                        <path d="M58.4438,57.3263 C58.3208,57.3263 58.1998,57.2693 58.1208,57.1623 L57.1898,55.8903 C57.0598,55.7123 57.0988,55.4623 57.2768,55.3313 C57.4548,55.2013 57.7038,55.2383 57.8368,55.4183 L58.7668,56.6893 C58.8968,56.8683 58.8578,57.1183 58.6798,57.2493 C58.6088,57.3013 58.5258,57.3263 58.4438,57.3263" id="Fill-582" fill="#232020"></path>
                        <path d="M51.4721,55.548 C51.3191,55.548 51.1721,55.459 51.1061,55.309 C51.0171,55.107 51.1091,54.871 51.3111,54.781 L52.4371,54.284 C52.6371,54.198 52.8741,54.286 52.9641,54.489 C53.0531,54.692 52.9611,54.927 52.7591,55.017 L51.6331,55.514 C51.5811,55.536 51.5261,55.548 51.4721,55.548" id="Fill-583" fill="#232020"></path>
                        <path d="M53.0727,57.3263 C52.9907,57.3263 52.9077,57.3013 52.8367,57.2493 C52.6587,57.1183 52.6197,56.8683 52.7497,56.6893 L53.6797,55.4183 C53.8117,55.2393 54.0617,55.2013 54.2397,55.3313 C54.4177,55.4623 54.4567,55.7123 54.3267,55.8903 L53.3957,57.1623 C53.3167,57.2693 53.1957,57.3263 53.0727,57.3263" id="Fill-584" fill="#232020"></path>
                        <path d="M55.7583,57.8166 C55.5373,57.8166 55.3583,57.6366 55.3583,57.4166 L55.3583,55.9686 C55.3583,55.7486 55.5373,55.5686 55.7583,55.5686 C55.9793,55.5686 56.1583,55.7486 56.1583,55.9686 L56.1583,57.4166 C56.1583,57.6366 55.9793,57.8166 55.7583,57.8166" id="Fill-585" fill="#232020"></path>
                    </g>
                </g>
            </g>
        </g>
    </g>
</svg>