<?xml version="1.0" encoding="UTF-8"?>
<svg width="162px" height="45px" viewBox="0 0 162 45" version="1.1" xmlns="http://www.w3.org/2000/svg" xmlns:xlink="http://www.w3.org/1999/xlink">
    <!-- Generator: Sketch 57.1 (83088) - https://sketch.com -->
    <title>Parabenos</title>
    <desc>Created with Sketch.</desc>
    <g id="Page-1" stroke="none" stroke-width="1" fill="none" fill-rule="evenodd">
        <g id="Home" transform="translate(-991.000000, -3890.000000)">
            <g id="no-contiene" transform="translate(0.000000, 3701.000000)">
                <g id="stickers" transform="translate(71.000000, 20.000000)">
                    <g id="Parabenos" transform="translate(920.979200, 169.691000)">
                        <polygon id="Fill-109" fill="#232020" points="0.3753 20.2943 0.3753 3.4443 9.1793 3.4443 9.1793 14.4503 19.8053 14.4503 19.8053 20.2943"></polygon>
                        <path d="M0.7503,19.9193 L19.4303,19.9193 L19.4303,14.8253 L9.1793,14.8253 C8.9723,14.8253 8.8043,14.6573 8.8043,14.4503 L8.8043,3.8193 L0.7503,3.8193 L0.7503,19.9193 Z M19.8053,20.6693 L0.3753,20.6693 C0.1683,20.6693 0.000299999996,20.5013 0.000299999996,20.2943 L0.000299999996,3.4443 C0.000299999996,3.2373 0.1683,3.0693 0.3753,3.0693 L9.1793,3.0693 C9.3863,3.0693 9.5543,3.2373 9.5543,3.4443 L9.5543,14.0753 L19.8053,14.0753 C20.0123,14.0753 20.1803,14.2433 20.1803,14.4503 L20.1803,20.2943 C20.1803,20.5013 20.0123,20.6693 19.8053,20.6693 L19.8053,20.6693 Z" id="Fill-111" fill="#232020"></path>
                        <path d="M21.0918,20.294 L28.0488,20.294 L28.0488,6.911 L21.0918,6.911 L21.0918,20.294 Z M21.0918,6.102 L28.0488,6.102 L28.0488,2.484 L21.0918,2.484 L21.0918,6.102 Z" id="Fill-113" fill="#232020"></path>
                        <path d="M21.4668,5.727 L27.6738,5.727 L27.6738,2.859 L21.4668,2.859 L21.4668,5.727 Z M28.0488,6.477 L21.0918,6.477 C20.8848,6.477 20.7168,6.309 20.7168,6.102 L20.7168,2.484 C20.7168,2.277 20.8848,2.109 21.0918,2.109 L28.0488,2.109 C28.2558,2.109 28.4238,2.277 28.4238,2.484 L28.4238,6.102 C28.4238,6.309 28.2558,6.477 28.0488,6.477 L28.0488,6.477 Z M21.4668,19.919 L27.6738,19.919 L27.6738,7.286 L21.4668,7.286 L21.4668,19.919 Z M28.0488,20.669 L21.0918,20.669 C20.8848,20.669 20.7168,20.501 20.7168,20.294 L20.7168,6.911 C20.7168,6.704 20.8848,6.536 21.0918,6.536 L28.0488,6.536 C28.2558,6.536 28.4238,6.704 28.4238,6.911 L28.4238,20.294 C28.4238,20.501 28.2558,20.669 28.0488,20.669 L28.0488,20.669 Z" id="Fill-115" fill="#232020"></path>
                        <path d="M39.5843,13.2357 C39.5843,11.4147 39.0283,10.5797 38.1933,10.5797 C37.3333,10.5797 36.7763,11.4147 36.7763,13.2357 L36.7763,14.0197 C36.7763,15.8167 37.3333,16.6757 38.1933,16.6757 C39.0283,16.6757 39.5843,15.8167 39.5843,14.0197 L39.5843,13.2357 Z M39.6093,20.5217 C38.0413,20.5217 36.3713,19.7887 35.4863,18.5477 L35.0563,20.2947 L29.9203,20.2947 L29.9203,2.8127 L36.8773,2.8127 L36.8773,8.1257 C37.8903,7.1647 39.0533,6.6827 40.6723,6.6827 C44.1133,6.6827 46.5673,9.4157 46.5673,13.3627 L46.5673,13.5137 C46.5673,17.3597 44.1633,20.5217 39.6093,20.5217 L39.6093,20.5217 Z" id="Fill-116" fill="#232020"></path>
                        <path d="M38.1937,10.9544 C37.2877,10.9544 37.1517,12.3844 37.1517,13.2354 L37.1517,14.0194 C37.1517,14.7054 37.2537,16.3014 38.1937,16.3014 C39.1097,16.3014 39.2097,14.7054 39.2097,14.0194 L39.2097,13.2354 C39.2097,12.5504 39.1097,10.9544 38.1937,10.9544 M38.1937,17.0514 C37.6547,17.0514 36.4017,16.7564 36.4017,14.0194 L36.4017,13.2354 C36.4017,10.5984 37.5247,10.2044 38.1937,10.2044 C38.8527,10.2044 39.9597,10.5984 39.9597,13.2354 L39.9597,14.0194 C39.9597,16.7564 38.7247,17.0514 38.1937,17.0514 M35.4867,18.1724 C35.6067,18.1724 35.7207,18.2294 35.7927,18.3304 C36.5677,19.4164 38.1007,20.1464 39.6097,20.1464 C43.6087,20.1464 46.1927,17.5434 46.1927,13.5144 L46.1927,13.3624 C46.1927,9.6504 43.9227,7.0584 40.6727,7.0584 C39.2027,7.0584 38.1117,7.4714 37.1357,8.3974 C37.0267,8.5004 36.8677,8.5294 36.7287,8.4704 C36.5907,8.4114 36.5027,8.2754 36.5027,8.1254 L36.5027,3.1874 L30.2957,3.1874 L30.2957,19.9194 L34.7617,19.9194 L35.1227,18.4584 C35.1577,18.3154 35.2717,18.2074 35.4167,18.1794 C35.4397,18.1754 35.4637,18.1724 35.4867,18.1724 M39.6097,20.8964 C38.1227,20.8964 36.6547,20.3044 35.6767,19.3444 L35.4207,20.3844 C35.3797,20.5524 35.2287,20.6694 35.0557,20.6694 L29.9207,20.6694 C29.7137,20.6694 29.5457,20.5014 29.5457,20.2944 L29.5457,2.8124 C29.5457,2.6054 29.7137,2.4374 29.9207,2.4374 L36.8777,2.4374 C37.0847,2.4374 37.2527,2.6054 37.2527,2.8124 L37.2527,7.3264 C38.2167,6.6344 39.3227,6.3084 40.6727,6.3084 C44.3647,6.3084 46.9427,9.2084 46.9427,13.3624 L46.9427,13.5144 C46.9427,17.9304 43.9967,20.8964 39.6097,20.8964" id="Fill-117" fill="#232020"></path>
                        <path d="M54.9642,14.7034 L54.9642,20.2944 L47.9822,20.2944 L47.9822,6.9114 L54.4582,6.9114 L54.7362,10.1494 C55.4952,7.3914 57.5202,5.9494 60.8842,7.0374 L60.3532,12.8064 C56.4322,11.5914 54.9642,12.6284 54.9642,14.7034" id="Fill-118" fill="#232020"></path>
                        <path d="M48.3567,19.9193 L54.5887,19.9193 L54.5887,14.7033 C54.5887,13.6823 54.9147,12.9243 55.5567,12.4503 C56.4597,11.7853 57.9597,11.7403 60.0207,12.3163 L60.4817,7.3073 C59.1157,6.9183 57.9627,6.9683 57.0537,7.4583 C56.1287,7.9583 55.4707,8.8973 55.0987,10.2493 C55.0497,10.4243 54.9027,10.5473 54.7027,10.5233 C54.5207,10.5073 54.3777,10.3623 54.3627,10.1823 L54.1137,7.2863 L48.3567,7.2863 L48.3567,19.9193 Z M54.9637,20.6693 L47.9817,20.6693 C47.7747,20.6693 47.6067,20.5013 47.6067,20.2943 L47.6067,6.9113 C47.6067,6.7043 47.7747,6.5363 47.9817,6.5363 L54.4587,6.5363 C54.6537,6.5363 54.8157,6.6853 54.8327,6.8793 L54.9767,8.5543 C55.4157,7.7723 55.9967,7.1763 56.6977,6.7973 C57.8577,6.1733 59.3047,6.1313 60.9997,6.6803 C61.1667,6.7343 61.2737,6.8973 61.2577,7.0713 L60.7267,12.8403 C60.7157,12.9533 60.6557,13.0553 60.5617,13.1183 C60.4677,13.1813 60.3497,13.1993 60.2417,13.1643 C58.2217,12.5403 56.7547,12.5013 56.0027,13.0553 C55.5627,13.3793 55.3387,13.9343 55.3387,14.7033 L55.3387,20.2943 C55.3387,20.5013 55.1707,20.6693 54.9637,20.6693 L54.9637,20.6693 Z" id="Fill-119" fill="#232020"></path>
                        <path d="M71.1536,12.7044 C71.1536,11.7684 70.8246,10.7564 69.8126,10.7564 C68.8266,10.7564 68.4976,11.7684 68.4976,12.7044 L68.4976,12.7804 L71.1536,12.7804 L71.1536,12.7044 Z M69.8126,20.5214 C64.2986,20.5214 61.4136,17.5364 61.4136,13.6904 L61.4136,13.5394 C61.4136,9.6934 64.2986,6.6834 69.8126,6.6834 C75.3286,6.6834 77.8576,9.6934 77.8576,13.3114 L77.8576,14.5514 L68.4976,14.5514 L68.4976,14.7784 C68.4976,15.9934 69.4596,16.4234 71.0026,16.4234 C72.6216,16.4234 73.8606,16.1444 75.2266,15.7404 L77.0986,18.4474 C75.3536,19.6614 73.1526,20.5214 69.8126,20.5214 L69.8126,20.5214 Z" id="Fill-120" fill="#232020"></path>
                        <path d="M68.886,12.4056 L70.766,12.4056 C70.721,11.8776 70.531,11.1316 69.813,11.1316 C69.113,11.1316 68.931,11.9086 68.886,12.4056 M71.154,13.1556 L68.497,13.1556 C68.29,13.1556 68.122,12.9876 68.122,12.7806 C68.122,11.2706 68.77,10.3816 69.813,10.3816 C70.871,10.3816 71.529,11.2706 71.529,12.7046 L71.529,12.7806 C71.529,12.9876 71.361,13.1556 71.154,13.1556 M69.813,7.0576 C64.864,7.0576 61.788,9.5416 61.788,13.5396 L61.788,13.6906 C61.788,17.6736 64.864,20.1466 69.813,20.1466 C72.52,20.1466 74.679,19.5736 76.573,18.3476 L75.072,16.1766 C73.758,16.5526 72.537,16.7986 71.002,16.7986 C69.091,16.7986 68.122,16.1196 68.122,14.7786 L68.122,14.5516 C68.122,14.3436 68.29,14.1766 68.497,14.1766 L77.483,14.1766 L77.483,13.3116 C77.483,9.4546 74.543,7.0576 69.813,7.0576 M69.813,20.8966 C64.483,20.8966 61.038,18.0686 61.038,13.6906 L61.038,13.5396 C61.038,9.1456 64.483,6.3076 69.813,6.3076 C76.021,6.3076 78.233,9.9266 78.233,13.3116 L78.233,14.5516 C78.233,14.7586 78.065,14.9266 77.858,14.9266 L68.878,14.9266 C68.923,15.5036 69.274,16.0486 71.002,16.0486 C72.554,16.0486 73.729,15.7926 75.12,15.3806 C75.277,15.3386 75.444,15.3946 75.535,15.5266 L77.407,18.2336 C77.526,18.4046 77.484,18.6376 77.314,18.7566 C75.213,20.2176 72.829,20.8966 69.813,20.8966" id="Fill-121" fill="#232020"></path>
                        <path d="M94.7796,13.2611 C94.7796,11.4651 94.2486,10.6051 93.3876,10.6051 C92.5286,10.6051 91.9966,11.4651 91.9966,13.2611 L91.9966,14.0711 C91.9966,15.8661 92.5286,16.7011 93.3876,16.7011 C94.2486,16.7011 94.7796,15.8661 94.7796,14.0711 L94.7796,13.2611 Z M96.3226,20.2941 L96.1206,18.5731 C95.1846,19.6871 93.7426,20.5221 91.8706,20.5221 C87.3166,20.5221 85.0136,17.3851 85.0136,13.5391 L85.0136,13.4131 C85.0136,9.6431 87.6456,6.6831 91.1626,6.6831 C92.8056,6.6831 93.7676,7.1141 94.7036,7.9231 L94.7036,2.8131 L101.6616,2.8131 L101.6616,20.2941 L96.3226,20.2941 Z" id="Fill-122" fill="#232020"></path>
                        <path d="M93.388,10.9798 C92.504,10.9798 92.371,12.4098 92.371,13.2608 L92.371,14.0708 C92.371,14.9138 92.504,16.3268 93.388,16.3268 C94.272,16.3268 94.405,14.9138 94.405,14.0708 L94.405,13.2608 C94.405,12.4098 94.272,10.9798 93.388,10.9798 M93.388,17.0768 C92.728,17.0768 91.621,16.6868 91.621,14.0708 L91.621,13.2608 C91.621,10.6238 92.728,10.2298 93.388,10.2298 C94.048,10.2298 95.155,10.6238 95.155,13.2608 L95.155,14.0708 C95.155,16.6868 94.048,17.0768 93.388,17.0768 M91.162,7.0578 C87.871,7.0578 85.389,9.7908 85.389,13.4138 L85.389,13.5398 C85.389,17.5528 87.933,20.1468 91.87,20.1468 C93.443,20.1468 94.85,19.5018 95.833,18.3328 C95.929,18.2168 96.086,18.1688 96.228,18.2138 C96.371,18.2568 96.476,18.3808 96.493,18.5298 L96.657,19.9188 L101.286,19.9188 L101.286,3.1878 L95.078,3.1878 L95.078,7.9228 C95.078,8.0698 94.993,8.2038 94.86,8.2648 C94.725,8.3248 94.569,8.3008 94.457,8.2078 C93.661,7.5178 92.795,7.0578 91.162,7.0578 M91.87,20.8968 C87.477,20.8968 84.639,18.0088 84.639,13.5398 L84.639,13.4138 C84.639,9.3628 87.443,6.3078 91.162,6.3078 C92.458,6.3078 93.425,6.5618 94.328,7.1638 L94.328,2.8128 C94.328,2.6058 94.496,2.4378 94.703,2.4378 L101.661,2.4378 C101.868,2.4378 102.036,2.6058 102.036,2.8128 L102.036,20.2938 C102.036,20.5008 101.868,20.6688 101.661,20.6688 L96.323,20.6688 C96.132,20.6688 95.972,20.5278 95.95,20.3378 L95.84,19.4048 C94.767,20.3728 93.385,20.8968 91.87,20.8968" id="Fill-123" fill="#232020"></path>
                        <path d="M112.6136,12.7044 C112.6136,11.7684 112.2846,10.7564 111.2726,10.7564 C110.2856,10.7564 109.9576,11.7684 109.9576,12.7044 L109.9576,12.7804 L112.6136,12.7804 L112.6136,12.7044 Z M111.2726,20.5214 C105.7576,20.5214 102.8736,17.5364 102.8736,13.6904 L102.8736,13.5394 C102.8736,9.6934 105.7576,6.6834 111.2726,6.6834 C116.7876,6.6834 119.3176,9.6934 119.3176,13.3114 L119.3176,14.5514 L109.9576,14.5514 L109.9576,14.7784 C109.9576,15.9934 110.9186,16.4234 112.4616,16.4234 C114.0806,16.4234 115.3206,16.1444 116.6866,15.7404 L118.5586,18.4474 C116.8126,19.6614 114.6116,20.5214 111.2726,20.5214 L111.2726,20.5214 Z" id="Fill-124" fill="#232020"></path>
                        <path d="M110.346,12.4056 L112.226,12.4056 C112.181,11.8776 111.991,11.1316 111.273,11.1316 C110.573,11.1316 110.391,11.9086 110.346,12.4056 M112.614,13.1556 L109.957,13.1556 C109.75,13.1556 109.582,12.9876 109.582,12.7806 C109.582,11.2706 110.23,10.3816 111.273,10.3816 C112.331,10.3816 112.989,11.2706 112.989,12.7046 L112.989,12.7806 C112.989,12.9876 112.821,13.1556 112.614,13.1556 M111.273,7.0576 C106.324,7.0576 103.248,9.5416 103.248,13.5396 L103.248,13.6906 C103.248,17.6736 106.324,20.1466 111.273,20.1466 C113.979,20.1466 116.138,19.5736 118.033,18.3476 L116.532,16.1766 C115.218,16.5526 113.997,16.7986 112.461,16.7986 C110.551,16.7986 109.582,16.1196 109.582,14.7786 L109.582,14.5516 C109.582,14.3436 109.75,14.1766 109.957,14.1766 L118.943,14.1766 L118.943,13.3116 C118.943,9.4546 116.003,7.0576 111.273,7.0576 M111.273,20.8966 C105.943,20.8966 102.498,18.0686 102.498,13.6906 L102.498,13.5396 C102.498,9.1456 105.943,6.3076 111.273,6.3076 C117.481,6.3076 119.693,9.9266 119.693,13.3116 L119.693,14.5516 C119.693,14.7586 119.525,14.9266 119.318,14.9266 L110.338,14.9266 C110.382,15.5036 110.733,16.0486 112.461,16.0486 C114.014,16.0486 115.189,15.7926 116.58,15.3806 C116.738,15.3386 116.904,15.3946 116.995,15.5266 L118.867,18.2336 C118.986,18.4046 118.944,18.6376 118.773,18.7566 C116.672,20.2176 114.288,20.8966 111.273,20.8966" id="Fill-125" fill="#232020"></path>
                        <path d="M12.3665,32.7894 C12.3665,31.8534 11.9625,31.3974 10.6455,31.3974 L9.1785,31.3974 L9.1785,34.2574 L10.6455,34.2574 C11.9625,34.2574 12.3665,33.7514 12.3665,32.8654 L12.3665,32.7894 Z M13.9345,37.9504 L9.1785,37.9504 L9.1785,43.0604 L0.3755,43.0604 L0.3755,26.2114 L13.7325,26.2114 C18.8175,26.2114 21.2715,28.7924 21.2715,31.8534 L21.2715,32.1064 C21.2715,35.1674 18.9955,37.9504 13.9345,37.9504 L13.9345,37.9504 Z" id="Fill-126" fill="#232020"></path>
                        <path d="M9.554,33.8822 L10.646,33.8822 C11.89,33.8822 11.992,33.4212 11.992,32.8652 L11.992,32.7892 C11.992,32.1952 11.895,31.7732 10.646,31.7732 L9.554,31.7732 L9.554,33.8822 Z M10.646,34.6322 L9.179,34.6322 C8.972,34.6322 8.804,34.4642 8.804,34.2572 L8.804,31.3982 C8.804,31.1912 8.972,31.0232 9.179,31.0232 L10.646,31.0232 C12.095,31.0232 12.742,31.5682 12.742,32.7892 L12.742,32.8652 C12.742,34.0552 12.056,34.6322 10.646,34.6322 L10.646,34.6322 Z M0.75,42.6862 L8.804,42.6862 L8.804,37.9502 C8.804,37.7432 8.972,37.5752 9.179,37.5752 L13.935,37.5752 C19.068,37.5752 20.897,34.7502 20.897,32.1072 L20.897,31.8542 C20.897,29.3082 19.014,26.5862 13.733,26.5862 L0.75,26.5862 L0.75,42.6862 Z M9.179,43.4362 L0.375,43.4362 C0.168,43.4362 -1.3624657e-12,43.2682 -1.3624657e-12,43.0612 L-1.3624657e-12,26.2112 C-1.3624657e-12,26.0042 0.168,25.8362 0.375,25.8362 L13.733,25.8362 C19.575,25.8362 21.647,29.0772 21.647,31.8542 L21.647,32.1072 C21.647,34.9762 19.627,38.3252 13.935,38.3252 L9.554,38.3252 L9.554,43.0612 C9.554,43.2682 9.386,43.4362 9.179,43.4362 L9.179,43.4362 Z" id="Fill-127" fill="#232020"></path>
                        <path d="M30.9837,38.0267 C29.0107,37.2427 27.8727,37.8747 27.8727,38.7857 L27.8727,38.8857 C27.8727,39.5697 28.3277,39.9497 29.1627,39.9497 C30.4267,39.9497 30.9837,39.1897 30.9837,38.1277 L30.9837,38.0267 Z M37.1817,43.1367 C34.2477,43.1367 33.1087,42.6307 32.0717,40.8597 C30.7057,42.4027 29.2127,43.2887 26.8097,43.2887 C23.6227,43.2887 21.3197,41.7967 21.3197,39.4177 L21.3197,39.3417 C21.3197,35.9517 25.8737,34.4597 30.9837,35.6987 L30.9837,35.2947 C30.9837,34.0537 30.0737,33.5477 28.0747,33.5477 C26.4047,33.5477 25.0637,33.7757 23.3937,34.2567 L22.3817,30.9937 C25.1397,29.8037 27.0627,29.4497 30.2247,29.4497 C35.5127,29.4497 37.8907,32.1317 37.8907,35.1677 L37.8907,38.8857 C37.8907,39.4427 38.0927,39.7207 38.8267,39.7207 L38.8267,43.1367 L37.1817,43.1367 Z" id="Fill-128" fill="#232020"></path>
                        <path d="M29.3597,38.0472 C29.0247,38.0472 28.7437,38.1152 28.5407,38.2542 C28.3487,38.3842 28.2477,38.5672 28.2477,38.7852 L28.2477,38.8862 C28.2477,39.0742 28.2477,39.5742 29.1627,39.5742 C30.0677,39.5742 30.5517,39.1412 30.6037,38.2852 C30.1467,38.1272 29.7217,38.0472 29.3597,38.0472 M29.1627,40.3242 C28.1197,40.3242 27.4977,39.7872 27.4977,38.8862 L27.4977,38.7852 C27.4977,38.3142 27.7177,37.9042 28.1187,37.6322 C28.5177,37.3622 29.4367,37.0072 31.1227,37.6782 C31.2647,37.7352 31.3587,37.8722 31.3587,38.0262 L31.3587,38.1272 C31.3587,39.5032 30.5387,40.3242 29.1627,40.3242 M27.5047,35.6392 C25.6167,35.6392 23.9837,36.0752 22.9167,36.9142 C22.1057,37.5522 21.6947,38.3682 21.6947,39.3422 C21.6947,41.5082 23.7507,42.9132 26.8097,42.9132 C28.8997,42.9132 30.3427,42.2462 31.7907,40.6102 C31.8697,40.5212 31.9907,40.4792 32.1077,40.4852 C32.2277,40.4972 32.3357,40.5662 32.3957,40.6702 C33.3567,42.3122 34.3857,42.7622 37.1817,42.7622 L38.4517,42.7622 L38.4517,40.0682 C37.8227,39.9642 37.5157,39.5752 37.5157,38.8862 L37.5157,35.1672 C37.5157,32.5842 35.5997,29.8242 30.2247,29.8242 C27.1807,29.8242 25.3367,30.1642 22.8407,31.2062 L23.6437,33.7972 C25.2597,33.3552 26.5677,33.1732 28.0747,33.1732 C29.4847,33.1732 31.3587,33.3932 31.3587,35.2942 L31.3587,35.6982 C31.3587,35.8142 31.3057,35.9222 31.2157,35.9932 C31.1257,36.0652 31.0077,36.0922 30.8947,36.0642 C29.7207,35.7782 28.5717,35.6392 27.5047,35.6392 M26.8097,43.6632 C23.3007,43.6632 20.9447,41.9572 20.9447,39.4172 C20.9447,38.1442 21.4657,37.1002 22.4527,36.3232 C24.2157,34.9372 27.3087,34.5262 30.6077,35.2282 C30.5877,34.5422 30.2317,33.9232 28.0747,33.9232 C26.5137,33.9232 25.2307,34.1182 23.4987,34.6172 C23.2987,34.6802 23.0957,34.5632 23.0357,34.3682 L22.0237,31.1052 C21.9667,30.9212 22.0567,30.7252 22.2337,30.6492 C24.9977,29.4562 26.9387,29.0742 30.2247,29.0742 C36.1607,29.0742 38.2657,32.3572 38.2657,35.1672 L38.2657,38.8862 C38.2657,39.2012 38.2657,39.3462 38.8267,39.3462 C39.0337,39.3462 39.2017,39.5142 39.2017,39.7212 L39.2017,43.1372 C39.2017,43.3442 39.0337,43.5122 38.8267,43.5122 L37.1817,43.5122 C34.3647,43.5122 33.0647,43.0252 32.0137,41.4742 C30.5287,43.0042 28.9467,43.6632 26.8097,43.6632" id="Fill-129" fill="#232020"></path>
                        <path d="M46.9446,37.47 L46.9446,43.061 L39.9626,43.061 L39.9626,29.678 L46.4386,29.678 L46.7166,32.916 C47.4766,30.158 49.5006,28.716 52.8656,29.804 L52.3346,35.573 C48.4126,34.358 46.9446,35.395 46.9446,37.47" id="Fill-130" fill="#232020"></path>
                        <path d="M40.3372,42.6859 L46.5692,42.6859 L46.5692,37.4699 C46.5692,36.4489 46.8952,35.6909 47.5372,35.2169 C48.4402,34.5519 49.9402,34.5069 52.0022,35.0829 L52.4632,30.0739 C51.0982,29.6849 49.9442,29.7349 49.0352,30.2249 C48.1092,30.7239 47.4512,31.6639 47.0792,33.0159 C47.0302,33.1909 46.8722,33.3019 46.6832,33.2909 C46.5012,33.2739 46.3582,33.1289 46.3432,32.9489 L46.0942,30.0529 L40.3372,30.0529 L40.3372,42.6859 Z M46.9442,43.4359 L39.9622,43.4359 C39.7552,43.4359 39.5872,43.2679 39.5872,43.0609 L39.5872,29.6779 C39.5872,29.4709 39.7552,29.3029 39.9622,29.3029 L46.4392,29.3029 C46.6342,29.3029 46.7962,29.4519 46.8132,29.6459 L46.9572,31.3219 C47.3962,30.5389 47.9772,29.9429 48.6792,29.5639 C49.8372,28.9389 51.2842,28.8969 52.9812,29.4469 C53.1482,29.4999 53.2552,29.6639 53.2392,29.8379 L52.7082,35.6069 C52.6972,35.7199 52.6372,35.8219 52.5432,35.8849 C52.4492,35.9479 52.3312,35.9669 52.2232,35.9309 C50.2002,35.3059 48.7342,35.2689 47.9832,35.8219 C47.5432,36.1459 47.3192,36.7009 47.3192,37.4699 L47.3192,43.0609 C47.3192,43.2679 47.1512,43.4359 46.9442,43.4359 L46.9442,43.4359 Z" id="Fill-131" fill="#232020"></path>
                        <path d="M62.3509,38.0267 C60.3779,37.2427 59.2399,37.8747 59.2399,38.7857 L59.2399,38.8857 C59.2399,39.5697 59.6949,39.9497 60.5299,39.9497 C61.7939,39.9497 62.3509,39.1897 62.3509,38.1277 L62.3509,38.0267 Z M68.5489,43.1367 C65.6149,43.1367 64.4759,42.6307 63.4389,40.8597 C62.0729,42.4027 60.5799,43.2887 58.1769,43.2887 C54.9899,43.2887 52.6869,41.7967 52.6869,39.4177 L52.6869,39.3417 C52.6869,35.9517 57.2409,34.4597 62.3509,35.6987 L62.3509,35.2947 C62.3509,34.0537 61.4409,33.5477 59.4419,33.5477 C57.7719,33.5477 56.4309,33.7757 54.7609,34.2567 L53.7489,30.9937 C56.5069,29.8037 58.4299,29.4497 61.5919,29.4497 C66.8799,29.4497 69.2579,32.1317 69.2579,35.1677 L69.2579,38.8857 C69.2579,39.4427 69.4599,39.7207 70.1939,39.7207 L70.1939,43.1367 L68.5489,43.1367 Z" id="Fill-132" fill="#232020"></path>
                        <path d="M60.7269,38.0472 C60.3919,38.0472 60.1109,38.1152 59.9079,38.2542 C59.7159,38.3842 59.6149,38.5672 59.6149,38.7852 L59.6149,38.8862 C59.6149,39.0742 59.6149,39.5742 60.5299,39.5742 C61.4349,39.5742 61.9189,39.1412 61.9709,38.2852 C61.5139,38.1272 61.0889,38.0472 60.7269,38.0472 M60.5299,40.3242 C59.4869,40.3242 58.8649,39.7872 58.8649,38.8862 L58.8649,38.7852 C58.8649,38.3142 59.0849,37.9042 59.4859,37.6322 C59.8839,37.3622 60.8029,37.0072 62.4899,37.6782 C62.6319,37.7352 62.7259,37.8722 62.7259,38.0262 L62.7259,38.1272 C62.7259,39.5032 61.9059,40.3242 60.5299,40.3242 M58.8719,35.6392 C56.9839,35.6392 55.3509,36.0752 54.2839,36.9142 C53.4729,37.5522 53.0619,38.3682 53.0619,39.3422 C53.0619,41.5082 55.1179,42.9132 58.1769,42.9132 C60.2669,42.9132 61.7099,42.2462 63.1579,40.6102 C63.2369,40.5212 63.3529,40.4792 63.4749,40.4852 C63.5949,40.4972 63.7029,40.5662 63.7629,40.6702 C64.7239,42.3122 65.7529,42.7622 68.5489,42.7622 L69.8189,42.7622 L69.8189,40.0682 C69.1899,39.9642 68.8829,39.5752 68.8829,38.8862 L68.8829,35.1672 C68.8829,32.5842 66.9669,29.8242 61.5919,29.8242 C58.5479,29.8242 56.7039,30.1642 54.2079,31.2062 L55.0109,33.7972 C56.6269,33.3552 57.9349,33.1732 59.4419,33.1732 C60.8519,33.1732 62.7259,33.3932 62.7259,35.2942 L62.7259,35.6982 C62.7259,35.8142 62.6729,35.9222 62.5829,35.9932 C62.4929,36.0652 62.3749,36.0922 62.2619,36.0642 C61.0879,35.7782 59.9389,35.6392 58.8719,35.6392 M58.1769,43.6632 C54.6679,43.6632 52.3119,41.9572 52.3119,39.4172 C52.3119,38.1442 52.8329,37.1002 53.8199,36.3232 C55.5829,34.9372 58.6759,34.5262 61.9749,35.2282 C61.9549,34.5422 61.5989,33.9232 59.4419,33.9232 C57.8809,33.9232 56.5979,34.1182 54.8659,34.6172 C54.6679,34.6802 54.4629,34.5632 54.4029,34.3682 L53.3909,31.1052 C53.3339,30.9212 53.4239,30.7252 53.6009,30.6492 C56.3649,29.4562 58.3059,29.0742 61.5919,29.0742 C67.5279,29.0742 69.6329,32.3572 69.6329,35.1672 L69.6329,38.8862 C69.6329,39.2012 69.6329,39.3462 70.1939,39.3462 C70.4009,39.3462 70.5689,39.5142 70.5689,39.7212 L70.5689,43.1372 C70.5689,43.3442 70.4009,43.5122 70.1939,43.5122 L68.5489,43.5122 C65.7319,43.5122 64.4319,43.0252 63.3809,41.4742 C61.8959,43.0042 60.3139,43.6632 58.1769,43.6632" id="Fill-133" fill="#232020"></path>
                        <path d="M81.0188,36.0023 C81.0188,34.1813 80.4628,33.3463 79.6278,33.3463 C78.7678,33.3463 78.2108,34.1813 78.2108,36.0023 L78.2108,36.7863 C78.2108,38.5833 78.7678,39.4423 79.6278,39.4423 C80.4628,39.4423 81.0188,38.5833 81.0188,36.7863 L81.0188,36.0023 Z M81.0438,43.2883 C79.4758,43.2883 77.8058,42.5553 76.9208,41.3143 L76.4908,43.0613 L71.3548,43.0613 L71.3548,25.5793 L78.3118,25.5793 L78.3118,30.8923 C79.3248,29.9313 80.4878,29.4493 82.1068,29.4493 C85.5478,29.4493 88.0018,32.1823 88.0018,36.1293 L88.0018,36.2803 C88.0018,40.1263 85.5978,43.2883 81.0438,43.2883 L81.0438,43.2883 Z" id="Fill-134" fill="#232020"></path>
                        <path d="M79.6282,33.721 C78.7222,33.721 78.5862,35.151 78.5862,36.002 L78.5862,36.786 C78.5862,37.472 78.6882,39.068 79.6282,39.068 C80.5442,39.068 80.6442,37.472 80.6442,36.786 L80.6442,36.002 C80.6442,35.317 80.5442,33.721 79.6282,33.721 M79.6282,39.818 C79.0892,39.818 77.8362,39.523 77.8362,36.786 L77.8362,36.002 C77.8362,33.365 78.9582,32.971 79.6282,32.971 C80.2872,32.971 81.3942,33.365 81.3942,36.002 L81.3942,36.786 C81.3942,39.523 80.1592,39.818 79.6282,39.818 M76.9212,40.939 C77.0412,40.939 77.1552,40.996 77.2272,41.097 C78.0022,42.183 79.5352,42.913 81.0442,42.913 C85.0432,42.913 87.6272,40.31 87.6272,36.281 L87.6272,36.129 C87.6272,32.417 85.3572,29.825 82.1072,29.825 C80.6372,29.825 79.5462,30.238 78.5702,31.164 C78.4622,31.267 78.3022,31.296 78.1632,31.237 C78.0252,31.178 77.9372,31.042 77.9372,30.892 L77.9372,25.954 L71.7302,25.954 L71.7302,42.686 L76.1962,42.686 L76.5572,41.225 C76.5922,41.082 76.7062,40.974 76.8512,40.946 C76.8742,40.942 76.8982,40.939 76.9212,40.939 M81.0442,43.663 C79.5572,43.663 78.0892,43.071 77.1112,42.111 L76.8552,43.151 C76.8142,43.319 76.6632,43.436 76.4902,43.436 L71.3552,43.436 C71.1482,43.436 70.9802,43.268 70.9802,43.061 L70.9802,25.579 C70.9802,25.372 71.1482,25.204 71.3552,25.204 L78.3122,25.204 C78.5192,25.204 78.6872,25.372 78.6872,25.579 L78.6872,30.093 C79.6512,29.401 80.7572,29.075 82.1072,29.075 C85.7992,29.075 88.3772,31.975 88.3772,36.129 L88.3772,36.281 C88.3772,40.697 85.4312,43.663 81.0442,43.663" id="Fill-135" fill="#232020"></path>
                        <path d="M98.7513,35.471 C98.7513,34.535 98.4223,33.523 97.4103,33.523 C96.4243,33.523 96.0953,34.535 96.0953,35.471 L96.0953,35.547 L98.7513,35.547 L98.7513,35.471 Z M97.4103,43.288 C91.8963,43.288 89.0113,40.303 89.0113,36.457 L89.0113,36.306 C89.0113,32.46 91.8963,29.45 97.4103,29.45 C102.9263,29.45 105.4553,32.46 105.4553,36.078 L105.4553,37.318 L96.0953,37.318 L96.0953,37.545 C96.0953,38.76 97.0573,39.19 98.6003,39.19 C100.2193,39.19 101.4583,38.911 102.8243,38.507 L104.6963,41.214 C102.9513,42.428 100.7503,43.288 97.4103,43.288 L97.4103,43.288 Z" id="Fill-136" fill="#232020"></path>
                        <path d="M96.4837,35.1722 L98.3637,35.1722 C98.3187,34.6442 98.1287,33.8982 97.4107,33.8982 C96.7107,33.8982 96.5287,34.6752 96.4837,35.1722 M98.7517,35.9222 L96.0947,35.9222 C95.8877,35.9222 95.7197,35.7542 95.7197,35.5472 C95.7197,34.0372 96.3677,33.1482 97.4107,33.1482 C98.4687,33.1482 99.1267,34.0372 99.1267,35.4712 L99.1267,35.5472 C99.1267,35.7542 98.9587,35.9222 98.7517,35.9222 M97.4107,29.8242 C92.4617,29.8242 89.3857,32.3082 89.3857,36.3062 L89.3857,36.4572 C89.3857,40.4402 92.4617,42.9132 97.4107,42.9132 C100.1177,42.9132 102.2767,42.3402 104.1707,41.1142 L102.6697,38.9432 C101.3557,39.3192 100.1347,39.5652 98.5997,39.5652 C96.6887,39.5652 95.7197,38.8862 95.7197,37.5452 L95.7197,37.3182 C95.7197,37.1102 95.8877,36.9432 96.0947,36.9432 L105.0807,36.9432 L105.0807,36.0782 C105.0807,32.2212 102.1407,29.8242 97.4107,29.8242 M97.4107,43.6632 C92.0807,43.6632 88.6357,40.8352 88.6357,36.4572 L88.6357,36.3062 C88.6357,31.9122 92.0807,29.0742 97.4107,29.0742 C103.6187,29.0742 105.8307,32.6932 105.8307,36.0782 L105.8307,37.3182 C105.8307,37.5252 105.6627,37.6932 105.4557,37.6932 L96.4757,37.6932 C96.5207,38.2702 96.8717,38.8152 98.5997,38.8152 C100.1517,38.8152 101.3267,38.5592 102.7177,38.1472 C102.8747,38.1052 103.0417,38.1612 103.1327,38.2932 L105.0047,41.0002 C105.1237,41.1712 105.0817,41.4042 104.9117,41.5232 C102.8107,42.9842 100.4267,43.6632 97.4107,43.6632" id="Fill-137" fill="#232020"></path>
                        <path d="M116.4085,43.0609 L116.4085,35.2179 C116.4085,34.1809 116.0795,33.6239 115.1935,33.6239 C114.1815,33.6239 113.6505,34.4339 113.6505,35.5219 L113.6505,43.0609 L106.6935,43.0609 L106.6935,29.6779 L113.1705,29.6779 L113.3975,32.5109 C114.7895,30.6389 116.4085,29.4499 118.6095,29.4499 C122.0245,29.4499 123.3655,31.6509 123.3655,34.2069 L123.3655,43.0609 L116.4085,43.0609 Z" id="Fill-138" fill="#232020"></path>
                        <path d="M116.7835,42.6859 L122.9905,42.6859 L122.9905,34.2069 C122.9905,32.8889 122.5625,29.8249 118.6095,29.8249 C116.7355,29.8249 115.1755,30.7489 113.6995,32.7349 C113.6055,32.8609 113.4435,32.9149 113.2945,32.8729 C113.1435,32.8289 113.0365,32.6969 113.0235,32.5409 L112.8235,30.0529 L107.0685,30.0529 L107.0685,42.6859 L113.2755,42.6859 L113.2755,35.5219 C113.2755,34.1409 114.0285,33.2489 115.1935,33.2489 C116.2495,33.2489 116.7835,33.9119 116.7835,35.2179 L116.7835,42.6859 Z M123.3655,43.4359 L116.4085,43.4359 C116.2015,43.4359 116.0335,43.2679 116.0335,43.0609 L116.0335,35.2179 C116.0335,34.0939 115.6185,33.9989 115.1935,33.9989 C114.1105,33.9989 114.0255,35.1649 114.0255,35.5219 L114.0255,43.0609 C114.0255,43.2679 113.8575,43.4359 113.6505,43.4359 L106.6935,43.4359 C106.4865,43.4359 106.3185,43.2679 106.3185,43.0609 L106.3185,29.6779 C106.3185,29.4709 106.4865,29.3029 106.6935,29.3029 L113.1705,29.3029 C113.3655,29.3029 113.5285,29.4529 113.5445,29.6479 L113.6965,31.5399 C115.1575,29.8619 116.7365,29.0749 118.6095,29.0749 C121.8225,29.0749 123.7405,30.9929 123.7405,34.2069 L123.7405,43.0609 C123.7405,43.2679 123.5725,43.4359 123.3655,43.4359 L123.3655,43.4359 Z" id="Fill-139" fill="#232020"></path>
                        <path d="M134.3177,36.3314 C134.3177,34.2574 133.8117,33.2444 132.9257,33.2444 C132.0407,33.2444 131.5347,34.2574 131.5347,36.3314 L131.5347,36.4334 C131.5347,38.5074 132.0407,39.5184 132.9257,39.5184 C133.8117,39.5184 134.3177,38.5074 134.3177,36.4334 L134.3177,36.3314 Z M132.9257,43.2884 C127.4107,43.2884 124.6027,40.3034 124.6027,36.4574 L124.6027,36.3064 C124.6027,32.4604 127.4107,29.4494 132.9257,29.4494 C138.4417,29.4494 141.2497,32.4604 141.2497,36.3064 L141.2497,36.4574 C141.2497,40.3034 138.4417,43.2884 132.9257,43.2884 L132.9257,43.2884 Z" id="Fill-140" fill="#232020"></path>
                        <path d="M132.9261,33.6195 C132.0421,33.6195 131.9091,35.3185 131.9091,36.3315 L131.9091,36.4325 C131.9091,37.4455 132.0421,39.1435 132.9261,39.1435 C133.8101,39.1435 133.9431,37.4455 133.9431,36.4325 L133.9431,36.3315 C133.9431,35.3185 133.8101,33.6195 132.9261,33.6195 M132.9261,39.8935 C132.1201,39.8935 131.1591,39.2945 131.1591,36.4325 L131.1591,36.3315 C131.1591,33.4705 132.1201,32.8695 132.9261,32.8695 C133.7321,32.8695 134.6931,33.4705 134.6931,36.3315 L134.6931,36.4325 C134.6931,39.2945 133.7321,39.8935 132.9261,39.8935 M132.9261,29.8245 C128.0241,29.8245 124.9781,32.3075 124.9781,36.3065 L124.9781,36.4575 C124.9781,40.4395 128.0241,42.9135 132.9261,42.9135 C137.8281,42.9135 140.8741,40.4395 140.8741,36.4575 L140.8741,36.3065 C140.8741,32.3075 137.8281,29.8245 132.9261,29.8245 M132.9261,43.6635 C127.6421,43.6635 124.2281,40.8355 124.2281,36.4575 L124.2281,36.3065 C124.2281,31.9125 127.6421,29.0745 132.9261,29.0745 C138.2101,29.0745 141.6241,31.9125 141.6241,36.3065 L141.6241,36.4575 C141.6241,40.8355 138.2101,43.6635 132.9261,43.6635" id="Fill-141" fill="#232020"></path>
                        <path d="M149.7728,43.2884 C146.7118,43.2884 143.5488,42.3024 141.6268,41.1124 L143.5488,37.8494 C145.6498,39.0634 148.3058,39.6454 149.9248,39.6454 C151.0128,39.6454 151.3168,39.3674 151.3168,39.0634 C151.3168,38.0014 142.3608,38.5584 142.3608,34.0794 C142.3608,31.6764 144.7638,29.4494 150.0258,29.4494 C153.0108,29.4494 155.9458,30.2844 157.7168,31.2974 L155.6928,34.5594 C153.8458,33.6754 151.7208,33.0174 150.0258,33.0174 C149.2158,33.0174 148.7358,33.2444 148.7358,33.6244 C148.7358,34.8134 157.6668,34.1304 157.6668,38.6084 C157.6668,41.3404 154.8338,43.2884 149.7728,43.2884" id="Fill-142" fill="#232020"></path>
                        <path d="M142.1409,40.9808 C144.2119,42.1618 147.1609,42.9138 149.7729,42.9138 C154.4109,42.9138 157.2909,41.2638 157.2909,38.6088 C157.2909,35.9668 153.6929,35.3118 151.0649,34.8348 C149.3779,34.5278 148.3609,34.3418 148.3609,33.6248 C148.3609,33.3938 148.4799,32.6418 150.0259,32.6418 C151.5569,32.6418 153.5539,33.1628 155.5499,34.0788 L157.1889,31.4368 C155.2799,30.4518 152.5209,29.8248 150.0259,29.8248 C144.6449,29.8248 142.7359,32.1168 142.7359,34.0798 C142.7359,36.7778 146.5839,37.4758 149.1299,37.9378 C150.7829,38.2378 151.6919,38.4028 151.6919,39.0638 C151.6919,39.5008 151.3859,40.0208 149.9249,40.0208 C148.3809,40.0208 145.8219,39.4988 143.6869,38.3548 L142.1409,40.9808 Z M149.7729,43.6638 C146.8949,43.6638 143.6199,42.7878 141.4299,41.4318 C141.2559,41.3248 141.2009,41.0978 141.3039,40.9218 L143.2259,37.6588 C143.3299,37.4798 143.5619,37.4218 143.7369,37.5238 C145.8119,38.7238 148.3989,39.2708 149.9249,39.2708 C150.5289,39.2708 150.7919,39.1778 150.8909,39.1148 C150.5879,38.9648 149.7139,38.8068 148.9959,38.6758 C146.2039,38.1698 141.9859,37.4048 141.9859,34.0798 C141.9859,31.7708 144.0909,29.0748 150.0259,29.0748 C152.7949,29.0748 155.8869,29.8188 157.9039,30.9708 C157.9919,31.0218 158.0559,31.1058 158.0809,31.2058 C158.1059,31.3038 158.0899,31.4088 158.0369,31.4958 L156.0119,34.7578 C155.9109,34.9208 155.7029,34.9798 155.5309,34.8988 C153.5329,33.9418 151.5269,33.3918 150.0259,33.3918 C149.3299,33.3918 149.1109,33.5738 149.1109,33.6248 C149.2509,33.7408 150.3309,33.9378 151.1999,34.0948 C153.9239,34.5908 158.0409,35.3398 158.0409,38.6088 C158.0409,41.7268 154.8729,43.6638 149.7729,43.6638 L149.7729,43.6638 Z" id="Fill-143" fill="#232020"></path>
                        <polygon id="Fill-144" fill="#FBDDE8" points="2.4583 18.2113 2.4583 1.3613 11.2623 1.3613 11.2623 12.3673 21.8883 12.3673 21.8883 18.2113"></polygon>
                        <g id="Group-14" transform="translate(2.057700, 0.000000)">
                            <path d="M0.801,17.8109 L19.43,17.8109 L19.43,12.7679 L9.204,12.7679 C8.984,12.7679 8.804,12.5879 8.804,12.3679 L8.804,1.7619 L0.801,1.7619 L0.801,17.8109 Z M19.83,18.6119 L0.401,18.6119 C0.18,18.6119 -1.11910481e-13,18.4319 -1.11910481e-13,18.2109 L-1.11910481e-13,1.3619 C-1.11910481e-13,1.1409 0.18,0.9609 0.401,0.9609 L9.204,0.9609 C9.425,0.9609 9.605,1.1409 9.605,1.3619 L9.605,11.9669 L19.83,11.9669 C20.051,11.9669 20.231,12.1469 20.231,12.3679 L20.231,18.2109 C20.231,18.4319 20.051,18.6119 19.83,18.6119 L19.83,18.6119 Z" id="Fill-145" fill="#232020"></path>
                            <path d="M21.1171,18.211 L28.0741,18.211 L28.0741,4.828 L21.1171,4.828 L21.1171,18.211 Z M21.1171,4.019 L28.0741,4.019 L28.0741,0.401 L21.1171,0.401 L21.1171,4.019 Z" id="Fill-146" fill="#FBDDE8"></path>
                            <path d="M21.5181,3.618 L27.6741,3.618 L27.6741,0.801 L21.5181,0.801 L21.5181,3.618 Z M28.0741,4.419 L21.1171,4.419 C20.8971,4.419 20.7171,4.24 20.7171,4.019 L20.7171,0.401 C20.7171,0.18 20.8971,-3.99680289e-13 21.1171,-3.99680289e-13 L28.0741,-3.99680289e-13 C28.2951,-3.99680289e-13 28.4751,0.18 28.4751,0.401 L28.4751,4.019 C28.4751,4.24 28.2951,4.419 28.0741,4.419 L28.0741,4.419 Z M21.5181,17.811 L27.6741,17.811 L27.6741,5.229 L21.5181,5.229 L21.5181,17.811 Z M28.0741,18.612 L21.1171,18.612 C20.8971,18.612 20.7171,18.432 20.7171,18.211 L20.7171,4.828 C20.7171,4.608 20.8971,4.428 21.1171,4.428 L28.0741,4.428 C28.2951,4.428 28.4751,4.608 28.4751,4.828 L28.4751,18.211 C28.4751,18.432 28.2951,18.612 28.0741,18.612 L28.0741,18.612 Z" id="Fill-147" fill="#232020"></path>
                            <path d="M39.6106,11.1527 C39.6106,9.3317 39.0536,8.4967 38.2186,8.4967 C37.3586,8.4967 36.8016,9.3317 36.8016,11.1527 L36.8016,11.9367 C36.8016,13.7337 37.3586,14.5927 38.2186,14.5927 C39.0536,14.5927 39.6106,13.7337 39.6106,11.9367 L39.6106,11.1527 Z M39.6356,18.4387 C38.0676,18.4387 36.3976,17.7057 35.5116,16.4647 L35.0826,18.2117 L29.9466,18.2117 L29.9466,0.7297 L36.9036,0.7297 L36.9036,6.0427 C37.9156,5.0817 39.0796,4.5997 40.6986,4.5997 C44.1386,4.5997 46.5926,7.3327 46.5926,11.2797 L46.5926,11.4307 C46.5926,15.2767 44.1896,18.4387 39.6356,18.4387 L39.6356,18.4387 Z" id="Fill-148" fill="#FBDDE8"></path>
                            <path d="M38.219,8.8968 C37.334,8.8968 37.202,10.3098 37.202,11.1528 L37.202,11.9368 C37.202,12.6158 37.301,14.1928 38.219,14.1928 C39.114,14.1928 39.21,12.6158 39.21,11.9368 L39.21,11.1528 C39.21,10.4738 39.114,8.8968 38.219,8.8968 M38.219,14.9938 C37.673,14.9938 36.402,14.6958 36.402,11.9368 L36.402,11.1528 C36.402,8.4938 37.54,8.0958 38.219,8.0958 C38.888,8.0958 40.011,8.4938 40.011,11.1528 L40.011,11.9368 C40.011,14.6958 38.758,14.9938 38.219,14.9938 M35.512,16.0648 C35.64,16.0648 35.762,16.1258 35.837,16.2328 C36.609,17.3128 38.135,18.0388 39.636,18.0388 C43.619,18.0388 46.193,15.4448 46.193,11.4308 L46.193,11.2798 C46.193,7.5828 43.934,5.0008 40.698,5.0008 C39.235,5.0008 38.15,5.4108 37.179,6.3328 C37.063,6.4438 36.891,6.4738 36.745,6.4098 C36.599,6.3468 36.503,6.2028 36.503,6.0428 L36.503,1.1298 L30.347,1.1298 L30.347,17.8108 L34.769,17.8108 L35.123,16.3698 C35.161,16.2178 35.283,16.1018 35.437,16.0728 C35.462,16.0678 35.487,16.0648 35.512,16.0648 M39.636,18.8388 C38.158,18.8388 36.699,18.2548 35.716,17.3088 L35.471,18.3068 C35.427,18.4858 35.267,18.6118 35.082,18.6118 L29.947,18.6118 C29.726,18.6118 29.546,18.4318 29.546,18.2108 L29.546,0.7298 C29.546,0.5088 29.726,0.3298 29.947,0.3298 L36.904,0.3298 C37.124,0.3298 37.304,0.5088 37.304,0.7298 L37.304,5.1958 C38.263,4.5188 39.362,4.1998 40.698,4.1998 C44.405,4.1998 46.993,7.1118 46.993,11.2798 L46.993,11.4308 C46.993,15.8618 44.036,18.8388 39.636,18.8388" id="Fill-149" fill="#232020"></path>
                            <path d="M54.9895,12.6204 L54.9895,18.2114 L48.0075,18.2114 L48.0075,4.8284 L54.4835,4.8284 L54.7615,8.0664 C55.5215,5.3084 57.5455,3.8664 60.9105,4.9544 L60.3795,10.7234 C56.4575,9.5084 54.9895,10.5454 54.9895,12.6204" id="Fill-150" fill="#FBDDE8"></path>
                            <path d="M48.4074,17.8109 L54.5894,17.8109 L54.5894,12.6209 C54.5894,11.5909 54.9184,10.8269 55.5674,10.3479 C56.4854,9.6699 57.9474,9.6239 60.0254,10.2019 L60.4824,5.2429 C59.1324,4.8609 57.9924,4.9129 57.0924,5.3969 C56.1734,5.8929 55.5184,6.8269 55.1474,8.1729 C55.0954,8.3599 54.9154,8.4889 54.7254,8.4649 C54.5324,8.4479 54.3804,8.2939 54.3634,8.1009 L54.1164,5.2289 L48.4074,5.2289 L48.4074,17.8109 Z M54.9894,18.6119 L48.0074,18.6119 C47.7864,18.6119 47.6064,18.4319 47.6064,18.2109 L47.6064,4.8289 C47.6064,4.6079 47.7864,4.4279 48.0074,4.4279 L54.4834,4.4279 C54.6914,4.4279 54.8644,4.5869 54.8824,4.7939 L55.0194,6.3919 C55.4554,5.6379 56.0264,5.0629 56.7124,4.6929 C57.8774,4.0629 59.3304,4.0239 61.0334,4.5739 C61.2114,4.6309 61.3254,4.8049 61.3084,4.9919 L60.7774,10.7599 C60.7664,10.8799 60.7014,10.9889 60.6014,11.0559 C60.5014,11.1229 60.3744,11.1419 60.2614,11.1049 C58.2484,10.4819 56.7884,10.4419 56.0424,10.9919 C55.6094,11.3109 55.3894,11.8589 55.3894,12.6209 L55.3894,18.2109 C55.3894,18.4319 55.2104,18.6119 54.9894,18.6119 L54.9894,18.6119 Z" id="Fill-151" fill="#232020"></path>
                            <path d="M71.1799,10.6214 C71.1799,9.6854 70.8509,8.6734 69.8389,8.6734 C68.8519,8.6734 68.5239,9.6854 68.5239,10.6214 L68.5239,10.6974 L71.1799,10.6974 L71.1799,10.6214 Z M69.8389,18.4384 C64.3239,18.4384 61.4399,15.4534 61.4399,11.6074 L61.4399,11.4564 C61.4399,7.6104 64.3239,4.6004 69.8389,4.6004 C75.3539,4.6004 77.8839,7.6104 77.8839,11.2284 L77.8839,12.4684 L68.5239,12.4684 L68.5239,12.6954 C68.5239,13.9104 69.4849,14.3404 71.0279,14.3404 C72.6469,14.3404 73.8869,14.0614 75.2529,13.6574 L77.1249,16.3644 C75.3789,17.5784 73.1779,18.4384 69.8389,18.4384 L69.8389,18.4384 Z" id="Fill-152" fill="#FBDDE8"></path>
                            <path d="M68.9397,10.2972 L70.7647,10.2972 C70.7167,9.7802 70.5257,9.0732 69.8387,9.0732 C69.1697,9.0732 68.9877,9.8082 68.9397,10.2972 M71.1797,11.0982 L68.5237,11.0982 C68.3027,11.0982 68.1237,10.9182 68.1237,10.6972 C68.1237,9.1732 68.7807,8.2732 69.8387,8.2732 C70.9137,8.2732 71.5807,9.1732 71.5807,10.6212 L71.5807,10.6972 C71.5807,10.9182 71.4007,11.0982 71.1797,11.0982 M69.8387,5.0002 C64.9047,5.0002 61.8397,7.4742 61.8397,11.4562 L61.8397,11.6082 C61.8397,15.5742 64.9047,18.0382 69.8387,18.0382 C72.5297,18.0382 74.6787,17.4722 76.5657,16.2582 L75.0877,14.1222 C73.7787,14.4962 72.5597,14.7402 71.0277,14.7402 C69.1007,14.7402 68.1237,14.0522 68.1237,12.6952 L68.1237,12.4682 C68.1237,12.2472 68.3027,12.0682 68.5237,12.0682 L77.4837,12.0682 L77.4837,11.2292 C77.4837,7.3872 74.5547,5.0002 69.8387,5.0002 M69.8387,18.8392 C64.4937,18.8392 61.0397,16.0002 61.0397,11.6082 L61.0397,11.4562 C61.0397,7.0482 64.4937,4.1992 69.8387,4.1992 C76.0657,4.1992 78.2847,7.8302 78.2847,11.2292 L78.2847,12.4682 C78.2847,12.6892 78.1047,12.8682 77.8837,12.8682 L68.9307,12.8682 C68.9847,13.4232 69.3467,13.9402 71.0277,13.9402 C72.5777,13.9402 73.7507,13.6852 75.1397,13.2742 C75.3037,13.2292 75.4837,13.2872 75.5827,13.4302 L77.4547,16.1372 C77.5797,16.3182 77.5347,16.5672 77.3537,16.6932 C75.2477,18.1562 72.8597,18.8392 69.8387,18.8392" id="Fill-153" fill="#232020"></path>
                            <path d="M94.8059,11.1781 C94.8059,9.3821 94.2749,8.5221 93.4139,8.5221 C92.5539,8.5221 92.0229,9.3821 92.0229,11.1781 L92.0229,11.9881 C92.0229,13.7831 92.5539,14.6181 93.4139,14.6181 C94.2749,14.6181 94.8059,13.7831 94.8059,11.9881 L94.8059,11.1781 Z M96.3489,18.2111 L96.1469,16.4901 C95.2099,17.6041 93.7689,18.4391 91.8959,18.4391 C87.3419,18.4391 85.0399,15.3021 85.0399,11.4561 L85.0399,11.3291 C85.0399,7.5601 87.6709,4.6001 91.1879,4.6001 C92.8319,4.6001 93.7929,5.0311 94.7299,5.8401 L94.7299,0.7301 L101.6869,0.7301 L101.6869,18.2111 L96.3489,18.2111 Z" id="Fill-154" fill="#FBDDE8"></path>
                            <path d="M93.4143,8.9222 C92.5523,8.9222 92.4233,10.3352 92.4233,11.1782 L92.4233,11.9872 C92.4233,12.8202 92.5523,14.2182 93.4143,14.2182 C94.2763,14.2182 94.4053,12.8202 94.4053,11.9872 L94.4053,11.1782 C94.4053,10.3352 94.2763,8.9222 93.4143,8.9222 M93.4143,15.0192 C92.7453,15.0192 91.6223,14.6242 91.6223,11.9872 L91.6223,11.1782 C91.6223,8.5192 92.7453,8.1212 93.4143,8.1212 C94.0833,8.1212 95.2063,8.5192 95.2063,11.1782 L95.2063,11.9872 C95.2063,14.6242 94.0833,15.0192 93.4143,15.0192 M91.1873,5.0002 C87.9113,5.0002 85.4403,7.7212 85.4403,11.3292 L85.4403,11.4562 C85.4403,14.6392 87.1363,18.0382 91.8953,18.0382 C93.4603,18.0382 94.8603,17.3982 95.8413,16.2332 C95.9433,16.1102 96.1063,16.0602 96.2623,16.1082 C96.4143,16.1532 96.5253,16.2852 96.5443,16.4432 L96.7043,17.8112 L101.2863,17.8112 L101.2863,1.1302 L95.1303,1.1302 L95.1303,5.8402 C95.1303,5.9962 95.0383,6.1392 94.8953,6.2032 C94.7573,6.2692 94.5873,6.2442 94.4683,6.1432 C93.6753,5.4562 92.8123,5.0002 91.1873,5.0002 M91.8953,18.8392 C87.4883,18.8392 84.6403,15.9412 84.6403,11.4562 L84.6403,11.3292 C84.6403,7.3312 87.5163,4.1992 91.1873,4.1992 C92.4713,4.1992 93.4333,4.4482 94.3293,5.0352 L94.3293,0.7302 C94.3293,0.5092 94.5093,0.3292 94.7293,0.3292 L101.6863,0.3292 C101.9073,0.3292 102.0873,0.5092 102.0873,0.7302 L102.0873,18.2112 C102.0873,18.4322 101.9073,18.6112 101.6863,18.6112 L96.3493,18.6112 C96.1453,18.6112 95.9753,18.4592 95.9513,18.2582 L95.8473,17.3702 C94.7743,18.3222 93.3993,18.8392 91.8953,18.8392" id="Fill-155" fill="#232020"></path>
                            <path d="M112.6389,10.6214 C112.6389,9.6854 112.3099,8.6734 111.2979,8.6734 C110.3119,8.6734 109.9829,9.6854 109.9829,10.6214 L109.9829,10.6974 L112.6389,10.6974 L112.6389,10.6214 Z M111.2979,18.4384 C105.7839,18.4384 102.8989,15.4534 102.8989,11.6074 L102.8989,11.4564 C102.8989,7.6104 105.7839,4.6004 111.2979,4.6004 C116.8139,4.6004 119.3429,7.6104 119.3429,11.2284 L119.3429,12.4684 L109.9829,12.4684 L109.9829,12.6954 C109.9829,13.9104 110.9449,14.3404 112.4879,14.3404 C114.1069,14.3404 115.3459,14.0614 116.7119,13.6574 L118.5839,16.3644 C116.8389,17.5784 114.6379,18.4384 111.2979,18.4384 L111.2979,18.4384 Z" id="Fill-156" fill="#FBDDE8"></path>
                            <path d="M110.3986,10.2972 L112.2236,10.2972 C112.1756,9.7802 111.9846,9.0732 111.2976,9.0732 C110.6286,9.0732 110.4466,9.8082 110.3986,10.2972 M112.6386,11.0982 L109.9826,11.0982 C109.7616,11.0982 109.5826,10.9182 109.5826,10.6972 C109.5826,9.1732 110.2396,8.2732 111.2976,8.2732 C112.3726,8.2732 113.0396,9.1732 113.0396,10.6212 L113.0396,10.6972 C113.0396,10.9182 112.8596,11.0982 112.6386,11.0982 M111.2976,5.0002 C106.3636,5.0002 103.2986,7.4742 103.2986,11.4562 L103.2986,11.6082 C103.2986,15.5742 106.3636,18.0382 111.2976,18.0382 C113.9896,18.0382 116.1386,17.4722 118.0246,16.2582 L116.5466,14.1222 C115.2376,14.4962 114.0196,14.7402 112.4876,14.7402 C110.5596,14.7402 109.5826,14.0522 109.5826,12.6952 L109.5826,12.4682 C109.5826,12.2472 109.7616,12.0682 109.9826,12.0682 L118.9426,12.0682 L118.9426,11.2292 C118.9426,7.3872 116.0136,5.0002 111.2976,5.0002 M111.2976,18.8392 C105.9526,18.8392 102.4986,16.0002 102.4986,11.6082 L102.4986,11.4562 C102.4986,7.0482 105.9526,4.1992 111.2976,4.1992 C117.5246,4.1992 119.7436,7.8302 119.7436,11.2292 L119.7436,12.4682 C119.7436,12.6892 119.5636,12.8682 119.3426,12.8682 L110.3896,12.8682 C110.4436,13.4232 110.8056,13.9402 112.4876,13.9402 C114.0366,13.9402 115.2096,13.6852 116.5986,13.2742 C116.7626,13.2292 116.9426,13.2872 117.0416,13.4302 L118.9136,16.1372 C119.0386,16.3182 118.9936,16.5672 118.8126,16.6932 C116.7086,18.1562 114.3206,18.8392 111.2976,18.8392" id="Fill-157" fill="#232020"></path>
                            <path d="M12.3928,30.7064 C12.3928,29.7704 11.9878,29.3144 10.6718,29.3144 L9.2048,29.3144 L9.2048,32.1744 L10.6718,32.1744 C11.9878,32.1744 12.3928,31.6674 12.3928,30.7824 L12.3928,30.7064 Z M13.9608,35.8674 L9.2048,35.8674 L9.2048,40.9774 L0.4008,40.9774 L0.4008,24.1284 L13.7588,24.1284 C18.8438,24.1284 21.2978,26.7094 21.2978,29.7704 L21.2978,30.0234 C21.2978,33.0844 19.0208,35.8674 13.9608,35.8674 L13.9608,35.8674 Z" id="Fill-158" fill="#FBDDE8"></path>
                            <path d="M9.6047,31.7738 L10.6717,31.7738 C11.8937,31.7738 11.9927,31.3258 11.9927,30.7828 L11.9927,30.7068 C11.9927,30.1078 11.9007,29.7148 10.6717,29.7148 L9.6047,29.7148 L9.6047,31.7738 Z M10.6717,32.5748 L9.2047,32.5748 C8.9837,32.5748 8.8037,32.3948 8.8037,32.1738 L8.8037,29.3148 C8.8037,29.0938 8.9837,28.9148 9.2047,28.9148 L10.6717,28.9148 C12.1197,28.9148 12.7927,29.4838 12.7927,30.7068 L12.7927,30.7828 C12.7927,31.9888 12.0987,32.5748 10.6717,32.5748 L10.6717,32.5748 Z M0.8007,40.5778 L8.8037,40.5778 L8.8037,35.8678 C8.8037,35.6468 8.9837,35.4668 9.2047,35.4668 L13.9607,35.4668 C19.0757,35.4668 20.8977,32.6558 20.8977,30.0238 L20.8977,29.7708 C20.8977,27.2368 19.0227,24.5288 13.7587,24.5288 L0.8007,24.5288 L0.8007,40.5778 Z M9.2047,41.3778 L0.4007,41.3778 C0.1797,41.3778 0.000700000006,41.1988 0.000700000006,40.9778 L0.000700000006,24.1278 C0.000700000006,23.9078 0.1797,23.7278 0.4007,23.7278 L13.7587,23.7278 C19.6187,23.7278 21.6987,26.9838 21.6987,29.7708 L21.6987,30.0238 C21.6987,32.9038 19.6717,36.2678 13.9607,36.2678 L9.6047,36.2678 L9.6047,40.9778 C9.6047,41.1988 9.4247,41.3778 9.2047,41.3778 L9.2047,41.3778 Z" id="Fill-159" fill="#232020"></path>
                            <path d="M31.01,35.9437 C29.036,35.1597 27.898,35.7917 27.898,36.7027 L27.898,36.8027 C27.898,37.4867 28.354,37.8667 29.189,37.8667 C30.453,37.8667 31.01,37.1067 31.01,36.0447 L31.01,35.9437 Z M37.208,41.0537 C34.274,41.0537 33.135,40.5477 32.098,38.7767 C30.732,40.3197 29.239,41.2057 26.835,41.2057 C23.648,41.2057 21.346,39.7137 21.346,37.3357 L21.346,37.2587 C21.346,33.8687 25.9,32.3767 31.01,33.6157 L31.01,33.2117 C31.01,31.9707 30.099,31.4647 28.101,31.4647 C26.431,31.4647 25.09,31.6927 23.42,32.1737 L22.408,28.9107 C25.165,27.7207 27.088,27.3667 30.251,27.3667 C35.538,27.3667 37.916,30.0477 37.916,33.0847 L37.916,36.8027 C37.916,37.3597 38.118,37.6377 38.853,37.6377 L38.853,41.0537 L37.208,41.0537 Z" id="Fill-160" fill="#FBDDE8"></path>
                            <path d="M29.386,35.9886 C29.056,35.9886 28.78,36.0556 28.579,36.1916 C28.393,36.3176 28.298,36.4896 28.298,36.7026 L28.298,36.8026 C28.298,36.9846 28.298,37.4666 29.189,37.4666 C30.072,37.4666 30.547,37.0476 30.604,36.2196 C30.156,36.0656 29.74,35.9886 29.386,35.9886 M29.189,38.2666 C28.13,38.2666 27.497,37.7186 27.497,36.8026 L27.497,36.7026 C27.497,36.2226 27.722,35.8056 28.13,35.5296 C28.532,35.2556 29.463,34.8996 31.157,35.5716 C31.31,35.6326 31.41,35.7796 31.41,35.9436 L31.41,36.0446 C31.41,37.4356 30.579,38.2666 29.189,38.2666 M27.53,33.5806 C25.648,33.5806 24.021,34.0146 22.958,34.8496 C22.154,35.4826 21.746,36.2936 21.746,37.2596 C21.746,39.4106 23.791,40.8046 26.835,40.8046 C28.918,40.8046 30.356,40.1406 31.798,38.5106 C31.882,38.4156 32.017,38.3696 32.137,38.3786 C32.265,38.3906 32.378,38.4646 32.443,38.5746 C33.399,40.2076 34.423,40.6536 37.208,40.6536 L38.452,40.6536 L38.452,38.0066 C37.824,37.8956 37.516,37.4996 37.516,36.8026 L37.516,33.0846 C37.516,30.5136 35.608,27.7666 30.251,27.7666 C27.219,27.7666 25.378,28.1036 22.898,29.1366 L23.687,31.6836 C25.294,31.2466 26.599,31.0646 28.101,31.0646 C29.522,31.0646 31.41,31.2876 31.41,33.2116 L31.41,33.6156 C31.41,33.7386 31.354,33.8536 31.257,33.9296 C31.16,34.0056 31.033,34.0336 30.915,34.0046 C29.742,33.7196 28.595,33.5806 27.53,33.5806 M26.835,41.6056 C23.313,41.6056 20.946,39.8886 20.946,37.3356 C20.946,36.0526 21.471,35.0026 22.464,34.2216 C24.228,32.8346 27.313,32.4236 30.609,33.1146 C30.585,32.4936 30.302,31.8656 28.101,31.8656 C26.543,31.8656 25.262,32.0596 23.531,32.5586 C23.323,32.6136 23.102,32.5006 23.038,32.2926 L22.027,29.0286 C21.966,28.8336 22.063,28.6246 22.25,28.5436 C25.016,27.3496 26.96,26.9666 30.251,26.9666 C36.204,26.9666 38.317,30.2616 38.317,33.0846 L38.317,36.8026 C38.317,37.1196 38.317,37.2376 38.853,37.2376 C39.074,37.2376 39.253,37.4176 39.253,37.6376 L39.253,41.0536 C39.253,41.2746 39.074,41.4546 38.853,41.4546 L37.208,41.4546 C34.396,41.4546 33.09,40.9686 32.037,39.4296 C30.553,40.9496 28.97,41.6056 26.835,41.6056" id="Fill-161" fill="#232020"></path>
                            <path d="M46.9709,35.387 L46.9709,40.978 L39.9889,40.978 L39.9889,27.595 L46.4649,27.595 L46.7429,30.833 C47.5019,28.075 49.5269,26.633 52.8909,27.721 L52.3599,33.49 C48.4389,32.275 46.9709,33.312 46.9709,35.387" id="Fill-162" fill="#FBDDE8"></path>
                            <path d="M40.3889,40.5775 L46.5709,40.5775 L46.5709,35.3875 C46.5709,34.3575 46.8999,33.5935 47.5489,33.1145 C48.4659,32.4365 49.9269,32.3905 52.0059,32.9685 L52.4629,28.0095 C51.1119,27.6265 49.9739,27.6785 49.0729,28.1635 C48.1539,28.6595 47.4989,29.5945 47.1289,30.9395 C47.0779,31.1265 46.9019,31.2445 46.7069,31.2315 C46.5139,31.2145 46.3619,31.0605 46.3449,30.8675 L46.0979,27.9955 L40.3889,27.9955 L40.3889,40.5775 Z M46.9709,41.3785 L39.9889,41.3785 C39.7679,41.3785 39.5879,41.1985 39.5879,40.9775 L39.5879,27.5955 C39.5879,27.3745 39.7679,27.1945 39.9889,27.1945 L46.4649,27.1945 C46.6729,27.1945 46.8459,27.3535 46.8639,27.5605 L47.0009,29.1575 C47.4369,28.4045 48.0079,27.8295 48.6929,27.4595 C49.8599,26.8295 51.3129,26.7915 53.0139,27.3405 C53.1919,27.3975 53.3059,27.5715 53.2889,27.7585 L52.7579,33.5265 C52.7469,33.6465 52.6819,33.7555 52.5819,33.8225 C52.4809,33.8895 52.3549,33.9085 52.2419,33.8715 C50.2269,33.2475 48.7689,33.2095 48.0239,33.7585 C47.5909,34.0775 47.3709,34.6255 47.3709,35.3875 L47.3709,40.9775 C47.3709,41.1985 47.1919,41.3785 46.9709,41.3785 L46.9709,41.3785 Z" id="Fill-163" fill="#232020"></path>
                            <path d="M62.3772,35.9437 C60.4032,35.1597 59.2652,35.7917 59.2652,36.7027 L59.2652,36.8027 C59.2652,37.4867 59.7212,37.8667 60.5562,37.8667 C61.8202,37.8667 62.3772,37.1067 62.3772,36.0447 L62.3772,35.9437 Z M68.5752,41.0537 C65.6412,41.0537 64.5022,40.5477 63.4652,38.7767 C62.0992,40.3197 60.6062,41.2057 58.2022,41.2057 C55.0152,41.2057 52.7132,39.7137 52.7132,37.3357 L52.7132,37.2587 C52.7132,33.8687 57.2672,32.3767 62.3772,33.6157 L62.3772,33.2117 C62.3772,31.9707 61.4662,31.4647 59.4682,31.4647 C57.7982,31.4647 56.4572,31.6927 54.7872,32.1737 L53.7752,28.9107 C56.5322,27.7207 58.4552,27.3667 61.6182,27.3667 C66.9052,27.3667 69.2832,30.0477 69.2832,33.0847 L69.2832,36.8027 C69.2832,37.3597 69.4852,37.6377 70.2202,37.6377 L70.2202,41.0537 L68.5752,41.0537 Z" id="Fill-164" fill="#FBDDE8"></path>
                            <path d="M60.7531,35.9886 C60.4231,35.9886 60.1471,36.0556 59.9461,36.1916 C59.7601,36.3176 59.6651,36.4896 59.6651,36.7026 L59.6651,36.8026 C59.6651,36.9846 59.6651,37.4666 60.5561,37.4666 C61.4391,37.4666 61.9141,37.0476 61.9711,36.2196 C61.5231,36.0656 61.1071,35.9886 60.7531,35.9886 M60.5561,38.2666 C59.4971,38.2666 58.8641,37.7186 58.8641,36.8026 L58.8641,36.7026 C58.8641,36.2226 59.0891,35.8056 59.4971,35.5296 C59.8991,35.2556 60.8291,34.8996 62.5241,35.5716 C62.6771,35.6326 62.7771,35.7796 62.7771,35.9436 L62.7771,36.0446 C62.7771,37.4356 61.9461,38.2666 60.5561,38.2666 M58.8971,33.5806 C57.0151,33.5806 55.3881,34.0146 54.3251,34.8496 C53.5211,35.4826 53.1131,36.2936 53.1131,37.2596 C53.1131,39.4106 55.1581,40.8046 58.2021,40.8046 C60.2851,40.8046 61.7231,40.1406 63.1651,38.5106 C63.2491,38.4156 63.3841,38.3696 63.5041,38.3786 C63.6321,38.3906 63.7451,38.4646 63.8101,38.5746 C64.7661,40.2076 65.7901,40.6536 68.5751,40.6536 L69.8191,40.6536 L69.8191,38.0066 C69.1911,37.8956 68.8831,37.4996 68.8831,36.8026 L68.8831,33.0846 C68.8831,30.5136 66.9751,27.7666 61.6181,27.7666 C58.5861,27.7666 56.7451,28.1036 54.2651,29.1366 L55.0541,31.6836 C56.6611,31.2466 57.9661,31.0646 59.4681,31.0646 C60.8891,31.0646 62.7771,31.2876 62.7771,33.2116 L62.7771,33.6156 C62.7771,33.7386 62.7211,33.8536 62.6241,33.9296 C62.5271,34.0056 62.4011,34.0336 62.2821,34.0046 C61.1091,33.7196 59.9621,33.5806 58.8971,33.5806 M58.2021,41.6056 C54.6801,41.6056 52.3131,39.8886 52.3131,37.3356 C52.3131,36.0526 52.8381,35.0026 53.8311,34.2216 C55.5951,32.8346 58.6801,32.4236 61.9761,33.1146 C61.9521,32.4936 61.6691,31.8656 59.4681,31.8656 C57.9101,31.8656 56.6291,32.0596 54.8981,32.5586 C54.6911,32.6136 54.4701,32.5006 54.4051,32.2926 L53.3941,29.0286 C53.3331,28.8336 53.4301,28.6246 53.6171,28.5436 C56.3831,27.3496 58.3271,26.9666 61.6181,26.9666 C67.5711,26.9666 69.6841,30.2616 69.6841,33.0846 L69.6841,36.8026 C69.6841,37.1196 69.6841,37.2376 70.2201,37.2376 C70.4411,37.2376 70.6201,37.4176 70.6201,37.6376 L70.6201,41.0536 C70.6201,41.2746 70.4411,41.4546 70.2201,41.4546 L68.5751,41.4546 C65.7631,41.4546 64.4571,40.9686 63.4041,39.4296 C61.9201,40.9496 60.3371,41.6056 58.2021,41.6056" id="Fill-165" fill="#232020"></path>
                            <path d="M81.0451,33.9193 C81.0451,32.0983 80.4881,31.2633 79.6531,31.2633 C78.7931,31.2633 78.2361,32.0983 78.2361,33.9193 L78.2361,34.7033 C78.2361,36.5003 78.7931,37.3593 79.6531,37.3593 C80.4881,37.3593 81.0451,36.5003 81.0451,34.7033 L81.0451,33.9193 Z M81.0701,41.2053 C79.5021,41.2053 77.8321,40.4723 76.9461,39.2313 L76.5171,40.9783 L71.3811,40.9783 L71.3811,23.4963 L78.3381,23.4963 L78.3381,28.8093 C79.3501,27.8483 80.5141,27.3663 82.1331,27.3663 C85.5731,27.3663 88.0271,30.0993 88.0271,34.0463 L88.0271,34.1973 C88.0271,38.0433 85.6241,41.2053 81.0701,41.2053 L81.0701,41.2053 Z" id="Fill-166" fill="#FBDDE8"></path>
                            <path d="M79.6535,31.6634 C78.7685,31.6634 78.6365,33.0764 78.6365,33.9194 L78.6365,34.7034 C78.6365,35.3824 78.7355,36.9594 79.6535,36.9594 C80.5485,36.9594 80.6445,35.3824 80.6445,34.7034 L80.6445,33.9194 C80.6445,33.2404 80.5485,31.6634 79.6535,31.6634 M79.6535,37.7604 C79.1075,37.7604 77.8365,37.4624 77.8365,34.7034 L77.8365,33.9194 C77.8365,31.2604 78.9745,30.8624 79.6535,30.8624 C80.3225,30.8624 81.4455,31.2604 81.4455,33.9194 L81.4455,34.7034 C81.4455,37.4624 80.1925,37.7604 79.6535,37.7604 M76.9465,38.8314 C77.0745,38.8314 77.1965,38.8924 77.2715,38.9994 C78.0435,40.0794 79.5695,40.8054 81.0705,40.8054 C85.0535,40.8054 87.6275,38.2114 87.6275,34.1974 L87.6275,34.0464 C87.6275,30.3494 85.3685,27.7674 82.1325,27.7674 C80.6695,27.7674 79.5845,28.1774 78.6135,29.0994 C78.4965,29.2094 78.3255,29.2404 78.1795,29.1764 C78.0335,29.1134 77.9375,28.9694 77.9375,28.8094 L77.9375,23.8964 L71.7815,23.8964 L71.7815,40.5774 L76.2035,40.5774 L76.5575,39.1364 C76.5955,38.9844 76.7175,38.8684 76.8715,38.8394 C76.8965,38.8344 76.9215,38.8314 76.9465,38.8314 M81.0705,41.6054 C79.5925,41.6054 78.1335,41.0214 77.1505,40.0754 L76.9055,41.0734 C76.8615,41.2524 76.7015,41.3784 76.5165,41.3784 L71.3815,41.3784 C71.1605,41.3784 70.9805,41.1984 70.9805,40.9774 L70.9805,23.4964 C70.9805,23.2754 71.1605,23.0964 71.3815,23.0964 L78.3385,23.0964 C78.5585,23.0964 78.7385,23.2754 78.7385,23.4964 L78.7385,27.9624 C79.6975,27.2854 80.7965,26.9664 82.1325,26.9664 C85.8395,26.9664 88.4275,29.8784 88.4275,34.0464 L88.4275,34.1974 C88.4275,38.6284 85.4705,41.6054 81.0705,41.6054" id="Fill-167" fill="#232020"></path>
                            <path d="M98.7776,33.388 C98.7776,32.452 98.4486,31.44 97.4366,31.44 C96.4506,31.44 96.1216,32.452 96.1216,33.388 L96.1216,33.464 L98.7776,33.464 L98.7776,33.388 Z M97.4366,41.205 C91.9226,41.205 89.0376,38.22 89.0376,34.374 L89.0376,34.223 C89.0376,30.377 91.9226,27.367 97.4366,27.367 C102.9526,27.367 105.4816,30.377 105.4816,33.995 L105.4816,35.235 L96.1216,35.235 L96.1216,35.462 C96.1216,36.677 97.0836,37.107 98.6266,37.107 C100.2456,37.107 101.4846,36.828 102.8506,36.424 L104.7226,39.131 C102.9776,40.345 100.7766,41.205 97.4366,41.205 L97.4366,41.205 Z" id="Fill-168" fill="#FBDDE8"></path>
                            <path d="M96.5373,33.0638 L98.3623,33.0638 C98.3143,32.5468 98.1233,31.8398 97.4363,31.8398 C96.7673,31.8398 96.5853,32.5748 96.5373,33.0638 M98.7773,33.8648 L96.1213,33.8648 C95.9003,33.8648 95.7213,33.6848 95.7213,33.4638 C95.7213,31.9398 96.3783,31.0398 97.4363,31.0398 C98.5113,31.0398 99.1783,31.9398 99.1783,33.3878 L99.1783,33.4638 C99.1783,33.6848 98.9983,33.8648 98.7773,33.8648 M97.4363,27.7668 C92.5023,27.7668 89.4373,30.2408 89.4373,34.2228 L89.4373,34.3748 C89.4373,38.3408 92.5023,40.8048 97.4363,40.8048 C100.1283,40.8048 102.2773,40.2388 104.1633,39.0248 L102.6853,36.8888 C101.3763,37.2628 100.1583,37.5068 98.6263,37.5068 C96.6983,37.5068 95.7213,36.8188 95.7213,35.4618 L95.7213,35.2348 C95.7213,35.0138 95.9003,34.8348 96.1213,34.8348 L105.0813,34.8348 L105.0813,33.9958 C105.0813,30.1538 102.1523,27.7668 97.4363,27.7668 M97.4363,41.6058 C92.0913,41.6058 88.6373,38.7668 88.6373,34.3748 L88.6373,34.2228 C88.6373,29.8148 92.0913,26.9658 97.4363,26.9658 C103.6633,26.9658 105.8823,30.5968 105.8823,33.9958 L105.8823,35.2348 C105.8823,35.4558 105.7023,35.6348 105.4813,35.6348 L96.5283,35.6348 C96.5823,36.1898 96.9443,36.7068 98.6263,36.7068 C100.1753,36.7068 101.3483,36.4518 102.7373,36.0408 C102.9003,35.9958 103.0823,36.0538 103.1803,36.1968 L105.0523,38.9038 C105.1773,39.0848 105.1323,39.3338 104.9513,39.4588 C102.8473,40.9228 100.4593,41.6058 97.4363,41.6058" id="Fill-169" fill="#232020"></path>
                            <path d="M116.4338,40.9778 L116.4338,33.1348 C116.4338,32.0978 116.1048,31.5408 115.2198,31.5408 C114.2078,31.5408 113.6758,32.3508 113.6758,33.4388 L113.6758,40.9778 L106.7188,40.9778 L106.7188,27.5948 L113.1958,27.5948 L113.4228,30.4278 C114.8148,28.5558 116.4338,27.3668 118.6348,27.3668 C122.0498,27.3668 123.3908,29.5678 123.3908,32.1238 L123.3908,40.9778 L116.4338,40.9778 Z" id="Fill-170" fill="#FBDDE8"></path>
                            <path d="M116.8342,40.5775 L122.9902,40.5775 L122.9902,32.1235 C122.9902,30.8135 122.5662,27.7665 118.6352,27.7665 C116.7692,27.7665 115.2152,28.6875 113.7442,30.6665 C113.6442,30.8005 113.4682,30.8535 113.3132,30.8125 C113.1522,30.7665 113.0372,30.6265 113.0242,30.4605 L112.8262,27.9955 L107.1192,27.9955 L107.1192,40.5775 L113.2752,40.5775 L113.2752,33.4385 C113.2752,32.0435 114.0392,31.1405 115.2202,31.1405 C116.2912,31.1405 116.8342,31.8115 116.8342,33.1355 L116.8342,40.5775 Z M123.3912,41.3785 L116.4342,41.3785 C116.2132,41.3785 116.0332,41.1985 116.0332,40.9775 L116.0332,33.1355 C116.0332,32.0325 115.6482,31.9415 115.2202,31.9415 C114.1582,31.9415 114.0762,33.0875 114.0762,33.4385 L114.0762,40.9775 C114.0762,41.1985 113.8962,41.3785 113.6762,41.3785 L106.7192,41.3785 C106.4982,41.3785 106.3182,41.1985 106.3182,40.9775 L106.3182,27.5955 C106.3182,27.3745 106.4982,27.1945 106.7192,27.1945 L113.1952,27.1945 C113.4032,27.1945 113.5772,27.3545 113.5942,27.5625 L113.7412,29.3965 C115.1962,27.7435 116.7712,26.9665 118.6352,26.9665 C121.8632,26.9665 123.7912,28.8935 123.7912,32.1235 L123.7912,40.9775 C123.7912,41.1985 123.6112,41.3785 123.3912,41.3785 L123.3912,41.3785 Z" id="Fill-171" fill="#232020"></path>
                            <path d="M134.343,34.2484 C134.343,32.1744 133.837,31.1614 132.952,31.1614 C132.067,31.1614 131.561,32.1744 131.561,34.2484 L131.561,34.3504 C131.561,36.4244 132.067,37.4364 132.952,37.4364 C133.837,37.4364 134.343,36.4244 134.343,34.3504 L134.343,34.2484 Z M132.952,41.2054 C127.437,41.2054 124.628,38.2204 124.628,34.3744 L124.628,34.2234 C124.628,30.3774 127.437,27.3664 132.952,27.3664 C138.467,27.3664 141.276,30.3774 141.276,34.2234 L141.276,34.3744 C141.276,38.2204 138.467,41.2054 132.952,41.2054 L132.952,41.2054 Z" id="Fill-172" fill="#FBDDE8"></path>
                            <path d="M132.9524,31.5618 C132.0574,31.5618 131.9614,33.4408 131.9614,34.2488 L131.9614,34.3498 C131.9614,35.1578 132.0574,37.0358 132.9524,37.0358 C133.8474,37.0358 133.9424,35.1578 133.9424,34.3498 L133.9424,34.2488 C133.9424,33.4408 133.8474,31.5618 132.9524,31.5618 M132.9524,37.8358 C132.1354,37.8358 131.1604,37.2308 131.1604,34.3498 L131.1604,34.2488 C131.1604,31.3668 132.1354,30.7608 132.9524,30.7608 C133.7684,30.7608 134.7434,31.3668 134.7434,34.2488 L134.7434,34.3498 C134.7434,37.2308 133.7684,37.8358 132.9524,37.8358 M132.9524,27.7668 C128.0644,27.7668 125.0284,30.2408 125.0284,34.2228 L125.0284,34.3748 C125.0284,38.3408 128.0644,40.8048 132.9524,40.8048 C137.8404,40.8048 140.8754,38.3408 140.8754,34.3748 L140.8754,34.2228 C140.8754,30.2408 137.8404,27.7668 132.9524,27.7668 M132.9524,41.6058 C127.6524,41.6058 124.2274,38.7668 124.2274,34.3748 L124.2274,34.2228 C124.2274,29.8148 127.6524,26.9658 132.9524,26.9658 C138.2514,26.9658 141.6764,29.8148 141.6764,34.2228 L141.6764,34.3748 C141.6764,38.7668 138.2514,41.6058 132.9524,41.6058" id="Fill-173" fill="#232020"></path>
                            <path d="M149.799,41.2054 C146.737,41.2054 143.575,40.2194 141.653,39.0294 L143.575,35.7664 C145.675,36.9804 148.331,37.5624 149.95,37.5624 C151.038,37.5624 151.342,37.2844 151.342,36.9804 C151.342,35.9184 142.386,36.4754 142.386,31.9964 C142.386,29.5934 144.789,27.3664 150.052,27.3664 C153.037,27.3664 155.972,28.2014 157.742,29.2144 L155.719,32.4774 C153.872,31.5924 151.747,30.9344 150.052,30.9344 C149.242,30.9344 148.762,31.1614 148.762,31.5414 C148.762,32.7304 157.693,32.0474 157.693,36.5244 C157.693,39.2574 154.859,41.2054 149.799,41.2054" id="Fill-174" fill="#FBDDE8"></path>
                            <path d="M142.1994,38.889 C144.2674,40.06 147.2004,40.805 149.7994,40.805 C154.4214,40.805 157.2924,39.165 157.2924,36.525 C157.2924,33.904 153.7064,33.251 151.0874,32.776 C149.3874,32.466 148.3614,32.28 148.3614,31.541 C148.3614,31.305 148.4834,30.534 150.0524,30.534 C151.5824,30.534 153.5754,31.053 155.5664,31.964 L157.1784,29.364 C155.2754,28.387 152.5334,27.767 150.0524,27.767 C144.6884,27.767 142.7864,30.045 142.7864,31.996 C142.7864,34.674 146.6224,35.37 149.1604,35.83 C150.8254,36.132 151.7424,36.299 151.7424,36.981 C151.7424,37.429 151.4304,37.963 149.9504,37.963 C148.4084,37.963 145.8554,37.443 143.7214,36.305 L142.1994,38.889 Z M149.7994,41.606 C146.9184,41.606 143.6374,40.728 141.4424,39.369 C141.2574,39.255 141.1974,39.014 141.3074,38.827 L143.2304,35.563 C143.3414,35.373 143.5874,35.311 143.7754,35.419 C145.8454,36.618 148.4274,37.162 149.9504,37.162 C150.4964,37.162 150.7504,37.088 150.8624,37.035 C150.5304,36.892 149.7024,36.742 149.0174,36.618 C146.2174,36.11 141.9854,35.342 141.9854,31.996 C141.9854,29.676 144.0984,26.966 150.0524,26.966 C152.8264,26.966 155.9234,27.712 157.9404,28.867 C158.0354,28.921 158.1034,29.011 158.1304,29.116 C158.1564,29.221 158.1394,29.332 158.0824,29.425 L156.0584,32.689 C155.9504,32.863 155.7314,32.93 155.5464,32.838 C153.5524,31.882 151.5504,31.334 150.0524,31.334 C149.3814,31.334 149.1754,31.503 149.1624,31.536 C149.3034,31.638 150.3714,31.832 151.2294,31.989 C153.9634,32.485 158.0934,33.237 158.0934,36.525 C158.0934,39.659 154.9144,41.606 149.7994,41.606 L149.7994,41.606 Z" id="Fill-175" fill="#232020"></path>
                        </g>
                    </g>
                </g>
            </g>
        </g>
    </g>
</svg>