<?xml version="1.0" encoding="UTF-8"?>
<svg width="85px" height="85px" viewBox="0 0 85 85" version="1.1" xmlns="http://www.w3.org/2000/svg" xmlns:xlink="http://www.w3.org/1999/xlink">
    <!-- Generator: Sketch 57.1 (83088) - https://sketch.com -->
    <title>Sticker</title>
    <desc>Created with Sketch.</desc>
    <defs>
        <polygon id="path-1" points="0 0.8721 84.1275 0.8721 84.1275 85 0 85"></polygon>
    </defs>
    <g id="Page-1" stroke="none" stroke-width="1" fill="none" fill-rule="evenodd">
        <g id="Home" transform="translate(-351.000000, -135.000000)">
            <g id="hero">
                <g id="txt" transform="translate(36.000000, 134.000000)">
                    <g id="Sticker" transform="translate(315.000000, 0.000000)">
                        <g id="Group-3" transform="translate(0.000000, 0.127800)">
                            <mask id="mask-2" fill="white">
                                <use xlink:href="#path-1"></use>
                            </mask>
                            <g id="Clip-2"></g>
                            <path d="M84.1275,42.9361 C84.1275,66.1671 65.2955,85.0001 42.0645,85.0001 C18.8325,85.0001 -0.0005,66.1671 -0.0005,42.9361 C-0.0005,19.7051 18.8325,0.8721 42.0645,0.8721 C65.2955,0.8721 84.1275,19.7051 84.1275,42.9361" id="Fill-1" fill="#005DC6" mask="url(#mask-2)"></path>
                        </g>
                        <path d="M21.7515,23.8925 C21.1055,23.3405 20.3095,23.3035 19.7365,23.9715 C19.1645,24.6405 19.3245,25.4225 19.9715,25.9745 C20.6165,26.5275 21.4135,26.5645 21.9855,25.8955 C22.5585,25.2265 22.3975,24.4455 21.7515,23.8925 M22.4605,23.0645 C23.5015,23.9545 23.7245,25.3555 22.7235,26.5265 C21.7225,27.6965 20.3035,27.6935 19.2625,26.8035 C18.8065,26.4135 18.5055,25.9185 18.3935,25.3885 L17.5885,21.8835 L18.4795,20.8425 L18.9865,23.3565 L18.9995,23.3415 C20.0005,22.1705 21.4195,22.1735 22.4605,23.0645" id="Fill-4" fill="#FFFFFF"></path>
                        <path d="M26.5709,18.538 C25.5939,17.159 24.7059,16.77 23.8729,17.36 C23.0409,17.95 23.1119,18.916 24.0899,20.296 C25.0669,21.676 25.9549,22.064 26.7879,21.475 C27.6209,20.884 27.5489,19.918 26.5709,18.538 M23.1999,20.927 C21.8699,19.049 21.8989,17.533 23.2949,16.543 C24.6909,15.555 26.1319,16.03 27.4619,17.908 C28.7919,19.786 28.7619,21.302 27.3659,22.29 C25.9699,23.28 24.5299,22.804 23.1999,20.927" id="Fill-6" fill="#FFFFFF"></path>
                        <path d="M36.3853,13.4379 C36.1873,12.6429 35.4993,12.1949 34.7623,12.3779 L33.4423,12.7069 L34.1263,15.4619 L35.4473,15.1339 C36.1843,14.9509 36.5823,14.2339 36.3853,13.4379 M37.5013,13.1609 C37.8463,14.5489 37.1213,15.7799 35.7633,16.1169 L34.3743,16.4619 L34.8813,18.4999 L33.7653,18.7769 L32.0773,11.9839 L34.5813,11.3619 C35.9403,11.0239 37.1563,11.7729 37.5013,13.1609" id="Fill-8" fill="#FFFFFF"></path>
                        <polygon id="Fill-10" fill="#FFFFFF" points="39.564 10.5903 40.711 10.5233 41.117 17.5083 39.969 17.5753"></polygon>
                        <polygon id="Fill-12" fill="#FFFFFF" points="44.0005 10.4833 48.2125 11.0013 48.0865 12.0243 45.0175 11.6473 44.7785 13.5843 47.8495 13.9613 47.7225 14.9943 44.6515 14.6173 44.4145 16.5543 47.4835 16.9313 47.3575 17.9543 43.1465 17.4373"></polygon>
                        <polygon id="Fill-14" fill="#FFFFFF" points="53.9879 13.8466 51.1439 12.7656 51.5099 11.8026 56.1219 13.5546 50.7999 17.9236 53.8869 19.0966 53.5209 20.0596 48.6199 18.1976"></polygon>
                        <path d="M59.4732,20.7431 L60.2682,17.9081 L57.8282,19.5511 L59.4732,20.7431 Z M59.1762,21.8011 L56.9152,20.1621 L55.4202,21.1671 L54.4082,20.4321 L60.7562,16.3821 L61.5752,16.9751 L59.6992,24.2691 L58.6852,23.5351 L59.1762,21.8011 Z" id="Fill-16" fill="#FFFFFF"></path>
                        <path d="M61.8287,23.31 L62.5667,24.191 C61.8777,24.769 61.7987,25.514 62.3567,26.181 C62.8457,26.763 63.3837,26.86 63.8657,26.455 C64.2717,26.115 64.3177,25.749 64.0557,24.939 L63.6757,23.77 C63.3707,22.878 63.5577,22.121 64.2397,21.549 C65.1127,20.817 66.3017,21.02 67.1487,22.031 C68.0487,23.104 67.9807,24.361 66.9767,25.203 L66.2387,24.322 C66.8207,23.833 66.8807,23.235 66.3727,22.63 C65.9487,22.125 65.4437,22.052 65.0387,22.393 C64.6707,22.701 64.6437,23.167 64.9177,24.007 L65.2577,25.066 C65.5477,25.971 65.3547,26.706 64.6277,27.317 C63.7087,28.087 62.4907,27.895 61.5977,26.831 C60.5577,25.59 60.6337,24.312 61.8287,23.31" id="Fill-18" fill="#FFFFFF"></path>
                        <path d="M69.565,38.0522 L69.669,39.2182 C68.761,39.2982 68.296,39.8322 68.373,40.6892 C68.435,41.3962 68.917,41.8352 69.564,41.7782 C70.301,41.7122 70.642,41.2502 70.567,40.4032 L70.524,39.9252 L71.51,39.8372 L71.554,40.3252 C71.619,41.0532 71.979,41.3832 72.647,41.3232 C73.185,41.2752 73.526,40.8132 73.47,40.1962 C73.406,39.4682 72.928,39.0592 72.191,39.1242 L72.09,37.9982 C73.386,37.8832 74.293,38.7062 74.418,40.1122 C74.535,41.4372 73.867,42.3902 72.751,42.4892 C72.033,42.5522 71.49,42.1992 71.184,41.4732 C71.116,42.2822 70.524,42.8582 69.676,42.9332 C68.461,43.0412 67.528,42.1492 67.406,40.7742 C67.265,39.1902 68.06,38.1852 69.565,38.0522" id="Fill-20" fill="#FFFFFF"></path>
                        <path d="M70.438,49.0844 C72.106,49.3474 73.003,48.9824 73.163,47.9764 C73.321,46.9694 72.58,46.3464 70.912,46.0834 C69.243,45.8204 68.345,46.1844 68.187,47.1914 C68.028,48.1984 68.77,48.8214 70.438,49.0844 M71.081,45.0074 C73.351,45.3654 74.416,46.4434 74.15,48.1314 C73.883,49.8194 72.539,50.5184 70.268,50.1604 C67.998,49.8024 66.933,48.7244 67.2,47.0364 C67.465,45.3474 68.81,44.6484 71.081,45.0074" id="Fill-22" fill="#FFFFFF"></path>
                        <path d="M65.7701,58.5302 L68.6611,59.0842 L66.8211,56.7922 L65.7701,58.5302 Z M64.6921,58.3222 L66.1351,55.9342 L65.0091,54.5292 L65.6561,53.4592 L70.2201,59.4432 L69.6981,60.3072 L62.2781,59.0492 L62.9251,57.9792 L64.6921,58.3222 Z" id="Fill-24" fill="#FFFFFF"></path>
                        <path d="M61.8228,65.853 C62.3928,66.442 63.2128,66.484 63.7598,65.955 L64.7368,65.009 L62.7598,62.967 L61.7828,63.914 C61.2368,64.442 61.2518,65.264 61.8228,65.853 M60.9958,66.653 C60.0008,65.625 60.0108,64.196 61.0158,63.222 L62.0438,62.227 L60.5828,60.718 L61.4088,59.918 L66.2798,64.949 L64.4258,66.744 C63.4198,67.718 61.9908,67.681 60.9958,66.653" id="Fill-26" fill="#FFFFFF"></path>
                        <polygon id="Fill-28" fill="#FFFFFF" points="60.3375 70.0835 59.3515 70.6745 56.3075 65.5985 53.8975 67.0425 53.3425 66.1165 56.7375 64.0805"></polygon>
                        <polygon id="Fill-30" fill="#FFFFFF" points="54.2672 73.2729 53.1932 73.6859 50.6832 67.1479 51.7572 66.7359"></polygon>
                        <path d="M49.7838,71.3115 C50.0948,73.4275 48.9718,75.1375 46.7178,75.4685 C44.8088,75.7485 43.4148,74.8515 42.9928,73.4185 L44.2388,73.2355 C44.5938,74.1435 45.4108,74.6195 46.5578,74.4515 C48.0908,74.2265 48.8198,73.0695 48.5878,71.4875 C48.3558,69.9055 47.3248,69.0055 45.7928,69.2305 C44.6448,69.3985 43.9998,70.0895 43.9198,71.0605 L42.6737661,71.2435 C42.6668,69.7495 43.7448,68.4905 45.6528,68.2105 C47.9078,67.8795 49.4738,69.1955 49.7838,71.3115" id="Fill-32" fill="#FFFFFF"></path>
                        <path d="M37.2193,70.955 L37.8593,73.825 L39.2303,71.227 L37.2193,70.955 Z M36.9823,69.884 L39.7443,70.259 L40.5853,68.668 L41.8233,68.836 L38.1503,75.397 L37.1503,75.262 L35.3573,67.959 L36.5943,68.127 L36.9823,69.884 Z" id="Fill-34" fill="#FFFFFF"></path>
                        <path d="M33.4332,71.0463 C32.5612,72.9993 30.6972,73.8403 28.6162,72.9123 C26.8552,72.1253 26.1592,70.6223 26.5702,69.1863 L27.7192,69.6993 C27.5342,70.6553 27.9682,71.4953 29.0272,71.9683 C30.4412,72.5993 31.6762,72.0133 32.3292,70.5533 C32.9802,69.0933 32.5922,67.7813 31.1772,67.1503 C30.1202,66.6773 29.2042,66.9143 28.6162,67.6923 L27.4662,67.1783 C28.2602,65.9133 29.8452,65.4283 31.6072,66.2143 C33.6872,67.1433 34.3042,69.0933 33.4332,71.0463" id="Fill-36" fill="#FFFFFF"></path>
                        <polygon id="Fill-38" fill="#FFFFFF" points="23.0728 69.5249 22.1518 68.8369 26.3388 63.2289 27.2598 63.9169"></polygon>
                        <path d="M18.4068,60.1225 C17.2988,61.0575 16.9598,62.4925 17.9678,63.6705 C18.9748,64.8485 20.4448,64.7355 21.5398,63.7855 C22.6478,62.8505 22.9868,61.4155 21.9798,60.2385 C20.9718,59.0605 19.5028,59.1725 18.4068,60.1225 M22.3268,64.7055 C20.8068,66.0045 18.6608,66.0645 17.1848,64.3395 C15.7098,62.6145 16.0998,60.5035 17.6208,59.2035 C19.1398,57.9035 21.2868,57.8435 22.7618,59.5685 C24.2378,61.2935 23.8458,63.4045 22.3268,64.7055" id="Fill-40" fill="#FFFFFF"></path>
                        <polygon id="Fill-42" fill="#FFFFFF" points="13.1617 58.354 12.6907 57.239 16.1537 52.118 11.3797 54.133 10.9517 53.12 17.4027 50.395 17.8737 51.511 14.4117 56.632 19.1847 54.617 19.6127 55.63"></polygon>
                        <polygon id="Fill-44" fill="#FFFFFF" points="10.0543 49.4604 9.4923 45.2544 10.5133 45.1184 10.9233 48.1834 12.8583 47.9244 12.4483 44.8594 13.4793 44.7214 13.8893 47.7864 15.8233 47.5274 15.4123 44.4624 16.4343 44.3254 16.9973 48.5314"></polygon>
                        <path d="M14.1187,42.9096 L14.2257,41.7636 C15.1227,41.8476 15.7097,41.3796 15.7907,40.5126 C15.8607,39.7556 15.5517,39.3046 14.9237,39.2456 C14.3947,39.1966 14.1027,39.4206 13.7107,40.1776 L13.1457,41.2706 C12.7247,42.1166 12.0557,42.5156 11.1687,42.4326 C10.0327,42.3266 9.3407,41.3376 9.4637,40.0226 C9.5947,38.6276 10.5367,37.7906 11.8417,37.9126 L11.7347,39.0586 C10.9767,38.9876 10.5107,39.3666 10.4357,40.1536 C10.3747,40.8106 10.6787,41.2216 11.2067,41.2706 C11.6847,41.3156 12.0357,41.0066 12.4397,40.2206 L12.9547,39.2326 C13.3947,38.3896 14.0547,38.0086 15.0007,38.0976 C16.1967,38.2086 16.9167,39.2106 16.7877,40.5966 C16.6367,42.2096 15.6737,43.0546 14.1187,42.9096" id="Fill-46" fill="#FFFFFF"></path>
                        <path d="M42.064,25.789 C42.064,25.789 51.243,36.822 53.404,41.086 C54.138,42.534 54.987,45.174 54.987,47.416 C54.987,54.553 49.201,60.339 42.064,60.339 C34.926,60.339 29.141,54.553 29.141,47.416 C29.141,45.174 29.989,42.534 30.723,41.086 C32.884,36.822 42.064,25.789 42.064,25.789 Z" id="Stroke-48" stroke="#FFFFFF" stroke-width="1.7"></path>
                        <path d="M37.5347,46.2363 C37.5347,47.1993 36.7547,47.9803 35.7917,47.9803 C34.8287,47.9803 34.0487,47.1993 34.0487,46.2363 C34.0487,45.2733 34.8287,44.4933 35.7917,44.4933 C36.7547,44.4933 37.5347,45.2733 37.5347,46.2363" id="Fill-50" fill="#FFFFFF"></path>
                        <path d="M50.0797,46.2363 C50.0797,47.1993 49.2997,47.9803 48.3367,47.9803 C47.3727,47.9803 46.5927,47.1993 46.5927,46.2363 C46.5927,45.2733 47.3727,44.4933 48.3367,44.4933 C49.2997,44.4933 50.0797,45.2733 50.0797,46.2363" id="Fill-52" fill="#FFFFFF"></path>
                        <path d="M38.0005,51.4018 C38.4945,53.2228 40.0865,54.5898 42.0635,54.5898 C44.0405,54.5898 45.6335,53.2228 46.1275,51.4018" id="Stroke-54" stroke="#FFFFFF" stroke-width="1.7" stroke-linecap="square" stroke-linejoin="round"></path>
                    </g>
                </g>
            </g>
        </g>
    </g>
</svg>