<?xml version="1.0" encoding="UTF-8"?>
<svg width="115px" height="89px" viewBox="0 0 115 89" version="1.1" xmlns="http://www.w3.org/2000/svg" xmlns:xlink="http://www.w3.org/1999/xlink">
    <!-- Generator: Sketch 57.1 (83088) - https://sketch.com -->
    <title>Aceite</title>
    <desc>Created with Sketch.</desc>
    <defs>
        <polygon id="path-1" points="1.57029945e-12 88.325 114.194 88.325 114.194 -9.23705556e-14 1.57029945e-12 -9.23705556e-14"></polygon>
    </defs>
    <g id="Page-1" stroke="none" stroke-width="1" fill="none" fill-rule="evenodd">
        <g id="Home" transform="translate(-71.000000, -3759.000000)">
            <g id="no-contiene" transform="translate(0.000000, 3701.000000)">
                <g id="stickers" transform="translate(71.000000, 20.000000)">
                    <g id="Aceite" transform="translate(0.000000, 38.000000)">
                        <g transform="translate(0.000000, 0.000400)">
                            <path d="M0.4,59.7033 L3.316,59.7033 C3.316,60.7733 4.359,61.5223 5.857,61.5223 C6.954,61.5223 7.649,60.9333 7.649,60.0513 C7.649,59.3553 7.354,58.9283 6.017,58.5803 L3.53,57.9113 C1.791,57.4303 0.801,56.1733 0.801,54.4073 C0.801,52.2943 2.807,50.7423 5.589,50.7423 C8.638,50.7423 10.511,52.2143 10.511,54.6213 L7.649,54.6213 C7.649,53.5783 6.846,52.9633 5.482,52.9633 C4.439,52.9633 3.69,53.4983 3.69,54.2463 C3.69,54.9153 4.091,55.3703 5.242,55.6913 L7.729,56.4133 C9.495,56.9223 10.618,58.2053 10.618,59.9713 C10.618,62.4053 8.718,63.8493 5.696,63.8493 C2.647,63.8493 0.4,62.0843 0.4,59.7033" id="Fill-1" fill="#FFF584"></path>
                            <path d="M0.4,59.7033 L3.316,59.7033 C3.316,60.7733 4.359,61.5223 5.857,61.5223 C6.954,61.5223 7.649,60.9333 7.649,60.0513 C7.649,59.3553 7.354,58.9283 6.017,58.5803 L3.53,57.9113 C1.791,57.4303 0.801,56.1733 0.801,54.4073 C0.801,52.2943 2.807,50.7423 5.589,50.7423 C8.638,50.7423 10.511,52.2143 10.511,54.6213 L7.649,54.6213 C7.649,53.5783 6.846,52.9633 5.482,52.9633 C4.439,52.9633 3.69,53.4983 3.69,54.2463 C3.69,54.9153 4.091,55.3703 5.242,55.6913 L7.729,56.4133 C9.495,56.9223 10.618,58.2053 10.618,59.9713 C10.618,62.4053 8.718,63.8493 5.696,63.8493 C2.647,63.8493 0.4,62.0843 0.4,59.7033 Z" id="Stroke-3" stroke="#141117" stroke-width="0.8"></path>
                            <mask id="mask-2" fill="white">
                                <use xlink:href="#path-1"></use>
                            </mask>
                            <g id="Clip-6"></g>
                            <path d="M13.561,63.529 L16.45,63.529 L16.45,51.064 L13.561,51.064 L13.561,63.529 Z M12.838,46.517 C12.838,45.313 13.721,44.35 15.005,44.35 C16.289,44.35 17.171,45.313 17.171,46.517 C17.171,47.72 16.289,48.683 15.005,48.683 C13.721,48.683 12.838,47.72 12.838,46.517 L12.838,46.517 Z" id="Fill-5" fill="#FFF584" mask="url(#mask-2)"></path>
                            <path d="M13.561,63.529 L16.45,63.529 L16.45,51.064 L13.561,51.064 L13.561,63.529 Z M12.838,46.517 C12.838,45.313 13.721,44.35 15.005,44.35 C16.289,44.35 17.171,45.313 17.171,46.517 C17.171,47.72 16.289,48.683 15.005,48.683 C13.721,48.683 12.838,47.72 12.838,46.517 Z" id="Stroke-7" stroke="#141117" stroke-width="0.8" mask="url(#mask-2)"></path>
                            <path d="M20.1949,51.0637 L23.1099,51.0637 L23.1099,52.8017 C23.8859,51.4647 25.3309,50.7427 27.1759,50.7427 C30.1719,50.7427 31.7229,52.4277 31.7229,55.6917 L31.7229,63.5287 L28.8069,63.5287 L28.8069,57.0287 C28.8069,54.3797 28.1119,53.2307 26.0799,53.2307 C24.1799,53.2307 23.1099,54.4877 23.1099,56.6807 L23.1099,63.5287 L20.1949,63.5287 L20.1949,51.0637 Z" id="Fill-8" fill="#FFF584" mask="url(#mask-2)"></path>
                            <path d="M20.1949,51.0637 L23.1099,51.0637 L23.1099,52.8017 C23.8859,51.4647 25.3309,50.7427 27.1759,50.7427 C30.1719,50.7427 31.7229,52.4277 31.7229,55.6917 L31.7229,63.5287 L28.8069,63.5287 L28.8069,57.0287 C28.8069,54.3797 28.1119,53.2307 26.0799,53.2307 C24.1799,53.2307 23.1099,54.4877 23.1099,56.6807 L23.1099,63.5287 L20.1949,63.5287 L20.1949,51.0637 Z" id="Stroke-9" stroke="#141117" stroke-width="0.8" mask="url(#mask-2)"></path>
                            <path d="M51.3316,57.2961 C51.3316,55.1561 50.1276,53.3371 47.6406,53.3371 C45.3666,53.3371 44.0026,55.0231 44.0026,57.2961 C44.0026,59.5691 45.3666,61.2551 47.6406,61.2551 C50.1276,61.2551 51.3316,59.4361 51.3316,57.2961 M41.0866,57.2961 C41.0866,53.6311 43.4136,50.7421 47.2926,50.7421 C48.9506,50.7421 50.4486,51.4911 51.2246,52.7491 L51.2246,51.0641 L54.1136,51.0641 L54.1136,63.5281 L51.2246,63.5281 L51.2246,61.8431 C50.4486,63.1011 48.7366,63.8501 47.2126,63.8501 C43.1996,63.8501 41.0866,60.9601 41.0866,57.2961" id="Fill-10" fill="#FFF584" mask="url(#mask-2)"></path>
                            <path d="M51.3316,57.2961 C51.3316,55.1561 50.1276,53.3371 47.6406,53.3371 C45.3666,53.3371 44.0026,55.0231 44.0026,57.2961 C44.0026,59.5691 45.3666,61.2551 47.6406,61.2551 C50.1276,61.2551 51.3316,59.4361 51.3316,57.2961 Z M41.0866,57.2961 C41.0866,53.6311 43.4136,50.7421 47.2926,50.7421 C48.9506,50.7421 50.4486,51.4911 51.2246,52.7491 L51.2246,51.0641 L54.1136,51.0641 L54.1136,63.5281 L51.2246,63.5281 L51.2246,61.8431 C50.4486,63.1011 48.7366,63.8501 47.2126,63.8501 C43.1996,63.8501 41.0866,60.9601 41.0866,57.2961 Z" id="Stroke-11" stroke="#141117" stroke-width="0.8" mask="url(#mask-2)"></path>
                            <path d="M56.9225,57.2961 C56.9225,53.4171 59.2495,50.7421 63.1285,50.7421 C66.6065,50.7421 68.7725,52.6421 69.0395,55.5041 L66.1245,55.5041 C65.8035,54.0861 64.8945,53.3371 63.1285,53.3371 C61.0685,53.3371 59.8385,54.7551 59.8385,57.2961 C59.8385,59.8371 61.0685,61.2551 63.1285,61.2551 C64.8945,61.2551 65.8035,60.5321 66.1245,59.2221 L69.0395,59.2221 C68.7725,62.0041 66.6065,63.8501 63.1285,63.8501 C59.2495,63.8501 56.9225,61.1751 56.9225,57.2961" id="Fill-12" fill="#FFF584" mask="url(#mask-2)"></path>
                            <path d="M56.9225,57.2961 C56.9225,53.4171 59.2495,50.7421 63.1285,50.7421 C66.6065,50.7421 68.7725,52.6421 69.0395,55.5041 L66.1245,55.5041 C65.8035,54.0861 64.8945,53.3371 63.1285,53.3371 C61.0685,53.3371 59.8385,54.7551 59.8385,57.2961 C59.8385,59.8371 61.0685,61.2551 63.1285,61.2551 C64.8945,61.2551 65.8035,60.5321 66.1245,59.2221 L69.0395,59.2221 C68.7725,62.0041 66.6065,63.8501 63.1285,63.8501 C59.2495,63.8501 56.9225,61.1751 56.9225,57.2961 Z" id="Stroke-13" stroke="#141117" stroke-width="0.8" mask="url(#mask-2)"></path>
                            <path d="M80.5426,56.0392 C80.5166,54.1122 79.3926,53.0432 77.3866,53.0432 C75.3266,53.0432 74.0966,54.2732 74.0696,56.0392 L80.5426,56.0392 Z M83.3246,58.2592 L74.0696,58.2592 C74.1496,60.2382 75.4346,61.3092 77.5466,61.3092 C78.9906,61.3092 79.8476,60.8532 80.3286,59.8912 L83.2716,59.8912 C82.8966,62.2182 80.5426,63.8502 77.5466,63.8502 C73.6146,63.8502 71.1806,61.3352 71.1806,57.2962 C71.1806,53.3102 73.6416,50.7422 77.4396,50.7422 C80.9976,50.7422 83.4046,53.1492 83.4046,56.6542 C83.4046,57.1622 83.3786,57.5632 83.3246,58.2592 L83.3246,58.2592 Z" id="Fill-14" fill="#FFF584" mask="url(#mask-2)"></path>
                            <path d="M80.5426,56.0392 C80.5166,54.1122 79.3926,53.0432 77.3866,53.0432 C75.3266,53.0432 74.0966,54.2732 74.0696,56.0392 L80.5426,56.0392 Z M83.3246,58.2592 L74.0696,58.2592 C74.1496,60.2382 75.4346,61.3092 77.5466,61.3092 C78.9906,61.3092 79.8476,60.8532 80.3286,59.8912 L83.2716,59.8912 C82.8966,62.2182 80.5426,63.8502 77.5466,63.8502 C73.6146,63.8502 71.1806,61.3352 71.1806,57.2962 C71.1806,53.3102 73.6416,50.7422 77.4396,50.7422 C80.9976,50.7422 83.4046,53.1492 83.4046,56.6542 C83.4046,57.1622 83.3786,57.5632 83.3246,58.2592 Z" id="Stroke-15" stroke="#141117" stroke-width="0.8" mask="url(#mask-2)"></path>
                            <path d="M86.214,63.529 L89.103,63.529 L89.103,51.064 L86.214,51.064 L86.214,63.529 Z M85.493,46.517 C85.493,45.313 86.375,44.35 87.659,44.35 C88.943,44.35 89.826,45.313 89.826,46.517 C89.826,47.72 88.943,48.683 87.659,48.683 C86.375,48.683 85.493,47.72 85.493,46.517 L85.493,46.517 Z" id="Fill-16" fill="#FFF584" mask="url(#mask-2)"></path>
                            <path d="M86.214,63.529 L89.103,63.529 L89.103,51.064 L86.214,51.064 L86.214,63.529 Z M85.493,46.517 C85.493,45.313 86.375,44.35 87.659,44.35 C88.943,44.35 89.826,45.313 89.826,46.517 C89.826,47.72 88.943,48.683 87.659,48.683 C86.375,48.683 85.493,47.72 85.493,46.517 Z" id="Stroke-17" stroke="#141117" stroke-width="0.8" mask="url(#mask-2)"></path>
                            <path d="M99.9635,60.9602 L99.9635,63.5282 C99.5085,63.6082 98.6525,63.6892 97.7965,63.6892 C96.3795,63.6892 93.7575,63.5022 93.7575,59.3022 L93.7575,53.4982 L91.6455,53.4982 L91.6455,51.0642 L93.7575,51.0642 L93.7575,47.2922 L96.6735,47.2922 L96.6735,51.0642 L99.5355,51.0642 L99.5355,53.4982 L96.6735,53.4982 L96.6735,58.6342 C96.6735,60.8002 97.3425,61.0672 98.4925,61.0672 C98.9465,61.0672 99.6695,61.0142 99.9635,60.9602" id="Fill-18" fill="#FFF584" mask="url(#mask-2)"></path>
                            <path d="M99.9635,60.9602 L99.9635,63.5282 C99.5085,63.6082 98.6525,63.6892 97.7965,63.6892 C96.3795,63.6892 93.7575,63.5022 93.7575,59.3022 L93.7575,53.4982 L91.6455,53.4982 L91.6455,51.0642 L93.7575,51.0642 L93.7575,47.2922 L96.6735,47.2922 L96.6735,51.0642 L99.5355,51.0642 L99.5355,53.4982 L96.6735,53.4982 L96.6735,58.6342 C96.6735,60.8002 97.3425,61.0672 98.4925,61.0672 C98.9465,61.0672 99.6695,61.0142 99.9635,60.9602 Z" id="Stroke-19" stroke="#141117" stroke-width="0.8" mask="url(#mask-2)"></path>
                            <path d="M110.9313,56.0392 C110.9053,54.1122 109.7813,53.0432 107.7753,53.0432 C105.7153,53.0432 104.4853,54.2732 104.4583,56.0392 L110.9313,56.0392 Z M113.7133,58.2592 L104.4583,58.2592 C104.5383,60.2382 105.8233,61.3092 107.9353,61.3092 C109.3793,61.3092 110.2363,60.8532 110.7173,59.8912 L113.6603,59.8912 C113.2853,62.2182 110.9313,63.8502 107.9353,63.8502 C104.0033,63.8502 101.5693,61.3352 101.5693,57.2962 C101.5693,53.3102 104.0303,50.7422 107.8283,50.7422 C111.3863,50.7422 113.7933,53.1492 113.7933,56.6542 C113.7933,57.1622 113.7673,57.5632 113.7133,58.2592 L113.7133,58.2592 Z" id="Fill-20" fill="#FFF584" mask="url(#mask-2)"></path>
                            <path d="M110.9313,56.0392 C110.9053,54.1122 109.7813,53.0432 107.7753,53.0432 C105.7153,53.0432 104.4853,54.2732 104.4583,56.0392 L110.9313,56.0392 Z M113.7133,58.2592 L104.4583,58.2592 C104.5383,60.2382 105.8233,61.3092 107.9353,61.3092 C109.3793,61.3092 110.2363,60.8532 110.7173,59.8912 L113.6603,59.8912 C113.2853,62.2182 110.9313,63.8502 107.9353,63.8502 C104.0033,63.8502 101.5693,61.3352 101.5693,57.2962 C101.5693,53.3102 104.0303,50.7422 107.8283,50.7422 C111.3863,50.7422 113.7933,53.1492 113.7933,56.6542 C113.7933,57.1622 113.7673,57.5632 113.7133,58.2592 Z" id="Stroke-21" stroke="#141117" stroke-width="0.8" mask="url(#mask-2)"></path>
                            <path d="M14.0289,75.1389 L16.9449,75.1389 L16.9449,76.8769 C17.4789,75.7279 18.7909,74.8179 20.4219,74.8179 C22.6959,74.8179 23.8189,75.8079 24.3539,77.0379 C24.9419,75.7809 26.4139,74.8179 28.1789,74.8179 C31.9239,74.8179 32.6729,77.3859 32.6729,79.7129 L32.6729,87.6039 L29.7579,87.6039 L29.7579,80.2749 C29.7579,78.2149 28.9549,77.3059 27.4299,77.3059 C25.9589,77.3059 24.8089,78.0279 24.8089,80.9969 L24.8089,87.6039 L21.8929,87.6039 L21.8929,80.2479 C21.8929,78.1889 21.1439,77.3059 19.6199,77.3059 C18.1479,77.3059 16.9449,78.0279 16.9449,80.9969 L16.9449,87.6039 L14.0289,87.6039 L14.0289,75.1389 Z" id="Fill-22" fill="#FFF584" mask="url(#mask-2)"></path>
                            <path d="M14.0289,75.1389 L16.9449,75.1389 L16.9449,76.8769 C17.4789,75.7279 18.7909,74.8179 20.4219,74.8179 C22.6959,74.8179 23.8189,75.8079 24.3539,77.0379 C24.9419,75.7809 26.4139,74.8179 28.1789,74.8179 C31.9239,74.8179 32.6729,77.3859 32.6729,79.7129 L32.6729,87.6039 L29.7579,87.6039 L29.7579,80.2749 C29.7579,78.2149 28.9549,77.3059 27.4299,77.3059 C25.9589,77.3059 24.8089,78.0279 24.8089,80.9969 L24.8089,87.6039 L21.8929,87.6039 L21.8929,80.2479 C21.8929,78.1889 21.1439,77.3059 19.6199,77.3059 C18.1479,77.3059 16.9449,78.0279 16.9449,80.9969 L16.9449,87.6039 L14.0289,87.6039 L14.0289,75.1389 Z" id="Stroke-23" stroke="#141117" stroke-width="0.8" mask="url(#mask-2)"></path>
                            <path d="M36.286,87.604 L39.175,87.604 L39.175,75.139 L36.286,75.139 L36.286,87.604 Z M35.563,70.592 C35.563,69.388 36.446,68.425 37.73,68.425 C39.013,68.425 39.896,69.388 39.896,70.592 C39.896,71.795 39.013,72.758 37.73,72.758 C36.446,72.758 35.563,71.795 35.563,70.592 L35.563,70.592 Z" id="Fill-24" fill="#FFF584" mask="url(#mask-2)"></path>
                            <path d="M36.286,87.604 L39.175,87.604 L39.175,75.139 L36.286,75.139 L36.286,87.604 Z M35.563,70.592 C35.563,69.388 36.446,68.425 37.73,68.425 C39.013,68.425 39.896,69.388 39.896,70.592 C39.896,71.795 39.013,72.758 37.73,72.758 C36.446,72.758 35.563,71.795 35.563,70.592 Z" id="Stroke-25" stroke="#141117" stroke-width="0.8" mask="url(#mask-2)"></path>
                            <path d="M42.9195,75.1389 L45.8345,75.1389 L45.8345,76.8769 C46.6105,75.5399 48.0555,74.8179 49.9005,74.8179 C52.8965,74.8179 54.4475,76.5029 54.4475,79.7669 L54.4475,87.6039 L51.5315,87.6039 L51.5315,81.1039 C51.5315,78.4549 50.8365,77.3059 48.8045,77.3059 C46.9045,77.3059 45.8345,78.5629 45.8345,80.7559 L45.8345,87.6039 L42.9195,87.6039 L42.9195,75.1389 Z" id="Fill-26" fill="#FFF584" mask="url(#mask-2)"></path>
                            <path d="M42.9195,75.1389 L45.8345,75.1389 L45.8345,76.8769 C46.6105,75.5399 48.0555,74.8179 49.9005,74.8179 C52.8965,74.8179 54.4475,76.5029 54.4475,79.7669 L54.4475,87.6039 L51.5315,87.6039 L51.5315,81.1039 C51.5315,78.4549 50.8365,77.3059 48.8045,77.3059 C46.9045,77.3059 45.8345,78.5629 45.8345,80.7559 L45.8345,87.6039 L42.9195,87.6039 L42.9195,75.1389 Z" id="Stroke-27" stroke="#141117" stroke-width="0.8" mask="url(#mask-2)"></path>
                            <path d="M66.4859,80.1145 C66.4589,78.1885 65.3359,77.1185 63.3299,77.1185 C61.2689,77.1185 60.0399,78.3485 60.0119,80.1145 L66.4859,80.1145 Z M69.2669,82.3345 L60.0119,82.3345 C60.0919,84.3135 61.3769,85.3845 63.4899,85.3845 C64.9339,85.3845 65.7899,84.9285 66.2719,83.9665 L69.2139,83.9665 C68.8399,86.2935 66.4859,87.9255 63.4899,87.9255 C59.5569,87.9255 57.1239,85.4105 57.1239,81.3715 C57.1239,77.3855 59.5849,74.8175 63.3819,74.8175 C66.9399,74.8175 69.3469,77.2245 69.3469,80.7295 C69.3469,81.2375 69.3209,81.6385 69.2669,82.3345 L69.2669,82.3345 Z" id="Fill-28" fill="#FFF584" mask="url(#mask-2)"></path>
                            <path d="M66.4859,80.1145 C66.4589,78.1885 65.3359,77.1185 63.3299,77.1185 C61.2689,77.1185 60.0399,78.3485 60.0119,80.1145 L66.4859,80.1145 Z M69.2669,82.3345 L60.0119,82.3345 C60.0919,84.3135 61.3769,85.3845 63.4899,85.3845 C64.9339,85.3845 65.7899,84.9285 66.2719,83.9665 L69.2139,83.9665 C68.8399,86.2935 66.4859,87.9255 63.4899,87.9255 C59.5569,87.9255 57.1239,85.4105 57.1239,81.3715 C57.1239,77.3855 59.5849,74.8175 63.3819,74.8175 C66.9399,74.8175 69.3469,77.2245 69.3469,80.7295 C69.3469,81.2375 69.3209,81.6385 69.2669,82.3345 Z" id="Stroke-29" stroke="#141117" stroke-width="0.8" mask="url(#mask-2)"></path>
                            <path d="M72.1568,75.1389 L75.0728,75.1389 L75.0728,77.5459 C75.5268,75.7809 77.0248,74.9789 78.3888,74.9789 C78.8438,74.9789 79.2188,75.0049 79.5398,75.0849 L79.5398,77.7599 C79.0848,77.7059 78.8438,77.7059 78.3888,77.7059 C76.3298,77.7059 75.0728,79.2579 75.0728,82.0939 L75.0728,87.6039 L72.1568,87.6039 L72.1568,75.1389 Z" id="Fill-30" fill="#FFF584" mask="url(#mask-2)"></path>
                            <path d="M72.1568,75.1389 L75.0728,75.1389 L75.0728,77.5459 C75.5268,75.7809 77.0248,74.9789 78.3888,74.9789 C78.8438,74.9789 79.2188,75.0049 79.5398,75.0849 L79.5398,77.7599 C79.0848,77.7059 78.8438,77.7059 78.3888,77.7059 C76.3298,77.7059 75.0728,79.2579 75.0728,82.0939 L75.0728,87.6039 L72.1568,87.6039 L72.1568,75.1389 Z" id="Stroke-31" stroke="#141117" stroke-width="0.8" mask="url(#mask-2)"></path>
                            <path d="M90.7223,81.3713 C90.7223,79.2313 89.5183,77.4123 87.0313,77.4123 C84.7563,77.4123 83.3933,79.0983 83.3933,81.3713 C83.3933,83.6443 84.7563,85.3303 87.0313,85.3303 C89.5183,85.3303 90.7223,83.5113 90.7223,81.3713 M80.4773,81.3713 C80.4773,77.7063 82.8043,74.8173 86.6833,74.8173 C88.3413,74.8173 89.8393,75.5663 90.6153,76.8243 L90.6153,75.1393 L93.5033,75.1393 L93.5033,87.6033 L90.6153,87.6033 L90.6153,85.9183 C89.8393,87.1763 88.1273,87.9253 86.6023,87.9253 C82.5903,87.9253 80.4773,85.0363 80.4773,81.3713" id="Fill-32" fill="#FFF584" mask="url(#mask-2)"></path>
                            <path d="M90.7223,81.3713 C90.7223,79.2313 89.5183,77.4123 87.0313,77.4123 C84.7563,77.4123 83.3933,79.0983 83.3933,81.3713 C83.3933,83.6443 84.7563,85.3303 87.0313,85.3303 C89.5183,85.3303 90.7223,83.5113 90.7223,81.3713 Z M80.4773,81.3713 C80.4773,77.7063 82.8043,74.8173 86.6833,74.8173 C88.3413,74.8173 89.8393,75.5663 90.6153,76.8243 L90.6153,75.1393 L93.5033,75.1393 L93.5033,87.6033 L90.6153,87.6033 L90.6153,85.9183 C89.8393,87.1763 88.1273,87.9253 86.6023,87.9253 C82.5903,87.9253 80.4773,85.0363 80.4773,81.3713 Z" id="Stroke-33" stroke="#141117" stroke-width="0.8" mask="url(#mask-2)"></path>
                            <polygon id="Fill-34" fill="#FFF584" mask="url(#mask-2)" points="97.25 87.604 100.165 87.604 100.165 68.88 97.25 68.88"></polygon>
                            <polygon id="Stroke-35" stroke="#141117" stroke-width="0.8" mask="url(#mask-2)" points="97.25 87.604 100.165 87.604 100.165 68.88 97.25 68.88"></polygon>
                            <path d="M57.0968,0.6252 C57.0968,0.6252 68.0528,13.7942 70.6328,18.8832 C71.5088,20.6112 72.5208,23.7622 72.5208,26.4372 C72.5208,34.9562 65.6158,41.8612 57.0968,41.8612 C48.5778,41.8612 41.6728,34.9562 41.6728,26.4372 C41.6728,23.7622 42.6848,20.6112 43.5618,18.8832 C46.1408,13.7942 57.0968,0.6252 57.0968,0.6252" id="Fill-36" fill="#FFF584" mask="url(#mask-2)"></path>
                            <path d="M57.0968,0.6252 C57.0968,0.6252 68.0528,13.7942 70.6328,18.8832 C71.5088,20.6112 72.5208,23.7622 72.5208,26.4372 C72.5208,34.9562 65.6158,41.8612 57.0968,41.8612 C48.5778,41.8612 41.6728,34.9562 41.6728,26.4372 C41.6728,23.7622 42.6848,20.6112 43.5618,18.8832 C46.1408,13.7942 57.0968,0.6252 57.0968,0.6252 Z" id="Stroke-37" stroke="#141117" stroke-width="0.8" mask="url(#mask-2)"></path>
                            <path d="M49.715,19.8371 C47.772,19.8371 46.196,21.4121 46.196,23.3561 C46.196,25.2981 47.772,26.8741 49.715,26.8741 C51.658,26.8741 53.234,25.2981 53.234,23.3561 C53.234,21.4121 51.658,19.8371 49.715,19.8371" id="Fill-38" fill="#FFFFFF" mask="url(#mask-2)"></path>
                            <path d="M49.715,19.8371 C47.772,19.8371 46.196,21.4121 46.196,23.3561 C46.196,25.2981 47.772,26.8741 49.715,26.8741 C51.658,26.8741 53.234,25.2981 53.234,23.3561 C53.234,21.4121 51.658,19.8371 49.715,19.8371" id="Stroke-39" stroke="#232020" stroke-width="0.8" stroke-linecap="round" mask="url(#mask-2)"></path>
                            <path d="M51.6163,23.3947 C51.6163,24.4447 50.7653,25.2947 49.7153,25.2947 C48.6653,25.2947 47.8143,24.4447 47.8143,23.3947 C47.8143,22.3447 48.6653,21.4937 49.7153,21.4937 C50.7653,21.4947 51.6163,22.3457 51.6163,23.3947" id="Fill-41" fill="#232020" mask="url(#mask-2)"></path>
                            <path d="M50.3771,22.0695 C50.3771,21.7085 50.6701,21.4155 51.0311,21.4155 C51.3921,21.4155 51.6861,21.7085 51.6861,22.0695 C51.6861,22.4295 51.3921,22.7235 51.0311,22.7235 C50.6701,22.7235 50.3771,22.4295 50.3771,22.0695" id="Fill-42" fill="#FFFFFF" mask="url(#mask-2)"></path>
                            <path d="M64.4786,19.8371 C62.5356,19.8371 60.9596,21.4121 60.9596,23.3561 C60.9596,25.2981 62.5356,26.8741 64.4786,26.8741 C66.4226,26.8741 67.9976,25.2981 67.9976,23.3561 C67.9976,21.4121 66.4226,19.8371 64.4786,19.8371" id="Fill-43" fill="#FFFFFF" mask="url(#mask-2)"></path>
                            <path d="M64.4786,19.8371 C62.5356,19.8371 60.9596,21.4121 60.9596,23.3561 C60.9596,25.2981 62.5356,26.8741 64.4786,26.8741 C66.4226,26.8741 67.9976,25.2981 67.9976,23.3561 C67.9976,21.4121 66.4226,19.8371 64.4786,19.8371" id="Stroke-44" stroke="#232020" stroke-width="0.8" stroke-linecap="round" mask="url(#mask-2)"></path>
                            <path d="M66.38,23.3947 C66.38,24.4447 65.529,25.2947 64.479,25.2947 C63.429,25.2947 62.578,24.4447 62.578,23.3947 C62.578,22.3447 63.429,21.4937 64.479,21.4937 C65.529,21.4947 66.38,22.3457 66.38,23.3947" id="Fill-46" fill="#232020" mask="url(#mask-2)"></path>
                            <path d="M65.1407,22.0695 C65.1407,21.7085 65.4337,21.4155 65.7947,21.4155 C66.1567,21.4155 66.4497,21.7085 66.4497,22.0695 C66.4497,22.4295 66.1567,22.7235 65.7947,22.7235 C65.4337,22.7235 65.1407,22.4295 65.1407,22.0695" id="Fill-47" fill="#FFFFFF" mask="url(#mask-2)"></path>
                            <path d="M52.0675,30.4943 C52.0675,30.4943 52.9245,33.2633 57.0975,33.2633 C61.2695,33.2633 62.1265,30.4943 62.1265,30.4943" id="Stroke-48" stroke="#232020" stroke-width="0.8" stroke-linecap="round" mask="url(#mask-2)"></path>
                            <path d="M48.9366,29.3976 C48.9366,30.9626 47.6666,32.2326 46.1016,32.2326 C44.5356,32.2326 43.2666,30.9626 43.2666,29.3976 C43.2666,27.8316 44.5356,26.5616 46.1016,26.5616 C47.6666,26.5616 48.9366,27.8316 48.9366,29.3976" id="Fill-49" fill="#FBDDE8" mask="url(#mask-2)"></path>
                            <path d="M70.9278,29.3976 C70.9278,30.9626 69.6578,32.2326 68.0928,32.2326 C66.5268,32.2326 65.2578,30.9626 65.2578,29.3976 C65.2578,27.8316 66.5268,26.5616 68.0928,26.5616 C69.6578,26.5616 70.9278,27.8316 70.9278,29.3976" id="Fill-50" fill="#FBDDE8" mask="url(#mask-2)"></path>
                        </g>
                        <g id="Group-40" transform="translate(46.000000, 19.325400)"></g>
                        <g id="Group-45" transform="translate(60.000000, 19.325400)"></g>
                    </g>
                </g>
            </g>
        </g>
    </g>
</svg>