<?xml version="1.0" encoding="UTF-8"?>
<svg width="78px" height="85px" viewBox="0 0 78 85" version="1.1" xmlns="http://www.w3.org/2000/svg" xmlns:xlink="http://www.w3.org/1999/xlink">
    <!-- Generator: Sketch 57.1 (83088) - https://sketch.com -->
    <title>Fragancias</title>
    <desc>Created with Sketch.</desc>
    <g id="Page-1" stroke="none" stroke-width="1" fill="none" fill-rule="evenodd">
        <g id="Home" transform="translate(-775.000000, -4131.000000)">
            <g id="no-contiene" transform="translate(0.000000, 3701.000000)">
                <g id="stickers" transform="translate(71.000000, 20.000000)">
                    <g id="Fragancias" transform="translate(704.000000, 410.000000)">
                        <g id="Group" transform="translate(-0.000000, 0.000000)">
                            <path d="M62.0078,16.5522 L15.6598,16.5522 C15.1088,16.5522 14.6598,16.1052 14.6598,15.5522 L14.6598,1.4012 C14.6598,0.8492 15.1088,0.4012 15.6598,0.4012 L62.0078,0.4012 C62.5598,0.4012 63.0078,0.8492 63.0078,1.4012 L63.0078,15.5522 C63.0078,16.1052 62.5598,16.5522 62.0078,16.5522" id="Fill-403" fill="#FBDCE7"></path>
                            <path d="M74.668,84.0023 L3,84.0023 C1.896,84.0023 1,83.1063 1,82.0023 L1,26.7083 C1,26.1563 1.447,25.7083 2,25.7083 L75.668,25.7083 C76.221,25.7083 76.668,26.1563 76.668,26.7083 L76.668,82.0023 C76.668,83.1063 75.772,84.0023 74.668,84.0023" id="Fill-405" fill="#FBDCE7"></path>
                            <path d="M59.8496,69.6508 L17.8186,69.6508 C14.2916,69.6508 11.3156,67.0268 10.8736,63.5278 L6.9306,32.3088 C6.7806,31.1148 7.7106,30.0588 8.9146,30.0588 L68.7526,30.0588 C69.9566,30.0588 70.8886,31.1148 70.7376,32.3088 L66.7936,63.5278 C66.3526,67.0268 63.3756,69.6508 59.8496,69.6508" id="Fill-407" fill="#FBDCE7"></path>
                            <path d="M8.915,30.4594 C8.456,30.4594 8.019,30.6564 7.715,31.0004 C7.411,31.3454 7.27,31.8034 7.327,32.2594 L11.27,63.4784 C11.686,66.7694 14.501,69.2504 17.818,69.2504 L59.85,69.2504 C63.167,69.2504 65.981,66.7694 66.397,63.4784 L70.341,32.2594 C70.398,31.8044 70.257,31.3454 69.954,31.0014 C69.65,30.6564 69.213,30.4594 68.753,30.4594 L8.915,30.4594 Z M59.85,70.0514 L17.818,70.0514 C14.099,70.0514 10.942,67.2684 10.477,63.5774 L6.534,32.3584 C6.448,31.6764 6.659,30.9874 7.115,30.4714 C7.57,29.9554 8.227,29.6584 8.915,29.6584 L68.753,29.6584 C69.442,29.6584 70.099,29.9554 70.554,30.4724 C71.009,30.9884 71.221,31.6764 71.134,32.3584 L67.19,63.5774 C66.726,67.2684 63.569,70.0514 59.85,70.0514 L59.85,70.0514 Z" id="Fill-408" fill="#141117"></path>
                            <polygon id="Fill-409" fill="#FBDCE7" points="29.7409 25.7083 47.9269 25.7083 47.9269 16.5523 29.7409 16.5523"></polygon>
                            <path d="M30.1419,25.3083 L47.5269,25.3083 L47.5269,16.9533 L30.1419,16.9533 L30.1419,25.3083 Z M47.9269,26.1083 L29.7409,26.1083 C29.5209,26.1083 29.3409,25.9293 29.3409,25.7083 L29.3409,16.5523 C29.3409,16.3313 29.5209,16.1513 29.7409,16.1513 L47.9269,16.1513 C48.1479,16.1513 48.3269,16.3313 48.3269,16.5523 L48.3269,25.7083 C48.3269,25.9293 48.1479,26.1083 47.9269,26.1083 L47.9269,26.1083 Z" id="Fill-410" fill="#141117"></path>
                            <path d="M45.7168,12.9154 L45.7168,0.4004 L31.9508,0.4004 L31.9508,12.9154 L30.7408,12.9154 C30.1898,12.9154 29.7408,13.3634 29.7408,13.9154 L29.7408,25.7084 L47.9268,25.7084 L47.9268,13.9154 C47.9268,13.3634 47.4788,12.9154 46.9268,12.9154 L45.7168,12.9154 Z" id="Fill-411" fill="#141117"></path>
                            <path d="M30.1416,25.308 L47.5266,25.308 L47.5266,13.915 C47.5266,13.584 47.2576,13.316 46.9266,13.316 L45.7166,13.316 C45.4956,13.316 45.3166,13.136 45.3166,12.915 L45.3166,0.801 L32.3516,0.801 L32.3516,12.915 C32.3516,13.136 32.1716,13.316 31.9516,13.316 L30.7416,13.316 C30.4106,13.316 30.1416,13.584 30.1416,13.915 L30.1416,25.308 Z M47.9266,26.109 L29.7416,26.109 C29.5206,26.109 29.3406,25.929 29.3406,25.708 L29.3406,13.915 C29.3406,13.144 29.9696,12.515 30.7416,12.515 L31.5506,12.515 L31.5506,0.401 C31.5506,0.18 31.7306,1.93622895e-13 31.9516,1.93622895e-13 L45.7166,1.93622895e-13 C45.9376,1.93622895e-13 46.1176,0.18 46.1176,0.401 L46.1176,12.515 L46.9266,12.515 C47.6986,12.515 48.3276,13.144 48.3276,13.915 L48.3276,25.708 C48.3276,25.929 48.1476,26.109 47.9266,26.109 L47.9266,26.109 Z" id="Fill-412" fill="#141117"></path>
                            <path d="M33.3457,40.3861 C33.5347,40.9041 33.9237,41.2401 34.4647,41.2401 C34.9207,41.2401 35.3097,40.9951 35.3097,40.5381 C35.3097,40.2111 35.0887,39.9601 34.6397,39.8001 L34.0077,39.5721 C33.2157,39.2901 32.7587,38.8251 32.7587,38.0941 C32.7587,37.1731 33.4747,36.5791 34.4107,36.5791 C35.1807,36.5871 35.8267,37.0211 36.1237,37.7591 L35.3397,38.1561 C35.1807,37.7521 34.8757,37.4321 34.4187,37.4321 C33.9917,37.4321 33.6877,37.6761 33.6877,38.0411 C33.6877,38.3681 33.9157,38.5511 34.3507,38.7271 L35.0047,38.9781 C35.8347,39.3051 36.2457,39.7701 36.2457,40.4781 C36.2457,41.4901 35.4237,42.1001 34.4497,42.1001 C33.5587,42.1001 32.8347,41.6191 32.5377,40.7671 L33.3457,40.3861 Z" id="Fill-413" fill="#000000"></path>
                            <path d="M32.6006,40.7924 C32.8926,41.5814 33.5806,42.0504 34.4496,42.0504 C35.4776,42.0504 36.1966,41.4034 36.1966,40.4784 C36.1966,39.8124 35.8116,39.3504 34.9866,39.0244 L34.3326,38.7734 C33.9146,38.6044 33.6376,38.4154 33.6376,38.0414 C33.6376,37.6524 33.9586,37.3824 34.4186,37.3824 C34.8296,37.3824 35.1716,37.6384 35.3656,38.0864 L36.0606,37.7354 C35.7666,37.0494 35.1536,36.6374 34.4106,36.6294 C33.4676,36.6294 32.8086,37.2314 32.8086,38.0944 C32.8086,38.7664 33.2056,39.2334 34.0246,39.5244 L34.6566,39.7534 C35.1226,39.9194 35.3596,40.1844 35.3596,40.5384 C35.3596,41.0574 34.9106,41.2894 34.4646,41.2894 C33.9466,41.2894 33.5316,40.9854 33.3186,40.4544 L32.6006,40.7924 Z M34.4496,42.1494 C33.5206,42.1494 32.7886,41.6394 32.4916,40.7834 L32.4766,40.7404 L33.3736,40.3174 L33.3926,40.3684 C33.5856,40.8974 33.9666,41.1894 34.4646,41.1894 C34.8606,41.1894 35.2596,40.9884 35.2596,40.5384 C35.2596,40.2304 35.0446,39.9974 34.6226,39.8474 L33.9916,39.6184 C33.1276,39.3124 32.7086,38.8134 32.7086,38.0944 C32.7086,37.1734 33.4096,36.5294 34.4116,36.5294 C35.2106,36.5374 35.8696,36.9904 36.1706,37.7404 L36.1876,37.7824 L36.1466,37.8044 L35.3136,38.2254 L35.2926,38.1744 C35.1916,37.9154 34.9426,37.4814 34.4186,37.4814 C34.0116,37.4814 33.7376,37.7064 33.7376,38.0414 C33.7376,38.3204 33.9096,38.4944 34.3696,38.6814 L35.0226,38.9314 C35.8916,39.2734 36.2956,39.7654 36.2956,40.4784 C36.2956,41.4464 35.5196,42.1494 34.4496,42.1494 L34.4496,42.1494 Z" id="Fill-414" fill="#000000"></path>
                            <polygon id="Fill-415" fill="#000000" points="37.4129 42.0083 38.3259 42.0083 38.3259 36.6783 37.4129 36.6783"></polygon>
                            <path d="M37.4629,41.9583 L38.2759,41.9583 L38.2759,36.7283 L37.4629,36.7283 L37.4629,41.9583 Z M37.3629,42.0583 L38.3759,42.0583 L38.3759,36.6283 L37.3629,36.6283 L37.3629,42.0583 Z" id="Fill-416" fill="#000000"></path>
                            <polygon id="Fill-417" fill="#000000" points="44.4863 36.6781 44.4863 42.0081 43.5953 42.0081 40.7253 38.0941 40.7253 42.0081 39.8413 42.0081 39.8413 36.6781 40.7703 36.6781 43.6033 40.5841 43.6033 36.6781"></polygon>
                            <path d="M43.6211,41.9584 L44.4361,41.9584 L44.4361,36.7284 L43.6531,36.7284 L43.6531,40.7384 L43.5631,40.6134 L40.7451,36.7284 L39.8921,36.7284 L39.8921,41.9584 L40.6761,41.9584 L40.6761,37.9414 L40.7661,38.0644 L43.6211,41.9584 Z M44.5361,42.0584 L43.5701,42.0584 L43.5561,42.0374 L40.7751,38.2464 L40.7751,42.0584 L39.7921,42.0584 L39.7921,36.6284 L40.7961,36.6284 L40.8101,36.6484 L43.5541,40.4304 L43.5541,36.6284 L44.5361,36.6284 L44.5361,42.0584 Z" id="Fill-418" fill="#000000"></path>
                            <polygon id="Fill-419" fill="#000000" points="15.4355 51.1479 14.5225 51.1479 14.5225 45.8179 17.4985 45.8179 17.4985 46.6479 15.4355 46.6479 15.4355 48.0029 17.3625 48.0029 17.3625 48.8339 15.4355 48.8339"></polygon>
                            <path d="M14.5723,51.0981 L15.3853,51.0981 L15.3853,48.7841 L17.3123,48.7841 L17.3123,48.0531 L15.3853,48.0531 L15.3853,46.5981 L17.4493,46.5981 L17.4493,45.8681 L14.5723,45.8681 L14.5723,51.0981 Z M15.4853,51.1981 L14.4723,51.1981 L14.4723,45.7681 L17.5493,45.7681 L17.5493,46.6981 L15.4853,46.6981 L15.4853,47.9531 L17.4123,47.9531 L17.4123,48.8831 L15.4853,48.8831 L15.4853,51.1981 Z" id="Fill-420" fill="#000000"></path>
                            <path d="M19.6094,48.2699 L20.3714,48.2699 C20.9114,48.2699 21.2844,47.9649 21.2844,47.4479 C21.2844,46.9299 20.9114,46.6399 20.3714,46.6399 L19.6094,46.6399 L19.6094,48.2699 Z M19.6094,51.1479 L18.7034,51.1479 L18.7034,45.8179 L20.3714,45.8179 C21.4444,45.8179 22.1984,46.4049 22.1984,47.4399 C22.1984,48.2319 21.7034,48.7569 20.9954,48.9619 L22.5634,51.1479 L21.4904,51.1479 L20.0204,49.0389 L19.6094,49.0389 L19.6094,51.1479 Z" id="Fill-421" fill="#000000"></path>
                            <path d="M19.6592,48.2201 L20.3712,48.2201 C20.9032,48.2201 21.2342,47.9241 21.2342,47.4481 C21.2342,46.9801 20.9032,46.6901 20.3712,46.6901 L19.6592,46.6901 L19.6592,48.2201 Z M20.3712,48.3201 L19.5592,48.3201 L19.5592,46.5901 L20.3712,46.5901 C20.9652,46.5901 21.3342,46.9181 21.3342,47.4481 C21.3342,47.9781 20.9562,48.3201 20.3712,48.3201 L20.3712,48.3201 Z M21.5162,51.0981 L22.4662,51.0981 L20.9132,48.9341 L20.9812,48.9141 C21.7222,48.6991 22.1482,48.1621 22.1482,47.4401 C22.1482,46.4701 21.4672,45.8671 20.3712,45.8671 L18.7532,45.8671 L18.7532,51.0981 L19.5592,51.0981 L19.5592,48.9891 L20.0472,48.9891 L20.0612,49.0101 L21.5162,51.0981 Z M22.6612,51.1981 L21.4642,51.1981 L21.4492,51.1761 L19.9942,49.0881 L19.6592,49.0881 L19.6592,51.1981 L18.6532,51.1981 L18.6532,45.7681 L20.3712,45.7681 C21.5122,45.7681 22.2482,46.4241 22.2482,47.4401 C22.2482,48.1881 21.8222,48.7491 21.0762,48.9901 L22.6612,51.1981 Z" id="Fill-422" fill="#000000"></path>
                            <path d="M24.9101,49.0004 L26.4711,49.0004 L25.6861,47.0214 L24.9101,49.0004 Z M26.0911,45.8174 L28.2611,51.1474 L27.3011,51.1474 L26.7611,49.8004 L24.6131,49.8004 L24.0801,51.1474 L23.1431,51.1474 L25.3131,45.8174 L26.0911,45.8174 Z" id="Fill-423" fill="#000000"></path>
                            <path d="M24.9834,48.9506 L26.3974,48.9506 L25.6864,47.1576 L24.9834,48.9506 Z M26.5444,49.0506 L24.8374,49.0506 L24.8634,48.9816 L25.6864,46.8846 L26.5444,49.0506 Z M27.3354,51.0976 L28.1864,51.0976 L26.0574,45.8676 L25.3464,45.8676 L23.2174,51.0976 L24.0464,51.0976 L24.5794,49.7506 L26.7954,49.7506 L26.8074,49.7816 L27.3354,51.0976 Z M28.3354,51.1976 L27.2664,51.1976 L27.2544,51.1666 L26.7264,49.8496 L24.6474,49.8496 L24.1144,51.1976 L23.0694,51.1976 L23.0974,51.1296 L25.2804,45.7676 L26.1244,45.7676 L28.3354,51.1976 Z" id="Fill-424" fill="#000000"></path>
                            <path d="M32.9902,47.4926 C32.6932,46.9146 32.1372,46.5876 31.4602,46.5876 C30.4472,46.5876 29.6402,47.4316 29.6402,48.4826 C29.6402,49.5256 30.4392,50.3796 31.4682,50.3796 C32.3122,50.3796 32.9442,49.8226 33.0662,49.0616 L31.3312,49.0616 L31.3312,48.2626 L34.0412,48.2626 L34.0412,48.6046 C34.0412,50.0966 32.9752,51.2396 31.4602,51.2396 C29.9292,51.2396 28.7112,50.0056 28.7112,48.4826 C28.7112,46.9606 29.9522,45.7196 31.4682,45.7196 C32.5032,45.7196 33.3792,46.2526 33.8052,47.0816 L32.9902,47.4926 Z" id="Fill-425" fill="#000000"></path>
                            <path d="M31.4678,45.7689 C29.9758,45.7689 28.7608,46.9869 28.7608,48.4829 C28.7608,49.9749 29.9718,51.1899 31.4598,51.1899 C32.9268,51.1899 33.9908,50.1029 33.9908,48.6049 L33.9908,48.3119 L31.3808,48.3119 L31.3808,49.0119 L33.1248,49.0119 L33.1158,49.0699 C32.9878,49.8709 32.3098,50.4289 31.4678,50.4289 C30.4148,50.4289 29.5908,49.5749 29.5908,48.4829 C29.5908,47.4099 30.4298,46.5379 31.4598,46.5379 C32.1388,46.5379 32.7018,46.8609 33.0118,47.4259 L33.7378,47.0599 C33.3058,46.2619 32.4408,45.7689 31.4678,45.7689 M31.4598,51.2899 C29.9168,51.2899 28.6608,50.0309 28.6608,48.4829 C28.6608,46.9309 29.9198,45.6689 31.4678,45.6689 C32.4958,45.6689 33.4088,46.2019 33.8508,47.0589 L33.8728,47.1029 L33.8278,47.1259 L32.9688,47.5599 L32.9458,47.5149 C32.6588,46.9569 32.1168,46.6369 31.4598,46.6369 C30.4848,46.6369 29.6908,47.4649 29.6908,48.4829 C29.6908,49.5179 30.4718,50.3299 31.4678,50.3299 C32.2518,50.3299 32.8628,49.8419 33.0068,49.1119 L31.2808,49.1119 L31.2808,48.2119 L34.0908,48.2119 L34.0908,48.6049 C34.0908,50.1609 32.9848,51.2899 31.4598,51.2899" id="Fill-426" fill="#000000"></path>
                            <path d="M36.3047,49.0004 L37.8657,49.0004 L37.0807,47.0214 L36.3047,49.0004 Z M37.4847,45.8174 L39.6547,51.1474 L38.6957,51.1474 L38.1547,49.8004 L36.0077,49.8004 L35.4747,51.1474 L34.5377,51.1474 L36.7077,45.8174 L37.4847,45.8174 Z" id="Fill-427" fill="#000000"></path>
                            <path d="M36.3779,48.9506 L37.7919,48.9506 L37.0809,47.1576 L36.3779,48.9506 Z M37.9389,49.0506 L36.2319,49.0506 L36.2579,48.9816 L37.0809,46.8846 L37.9389,49.0506 Z M38.7299,51.0976 L39.5799,51.0976 L37.4509,45.8676 L36.7409,45.8676 L34.6119,51.0976 L35.4409,51.0976 L35.9739,49.7506 L38.1889,49.7506 L38.7299,51.0976 Z M39.7289,51.1976 L38.6609,51.1976 L38.1199,49.8496 L36.0419,49.8496 L35.5089,51.1976 L34.4639,51.1976 L34.4919,51.1296 L36.6749,45.7676 L37.5179,45.7676 L39.7289,51.1976 Z" id="Fill-428" fill="#000000"></path>
                            <polygon id="Fill-429" fill="#000000" points="45.2676 45.8178 45.2676 51.1478 44.3756 51.1478 41.5056 47.2338 41.5056 51.1478 40.6226 51.1478 40.6226 45.8178 41.5516 45.8178 44.3836 49.7238 44.3836 45.8178"></polygon>
                            <path d="M44.4014,51.0981 L45.2174,51.0981 L45.2174,45.8681 L44.4334,45.8681 L44.4334,49.8781 L44.3434,49.7531 L41.5264,45.8681 L40.6724,45.8681 L40.6724,51.0981 L41.4564,51.0981 L41.4564,47.0811 L41.5464,47.2041 L44.4014,51.0981 Z M45.3174,51.1981 L44.3504,51.1981 L44.3364,51.1771 L41.5554,47.3861 L41.5554,51.1981 L40.5734,51.1981 L40.5734,45.7681 L41.5774,45.7681 L41.5914,45.7881 L44.3344,49.5701 L44.3344,45.7681 L45.3174,45.7681 L45.3174,51.1981 Z" id="Fill-430" fill="#000000"></path>
                            <path d="M49.2588,45.7191 C49.7768,45.7191 50.2558,45.8711 50.7128,46.1531 L50.7128,47.1351 C50.2488,46.7781 49.7918,46.6101 49.2668,46.6101 C48.2308,46.6101 47.4538,47.4241 47.4538,48.4831 C47.4538,49.5181 48.2308,50.3481 49.2668,50.3481 C49.7838,50.3481 50.2488,50.1731 50.7288,49.8381 L50.7288,50.8211 C50.2408,51.1171 49.7378,51.2401 49.2508,51.2401 C47.7128,51.2401 46.5098,50.0431 46.5098,48.4831 C46.5098,46.9301 47.7128,45.7191 49.2588,45.7191" id="Fill-431" fill="#000000"></path>
                            <path d="M49.2588,45.7689 C47.7448,45.7689 46.5598,46.9609 46.5598,48.4829 C46.5598,49.9999 47.7418,51.1899 49.2508,51.1899 C49.7568,51.1899 50.2368,51.0559 50.6788,50.7919 L50.6788,49.9329 C50.2008,50.2489 49.7498,50.3979 49.2668,50.3979 C48.2228,50.3979 47.4048,49.5569 47.4048,48.4829 C47.4048,47.3859 48.2048,46.5599 49.2668,46.5599 C49.7698,46.5599 50.2158,46.7109 50.6628,47.0359 L50.6628,46.1809 C50.2048,45.9039 49.7448,45.7689 49.2588,45.7689 M49.2508,51.2899 C47.6858,51.2899 46.4598,50.0569 46.4598,48.4829 C46.4598,46.9049 47.6898,45.6689 49.2588,45.6689 C49.7728,45.6689 50.2568,45.8139 50.7388,46.1099 L50.7628,46.1239 L50.7628,47.2369 L50.6828,47.1749 C50.2268,46.8239 49.7768,46.6599 49.2668,46.6599 C48.2618,46.6599 47.5038,47.4439 47.5038,48.4829 C47.5038,49.4999 48.2788,50.2979 49.2668,50.2979 C49.7558,50.2979 50.2108,50.1389 50.6998,49.7969 L50.7788,49.7429 L50.7788,50.8489 L50.7548,50.8639 C50.2898,51.1459 49.7838,51.2899 49.2508,51.2899" id="Fill-432" fill="#000000"></path>
                            <polygon id="Fill-433" fill="#000000" points="51.9479 51.1483 52.8619 51.1483 52.8619 45.8183 51.9479 45.8183"></polygon>
                            <path d="M51.9979,51.0983 L52.8119,51.0983 L52.8119,45.8683 L51.9979,45.8683 L51.9979,51.0983 Z M51.8979,51.1973 L52.9119,51.1973 L52.9119,45.7673 L51.8979,45.7673 L51.8979,51.1973 Z" id="Fill-434" fill="#000000"></path>
                            <path d="M55.5957,49.0004 L57.1567,49.0004 L56.3717,47.0214 L55.5957,49.0004 Z M56.7767,45.8174 L58.9467,51.1474 L57.9867,51.1474 L57.4467,49.8004 L55.2987,49.8004 L54.7657,51.1474 L53.8287,51.1474 L55.9987,45.8174 L56.7767,45.8174 Z" id="Fill-435" fill="#000000"></path>
                            <path d="M55.6689,48.9506 L57.0829,48.9506 L56.3719,47.1576 L55.6689,48.9506 Z M57.2299,49.0506 L55.5229,49.0506 L55.5489,48.9816 L56.3719,46.8846 L57.2299,49.0506 Z M58.0209,51.0976 L58.8719,51.0976 L56.7429,45.8676 L56.0319,45.8676 L53.9029,51.0976 L54.7319,51.0976 L55.2649,49.7506 L57.4809,49.7506 L57.4929,49.7816 L58.0209,51.0976 Z M59.0209,51.1976 L57.9519,51.1976 L57.9399,51.1666 L57.4119,49.8496 L55.3329,49.8496 L54.7999,51.1976 L53.7549,51.1976 L53.7829,51.1296 L55.9659,45.7676 L56.8099,45.7676 L59.0209,51.1976 Z" id="Fill-436" fill="#000000"></path>
                            <path d="M60.3262,49.5258 C60.5152,50.0438 60.9042,50.3798 61.4452,50.3798 C61.9012,50.3798 62.2902,50.1348 62.2902,49.6778 C62.2902,49.3508 62.0692,49.0998 61.6202,48.9398 L60.9882,48.7118 C60.1962,48.4298 59.7392,47.9648 59.7392,47.2338 C59.7392,46.3128 60.4552,45.7188 61.3912,45.7188 C62.1612,45.7268 62.8072,46.1608 63.1042,46.8988 L62.3202,47.2958 C62.1612,46.8918 61.8562,46.5718 61.3992,46.5718 C60.9722,46.5718 60.6682,46.8158 60.6682,47.1808 C60.6682,47.5078 60.8962,47.6908 61.3312,47.8668 L61.9852,48.1178 C62.8152,48.4448 63.2262,48.9098 63.2262,49.6178 C63.2262,50.6298 62.4042,51.2398 61.4302,51.2398 C60.5392,51.2398 59.8152,50.7588 59.5182,49.9068 L60.3262,49.5258 Z" id="Fill-437" fill="#000000"></path>
                            <path d="M59.581,49.932 C59.873,50.721 60.561,51.19 61.43,51.19 C62.458,51.19 63.177,50.543 63.177,49.618 C63.177,48.952 62.792,48.49 61.967,48.164 L61.313,47.913 C60.895,47.744 60.618,47.555 60.618,47.181 C60.618,46.792 60.939,46.522 61.399,46.522 C61.81,46.522 62.152,46.778 62.346,47.226 L63.041,46.875 C62.747,46.189 62.134,45.777 61.391,45.769 C60.448,45.769 59.789,46.371 59.789,47.234 C59.789,47.906 60.186,48.373 61.005,48.664 L61.637,48.893 C62.103,49.059 62.34,49.324 62.34,49.678 C62.34,50.197 61.891,50.429 61.445,50.429 C60.927,50.429 60.512,50.125 60.299,49.594 L59.581,49.932 Z M61.43,51.289 C60.501,51.289 59.769,50.779 59.472,49.923 L59.457,49.88 L60.354,49.457 L60.373,49.508 C60.566,50.037 60.947,50.329 61.445,50.329 C61.841,50.329 62.24,50.128 62.24,49.678 C62.24,49.37 62.025,49.137 61.603,48.987 L60.972,48.758 C60.108,48.452 59.689,47.953 59.689,47.234 C59.689,46.313 60.39,45.669 61.392,45.669 C62.191,45.677 62.85,46.13 63.151,46.88 L63.168,46.922 L63.127,46.944 L62.294,47.365 L62.273,47.314 C62.172,47.055 61.923,46.621 61.399,46.621 C60.992,46.621 60.718,46.846 60.718,47.181 C60.718,47.46 60.89,47.634 61.35,47.821 L62.003,48.071 C62.872,48.413 63.276,48.905 63.276,49.618 C63.276,50.586 62.5,51.289 61.43,51.289 L61.43,51.289 Z" id="Fill-438" fill="#000000"></path>
                            <path d="M17.8506,58.6654 C18.0396,59.1834 18.4286,59.5194 18.9696,59.5194 C19.4256,59.5194 19.8146,59.2744 19.8146,58.8174 C19.8146,58.4904 19.5936,58.2394 19.1446,58.0794 L18.5126,57.8514 C17.7206,57.5694 17.2636,57.1044 17.2636,56.3734 C17.2636,55.4524 17.9796,54.8584 18.9156,54.8584 C19.6856,54.8664 20.3316,55.3004 20.6286,56.0384 L19.8446,56.4354 C19.6856,56.0314 19.3806,55.7114 18.9236,55.7114 C18.4966,55.7114 18.1926,55.9554 18.1926,56.3204 C18.1926,56.6474 18.4206,56.8304 18.8556,57.0064 L19.5096,57.2574 C20.3396,57.5844 20.7506,58.0494 20.7506,58.7574 C20.7506,59.7694 19.9286,60.3794 18.9546,60.3794 C18.0636,60.3794 17.3396,59.8984 17.0426,59.0464 L17.8506,58.6654 Z" id="Fill-439" fill="#000000"></path>
                            <path d="M17.1055,59.0717 C17.3975,59.8607 18.0855,60.3297 18.9545,60.3297 C19.9825,60.3297 20.7015,59.6827 20.7015,58.7577 C20.7015,58.0917 20.3165,57.6297 19.4915,57.3037 L18.8375,57.0527 C18.4195,56.8837 18.1425,56.6947 18.1425,56.3207 C18.1425,55.9317 18.4635,55.6617 18.9235,55.6617 C19.3345,55.6617 19.6765,55.9177 19.8705,56.3657 L20.5655,56.0147 C20.2715,55.3287 19.6585,54.9167 18.9155,54.9087 C17.9725,54.9087 17.3135,55.5107 17.3135,56.3737 C17.3135,57.0457 17.7105,57.5127 18.5295,57.8037 L19.1615,58.0327 C19.6275,58.1987 19.8645,58.4637 19.8645,58.8177 C19.8645,59.3367 19.4155,59.5687 18.9695,59.5687 C18.4515,59.5687 18.0365,59.2647 17.8235,58.7337 L17.1055,59.0717 Z M18.9545,60.4287 C18.0255,60.4287 17.2935,59.9187 16.9965,59.0627 L16.9805,59.0197 L17.0215,59.0017 L17.8785,58.5967 L17.8975,58.6477 C18.0905,59.1767 18.4715,59.4687 18.9695,59.4687 C19.3655,59.4687 19.7645,59.2677 19.7645,58.8177 C19.7645,58.5097 19.5495,58.2767 19.1275,58.1267 L18.4965,57.8977 C17.6325,57.5917 17.2135,57.0927 17.2135,56.3737 C17.2135,55.4527 17.9145,54.8087 18.9165,54.8087 C19.7155,54.8167 20.3745,55.2697 20.6755,56.0197 L20.6925,56.0617 L20.6515,56.0837 L19.8185,56.5047 L19.7975,56.4537 C19.6965,56.1947 19.4475,55.7607 18.9235,55.7607 C18.5165,55.7607 18.2425,55.9857 18.2425,56.3207 C18.2425,56.5997 18.4145,56.7737 18.8745,56.9607 L19.5275,57.2107 C20.3965,57.5527 20.8005,58.0447 20.8005,58.7577 C20.8005,59.7257 20.0245,60.4287 18.9545,60.4287 L18.9545,60.4287 Z" id="Fill-440" fill="#000000"></path>
                            <polygon id="Fill-441" fill="#000000" points="21.9179 60.2873 22.8309 60.2873 22.8309 54.9573 21.9179 54.9573"></polygon>
                            <path d="M21.9679,60.2373 L22.7809,60.2373 L22.7809,55.0073 L21.9679,55.0073 L21.9679,60.2373 Z M21.8679,60.3373 L22.8809,60.3373 L22.8809,54.9073 L21.8679,54.9073 L21.8679,60.3373 Z" id="Fill-442" fill="#000000"></path>
                            <polygon id="Fill-443" fill="#000000" points="28.9912 54.9574 28.9912 60.2874 28.1002 60.2874 25.2302 56.3734 25.2302 60.2874 24.3462 60.2874 24.3462 54.9574 25.2752 54.9574 28.1082 58.8634 28.1082 54.9574"></polygon>
                            <path d="M28.126,60.2377 L28.941,60.2377 L28.941,55.0077 L28.158,55.0077 L28.158,59.0177 L28.068,58.8927 L25.25,55.0077 L24.397,55.0077 L24.397,60.2377 L25.181,60.2377 L25.181,56.2207 L25.271,56.3437 L28.126,60.2377 Z M29.041,60.3377 L28.075,60.3377 L28.061,60.3167 L25.28,56.5257 L25.28,60.3377 L24.297,60.3377 L24.297,54.9077 L25.301,54.9077 L25.315,54.9277 L28.059,58.7097 L28.059,54.9077 L29.041,54.9077 L29.041,60.3377 Z" id="Fill-444" fill="#000000"></path>
                            <polygon id="Fill-445" fill="#000000" points="30.0283 54.9574 33.9043 54.9574 33.9043 55.8034 32.4263 55.8034 32.4263 60.2874 31.5063 60.2874 31.5063 55.8034 30.0283 55.8034"></polygon>
                            <path d="M31.5556,60.2377 L32.3766,60.2377 L32.3766,55.7537 L33.8546,55.7537 L33.8546,55.0077 L30.0776,55.0077 L30.0776,55.7537 L31.5556,55.7537 L31.5556,60.2377 Z M32.4766,60.3377 L31.4556,60.3377 L31.4556,55.8527 L29.9786,55.8527 L29.9786,54.9077 L33.9536,54.9077 L33.9536,55.8527 L32.4766,55.8527 L32.4766,60.3377 Z" id="Fill-446" fill="#000000"></path>
                            <polygon id="Fill-447" fill="#000000" points="34.9414 54.9574 37.9864 54.9574 37.9864 55.7874 35.8544 55.7874 35.8544 57.1434 37.8194 57.1434 37.8194 57.9494 35.8544 57.9494 35.8544 59.4574 38.0024 59.4574 38.0024 60.2874 34.9414 60.2874"></polygon>
                            <path d="M34.9912,60.2377 L37.9522,60.2377 L37.9522,59.5077 L35.8042,59.5077 L35.8042,57.8997 L37.7692,57.8997 L37.7692,57.1927 L35.8042,57.1927 L35.8042,55.7377 L37.9362,55.7377 L37.9362,55.0077 L34.9912,55.0077 L34.9912,60.2377 Z M38.0522,60.3377 L34.8912,60.3377 L34.8912,54.9077 L38.0362,54.9077 L38.0362,55.8377 L35.9042,55.8377 L35.9042,57.0927 L37.8692,57.0927 L37.8692,57.9997 L35.9042,57.9997 L35.9042,59.4077 L38.0522,59.4077 L38.0522,60.3377 Z" id="Fill-448" fill="#000000"></path>
                            <polygon id="Fill-449" fill="#000000" points="38.917 54.9574 42.792 54.9574 42.792 55.8034 41.315 55.8034 41.315 60.2874 40.394 60.2874 40.394 55.8034 38.917 55.8034"></polygon>
                            <path d="M40.4433,60.2377 L41.2653,60.2377 L41.2653,55.7537 L42.7423,55.7537 L42.7423,55.0077 L38.9663,55.0077 L38.9663,55.7537 L40.4433,55.7537 L40.4433,60.2377 Z M41.3653,60.3377 L40.3433,60.3377 L40.3433,55.8527 L38.8673,55.8527 L38.8673,54.9077 L42.8413,54.9077 L42.8413,55.8527 L41.3653,55.8527 L41.3653,60.3377 Z" id="Fill-450" fill="#000000"></path>
                            <polygon id="Fill-451" fill="#000000" points="43.8289 60.2873 44.7429 60.2873 44.7429 54.9573 43.8289 54.9573"></polygon>
                            <path d="M43.8789,60.2373 L44.6929,60.2373 L44.6929,55.0073 L43.8789,55.0073 L43.8789,60.2373 Z M43.7789,60.3373 L44.7929,60.3373 L44.7929,54.9073 L43.7789,54.9073 L43.7789,60.3373 Z" id="Fill-452" fill="#000000"></path>
                            <path d="M48.7334,54.8588 C49.2514,54.8588 49.7304,55.0108 50.1874,55.2928 L50.1874,56.2748 C49.7234,55.9178 49.2664,55.7498 48.7414,55.7498 C47.7054,55.7498 46.9284,56.5638 46.9284,57.6228 C46.9284,58.6578 47.7054,59.4878 48.7414,59.4878 C49.2584,59.4878 49.7234,59.3128 50.2034,58.9778 L50.2034,59.9608 C49.7154,60.2568 49.2124,60.3798 48.7254,60.3798 C47.1874,60.3798 45.9844,59.1828 45.9844,57.6228 C45.9844,56.0698 47.1874,54.8588 48.7334,54.8588" id="Fill-453" fill="#000000"></path>
                            <path d="M48.7334,54.9086 C47.2194,54.9086 46.0344,56.1006 46.0344,57.6226 C46.0344,59.1396 47.2164,60.3296 48.7254,60.3296 C49.2314,60.3296 49.7114,60.1956 50.1534,59.9316 L50.1534,59.0726 C49.6754,59.3886 49.2244,59.5376 48.7414,59.5376 C47.6974,59.5376 46.8794,58.6966 46.8794,57.6226 C46.8794,56.5256 47.6794,55.6996 48.7414,55.6996 C49.2444,55.6996 49.6904,55.8506 50.1374,56.1756 L50.1374,55.3206 C49.6794,55.0436 49.2194,54.9086 48.7334,54.9086 M48.7254,60.4296 C47.1604,60.4296 45.9344,59.1966 45.9344,57.6226 C45.9344,56.0446 47.1644,54.8086 48.7334,54.8086 C49.2474,54.8086 49.7314,54.9536 50.2134,55.2496 L50.2374,55.2636 L50.2374,56.3766 L50.1574,56.3146 C49.7014,55.9636 49.2514,55.7996 48.7414,55.7996 C47.7364,55.7996 46.9784,56.5836 46.9784,57.6226 C46.9784,58.6396 47.7534,59.4376 48.7414,59.4376 C49.2304,59.4376 49.6854,59.2786 50.1744,58.9366 L50.2534,58.8826 L50.2534,59.9886 L50.2294,60.0036 C49.7644,60.2856 49.2584,60.4296 48.7254,60.4296" id="Fill-454" fill="#000000"></path>
                            <path d="M52.7021,58.14 L54.2631,58.14 L53.4781,56.161 L52.7021,58.14 Z M53.8821,54.957 L56.0521,60.287 L55.0931,60.287 L54.5521,58.94 L52.4051,58.94 L51.8721,60.287 L50.9351,60.287 L53.1051,54.957 L53.8821,54.957 Z" id="Fill-455" fill="#000000"></path>
                            <path d="M52.7754,58.0902 L54.1894,58.0902 L53.4784,56.2972 L52.7754,58.0902 Z M54.3364,58.1902 L52.6294,58.1902 L52.6554,58.1212 L53.4784,56.0242 L54.3364,58.1902 Z M55.1274,60.2372 L55.9774,60.2372 L53.8484,55.0072 L53.1384,55.0072 L51.0094,60.2372 L51.8384,60.2372 L52.3714,58.8902 L54.5864,58.8902 L55.1274,60.2372 Z M56.1264,60.3372 L55.0584,60.3372 L54.5174,58.9892 L52.4394,58.9892 L51.9064,60.3372 L50.8614,60.3372 L50.8894,60.2692 L53.0724,54.9072 L53.9154,54.9072 L56.1264,60.3372 Z" id="Fill-456" fill="#000000"></path>
                            <path d="M57.4316,58.6654 C57.6216,59.1834 58.0106,59.5194 58.5506,59.5194 C59.0076,59.5194 59.3966,59.2744 59.3966,58.8174 C59.3966,58.4904 59.1746,58.2394 58.7256,58.0794 L58.0936,57.8514 C57.3016,57.5694 56.8456,57.1044 56.8456,56.3734 C56.8456,55.4524 57.5616,54.8584 58.4976,54.8584 C59.2666,54.8664 59.9136,55.3004 60.2106,56.0384 L59.4266,56.4354 C59.2666,56.0314 58.9616,55.7114 58.5046,55.7114 C58.0786,55.7114 57.7746,55.9554 57.7746,56.3204 C57.7746,56.6474 58.0026,56.8304 58.4366,57.0064 L59.0916,57.2574 C59.9216,57.5844 60.3326,58.0494 60.3326,58.7574 C60.3326,59.7694 59.5106,60.3794 58.5356,60.3794 C57.6446,60.3794 56.9216,59.8984 56.6246,59.0464 L57.4316,58.6654 Z" id="Fill-457" fill="#000000"></path>
                            <path d="M15.6601,0.8012 C15.3291,0.8012 15.0601,1.0702 15.0601,1.4012 L15.0601,15.5522 C15.0601,15.8832 15.3291,16.1522 15.6601,16.1522 L62.0081,16.1522 C62.3391,16.1522 62.6071,15.8832 62.6071,15.5522 L62.6071,1.4012 C62.6071,1.0702 62.3391,0.8012 62.0081,0.8012 L15.6601,0.8012 Z M62.0081,16.9522 L15.6601,16.9522 C14.8891,16.9522 14.2601,16.3232 14.2601,15.5522 L14.2601,1.4012 C14.2601,0.6292 14.8891,0.0002 15.6601,0.0002 L62.0081,0.0002 C62.7791,0.0002 63.4081,0.6292 63.4081,1.4012 L63.4081,15.5522 C63.4081,16.3232 62.7791,16.9522 62.0081,16.9522 L62.0081,16.9522 Z" id="Fill-404" fill="#141117"></path>
                            <path d="M2,26.1088 C1.669,26.1088 1.4,26.3778 1.4,26.7088 L1.4,82.0028 C1.4,82.8838 2.118,83.6018 3,83.6018 L74.668,83.6018 C75.55,83.6018 76.268,82.8838 76.268,82.0028 L76.268,26.7088 C76.268,26.3778 75.999,26.1088 75.668,26.1088 L2,26.1088 Z M74.668,84.4028 L3,84.4028 C1.677,84.4028 0.6,83.3258 0.6,82.0028 L0.6,26.7088 C0.6,25.9368 1.229,25.3078 2,25.3078 L75.668,25.3078 C76.439,25.3078 77.068,25.9368 77.068,26.7088 L77.068,82.0028 C77.068,83.3258 75.991,84.4028 74.668,84.4028 L74.668,84.4028 Z" id="Fill-406" fill="#141117"></path>
                        </g>
                        <g id="Group-5" transform="translate(6.515162, 0.000000)"></g>
                    </g>
                </g>
            </g>
        </g>
    </g>
</svg>