<?xml version="1.0" encoding="UTF-8"?>
<svg width="115px" height="98px" viewBox="0 0 115 98" version="1.1" xmlns="http://www.w3.org/2000/svg" xmlns:xlink="http://www.w3.org/1999/xlink">
    <!-- Generator: Sketch 57.1 (83088) - https://sketch.com -->
    <title>Ingredientes Naturales</title>
    <desc>Created with Sketch.</desc>
    <g id="Page-1" stroke="none" stroke-width="1" fill="none" fill-rule="evenodd">
        <g id="Home" transform="translate(-969.000000, -3721.000000)">
            <g id="no-contiene" transform="translate(0.000000, 3701.000000)">
                <g id="stickers" transform="translate(71.000000, 20.000000)">
                    <g id="Ingredientes-Naturales" transform="translate(898.209000, 0.000300)">
                        <polygon id="Fill-195" fill="#F26650" points="0.122 81.7547 2.744 81.7547 2.744 72.7507 0.122 72.7507"></polygon>
                        <path d="M0.244,81.6327 L2.622,81.6327 L2.622,72.8727 L0.244,72.8727 L0.244,81.6327 Z M9.09716746e-13,81.8767 L2.866,81.8767 L2.866,72.6287 L9.09716746e-13,72.6287 L9.09716746e-13,81.8767 Z" id="Fill-196" fill="#F26650"></path>
                        <polygon id="Fill-197" fill="#F26650" points="12.0459 81.7545 7.9629 77.1045 7.3269 76.3335 7.3269 81.7545 4.8539 81.7545 4.8539 72.7505 7.1379 72.7505 11.1529 77.4145 11.7749 78.1855 11.7749 72.7505 14.2489 72.7505 14.2489 81.7545"></polygon>
                        <path d="M12.1015,81.6324 L14.1265,81.6324 L14.1265,72.8724 L11.8975,72.8724 L11.8975,78.5304 L11.0585,77.4904 L7.0815,72.8724 L4.9755,72.8724 L4.9755,81.6324 L7.2055,81.6324 L7.2055,75.9934 L8.0565,77.0264 L12.1015,81.6324 Z M14.3715,81.8764 L11.9905,81.8764 L11.9545,81.8344 L7.8715,77.1844 L7.4495,76.6734 L7.4495,81.8764 L4.7315,81.8764 L4.7315,72.6284 L7.1935,72.6284 L7.2305,72.6704 L11.2465,77.3344 L11.6535,77.8394 L11.6535,72.6284 L14.3715,72.6284 L14.3715,81.8764 Z" id="Fill-198" fill="#F26650"></path>
                        <path d="M24.6162,81.7545 L24.2522,80.4425 C23.5212,81.4305 22.3042,82.0525 20.7772,82.0525 C17.6942,82.0525 15.9242,80.1185 15.9242,77.7935 L15.9242,76.7785 C15.9242,74.4275 18.0322,72.4525 21.1422,72.4525 C23.2112,72.4525 24.8052,73.3455 25.6032,74.5085 L24.0352,75.7655 C23.4802,75.0485 22.4672,74.4535 21.3042,74.4535 C19.6142,74.4535 18.6002,75.4685 18.6002,76.7525 L18.6002,77.8075 C18.6002,79.0505 19.5062,80.0655 21.0482,80.0655 C22.3322,80.0655 23.1022,79.3615 23.1022,78.5505 L23.1022,78.4155 L21.1152,78.4155 L21.1152,77.0495 L25.7252,77.0495 L25.7252,81.7545 L24.6162,81.7545 Z" id="Fill-199" fill="#F26650"></path>
                        <path d="M21.1426,72.5748 C18.2376,72.5748 16.0456,74.3828 16.0456,76.7788 L16.0456,77.7938 C16.0456,80.2288 17.9916,81.9298 20.7776,81.9298 C22.2106,81.9298 23.4096,81.3768 24.1546,80.3708 L24.3026,80.1698 L24.7086,81.6328 L25.6036,81.6328 L25.6036,77.1718 L21.2376,77.1718 L21.2376,78.2938 L23.2246,78.2938 L23.2246,78.5508 C23.2246,79.3638 22.4766,80.1868 21.0476,80.1868 C19.5356,80.1868 18.4786,79.2088 18.4786,77.8068 L18.4786,76.7528 C18.4786,75.3268 19.6406,74.3318 21.3046,74.3318 C22.5496,74.3318 23.5246,74.9668 24.0536,75.5948 L25.4376,74.4848 C24.5616,73.2868 22.9656,72.5748 21.1426,72.5748 M20.7776,82.1748 C17.8476,82.1748 15.8016,80.3728 15.8016,77.7938 L15.8016,76.7788 C15.8016,74.2428 18.0976,72.3308 21.1426,72.3308 C23.0926,72.3308 24.7986,73.1188 25.7046,74.4388 L25.7686,74.5328 L24.0146,75.9378 L23.9386,75.8398 C23.4656,75.2288 22.5256,74.5758 21.3046,74.5758 C19.7606,74.5758 18.7226,75.4508 18.7226,76.7528 L18.7226,77.8068 C18.7226,79.0648 19.6786,79.9428 21.0476,79.9428 C22.3166,79.9428 22.9806,79.2428 22.9806,78.5508 L22.9806,78.5378 L20.9936,78.5378 L20.9936,76.9278 L25.8476,76.9278 L25.8476,81.8768 L24.5236,81.8768 L24.1996,80.7078 C23.4016,81.6558 22.1976,82.1748 20.7776,82.1748" id="Fill-200" fill="#F26650"></path>
                        <path d="M33.6592,75.6441 C33.6592,75.0361 33.2672,74.6291 32.1992,74.6291 L30.1032,74.6291 L30.1032,76.8611 L32.2402,76.8611 C33.2262,76.8611 33.6592,76.5091 33.6592,75.8731 L33.6592,75.6441 Z M34.5522,81.7681 C33.9842,81.7681 33.7002,81.1731 33.6862,80.3481 L33.6592,79.2811 C33.6462,78.6181 33.3762,78.3071 32.3212,78.3071 L30.1032,78.3071 L30.1032,81.7541 L27.4812,81.7541 L27.4812,72.7501 L32.8072,72.7501 C35.1202,72.7501 36.2962,73.8191 36.2962,75.2111 L36.2962,75.4001 C36.2962,76.3201 35.7152,77.1441 34.3482,77.4151 C35.7962,77.5771 36.2822,78.4021 36.2822,79.3621 L36.2962,80.2401 C36.2962,80.8081 36.4182,81.2411 36.7822,81.6061 L36.7822,81.7681 L34.5522,81.7681 Z" id="Fill-201" fill="#F26650"></path>
                        <path d="M30.2256,76.7389 L32.2406,76.7389 C33.4026,76.7389 33.5376,76.2449 33.5376,75.8739 L33.5376,75.6439 C33.5376,75.0439 33.0996,74.7519 32.1996,74.7519 L30.2256,74.7519 L30.2256,76.7389 Z M32.2406,76.9829 L29.9816,76.9829 L29.9816,74.5079 L32.1996,74.5079 C33.2486,74.5079 33.7816,74.8899 33.7816,75.6439 L33.7816,75.8739 C33.7816,76.6099 33.2626,76.9829 32.2406,76.9829 L32.2406,76.9829 Z M29.9816,78.1849 L32.3216,78.1849 C33.3706,78.1849 33.7656,78.4809 33.7816,79.2789 L33.8086,80.3449 C33.8136,80.6509 33.8816,81.6459 34.5516,81.6459 L36.6516,81.6459 C36.3216,81.2929 36.1736,80.8549 36.1736,80.2399 L36.1606,79.3639 C36.1606,78.2859 35.5456,77.6719 34.3346,77.5359 L33.5516,77.4479 L34.3256,77.2949 C35.4996,77.0619 36.1736,76.3719 36.1736,75.3999 L36.1736,75.2119 C36.1736,73.7689 34.8836,72.8729 32.8076,72.8729 L27.6036,72.8729 L27.6036,81.6329 L29.9816,81.6329 L29.9816,78.1849 Z M36.9046,81.8899 L34.5516,81.8899 C33.9496,81.8899 33.5796,81.3139 33.5646,80.3499 L33.5376,79.2839 C33.5266,78.7169 33.3346,78.4289 32.3216,78.4289 L30.2256,78.4289 L30.2256,81.8769 L27.3596,81.8769 L27.3596,72.6289 L32.8076,72.6289 C35.0346,72.6289 36.4176,73.6189 36.4176,75.2119 L36.4176,75.3999 C36.4176,76.3419 35.8716,77.0479 34.8976,77.3919 C36.1266,77.7209 36.4046,78.6199 36.4046,79.3619 L36.4176,80.2379 C36.4176,80.8199 36.5526,81.2029 36.8686,81.5199 L36.9046,81.5549 L36.9046,81.8899 Z" id="Fill-202" fill="#F26650"></path>
                        <polygon id="Fill-203" fill="#F26650" points="38.2549 81.7545 38.2549 72.7505 46.4069 72.7505 46.4069 74.6975 40.8769 74.6975 40.8769 76.3875 44.8249 76.3875 44.8249 77.9015 40.8769 77.9015 40.8769 79.6995 46.4069 79.6995 46.4069 81.7545"></polygon>
                        <path d="M38.3769,81.6324 L46.2849,81.6324 L46.2849,79.8214 L40.7549,79.8214 L40.7549,77.7794 L44.7029,77.7794 L44.7029,76.5094 L40.7549,76.5094 L40.7549,74.5754 L46.2849,74.5754 L46.2849,72.8724 L38.3769,72.8724 L38.3769,81.6324 Z M46.5289,81.8764 L38.1329,81.8764 L38.1329,72.6284 L46.5289,72.6284 L46.5289,74.8204 L40.9989,74.8204 L40.9989,76.2654 L44.9469,76.2654 L44.9469,78.0244 L40.9989,78.0244 L40.9989,79.5774 L46.5289,79.5774 L46.5289,81.8764 Z" id="Fill-204" fill="#F26650"></path>
                        <path d="M55.084,76.6979 C55.084,75.4549 54.232,74.6029 52.759,74.6029 L50.826,74.6029 L50.826,79.9019 L52.759,79.9019 C54.232,79.9019 55.084,79.0369 55.084,77.7939 L55.084,76.6979 Z M52.895,81.7549 L48.203,81.7549 L48.203,72.7509 L52.895,72.7509 C55.963,72.7509 57.748,74.5219 57.748,76.7249 L57.748,77.8069 C57.748,79.9969 55.963,81.7549 52.895,81.7549 L52.895,81.7549 Z" id="Fill-205" fill="#F26650"></path>
                        <path d="M50.9482,79.7799 L52.7592,79.7799 C54.1182,79.7799 54.9622,79.0189 54.9622,77.7939 L54.9622,76.6979 C54.9622,75.4809 54.1182,74.7249 52.7592,74.7249 L50.9482,74.7249 L50.9482,79.7799 Z M52.7592,80.0239 L50.7042,80.0239 L50.7042,74.4809 L52.7592,74.4809 C54.2452,74.4809 55.2062,75.3509 55.2062,76.6979 L55.2062,77.7939 C55.2062,79.1479 54.2452,80.0239 52.7592,80.0239 L52.7592,80.0239 Z M48.3252,81.6329 L52.8942,81.6329 C55.7242,81.6329 57.6262,80.0949 57.6262,77.8069 L57.6262,76.7249 C57.6262,74.4209 55.7242,72.8729 52.8942,72.8729 L48.3252,72.8729 L48.3252,81.6329 Z M52.8942,81.8769 L48.0812,81.8769 L48.0812,72.6289 L52.8942,72.6289 C55.8242,72.6289 57.8702,74.3129 57.8702,76.7249 L57.8702,77.8069 C57.8702,80.2029 55.8242,81.8769 52.8942,81.8769 L52.8942,81.8769 Z" id="Fill-206" fill="#F26650"></path>
                        <polygon id="Fill-207" fill="#F26650" points="59.423 81.7547 62.045 81.7547 62.045 72.7507 59.423 72.7507"></polygon>
                        <path d="M59.545,81.6327 L61.923,81.6327 L61.923,72.8727 L59.545,72.8727 L59.545,81.6327 Z M59.301,81.8767 L62.167,81.8767 L62.167,72.6287 L59.301,72.6287 L59.301,81.8767 Z" id="Fill-208" fill="#F26650"></path>
                        <polygon id="Fill-209" fill="#F26650" points="64.1543 81.7545 64.1543 72.7505 72.3063 72.7505 72.3063 74.6975 66.7773 74.6975 66.7773 76.3875 70.7243 76.3875 70.7243 77.9015 66.7773 77.9015 66.7773 79.6995 72.3063 79.6995 72.3063 81.7545"></polygon>
                        <path d="M64.2764,81.6324 L72.1844,81.6324 L72.1844,79.8214 L66.6554,79.8214 L66.6554,77.7794 L70.6024,77.7794 L70.6024,76.5094 L66.6554,76.5094 L66.6554,74.5754 L72.1844,74.5754 L72.1844,72.8724 L64.2764,72.8724 L64.2764,81.6324 Z M72.4284,81.8764 L64.0324,81.8764 L64.0324,72.6284 L72.4284,72.6284 L72.4284,74.8204 L66.8994,74.8204 L66.8994,76.2654 L70.8464,76.2654 L70.8464,78.0244 L66.8994,78.0244 L66.8994,79.5774 L72.4284,79.5774 L72.4284,81.8764 Z" id="Fill-210" fill="#F26650"></path>
                        <polygon id="Fill-211" fill="#F26650" points="81.2949 81.7545 77.2119 77.1045 76.5759 76.3335 76.5759 81.7545 74.1029 81.7545 74.1029 72.7505 76.3869 72.7505 80.4019 77.4145 81.0239 78.1855 81.0239 72.7505 83.4979 72.7505 83.4979 81.7545"></polygon>
                        <path d="M81.3506,81.6324 L83.3756,81.6324 L83.3756,72.8724 L81.1466,72.8724 L81.1466,78.5304 L80.3076,77.4904 L76.3306,72.8724 L74.2246,72.8724 L74.2246,81.6324 L76.4546,81.6324 L76.4546,75.9934 L77.3056,77.0264 L81.3506,81.6324 Z M83.6206,81.8764 L81.2396,81.8764 L81.2036,81.8344 L77.1206,77.1844 L76.6986,76.6734 L76.6986,81.8764 L73.9806,81.8764 L73.9806,72.6284 L76.4426,72.6284 L76.4796,72.6704 L80.4956,77.3344 L80.9026,77.8394 L80.9026,72.6284 L83.6206,72.6284 L83.6206,81.8764 Z" id="Fill-212" fill="#F26650"></path>
                        <polygon id="Fill-213" fill="#F26650" points="91.0273 74.7652 91.0273 81.7542 88.3913 81.7542 88.3913 74.7652 85.0653 74.7652 85.0653 72.7502 94.3403 72.7502 94.3403 74.7652"></polygon>
                        <path d="M88.5137,81.6324 L90.9057,81.6324 L90.9057,74.6434 L94.2177,74.6434 L94.2177,72.8724 L85.1877,72.8724 L85.1877,74.6434 L88.5137,74.6434 L88.5137,81.6324 Z M91.1497,81.8764 L88.2697,81.8764 L88.2697,74.8874 L84.9437,74.8874 L84.9437,72.6284 L94.4617,72.6284 L94.4617,74.8874 L91.1497,74.8874 L91.1497,81.8764 Z" id="Fill-214" fill="#F26650"></path>
                        <polygon id="Fill-215" fill="#F26650" points="95.9199 81.7545 95.9199 72.7505 104.0719 72.7505 104.0719 74.6975 98.5429 74.6975 98.5429 76.3875 102.4899 76.3875 102.4899 77.9015 98.5429 77.9015 98.5429 79.6995 104.0719 79.6995 104.0719 81.7545"></polygon>
                        <path d="M96.042,81.6324 L103.95,81.6324 L103.95,79.8214 L98.421,79.8214 L98.421,77.7794 L102.368,77.7794 L102.368,76.5094 L98.421,76.5094 L98.421,74.5754 L103.95,74.5754 L103.95,72.8724 L96.042,72.8724 L96.042,81.6324 Z M104.194,81.8764 L95.798,81.8764 L95.798,72.6284 L104.194,72.6284 L104.194,74.8204 L98.665,74.8204 L98.665,76.2654 L102.612,76.2654 L102.612,78.0244 L98.665,78.0244 L98.665,79.5774 L104.194,79.5774 L104.194,81.8764 Z" id="Fill-216" fill="#F26650"></path>
                        <path d="M110.0586,82.0523 C108.1126,82.0523 106.4626,81.4703 105.1376,80.6323 L106.1926,79.0503 C107.4506,79.8083 108.8556,80.2673 110.1136,80.2673 C111.4646,80.2673 112.0056,79.8083 112.0056,79.2813 C112.0056,77.7803 105.5836,78.6723 105.5836,75.3873 C105.5836,73.7643 107.3956,72.4523 110.0726,72.4523 C112.0056,72.4523 113.4246,73.0743 114.5466,73.9263 L113.3436,75.3323 C112.3976,74.6843 111.1546,74.2383 110.0046,74.2383 C108.8016,74.2383 108.0986,74.6433 108.0986,75.1843 C108.0986,76.6443 114.5746,75.8733 114.5746,79.0643 C114.5746,80.8223 112.6276,82.0523 110.0586,82.0523" id="Fill-217" fill="#F26650"></path>
                        <path d="M105.3086,80.5953 C106.7516,81.4813 108.3486,81.9303 110.0586,81.9303 C112.6046,81.9303 114.4526,80.7253 114.4526,79.0643 C114.4526,77.2593 112.1976,76.7763 110.3846,76.3883 C109.0386,76.1003 107.9766,75.8713 107.9766,75.1843 C107.9766,74.5343 108.7726,74.1163 110.0046,74.1163 C111.0856,74.1163 112.3176,74.5083 113.3216,75.1703 L114.3696,73.9463 C113.1116,73.0243 111.7046,72.5743 110.0726,72.5743 C107.5826,72.5743 105.7056,73.7833 105.7056,75.3873 C105.7056,77.2473 107.9426,77.7103 109.7396,78.0823 C111.0746,78.3583 112.1276,78.5753 112.1276,79.2813 C112.1276,79.5403 111.9826,80.3893 110.1136,80.3893 C108.8966,80.3893 107.5216,79.9723 106.2296,79.2143 L105.3086,80.5953 Z M110.0586,82.1743 C108.2596,82.1743 106.5816,81.6903 105.0726,80.7363 L104.9666,80.6683 L106.1556,78.8853 L106.2546,78.9463 C107.5386,79.7193 108.9096,80.1453 110.1136,80.1453 C111.2216,80.1453 111.8836,79.8223 111.8836,79.2813 C111.8836,78.7753 110.8676,78.5653 109.6896,78.3213 C107.8066,77.9313 105.4616,77.4473 105.4616,75.3873 C105.4616,73.6163 107.4006,72.3303 110.0726,72.3303 C111.8046,72.3303 113.2916,72.8213 114.6216,73.8283 L114.7236,73.9083 L113.3656,75.4953 L113.2746,75.4333 C112.2936,74.7613 111.0716,74.3603 110.0046,74.3603 C108.9376,74.3603 108.2206,74.6913 108.2206,75.1843 C108.2206,75.6743 109.2966,75.9053 110.4366,76.1493 C112.3336,76.5563 114.6966,77.0623 114.6966,79.0643 C114.6966,80.8663 112.7456,82.1743 110.0586,82.1743 L110.0586,82.1743 Z" id="Fill-218" fill="#F26650"></path>
                        <polygon id="Fill-219" fill="#F26650" points="18 97.1764 13.917 92.5264 13.281 91.7554 13.281 97.1764 10.808 97.1764 10.808 88.1724 13.092 88.1724 17.107 92.8364 17.729 93.6074 17.729 88.1724 20.203 88.1724 20.203 97.1764"></polygon>
                        <path d="M18.0556,97.0543 L20.0806,97.0543 L20.0806,88.2943 L17.8516,88.2943 L17.8516,93.9523 L17.0126,92.9123 L13.0356,88.2943 L10.9296,88.2943 L10.9296,97.0543 L13.1596,97.0543 L13.1596,91.4153 L14.0106,92.4483 L18.0556,97.0543 Z M20.3256,97.2983 L17.9446,97.2983 L17.9086,97.2563 L13.8256,92.6063 L13.4036,92.0953 L13.4036,97.2983 L10.6856,97.2983 L10.6856,88.0503 L13.1476,88.0503 L13.1846,88.0923 L17.2006,92.7563 L17.6076,93.2613 L17.6076,88.0503 L20.3256,88.0503 L20.3256,97.2983 Z" id="Fill-220" fill="#F26650"></path>
                        <path d="M26.5146,90.5787 L25.2026,93.7157 L27.7856,93.7157 L26.5146,90.5787 Z M29.1646,97.1767 L28.3946,95.3107 L24.5546,95.3107 L23.7706,97.1767 L21.3366,97.1767 L25.2846,88.1727 L27.9606,88.1727 L31.9626,97.1767 L29.1646,97.1767 Z" id="Fill-221" fill="#F26650"></path>
                        <path d="M25.3867,93.5934 L27.6057,93.5934 L26.5127,90.8994 L25.3867,93.5934 Z M27.9667,93.8374 L25.0197,93.8374 L26.5167,90.2584 L27.9667,93.8374 Z M29.2467,97.0544 L31.7757,97.0544 L27.8817,88.2944 L25.3647,88.2944 L21.5237,97.0544 L23.6897,97.0544 L24.4737,95.1894 L28.4767,95.1894 L28.5067,95.2644 L29.2467,97.0544 Z M32.1507,97.2984 L29.0827,97.2984 L29.0527,97.2234 L28.3127,95.4334 L24.6357,95.4334 L23.8517,97.2984 L21.1507,97.2984 L25.2037,88.0504 L28.0397,88.0504 L32.1507,97.2984 Z" id="Fill-222" fill="#F26650"></path>
                        <polygon id="Fill-223" fill="#F26650" points="37.7207 90.1871 37.7207 97.1761 35.0847 97.1761 35.0847 90.1871 31.7587 90.1871 31.7587 88.1721 41.0337 88.1721 41.0337 90.1871"></polygon>
                        <path d="M35.207,97.0543 L37.599,97.0543 L37.599,90.0653 L40.911,90.0653 L40.911,88.2943 L31.881,88.2943 L31.881,90.0653 L35.207,90.0653 L35.207,97.0543 Z M37.843,97.2983 L34.963,97.2983 L34.963,90.3093 L31.637,90.3093 L31.637,88.0503 L41.155,88.0503 L41.155,90.3093 L37.843,90.3093 L37.843,97.2983 Z" id="Fill-224" fill="#F26650"></path>
                        <path d="M47.1826,97.4742 C43.9646,97.4742 42.4776,95.8112 42.4776,93.6882 L42.4776,88.1722 L45.1146,88.1722 L45.1146,93.5802 C45.1146,94.7702 45.8576,95.4872 47.3176,95.4872 C48.7906,95.4872 49.4536,94.7702 49.4536,93.5802 L49.4536,88.1722 L51.8606,88.1722 L51.8606,93.6882 C51.8606,95.7702 50.4276,97.4742 47.1826,97.4742" id="Fill-225" fill="#F26650"></path>
                        <path d="M42.5996,88.2945 L42.5996,93.6885 C42.5996,95.9815 44.3126,97.3525 47.1826,97.3525 C50.0356,97.3525 51.7386,95.9815 51.7386,93.6885 L51.7386,88.2945 L49.5766,88.2945 L49.5766,93.5805 C49.5766,94.5055 49.1846,95.6085 47.3176,95.6085 C45.8396,95.6085 44.9926,94.8695 44.9926,93.5805 L44.9926,88.2945 L42.5996,88.2945 Z M47.1826,97.5965 C44.1606,97.5965 42.3556,96.1355 42.3556,93.6885 L42.3556,88.0505 L45.2366,88.0505 L45.2366,93.5805 C45.2366,94.7315 45.9756,95.3645 47.3176,95.3645 C48.6546,95.3645 49.3316,94.7645 49.3316,93.5805 L49.3316,88.0505 L51.9826,88.0505 L51.9826,93.6885 C51.9826,94.6055 51.6366,97.5965 47.1826,97.5965 L47.1826,97.5965 Z" id="Fill-226" fill="#F26650"></path>
                        <path d="M60.0107,91.066 C60.0107,90.458 59.6187,90.051 58.5507,90.051 L56.4547,90.051 L56.4547,92.283 L58.5917,92.283 C59.5777,92.283 60.0107,91.931 60.0107,91.295 L60.0107,91.066 Z M60.9037,97.19 C60.3357,97.19 60.0517,96.595 60.0377,95.77 L60.0107,94.703 C59.9977,94.04 59.7277,93.729 58.6727,93.729 L56.4547,93.729 L56.4547,97.176 L53.8327,97.176 L53.8327,88.172 L59.1587,88.172 C61.4717,88.172 62.6477,89.241 62.6477,90.633 L62.6477,90.822 C62.6477,91.742 62.0667,92.566 60.6997,92.837 C62.1477,92.999 62.6337,93.824 62.6337,94.784 L62.6477,95.662 C62.6477,96.23 62.7697,96.663 63.1337,97.028 L63.1337,97.19 L60.9037,97.19 Z" id="Fill-227" fill="#F26650"></path>
                        <path d="M56.5771,92.1607 L58.5921,92.1607 C59.7541,92.1607 59.8891,91.6667 59.8891,91.2957 L59.8891,91.0657 C59.8891,90.4657 59.4511,90.1737 58.5511,90.1737 L56.5771,90.1737 L56.5771,92.1607 Z M58.5921,92.4047 L56.3331,92.4047 L56.3331,89.9297 L58.5511,89.9297 C59.6001,89.9297 60.1331,90.3117 60.1331,91.0657 L60.1331,91.2957 C60.1331,92.0317 59.6141,92.4047 58.5921,92.4047 L58.5921,92.4047 Z M56.3331,93.6067 L58.6731,93.6067 C59.7221,93.6067 60.1171,93.9027 60.1331,94.7007 L60.1601,95.7667 C60.1651,96.0727 60.2331,97.0677 60.9031,97.0677 L63.0031,97.0677 C62.6731,96.7147 62.5251,96.2767 62.5251,95.6617 L62.5121,94.7857 C62.5121,93.7077 61.8971,93.0937 60.6861,92.9577 L59.9031,92.8697 L60.6771,92.7167 C61.8511,92.4837 62.5251,91.7937 62.5251,90.8217 L62.5251,90.6337 C62.5251,89.1907 61.2351,88.2947 59.1591,88.2947 L53.9551,88.2947 L53.9551,97.0547 L56.3331,97.0547 L56.3331,93.6067 Z M63.2561,97.3117 L60.9031,97.3117 C60.3011,97.3117 59.9311,96.7357 59.9161,95.7717 L59.8891,94.7057 C59.8781,94.1387 59.6861,93.8507 58.6731,93.8507 L56.5771,93.8507 L56.5771,97.2987 L53.7111,97.2987 L53.7111,88.0507 L59.1591,88.0507 C61.3861,88.0507 62.7691,89.0407 62.7691,90.6337 L62.7691,90.8217 C62.7691,91.7637 62.2231,92.4697 61.2491,92.8137 C62.4781,93.1427 62.7561,94.0417 62.7561,94.7837 L62.7691,95.6597 C62.7691,96.2417 62.9041,96.6247 63.2201,96.9417 L63.2561,96.9767 L63.2561,97.3117 Z" id="Fill-228" fill="#F26650"></path>
                        <path d="M68.8105,90.5787 L67.4985,93.7157 L70.0815,93.7157 L68.8105,90.5787 Z M71.4605,97.1767 L70.6895,95.3107 L66.8505,95.3107 L66.0665,97.1767 L63.6325,97.1767 L67.5805,88.1727 L70.2575,88.1727 L74.2585,97.1767 L71.4605,97.1767 Z" id="Fill-229" fill="#F26650"></path>
                        <path d="M67.6826,93.5934 L69.9016,93.5934 L68.8086,90.8994 L67.6826,93.5934 Z M70.2626,93.8374 L67.3156,93.8374 L68.8126,90.2584 L70.2626,93.8374 Z M71.5426,97.0544 L74.0716,97.0544 L70.1786,88.2944 L67.6606,88.2944 L63.8196,97.0544 L65.9856,97.0544 L66.7696,95.1894 L70.7716,95.1894 L70.8016,95.2644 L71.5426,97.0544 Z M74.4466,97.2984 L71.3786,97.2984 L71.3486,97.2234 L70.6076,95.4334 L66.9316,95.4334 L66.1476,97.2984 L63.4466,97.2984 L67.4996,88.0504 L70.3366,88.0504 L74.4466,97.2984 Z" id="Fill-230" fill="#F26650"></path>
                        <polygon id="Fill-231" fill="#F26650" points="75.4199 97.1764 75.4199 88.1724 78.0429 88.1724 78.0429 95.1354 83.8159 95.1354 83.8159 97.1764"></polygon>
                        <path d="M75.542,97.0543 L83.693,97.0543 L83.693,95.2573 L77.921,95.2573 L77.921,88.2943 L75.542,88.2943 L75.542,97.0543 Z M83.938,97.2983 L75.298,97.2983 L75.298,88.0503 L78.165,88.0503 L78.165,95.0133 L83.938,95.0133 L83.938,97.2983 Z" id="Fill-232" fill="#F26650"></path>
                        <polygon id="Fill-233" fill="#F26650" points="85.2334 97.1764 85.2334 88.1724 93.3854 88.1724 93.3854 90.1194 87.8554 90.1194 87.8554 91.8094 91.8034 91.8094 91.8034 93.3234 87.8554 93.3234 87.8554 95.1214 93.3854 95.1214 93.3854 97.1764"></polygon>
                        <path d="M85.3555,97.0543 L93.2635,97.0543 L93.2635,95.2433 L87.7335,95.2433 L87.7335,93.2013 L91.6815,93.2013 L91.6815,91.9313 L87.7335,91.9313 L87.7335,89.9973 L93.2635,89.9973 L93.2635,88.2943 L85.3555,88.2943 L85.3555,97.0543 Z M93.5075,97.2983 L85.1115,97.2983 L85.1115,88.0503 L93.5075,88.0503 L93.5075,90.2423 L87.9775,90.2423 L87.9775,91.6873 L91.9255,91.6873 L91.9255,93.4463 L87.9775,93.4463 L87.9775,94.9993 L93.5075,94.9993 L93.5075,97.2983 Z" id="Fill-234" fill="#F26650"></path>
                        <path d="M99.373,97.4742 C97.427,97.4742 95.777,96.8922 94.452,96.0542 L95.507,94.4722 C96.765,95.2302 98.17,95.6892 99.428,95.6892 C100.779,95.6892 101.32,95.2302 101.32,94.7032 C101.32,93.2022 94.898,94.0942 94.898,90.8092 C94.898,89.1862 96.71,87.8742 99.387,87.8742 C101.32,87.8742 102.739,88.4962 103.861,89.3482 L102.658,90.7542 C101.712,90.1062 100.469,89.6602 99.319,89.6602 C98.116,89.6602 97.413,90.0652 97.413,90.6062 C97.413,92.0662 103.889,91.2952 103.889,94.4862 C103.889,96.2442 101.942,97.4742 99.373,97.4742" id="Fill-235" fill="#F26650"></path>
                        <path d="M94.623,96.0172 C96.066,96.9032 97.663,97.3522 99.373,97.3522 C101.919,97.3522 103.767,96.1472 103.767,94.4862 C103.767,92.6812 101.512,92.1982 99.699,91.8102 C98.353,91.5222 97.291,91.2932 97.291,90.6062 C97.291,89.9562 98.087,89.5382 99.319,89.5382 C100.4,89.5382 101.632,89.9302 102.636,90.5922 L103.684,89.3682 C102.426,88.4462 101.019,87.9962 99.387,87.9962 C96.897,87.9962 95.02,89.2052 95.02,90.8092 C95.02,92.6692 97.257,93.1322 99.054,93.5042 C100.389,93.7802 101.442,93.9972 101.442,94.7032 C101.442,94.9622 101.297,95.8112 99.428,95.8112 C98.211,95.8112 96.836,95.3942 95.544,94.6362 L94.623,96.0172 Z M99.373,97.5962 C97.574,97.5962 95.896,97.1122 94.387,96.1582 L94.281,96.0902 L95.47,94.3072 L95.569,94.3682 C96.853,95.1412 98.224,95.5672 99.428,95.5672 C100.536,95.5672 101.198,95.2442 101.198,94.7032 C101.198,94.1972 100.182,93.9872 99.004,93.7432 C97.121,93.3532 94.776,92.8692 94.776,90.8092 C94.776,89.0382 96.715,87.7522 99.387,87.7522 C101.119,87.7522 102.606,88.2432 103.936,89.2502 L104.038,89.3302 L102.68,90.9172 L102.589,90.8552 C101.608,90.1832 100.386,89.7822 99.319,89.7822 C98.252,89.7822 97.535,90.1132 97.535,90.6062 C97.535,91.0962 98.611,91.3272 99.751,91.5712 C101.648,91.9782 104.011,92.4842 104.011,94.4862 C104.011,96.2882 102.06,97.5962 99.373,97.5962 L99.373,97.5962 Z" id="Fill-236" fill="#F26650"></path>
                        <path d="M31.5322,32.9479 L31.4962,32.9479 C30.4662,32.9479 29.4462,33.0849 28.4992,33.3819 C23.8752,34.7969 19.9612,40.4829 19.9781448,46.6939 C19.9781448,51.0319 21.8692,54.9579 24.9482,57.8169 C28.0282,60.6749 32.2902,62.4489 37.0112,62.4489 L37.0132,62.4489 C41.7332,62.4489 45.9982,60.6749 49.0782,57.8169 C52.1582,54.9579 54.0462,51.0319 54.0492048,46.6939 C54.0512,43.0749 53.4302,40.1909 52.1082,38.1529 C50.7822,36.1209 48.7862,34.8439 45.7162,34.3869 L45.7142,34.3869 C45.5442,34.3599 45.3212,34.3449 45.0662,34.3449 L45.0582,34.3449 L45.0072,34.3449 C44.0022,34.3449 42.5532,34.5809 41.3112,34.9729 L36.4272,37.4269 C36.1162,37.6529 35.8582,37.8789 35.7062,38.0749 C35.5692,38.2439 35.3682,38.3329 35.1642,38.3329 C35.0122,38.3329 34.8572,38.2839 34.7272,38.1799 C34.4302,37.9369 34.3822,37.5019 34.6252,37.2019 C34.8452,36.9339 35.1132,36.6839 35.4072,36.4519 C35.4932,35.5939 35.6542,34.6959 35.8872,33.7689 C34.5612,33.2569 33.0382,32.9479 31.5322,32.9479" id="Fill-237" fill="#F26650"></path>
                        <path d="M31.4961,33.3482 C30.4661,33.3482 29.4981,33.4882 28.6181,33.7632 C23.9801,35.1822 20.3621,40.8622 20.3790403,46.6932 C20.3790403,50.7782 22.0981,54.6242 25.2211,57.5242 C28.3651,60.4422 32.5531,62.0482 37.0111,62.0482 C41.4731,62.0482 45.6611,60.4422 48.8061,57.5242 C51.9261,54.6272 53.6461,50.7812 53.6481047,46.6942 C53.6501,43.0922 53.0191,40.2922 51.7721,38.3702 C50.4521,36.3472 48.5091,35.2062 45.6571,34.7832 C45.4981,34.7572 45.2971,34.7452 45.0661,34.7452 C44.0061,34.7452 42.6021,34.9852 41.4331,35.3552 L36.6061,37.7852 C36.3691,37.9632 36.1421,38.1652 36.0221,38.3202 C35.6481,38.7822 34.9331,38.8552 34.4781,38.4932 C34.0081,38.1072 33.9351,37.4162 34.3141,36.9502 C34.5111,36.7112 34.7491,36.4762 35.0261,36.2452 C35.1051,35.5312 35.2361,34.7852 35.4151,34.0212 C34.1741,33.5852 32.8081,33.3482 31.5321,33.3482 L31.4961,33.3482 Z M37.0141,62.8492 C32.3501,62.8492 27.9701,61.1652 24.6761,58.1102 C21.3891,55.0572 19.5780442,51.0032 19.5780442,46.6942 C19.5611,40.5312 23.4281,34.5152 28.3821,32.9982 C29.3361,32.7002 30.3851,32.5472 31.4961,32.5472 L31.5321,32.5472 C33.0411,32.5472 34.5971,32.8412 36.0321,33.3962 C36.2211,33.4692 36.3251,33.6702 36.2751,33.8672 C36.0471,34.7752 35.8891,35.6582 35.8061,36.4922 C35.7951,36.5992 35.7401,36.6982 35.6551,36.7652 C35.3651,36.9942 35.1221,37.2272 34.9341,37.4562 C34.8321,37.5812 34.8511,37.7652 34.9811,37.8702 C35.1621,38.0182 35.3091,37.9302 35.3951,37.8232 C35.5591,37.6112 35.8291,37.3672 36.1911,37.1042 L41.1321,34.6162 C42.4331,34.1992 43.9311,33.9452 45.0071,33.9452 C45.3471,33.9452 45.5911,33.9622 45.7771,33.9932 C48.8261,34.4452 51.0081,35.7352 52.4431,37.9342 C53.7761,39.9892 54.4511,42.9362 54.4491044,46.6942 C54.4461,51.0062 52.6351,55.0602 49.3501,58.1102 C46.0571,61.1652 41.6751,62.8492 37.0141,62.8492 L37.0141,62.8492 Z" id="Fill-238" fill="#141117"></path>
                        <path d="M80.3642,35.4195 C79.6872,35.4195 78.3782,35.4905 76.9842,35.7605 C77.1592,36.7735 77.2792,37.7595 77.3432,38.7155 L77.3502,38.9115 C77.3502,40.4585 76.1482,41.7565 74.5842,41.8615 L74.5622,41.8615 L74.3972,41.8665 L74.3902,41.8665 C72.8412,41.8665 71.5442,40.6675 71.4402,39.1035 C71.4162,38.7285 71.3772,38.3255 71.3252,37.9005 C71.0312,37.7615 70.7592,37.6445 70.5012,37.5485 C69.3972,37.1335 68.5502,37.0555 67.3912,37.0525 L67.3722,37.0525 C64.6652,37.0525 62.1202,38.8155 60.2412,41.3735 C58.3602,43.9235 57.2012,47.2295 57.2081685,49.9975 L57.2132,50.3185 C57.4582,58.3325 64.9672,64.7475 74.2282,64.7525 L74.8782,64.7395 L74.8762,64.7425 C84.2622,64.4335 91.5902,57.6465 91.5772173,49.6375 L91.5702,49.2055 C91.4762,46.2045 90.3172,42.6925 88.3452,39.9955 C86.3672,37.2885 83.6472,35.4195 80.3812,35.4195 L80.3792,35.4195 L80.3642,35.4195" id="Fill-239" fill="#F26650"></path>
                        <path d="M67.3906,37.4527 C64.9866,37.4527 62.5046,38.9687 60.5636,41.6097 C58.7336,44.0917 57.6016,47.3047 57.6085677,49.9967 L57.6136,50.3127 C57.8536,58.1787 65.1526,64.3487 74.2286,64.3517 L75.0276,64.3367 C83.9596,63.9657 91.1896,57.4017 91.1766175,49.6387 L91.1696,49.2117 C91.0766,46.2027 89.8696,42.7597 88.0226,40.2317 C86.5516,38.2197 84.0316,35.8197 80.3806,35.8197 L80.3646,35.8197 C79.6776,35.8197 78.5816,35.8907 77.4436,36.0837 C77.5856,36.9747 77.6866,37.8497 77.7426,38.6887 L77.7496,38.8957 C77.7506,40.6717 76.3706,42.1417 74.6116,42.2617 L74.4096,42.2657 C72.6286,42.2667 71.1576,40.8887 71.0406,39.1297 C71.0216,38.8267 70.9926,38.5057 70.9536,38.1697 C70.7456,38.0747 70.5496,37.9937 70.3616,37.9237 C69.3186,37.5307 68.5126,37.4557 67.3906,37.4527 L67.3906,37.4527 Z M74.1116,65.1687 L74.1216,65.1517 C64.6556,65.0967 57.0666,58.6037 56.8136,50.3317 L56.8075694,50.0037 C56.8006,47.1427 57.9936,43.7477 59.9186,41.1367 C62.0126,38.2867 64.7296,36.6517 67.3716,36.6517 C68.6086,36.6557 69.4866,36.7397 70.6416,37.1747 C70.9086,37.2727 71.1916,37.3937 71.4966,37.5397 L71.6956,37.6347 L71.7226,37.8517 C71.7756,38.2857 71.8146,38.6947 71.8396,39.0767 C71.9286,40.4167 73.0486,41.4667 74.3906,41.4667 L74.5506,41.4627 C75.8996,41.3727 76.9506,40.2517 76.9506,38.9117 L76.9436,38.7307 C76.8816,37.8077 76.7626,36.8277 76.5896,35.8287 L76.5236,35.4417 L76.9086,35.3677 C78.2356,35.1107 79.5636,35.0187 80.3646,35.0187 L80.3786,35.0187 C84.3676,35.0187 87.0876,37.5977 88.6686,39.7597 C90.6356,42.4497 91.8696,45.9767 91.9696,49.1927 L91.9776165,49.6317 C91.9906,57.8757 84.3246,64.8317 74.8886,65.1417 L74.1116,65.1687 Z" id="Fill-240" fill="#141117"></path>
                        <path d="M59.6015,0.4 C58.9165,0.4 58.2845,0.857 58.0955,1.548 L57.1075,5.101 L56.9135,5.244 C53.6595,7.61 48.7405,13.113 44.6085,19.223 C40.8175,24.812 37.6735,30.964 36.9145,35.626 L40.4225,33.863 C41.2735,29.751 43.9765,24.843 47.2125,20.273 C50.5455,15.582 54.4395,11.281 57.5455,8.725 L58.1175,8.257 L58.5485,8.855 C69.6115,24.137 72.4695,33.603 72.8285,39.012 C72.8795,39.838 73.5685,40.476 74.3845,40.476 L74.4955,40.473 C75.3245,40.42 75.9595,39.728 75.9595,38.912 L75.9565,38.806 C75.4225,30.468 70.2025,19.387 60.3785,6.036 L60.9375,5.624 L60.3785,6.036 L60.1775,5.763 L61.1165,2.389 L61.1725,1.967 C61.1725,1.283 60.7195,0.651 60.0255,0.46 L59.6015,0.4" id="Fill-241" fill="#FFFFFF"></path>
                        <path d="M36.914,35.6256 C37.674,30.9636 40.817,24.8116 44.608,19.2236 C48.74,13.1116 53.659,7.6096 56.914,5.2426 L57.107,5.1016 L58.096,1.5506 C58.284,0.8556 58.917,0.3996 59.601,0.3996 L60.025,0.4586 C60.72,0.6496 61.173,1.2826 61.173,1.9676 L61.116,2.3896 L60.178,5.7636 L60.379,6.0356 L60.937,5.6236 L60.379,6.0356 C70.202,19.3876 75.423,30.4686 75.957,38.8066 L75.96,38.9116 C75.96,39.7286 75.324,40.4196 74.495,40.4736 L74.385,40.4766 C73.568,40.4766 72.88,39.8386 72.828,39.0126 C72.47,33.6026 69.611,24.1376 58.549,8.8546 L58.117,8.2576 L57.546,8.7256 C54.439,11.2826 50.546,15.5816 47.213,20.2716 C43.976,24.8436 41.273,29.7496 40.423,33.8616 L36.914,35.6256" id="Fill-242" fill="#68C184"></path>
                        <path d="M58.1172,7.857 C58.1352,7.857 58.1512,7.859 58.1692,7.861 C58.2782,7.875 58.3772,7.934 58.4412,8.023 L58.8732,8.621 C70.1012,24.132 72.8772,33.696 73.2272,38.986 C73.2652,39.598 73.7742,40.076 74.3852,40.076 L74.4842,40.074 C75.0812,40.035 75.5592,39.524 75.5592,38.912 L75.5572,38.817 C75.0222,30.48 69.8072,19.526 60.0562,6.273 L60.0562,6.272 L59.8552,6.001 C59.7832,5.902 59.7602,5.775 59.7922,5.656 L60.7302,2.282 L60.7762,1.914 C60.7722,1.445 60.4222,0.983 59.9192,0.844 L59.5472,0.796 C59.0792,0.8 58.6182,1.152 58.4812,1.655 L57.4932,5.209 C57.4692,5.294 57.4162,5.371 57.3442,5.423 L57.1502,5.565 C53.8252,7.984 48.9192,13.562 44.9392,19.447 C41.0252,25.216 38.3352,30.788 37.4572,34.905 L40.0712,33.59 C41.0982,28.901 44.3342,23.645 46.8872,20.041 C50.1652,15.426 54.0552,11.082 57.2922,8.417 L57.8642,7.948 C57.9352,7.889 58.0252,7.857 58.1172,7.857 L58.1172,7.857 Z M74.3952,40.8760009 C73.3522,40.877 72.4932,40.068 72.4292,39.038 C72.0862,33.853 69.3432,24.448 58.2242,9.089 L58.0422,8.836 L57.7992,9.035 C54.6152,11.657 50.7792,15.944 47.5392,20.503 C44.9972,24.094 41.7662,29.341 40.8142,33.943 C40.7902,34.063 40.7122,34.165 40.6022,34.219 L37.0942,35.983 C36.9602,36.05 36.7982,36.038 36.6782,35.948 C36.5562,35.859 36.4952,35.71 36.5192,35.561 C37.2182,31.273 40.0462,25.236 44.2772,18.999 C48.3032,13.044 53.2872,7.386 56.6792,4.919 L56.7592,4.86 L57.7102,1.443 C57.9402,0.594 58.7192,-2.23820962e-13 59.6012,-2.23820962e-13 L60.0802,0.062 C60.9802,0.307 61.5732,1.086 61.5732,1.967 L61.5132,2.443 L60.7252,5.285 C60.9002,5.174 61.1332,5.216 61.2602,5.386 C61.3122,5.458 61.3382,5.541 61.3382,5.624 C61.3382,5.746 61.2812,5.867 61.1752,5.946 L60.9372,6.121 C70.6282,19.355 75.8152,30.342 76.3562,38.781 L76.3592009,38.901 C76.3602,39.944 75.5522,40.805 74.5202,40.873 L74.3952,40.8760009 Z" id="Fill-243" fill="#141117"></path>
                    </g>
                </g>
            </g>
        </g>
    </g>
</svg>