<?xml version="1.0" encoding="UTF-8"?>
<svg width="100px" height="100px" viewBox="0 0 100 100" version="1.1" xmlns="http://www.w3.org/2000/svg" xmlns:xlink="http://www.w3.org/1999/xlink">
    <!-- Generator: Sketch 57.1 (83088) - https://sketch.com -->
    <title>Formaldehído</title>
    <desc>Created with Sketch.</desc>
    <defs>
        <polygon id="path-1" points="0 0.046 99.954 0.046 99.954 99.9997 0 99.9997"></polygon>
    </defs>
    <g id="Page-1" stroke="none" stroke-width="1" fill="none" fill-rule="evenodd">
        <g id="Home" transform="translate(-227.000000, -4111.000000)">
            <g id="no-contiene" transform="translate(0.000000, 3701.000000)">
                <g id="stickers" transform="translate(71.000000, 20.000000)">
                    <g id="Formaldehído" transform="translate(156.000000, 389.000000)">
                        <path d="M99.5537,50.9766 C99.5537,78.3576 77.3577,100.5536 49.9777,100.5536 C22.5967,100.5536 0.4007,78.3576 0.4007,50.9766 C0.4007,23.5966 22.5967,1.4006 49.9777,1.4006 C77.3577,1.4006 99.5537,23.5966 99.5537,50.9766" id="Fill-1" fill="#6ACFF6"></path>
                        <g id="Group-5" transform="translate(0.000000, 0.954100)">
                            <mask id="mask-2" fill="white">
                                <use xlink:href="#path-1"></use>
                            </mask>
                            <g id="Clip-4"></g>
                            <path d="M49.9775,0.8467 C22.8615,0.8467 0.8005,22.9067 0.8005,50.0227 C0.8005,77.1387 22.8615,99.1997 49.9775,99.1997 C77.0935,99.1997 99.1535,77.1387 99.1535,50.0227 C99.1535,22.9067 77.0935,0.8467 49.9775,0.8467 M49.9775,99.9997 C22.4195,99.9997 -0.0005,77.5797 -0.0005,50.0227 C-0.0005,22.4657 22.4195,0.0457 49.9775,0.0457 C77.5345,0.0457 99.9545,22.4657 99.9545,50.0227 C99.9545,77.5797 77.5345,99.9997 49.9775,99.9997" id="Fill-3" fill="#232020" mask="url(#mask-2)"></path>
                        </g>
                        <path d="M14.459,40.3721 L15.019,39.0141 C16.082,39.4521 16.973,39.1011 17.397,38.0731 C17.767,37.1761 17.558,36.5091 16.813,36.2021 C16.188,35.9441 15.747,36.1081 14.984,36.8861 L13.886,38.0081 C13.057,38.8821 12.088,39.1181 11.037,38.6851 C9.69,38.1301 9.218,36.6641 9.859,35.1051 C10.541,33.4511 12.005,32.7831 13.552,33.4211 L12.992,34.7791 C12.095,34.4091 11.383,34.6961 10.998,35.6291 C10.677,36.4091 10.894,37.0231 11.52,37.2811 C12.086,37.5151 12.629,37.2681 13.418,36.4611 L14.416,35.4491 C15.27,34.5851 16.216,34.3671 17.338,34.8291 C18.755,35.4141 19.259,36.9061 18.582,38.5481 C17.794,40.4611 16.302,41.1311 14.459,40.3721" id="Fill-6" fill="#000000"></path>
                        <path d="M14.8584,32.0996 L15.5484,30.9076 L20.6964,33.8856 L20.0054,35.0786 L14.8584,32.0996 Z M12.8074,31.3116 C12.3104,31.0236 12.1234,30.4286 12.4304,29.8986 C12.7374,29.3686 13.3454,29.2346 13.8424,29.5216 C14.3394,29.8096 14.5274,30.4046 14.2194,30.9346 C13.9134,31.4646 13.3044,31.5986 12.8074,31.3116 L12.8074,31.3116 Z" id="Fill-8" fill="#000000"></path>
                        <path d="M16.584,29.1133 L17.439,28.0143 L18.095,28.5243 C17.818,27.8403 17.969,27.0833 18.51,26.3863 C19.389,25.2583 20.479,25.1673 21.71,26.1233 L24.665,28.4223 L23.81,29.5203 L21.359,27.6153 C20.36,26.8393 19.723,26.7633 19.127,27.5303 C18.57,28.2463 18.73,29.0183 19.558,29.6613 L22.14,31.6693 L21.284,32.7683 L16.584,29.1133 Z" id="Fill-10" fill="#000000"></path>
                        <path d="M24.7744,19.1816 L25.3334,19.8806 L26.5504,18.9076 L27.2764,19.8156 L26.0594,20.7876 L29.0514,24.5306 L27.9634,25.4006 L24.9714,21.6586 L24.0234,22.4166 L23.2964,21.5086 L24.2454,20.7496 L23.7024,20.0716 C22.5054,18.5756 23.4184,17.4856 23.9064,17.0946 C24.2464,16.8236 24.5174,16.6716 24.7074,16.6016 L25.4414,17.5196 C25.2834,17.6296 25.1394,17.6956 24.9804,17.8236 C24.6504,18.0856 24.2314,18.5026 24.7744,19.1816" id="Fill-12" fill="#000000"></path>
                        <path d="M32.9102,18.5068 C32.3662,17.5668 31.4222,17.1828 30.4482,17.7448 C29.4742,18.3078 29.3352,19.3188 29.8792,20.2588 C30.4222,21.1988 31.3672,21.5828 32.3412,21.0198 C33.3142,20.4568 33.4532,19.4468 32.9102,18.5068 M28.6732,20.9548 C27.7972,19.4398 28.1242,17.6568 29.8282,16.6718 C31.5312,15.6878 33.2402,16.2938 34.1152,17.8098 C34.9912,19.3248 34.6642,21.1088 32.9612,22.0928 C31.2572,23.0768 29.5492,22.4708 28.6732,20.9548" id="Fill-14" fill="#000000"></path>
                        <path d="M34.1914,14.6338 L35.4904,14.1328 L35.9034,15.2058 C35.8024,14.3408 36.3324,13.7268 36.9404,13.4918 C37.1424,13.4138 37.3144,13.3618 37.4704,13.3428 L37.9304,14.5338 C37.7184,14.5888 37.6114,14.6298 37.4084,14.7078 C36.4914,15.0618 36.1974,15.9688 36.6844,17.2318 L37.6294,19.6868 L36.3314,20.1878 L34.1914,14.6338 Z" id="Fill-16" fill="#000000"></path>
                        <path d="M39.0439,12.6924 L40.4179,12.4654 L40.5529,13.2854 C40.7159,12.7024 41.2629,12.1714 42.0309,12.0454 C43.1029,11.8694 43.7089,12.2484 44.0569,12.7864 C44.2359,12.1484 44.8549,11.5804 45.6869,11.4434 C47.4509,11.1524 48.0029,12.3044 48.1839,13.4014 L48.7959,17.1194 L47.4219,17.3454 L46.8539,13.8914 C46.6929,12.9214 46.2449,12.5554 45.5259,12.6734 C44.8339,12.7884 44.3479,13.2164 44.5779,14.6164 L45.0909,17.7294 L43.7169,17.9564 L43.1469,14.4894 C42.9859,13.5184 42.5649,13.1614 41.8469,13.2794 C41.1529,13.3934 40.6419,13.8274 40.8719,15.2264 L41.3849,18.3394 L40.0109,18.5654 L39.0439,12.6924 Z" id="Fill-18" fill="#000000"></path>
                        <path d="M54.4521,14.6475 C54.5311,13.6275 54.0251,12.7165 52.8411,12.6255 C51.7581,12.5405 51.0461,13.2925 50.9611,14.3755 C50.8771,15.4585 51.4641,16.3115 52.5471,16.3955 C53.7321,16.4885 54.3731,15.6665 54.4521,14.6475 M49.5721,14.2675 C49.7081,12.5215 50.9241,11.2315 52.7711,11.3765 C53.5611,11.4375 54.2471,11.8495 54.5701,12.4775 L54.6331,11.6745 L56.0091,11.7815 L55.5461,17.7185 L54.1701,17.6115 L54.2321,16.8095 C53.8161,17.3785 52.9731,17.6725 52.2471,17.6165 C50.3361,17.4665 49.4361,16.0125 49.5721,14.2675" id="Fill-20" fill="#000000"></path>
                        <polygon id="Fill-22" fill="#000000" points="58.6719 9.3232 60.0309 9.6242 58.0979 18.3502 56.7389 18.0502"></polygon>
                        <path d="M64.5166,17.3232 C64.8746,16.3662 64.6416,15.3502 63.5296,14.9332 C62.5126,14.5522 61.6206,15.0772 61.2386,16.0942 C60.8576,17.1102 61.1846,18.0942 62.2016,18.4742 C63.3146,18.8912 64.1576,18.2802 64.5166,17.3232 L64.5166,17.3232 Z M67.8556,12.2032 L64.7146,20.5772 L63.4236,20.0932 L63.7056,19.3392 C63.1486,19.7712 62.2566,19.8192 61.5756,19.5632 C59.7806,18.8902 59.3206,17.2442 59.9346,15.6052 C60.5486,13.9662 62.0746,13.0642 63.8096,13.7152 C64.5506,13.9932 65.0946,14.5792 65.2316,15.2712 L66.5636,11.7192 L67.8556,12.2032 Z" id="Fill-24" fill="#000000"></path>
                        <path d="M71.0186,20.168 C71.4886,19.377 71.2966,18.661 70.4796,18.161 C69.6406,17.647 68.8326,17.842 68.3816,18.555 L71.0186,20.168 Z M71.5986,21.766 L67.8286,19.459 C67.3686,20.285 67.6236,21.041 68.4846,21.567 C69.0736,21.928 69.5356,21.956 69.9716,21.684 L71.1696,22.417 C70.4366,23.272 69.0716,23.35 67.8516,22.603 C66.2496,21.622 65.8846,19.991 66.8916,18.347 C67.8856,16.723 69.5286,16.29 71.0756,17.237 C72.5246,18.124 72.9046,19.705 72.0316,21.132 C71.9046,21.339 71.7926,21.496 71.5986,21.766 L71.5986,21.766 Z" id="Fill-26" fill="#000000"></path>
                        <path d="M77.4385,25.2549 L74.9345,28.0359 L73.9005,27.1049 L75.9765,24.7979 C76.8225,23.8589 76.9435,23.2289 76.2215,22.5789 C75.5475,21.9729 74.7665,22.0759 74.0665,22.8549 L71.8785,25.2839 L70.8435,24.3529 L76.8255,17.7089 L77.8605,18.6409 L75.3045,21.4789 C76.0075,21.2519 76.7515,21.4569 77.4055,22.0469 C78.4685,23.0039 78.4805,24.0969 77.4385,25.2549" id="Fill-28" fill="#000000"></path>
                        <path d="M80.9014,23.9189 L83.7694,24.3869 L83.6484,25.5089 L80.7794,25.0409 L80.9014,23.9189 Z M80.2084,25.1559 L81.0984,26.2089 L76.5544,30.0489 L75.6654,28.9959 L80.2084,25.1559 Z" id="Fill-30" fill="#000000"></path>
                        <path d="M82.2813,33.1103 C83.1443,32.5663 83.5733,31.6173 82.9403,30.6123 C82.3623,29.6943 81.3343,29.5723 80.4163,30.1503 C79.4983,30.7293 79.1643,31.7093 79.7433,32.6273 C80.3763,33.6313 81.4163,33.6553 82.2813,33.1103 L82.2813,33.1103 Z M88.0333,31.0553 L80.4713,35.8203 L79.7363,34.6533 L80.4173,34.2243 C79.7123,34.2313 78.9733,33.7303 78.5863,33.1143 C77.5653,31.4943 78.1943,29.9053 79.6743,28.9723 C81.1543,28.0413 82.9133,28.2463 83.9003,29.8123 C84.3223,30.4813 84.4003,31.2773 84.0903,31.9103 L87.2993,29.8893 L88.0333,31.0553 Z" id="Fill-32" fill="#000000"></path>
                        <path d="M85.335,39.917 C86.35,39.528 86.877,38.655 86.475,37.605 C86.071,36.555 85.096,36.259 84.081,36.647 C83.066,37.037 82.539,37.91 82.942,38.96 C83.345,40.01 84.321,40.307 85.335,39.917 M83.582,35.347 C85.217,34.72 86.927,35.323 87.632,37.161 C88.337,38.999 87.469,40.591 85.834,41.218 C84.199,41.845 82.489,41.241 81.785,39.404 C81.08,37.566 81.947,35.975 83.582,35.347" id="Fill-34" fill="#000000"></path>
                        <path d="M13.0537,60.1406 L13.5117,61.5646 C12.3977,61.9226 11.9367,62.7816 12.2827,63.8576 C12.5857,64.7976 13.1867,65.1786 13.9657,64.9276 C14.6217,64.7166 14.8567,64.2996 14.9377,63.1946 L15.0527,61.6006 C15.1227,60.3756 15.7197,59.5566 16.8217,59.2026 C18.2317,58.7476 19.5637,59.5756 20.0887,61.2086 C20.6467,62.9416 19.9487,64.4226 18.3267,64.9446 L17.8687,63.5216 C18.8107,63.2186 19.1747,62.5276 18.8607,61.5496 C18.5977,60.7336 18.0257,60.3986 17.3687,60.6096 C16.7757,60.8006 16.5147,61.3486 16.4337,62.4946 L16.3237,63.9366 C16.2287,65.1686 15.6367,65.9606 14.4607,66.3386 C12.9757,66.8166 11.6037,65.9886 11.0497,64.2686 C10.4047,62.2636 11.1227,60.7626 13.0537,60.1406" id="Fill-36" fill="#000000"></path>
                        <path d="M20.3408,64.8457 C20.8658,64.5897 21.4758,64.7707 21.7478,65.3307 C22.0218,65.8927 21.7878,66.4837 21.2628,66.7397 C20.7368,66.9947 20.1278,66.8147 19.8548,66.2537 C19.5818,65.6927 19.8148,65.1017 20.3408,64.8457 L20.3408,64.8457 Z M18.5068,66.1287 L19.1218,67.3917 L13.6748,70.0427 L13.0608,68.7817 L18.5068,66.1287 Z" id="Fill-38" fill="#000000"></path>
                        <path d="M19.749,68.7617 L20.546,69.9347 L19.847,70.4097 C20.597,70.3567 21.281,70.7407 21.786,71.4827 C22.604,72.6867 22.351,73.7717 21.038,74.6627 L17.887,76.8047 L17.09,75.6317 L19.704,73.8557 C20.769,73.1317 21.041,72.5377 20.485,71.7207 C19.967,70.9567 19.169,70.8697 18.287,71.4697 L15.533,73.3407 L14.736,72.1677 L19.749,68.7617 Z" id="Fill-40" fill="#000000"></path>
                        <path d="M28.041,77.2305 L27.437,77.9125 L28.625,78.9635 L27.841,79.8495 L26.653,78.7975 L23.42,82.4495 L22.358,81.5085 L25.592,77.8585 L24.667,77.0395 L25.451,76.1535 L26.376,76.9725 L26.963,76.3105 C28.256,74.8505 29.507,75.5765 29.983,75.9985 C30.314,76.2915 30.514,76.5375 30.616,76.7145 L29.823,77.6105 C29.687,77.4715 29.595,77.3385 29.439,77.2015 C29.118,76.9175 28.627,76.5685 28.041,77.2305" id="Fill-42" fill="#000000"></path>
                        <path d="M31.2959,84.3701 C31.8889,83.4371 31.7899,82.4051 30.8239,81.7911 C29.8589,81.1781 28.8819,81.5271 28.2899,82.4601 C27.6969,83.3921 27.7949,84.4251 28.7609,85.0391 C29.7259,85.6521 30.7029,85.3031 31.2959,84.3701 M27.0939,81.6991 C28.0489,80.1961 29.8119,79.6531 31.5009,80.7261 C33.1909,81.8011 33.4469,83.6271 32.4909,85.1311 C31.5359,86.6341 29.7739,87.1771 28.0839,86.1021 C26.3949,85.0291 26.1389,83.2021 27.0939,81.6991" id="Fill-44" fill="#000000"></path>
                        <path d="M35.1133,82.9424 L36.4173,83.4944 L35.9613,84.5714 C36.4993,83.8674 37.3213,83.7924 37.9303,84.0504 C38.1343,84.1364 38.2973,84.2194 38.4253,84.3164 L37.9193,85.5124 C37.7253,85.4024 37.6173,85.3574 37.4143,85.2704 C36.4933,84.8804 35.6363,85.3374 35.0993,86.6044 L34.0563,89.0694 L32.7533,88.5164 L35.1133,82.9424 Z" id="Fill-46" fill="#000000"></path>
                        <path d="M39.1455,84.8301 L40.5385,85.0901 L40.3825,85.9201 C40.7415,85.4181 41.4485,85.1011 42.2265,85.2461 C43.3125,85.4481 43.7605,86.0201 43.9065,86.6561 C44.2995,86.1081 45.0875,85.7791 45.9305,85.9361 C47.7185,86.2691 47.8475,87.5621 47.6405,88.6741 L46.9385,92.4411 L45.5455,92.1821 L46.1985,88.6821 C46.3815,87.6981 46.0795,87.1931 45.3515,87.0581 C44.6495,86.9271 44.0365,87.1691 43.7715,88.5871 L43.1835,91.7411 L41.7915,91.4811 L42.4465,87.9701 C42.6285,86.9861 42.3505,86.4981 41.6225,86.3621 C40.9195,86.2311 40.2815,86.4691 40.0165,87.8871 L39.4285,91.0411 L38.0365,90.7821 L39.1455,84.8301 Z" id="Fill-48" fill="#000000"></path>
                        <path d="M54.2227,89.0723 C54.1507,88.0353 53.5057,87.1933 52.2997,87.2773 C51.1977,87.3533 50.5917,88.2173 50.6687,89.3193 C50.7447,90.4223 51.4627,91.1923 52.5657,91.1163 C53.7727,91.0323 54.2947,90.1103 54.2227,89.0723 M49.2547,89.4173 C49.1317,87.6403 50.1627,86.1613 52.0427,86.0303 C52.8477,85.9743 53.5987,86.2883 54.0177,86.8713 L53.9607,86.0533 L55.3617,85.9573 L55.7817,92.0013 L54.3797,92.0973 L54.3237,91.2813 C53.9907,91.9173 53.1847,92.3373 52.4457,92.3883 C50.4997,92.5233 49.3777,91.1943 49.2547,89.4173" id="Fill-50" fill="#000000"></path>
                        <polygon id="Fill-52" fill="#000000" points="56.1631 82.6035 57.5471 82.2955 59.5221 91.1825 58.1391 91.4905"></polygon>
                        <path d="M65.0049,86.1963 C64.6319,85.2253 63.7689,84.6113 62.6399,85.0463 C61.6089,85.4423 61.2839,86.4443 61.6819,87.4753 C62.0779,88.5073 62.9909,89.0333 64.0229,88.6353 C65.1509,88.2023 65.3789,87.1673 65.0049,86.1963 L65.0049,86.1963 Z M64.0859,80.0463 L67.3549,88.5373 L66.0449,89.0423 L65.7499,88.2773 C65.6179,88.9823 64.9729,89.6213 64.2809,89.8873 C62.4609,90.5883 60.9989,89.6463 60.3589,87.9843 C59.7199,86.3233 60.2709,84.6063 62.0289,83.9293 C62.7809,83.6393 63.5919,83.7173 64.1629,84.1533 L62.7759,80.5503 L64.0859,80.0463 Z" id="Fill-54" fill="#000000"></path>
                        <path d="M71.2344,82.0029 C70.7194,81.2209 69.9784,81.0759 69.1574,81.6019 C68.3134,82.1419 68.1314,82.9679 68.5834,83.6969 L71.2344,82.0029 Z M72.9554,82.1839 L69.1644,84.6069 C69.7154,85.3969 70.5214,85.4979 71.3864,84.9449 C71.9784,84.5669 72.2104,84.1559 72.1554,83.6359 L73.3604,82.8659 C73.8164,83.9169 73.2794,85.2009 72.0524,85.9859 C70.4424,87.0159 68.7874,86.6229 67.7294,84.9689 C66.6854,83.3359 67.0214,81.6409 68.5774,80.6459 C70.0344,79.7139 71.6504,80.0699 72.5674,81.5049 C72.7014,81.7129 72.7954,81.8849 72.9554,82.1839 L72.9554,82.1839 Z" id="Fill-56" fill="#000000"></path>
                        <path d="M77.5205,76.3057 L80.1535,79.0597 L79.1285,80.0387 L76.9455,77.7557 C76.0555,76.8257 75.4245,76.6547 74.7095,77.3367 C74.0425,77.9757 74.0885,78.7767 74.8265,79.5477 L77.1265,81.9537 L76.1025,82.9337 L69.8115,76.3537 L70.8355,75.3737 L73.5225,78.1847 C73.3455,77.4537 73.6115,76.7147 74.2595,76.0947 C75.3125,75.0877 76.4235,75.1597 77.5205,76.3057" id="Fill-58" fill="#000000"></path>
                        <path d="M76.7998,73.54 L77.6668,72.436 L82.4308,76.177 L81.5638,77.28 L76.7998,73.54 Z M75.4238,73.104 L75.2988,70.147 L76.4428,70.038 L76.5678,72.994 L75.4238,73.104 Z" id="Fill-60" fill="#000000"></path>
                        <path d="M83.5166,68.8486 C82.6136,68.3326 81.5556,68.4036 80.9566,69.4526 C80.4096,70.4126 80.7926,71.3946 81.7516,71.9426 C82.7116,72.4896 83.7516,72.3196 84.2986,71.3596 C84.8986,70.3096 84.4196,69.3636 83.5166,68.8486 L83.5166,68.8486 Z M78.9126,64.6666 L86.8176,69.1736 L86.1216,70.3936 L85.4106,69.9886 C85.7546,70.6186 85.6586,71.5216 85.2916,72.1646 C84.3256,73.8586 82.5976,74.0546 81.0506,73.1726 C79.5036,72.2906 78.8446,70.6136 79.7786,68.9756 C80.1766,68.2756 80.8536,67.8236 81.5716,67.7986 L78.2176,65.8866 L78.9126,64.6666 Z" id="Fill-62" fill="#000000"></path>
                        <path d="M86.4072,61.4121 C85.3542,61.0741 84.3812,61.4311 84.0322,62.5191 C83.6822,63.6091 84.2672,64.4651 85.3192,64.8031 C86.3722,65.1401 87.3452,64.7831 87.6942,63.6941 C88.0442,62.6051 87.4592,61.7491 86.4072,61.4121 M84.8872,66.1511 C83.1922,65.6071 82.2202,64.0411 82.8312,62.1351 C83.4422,60.2291 85.1432,59.5191 86.8392,60.0621 C88.5342,60.6061 89.5062,62.1731 88.8952,64.0791 C88.2842,65.9841 86.5832,66.6941 84.8872,66.1511" id="Fill-64" fill="#000000"></path>
                        <path d="M23.8828,52.8975 C23.8828,38.5245 35.5338,26.8725 49.9078,26.8725 C64.2818,26.8725 75.9338,38.5245 75.9338,52.8975 L72.9518,52.8965 C72.9518,40.1695 62.6348,29.8525 49.9078,29.8525 C37.1818,29.8525 26.8638,40.1695 26.8638,52.8965 L23.8828,52.8975 Z" id="Fill-66" fill="#F26650"></path>
                        <path d="M73.3008,52.5449 L75.5798,52.5459 C75.3908,38.5509 63.9468,27.2239 49.9078,27.2239 C35.8688,27.2239 24.4258,38.5509 24.2368,52.5459 L26.5158,52.5449 C26.7038,39.8069 37.1248,29.5009 49.9078,29.5009 C62.6918,29.5009 73.1128,39.8069 73.3008,52.5449 M75.9338,53.2489 L75.9338,53.2489 L72.9518,53.2479 C72.7578,53.2479 72.6008,53.0909 72.6008,52.8969 C72.6008,40.3839 62.4208,30.2039 49.9078,30.2039 C37.3958,30.2039 27.2158,40.3839 27.2158,52.8969 C27.2158,53.0909 27.0588,53.2479 26.8638,53.2479 L23.8828,53.2489 C23.7898,53.2489 23.6998,53.2119 23.6348,53.1459 C23.5688,53.0799 23.5308,52.9899 23.5308,52.8979 C23.5308,38.3539 35.3638,26.5209 49.9078,26.5209 C64.4518,26.5209 76.2848,38.3539 76.2848,52.8979 C76.2848,52.9899 76.2478,53.0799 76.1818,53.1459 C76.1158,53.2119 76.0268,53.2489 75.9338,53.2489" id="Fill-68" fill="#232020"></path>
                        <path d="M26.8643,52.8965 C26.8643,40.1695 37.1813,29.8525 49.9083,29.8525 C62.6353,29.8525 72.9523,40.1695 72.9523,52.8965 L69.9703,52.8955 C69.9703,41.8155 60.9883,32.8335 49.9083,32.8335 C38.8283,32.8335 29.8453,41.8155 29.8453,52.8955 L26.8643,52.8965 Z" id="Fill-70" fill="#FFF684"></path>
                        <path d="M70.3193,52.5439 L72.5973,52.5449 C72.4093,40.1939 62.3033,30.2039 49.9083,30.2039 C37.5123,30.2039 27.4073,40.1939 27.2183,52.5449 L29.4973,52.5439 C29.6853,41.4489 38.7693,32.4819 49.9083,32.4819 C61.0473,32.4819 70.1313,41.4489 70.3193,52.5439 M72.9523,53.2479 L72.9523,53.2479 L69.9703,53.2469 C69.7763,53.2469 69.6193,53.0899 69.6193,52.8959 C69.6193,42.0259 60.7773,33.1849 49.9083,33.1849 C39.0393,33.1849 30.1973,42.0259 30.1973,52.8959 C30.1973,53.0899 30.0403,53.2469 29.8453,53.2469 L26.8643,53.2479 C26.7713,53.2479 26.6813,53.2109 26.6163,53.1449 C26.5493,53.0789 26.5123,52.9889 26.5123,52.8969 C26.5123,39.9959 37.0073,29.5009 49.9083,29.5009 C62.8083,29.5009 73.3033,39.9959 73.3033,52.8969 C73.3033,52.9889 73.2663,53.0789 73.2003,53.1449 C73.1343,53.2109 73.0453,53.2479 72.9523,53.2479" id="Fill-72" fill="#232020"></path>
                        <path d="M29.8457,52.8955 C29.8457,41.8155 38.8277,32.8335 49.9077,32.8335 C60.9887,32.8335 69.9707,41.8155 69.9707,52.8955 L66.9897,52.8945 C66.9897,43.4605 59.3417,35.8125 49.9077,35.8125 C40.4747,35.8125 32.8267,43.4605 32.8267,52.8945 L29.8457,52.8955 Z" id="Fill-74" fill="#68C184"></path>
                        <path d="M67.3369,52.543 L69.6159,52.544 C69.4279,41.837 60.6589,33.185 49.9079,33.185 C39.1569,33.185 30.3889,41.837 30.1999,52.544 L32.4799,52.543 C32.6669,43.092 40.4129,35.461 49.9079,35.461 C59.4029,35.461 67.1499,43.092 67.3369,52.543 M69.9709,53.247 L69.9709,53.247 L66.9889,53.246 C66.7949,53.246 66.6379,53.089 66.6379,52.895 C66.6379,43.669 59.1329,36.164 49.9079,36.164 C40.6839,36.164 33.1789,43.669 33.1789,52.895 C33.1789,53.089 33.0219,53.246 32.8269,53.246 L29.8459,53.247 C29.7529,53.247 29.6629,53.21 29.5979,53.144 C29.5309,53.078 29.4939,52.988 29.4939,52.896 C29.4939,41.64 38.6519,32.481 49.9079,32.481 C61.1639,32.481 70.3219,41.64 70.3219,52.896 C70.3219,52.988 70.2849,53.078 70.2189,53.144 C70.1529,53.21 70.0639,53.247 69.9709,53.247" id="Fill-76" fill="#232020"></path>
                        <path d="M32.8271,52.8945 C32.8271,43.4605 40.4741,35.8125 49.9081,35.8125 C59.3421,35.8125 66.9891,43.4605 66.9891,52.8945 L64.0081,52.8925 C64.0081,45.1055 57.6951,38.7925 49.9081,38.7925 C42.1211,38.7925 35.8081,45.1055 35.8081,52.8925 L32.8271,52.8945 Z" id="Fill-78" fill="#8F92C8"></path>
                        <path d="M64.3555,52.541 L66.6335,52.543 C66.4465,43.479 59.0155,36.164 49.9085,36.164 C40.8005,36.164 33.3705,43.479 33.1825,52.543 L35.4605,52.541 C35.6485,44.734 42.0565,38.441 49.9085,38.441 C57.7595,38.441 64.1685,44.734 64.3555,52.541 M66.9895,53.246 L66.9895,53.246 L64.0075,53.244 C63.8135,53.244 63.6565,53.087 63.6565,52.893 C63.6565,45.312 57.4895,39.145 49.9085,39.145 C42.3275,39.145 36.1605,45.312 36.1605,52.893 C36.1605,53.087 36.0025,53.244 35.8085,53.244 L32.8275,53.246 C32.7345,53.246 32.6445,53.209 32.5795,53.144 C32.5125,53.077 32.4755,52.987 32.4755,52.895 C32.4755,43.281 40.2955,35.461 49.9085,35.461 C59.5205,35.461 67.3405,43.281 67.3405,52.895 C67.3405,52.987 67.3035,53.077 67.2375,53.144 C67.1715,53.209 67.0825,53.246 66.9895,53.246" id="Fill-80" fill="#232020"></path>
                        <path d="M35.8086,52.8926 C35.8086,45.1056 42.1206,38.7926 49.9086,38.7926 C57.6956,38.7926 64.0076,45.1056 64.0076,52.8926 L61.0266,52.8916 C61.0266,46.7506 56.0486,41.7736 49.9086,41.7736 C43.7676,41.7736 38.7896,46.7506 38.7896,52.8916 L35.8086,52.8926 Z" id="Fill-82" fill="#6ACFF6"></path>
                        <path d="M61.3721,52.54 L63.6521,52.541 C63.4651,45.122 57.3711,39.144 49.9081,39.144 C42.4451,39.144 36.3511,45.122 36.1641,52.541 L38.4441,52.54 C38.6301,46.378 43.7011,41.422 49.9081,41.422 C56.1151,41.422 61.1861,46.378 61.3721,52.54 M64.0081,53.244 L64.0081,53.244 L61.0261,53.243 C60.8321,53.243 60.6751,53.086 60.6751,52.892 C60.6751,46.955 55.8451,42.125 49.9081,42.125 C43.9721,42.125 39.1421,46.955 39.1421,52.892 C39.1421,53.086 38.9841,53.243 38.7901,53.243 L35.8091,53.244 C35.7161,53.244 35.6261,53.207 35.5601,53.141 C35.4941,53.075 35.4571,52.985 35.4571,52.893 C35.4571,44.924 41.9391,38.441 49.9081,38.441 C57.8771,38.441 64.3591,44.924 64.3591,52.893 C64.3591,52.985 64.3221,53.075 64.2561,53.141 C64.1901,53.207 64.1011,53.244 64.0081,53.244" id="Fill-84" fill="#232020"></path>
                        <polygon id="Fill-86" fill="#FFF684" points="31.502 46.333 33.632 52.89 40.525 52.89 34.948 56.941 37.079 63.498 31.502 59.446 25.925 63.498 28.055 56.941 22.478 52.89 29.371 52.89"></polygon>
                        <path d="M23.5586,53.2412 L28.2606,56.6572 C28.3846,56.7472 28.4356,56.9052 28.3886,57.0502 L26.5926,62.5782 L31.2956,59.1622 C31.4186,59.0722 31.5846,59.0722 31.7076,59.1622 L36.4116,62.5782 L34.6146,57.0502 C34.5676,56.9052 34.6186,56.7472 34.7426,56.6572 L39.4446,53.2412 L33.6316,53.2412 C33.4796,53.2412 33.3446,53.1422 33.2976,52.9982 L31.5016,47.4702 L29.7046,52.9982 C29.6586,53.1422 29.5236,53.2412 29.3706,53.2412 L23.5586,53.2412 Z M37.0796,63.8492 C37.0066,63.8492 36.9346,63.8272 36.8726,63.7822 L31.5016,59.8812 L26.1306,63.7822 C26.0076,63.8722 25.8416,63.8722 25.7186,63.7822 C25.5946,63.6922 25.5436,63.5342 25.5906,63.3892 L27.6416,57.0752 L22.2716,53.1742 C22.1476,53.0842 22.0966,52.9262 22.1436,52.7812 C22.1906,52.6372 22.3256,52.5382 22.4776,52.5382 L29.1166,52.5382 L31.1676,46.2242 C31.2146,46.0802 31.3496,45.9812 31.5016,45.9812 C31.6546,45.9812 31.7886,46.0802 31.8356,46.2242 L33.8866,52.5382 L40.5256,52.5382 C40.6776,52.5382 40.8126,52.6372 40.8596,52.7812 C40.9066,52.9262 40.8556,53.0842 40.7316,53.1742 L35.3616,57.0752 L37.4126,63.3892 C37.4596,63.5342 37.4096,63.6922 37.2866,63.7822 C37.2236,63.8272 37.1516,63.8492 37.0796,63.8492 L37.0796,63.8492 Z" id="Fill-88" fill="#232020"></path>
                        <polygon id="Fill-90" fill="#FFF684" points="68.4531 46.333 70.5841 52.89 77.4771 52.89 71.9001 56.941 74.0301 63.498 68.4531 59.446 62.8761 63.498 65.0071 56.941 59.4291 52.89 66.3231 52.89"></polygon>
                        <path d="M68.4531,59.0947 C68.5251,59.0947 68.5981,59.1167 68.6591,59.1617 L73.3621,62.5777 L71.5661,57.0497 C71.5191,56.9057 71.5701,56.7467 71.6941,56.6567 L76.3961,53.2407 L70.5841,53.2407 C70.4321,53.2407 70.2971,53.1427 70.2501,52.9977 L68.4531,47.4697 L66.6571,52.9977 C66.6101,53.1427 66.4751,53.2407 66.3231,53.2407 L60.5111,53.2407 L65.2131,56.6567 C65.3371,56.7467 65.3881,56.9057 65.3411,57.0497 L63.5441,62.5777 L68.2471,59.1617 C68.3081,59.1167 68.3811,59.0947 68.4531,59.0947 M62.8761,63.8497 C62.8041,63.8497 62.7311,63.8267 62.6691,63.7817 C62.5461,63.6927 62.4951,63.5337 62.5421,63.3897 L64.5941,57.0747 L59.2231,53.1737 C59.0991,53.0847 59.0481,52.9257 59.0951,52.7817 C59.1411,52.6367 59.2761,52.5377 59.4291,52.5377 L66.0681,52.5377 L68.1191,46.2247 C68.2131,45.9357 68.6931,45.9357 68.7871,46.2247 L70.8391,52.5377 L77.4771,52.5377 C77.6301,52.5377 77.7651,52.6367 77.8111,52.7817 C77.8581,52.9257 77.8071,53.0837 77.6831,53.1737 L72.3131,57.0747 L74.3641,63.3897 C74.4111,63.5337 74.3601,63.6927 74.2361,63.7817 C74.1131,63.8717 73.9471,63.8717 73.8241,63.7817 L68.4531,59.8807 L63.0821,63.7817 C63.0201,63.8267 62.9481,63.8497 62.8761,63.8497" id="Fill-92" fill="#232020"></path>
                    </g>
                </g>
            </g>
        </g>
    </g>
</svg>