<?xml version="1.0" encoding="UTF-8"?>
<svg width="98px" height="100px" viewBox="0 0 98 100" version="1.1" xmlns="http://www.w3.org/2000/svg" xmlns:xlink="http://www.w3.org/1999/xlink">
    <!-- Generator: Sketch 57.1 (83088) - https://sketch.com -->
    <title>Biodegradable</title>
    <desc>Created with Sketch.</desc>
    <g id="Page-1" stroke="none" stroke-width="1" fill="none" fill-rule="evenodd">
        <g id="Home" transform="translate(-93.000000, -4004.000000)">
            <g id="no-contiene" transform="translate(0.000000, 3701.000000)">
                <g id="stickers" transform="translate(71.000000, 20.000000)">
                    <g id="Biodegradable" transform="translate(22.511369, 283.774197)">
                        <path d="M8.58923074,37.3507033 C10.3882307,37.8127033 10.5102307,37.5297033 10.6332307,37.0487033 C10.8602307,36.1647033 10.3352307,35.7007033 9.52923074,35.4937033 C8.58323074,35.2497033 7.67523074,35.3137033 7.39623074,36.3997033 C7.27323074,36.8797033 7.49223074,37.0517033 7.81523074,37.1517033 L8.58923074,37.3507033 Z M4.80723074,36.3777033 C5.41123074,36.5347033 5.69723074,36.6407033 5.82123074,36.1607033 C6.06123074,35.2297033 5.46523074,34.8457033 4.61223074,34.6257033 C3.91423074,34.4477033 2.98623074,34.4567033 2.76823074,35.3097033 C2.62023074,35.8827033 3.10223074,35.9407033 3.55123074,36.0557033 L4.80723074,36.3777033 Z M6.64823074,32.0417033 C6.73523074,32.2137033 6.79323074,32.3767033 6.99423074,32.4287033 C7.19623074,32.4807033 7.30223074,32.3267033 7.41923074,32.1917033 C7.83023074,31.6197033 8.93523074,30.7297033 10.2372307,31.0637033 C11.7872307,31.4617033 13.4282307,32.9917033 12.6272307,36.1067033 C12.4912307,36.6337033 12.3532307,37.1107033 12.2022307,37.5677033 C12.0682307,38.0287033 11.9332307,38.4907033 11.8092307,38.9707033 C11.6732307,39.4967033 11.5502307,40.0437033 11.4302307,40.5757033 C11.3252307,41.1107033 11.2052307,41.6417033 11.0662307,42.1837033 C10.9432307,42.6647033 10.5242307,43.1357033 9.98223074,42.9967033 C9.02123074,42.7487033 10.2562307,41.9927033 7.70623074,41.2387033 L3.28523074,39.9207033 C0.968230739,39.2267033 1.69523074,40.8337033 0.625230739,40.5597033 C0.0362307387,40.4087033 -0.0787692613,39.7017033 0.0442307387,39.2207033 C0.192230739,38.6467033 0.370230739,38.0807033 0.532230739,37.5117033 C0.711230739,36.9467033 0.890230739,36.3797033 1.03723074,35.8067033 C1.13223074,35.4347033 1.19323074,35.0707033 1.25423074,34.7047033 C1.32923074,34.3447033 1.39523074,33.9647033 1.48523074,33.6087033 C2.21523074,30.7717033 3.75023074,30.3887033 4.94423074,30.6967033 C5.65723074,30.8787033 6.34223074,31.3697033 6.64823074,32.0417033 L6.64823074,32.0417033 Z" id="Fill-294" fill="#F26650"></path>
                        <path d="M13.3607307,26.6886033 C15.0427307,27.5456033 14.8587307,26.3926033 15.6137307,26.7776033 C16.5837307,27.2716033 15.6607307,29.0816033 15.3337307,29.7226033 C14.0847307,32.1736033 13.4777307,31.9906033 13.1357307,31.8166033 C12.6227307,31.5546033 12.8917307,30.9566033 12.5377307,30.5596033 C12.1327307,30.1206033 10.0807307,29.0386033 9.47373074,28.9266033 C8.90973074,28.8006033 8.69573074,29.6076033 8.05373074,29.2806033 C7.04273074,28.7646033 8.46073074,24.9266033 8.53273074,24.7846033 C8.75073074,24.3566033 9.08573074,24.5096033 9.38473074,24.6626033 L13.3607307,26.6886033 Z M6.86373074,26.9316033 C6.55873074,27.5306033 5.96173074,28.0346033 5.26173074,27.6776033 C4.32173074,27.1986033 4.89573074,25.1216033 5.26573074,24.3946033 C5.55673074,23.8246033 6.15573074,23.1066033 6.86873074,23.4696033 C7.97973074,24.0366033 7.27773074,26.1196033 6.86373074,26.9316033 L6.86373074,26.9316033 Z" id="Fill-295" fill="#F26650"></path>
                        <path d="M14.0394307,19.7511033 C13.7144307,20.1661033 13.9264307,20.6981033 14.3104307,20.9601033 C15.1434307,21.5311033 17.2604307,22.8251033 17.9914307,21.9961033 C18.3924307,21.5371033 18.0674307,21.1211033 17.6654307,20.8051033 C17.0994307,20.3601033 14.7114307,18.8951033 14.0394307,19.7511033 M13.3244307,24.8621033 C11.0714307,23.0951033 11.3504307,20.1211033 12.9784307,18.0441033 C14.7064307,15.8411033 17.4184307,15.9351033 18.9784307,17.1591033 C21.0434307,18.7781033 20.5644307,21.9811033 19.1134307,23.8311033 C17.6524307,25.6941033 15.3134307,26.4221033 13.3244307,24.8621033" id="Fill-296" fill="#F26650"></path>
                        <path d="M22.2396307,11.3946033 C21.3876307,12.0456033 22.3536307,13.6236033 22.8106307,14.2216033 C23.2666307,14.8186033 24.2176307,15.7446033 25.0056307,15.1416033 C25.8566307,14.4906033 24.6096307,12.9656033 24.1826307,12.4066033 C23.8026307,11.9116033 22.9766307,10.8306033 22.2396307,11.3946033 L22.2396307,11.3946033 Z M28.0516307,11.6436033 C28.7316307,12.5346033 29.1806307,11.7266033 29.6866307,12.3866033 C30.4256307,13.3536033 27.6906307,15.5446033 27.5516307,15.6526033 C26.9026307,16.1486033 26.8256307,15.0986033 26.4056307,15.4196033 C26.2916307,15.5066033 26.2366307,15.8316033 26.0906307,16.2456033 C25.9336307,16.6466033 25.6856307,17.1386033 25.1266307,17.5666033 C23.4616307,18.8396033 20.8136307,18.0646033 19.6186307,16.5006033 C18.3256307,14.8106033 18.4346307,12.1086033 20.1886307,10.7666033 C21.0656307,10.0966033 21.8536307,10.0986033 21.9936307,9.99160333 C22.1836307,9.84560333 21.8766307,9.41660333 21.7686307,9.27660333 C21.1666307,8.48860333 20.5586307,9.61860333 20.0346307,8.93160333 C19.3146307,7.99160333 22.3716307,5.27060333 22.4096307,5.24160333 C22.7916307,4.95060333 23.0846307,5.14860333 23.4046307,5.56860333 L28.0516307,11.6436033 Z" id="Fill-297" fill="#F26650"></path>
                        <path d="M32.8724307,6.13190333 C32.6414307,5.60490333 32.1394307,5.33590333 31.5974307,5.57290333 C31.1134307,5.78490333 30.9364307,6.45690333 31.1424307,6.92590333 C31.3734307,7.45290333 31.8194307,7.11690333 32.2004307,6.94990333 C32.5964307,6.77790333 33.1034307,6.65890333 32.8724307,6.13190333 L32.8724307,6.13190333 Z M32.4074307,8.53590333 C32.2464307,8.60790333 31.9924307,8.66590333 32.1014307,8.91490333 C32.4234307,9.64790333 33.6444307,9.84490333 34.3334307,9.54290333 C35.4324307,9.06190333 35.6854307,8.16390333 35.9924307,8.02890333 C36.3004307,7.89490333 36.7634307,8.23390333 36.8854307,8.51190333 C37.3794307,9.63990333 35.6744307,11.3649033 34.3554307,11.9439033 C31.7194307,13.0999033 29.5214307,11.7929033 28.6924307,9.90290333 C27.7034307,7.64790333 28.9024307,5.16490333 31.1004307,4.20190333 C33.5904307,3.10990333 35.5304307,4.54690333 36.0124307,5.64590333 C36.4364307,6.61190333 36.0554307,6.93690333 35.5864307,7.14290333 L32.4074307,8.53590333 Z" id="Fill-298" fill="#F26650"></path>
                        <path d="M42.3343307,11.1652033 C42.8533307,11.0662033 44.0173307,10.7652033 43.8803307,10.0422033 C43.8173307,9.71220333 43.4773307,9.63020333 43.1783307,9.68620333 C42.9423307,9.73120333 42.3473307,9.94120333 41.8443307,10.0372033 C41.4823307,10.1052033 40.6103307,10.1412033 40.4383307,10.1732033 C40.2963307,10.1992033 40.2753307,10.3502033 40.2963307,10.4602033 C40.4543307,11.2932033 41.7223307,11.2812033 42.3343307,11.1652033 M40.7953307,2.51920333 C40.1833307,2.63520333 40.0253307,3.26720333 40.1293307,3.81720333 C40.2423307,4.41420333 40.6473307,5.68820333 41.4483307,5.53720333 C42.1553307,5.40320333 42.2753307,4.74620333 42.1593307,4.13320333 C42.0373307,3.48820333 41.6753307,2.35220333 40.7953307,2.51920333 M42.4333307,12.5462033 C39.5253307,13.0972033 38.2173307,12.2052033 38.0263307,11.1992033 C37.8553307,10.2872033 38.7163307,10.1082033 38.6713307,9.87220333 C38.6323307,9.66820333 37.7003307,9.38920333 37.5693307,8.69720333 C37.3583307,7.58120333 38.5683307,7.01020333 38.5273307,6.79020333 C38.4913307,6.60220333 37.2853307,6.08120333 37.0653307,4.91820333 C36.7053307,3.01720333 38.9123307,1.68620333 40.4993307,1.38720333 C41.3013307,1.23420333 42.4413307,1.32820333 42.9923307,1.22420333 C44.1873307,0.997203334 44.6263307,0.0522033343 44.8613307,0.00720333431 C45.2243307,-0.0617966657 45.4703307,0.380203334 45.5263307,0.679203334 C45.6923307,1.55920333 44.9323307,2.35420333 44.9653307,2.52720333 C44.9943307,2.68520333 45.0743307,2.84920333 45.1043307,3.00520333 C45.5063307,5.12720333 43.1753307,6.31720333 41.4463307,6.64420333 C41.1793307,6.69520333 40.9023307,6.69820333 40.6203307,6.75220333 C40.3533307,6.80320333 40.2293307,7.00520333 40.2753307,7.25720333 C40.3683307,7.74420333 41.0773307,7.70720333 41.4383307,7.63920333 C41.9263307,7.54720333 43.6983307,6.93520333 44.3273307,6.81520333 C45.9623307,6.50620333 46.8293307,7.30220333 47.0083307,8.24520333 C47.2753307,9.66020333 46.2833307,11.8172033 42.4333307,12.5462033" id="Fill-299" fill="#F26650"></path>
                        <path d="M47.9613307,3.64070333 C48.0193307,2.07370333 46.9953307,2.91670333 47.0303307,1.94170333 C47.0763307,0.677703334 50.8313307,0.461703334 50.9753307,0.466703334 C51.5823307,0.489703334 51.5933307,0.649703334 51.6373307,1.19570333 C51.6463307,1.38770333 51.6163307,1.75470333 51.8893307,1.76570333 C52.2733307,1.77970333 52.5583307,0.524703334 53.9333307,0.574703334 C55.0043307,0.613703334 55.6793307,1.43870333 55.6413307,2.49470333 C55.6023307,3.56570333 54.6593307,4.37970333 53.6053307,4.34070333 C52.5653307,4.30370333 52.3103307,3.38170333 51.8953307,3.36670333 C51.4463307,3.35070333 51.4873307,4.42470333 51.4783307,4.71270333 C51.4603307,5.19270333 51.4833307,5.86570333 51.5413307,6.47670333 C51.6113307,7.18370333 52.8433307,6.79570333 52.8083307,7.75470333 C52.7723307,8.76270333 51.3613307,8.79070333 49.6033307,8.72770333 C48.8663307,8.70170333 46.6903307,8.65470333 46.7313307,7.55070333 C46.7553307,6.87870333 47.4903307,6.90570333 47.6873307,6.35270333 C47.8293307,5.95670333 47.9103307,5.04770333 47.9273307,4.59970333 L47.9613307,3.64070333 Z" id="Fill-300" fill="#F26650"></path>
                        <path d="M59.0208307,7.23250333 C58.9138307,7.63350333 59.0148307,8.12450333 59.4628307,8.24450333 C60.0498307,8.40050333 60.2658307,7.77950333 60.3888307,7.31550333 C60.4798307,6.97550333 60.5988307,6.59250333 60.1658307,6.47750333 C59.6398307,6.33750333 59.1528307,6.73750333 59.0208307,7.23250333 L59.0208307,7.23250333 Z M64.0208307,7.10750333 C63.2948307,9.82850333 64.6188307,8.59150333 64.3958307,9.42550333 C64.1618307,10.3075033 62.7008307,10.9445033 61.5718307,10.6435033 C60.3508307,10.3185033 60.5298307,9.52150333 60.1428307,9.41850333 C59.9578307,9.36950333 59.7038307,9.51650333 59.3138307,9.61150333 C58.9198307,9.72150333 58.4028307,9.79850333 57.6918307,9.60950333 C56.4098307,9.26750333 55.3068307,8.24550333 55.7148307,6.71450333 C56.0078307,5.61750333 57.4208307,4.53750333 60.1418307,5.26250333 C60.6218307,5.39050333 60.8298307,5.47850333 60.9778307,4.92250333 C61.1138307,4.41250333 61.3818307,3.34150333 60.6708307,3.15250333 C59.7438307,2.90550333 59.2068307,4.54950333 57.8308307,4.18250333 C57.3358307,4.05050333 57.0598307,3.59650333 57.1918307,3.10250333 C57.5418307,1.78850333 60.3798307,1.63450333 61.8488307,2.02550333 C62.7298307,2.26050333 65.0498307,3.24350333 64.4328307,5.56150333 L64.0208307,7.10750333 Z" id="Fill-301" fill="#F26650"></path>
                        <path d="M71.4984307,7.81460333 C70.5614307,7.29360333 69.4994307,8.80660333 69.1334307,9.46360333 C68.7684307,10.1206033 68.2974307,11.3606033 69.1634307,11.8426033 C70.1004307,12.3646033 71.0014307,10.6136033 71.3444307,9.99960333 C71.6474307,9.45360333 72.3094307,8.26560333 71.4984307,7.81460333 L71.4984307,7.81460333 Z M73.5844307,13.2426033 C73.0394307,14.2206033 73.9594307,14.3116033 73.5554307,15.0386033 C72.9634307,16.1006033 69.8634307,14.4656033 69.7104307,14.3806033 C68.9974307,13.9836033 69.9284307,13.4956033 69.4674307,13.2386033 C69.3414307,13.1686033 69.0224307,13.2476033 68.5844307,13.2776033 C68.1534307,13.2946033 67.6034307,13.2626033 66.9884307,12.9206033 C65.1574307,11.9016033 64.8134307,9.16460333 65.7704307,7.44560333 C66.8064307,5.58560333 69.3274307,4.60960333 71.2564307,5.68360333 C72.2214307,6.22060333 72.5324307,6.94360333 72.6854307,7.02960333 C72.8954307,7.14560333 73.1664307,6.69260333 73.2524307,6.53860333 C73.7344307,5.67160333 72.4574307,5.56560333 72.8774307,4.81060333 C73.4534307,3.77660333 77.1654307,5.49560333 77.2074307,5.51860333 C77.6264307,5.75160333 77.5604307,6.09960333 77.3044307,6.56060333 L73.5844307,13.2426033 Z" id="Fill-302" fill="#F26650"></path>
                        <path d="M76.8411307,16.4737033 C76.5561307,16.7767033 76.4121307,17.2567033 76.7501307,17.5747033 C77.1941307,17.9907033 77.6781307,17.5457033 78.0061307,17.1957033 C78.2471307,16.9397033 78.5331307,16.6597033 78.2061307,16.3517033 C77.8101307,15.9797033 77.1921307,16.1007033 76.8411307,16.4737033 L76.8411307,16.4737033 Z M81.3021307,18.7347033 C79.3741307,20.7857033 81.1251307,20.3247033 80.5331307,20.9537033 C79.9091307,21.6187033 78.3201307,21.4867033 77.4701307,20.6867033 C76.5491307,19.8217033 77.0841307,19.2047033 76.7931307,18.9307033 C76.6531307,18.7997033 76.3591307,18.8087033 75.9711307,18.7077033 C75.5721307,18.6187033 75.0801307,18.4417033 74.5431307,17.9367033 C73.5761307,17.0277033 73.0901307,15.6057033 74.1751307,14.4517033 C74.9531307,13.6237033 76.7101307,13.3427033 78.7621307,15.2707033 C79.1231307,15.6107033 79.2641307,15.7867033 79.6581307,15.3677033 C80.0201307,14.9827033 80.7651307,14.1677033 80.2281307,13.6627033 C79.5291307,13.0057033 78.2761307,14.1997033 77.2381307,13.2247033 C76.8651307,12.8737033 76.8371307,12.3427033 77.1881307,11.9697033 C78.1191307,10.9787033 80.6921307,12.1897033 81.7991307,13.2307033 C82.4641307,13.8547033 84.0411307,15.8207033 82.3981307,17.5687033 L81.3021307,18.7347033 Z" id="Fill-303" fill="#F26650"></path>
                        <path d="M86.9652307,23.3146033 C86.5822307,22.7226033 86.0552307,22.9676033 85.5982307,23.2626033 C82.9902307,24.9476033 82.8702307,25.2346033 83.2182307,25.7726033 C83.7912307,26.6596033 84.8952307,26.1566033 85.5802307,25.7126033 C86.2122307,25.3046033 87.5372307,24.2016033 86.9652307,23.3146033 L86.9652307,23.3146033 Z M87.9742307,21.6906033 C87.9062307,21.7346033 87.7502307,21.8166033 87.8192307,21.9236033 C87.8622307,21.9916033 88.2172307,22.0676033 88.6442307,22.2866033 C89.0852307,22.4976033 89.5902307,22.8366033 89.9732307,23.4286033 C90.8932307,24.8536033 90.4782307,26.8366033 88.7032307,27.9826033 C86.4042307,29.4666033 83.5052307,28.9016033 82.0122307,26.5886033 C80.9182307,24.8956033 81.2792307,23.5386033 81.1412307,23.3226033 C81.0022307,23.1076033 80.6612307,23.0226033 80.3742307,22.5796033 C80.2532307,22.3906033 80.1682307,22.1406033 80.3832307,22.0026033 C80.5982307,21.8636033 81.2022307,21.8546033 82.9492307,20.7256033 L86.5262307,18.4166033 C87.3052307,17.9126033 86.3042307,17.1296033 87.0702307,16.6346033 C87.9712307,16.0536033 90.2612307,18.2706033 90.9822307,19.3866033 C91.2162307,19.7496033 90.9252307,19.9186033 90.6202307,20.0956033 L87.9742307,21.6906033 Z" id="Fill-304" fill="#F26650"></path>
                        <path d="M89.0072307,34.0157033 C88.7382307,34.1197033 88.2392307,34.2957033 88.0292307,34.4627033 C87.5562307,34.8347033 88.0702307,35.4087033 87.4442307,35.6517033 C86.4442307,36.0387033 85.8132307,34.1897033 85.5642307,33.5477033 C85.3042307,32.8757033 84.4192307,30.8157033 85.4792307,30.4057033 C86.0012307,30.2027033 86.0562307,30.9197033 86.6782307,30.8847033 C87.3642307,30.8417033 89.2302307,30.1187033 89.9612307,29.8347033 C90.5432307,29.6097033 91.6742307,29.2057033 92.2932307,28.8117033 C93.3112307,28.1597033 92.5822307,27.4297033 93.4332307,27.0997033 C94.7312307,26.5967033 96.5482307,30.3557033 96.6292307,30.5647033 C96.8252307,31.0717033 96.5432307,31.3187033 96.0962307,31.4917033 C95.7522307,31.6247033 94.0352307,32.0667033 91.9022307,32.8937033 L89.0072307,34.0157033 Z" id="Fill-305" fill="#F26650"></path>
                        <path d="M93.3753307,40.0392033 C93.9403307,39.9312033 94.3143307,39.5022033 94.2043307,38.9202033 C94.1053307,38.4012033 93.4903307,38.0792033 92.9873307,38.1752033 C92.4223307,38.2822033 92.6483307,38.7932033 92.7273307,39.2012033 C92.8083307,39.6262033 92.8093307,40.1462033 93.3753307,40.0392033 L93.3753307,40.0392033 Z M91.1343307,39.0482033 C91.1023307,38.8752033 91.1013307,38.6152033 90.8333307,38.6662033 C90.0483307,38.8152033 89.5823307,39.9632033 89.7233307,40.7012033 C89.9463307,41.8802033 90.7653307,42.3272033 90.8273307,42.6572033 C90.8913307,42.9872033 90.4573307,43.3622033 90.1583307,43.4192033 C88.9483307,43.6492033 87.6463307,41.6012033 87.3773307,40.1862033 C86.8393307,37.3572033 88.6043307,35.5072033 90.6313307,35.1212033 C93.0523307,34.6612033 95.2033307,36.3852033 95.6523307,38.7422033 C96.1603307,41.4142033 94.3263307,42.9842033 93.1473307,43.2092033 C92.1103307,43.4062033 91.8793307,42.9622033 91.7833307,42.4592033 L91.1343307,39.0482033 Z" id="Fill-306" fill="#F26650"></path>
                        <path d="M9.86263074,59.3468033 C9.26863074,59.5378033 8.96863074,59.6008033 9.12163074,60.0738033 C9.41663074,60.9868033 10.1246307,60.9928033 10.9626307,60.7238033 C11.6476307,60.5018033 12.4266307,59.9988033 12.1566307,59.1608033 C11.9746307,58.5978033 11.5376307,58.8058033 11.0956307,58.9488033 L9.86263074,59.3468033 Z M6.14663074,60.5448033 C4.38063074,61.1158033 4.42763074,61.4188033 4.58063074,61.8918033 C4.85963074,62.7598033 5.55163074,62.8718033 6.34363074,62.6178033 C7.27263074,62.3178033 8.00763074,61.7778033 7.66363074,60.7118033 C7.51063074,60.2398033 7.23263074,60.2118033 6.90763074,60.2998033 L6.14663074,60.5448033 Z M10.6226307,63.9938033 C10.4566307,63.8968033 10.3206307,63.7888033 10.1226307,63.8528033 C9.92463074,63.9168033 9.91763074,64.1038033 9.89063074,64.2808033 C9.84763074,64.9838033 9.38963074,66.3258033 8.11063074,66.7388033 C6.58863074,67.2298033 4.38563074,66.8138033 3.39863074,63.7518033 C3.23063074,63.2348033 3.09363074,62.7578033 2.97663074,62.2908033 C2.84463074,61.8288033 2.71363074,61.3678033 2.56063074,60.8958033 C2.39363074,60.3778033 2.20663074,59.8498033 2.02363074,59.3368033 C1.82663074,58.8288033 1.64363074,58.3158033 1.47163074,57.7838033 C1.31963074,57.3108033 1.42263074,56.6898033 1.95563074,56.5178033 C2.89863074,56.2128033 2.25863074,57.5118033 4.81663074,56.7878033 L9.25663074,55.5398033 C11.5856307,54.8898033 10.1116307,53.9188033 11.1626307,53.5798033 C11.7416307,53.3938033 12.2166307,53.9298033 12.3696307,54.4018033 C12.5506307,54.9648033 12.7026307,55.5378033 12.8696307,56.1068033 C13.0206307,56.6798033 13.1716307,57.2528033 13.3536307,57.8168033 C13.4706307,58.1818033 13.6146307,58.5228033 13.7586307,58.8638033 C13.8866307,59.2078033 14.0346307,59.5638033 14.1476307,59.9138033 C15.0476307,62.7008033 13.9536307,63.8438033 12.7806307,64.2228033 C12.0806307,64.4488033 11.2406307,64.3998033 10.6226307,63.9938033 L10.6226307,63.9938033 Z" id="Fill-307" fill="#F26650"></path>
                        <path d="M13.9554307,66.1114033 C13.6224307,65.5284033 13.5274307,64.7534033 14.2084307,64.3634033 C15.1244307,63.8394033 16.5494307,65.4574033 16.9544307,66.1654033 C17.2724307,66.7204033 17.5454307,67.6154033 16.8514307,68.0124033 C15.7674307,68.6324033 14.4084307,66.9034033 13.9554307,66.1114033 L13.9554307,66.1114033 Z M10.6014307,71.6834033 C8.96243074,72.6214033 10.0274307,73.0984033 9.29243074,73.5204033 C8.34843074,74.0604033 7.33843074,72.2974033 6.98043074,71.6734033 C5.61343074,69.2844033 6.09943074,68.8774033 6.43243074,68.6864033 C6.93243074,68.3994033 7.28643074,68.9534033 7.81143074,68.8734033 C8.40043074,68.7754033 10.4304307,67.6504033 10.8564307,67.2044033 C11.2704307,66.8004033 10.7134307,66.1794033 11.3384307,65.8224033 C12.3234307,65.2574033 14.7594307,68.5464033 14.8394307,68.6844033 C15.0774307,69.1014033 14.7664307,69.2994033 14.4754307,69.4654033 L10.6014307,71.6834033 Z" id="Fill-308" fill="#F26650"></path>
                        <path d="M16.8363307,74.5470033 C16.4943307,74.1450033 15.9303307,74.2450033 15.5963307,74.5690033 C14.8683307,75.2710033 13.1753307,77.0830033 13.8403307,77.9670033 C14.2093307,78.4510033 14.6823307,78.2180033 15.0723307,77.8870033 C15.6223307,77.4210033 17.5393307,75.3770033 16.8363307,74.5470033 M11.9723307,72.8180033 C14.1563307,70.9660033 17.0143307,71.8370033 18.7213307,73.8520033 C20.5313307,75.9870033 19.8943307,78.6250033 18.3803307,79.9080033 C16.3783307,81.6050033 13.3363307,80.4910033 11.8153307,78.6960033 C10.2843307,76.8900033 10.0433307,74.4520033 11.9723307,72.8180033" id="Fill-309" fill="#F26650"></path>
                        <path d="M24.6839307,81.6818033 C23.8159307,81.0528033 22.5809307,82.4298033 22.1399307,83.0388033 C21.6989307,83.6478033 21.0849307,84.8228033 21.8879307,85.4048033 C22.7559307,86.0338033 23.8589307,84.4028033 24.2719307,83.8318033 C24.6369307,83.3278033 25.4349307,82.2258033 24.6839307,81.6818033 L24.6839307,81.6818033 Z M26.1119307,87.3188033 C25.4549307,88.2258033 26.3569307,88.4248033 25.8699307,89.0988033 C25.1559307,90.0828033 22.2719307,88.0928033 22.1289307,87.9898033 C21.4689307,87.5108033 22.4519307,87.1358033 22.0239307,86.8268033 C21.9079307,86.7428033 21.5809307,86.7828033 21.1429307,86.7608033 C20.7129307,86.7268033 20.1709307,86.6298033 19.6009307,86.2168033 C17.9039307,84.9878033 17.8869307,82.2298033 19.0409307,80.6358033 C20.2889307,78.9128033 22.9089307,78.2428033 24.6959307,79.5378033 C25.5899307,80.1858033 25.8139307,80.9398033 25.9559307,81.0428033 C26.1509307,81.1838033 26.4729307,80.7658033 26.5769307,80.6228033 C27.1589307,79.8208033 25.9029307,79.5628033 26.4099307,78.8638033 C27.1039307,77.9048033 30.5849307,80.0508033 30.6239307,80.0788033 C31.0129307,80.3608033 30.9069307,80.6988033 30.5969307,81.1258033 L26.1119307,87.3188033 Z" id="Fill-310" fill="#F26650"></path>
                        <path d="M33.8929307,87.5548033 C34.1169307,87.0238033 33.9659307,86.4748033 33.4199307,86.2448033 C32.9339307,86.0398033 32.3249307,86.3728033 32.1259307,86.8448033 C31.9029307,87.3758033 32.4539307,87.4688033 32.8359307,87.6298033 C33.2349307,87.7978033 33.6689307,88.0848033 33.8929307,87.5548033 L33.8929307,87.5548033 Z M31.8279307,88.8708033 C31.6649307,88.8028033 31.4489307,88.6588033 31.3429307,88.9098033 C31.0329307,89.6478033 31.7299307,90.6698033 32.4219307,90.9618033 C33.5279307,91.4278033 34.3529307,90.9938033 34.6629307,91.1238033 C34.9719307,91.2548033 35.0439307,91.8238033 34.9259307,92.1038033 C34.4489307,93.2388033 32.0219307,93.1888033 30.6959307,92.6298033 C28.0419307,91.5118033 27.4789307,89.0178033 28.2799307,87.1168033 C29.2369307,84.8468033 31.8629307,84.0088033 34.0739307,84.9408033 C36.5799307,85.9958033 36.8719307,88.3938033 36.4059307,89.4988033 C35.9969307,90.4718033 35.4969307,90.4178033 35.0259307,90.2188033 L31.8279307,88.8708033 Z" id="Fill-311" fill="#F26650"></path>
                        <path d="M41.5833307,88.4972033 C40.9693307,88.3842033 40.5943307,88.9162033 40.4923307,89.4672033 C40.3813307,90.0642033 40.2973307,91.3992033 41.0993307,91.5482033 C41.8073307,91.6802033 42.1563307,91.1092033 42.2703307,90.4962033 C42.3903307,89.8512033 42.4643307,88.6602033 41.5833307,88.4972033 M39.8893307,97.1162033 C40.4073307,97.2132033 41.6023307,97.3522033 41.7363307,96.6292033 C41.7973307,96.2992033 41.5093307,96.0992033 41.2103307,96.0442033 C40.9743307,96.0002033 40.3433307,95.9802033 39.8403307,95.8882033 C39.4783307,95.8202033 38.6513307,95.5372033 38.4793307,95.5052033 C38.3373307,95.4782033 38.2643307,95.6112033 38.2433307,95.7222033 C38.0893307,96.5562033 39.2743307,97.0032033 39.8893307,97.1162033 M39.4803307,98.4402033 C36.5703307,97.9012033 35.6733307,96.5962033 35.8593307,95.5892033 C36.0283307,94.6772033 36.8963307,94.8212033 36.9403307,94.5852033 C36.9793307,94.3812033 36.2103307,93.7832033 36.3383307,93.0912033 C36.5453307,91.9742033 37.8813307,91.8802033 37.9223307,91.6592033 C37.9563307,91.4712033 37.0213307,90.5492033 37.2363307,89.3852033 C37.5893307,87.4802033 40.1283307,87.0402033 41.7173307,87.3342033 C42.5203307,87.4832033 43.5493307,87.9832033 44.1003307,88.0852033 C45.2963307,88.3072033 46.0483307,87.5832033 46.2843307,87.6272033 C46.6453307,87.6942033 46.7163307,88.1952033 46.6603307,88.4942033 C46.4973307,89.3752033 45.4993307,89.8412033 45.4673307,90.0152033 C45.4383307,90.1722033 45.4533307,90.3532033 45.4243307,90.5112033 C45.0303307,92.6352033 42.4273307,92.9002033 40.6963307,92.5802033 C40.4293307,92.5302033 40.1703307,92.4342033 39.8873307,92.3812033 C39.6193307,92.3322033 39.4303307,92.4762033 39.3843307,92.7272033 C39.2933307,93.2152033 39.9683307,93.4372033 40.3303307,93.5052033 C40.8173307,93.5952033 42.6913307,93.6662033 43.3213307,93.7822033 C44.9573307,94.0852033 45.4783307,95.1422033 45.3033307,96.0862033 C45.0403307,97.5022033 43.3353307,99.1542033 39.4803307,98.4402033" id="Fill-312" fill="#F26650"></path>
                        <path d="M47.6693307,91.3995033 C47.6233307,89.8325033 46.6573307,90.7415033 46.6293307,89.7655033 C46.5913307,88.5025033 50.3223307,88.0395033 50.4673307,88.0355033 C51.0743307,88.0175033 51.0953307,88.1765033 51.1753307,88.7185033 C51.1963307,88.9105033 51.1913307,89.2785033 51.4643307,89.2705033 C51.8483307,89.2585033 52.0503307,87.9885033 53.4253307,87.9475033 C54.4963307,87.9165033 55.2243307,88.6945033 55.2553307,89.7505033 C55.2863307,90.8215033 54.4003307,91.6965033 53.3453307,91.7275033 C52.3063307,91.7575033 51.9903307,90.8555033 51.5753307,90.8675033 C51.1273307,90.8805033 51.2383307,91.9495033 51.2473307,92.2375033 C51.2623307,92.7165033 51.3293307,93.3875033 51.4273307,93.9935033 C51.5443307,94.6935033 52.7463307,94.2255033 52.7743307,95.1855033 C52.8053307,96.1925033 51.3993307,96.3145033 49.6413307,96.3665033 C48.9053307,96.3875033 46.7323307,96.4845033 46.6983307,95.3805033 C46.6793307,94.7095033 47.4143307,94.6875033 47.5733307,94.1235033 C47.6903307,93.7185033 47.7113307,92.8065033 47.6973307,92.3585033 L47.6693307,91.3995033 Z" id="Fill-313" fill="#F26650"></path>
                        <path d="M59.5609307,92.7042033 C59.6599307,93.1082033 59.9839307,93.4892033 60.4339307,93.3792033 C61.0249307,93.2332033 60.9149307,92.5862033 60.7999307,92.1192033 C60.7159307,91.7782033 60.6369307,91.3862033 60.2019307,91.4922033 C59.6729307,91.6222033 59.4389307,92.2072033 59.5609307,92.7042033 L59.5609307,92.7042033 Z M63.8849307,90.1922033 C64.5559307,92.9272033 65.1229307,91.2062033 65.3289307,92.0452033 C65.5449307,92.9312033 64.5709307,94.1912033 63.4369307,94.4702033 C62.2089307,94.7712033 61.9839307,93.9862033 61.5949307,94.0822033 C61.4089307,94.1282033 61.2559307,94.3792033 60.9599307,94.6492033 C60.6679307,94.9352033 60.2519307,95.2522033 59.5379307,95.4282033 C58.2489307,95.7442033 56.7909307,95.3772033 56.4139307,93.8392033 C56.1429307,92.7362033 56.8639307,91.1102033 59.5969307,90.4382033 C60.0789307,90.3202033 60.3039307,90.2982033 60.1659307,89.7392033 C60.0399307,89.2262033 59.7619307,88.1582033 59.0469307,88.3342033 C58.1159307,88.5622033 58.4339307,90.2632033 57.0509307,90.6022033 C56.5539307,90.7252033 56.0939307,90.4592033 55.9719307,89.9622033 C55.6479307,88.6422033 58.0629307,87.1422033 59.5389307,86.7802033 C60.4239307,86.5622033 62.9309307,86.3092033 63.5029307,88.6402033 L63.8849307,90.1922033 Z" id="Fill-314" fill="#F26650"></path>
                        <path d="M69.1165307,85.0089033 C68.1655307,85.5019033 68.8405307,87.2239033 69.1855307,87.8919033 C69.5315307,88.5589033 70.3045307,89.6359033 71.1855307,89.1799033 C72.1375307,88.6869033 71.1765307,86.9689033 70.8525307,86.3439033 C70.5655307,85.7899033 69.9405307,84.5819033 69.1165307,85.0089033 L69.1165307,85.0089033 Z M74.7945307,86.2669033 C75.3085307,87.2609033 75.8915307,86.5449033 76.2745307,87.2829033 C76.8335307,88.3629033 73.7595307,90.0449033 73.6025307,90.1259033 C72.8785307,90.5009033 72.9855307,89.4549033 72.5165307,89.6969033 C72.3885307,89.7639033 72.2785307,90.0729033 72.0625307,90.4549033 C71.8385307,90.8229033 71.5085307,91.2639033 70.8835307,91.5879033 C69.0225307,92.5509033 66.5515307,91.3269033 65.6465307,89.5789033 C64.6685307,87.6909033 65.2465307,85.0489033 67.2075307,84.0339033 C68.1865307,83.5269033 68.9625307,83.6659033 69.1185307,83.5849033 C69.3315307,83.4749033 69.1025307,82.9979033 69.0215307,82.8419033 C68.5655307,81.9619033 67.7715307,82.9669033 67.3745307,82.1999033 C66.8305307,81.1489033 70.3125307,79.0039033 70.3555307,78.9819033 C70.7815307,78.7609033 71.0355307,79.0079033 71.2785307,79.4769033 L74.7945307,86.2669033 Z" id="Fill-315" fill="#F26650"></path>
                        <path d="M79.0892307,83.2374033 C79.3612307,83.5524033 79.8242307,83.7444033 80.1752307,83.4414033 C80.6352307,83.0434033 80.2422307,82.5154033 79.9282307,82.1524033 C79.6972307,81.8864033 79.4482307,81.5734033 79.1102307,81.8664033 C78.6972307,82.2224033 78.7542307,82.8504033 79.0892307,83.2374033 L79.0892307,83.2374033 Z M81.7982307,79.0324033 C83.6412307,81.1624033 83.3612307,79.3734033 83.9272307,80.0264033 C84.5242307,80.7164033 84.2292307,82.2824033 83.3462307,83.0474033 C82.3902307,83.8734033 81.8312307,83.2774033 81.5292307,83.5394033 C81.3842307,83.6654033 81.3622307,83.9584033 81.2222307,84.3334033 C81.0922307,84.7204033 80.8652307,85.1924033 80.3092307,85.6744033 C79.3042307,86.5434033 77.8392307,86.8794033 76.8032307,85.6814033 C76.0602307,84.8224033 75.9612307,83.0464033 78.0912307,81.2034033 C78.4662307,80.8794033 78.6562307,80.7574033 78.2792307,80.3204033 C77.9342307,79.9224033 77.1992307,79.0964033 76.6432307,79.5784033 C75.9172307,80.2064033 76.9752307,81.5764033 75.8992307,82.5084033 C75.5112307,82.8424033 74.9802307,82.8154033 74.6452307,82.4284033 C73.7552307,81.4004033 75.2252307,78.9664033 76.3742307,77.9704033 C77.0642307,77.3744033 79.1822307,76.0084033 80.7512307,77.8224033 L81.7982307,79.0324033 Z" id="Fill-316" fill="#F26650"></path>
                        <path d="M84.7122307,72.4523033 C84.2992307,73.0213033 84.7182307,73.4253033 85.1582307,73.7453033 C87.6722307,75.5683033 87.9832307,75.5763033 88.3582307,75.0573033 C88.9792307,74.2033033 88.1102307,73.3553033 87.4502307,72.8763033 C86.8412307,72.4343033 85.3332307,71.5973033 84.7122307,72.4523033 L84.7122307,72.4523033 Z M82.8342307,72.0983033 C82.8992307,72.1443033 83.0312307,72.2613033 83.1072307,72.1573033 C83.1532307,72.0933033 83.0972307,71.7343033 83.1472307,71.2573033 C83.1842307,70.7693033 83.3182307,70.1763033 83.7332307,69.6053033 C84.7292307,68.2323033 86.7282307,67.9023033 88.4382307,69.1433033 C90.6532307,70.7513033 91.1732307,73.6593033 89.5562307,75.8883033 C88.3722307,77.5193033 86.9752307,77.6733033 86.8242307,77.8803033 C86.6742307,78.0883033 86.7182307,78.4353033 86.4082307,78.8633033 C86.2762307,79.0453033 86.0742307,79.2143033 85.8672307,79.0633033 C85.6592307,78.9133033 85.4332307,78.3533033 83.7492307,77.1323033 L80.3032307,74.6323033 C79.5522307,74.0863033 79.1842307,75.3033033 78.4452307,74.7663033 C77.5772307,74.1373033 78.8172307,71.2003033 79.5982307,70.1253033 C79.8522307,69.7753033 80.1142307,69.9863033 80.3902307,70.2063033 L82.8342307,72.0983033 Z" id="Fill-317" fill="#F26650"></path>
                        <path d="M92.2161307,64.9103033 C92.4771307,65.0313033 92.9481307,65.2693033 93.2141307,65.3053033 C93.8101307,65.3893033 93.8681307,64.6223033 94.4771307,64.9053033 C95.4481307,65.3583033 94.5511307,67.0933033 94.2601307,67.7173033 C93.9561307,68.3693033 93.0821307,70.4313033 92.0531307,69.9523033 C91.5461307,69.7163033 92.0251307,69.1803033 91.5701307,68.7563033 C91.0631307,68.2903033 89.2511307,67.4453033 88.5411307,67.1143033 C87.9761307,66.8503033 86.9021307,66.3143033 86.1891307,66.1403033 C85.0151307,65.8583033 84.9921307,66.8893033 84.1661307,66.5043033 C82.9051307,65.9163033 84.3591307,62.0053033 84.4531307,61.8023033 C84.6831307,61.3083033 85.0561307,61.3423033 85.4901307,61.5453033 C85.8241307,61.7003033 87.3301307,62.6323033 89.4031307,63.5983033 L92.2161307,64.9103033 Z" id="Fill-318" fill="#F26650"></path>
                        <path d="M91.6595307,57.4337033 C91.1035307,57.2837033 90.5795307,57.5057033 90.4255307,58.0777033 C90.2865307,58.5857033 90.6985307,59.1457033 91.1925307,59.2797033 C91.7495307,59.4297033 91.7675307,58.8707033 91.8765307,58.4697033 C91.9895307,58.0527033 92.2155307,57.5837033 91.6595307,57.4337033 L91.6595307,57.4337033 Z M93.2415307,59.3037033 C93.1955307,59.4737033 93.0825307,59.7077033 93.3455307,59.7797033 C94.1175307,59.9887033 95.0375307,59.1607033 95.2335307,58.4347033 C95.5475307,57.2767033 95.0075307,56.5167033 95.0955307,56.1927033 C95.1825307,55.8687033 95.7365307,55.7197033 96.0305307,55.7987033 C97.2195307,56.1217033 97.4945307,58.5327033 97.1185307,59.9217033 C96.3655307,62.7027033 93.9695307,63.5947033 91.9765307,63.0547033 C89.5985307,62.4117033 88.4175307,59.9197033 89.0445307,57.6037033 C89.7555307,54.9787033 92.0925307,54.3687033 93.2505307,54.6817033 C94.2685307,54.9577033 94.2825307,55.4577033 94.1485307,55.9527033 L93.2415307,59.3037033 Z" id="Fill-319" fill="#F26650"></path>
                        <path d="M47.4427307,25.5831033 C51.1307307,23.0951033 56.0547307,23.9431033 58.4387307,27.4791033 C60.8227307,31.0111033 59.7637307,35.8941033 56.0767307,38.3831033 C52.3857307,40.8701033 47.4637307,40.0221033 45.0807307,36.4871033 C42.6957307,32.9531033 43.7547307,28.0721033 47.4427307,25.5831033" id="Fill-320" fill="#E32027"></path>
                        <path d="M47.4427307,25.5831033 C51.1307307,23.0951033 56.0547307,23.9431033 58.4387307,27.4791033 C60.8227307,31.0111033 59.7637307,35.8941033 56.0767307,38.3831033 C52.3857307,40.8701033 47.4637307,40.0221033 45.0807307,36.4871033 C42.6957307,32.9531033 43.7547307,28.0721033 47.4427307,25.5831033" id="Fill-321" fill="#F26650"></path>
                        <path d="M47.6663307,25.9152033 C44.1663307,28.2762033 43.1553307,32.9192033 45.4123307,36.2642033 C47.6663307,39.6092033 52.3523307,40.4112033 55.8533307,38.0512033 C59.3533307,35.6882033 60.3633307,31.0462033 58.1063307,27.7022033 C57.0163307,26.0842033 55.3303307,25.0062033 53.3613307,24.6662033 C51.3873307,24.3282033 49.3643307,24.7692033 47.6663307,25.9152033 M51.4563307,40.2062033 C48.8273307,40.2062033 46.2833307,38.9872033 44.7483307,36.7112033 C42.2453307,33.0012033 43.3543307,27.8602033 47.2193307,25.2512033 C49.0873307,23.9912033 51.3123307,23.4992033 53.4983307,23.8782033 C55.6843307,24.2552033 57.5563307,25.4542033 58.7703307,27.2552033 C61.2733307,30.9642033 60.1653307,36.1052033 56.3003307,38.7142033 C54.8053307,39.7222033 53.1133307,40.2062033 51.4563307,40.2062033" id="Fill-322" fill="#141117"></path>
                        <path d="M54.9378307,31.5118033 C58.4658307,29.1328033 63.1718307,29.9448033 65.4518307,33.3238033 C67.7308307,36.7018033 66.7198307,41.3688033 63.1918307,43.7478033 C59.6658307,46.1268033 54.9588307,45.3178033 52.6778307,41.9368033 C50.3988307,38.5578033 51.4128307,33.8908033 54.9378307,31.5118033" id="Fill-323" fill="#E32027"></path>
                        <path d="M54.9378307,31.5118033 C58.4658307,29.1328033 63.1718307,29.9448033 65.4518307,33.3238033 C67.7308307,36.7018033 66.7198307,41.3688033 63.1918307,43.7478033 C59.6658307,46.1268033 54.9588307,45.3178033 52.6778307,41.9368033 C50.3988307,38.5578033 51.4128307,33.8908033 54.9378307,31.5118033" id="Fill-324" fill="#F26650"></path>
                        <path d="M55.1615307,31.8439033 C51.8235307,34.0959033 50.8575307,38.5239033 53.0105307,41.7129033 C54.0515307,43.2569033 55.6585307,44.2849033 57.5355307,44.6089033 C59.4185307,44.9299033 61.3485307,44.5099033 62.9685307,43.4159033 C64.5885307,42.3239033 65.7035307,40.6939033 66.1085307,38.8259033 C66.5125307,36.9649033 66.1605307,35.0899033 65.1195307,33.5469033 C62.9705307,30.3579033 58.5035307,29.5909033 55.1615307,31.8439033 M58.7795307,45.5149033 C58.3195307,45.5149033 57.8585307,45.4759033 57.3995307,45.3969033 C55.3055307,45.0359033 53.5115307,43.8869033 52.3465307,42.1599033 C49.9485307,38.6059033 51.0105307,33.6799033 54.7145307,31.1799033 C58.4185307,28.6849033 63.3855307,29.5429033 65.7835307,33.0999033 C66.9475307,34.8249033 67.3405307,36.9189033 66.8905307,38.9949033 C66.4415307,41.0659033 65.2075307,42.8709033 63.4155307,44.0799033 C62.0175307,45.0229033 60.4105307,45.5149033 58.7795307,45.5149033" id="Fill-325" fill="#141117"></path>
                        <path d="M59.4495307,45.8009033 C62.9745307,43.4219033 67.6825307,44.2339033 69.9625307,47.6129033 C72.2415307,50.9909033 71.2305307,55.6579033 67.7025307,58.0369033 C64.1765307,60.4159033 59.4695307,59.6069033 57.1905307,56.2259033 C54.9115307,52.8469033 55.9235307,48.1799033 59.4495307,45.8009033" id="Fill-326" fill="#E32027"></path>
                        <path d="M59.4495307,45.8009033 C62.9745307,43.4219033 67.6825307,44.2339033 69.9625307,47.6129033 C72.2415307,50.9909033 71.2305307,55.6579033 67.7025307,58.0369033 C64.1765307,60.4159033 59.4695307,59.6069033 57.1905307,56.2259033 C54.9115307,52.8469033 55.9235307,48.1799033 59.4495307,45.8009033" id="Fill-327" fill="#F26650"></path>
                        <path d="M63.8605307,44.8349033 C62.3885307,44.8349033 60.9365307,45.2799033 59.6735307,46.1329033 C56.3355307,48.3839033 55.3705307,52.8119033 57.5225307,56.0019033 C58.5625307,57.5459033 60.1695307,58.5739033 62.0465307,58.8979033 C63.9285307,59.2189033 65.8585307,58.7989033 67.4785307,57.7049033 C69.0985307,56.6139033 70.2145307,54.9829033 70.6195307,53.1149033 C71.0225307,51.2539033 70.6715307,49.3789033 69.6305307,47.8359033 C68.5905307,46.2929033 66.9825307,45.2649033 65.1045307,44.9419033 C64.6915307,44.8699033 64.2755307,44.8349033 63.8605307,44.8349033 L63.8605307,44.8349033 Z M63.2905307,59.8039033 C62.8315307,59.8039033 62.3695307,59.7649033 61.9105307,59.6859033 C59.8165307,59.3249033 58.0225307,58.1759033 56.8585307,56.4489033 C54.4605307,52.8939033 55.5215307,47.9679033 59.2255307,45.4689033 C61.0165307,44.2609033 63.1515307,43.7949033 65.2415307,44.1539033 C67.3355307,44.5139033 69.1305307,45.6629033 70.2945307,47.3889033 C71.4585307,49.1139033 71.8505307,51.2079033 71.4005307,53.2839033 C70.9525307,55.3549033 69.7185307,57.1599033 67.9265307,58.3689033 C66.5285307,59.3119033 64.9215307,59.8039033 63.2905307,59.8039033 L63.2905307,59.8039033 Z" id="Fill-328" fill="#141117"></path>
                        <path d="M59.5179307,37.8819033 C63.0439307,35.5019033 67.7509307,36.3149033 70.0309307,39.6939033 C72.3109307,43.0719033 71.2989307,47.7379033 67.7719307,50.1179033 C64.2459307,52.4969033 59.5379307,51.6879033 57.2599307,48.3069033 C54.9799307,44.9279033 55.9919307,40.2609033 59.5179307,37.8819033" id="Fill-329" fill="#E32027"></path>
                        <path d="M59.5179307,37.8819033 C63.0439307,35.5019033 67.7509307,36.3149033 70.0309307,39.6939033 C72.3109307,43.0719033 71.2989307,47.7379033 67.7719307,50.1179033 C64.2459307,52.4969033 59.5379307,51.6879033 57.2599307,48.3069033 C54.9799307,44.9279033 55.9919307,40.2609033 59.5179307,37.8819033" id="Fill-330" fill="#F26650"></path>
                        <path d="M63.9299307,36.9159033 C62.4569307,36.9159033 61.0049307,37.3609033 59.7419307,38.2139033 C58.1219307,39.3059033 57.0069307,40.9369033 56.6029307,42.8039033 C56.1999307,44.6649033 56.5499307,46.5399033 57.5919307,48.0829033 C58.6309307,49.6269033 60.2379307,50.6549033 62.1159307,50.9789033 C63.9969307,51.2999033 65.9279307,50.8789033 67.5479307,49.7859033 C69.1679307,48.6939033 70.2839307,47.0639033 70.6879307,45.1949033 C71.0909307,43.3349033 70.7409307,41.4599033 69.6989307,39.9169033 C68.6589307,38.3739033 67.0509307,37.3459033 65.1739307,37.0229033 C64.7599307,36.9509033 64.3439307,36.9159033 63.9299307,36.9159033 L63.9299307,36.9159033 Z M63.3599307,51.8849033 C62.8999307,51.8849033 62.4389307,51.8459033 61.9799307,51.7669033 C59.8849307,51.4059033 58.0909307,50.2569033 56.9279307,48.5299033 C55.7639307,46.8049033 55.3709307,44.7109033 55.8209307,42.6349033 C56.2689307,40.5649033 57.5019307,38.7589033 59.2939307,37.5499033 C61.0849307,36.3419033 63.2199307,35.8749033 65.3099307,36.2339033 C67.4039307,36.5949033 69.1989307,37.7439033 70.3629307,39.4699033 C71.5269307,41.1949033 71.9199307,43.2889033 71.4699307,45.3649033 C71.0219307,47.4349033 69.7879307,49.2409033 67.9959307,50.4499033 C66.5979307,51.3929033 64.9909307,51.8849033 63.3599307,51.8849033 L63.3599307,51.8849033 Z" id="Fill-331" fill="#141117"></path>
                        <path d="M27.6947307,55.4523033 C30.6497307,53.4603033 34.5487307,54.0713033 36.4017307,56.8193033 C38.2547307,59.5663033 37.3607307,63.4083033 34.4057307,65.4013033 C31.4507307,67.3963033 27.5517307,66.7843033 25.7007307,64.0373033 C23.8457307,61.2893033 24.7397307,57.4453033 27.6947307,55.4523033" id="Fill-332" fill="#E32027"></path>
                        <path d="M27.6947307,55.4523033 C30.6497307,53.4603033 34.5487307,54.0713033 36.4017307,56.8193033 C38.2547307,59.5663033 37.3607307,63.4083033 34.4057307,65.4013033 C31.4507307,67.3963033 27.5517307,66.7843033 25.7007307,64.0373033 C23.8457307,61.2893033 24.7397307,57.4453033 27.6947307,55.4523033" id="Fill-333" fill="#F26650"></path>
                        <path d="M27.9183307,55.7843033 C26.5733307,56.6913033 25.6373307,58.0293033 25.2833307,59.5523033 C24.9323307,61.0643033 25.1983307,62.5773033 26.0323307,63.8133033 C26.8643307,65.0493033 28.1683307,65.8623033 29.7013307,66.1023033 C31.2483307,66.3443033 32.8373307,65.9763033 34.1823307,65.0703033 C36.9493307,63.2033033 37.7963307,59.6023033 36.0693307,57.0433033 C34.3433307,54.4823033 30.6853307,53.9183033 27.9183307,55.7843033 M30.6373307,66.9753033 C30.2833307,66.9753033 29.9293307,66.9483033 29.5773307,66.8923033 C27.8213307,66.6173033 26.3273307,65.6823033 25.3683307,64.2613033 C24.4093307,62.8393033 24.1023307,61.1023033 24.5043307,59.3713033 C24.9033307,57.6503033 25.9573307,56.1413033 27.4713307,55.1203033 C30.6053307,53.0103033 34.7593307,53.6693033 36.7333307,56.5963033 C38.7063307,59.5203033 37.7623307,63.6203033 34.6293307,65.7333033 C33.4213307,66.5483033 32.0343307,66.9753033 30.6373307,66.9753033" id="Fill-334" fill="#141117"></path>
                        <path d="M31.2113307,57.6095033 C34.1663307,55.6165033 38.0643307,56.2285033 39.9183307,58.9755033 C41.7713307,61.7225033 40.8773307,65.5645033 37.9223307,67.5575033 C34.9673307,69.5525033 31.0683307,68.9405033 29.2173307,66.1935033 C27.3623307,63.4465033 28.2563307,59.6025033 31.2113307,57.6095033" id="Fill-335" fill="#E32027"></path>
                        <path d="M31.2113307,57.6095033 C34.1663307,55.6165033 38.0643307,56.2285033 39.9183307,58.9755033 C41.7713307,61.7225033 40.8773307,65.5645033 37.9223307,67.5575033 C34.9673307,69.5525033 31.0683307,68.9405033 29.2173307,66.1935033 C27.3623307,63.4465033 28.2563307,59.6025033 31.2113307,57.6095033" id="Fill-336" fill="#F26650"></path>
                        <path d="M34.9847307,56.8409033 C33.7787307,56.8409033 32.5367307,57.1979033 31.4347307,57.9419033 C30.0897307,58.8489033 29.1537307,60.1869033 28.7997307,61.7089033 C28.4487307,63.2209033 28.7147307,64.7349033 29.5477307,65.9699033 C30.3807307,67.2049033 31.6847307,68.0189033 33.2177307,68.2589033 C34.7627307,68.4999033 36.3537307,68.1329033 37.6987307,67.2269033 C40.4657307,65.3599033 41.3127307,61.7589033 39.5867307,59.1989033 C38.5467307,57.6579033 36.8067307,56.8409033 34.9847307,56.8409033 M34.1537307,69.1319033 C33.7997307,69.1319033 33.4457307,69.1049033 33.0937307,69.0489033 C31.3387307,68.7739033 29.8437307,67.8389033 28.8847307,66.4169033 C27.9257307,64.9949033 27.6187307,63.2589033 28.0207307,61.5279033 C28.4207307,59.8079033 29.4737307,58.2989033 30.9877307,57.2779033 C34.1167307,55.1679033 38.2737307,55.8249033 40.2497307,58.7519033 C42.2227307,61.6769033 41.2787307,65.7769033 38.1457307,67.8899033 C36.9377307,68.7039033 35.5507307,69.1319033 34.1537307,69.1319033" id="Fill-337" fill="#141117"></path>
                        <path d="M25.7562307,49.5216033 C28.7112307,47.5286033 32.6102307,48.1406033 34.4632307,50.8876033 C36.3162307,53.6356033 35.4222307,57.4776033 32.4672307,59.4726033 C29.5122307,61.4646033 25.6142307,60.8536033 23.7622307,58.1056033 C21.9072307,55.3586033 22.8012307,51.5146033 25.7562307,49.5216033" id="Fill-338" fill="#E32027"></path>
                        <path d="M25.7562307,49.5216033 C28.7112307,47.5286033 32.6102307,48.1406033 34.4632307,50.8876033 C36.3162307,53.6356033 35.4222307,57.4776033 32.4672307,59.4726033 C29.5122307,61.4646033 25.6142307,60.8536033 23.7622307,58.1056033 C21.9072307,55.3586033 22.8012307,51.5146033 25.7562307,49.5216033" id="Fill-339" fill="#F26650"></path>
                        <path d="M29.5296307,48.7521033 C28.3236307,48.7521033 27.0816307,49.1101033 25.9796307,49.8541033 C24.6346307,50.7611033 23.6986307,52.0991033 23.3446307,53.6211033 C22.9936307,55.1331033 23.2596307,56.6471033 24.0926307,57.8821033 C24.9266307,59.1171033 26.2296307,59.9311033 27.7626307,60.1721033 C29.3106307,60.4171033 30.8986307,60.0481033 32.2436307,59.1411033 C35.0096307,57.2731033 35.8566307,53.6711033 34.1316307,51.1111033 C33.0926307,49.5701033 31.3526307,48.7521033 29.5296307,48.7521033 M28.7006307,61.0451033 C28.3456307,61.0451033 27.9916307,61.0181033 27.6386307,60.9621033 C25.8836307,60.6871033 24.3886307,59.7511033 23.4296307,58.3291033 C22.4706307,56.9071033 22.1636307,55.1711033 22.5656307,53.4401033 C22.9656307,51.7201033 24.0186307,50.2111033 25.5326307,49.1891033 C28.6676307,47.0761033 32.8206307,47.7391033 34.7956307,50.6641033 C36.7666307,53.5891033 35.8226307,57.6901033 32.6906307,59.8041033 C31.4836307,60.6181033 30.0966307,61.0451033 28.7006307,61.0451033" id="Fill-340" fill="#141117"></path>
                        <path d="M31.5521307,53.2911033 C34.5071307,51.2981033 38.4051307,51.9091033 40.2581307,54.6571033 C42.1111307,57.4041033 41.2171307,61.2461033 38.2621307,63.2391033 C35.3071307,65.2341033 31.4091307,64.6221033 29.5571307,61.8751033 C27.7031307,59.1271033 28.5971307,55.2831033 31.5521307,53.2911033" id="Fill-341" fill="#E32027"></path>
                        <path d="M31.5521307,53.2911033 C34.5071307,51.2981033 38.4051307,51.9091033 40.2581307,54.6571033 C42.1111307,57.4041033 41.2171307,61.2461033 38.2621307,63.2391033 C35.3071307,65.2341033 31.4091307,64.6221033 29.5571307,61.8751033 C27.7031307,59.1271033 28.5971307,55.2831033 31.5521307,53.2911033" id="Fill-342" fill="#F26650"></path>
                        <path d="M35.3211307,52.5191033 C34.0811307,52.5191033 32.8501307,52.8981033 31.7761307,53.6231033 C30.4311307,54.5291033 29.4941307,55.8671033 29.1411307,57.3901033 C28.7891307,58.9021033 29.0551307,60.4151033 29.8891307,61.6511033 C30.7221307,62.8871033 32.0251307,63.7001033 33.5581307,63.9401033 C35.0981307,64.1821033 36.6941307,63.8151033 38.0381307,62.9081033 C40.8061307,61.0411033 41.6531307,57.4401033 39.9261307,54.8811033 C39.0931307,53.6451033 37.7891307,52.8321033 36.2561307,52.5921033 C35.9461307,52.5431033 35.6321307,52.5191033 35.3211307,52.5191033 L35.3211307,52.5191033 Z M34.4931307,64.8131033 C34.1401307,64.8131033 33.7861307,64.7861033 33.4341307,64.7301033 C31.6791307,64.4551033 30.1841307,63.5201033 29.2251307,62.0991033 C28.2661307,60.6771033 27.9591307,58.9391033 28.3621307,57.2091033 C28.7611307,55.4891033 29.8151307,53.9791033 31.3281307,52.9591033 C32.8421307,51.9381033 34.6341307,51.5291033 36.3801307,51.8011033 C38.1351307,52.0761033 39.6301307,53.0121033 40.5901307,54.4341033 C42.5631307,57.3581033 41.6181307,61.4581033 38.4861307,63.5711033 C37.2781307,64.3861033 35.8911307,64.8131033 34.4931307,64.8131033 L34.4931307,64.8131033 Z" id="Fill-343" fill="#141117"></path>
                        <path d="M36.8236307,59.1642033 C39.7786307,57.1722033 43.6776307,57.7832033 45.5306307,60.5302033 C47.3836307,63.2782033 46.4896307,67.1202033 43.5346307,69.1132033 C40.5796307,71.1072033 36.6806307,70.4962033 34.8296307,67.7482033 C32.9746307,65.0012033 33.8686307,61.1572033 36.8236307,59.1642033" id="Fill-344" fill="#E32027"></path>
                        <path d="M36.8236307,59.1642033 C39.7786307,57.1722033 43.6776307,57.7832033 45.5306307,60.5302033 C47.3836307,63.2782033 46.4896307,67.1202033 43.5346307,69.1132033 C40.5796307,71.1072033 36.6806307,70.4962033 34.8296307,67.7482033 C32.9746307,65.0012033 33.8686307,61.1572033 36.8236307,59.1642033" id="Fill-345" fill="#F26650"></path>
                        <path d="M37.0472307,59.4962033 C35.7022307,60.4032033 34.7662307,61.7412033 34.4122307,63.2642033 C34.0612307,64.7752033 34.3272307,66.2892033 35.1602307,67.5242033 C35.9932307,68.7612033 37.2972307,69.5732033 38.8302307,69.8132033 C40.3752307,70.0562033 41.9652307,69.6882033 43.3112307,68.7812033 C46.0772307,66.9152033 46.9252307,63.3142033 45.1982307,60.7542033 C43.4732307,58.1942033 39.8162307,57.6282033 37.0472307,59.4962033 M39.7662307,70.6862033 C39.4122307,70.6862033 39.0582307,70.6592033 38.7062307,70.6042033 C36.9502307,70.3292033 35.4562307,69.3932033 34.4972307,67.9722033 C33.5382307,66.5502033 33.2312307,64.8132033 33.6332307,63.0832033 C34.0322307,61.3622033 35.0862307,59.8532033 36.6002307,58.8322033 C39.7342307,56.7202033 43.8882307,57.3822033 45.8622307,60.3072033 C47.8342307,63.2322033 46.8912307,67.3322033 43.7582307,69.4452033 C42.5502307,70.2602033 41.1632307,70.6862033 39.7662307,70.6862033" id="Fill-346" fill="#141117"></path>
                        <path d="M44.6156307,58.4991033 C47.5706307,56.5061033 51.4686307,57.1181033 53.3226307,59.8651033 C55.1746307,62.6131033 54.2816307,66.4551033 51.3256307,68.4481033 C48.3706307,70.4421033 44.4726307,69.8311033 42.6206307,67.0831033 C40.7666307,64.3361033 41.6606307,60.4921033 44.6156307,58.4991033" id="Fill-347" fill="#E32027"></path>
                        <path d="M44.6156307,58.4991033 C47.5706307,56.5061033 51.4686307,57.1181033 53.3226307,59.8651033 C55.1746307,62.6131033 54.2816307,66.4551033 51.3256307,68.4481033 C48.3706307,70.4421033 44.4726307,69.8311033 42.6206307,67.0831033 C40.7666307,64.3361033 41.6606307,60.4921033 44.6156307,58.4991033" id="Fill-348" fill="#F26650"></path>
                        <path d="M48.3890307,57.7306033 C47.1830307,57.7306033 45.9410307,58.0876033 44.8390307,58.8316033 C43.4940307,59.7386033 42.5580307,61.0766033 42.2040307,62.5986033 C41.8530307,64.1106033 42.1180307,65.6246033 42.9520307,66.8596033 C43.7850307,68.0956033 45.0880307,68.9086033 46.6210307,69.1486033 C48.1640307,69.3926033 49.7550307,69.0256033 51.1020307,68.1166033 C53.8680307,66.2516033 54.7160307,62.6496033 52.9910307,60.0886033 C51.9510307,58.5476033 50.2110307,57.7306033 48.3890307,57.7306033 M47.5570307,70.0216033 C47.2030307,70.0216033 46.8500307,69.9946033 46.4970307,69.9396033 C44.7430307,69.6646033 43.2470307,68.7286033 42.2880307,67.3066033 C41.3290307,65.8846033 41.0230307,64.1486033 41.4250307,62.4176033 C41.8250307,60.6976033 42.8780307,59.1886033 44.3920307,58.1676033 C47.5220307,56.0586033 51.6790307,56.7156033 53.6540307,59.6416033 C55.6260307,62.5686033 54.6820307,66.6686033 51.5490307,68.7806033 C50.3410307,69.5946033 48.9540307,70.0216033 47.5570307,70.0216033" id="Fill-349" fill="#141117"></path>
                        <path d="M56.3792307,55.0245033 C59.3342307,53.0315033 63.2322307,53.6435033 65.0862307,56.3905033 C66.9392307,59.1375033 66.0452307,62.9805033 63.0902307,64.9745033 C60.1352307,66.9675033 56.2362307,66.3555033 54.3852307,63.6085033 C52.5302307,60.8615033 53.4242307,57.0175033 56.3792307,55.0245033" id="Fill-350" fill="#E32027"></path>
                        <path d="M56.3792307,55.0245033 C59.3342307,53.0315033 63.2322307,53.6435033 65.0862307,56.3905033 C66.9392307,59.1375033 66.0452307,62.9805033 63.0902307,64.9745033 C60.1352307,66.9675033 56.2362307,66.3555033 54.3852307,63.6085033 C52.5302307,60.8615033 53.4242307,57.0175033 56.3792307,55.0245033" id="Fill-351" fill="#F26650"></path>
                        <path d="M60.1527307,54.2560033 C58.9467307,54.2560033 57.7047307,54.6130033 56.6027307,55.3570033 C55.2577307,56.2640033 54.3217307,57.6020033 53.9677307,59.1240033 C53.6167307,60.6360033 53.8827307,62.1500033 54.7157307,63.3850033 C55.5487307,64.6200033 56.8527307,65.4340033 58.3857307,65.6740033 C59.9267307,65.9140033 61.5207307,65.5500033 62.8667307,64.6430033 C65.6337307,62.7760033 66.4807307,59.1740033 64.7547307,56.6140033 C63.7147307,55.0730033 61.9747307,54.2560033 60.1527307,54.2560033 M59.3227307,66.5470033 C58.9687307,66.5470033 58.6147307,66.5200033 58.2617307,66.4640033 C56.5067307,66.1890033 55.0117307,65.2540033 54.0527307,63.8320033 C53.0937307,62.4100033 52.7867307,60.6740033 53.1887307,58.9430033 C53.5887307,57.2230033 54.6417307,55.7140033 56.1557307,54.6930033 C59.2857307,52.5830033 63.4427307,53.2400033 65.4177307,56.1670033 C67.3907307,59.0920033 66.4467307,63.1930033 63.3137307,65.3070033 C62.1067307,66.1200033 60.7197307,66.5470033 59.3227307,66.5470033" id="Fill-352" fill="#141117"></path>
                        <path d="M26.9857307,44.7921033 C29.9407307,42.7991033 33.8387307,43.4111033 35.6927307,46.1581033 C37.5447307,48.9051033 36.6507307,52.7481033 33.6957307,54.7401033 C30.7407307,56.7331033 26.8427307,56.1231033 24.9907307,53.3761033 C23.1367307,50.6291033 24.0307307,46.7851033 26.9857307,44.7921033" id="Fill-353" fill="#E32027"></path>
                        <path d="M26.9857307,44.7921033 C29.9407307,42.7991033 33.8387307,43.4111033 35.6927307,46.1581033 C37.5447307,48.9051033 36.6507307,52.7481033 33.6957307,54.7401033 C30.7407307,56.7331033 26.8427307,56.1231033 24.9907307,53.3761033 C23.1367307,50.6291033 24.0307307,46.7851033 26.9857307,44.7921033" id="Fill-354" fill="#F26650"></path>
                        <path d="M30.7591307,44.0236033 C29.5531307,44.0236033 28.3111307,44.3806033 27.2091307,45.1246033 C25.8641307,46.0316033 24.9281307,47.3696033 24.5741307,48.8916033 C24.2231307,50.4036033 24.4881307,51.9176033 25.3221307,53.1526033 C26.1551307,54.3876033 27.4581307,55.2006033 28.9911307,55.4406033 C30.5351307,55.6826033 32.1261307,55.3166033 33.4721307,54.4086033 C36.2391307,52.5436033 37.0861307,48.9426033 35.3611307,46.3816033 C34.3211307,44.8406033 32.5811307,44.0236033 30.7591307,44.0236033 M29.9271307,56.3136033 C29.5731307,56.3136033 29.2201307,56.2866033 28.8671307,56.2306033 C27.1131307,55.9566033 25.6171307,55.0216033 24.6581307,53.5996033 C23.6991307,52.1776033 23.3931307,50.4416033 23.7951307,48.7106033 C24.1951307,46.9906033 25.2481307,45.4816033 26.7621307,44.4606033 C29.8911307,42.3506033 34.0481307,43.0076033 36.0241307,45.9346033 C37.9961307,48.8606033 37.0521307,52.9606033 33.9191307,55.0726033 C32.7111307,55.8866033 31.3241307,56.3136033 29.9271307,56.3136033" id="Fill-355" fill="#141117"></path>
                        <path d="M39.7113307,54.6466033 C42.8943307,52.5006033 47.0913307,53.1596033 49.0873307,56.1176033 C51.0813307,59.0766033 50.1213307,63.2136033 46.9393307,65.3616033 C43.7563307,67.5076033 39.5573307,66.8496033 37.5633307,63.8916033 C35.5653307,60.9316033 36.5283307,56.7926033 39.7113307,54.6466033" id="Fill-356" fill="#E32027"></path>
                        <path d="M39.7113307,54.6466033 C42.8943307,52.5006033 47.0913307,53.1596033 49.0873307,56.1176033 C51.0813307,59.0766033 50.1213307,63.2136033 46.9393307,65.3616033 C43.7563307,67.5076033 39.5573307,66.8496033 37.5633307,63.8916033 C35.5653307,60.9316033 36.5283307,56.7926033 39.7113307,54.6466033" id="Fill-357" fill="#F26650"></path>
                        <path d="M43.7747307,53.7872033 C42.4707307,53.7872033 41.1267307,54.1752033 39.9347307,54.9782033 C38.4797307,55.9602033 37.4667307,57.4072033 37.0847307,59.0552033 C36.7037307,60.6912033 36.9917307,62.3302033 37.8947307,63.6682033 C38.7957307,65.0062033 40.2077307,65.8852033 41.8677307,66.1452033 C43.5377307,66.4062033 45.2597307,66.0122033 46.7147307,65.0292033 C49.7087307,63.0102033 50.6237307,59.1122033 48.7547307,56.3412033 C47.6297307,54.6732033 45.7487307,53.7872033 43.7747307,53.7872033 M42.8797307,67.0242033 C42.5017307,67.0242033 42.1217307,66.9952033 41.7437307,66.9352033 C39.8607307,66.6412033 38.2577307,65.6392033 37.2307307,64.1152033 C36.2027307,62.5912033 35.8737307,60.7292033 36.3047307,58.8732033 C36.7337307,57.0282033 37.8647307,55.4102033 39.4877307,54.3142033 C42.8477307,52.0482033 47.3017307,52.7572033 49.4197307,55.8932033 C51.5337307,59.0312033 50.5207307,63.4272033 47.1627307,65.6932033 C45.8667307,66.5662033 44.3787307,67.0242033 42.8797307,67.0242033" id="Fill-358" fill="#141117"></path>
                        <path d="M30.1712307,37.0851033 C33.3542307,34.9391033 37.5512307,35.5981033 39.5472307,38.5571033 C41.5422307,41.5151033 40.5812307,45.6531033 37.3992307,47.8001033 C34.2162307,49.9461033 30.0182307,49.2891033 28.0232307,46.3291033 C26.0262307,43.3701033 26.9882307,39.2321033 30.1712307,37.0851033" id="Fill-359" fill="#E32027"></path>
                        <path d="M30.1712307,37.0851033 C33.3542307,34.9391033 37.5512307,35.5981033 39.5472307,38.5571033 C41.5422307,41.5151033 40.5812307,45.6531033 37.3992307,47.8001033 C34.2162307,49.9461033 30.0182307,49.2891033 28.0232307,46.3291033 C26.0262307,43.3701033 26.9882307,39.2321033 30.1712307,37.0851033" id="Fill-360" fill="#F26650"></path>
                        <path d="M30.3949307,37.4171033 C27.4009307,39.4371033 26.4859307,43.3351033 28.3549307,46.1051033 C29.2559307,47.4431033 30.6669307,48.3241033 32.3279307,48.5841033 C33.9969307,48.8461033 35.7189307,48.4491033 37.1749307,47.4681033 C38.6299307,46.4871033 39.6419307,45.0391033 40.0249307,43.3921033 C40.4059307,41.7561033 40.1179307,40.1181033 39.2149307,38.7801033 C37.3459307,36.0081033 33.3889307,35.3981033 30.3949307,37.4171033 M33.3399307,49.4631033 C32.9609307,49.4631033 32.5819307,49.4341033 32.2039307,49.3751033 C30.3219307,49.0791033 28.7189307,48.0771033 27.6909307,46.5531033 C25.5759307,43.4161033 26.5869307,39.0211033 29.9479307,36.7531033 C33.3079307,34.4861033 37.7619307,35.1951033 39.8789307,38.3331033 C40.9069307,39.8561033 41.2359307,41.7181033 40.8039307,43.5731033 C40.3749307,45.4181033 39.2459307,47.0371033 37.6229307,48.1321033 C36.3269307,49.0051033 34.8389307,49.4631033 33.3399307,49.4631033" id="Fill-361" fill="#141117"></path>
                        <path d="M33.6087307,45.5997033 C36.7917307,43.4537033 40.9887307,44.1127033 42.9847307,47.0707033 C44.9787307,50.0297033 44.0187307,54.1667033 40.8367307,56.3147033 C37.6537307,58.4607033 33.4547307,57.8027033 31.4607307,54.8427033 C29.4637307,51.8847033 30.4257307,47.7457033 33.6087307,45.5997033" id="Fill-362" fill="#E32027"></path>
                        <path d="M33.6087307,45.5997033 C36.7917307,43.4537033 40.9887307,44.1127033 42.9847307,47.0707033 C44.9787307,50.0297033 44.0187307,54.1667033 40.8367307,56.3147033 C37.6537307,58.4607033 33.4547307,57.8027033 31.4607307,54.8427033 C29.4637307,51.8847033 30.4257307,47.7457033 33.6087307,45.5997033" id="Fill-363" fill="#F26650"></path>
                        <path d="M37.6722307,44.7403033 C36.3682307,44.7403033 35.0242307,45.1283033 33.8322307,45.9313033 C32.3772307,46.9133033 31.3642307,48.3603033 30.9822307,50.0083033 C30.6022307,51.6433033 30.8892307,53.2813033 31.7922307,54.6193033 C32.6932307,55.9573033 34.1052307,56.8383033 35.7652307,57.0983033 C37.4342307,57.3603033 39.1572307,56.9643033 40.6122307,55.9823033 C43.6062307,53.9633033 44.5212307,50.0653033 42.6522307,47.2943033 C41.5272307,45.6263033 39.6462307,44.7403033 37.6722307,44.7403033 M36.7782307,57.9773033 C36.3992307,57.9773033 36.0192307,57.9483033 35.6412307,57.8883033 C33.7582307,57.5943033 32.1552307,56.5913033 31.1282307,55.0663033 C30.1012307,53.5433033 29.7722307,51.6813033 30.2022307,49.8263033 C30.6312307,47.9813033 31.7622307,46.3633033 33.3852307,45.2673033 C36.7452307,43.0013033 41.1982307,43.7103033 43.3172307,46.8463033 C45.4312307,49.9843033 44.4182307,54.3803033 41.0602307,56.6463033 C39.7642307,57.5193033 38.2762307,57.9773033 36.7782307,57.9773033" id="Fill-364" fill="#141117"></path>
                        <path d="M35.1234307,30.9337033 C38.0244307,28.9767033 41.8524307,29.5777033 43.6724307,32.2737033 C45.4894307,34.9717033 44.6124307,38.7437033 41.7114307,40.7007033 C38.8114307,42.6577033 34.9844307,42.0567033 33.1654307,39.3607033 C31.3454307,36.6627033 32.2234307,32.8907033 35.1234307,30.9337033" id="Fill-365" fill="#E32027"></path>
                        <path d="M35.1234307,30.9337033 C38.0244307,28.9767033 41.8524307,29.5777033 43.6724307,32.2737033 C45.4894307,34.9717033 44.6124307,38.7437033 41.7114307,40.7007033 C38.8114307,42.6577033 34.9844307,42.0567033 33.1654307,39.3607033 C31.3454307,36.6627033 32.2234307,32.8907033 35.1234307,30.9337033" id="Fill-366" fill="#F26650"></path>
                        <path d="M35.3470307,31.2657033 C32.6340307,33.0957033 31.8040307,36.6267033 33.4970307,39.1367033 C34.3140307,40.3477033 35.5920307,41.1447033 37.0950307,41.3797033 C38.6050307,41.6157033 40.1690307,41.2577033 41.4880307,40.3697033 C44.2010307,38.5387033 45.0320307,35.0077033 43.3400307,32.4967033 C41.6460307,29.9887033 38.0620307,29.4327033 35.3470307,31.2657033 M38.0130307,42.2517033 C37.6650307,42.2517033 37.3180307,42.2247033 36.9710307,42.1707033 C35.2460307,41.8997033 33.7770307,40.9817033 32.8330307,39.5837033 C30.8940307,36.7087033 31.8210307,32.6797033 34.9000307,30.6017033 C37.9780307,28.5267033 42.0630307,29.1737033 44.0030307,32.0497033 C45.9420307,34.9267033 45.0130307,38.9547033 41.9350307,41.0327033 C40.7490307,41.8317033 39.3870307,42.2517033 38.0130307,42.2517033" id="Fill-367" fill="#141117"></path>
                        <path d="M50.4095307,56.1739033 C53.2045307,54.2889033 56.8905307,54.8659033 58.6435307,57.4649033 C60.3975307,60.0639033 59.5525307,63.6989033 56.7575307,65.5839033 C53.9625307,67.4689033 50.2755307,66.8919033 48.5225307,64.2929033 C46.7705307,61.6939033 47.6145307,58.0589033 50.4095307,56.1739033" id="Fill-368" fill="#E32027"></path>
                        <path d="M50.4095307,56.1739033 C53.2045307,54.2889033 56.8905307,54.8659033 58.6435307,57.4649033 C60.3975307,60.0639033 59.5525307,63.6989033 56.7575307,65.5839033 C53.9625307,67.4689033 50.2755307,66.8919033 48.5225307,64.2929033 C46.7705307,61.6939033 47.6145307,58.0589033 50.4095307,56.1739033" id="Fill-369" fill="#F26650"></path>
                        <path d="M53.9798307,55.4679033 C52.8428307,55.4679033 51.6718307,55.8049033 50.6328307,56.5059033 C48.0268307,58.2639033 47.2288307,61.6559033 48.8548307,64.0699033 C50.4808307,66.4799033 53.9238307,67.0109033 56.5338307,65.2519033 C57.8008307,64.3979033 58.6828307,63.1369033 59.0168307,61.7009033 C59.3478307,60.2779033 59.0978307,58.8529033 58.3118307,57.6889033 C57.3338307,56.2389033 55.6968307,55.4679033 53.9798307,55.4679033 M53.1888307,67.0889033 C51.2138307,67.0889033 49.3248307,66.1969033 48.1908307,64.5169033 C46.3188307,61.7389033 47.2128307,57.8469033 50.1858307,55.8419033 C53.1598307,53.8369033 57.1018307,54.4639033 58.9758307,57.2409033 C59.8858307,58.5909033 60.1778307,60.2389033 59.7958307,61.8829033 C59.4168307,63.5149033 58.4168307,64.9469033 56.9808307,65.9159033 C55.8058307,66.7079033 54.4788307,67.0889033 53.1888307,67.0889033" id="Fill-370" fill="#141117"></path>
                        <path d="M38.0960307,37.2980033 C41.2790307,35.1520033 45.4760307,35.8110033 47.4720307,38.7690033 C49.4680307,41.7280033 48.5060307,45.8650033 45.3240307,48.0130033 C42.1410307,50.1590033 37.9440307,49.5010033 35.9480307,46.5410033 C33.9510307,43.5830033 34.9130307,39.4440033 38.0960307,37.2980033" id="Fill-371" fill="#E32027"></path>
                        <path d="M38.0960307,37.2980033 C41.2790307,35.1520033 45.4760307,35.8110033 47.4720307,38.7690033 C49.4680307,41.7280033 48.5060307,45.8650033 45.3240307,48.0130033 C42.1410307,50.1590033 37.9440307,49.5010033 35.9480307,46.5410033 C33.9510307,43.5830033 34.9130307,39.4440033 38.0960307,37.2980033" id="Fill-372" fill="#F26650"></path>
                        <path d="M42.1595307,36.4386033 C40.8555307,36.4386033 39.5115307,36.8266033 38.3195307,37.6296033 C36.8645307,38.6116033 35.8515307,40.0586033 35.4695307,41.7066033 C35.0895307,43.3416033 35.3765307,44.9796033 36.2795307,46.3176033 C37.1815307,47.6556033 38.5935307,48.5366033 40.2525307,48.7966033 C41.9265307,49.0586033 43.6445307,48.6626033 45.0995307,47.6806033 C48.0945307,45.6616033 49.0095307,41.7626033 47.1395307,38.9926033 C46.0145307,37.3246033 44.1335307,36.4386033 42.1595307,36.4386033 M41.2655307,49.6756033 C40.8875307,49.6756033 40.5065307,49.6466033 40.1285307,49.5866033 C38.2465307,49.2926033 36.6435307,48.2896033 35.6155307,46.7646033 C34.5885307,45.2416033 34.2595307,43.3796033 34.6895307,41.5246033 C35.1185307,39.6796033 36.2495307,38.0616033 37.8725307,36.9656033 C41.2315307,34.6996033 45.6865307,35.4096033 47.8045307,38.5446033 C49.9195307,41.6816033 48.9075307,46.0776033 45.5475307,48.3446033 C44.2525307,49.2176033 42.7645307,49.6756033 41.2655307,49.6756033" id="Fill-373" fill="#141117"></path>
                        <path d="M43.0179307,47.6446033 C46.2009307,45.4986033 50.3979307,46.1576033 52.3939307,49.1156033 C54.3899307,52.0746033 53.4279307,56.2116033 50.2459307,58.3596033 C47.0629307,60.5056033 42.8659307,59.8486033 40.8699307,56.8876033 C38.8729307,53.9296033 39.8349307,49.7906033 43.0179307,47.6446033" id="Fill-374" fill="#E32027"></path>
                        <path d="M43.0179307,47.6446033 C46.2009307,45.4986033 50.3979307,46.1576033 52.3939307,49.1156033 C54.3899307,52.0746033 53.4279307,56.2116033 50.2459307,58.3596033 C47.0629307,60.5056033 42.8659307,59.8486033 40.8699307,56.8876033 C38.8729307,53.9296033 39.8349307,49.7906033 43.0179307,47.6446033" id="Fill-375" fill="#F26650"></path>
                        <path d="M47.0814307,46.7853033 C45.7774307,46.7853033 44.4334307,47.1733033 43.2414307,47.9763033 C41.7864307,48.9583033 40.7734307,50.4053033 40.3914307,52.0533033 C40.0114307,53.6883033 40.2984307,55.3263033 41.2014307,56.6643033 C42.1034307,58.0033033 43.5154307,58.8843033 45.1744307,59.1433033 C46.8494307,59.4083033 48.5664307,59.0103033 50.0214307,58.0273033 C53.0164307,56.0083033 53.9314307,52.1093033 52.0614307,49.3393033 C50.9364307,47.6713033 49.0554307,46.7853033 47.0814307,46.7853033 M46.1864307,60.0223033 C45.8084307,60.0223033 45.4284307,59.9933033 45.0504307,59.9333033 C43.1684307,59.6393033 41.5654307,58.6373033 40.5374307,57.1113033 C39.5104307,55.5883033 39.1814307,53.7263033 39.6114307,51.8713033 C40.0404307,50.0263033 41.1714307,48.4083033 42.7944307,47.3123033 C46.1544307,45.0463033 50.6084307,45.7563033 52.7264307,48.8913033 C54.8414307,52.0283033 53.8294307,56.4243033 50.4694307,58.6913033 C49.1734307,59.5643033 47.6854307,60.0223033 46.1864307,60.0223033" id="Fill-376" fill="#141117"></path>
                        <path d="M56.5872307,47.7316033 C60.2212307,45.2806033 65.0162307,46.0316033 67.2952307,49.4126033 C69.5742307,52.7916033 68.4752307,57.5166033 64.8402307,59.9676033 C61.2062307,62.4196033 56.4132307,61.6686033 54.1342307,58.2896033 C51.8552307,54.9106033 52.9522307,50.1826033 56.5872307,47.7316033" id="Fill-377" fill="#E32027"></path>
                        <path d="M56.5872307,47.7316033 C60.2212307,45.2806033 65.0162307,46.0316033 67.2952307,49.4126033 C69.5742307,52.7916033 68.4752307,57.5166033 64.8402307,59.9676033 C61.2062307,62.4196033 56.4132307,61.6686033 54.1342307,58.2896033 C51.8552307,54.9106033 52.9522307,50.1826033 56.5872307,47.7316033" id="Fill-378" fill="#F26650"></path>
                        <path d="M61.2222307,46.6896033 C59.6802307,46.6896033 58.1482307,47.1616033 56.8112307,48.0636033 C55.1372307,49.1916033 53.9732307,50.8576033 53.5322307,52.7526033 C53.0952307,54.6376033 53.4262307,56.5246033 54.4662307,58.0656033 C56.6172307,61.2556033 61.1712307,61.9596033 64.6162307,59.6356033 C66.2902307,58.5066033 67.4552307,56.8416033 67.8962307,54.9476033 C68.3342307,53.0636033 68.0032307,51.1766033 66.9632307,49.6356033 C65.9242307,48.0936033 64.2992307,47.0806033 62.3872307,46.7806033 C62.0002307,46.7186033 61.6102307,46.6896033 61.2222307,46.6896033 L61.2222307,46.6896033 Z M60.2002307,61.8056033 C57.6722307,61.8056033 55.2522307,60.6626033 53.8022307,58.5126033 C52.6372307,56.7856033 52.2652307,54.6756033 52.7532307,52.5726033 C53.2392307,50.4786033 54.5222307,48.6416033 56.3632307,47.3996033 C58.2052307,46.1576033 60.3892307,45.6546033 62.5112307,45.9896033 C64.6452307,46.3246033 66.4622307,47.4606033 67.6272307,49.1886033 C68.7922307,50.9166033 69.1642307,53.0256033 68.6752307,55.1286033 C68.1892307,57.2206033 66.9052307,59.0576033 65.0642307,60.2996033 C63.5572307,61.3166033 61.8552307,61.8046033 60.2002307,61.8056033 L60.2002307,61.8056033 Z" id="Fill-379" fill="#141117"></path>
                        <path d="M42.8782307,27.4073033 C46.4042307,25.0283033 51.1122307,25.8403033 53.3922307,29.2193033 C55.6712307,32.5973033 54.6592307,37.2643033 51.1322307,39.6433033 C47.6062307,42.0223033 42.8982307,41.2113033 40.6202307,37.8323033 C38.3412307,34.4533033 39.3522307,29.7863033 42.8782307,27.4073033" id="Fill-380" fill="#E32027"></path>
                        <path d="M42.8782307,27.4073033 C46.4042307,25.0283033 51.1122307,25.8403033 53.3922307,29.2193033 C55.6712307,32.5973033 54.6592307,37.2643033 51.1322307,39.6433033 C47.6062307,42.0223033 42.8982307,41.2113033 40.6202307,37.8323033 C38.3412307,34.4533033 39.3522307,29.7863033 42.8782307,27.4073033" id="Fill-381" fill="#F26650"></path>
                        <path d="M47.2904307,26.4415033 C45.8174307,26.4415033 44.3654307,26.8855033 43.1024307,27.7395033 C39.7644307,29.9905033 38.8004307,34.4185033 40.9524307,37.6085033 C41.9924307,39.1515033 43.5994307,40.1795033 45.4764307,40.5035033 C47.3624307,40.8275033 49.2894307,40.4055033 50.9084307,39.3115033 C52.5284307,38.2195033 53.6444307,36.5885033 54.0484307,34.7215033 C54.4524307,32.8605033 54.1014307,30.9855033 53.0604307,29.4425033 C52.0194307,27.8995033 50.4124307,26.8715033 48.5344307,26.5475033 C48.1214307,26.4765033 47.7054307,26.4415033 47.2904307,26.4415033 M46.7214307,41.4095033 C46.2614307,41.4095033 45.7994307,41.3705033 45.3404307,41.2915033 C43.2454307,40.9305033 41.4514307,39.7815033 40.2884307,38.0555033 C37.8904307,34.5005033 38.9514307,29.5745033 42.6544307,27.0755033 C44.4464307,25.8675033 46.5864307,25.4005033 48.6704307,25.7595033 C50.7654307,26.1205033 52.5604307,27.2695033 53.7244307,28.9955033 C54.8874307,30.7205033 55.2804307,32.8145033 54.8304307,34.8905033 C54.3824307,36.9615033 53.1474307,38.7665033 51.3554307,39.9755033 C49.9584307,40.9185033 48.3524307,41.4095033 46.7214307,41.4095033" id="Fill-382" fill="#141117"></path>
                        <path d="M47.7132307,38.6066033 C51.3472307,36.1556033 56.1412307,36.9066033 58.4212307,40.2856033 C60.7002307,43.6646033 59.6012307,48.3916033 55.9662307,50.8426033 C52.3322307,53.2946033 47.5372307,52.5426033 45.2582307,49.1636033 C42.9812307,45.7846033 44.0782307,41.0576033 47.7132307,38.6066033" id="Fill-383" fill="#E32027"></path>
                        <path d="M47.7132307,38.6066033 C51.3472307,36.1556033 56.1412307,36.9066033 58.4212307,40.2856033 C60.7002307,43.6646033 59.6012307,48.3916033 55.9662307,50.8426033 C52.3322307,53.2946033 47.5372307,52.5426033 45.2582307,49.1636033 C42.9812307,45.7846033 44.0782307,41.0576033 47.7132307,38.6066033" id="Fill-384" fill="#F26650"></path>
                        <path d="M52.3552307,37.5686033 C50.8542307,37.5686033 49.3082307,38.0136033 47.9372307,38.9386033 C44.4912307,41.2616033 43.4392307,45.7486033 45.5902307,48.9396033 C47.7422307,52.1306033 52.2962307,52.8346033 55.7422307,50.5106033 C57.4162307,49.3816033 58.5812307,47.7166033 59.0222307,45.8216033 C59.4602307,43.9366033 59.1292307,42.0496033 58.0892307,40.5086033 C56.7932307,38.5876033 54.6262307,37.5686033 52.3552307,37.5686033 L52.3552307,37.5686033 Z M51.3262307,52.6806033 C48.7972307,52.6806033 46.3772307,51.5376033 44.9262307,49.3866033 C42.5282307,45.8296033 43.6792307,40.8446033 47.4892307,38.2746033 C51.3002307,35.7036033 56.3532307,36.5056033 58.7532307,40.0616033 C59.9182307,41.7896033 60.2902307,43.8986033 59.8012307,46.0026033 C59.3152307,48.0956033 58.0312307,49.9326033 56.1902307,51.1746033 C54.6832307,52.1916033 52.9812307,52.6806033 51.3262307,52.6806033 L51.3262307,52.6806033 Z" id="Fill-385" fill="#141117"></path>
                        <path d="M62.0052307,36.1359033 C63.4472307,34.4909033 63.1002307,31.4529033 59.8782307,28.6299033 C55.3542307,24.6649033 48.5672307,27.9439033 46.4602307,29.8259033 C50.0702307,29.4439033 50.0712307,32.9909033 53.8352307,36.2879033 C57.9082307,39.8569033 60.8762307,37.4259033 62.0052307,36.1359033" id="Fill-386" fill="#E32027"></path>
                        <path d="M62.0052307,36.1359033 C63.4472307,34.4909033 63.1002307,31.4529033 59.8782307,28.6299033 C55.3542307,24.6649033 48.5672307,27.9439033 46.4602307,29.8259033 C50.0702307,29.4439033 50.0712307,32.9909033 53.8352307,36.2879033 C57.9082307,39.8569033 60.8762307,37.4259033 62.0052307,36.1359033" id="Fill-387" fill="#68C184"></path>
                        <path d="M47.6273307,29.4454033 C49.2393307,29.6994033 50.0703307,30.9154033 51.0723307,32.3844033 C51.8303307,33.4944033 52.6893307,34.7524033 54.0993307,35.9874033 C55.7623307,37.4444033 57.3873307,37.9984033 58.9343307,37.6444033 C60.2653307,37.3354033 61.2413307,36.4014033 61.7043307,35.8724033 C62.3603307,35.1234033 62.5723307,34.0734033 62.3013307,32.9164033 C61.9853307,31.5734033 61.0573307,30.1944033 59.6143307,28.9304033 C55.7713307,25.5624033 50.1813307,27.7604033 47.6273307,29.4454033 M58.0083307,38.5504033 C56.5493307,38.5504033 55.0623307,37.8944033 53.5713307,36.5894033 C52.0853307,35.2874033 51.1573307,33.9274033 50.4123307,32.8354033 C49.2113307,31.0764033 48.4863307,30.0174033 46.5023307,30.2234033 C46.3313307,30.2484033 46.1653307,30.1454033 46.0953307,29.9884033 C46.0233307,29.8304033 46.0643307,29.6434033 46.1933307,29.5284033 C48.2183307,27.7164033 55.2843307,24.0734033 60.1423307,28.3294033 C61.7103307,29.7044033 62.7273307,31.2264033 63.0803307,32.7334033 C63.4123307,34.1494033 63.1383307,35.4514033 62.3063307,36.3994033 C61.6633307,37.1334033 60.5873307,38.0824033 59.1143307,38.4244033 C58.7483307,38.5084033 58.3793307,38.5504033 58.0083307,38.5504033" id="Fill-388" fill="#141117"></path>
                        <path d="M62.7132307,37.4191033 C64.9962307,36.5051033 68.0902307,38.0051033 69.8822307,42.4781033 C72.4012307,48.7571033 66.3882307,54.7341033 63.6052307,56.2671033 C65.3592307,52.5801033 61.5962307,51.2541033 59.5012307,46.0291033 C57.2342307,40.3761033 60.9232307,38.1361033 62.7132307,37.4191033" id="Fill-389" fill="#E32027"></path>
                        <path d="M62.7132307,37.4191033 C64.9962307,36.5051033 68.0902307,38.0051033 69.8822307,42.4781033 C72.4012307,48.7571033 66.3882307,54.7341033 63.6052307,56.2671033 C65.3592307,52.5801033 61.5962307,51.2541033 59.5012307,46.0291033 C57.2342307,40.3761033 60.9232307,38.1361033 62.7132307,37.4191033" id="Fill-390" fill="#68C184"></path>
                        <path d="M62.8616307,37.7902033 C62.1216307,38.0872033 60.7556307,38.7792033 59.9236307,40.0882033 C58.9576307,41.6062033 58.9406307,43.5562033 59.8726307,45.8812033 C60.6596307,47.8432033 61.6756307,49.2272033 62.5726307,50.4472033 C63.7766307,52.0862033 64.7686307,53.4362033 64.3696307,55.2882033 C67.1126307,53.2502033 71.6876307,48.0552033 69.5106307,42.6262033 C67.7326307,38.1862033 64.8156307,37.0082033 62.8616307,37.7902033 M63.6046307,56.6672033 C63.5056307,56.6672033 63.4066307,56.6292033 63.3306307,56.5582033 C63.2046307,56.4382033 63.1696307,56.2522033 63.2436307,56.0952033 C64.2206307,54.0422033 63.3576307,52.8672033 61.9276307,50.9212033 C61.0486307,49.7242033 59.9546307,48.2342033 59.1306307,46.1782033 C58.0966307,43.6012033 58.1356307,41.4072033 59.2486307,39.6582033 C60.1526307,38.2352033 61.5506307,37.4532033 62.5646307,37.0482033 C64.8746307,36.1252033 68.2686307,37.3772033 70.2536307,42.3292033 C72.9446307,49.0372033 66.4636307,55.1492033 63.7986307,56.6172033 C63.7376307,56.6502033 63.6716307,56.6672033 63.6046307,56.6672033" id="Fill-391" fill="#141117"></path>
                        <path d="M61.3851307,37.2823033 C60.8421307,36.4753033 60.7801307,35.5673033 61.2481307,35.2523033 L74.1191307,26.5693033 C74.5871307,26.2543033 75.4061307,26.6513033 75.9501307,27.4583033 C76.4951307,28.2643033 76.5571307,29.1733033 76.0891307,29.4893033 L63.2161307,38.1713033 C62.7481307,38.4873033 61.9291307,38.0903033 61.3851307,37.2823033" id="Fill-392" fill="#E32027"></path>
                        <path d="M61.3851307,37.2823033 C60.8421307,36.4753033 60.7801307,35.5673033 61.2481307,35.2523033 L74.1191307,26.5693033 C74.5871307,26.2543033 75.4061307,26.6513033 75.9501307,27.4583033 C76.4951307,28.2643033 76.5571307,29.1733033 76.0891307,29.4893033 L63.2161307,38.1713033 C62.7481307,38.4873033 61.9291307,38.0903033 61.3851307,37.2823033" id="Fill-393" fill="#68C184"></path>
                        <path d="M61.7171307,37.0587033 C62.0051307,37.4867033 62.4041307,37.8047033 62.7361307,37.8697033 C62.8091307,37.8837033 62.9161307,37.8917033 62.9921307,37.8397033 L75.8651307,29.1577033 C76.0751307,29.0157033 76.0841307,28.3707033 75.6191307,27.6817033 C75.1541307,26.9927033 74.5541307,26.7587033 74.3431307,26.9017033 L61.4721307,35.5837033 C61.3711307,35.6517033 61.3211307,35.8287033 61.3361307,36.0557033 C61.3581307,36.3657033 61.4961307,36.7307033 61.7171307,37.0587033 M62.8401307,38.6797033 C62.7571307,38.6797033 62.6711307,38.6707033 62.5831307,38.6547033 C62.0381307,38.5487033 61.4661307,38.1197033 61.0531307,37.5057033 C60.7521307,37.0577033 60.5691307,36.5627033 60.5381307,36.1107033 C60.5021307,35.5857033 60.6801307,35.1527033 61.0251307,34.9197033 L73.8961307,26.2377033 C74.5571307,25.7927033 75.6061307,26.2307033 76.2821307,27.2347033 C76.9601307,28.2377033 76.9741307,29.3737033 76.3131307,29.8207033 L63.4401307,38.5027033 C63.2661307,38.6207033 63.0621307,38.6797033 62.8401307,38.6797033" id="Fill-394" fill="#141117"></path>
                        <path d="M62.6546307,37.8282033 C62.3306307,35.6652033 59.7876307,33.9672033 55.5506307,34.6012033 C49.6016307,35.4932033 47.7166307,42.7912033 47.7956307,45.6162033 C49.8346307,42.6132033 52.5426307,44.9052033 57.4916307,44.1632033 C62.8476307,43.3612033 62.9086307,39.5232033 62.6546307,37.8282033" id="Fill-395" fill="#E32027"></path>
                        <path d="M62.6546307,37.8282033 C62.3306307,35.6652033 59.7876307,33.9672033 55.5506307,34.6012033 C49.6016307,35.4932033 47.7166307,42.7912033 47.7956307,45.6162033 C49.8346307,42.6132033 52.5426307,44.9052033 57.4916307,44.1632033 C62.8476307,43.3612033 62.9086307,39.5232033 62.6546307,37.8282033" id="Fill-396" fill="#68C184"></path>
                        <path d="M57.3060307,34.8644033 C56.7820307,34.8644033 56.2170307,34.9064033 55.6110307,34.9974033 C50.5520307,35.7554033 48.6190307,41.4414033 48.2580307,44.4804033 C49.4930307,43.4124033 50.9570307,43.5664033 52.7260307,43.7494033 C54.0630307,43.8884033 55.5790307,44.0454033 57.4320307,43.7674033 C59.6200307,43.4404033 61.0970307,42.5584033 61.8220307,41.1484033 C62.4450307,39.9324033 62.3640307,38.5844033 62.2590307,37.8874033 C62.0250307,36.3224033 60.3850307,34.8644033 57.3060307,34.8644033 M47.7950307,46.0164033 C47.7580307,46.0164033 47.7200307,46.0104033 47.6830307,46.0004033 C47.5160307,45.9514033 47.4000307,45.8014033 47.3960307,45.6274033 C47.3210307,42.9134033 49.1000307,35.1644033 55.4920307,34.2064033 C60.2140307,33.4964033 62.7180307,35.5564033 63.0500307,37.7684033 C63.1950307,38.7354033 63.2230307,40.1704033 62.5330307,41.5134033 C61.6840307,43.1664033 60.0080307,44.1904033 57.5510307,44.5584033 C55.5950307,44.8504033 53.9580307,44.6804033 52.6440307,44.5454033 C50.5250307,44.3234033 49.2450307,44.1914033 48.1260307,45.8414033 C48.0500307,45.9524033 47.9250307,46.0164033 47.7950307,46.0164033" id="Fill-397" fill="#141117"></path>
                        <path d="M76.0892307,29.4864033 C75.6222307,29.8014033 74.8032307,29.4044033 74.2592307,28.5994033 C73.7182307,27.7944033 73.6552307,26.8854033 74.1222307,26.5704033 C74.5902307,26.2564033 75.4082307,26.6534033 75.9512307,27.4594033 C76.4942307,28.2634033 76.5552307,29.1704033 76.0892307,29.4864033" id="Fill-398" fill="#E32027"></path>
                        <path d="M76.0892307,29.4864033 C75.6222307,29.8014033 74.8032307,29.4044033 74.2592307,28.5994033 C73.7182307,27.7944033 73.6552307,26.8854033 74.1222307,26.5704033 C74.5902307,26.2564033 75.4082307,26.6534033 75.9512307,27.4594033 C76.4942307,28.2634033 76.5552307,29.1704033 76.0892307,29.4864033" id="Fill-399" fill="#68C184"></path>
                        <path d="M74.4984307,26.8634033 C74.4364307,26.8634033 74.3844307,26.8764033 74.3464307,26.9024033 C74.1374307,27.0434033 74.1284307,27.6874033 74.5914307,28.3774033 C75.0544307,29.0614033 75.6514307,29.2994033 75.8644307,29.1554033 C76.0734307,29.0124033 76.0824307,28.3684033 75.6194307,27.6824033 C75.2414307,27.1224033 74.7724307,26.8634033 74.4984307,26.8634033 M75.7214307,29.9924033 C75.1244307,29.9924033 74.4264307,29.5604033 73.9284307,28.8234033 C73.2534307,27.8184033 73.2404307,26.6834033 73.8984307,26.2394033 C74.5604307,25.7924033 75.6064307,26.2314033 76.2834307,27.2354033 C76.9584307,28.2364033 76.9724307,29.3704033 76.3134307,29.8174033 L76.3124307,29.8174033 C76.1384307,29.9354033 75.9354307,29.9924033 75.7214307,29.9924033" id="Fill-400" fill="#141117"></path>
                        <path d="M60.4359307,35.5138033 C55.8579307,29.6208033 48.6929307,29.3218033 46.6169307,30.1968033 L46.3059307,29.4578033 C49.0539307,28.3058033 56.5409307,29.1978033 61.0669307,35.0238033 L60.4359307,35.5138033 Z M63.9439307,56.4778033 L63.2659307,56.0538033 C68.8389307,47.1328033 67.0969307,44.5758033 62.8859307,38.3968033 L63.5469307,37.9458033 C67.8369307,44.2418033 69.7939307,47.1148033 63.9439307,56.4778033 L63.9439307,56.4778033 Z" id="Fill-401" fill="#141117"></path>
                        <path d="M47.7952307,46.0167033 C47.7512307,46.0167033 47.7052307,46.0087033 47.6612307,45.9937033 C47.4532307,45.9187033 47.3442307,45.6907033 47.4182307,45.4827033 C48.1672307,43.3707033 54.8692307,34.8497033 61.8982307,35.7377033 C62.1162307,35.7647033 62.2732307,35.9637033 62.2442307,36.1837033 C62.2182307,36.4027033 62.0072307,36.5637033 61.7982307,36.5307033 C55.4952307,35.7617033 48.9662307,43.5117033 48.1722307,45.7497033 C48.1132307,45.9137033 47.9602307,46.0167033 47.7952307,46.0167033" id="Fill-402" fill="#141117"></path>
                    </g>
                </g>
            </g>
        </g>
    </g>
</svg>