<?xml version="1.0" encoding="UTF-8"?>
<svg width="101px" height="101px" viewBox="0 0 101 101" version="1.1" xmlns="http://www.w3.org/2000/svg" xmlns:xlink="http://www.w3.org/1999/xlink">
    <!-- Generator: Sketch 57.1 (83088) - https://sketch.com -->
    <title>Sulfatos</title>
    <desc>Created with Sketch.</desc>
    <g id="Page-1" stroke="none" stroke-width="1" fill="none" fill-rule="evenodd">
        <g id="Home" transform="translate(-839.000000, -3873.000000)">
            <g id="no-contiene" transform="translate(0.000000, 3701.000000)">
                <g id="stickers" transform="translate(71.000000, 20.000000)">
                    <g id="Sulfatos" transform="translate(768.663300, 152.891500)">
                        <g id="Group-7">
                            <path d="M99.6531,50.0772 C99.6531,77.4572 77.4571,99.6532 50.0761,99.6532 C22.6961,99.6532 0.5001,77.4572 0.5001,50.0772 C0.5001,22.6962 22.6961,0.5002 50.0761,0.5002 C77.4571,0.5002 99.6531,22.6962 99.6531,50.0772" id="Fill-244" stroke="#0A0A0A" stroke-width="0.8" fill="#FBDCE7"></path>
                            <path d="M21.3269,25.6934 L22.4039,24.6564 C23.2159,25.5004 24.1899,25.5374 25.0049,24.7524 C25.7169,24.0664 25.7949,23.3604 25.2259,22.7694 C24.7489,22.2734 24.2709,22.2464 23.2419,22.6584 L21.7599,23.2554 C20.6289,23.7304 19.6289,23.5544 18.8269,22.7214 C17.7989,21.6534 17.9569,20.0924 19.1939,18.9024 C20.5059,17.6394 22.1429,17.6164 23.3239,18.8434 L22.2469,19.8804 C21.5609,19.1684 20.7799,19.1444 20.0399,19.8564 C19.4219,20.4524 19.3719,21.1134 19.8499,21.6094 C20.2829,22.0594 20.8899,22.0524 21.9559,21.6224 L23.2999,21.0874 C24.4489,20.6314 25.4209,20.8144 26.2769,21.7054 C27.3589,22.8294 27.2189,24.4264 25.9159,25.6794 C24.3979,27.1404 22.7329,27.1554 21.3269,25.6934" id="Fill-246" fill="#000000"></path>
                            <path d="M25.0857,18.1436 L26.2177,17.3126 L29.8017,22.1976 L28.6687,23.0286 L25.0857,18.1436 Z M23.4947,16.5686 C23.1487,16.0966 23.2177,15.4656 23.7217,15.0966 C24.2247,14.7276 24.8477,14.8516 25.1927,15.3236 C25.5387,15.7946 25.4707,16.4256 24.9667,16.7946 C24.4637,17.1646 23.8407,17.0396 23.4947,16.5686 L23.4947,16.5686 Z" id="Fill-247" fill="#000000"></path>
                            <path d="M27.9207,16.0654 L29.1667,15.3904 L29.5687,16.1334 C29.5907,15.3814 30.0407,14.7394 30.8287,14.3114 C32.1087,13.6184 33.1627,13.9784 33.9187,15.3734 L35.7327,18.7214 L34.4877,19.3964 L32.9827,16.6194 C32.3687,15.4884 31.8057,15.1574 30.9377,15.6284 C30.1257,16.0684 29.9597,16.8534 30.4677,17.7904 L32.0537,20.7154 L30.8077,21.3914 L27.9207,16.0654 Z" id="Fill-248" fill="#000000"></path>
                            <path d="M38.5359,15.6992 L39.9119,15.3582 C40.0369,15.8632 40.6159,16.0952 41.3229,15.9192 C41.8409,15.7912 42.0989,15.4312 41.9969,15.0152 C41.9149,14.6872 41.7259,14.5202 41.0549,14.5122 L39.8029,14.4882 C38.9269,14.4642 38.3119,13.9862 38.1059,13.1532 C37.8589,12.1572 38.6239,11.1902 39.9359,10.8652 C41.3749,10.5092 42.4309,10.9832 42.7119,12.1192 L41.3609,12.4542 C41.2399,11.9622 40.7889,11.7652 40.1449,11.9252 C39.6529,12.0472 39.3619,12.3862 39.4499,12.7402 C39.5279,13.0552 39.7709,13.2232 40.3509,13.2402 L41.6089,13.2902 C42.5019,13.3232 43.1819,13.7982 43.3879,14.6312 C43.6729,15.7792 42.9449,16.6822 41.5189,17.0362 C40.0809,17.3922 38.8139,16.8222 38.5359,15.6992" id="Fill-249" fill="#000000"></path>
                            <path d="M44.3748,13.9219 L44.1058,10.1219 L45.5208,10.0229 L45.7638,13.4729 C45.8328,14.4449 46.1848,14.9939 47.1048,14.9289 C48.1818,14.8529 48.5208,14.1119 48.4588,13.2429 L48.2188,9.8319 L49.6318,9.7329 L50.0588,15.7759 L48.6448,15.8759 L48.5858,15.0329 C48.2678,15.7069 47.6568,16.1019 46.7878,16.1629 C45.4648,16.2569 44.4888,15.5439 44.3748,13.9219" id="Fill-250" fill="#000000"></path>
                            <polygon id="Fill-251" fill="#000000" points="51.9187 6.8281 53.3327 6.9181 52.7557 15.9971 51.3427 15.9071"></polygon>
                            <path d="M57.1814,9.5576 L57.0344,10.4546 L58.5994,10.7126 L58.4084,11.8796 L56.8424,11.6226 L56.0524,16.4356 L54.6544,16.2056 L55.4444,11.3936 L54.2244,11.1936 L54.4164,10.0266 L55.6354,10.2256 L55.7794,9.3536 C56.0944,7.4286 57.5394,7.3756 58.1684,7.4786 C58.6044,7.5506 58.9044,7.6526 59.0864,7.7476 L58.8924,8.9286 C58.7024,8.8836 58.5544,8.8206 58.3494,8.7866 C57.9254,8.7176 57.3254,8.6846 57.1814,9.5576" id="Fill-252" fill="#000000"></path>
                            <path d="M63.2625,15.2813 C63.5905,14.2953 63.3155,13.2723 62.1675,12.8903 C61.1195,12.5413 60.2335,13.1083 59.8835,14.1573 C59.5345,15.2053 59.9055,16.1903 60.9525,16.5403 C62.0995,16.9223 62.9335,16.2673 63.2625,15.2813 M58.5395,13.7093 C59.1025,12.0203 60.6175,11.0463 62.4065,11.6403 C63.1705,11.8953 63.7455,12.4703 63.9105,13.1693 L64.1685,12.3923 L65.5005,12.8363 L63.5875,18.5813 L62.2565,18.1373 L62.5155,17.3613 C61.9645,17.8213 61.0605,17.9043 60.3585,17.6703 C58.5085,17.0543 57.9775,15.3983 58.5395,13.7093" id="Fill-253" fill="#000000"></path>
                            <path d="M68.2869,19.6514 L67.7089,20.7574 C67.4949,20.6894 67.1079,20.5314 66.7389,20.3384 C66.1289,20.0184 65.0419,19.3474 65.9879,17.5394 L67.2959,15.0394 L66.3859,14.5624 L66.9339,13.5144 L67.8449,13.9914 L68.6939,12.3664 L69.9499,13.0234 L69.0999,14.6474 L70.3329,15.2934 L69.7839,16.3404 L68.5519,15.6964 L67.3939,17.9084 C66.9059,18.8404 67.1339,19.1074 67.6299,19.3664 C67.8249,19.4684 68.1479,19.6084 68.2869,19.6514" id="Fill-254" fill="#000000"></path>
                            <path d="M73.7342,21.3164 C74.3912,20.4274 74.3672,19.3894 73.4472,18.7094 C72.5272,18.0284 71.5272,18.3074 70.8702,19.1964 C70.2132,20.0854 70.2372,21.1224 71.1572,21.8024 C72.0772,22.4834 73.0762,22.2044 73.7342,21.3164 M69.7302,18.3524 C70.7912,16.9204 72.5882,16.5044 74.1972,17.6954 C75.8072,18.8864 75.9332,20.7274 74.8732,22.1594 C73.8132,23.5904 72.0162,24.0074 70.4072,22.8164 C68.7972,21.6264 68.6712,19.7854 69.7302,18.3524" id="Fill-255" fill="#000000"></path>
                            <path d="M74.5857,23.5371 L75.5657,24.5611 C75.1897,24.9211 75.2767,25.5391 75.7797,26.0651 C76.1487,26.4511 76.5897,26.4981 76.8987,26.2011 C77.1447,25.9681 77.1947,25.7201 76.8677,25.1341 L76.2677,24.0341 C75.8527,23.2621 75.9617,22.4911 76.5817,21.8981 C77.3247,21.1881 78.5437,21.3721 79.4787,22.3501 C80.5027,23.4211 80.6147,24.5731 79.7697,25.3821 L78.8077,24.3771 C79.1747,24.0261 79.1207,23.5371 78.6627,23.0581 C78.3127,22.6911 77.8717,22.6081 77.6087,22.8591 C77.3737,23.0841 77.3497,23.3781 77.6227,23.8901 L78.2047,25.0071 C78.6197,25.7981 78.5457,26.6241 77.9257,27.2181 C77.0697,28.0351 75.9247,27.8531 74.9087,26.7911 C73.8847,25.7201 73.7497,24.3371 74.5857,23.5371" id="Fill-256" fill="#000000"></path>
                            <path d="M20.031,74.1221 L21.051,75.2161 C20.195,76.0141 20.142,76.9861 20.914,77.8131 C21.588,78.5361 22.293,78.6251 22.891,78.0661 C23.395,77.5971 23.43,77.1191 23.034,76.0851 L22.461,74.5941 C22.004,73.4551 22.195,72.4601 23.041,71.6711 C24.125,70.6601 25.682,70.8431 26.852,72.0981 C28.094,73.4291 28.092,75.0651 26.846,76.2271 L25.827,75.1341 C26.55,74.4601 26.586,73.6801 25.885,72.9291 C25.301,72.3011 24.64,72.2411 24.136,72.7111 C23.679,73.1371 23.677,73.7441 24.091,74.8151 L24.604,76.1671 C25.042,77.3231 24.843,78.2911 23.94,79.1331 C22.799,80.1971 21.205,80.0311 19.972,78.7101 C18.536,77.1701 18.548,75.5051 20.031,74.1221" id="Fill-257" fill="#000000"></path>
                            <path d="M28.6277,75.2832 C28.9947,74.8282 29.6227,74.7332 30.1077,75.1252 C30.5937,75.5162 30.6337,76.1502 30.2667,76.6052 C29.8987,77.0602 29.2717,77.1552 28.7857,76.7632 C28.3007,76.3722 28.2607,75.7382 28.6277,75.2832 L28.6277,75.2832 Z M27.5137,77.2232 L28.6057,78.1042 L24.8017,82.8192 L23.7087,81.9372 L27.5137,77.2232 Z" id="Fill-258" fill="#000000"></path>
                            <path d="M29.7439,79.0791 L30.9619,79.8051 L30.5289,80.5301 C31.1849,80.1651 31.9689,80.2231 32.7389,80.6821 C33.9899,81.4271 34.2189,82.5171 33.4069,83.8791 L31.4579,87.1511 L30.2399,86.4271 L31.8569,83.7121 C32.5149,82.6061 32.5119,81.9531 31.6629,81.4471 C30.8699,80.9751 30.1099,81.2341 29.5639,82.1491 L27.8609,85.0091 L26.6439,84.2841 L29.7439,79.0791 Z" id="Fill-259" fill="#000000"></path>
                            <path d="M37.0984,87.502 L38.4654,87.877 C38.3284,88.378 38.7214,88.863 39.4234,89.056 C39.9384,89.196 40.3394,89.01 40.4524,88.596 C40.5424,88.27 40.4594,88.031 39.8764,87.696 L38.7964,87.064 C38.0424,86.614 37.7404,85.898 37.9664,85.07 C38.2384,84.079 39.3774,83.609 40.6824,83.967 C42.1124,84.358 42.8014,85.288 42.4924,86.417 L41.1504,86.05 C41.2844,85.561 40.9874,85.169 40.3474,84.994 C39.8584,84.86 39.4384,85.015 39.3414,85.366 C39.2554,85.68 39.3854,85.944 39.8834,86.242 L40.9574,86.9 C41.7204,87.365 42.0814,88.111 41.8554,88.939 C41.5424,90.081 40.4674,90.515 39.0494,90.126 C37.6194,89.734 36.7924,88.618 37.0984,87.502" id="Fill-260" fill="#000000"></path>
                            <path d="M43.6961,88.7725 L44.0221,84.9765 L45.4341,85.0985 L45.1371,88.5435 C45.0541,89.5155 45.3161,90.1125 46.2361,90.1915 C47.3111,90.2845 47.7611,89.6055 47.8361,88.7375 L48.1291,85.3305 L49.5411,85.4515 L49.0211,91.4885 L47.6091,91.3675 L47.6821,90.5245 C47.2631,91.1415 46.5981,91.4365 45.7311,91.3625 C44.4091,91.2485 43.5561,90.3915 43.6961,88.7725" id="Fill-261" fill="#000000"></path>
                            <polygon id="Fill-262" fill="#000000" points="50.8621 82.2901 52.2771 82.2121 52.7791 91.3021 51.3641 91.3801"></polygon>
                            <path d="M55.8045,83.9121 L55.9505,84.8091 L57.5155,84.5571 L57.7045,85.7241 L56.1395,85.9771 L56.9175,90.7901 L55.5185,91.0161 L54.7405,86.2041 L53.5215,86.4011 L53.3325,85.2331 L54.5515,85.0361 L54.4095,84.1641 C54.0995,82.2381 55.4515,81.7301 56.0805,81.6291 C56.5175,81.5581 56.8335,81.5591 57.0365,81.5931 L57.2275,82.7731 C57.0335,82.7911 56.8725,82.7771 56.6665,82.8101 C56.2435,82.8801 55.6635,83.0391 55.8045,83.9121" id="Fill-263" fill="#000000"></path>
                            <path d="M63.3992,85.8877 C63.0662,84.9027 62.2282,84.2527 61.0832,84.6397 C60.0372,84.9937 59.6702,85.9827 60.0252,87.0297 C60.3782,88.0757 61.2692,88.6387 62.3162,88.2847 C63.4612,87.8977 63.7322,86.8727 63.3992,85.8877 M58.6822,87.4837 C58.1122,85.7957 58.7332,84.1037 60.5192,83.4997 C61.2832,83.2417 62.0882,83.3537 62.6412,83.8107 L62.3782,83.0347 L63.7092,82.5847 L65.6502,88.3237 L64.3202,88.7737 L64.0582,87.9977 C63.8962,88.6977 63.2252,89.3087 62.5232,89.5457 C60.6762,90.1707 59.2532,89.1697 58.6822,87.4837" id="Fill-264" fill="#000000"></path>
                            <path d="M70.3904,84.4307 L70.9874,85.5267 C70.8114,85.6657 70.4644,85.8997 70.0994,86.0977 C69.4944,86.4277 68.3324,86.9557 67.3584,85.1637 L66.0104,82.6877 L65.1084,83.1777 L64.5434,82.1397 L65.4454,81.6487 L64.5694,80.0387 L65.8134,79.3627 L66.6894,80.9717 L67.9114,80.3077 L68.4754,81.3457 L67.2544,82.0107 L68.4474,84.2017 C68.9504,85.1257 69.2974,85.0847 69.7874,84.8187 C69.9824,84.7127 70.2784,84.5227 70.3904,84.4307" id="Fill-265" fill="#000000"></path>
                            <path d="M74.323,79.3662 C73.645,78.4932 72.639,78.2372 71.735,78.9392 C70.832,79.6412 70.832,80.6792 71.51,81.5532 C72.188,82.4262 73.194,82.6812 74.097,81.9792 C75.002,81.2772 75.002,80.2392 74.323,79.3662 M70.39,82.4232 C69.297,81.0152 69.38,79.1732 70.962,77.9432 C72.543,76.7152 74.349,77.0902 75.443,78.4962 C76.536,79.9032 76.453,81.7462 74.872,82.9752 C73.291,84.2042 71.484,83.8292 70.39,82.4232" id="Fill-266" fill="#000000"></path>
                            <path d="M77.0838,78.4756 L78.0278,77.4186 C78.4158,77.7656 79.0248,77.6306 79.5108,77.0876 C79.8658,76.6906 79.8778,76.2476 79.5588,75.9616 C79.3068,75.7366 79.0568,75.7046 78.4968,76.0766 L77.4478,76.7606 C76.7108,77.2346 75.9348,77.1856 75.2948,76.6146 C74.5298,75.9286 74.6178,74.7006 75.5198,73.6926 C76.5068,72.5876 77.6458,72.3856 78.5188,73.1656 L77.5918,74.2036 C77.2138,73.8646 76.7298,73.9556 76.2888,74.4506 C75.9508,74.8286 75.9018,75.2726 76.1728,75.5156 C76.4148,75.7326 76.7098,75.7346 77.1988,75.4206 L78.2668,74.7536 C79.0218,74.2796 79.8518,74.2886 80.4908,74.8606 C81.3728,75.6496 81.2808,76.8056 80.3018,77.9006 C79.3128,79.0046 77.9458,79.2466 77.0838,78.4756" id="Fill-267" fill="#000000"></path>
                            <path d="M77.1951,45.7412 C77.1951,48.7952 76.1201,51.9642 74.1981,55.1892 C72.5551,57.7342 70.3491,60.3372 67.4641,62.9382 C62.4281,67.5782 56.6011,71.2552 53.4321,73.2372 C52.5851,73.6882 51.6811,74.3122 51.4541,74.5362 C50.9461,74.9312 50.3791,75.1592 49.8111,75.1592 C49.1921,75.1592 48.6251,74.9312 48.1731,74.5362 C47.9451,74.3122 46.9861,73.6882 46.1341,73.2372 C43.0251,71.2552 37.1381,67.5782 32.1631,62.9382 C29.2781,60.3372 27.0721,57.7342 25.4291,55.1892 C23.4511,51.9642 22.4311,48.7952 22.4311,45.7412 C22.4311,34.3112 30.6921,30.2392 37.7061,30.2392 C42.2901,30.2392 46.9861,32.2182 49.8111,36.0102 C52.6971,32.2182 57.2811,30.2392 61.8651,30.2392 C64.0711,30.2392 68.3151,30.6902 71.8201,33.4652 C73.5181,34.7622 74.8171,36.4052 75.7241,38.3282 C76.6871,40.4782 77.1951,42.9122 77.1951,45.7412" id="Fill-268" fill="#F26650"></path>
                            <path d="M37.7058,30.6397 C30.8448,30.6397 22.8318,34.5947 22.8318,45.7417 C22.8318,48.6927 23.8198,51.8007 25.7698,54.9807 C27.4648,57.6057 29.7068,60.1857 32.4308,62.6417 C37.1578,67.0497 42.6358,70.5357 45.9088,72.6187 L46.3498,72.9007 C47.1628,73.3287 48.1788,73.9807 48.4528,74.2507 C49.1688,74.8757 50.2578,74.9617 51.2078,74.2207 C51.4498,73.9787 52.3948,73.3357 53.2448,72.8837 C56.0958,71.0997 62.0788,67.3567 67.1918,62.6447 C69.9198,60.1857 72.1628,57.6057 73.8618,54.9727 C75.8058,51.7097 76.7948,48.5997 76.7948,45.7417 C76.7948,43.0207 76.3248,40.6497 75.3588,38.4917 C74.4698,36.6067 73.1958,35.0207 71.5768,33.7827 C67.9928,30.9457 63.5918,30.6397 61.8648,30.6397 C57.1908,30.6397 52.8048,32.7377 50.1298,36.2517 L49.8088,36.6747 L49.4908,36.2487 C46.8738,32.7367 42.4688,30.6397 37.7058,30.6397 M49.8108,75.5597 C49.1068,75.5597 48.4488,75.3097 47.9088,74.8367 C47.7148,74.6467 46.8188,74.0527 45.9468,73.5907 L45.4788,73.2937 C42.1838,71.1967 36.6668,67.6847 31.8908,63.2317 C29.1188,60.7327 26.8308,58.0977 25.0938,55.4067 C23.0598,52.0917 22.0308,48.8417 22.0308,45.7417 C22.0308,34.0037 30.4758,29.8387 37.7058,29.8387 C42.5318,29.8387 47.0178,31.8947 49.8138,35.3617 C52.6608,31.8947 57.1258,29.8387 61.8648,29.8387 C63.6748,29.8387 68.2918,30.1617 72.0678,33.1517 C73.7848,34.4627 75.1388,36.1487 76.0858,38.1577 C77.1018,40.4277 77.5958,42.9057 77.5958,45.7417 C77.5958,48.7457 76.5678,51.9937 74.5418,55.3947 C72.7968,58.0987 70.5078,60.7327 67.7308,63.2357 C62.5658,67.9947 56.5408,71.7647 53.6438,73.5767 C52.7638,74.0467 51.9118,74.6467 51.7338,74.8217 C51.1048,75.3147 50.4528,75.5597 49.8108,75.5597" id="Fill-269" fill="#232020"></path>
                            <path d="M42.3191,47.0459 C42.2611,47.0459 42.2031,47.0329 42.1481,47.0069 C41.9481,46.9119 41.8631,46.6739 41.9581,46.4749 L44.6371,40.8179 C44.7321,40.6179 44.9731,40.5319 45.1701,40.6279 C45.3701,40.7229 45.4551,40.9609 45.3601,41.1599 L42.6801,46.8169 C42.6121,46.9609 42.4681,47.0459 42.3191,47.0459" id="Fill-270" fill="#232020"></path>
                            <path d="M42.3191,47.0459 C42.0981,47.0459 41.9191,46.8659 41.9191,46.6459 L41.9191,40.4259 C41.9191,40.2049 42.0981,40.0249 42.3191,40.0249 C42.5401,40.0249 42.7191,40.2049 42.7191,40.4259 L42.7191,46.6459 C42.7191,46.8659 42.5401,47.0459 42.3191,47.0459" id="Fill-271" fill="#232020"></path>
                            <path d="M42.3191,47.0459 C42.2311,47.0459 42.1431,47.0169 42.0701,46.9579 L37.2051,43.0809 C37.0321,42.9429 37.0041,42.6919 37.1411,42.5199 C37.2801,42.3459 37.5331,42.3189 37.7031,42.4559 L42.5681,46.3329 C42.7411,46.4709 42.7691,46.7219 42.6311,46.8949 C42.5521,46.9939 42.4361,47.0459 42.3191,47.0459" id="Fill-272" fill="#232020"></path>
                            <path d="M42.3191,47.0459 C42.1701,47.0459 42.0261,46.9609 41.9581,46.8169 L39.2771,41.1599 C39.1821,40.9609 39.2671,40.7229 39.4671,40.6279 C39.6641,40.5319 39.9051,40.6179 40.0001,40.8179 L42.6801,46.4749 C42.7751,46.6739 42.6901,46.9119 42.4901,47.0069 C42.4351,47.0329 42.3771,47.0459 42.3191,47.0459" id="Fill-273" fill="#232020"></path>
                            <path d="M41.3396,57.0254 C41.3396,59.3714 39.4366,61.2744 37.0906,61.2744 C34.7426,61.2744 32.8406,59.3714 32.8406,57.0254 C32.8406,54.6784 34.7426,52.7744 37.0906,52.7744 C39.4366,52.7764 41.3396,54.6784 41.3396,57.0254" id="Fill-274" fill="#FBDDE8"></path>
                            <path d="M42.3181,47.0449 C42.2011,47.0449 42.0841,46.9929 42.0061,46.8939 C41.8681,46.7209 41.8961,46.4689 42.0691,46.3319 L46.9341,42.4579 C47.1041,42.3209 47.3581,42.3469 47.4961,42.5219 C47.6331,42.6939 47.6051,42.9459 47.4321,43.0829 L42.5671,46.9569 C42.4941,47.0159 42.4061,47.0449 42.3181,47.0449" id="Fill-275" fill="#232020"></path>
                            <path d="M51.6726,53.71 C51.4516,53.71 51.2726,53.53 51.2726,53.31 C51.2726,52.503 50.6166,51.848 49.8116,51.848 C49.0046,51.848 48.3496,52.503 48.3496,53.31 C48.3496,53.53 48.1696,53.71 47.9486,53.71 C47.7286,53.71 47.5486,53.53 47.5486,53.31 C47.5486,52.063 48.5646,51.047 49.8116,51.047 C51.0586,51.047 52.0726,52.063 52.0726,53.31 C52.0726,53.53 51.8936,53.71 51.6726,53.71" id="Fill-276" fill="#232020"></path>
                            <path d="M49.8113,60.711 C45.0533,60.711 44.0253,57.565 43.9843,57.432 C43.9183,57.221 44.0373,56.997 44.2483,56.932 C44.4573,56.862 44.6813,56.982 44.7483,57.193 C44.7843,57.307 45.6693,59.91 49.8113,59.91 C53.9533,59.91 54.8373,57.304 54.8733,57.193 C54.9403,56.983 55.1643,56.871 55.3743,56.933 C55.5843,56.999 55.7023,57.222 55.6363,57.432 C55.5953,57.565 54.5673,60.711 49.8113,60.711" id="Fill-277" fill="#232020"></path>
                        </g>
                        <path d="M42.3191,50.6729 C40.0971,50.6729 38.2921,48.8649 38.2921,46.6459 C38.2921,44.4239 40.0971,42.6159 42.3191,42.6159 C44.5391,42.6159 46.3461,44.4239 46.3461,46.6459 C46.3461,48.8649 44.5401,50.6729 42.3191,50.6729" id="Fill-278" fill="#FFFFFF"></path>
                        <path d="M42.3191,42.0322 C39.7701,42.0322 37.7051,44.0972 37.7051,46.6452 C37.7051,49.1922 39.7701,51.2592 42.3191,51.2592 C44.8671,51.2592 46.9321,49.1922 46.9321,46.6452 C46.9321,44.0972 44.8671,42.0322 42.3191,42.0322" id="Fill-279" fill="#232020"></path>
                        <path d="M42.3191,43.2031 C44.2161,43.2031 45.7611,44.7481 45.7611,46.6451 C45.7611,48.5441 44.2161,50.0871 42.3191,50.0871 C40.4211,50.0871 38.8761,48.5441 38.8761,46.6451 C38.8761,44.7481 40.4211,43.2031 42.3191,43.2031" id="Fill-280" fill="#FFFFFF"></path>
                        <path d="M44.8113,46.6895 C44.8113,48.0655 43.6963,49.1805 42.3183,49.1805 C40.9433,49.1805 39.8273,48.0655 39.8273,46.6895 C39.8273,45.3125 40.9433,44.1965 42.3183,44.1965 C43.6963,44.1975 44.8113,45.3135 44.8113,46.6895" id="Fill-281" fill="#232020"></path>
                        <path d="M43.1873,44.9512 C43.1873,44.4772 43.5713,44.0932 44.0443,44.0932 C44.5183,44.0932 44.9013,44.4772 44.9013,44.9512 C44.9013,45.4242 44.5183,45.8082 44.0443,45.8082 C43.5713,45.8082 43.1873,45.4242 43.1873,44.9512" id="Fill-282" fill="#FFFFFF"></path>
                        <path d="M57.3025,47.0459 C57.2445,47.0459 57.1865,47.0329 57.1315,47.0069 C56.9315,46.9119 56.8465,46.6739 56.9415,46.4749 L59.6205,40.8179 C59.7155,40.6179 59.9565,40.5319 60.1535,40.6279 C60.3535,40.7229 60.4385,40.9609 60.3435,41.1599 L57.6635,46.8169 C57.5955,46.9609 57.4515,47.0459 57.3025,47.0459" id="Fill-283" fill="#232020"></path>
                        <path d="M57.3025,47.0459 C57.0815,47.0459 56.9025,46.8659 56.9025,46.6459 L56.9025,40.4259 C56.9025,40.2049 57.0815,40.0249 57.3025,40.0249 C57.5235,40.0249 57.7025,40.2049 57.7025,40.4259 L57.7025,46.6459 C57.7025,46.8659 57.5235,47.0459 57.3025,47.0459" id="Fill-284" fill="#232020"></path>
                        <path d="M57.3025,47.0459 C57.2145,47.0459 57.1265,47.0169 57.0535,46.9579 L52.1885,43.0809 C52.0155,42.9429 51.9875,42.6919 52.1245,42.5199 C52.2635,42.3459 52.5155,42.3189 52.6865,42.4559 L57.5515,46.3329 C57.7245,46.4709 57.7525,46.7219 57.6145,46.8949 C57.5355,46.9939 57.4195,47.0459 57.3025,47.0459" id="Fill-285" fill="#232020"></path>
                        <path d="M57.3025,47.0459 C57.1535,47.0459 57.0095,46.9609 56.9415,46.8169 L54.2605,41.1599 C54.1655,40.9609 54.2505,40.7229 54.4505,40.6279 C54.6475,40.5319 54.8885,40.6179 54.9835,40.8179 L57.6635,46.4749 C57.7585,46.6739 57.6735,46.9119 57.4735,47.0069 C57.4185,47.0329 57.3605,47.0459 57.3025,47.0459" id="Fill-286" fill="#232020"></path>
                        <path d="M58.282,57.0254 C58.282,59.3714 60.184,61.2744 62.531,61.2744 C64.879,61.2744 66.781,59.3714 66.781,57.0254 C66.781,54.6784 64.879,52.7744 62.531,52.7744 C60.184,52.7764 58.282,54.6784 58.282,57.0254" id="Fill-287" fill="#FBDDE8"></path>
                        <path d="M57.3025,47.0459 C57.1855,47.0459 57.0695,46.9939 56.9905,46.8949 C56.8525,46.7219 56.8805,46.4709 57.0535,46.3329 L61.9175,42.4559 C62.0885,42.3179 62.3405,42.3449 62.4795,42.5199 C62.6165,42.6919 62.5885,42.9429 62.4155,43.0809 L57.5515,46.9579 C57.4785,47.0169 57.3905,47.0459 57.3025,47.0459" id="Fill-288" fill="#232020"></path>
                        <path d="M57.3025,50.6729 C55.0805,50.6729 53.2745,48.8649 53.2745,46.6459 C53.2745,44.4239 55.0805,42.6159 57.3025,42.6159 C59.5225,42.6159 61.3295,44.4239 61.3295,46.6459 C61.3295,48.8649 59.5225,50.6729 57.3025,50.6729" id="Fill-289" fill="#FFFFFF"></path>
                        <path d="M57.3025,42.0322 C54.7535,42.0322 52.6885,44.0972 52.6885,46.6452 C52.6885,49.1922 54.7535,51.2592 57.3025,51.2592 C59.8505,51.2592 61.9155,49.1922 61.9155,46.6452 C61.9155,44.0972 59.8505,42.0322 57.3025,42.0322" id="Fill-290" fill="#232020"></path>
                        <path d="M57.3025,43.2031 C59.1995,43.2031 60.7445,44.7481 60.7445,46.6451 C60.7445,48.5441 59.1995,50.0871 57.3025,50.0871 C55.4045,50.0871 53.8595,48.5441 53.8595,46.6451 C53.8595,44.7481 55.4045,43.2031 57.3025,43.2031" id="Fill-291" fill="#FFFFFF"></path>
                        <path d="M59.7947,46.6895 C59.7947,48.0655 58.6797,49.1805 57.3017,49.1805 C55.9267,49.1805 54.8107,48.0655 54.8107,46.6895 C54.8107,45.3125 55.9267,44.1965 57.3017,44.1965 C58.6797,44.1975 59.7947,45.3135 59.7947,46.6895" id="Fill-292" fill="#232020"></path>
                        <path d="M58.1707,44.9512 C58.1707,44.4772 58.5547,44.0932 59.0277,44.0932 C59.5017,44.0932 59.8857,44.4772 59.8857,44.9512 C59.8857,45.4242 59.5017,45.8082 59.0277,45.8082 C58.5547,45.8082 58.1707,45.4242 58.1707,44.9512" id="Fill-293" fill="#FFFFFF"></path>
                    </g>
                </g>
            </g>
        </g>
    </g>
</svg>