<?xml version="1.0" encoding="UTF-8"?>
<svg width="99px" height="119px" viewBox="0 0 99 119" version="1.1" xmlns="http://www.w3.org/2000/svg" xmlns:xlink="http://www.w3.org/1999/xlink">
    <!-- Generator: Sketch 57.1 (83088) - https://sketch.com -->
    <title>Crueldad</title>
    <desc>Created with Sketch.</desc>
    <g id="Page-1" stroke="none" stroke-width="1" fill="none" fill-rule="evenodd">
        <g id="Home" transform="translate(-1053.000000, -4038.000000)">
            <g id="no-contiene" transform="translate(0.000000, 3701.000000)">
                <g id="stickers" transform="translate(71.000000, 20.000000)">
                    <g id="Crueldad" transform="translate(982.076900, 317.407900)">
                        <path d="M69.4573,39.9787 L69.4573,9.3057 C69.4573,4.3877 65.4703,0.4007 60.5523,0.4007 C55.6343,0.4007 51.6463,4.3877 51.6463,9.3057 L51.6463,30.2077 C50.7663,30.1167 49.8753,30.0607 48.9703,30.0607 C48.0643,30.0607 47.1733,30.1167 46.2923,30.2077 L46.2923,9.3057 C46.2923,4.3877 42.3063,0.4007 37.3883,0.4007 C32.4693,0.4007 28.4823,4.3877 28.4823,9.3057 L28.4823,39.9787 C24.9383,44.4397 22.8123,50.0777 22.8123,56.2177 C22.8123,70.6637 34.5233,82.3747 48.9703,82.3747 C63.4163,82.3747 75.1263,70.6637 75.1263,56.2177 C75.1263,50.0777 73.0013,44.4397 69.4573,39.9787" id="Fill-1" fill="#FFFFFF"></path>
                        <path d="M37.3879,0.801 C32.6989,0.801 28.8829,4.616 28.8829,9.306 L28.8829,39.979 C28.8829,40.07 28.8519,40.156 28.7959,40.228 C25.1439,44.825 23.2129,50.355 23.2129,56.218 C23.2129,70.42 34.7679,81.974 48.9699,81.974 C63.1719,81.974 74.7259,70.42 74.7259,56.218 C74.7259,50.354 72.7959,44.824 69.1439,40.228 C69.0879,40.156 69.0569,40.07 69.0569,39.979 L69.0569,9.306 C69.0569,4.616 65.2419,0.801 60.5519,0.801 C55.8629,0.801 52.0469,4.616 52.0469,9.306 L52.0469,30.208 C52.0469,30.322 51.9979,30.43 51.9139,30.505 C51.8309,30.581 51.7179,30.624 51.6059,30.606 C49.7279,30.41 48.2089,30.41 46.3329,30.606 C46.2239,30.624 46.1089,30.581 46.0249,30.505 C45.9409,30.43 45.8919,30.322 45.8919,30.208 L45.8919,9.306 C45.8919,4.616 42.0769,0.801 37.3879,0.801 M48.9699,82.775 C34.3259,82.775 22.4119,70.862 22.4119,56.218 C22.4119,50.218 24.3719,44.559 28.0819,39.84 L28.0819,9.306 C28.0819,4.175 32.2569,-1.77635684e-13 37.3879,-1.77635684e-13 C42.5189,-1.77635684e-13 46.6929,4.175 46.6929,9.306 L46.6929,29.768 C48.2869,29.623 49.6499,29.623 51.2459,29.768 L51.2459,9.306 C51.2459,4.175 55.4209,-1.77635684e-13 60.5519,-1.77635684e-13 C65.6829,-1.77635684e-13 69.8579,4.175 69.8579,9.306 L69.8579,39.84 C73.5669,44.558 75.5269,50.218 75.5269,56.218 C75.5269,70.862 63.6139,82.775 48.9699,82.775" id="Fill-3" fill="#232020"></path>
                        <path d="M66.0598,10.5168 C66.0598,7.4748 63.5938,5.0088 60.5518,5.0088 C57.5098,5.0088 55.0438,7.4748 55.0438,10.5168 L55.0438,30.7778 C59.1858,31.7628 62.9428,33.7318 66.0598,36.4248 L66.0598,10.5168 Z" id="Fill-5" fill="#FBDDE8"></path>
                        <path d="M55.4446,30.4631 C59.1586,31.3961 62.6676,33.1511 65.6596,35.5691 L65.6596,10.5171 C65.6596,7.7001 63.3686,5.4091 60.5516,5.4091 C57.7356,5.4091 55.4446,7.7001 55.4446,10.5171 L55.4446,30.4631 Z M66.0596,36.8251 C65.9656,36.8251 65.8726,36.7921 65.7986,36.7281 C62.6836,34.0371 58.9336,32.1141 54.9516,31.1661 C54.7716,31.1241 54.6436,30.9631 54.6436,30.7771 L54.6436,10.5171 C54.6436,7.2591 57.2946,4.6091 60.5516,4.6091 C63.8096,4.6091 66.4606,7.2591 66.4606,10.5171 L66.4606,36.4251 C66.4606,36.5811 66.3686,36.7241 66.2256,36.7881 C66.1736,36.8131 66.1166,36.8251 66.0596,36.8251 L66.0596,36.8251 Z" id="Fill-7" fill="#232020"></path>
                        <path d="M42.8958,10.5168 C42.8958,7.4748 40.4288,5.0088 37.3878,5.0088 C34.3458,5.0088 31.8798,7.4748 31.8798,10.5168 L31.8798,36.4248 C34.9968,33.7318 38.7538,31.7628 42.8958,30.7778 L42.8958,10.5168 Z" id="Fill-9" fill="#FBDDE8"></path>
                        <path d="M37.3878,5.4095 C34.5718,5.4095 32.2808,7.7005 32.2808,10.5165 L32.2808,35.5695 C35.2708,33.1505 38.7808,31.3955 42.4958,30.4635 L42.4958,10.5165 C42.4958,7.7005 40.2048,5.4095 37.3878,5.4095 L37.3878,5.4095 Z M31.8798,36.8255 C31.8238,36.8255 31.7668,36.8125 31.7138,36.7885 C31.5718,36.7235 31.4798,36.5815 31.4798,36.4245 L31.4798,10.5165 C31.4798,7.2585 34.1298,4.6085 37.3878,4.6085 C40.6458,4.6085 43.2958,7.2585 43.2958,10.5165 L43.2958,30.7775 C43.2958,30.9635 43.1678,31.1245 42.9888,31.1665 C39.0048,32.1145 35.2538,34.0375 32.1418,36.7275 C32.0678,36.7915 31.9738,36.8255 31.8798,36.8255 L31.8798,36.8255 Z" id="Fill-11" fill="#232020"></path>
                        <path d="M37.2649,50.6086 C37.2649,48.7526 38.7699,47.2476 40.6249,47.2476 C42.4819,47.2476 43.9859,48.7526 43.9859,50.6086 C43.9859,52.4636 42.4819,53.9686 40.6249,53.9686 C38.7699,53.9686 37.2649,52.4636 37.2649,50.6086" id="Fill-13" fill="#050505"></path>
                        <path d="M44.2835,66.5832 C42.8045,66.5832 41.5425,66.1242 40.7315,65.2902 C40.0985,64.6412 39.7775,63.7962 39.8045,62.8502 C39.8095,62.6292 39.9855,62.4132 40.2145,62.4612 C40.4345,62.4672 40.6095,62.6502 40.6025,62.8712 C40.5835,63.6072 40.8195,64.2332 41.3045,64.7322 C41.9645,65.4102 43.0215,65.7822 44.2835,65.7822 C46.3455,65.7822 48.5695,64.1272 48.5695,61.4532 C48.5695,61.2322 48.7495,61.0532 48.9705,61.0532 C49.1905,61.0532 49.3705,61.2322 49.3705,61.4532 C49.3705,64.6212 46.7295,66.5832 44.2835,66.5832" id="Fill-15" fill="#232020"></path>
                        <path d="M45.6096,59.3762 C45.6096,58.2292 47.1136,57.2982 48.9696,57.2982 C50.8256,57.2982 52.3306,58.2292 52.3306,59.3762 C52.3306,60.5222 50.8256,61.4532 48.9696,61.4532 C47.1136,61.4532 45.6096,60.5222 45.6096,59.3762" id="Fill-17" fill="#FBDDE8"></path>
                        <path d="M48.97,57.6984 C47.366,57.6984 46.01,58.4674 46.01,59.3764 C46.01,60.2854 47.366,61.0524 48.97,61.0524 C50.574,61.0524 51.93,60.2854 51.93,59.3764 C51.93,58.4674 50.574,57.6984 48.97,57.6984 M48.97,61.8534 C46.862,61.8534 45.209,60.7644 45.209,59.3764 C45.209,57.9864 46.862,56.8974 48.97,56.8974 C51.078,56.8974 52.731,57.9864 52.731,59.3764 C52.731,60.7644 51.078,61.8534 48.97,61.8534" id="Fill-19" fill="#232020"></path>
                        <path d="M40.8333,46.5041 C38.4843,46.5041 36.5813,48.4071 36.5813,50.7561 C36.5813,53.1031 38.4843,55.0071 40.8333,55.0071 C43.1823,55.0071 45.0863,53.1031 45.0863,50.7561 C45.0863,48.4071 43.1823,46.5041 40.8333,46.5041" id="Fill-21" fill="#FFFFFF"></path>
                        <path d="M40.8333,46.9045 C38.7093,46.9045 36.9813,48.6325 36.9813,50.7565 C36.9813,52.8795 38.7093,54.6065 40.8333,54.6065 C42.9583,54.6065 44.6863,52.8795 44.6863,50.7565 C44.6863,48.6325 42.9583,46.9045 40.8333,46.9045 M40.8333,55.4075 C38.2683,55.4075 36.1813,53.3205 36.1813,50.7565 C36.1813,48.1905 38.2683,46.1035 40.8333,46.1035 C43.3983,46.1035 45.4863,48.1905 45.4863,50.7565 C45.4863,53.3205 43.3983,55.4075 40.8333,55.4075" id="Fill-23" fill="#232020"></path>
                        <path d="M43.1311,50.8029 C43.1311,52.0719 42.1031,53.0999 40.8331,53.0999 C39.5661,53.0999 38.5361,52.0719 38.5361,50.8029 C38.5361,49.5329 39.5661,48.5049 40.8331,48.5049 C42.1031,48.5069 43.1311,49.5349 43.1311,50.8029" id="Fill-25" fill="#232020"></path>
                        <path d="M41.6331,49.2014 C41.6331,48.7644 41.9871,48.4104 42.4241,48.4104 C42.8611,48.4104 43.2141,48.7644 43.2141,49.2014 C43.2141,49.6374 42.8611,49.9914 42.4241,49.9914 C41.9871,49.9914 41.6331,49.6374 41.6331,49.2014" id="Fill-27" fill="#FFFFFF"></path>
                        <path d="M34.2844,55.1242 C31.9354,55.1242 30.0314,57.0272 30.0314,59.3762 C30.0314,61.7242 31.9354,63.6272 34.2844,63.6272 C36.6334,63.6272 38.5364,61.7242 38.5364,59.3762 C38.5364,57.0272 36.6334,55.1242 34.2844,55.1242" id="Fill-29" fill="#FBDDE8"></path>
                        <path d="M34.2844,55.5246 C32.1594,55.5246 30.4314,57.2526 30.4314,59.3766 C30.4314,61.4996 32.1594,63.2266 34.2844,63.2266 C36.4084,63.2266 38.1364,61.4996 38.1364,59.3766 C38.1364,57.2526 36.4084,55.5246 34.2844,55.5246 M34.2844,64.0276 C31.7194,64.0276 29.6314,61.9406 29.6314,59.3766 C29.6314,56.8106 31.7194,54.7236 34.2844,54.7236 C36.8494,54.7236 38.9364,56.8106 38.9364,59.3766 C38.9364,61.9406 36.8494,64.0276 34.2844,64.0276" id="Fill-31" fill="#232020"></path>
                        <path d="M60.6751,50.6086 C60.6751,48.7526 59.1701,47.2476 57.3151,47.2476 C55.4581,47.2476 53.9541,48.7526 53.9541,50.6086 C53.9541,52.4636 55.4581,53.9686 57.3151,53.9686 C59.1701,53.9686 60.6751,52.4636 60.6751,50.6086" id="Fill-33" fill="#050505"></path>
                        <path d="M53.6565,66.5832 C51.2105,66.5832 48.5695,64.6212 48.5695,61.4532 C48.5695,61.2322 48.7495,61.0532 48.9695,61.0532 C49.1905,61.0532 49.3705,61.2322 49.3705,61.4532 C49.3705,64.1272 51.5945,65.7822 53.6565,65.7822 C54.9185,65.7822 55.9755,65.4102 56.6355,64.7322 C57.1205,64.2332 57.3565,63.6072 57.3375,62.8712 C57.3305,62.6502 57.5055,62.4672 57.7255,62.4612 C57.9515,62.4162 58.1305,62.6292 58.1355,62.8502 C58.1625,63.7962 57.8415,64.6412 57.2085,65.2902 C56.3975,66.1242 55.1355,66.5832 53.6565,66.5832" id="Fill-35" fill="#232020"></path>
                        <path d="M57.1067,46.5041 C54.7577,46.5041 52.8537,48.4071 52.8537,50.7561 C52.8537,53.1031 54.7577,55.0071 57.1067,55.0071 C59.4557,55.0071 61.3587,53.1031 61.3587,50.7561 C61.3587,48.4071 59.4557,46.5041 57.1067,46.5041" id="Fill-37" fill="#FFFFFF"></path>
                        <path d="M57.1067,46.9045 C54.9817,46.9045 53.2537,48.6325 53.2537,50.7565 C53.2537,52.8795 54.9817,54.6065 57.1067,54.6065 C59.2307,54.6065 60.9587,52.8795 60.9587,50.7565 C60.9587,48.6325 59.2307,46.9045 57.1067,46.9045 M57.1067,55.4075 C54.5417,55.4075 52.4537,53.3205 52.4537,50.7565 C52.4537,48.1905 54.5417,46.1035 57.1067,46.1035 C59.6717,46.1035 61.7587,48.1905 61.7587,50.7565 C61.7587,53.3205 59.6717,55.4075 57.1067,55.4075" id="Fill-39" fill="#232020"></path>
                        <path d="M59.4036,50.8029 C59.4036,52.0719 58.3756,53.0999 57.1056,53.0999 C55.8386,53.0999 54.8096,52.0719 54.8096,50.8029 C54.8096,49.5329 55.8386,48.5049 57.1056,48.5049 C58.3756,48.5069 59.4036,49.5349 59.4036,50.8029" id="Fill-41" fill="#232020"></path>
                        <path d="M57.9065,49.2014 C57.9065,48.7644 58.2605,48.4104 58.6965,48.4104 C59.1335,48.4104 59.4875,48.7644 59.4875,49.2014 C59.4875,49.6374 59.1335,49.9914 58.6965,49.9914 C58.2605,49.9914 57.9065,49.6374 57.9065,49.2014" id="Fill-43" fill="#FFFFFF"></path>
                        <path d="M63.6555,55.1242 C66.0045,55.1242 67.9075,57.0272 67.9075,59.3762 C67.9075,61.7242 66.0045,63.6272 63.6555,63.6272 C61.3065,63.6272 59.4035,61.7242 59.4035,59.3762 C59.4035,57.0272 61.3065,55.1242 63.6555,55.1242" id="Fill-45" fill="#FBDDE8"></path>
                        <path d="M63.6555,55.5246 C61.5315,55.5246 59.8035,57.2526 59.8035,59.3766 C59.8035,61.4996 61.5315,63.2266 63.6555,63.2266 C65.7795,63.2266 67.5075,61.4996 67.5075,59.3766 C67.5075,57.2526 65.7795,55.5246 63.6555,55.5246 M63.6555,64.0276 C61.0905,64.0276 59.0035,61.9406 59.0035,59.3766 C59.0035,56.8106 61.0905,54.7236 63.6555,54.7236 C66.2205,54.7236 68.3075,56.8106 68.3075,59.3766 C68.3075,61.9406 66.2205,64.0276 63.6555,64.0276" id="Fill-47" fill="#232020"></path>
                        <path d="M12.8518,95.4143 C12.8518,95.7743 12.8308,96.4353 12.9318,96.7553 C13.1518,97.4753 14.0518,97.1353 14.0518,97.9753 C14.0518,99.3153 11.6118,99.2153 10.7508,99.2153 C9.8508,99.2153 7.0498,99.3153 7.0498,97.8943 C7.0498,97.1943 7.9108,97.4553 8.1508,96.7153 C8.4108,95.8943 8.4108,93.3933 8.4108,92.4143 C8.4108,91.6343 8.4508,90.1333 8.2708,89.2333 C7.9698,87.7533 6.7898,88.2723 6.7898,87.1333 C6.7898,85.3933 11.9918,84.9723 12.2718,84.9723 C12.9518,84.9723 13.1118,85.4123 13.1118,86.0133 C13.1118,86.4733 12.8518,88.6733 12.8518,91.5333 L12.8518,95.4143 Z" id="Fill-49" fill="#FBDCE7"></path>
                        <path d="M10.7512,98.8147 L10.9242,98.8157 C11.5502,98.8317 13.0122,98.8297 13.5022,98.3417 C13.6052,98.2407 13.6512,98.1247 13.6512,97.9747 C13.6512,97.7937 13.6272,97.7777 13.3602,97.6637 C13.1002,97.5517 12.7052,97.3827 12.5492,96.8727 C12.4442,96.5387 12.4482,95.9797 12.4512,95.5717 L12.4512,91.5337 C12.4512,89.4757 12.5832,87.7887 12.6612,86.7797 C12.6902,86.4027 12.7112,86.1397 12.7112,86.0127 C12.7112,85.4027 12.5442,85.3727 12.2722,85.3727 C11.3022,85.3807 7.1902,85.9927 7.1902,87.1327 C7.1902,87.4567 7.2902,87.5147 7.5882,87.6917 C7.9612,87.9127 8.4722,88.2147 8.6622,89.1537 C8.8252,89.9677 8.8172,91.2187 8.8122,92.0477 L8.8112,92.4147 C8.8112,94.0637 8.7782,96.0567 8.5312,96.8357 C8.3602,97.3637 7.9632,97.5497 7.6992,97.6727 C7.4502,97.7897 7.4502,97.8017 7.4502,97.8947 C7.4502,98.0447 7.5002,98.1657 7.6082,98.2727 C8.1692,98.8297 9.8632,98.8207 10.5792,98.8157 L10.7512,98.8147 Z M11.1682,99.6167 C11.0802,99.6167 10.9962,99.6167 10.9192,99.6157 L10.5842,99.6157 C9.6292,99.6247 7.8392,99.6307 7.0442,98.8397 C6.7862,98.5837 6.6492,98.2567 6.6492,97.8947 C6.6492,97.2807 7.0952,97.0727 7.3602,96.9487 C7.5952,96.8387 7.7092,96.7787 7.7702,96.5917 C8.0102,95.8337 8.0102,93.2597 8.0102,92.4147 L8.0122,92.0427 C8.0172,91.2477 8.0242,90.0437 7.8782,89.3117 C7.7592,88.7217 7.4902,88.5637 7.1812,88.3797 C6.8472,88.1827 6.3902,87.9117 6.3902,87.1327 C6.3902,84.8837 12.2132,84.5717 12.2722,84.5717 C12.8372,84.5717 13.5122,84.8217 13.5122,86.0127 C13.5122,86.1497 13.4902,86.4347 13.4582,86.8407 C13.3812,87.8377 13.2522,89.5067 13.2522,91.5337 L13.2512,95.5777 C13.2492,95.8917 13.2452,96.4187 13.3142,96.6347 C13.3582,96.7817 13.4392,96.8267 13.6762,96.9277 C13.9662,97.0517 14.4522,97.2597 14.4522,97.9747 C14.4522,98.3357 14.3182,98.6587 14.0662,98.9097 C13.4062,99.5647 12.0462,99.6167 11.1682,99.6167 L11.1682,99.6167 Z" id="Fill-51" fill="#232020"></path>
                        <path d="M16.8108,88.1926 C15.9698,88.1926 15.0708,87.8126 15.0708,86.8336 C15.0708,85.5126 17.7108,84.9716 18.7308,84.9716 C19.5318,84.9716 20.6708,85.2326 20.6708,86.2326 C20.6708,87.7936 17.9508,88.1926 16.8108,88.1926 L16.8108,88.1926 Z M20.7718,95.2946 C20.7718,97.6556 21.9518,96.7956 21.9518,97.8546 C21.9518,99.2146 19.4118,99.2146 18.5108,99.2146 C15.0708,99.2146 14.9298,98.4346 14.9298,97.9556 C14.9298,97.2346 15.7498,97.1946 15.9908,96.5746 C16.2498,95.8746 16.2898,92.9736 16.0708,92.2336 C15.8908,91.5336 14.8708,91.7546 14.8708,90.8536 C14.8708,89.4326 19.9518,88.8336 20.1518,88.8336 C20.7508,88.8336 20.7718,89.2936 20.7718,89.7136 L20.7718,95.2946 Z" id="Fill-53" fill="#FBDCE7"></path>
                        <path d="M18.7307,85.3723 C17.7347,85.3723 15.4707,85.9243 15.4707,86.8333 C15.4707,87.7463 16.5867,87.7923 16.8107,87.7923 C17.8947,87.7923 20.2707,87.3993 20.2707,86.2323 C20.2707,85.4133 18.9877,85.3723 18.7307,85.3723 M16.8107,88.5933 C15.7457,88.5933 14.6697,88.0493 14.6697,86.8333 C14.6697,85.1283 17.6897,84.5713 18.7307,84.5713 C20.1527,84.5713 21.0717,85.2243 21.0717,86.2323 C21.0717,88.1683 17.9957,88.5933 16.8107,88.5933 M20.1517,89.2333 C19.0147,89.2863 15.2707,90.0543 15.2707,90.8533 C15.2707,91.0813 15.3397,91.1383 15.6667,91.3043 C15.9477,91.4473 16.3327,91.6433 16.4587,92.1343 C16.6827,92.8903 16.6657,95.9043 16.3657,96.7133 C16.2157,97.1003 15.9257,97.3133 15.6937,97.4843 C15.4187,97.6873 15.3307,97.7683 15.3307,97.9553 C15.3307,98.5253 16.4007,98.8143 18.5107,98.8143 C20.5287,98.8143 21.5507,98.4923 21.5507,97.8543 C21.5507,97.6533 21.5307,97.6413 21.3257,97.5163 C20.8427,97.2213 20.3717,96.8063 20.3717,95.2943 L20.3717,89.7133 C20.3717,89.2333 20.3257,89.2333 20.1517,89.2333 M18.5107,99.6153 C15.6827,99.6153 14.5297,99.1343 14.5297,97.9553 C14.5297,97.3493 14.9277,97.0563 15.2187,96.8413 C15.3987,96.7083 15.5537,96.5943 15.6177,96.4303 C15.8347,95.8423 15.8847,93.0153 15.6867,92.3483 C15.6497,92.2043 15.5527,92.1433 15.3027,92.0173 C14.9717,91.8483 14.4697,91.5933 14.4697,90.8533 C14.4697,88.9193 20.0947,88.4333 20.1517,88.4333 C21.1717,88.4333 21.1717,89.3633 21.1717,89.7133 L21.1717,95.2943 C21.1717,96.4833 21.4617,96.6613 21.7427,96.8333 C21.9857,96.9813 22.3517,97.2053 22.3517,97.8543 C22.3517,99.6153 19.5617,99.6153 18.5107,99.6153" id="Fill-55" fill="#232020"></path>
                        <path d="M29.4309,91.8537 C28.5509,91.8537 28.4509,92.5747 28.4509,93.2537 C28.4509,97.1347 28.6709,97.4557 29.4709,97.4557 C30.7909,97.4557 31.0109,95.9547 31.0109,94.9347 C31.0109,93.9947 30.7509,91.8537 29.4309,91.8537 L29.4309,91.8537 Z M28.4099,89.6937 C28.4099,89.7927 28.3909,90.0137 28.5509,90.0137 C28.6509,90.0137 28.9709,89.6937 29.4919,89.3937 C30.0109,89.0737 30.7109,88.7727 31.5909,88.7727 C33.7119,88.7727 35.5119,90.5537 35.5119,93.1947 C35.5119,96.6147 32.9519,99.2757 29.5109,99.2757 C26.9909,99.2757 25.8099,97.9747 25.4909,97.9747 C25.1699,97.9747 24.8499,98.2757 24.1899,98.2757 C23.9099,98.2757 23.5899,98.1957 23.5899,97.8747 C23.5899,97.5547 23.9899,96.9157 23.9899,94.3147 L23.9899,88.9937 C23.9899,87.8327 22.4899,88.3527 22.4899,87.2127 C22.4899,85.8727 26.3699,84.9717 28.0309,84.9717 C28.5709,84.9717 28.5509,85.3927 28.5309,85.8327 L28.4099,89.6937 Z" id="Fill-57" fill="#FBDCE7"></path>
                        <path d="M29.4309,92.2541 C29.0909,92.2541 28.8509,92.3251 28.8509,93.2541 C28.8509,97.0551 29.0839,97.0551 29.4709,97.0551 C30.4129,97.0551 30.6109,95.9021 30.6109,94.9351 C30.6109,94.1891 30.3989,92.2541 29.4309,92.2541 M29.4709,97.8561 C28.1899,97.8561 28.0499,96.9241 28.0499,93.2541 C28.0499,92.8091 28.0499,91.4531 29.4309,91.4531 C30.8929,91.4531 31.4109,93.3291 31.4109,94.9351 C31.4109,97.4761 30.1959,97.8561 29.4709,97.8561 M25.4909,97.5741 C25.6889,97.5741 25.8599,97.6811 26.1409,97.8581 C26.7089,98.2131 27.7669,98.8751 29.5109,98.8751 C32.7039,98.8751 35.1119,96.4331 35.1119,93.1941 C35.1119,90.9011 33.5979,89.1731 31.5909,89.1731 C30.9329,89.1731 30.3149,89.3571 29.7019,89.7341 C29.4359,89.8871 29.2319,90.0401 29.0819,90.1521 C28.8639,90.3161 28.7319,90.4141 28.5509,90.4141 L28.3829,90.4141 L28.1789,90.2611 C28.0039,90.0831 28.0079,89.8361 28.0099,89.7171 L28.0109,89.6811 L28.1309,85.8191 C28.1379,85.6701 28.1489,85.4311 28.1129,85.3691 C26.2329,85.3721 22.8899,86.3181 22.8899,87.2131 C22.8899,87.4861 22.9849,87.5541 23.3899,87.7251 C23.7869,87.8921 24.3899,88.1451 24.3899,88.9931 L24.3899,94.3151 C24.3899,96.2901 24.1649,97.1631 24.0439,97.6321 C24.0209,97.7231 23.9939,97.8241 23.9909,97.8661 C24.0049,97.8541 24.0739,97.8741 24.1899,97.8751 C24.5039,97.8751 24.7199,97.7921 24.9289,97.7121 C25.1039,97.6451 25.2849,97.5741 25.4909,97.5741 M29.5109,99.6761 C27.5369,99.6761 26.3079,98.9051 25.7159,98.5351 C25.6069,98.4671 25.4709,98.3821 25.4269,98.3661 C25.4339,98.3751 25.3279,98.4151 25.2159,98.4581 C24.9789,98.5501 24.6539,98.6761 24.1899,98.6761 C23.4519,98.6761 23.1899,98.2441 23.1899,97.8751 C23.1899,97.7411 23.2239,97.6111 23.2699,97.4331 C23.3809,96.9981 23.5889,96.1891 23.5889,94.3151 L23.5889,88.9931 C23.5889,88.7051 23.4929,88.6361 23.0789,88.4621 C22.6849,88.2961 22.0889,88.0461 22.0889,87.2131 C22.0889,85.3661 26.5989,84.5711 28.0309,84.5711 C28.3129,84.5711 28.5369,84.6561 28.6969,84.8231 C28.9649,85.1051 28.9469,85.5011 28.9299,85.8511 L28.8219,89.3521 C28.9549,89.2561 29.1129,89.1501 29.2919,89.0471 C30.0139,88.6021 30.7909,88.3721 31.5909,88.3721 C34.0539,88.3721 35.9119,90.4451 35.9119,93.1941 C35.9119,96.8891 33.1599,99.6761 29.5109,99.6761" id="Fill-59" fill="#232020"></path>
                        <path d="M37.8303,92.9338 C37.8303,90.9738 36.5903,92.0738 36.5903,90.8538 C36.5903,89.2738 41.2703,88.8328 41.4503,88.8328 C42.2113,88.8328 42.2303,89.0338 42.3103,89.7128 C42.3313,89.9538 42.3103,90.4128 42.6513,90.4128 C43.1313,90.4128 43.4313,88.8328 45.1513,88.8328 C46.4923,88.8328 47.3723,89.8328 47.3723,91.1538 C47.3723,92.4948 46.2313,93.5538 44.9113,93.5538 C43.6113,93.5538 43.2513,92.4138 42.7303,92.4138 C42.1713,92.4138 42.2703,93.7538 42.2703,94.1148 C42.2703,94.7138 42.3313,95.5548 42.4313,96.3148 C42.5513,97.1948 44.0713,96.6548 44.0713,97.8548 C44.0713,99.1158 42.3103,99.2148 40.1103,99.2148 C39.1903,99.2148 36.4703,99.2548 36.4703,97.8748 C36.4703,97.0358 37.3903,97.0358 37.6093,96.3348 C37.7693,95.8338 37.8303,94.6948 37.8303,94.1338 L37.8303,92.9338 Z" id="Fill-61" fill="#FBDCE7"></path>
                        <path d="M41.4504,89.2336 C40.5724,89.2646 36.9904,89.8616 36.9904,90.8536 C36.9904,91.1106 36.9994,91.1136 37.2364,91.1996 C37.7394,91.3796 38.2304,91.6636 38.2304,92.9336 L38.2304,94.1336 C38.2304,94.5426 38.1864,95.8446 37.9904,96.4576 C37.8534,96.8916 37.5354,97.1256 37.2794,97.3126 C36.9954,97.5196 36.8704,97.6226 36.8704,97.8756 C36.8704,98.0206 36.9204,98.1386 37.0264,98.2456 C37.5994,98.8176 39.3674,98.8166 40.0344,98.8146 C42.4204,98.8146 43.6714,98.6626 43.6714,97.8546 C43.6714,97.5306 43.5584,97.4626 43.0744,97.3146 C42.6954,97.1986 42.1244,97.0236 42.0344,96.3686 C41.9334,95.5966 41.8704,94.7346 41.8704,94.1146 L41.8684,93.9736 C41.8524,93.3206 41.8664,92.5926 42.2214,92.2306 C42.3594,92.0886 42.5354,92.0136 42.7304,92.0136 C43.0944,92.0136 43.3534,92.2646 43.6054,92.5066 C43.9354,92.8256 44.2764,93.1536 44.9114,93.1536 C46.0284,93.1536 46.9714,92.2376 46.9714,91.1536 C46.9714,90.0046 46.2404,89.2336 45.1514,89.2336 C44.2224,89.2336 43.8044,89.7806 43.4684,90.2206 C43.2344,90.5256 43.0144,90.8136 42.6514,90.8136 C41.9744,90.8136 41.9314,90.0756 41.9184,89.8326 C41.8894,89.5586 41.8614,89.3216 41.8254,89.2706 C41.8224,89.2706 41.7524,89.2336 41.4504,89.2336 L41.4504,89.2336 Z M39.9994,99.6156 C39.0014,99.6156 37.2394,99.5876 36.4614,98.8116 C36.2054,98.5556 36.0694,98.2316 36.0694,97.8756 C36.0694,97.2066 36.4964,96.8946 36.8064,96.6676 C37.0314,96.5026 37.1724,96.3926 37.2274,96.2146 C37.3664,95.7836 37.4294,94.7176 37.4294,94.1336 L37.4294,92.9336 C37.4294,92.1196 37.2354,92.0486 36.9654,91.9526 C36.6754,91.8476 36.1894,91.6726 36.1894,90.8536 C36.1894,88.8046 41.3974,88.4326 41.4504,88.4326 C42.5094,88.4326 42.6174,88.8976 42.7064,89.6556 L42.7164,89.7866 C42.7184,89.8116 42.7204,89.8446 42.7224,89.8806 C42.7574,89.8346 42.7974,89.7806 42.8324,89.7346 C43.2044,89.2486 43.8274,88.4326 45.1514,88.4326 C46.6704,88.4326 47.7724,89.5776 47.7724,91.1536 C47.7724,92.6976 46.4884,93.9546 44.9114,93.9546 C43.9544,93.9546 43.4104,93.4296 43.0504,93.0836 C42.9444,92.9816 42.7854,92.8276 42.7234,92.8136 C42.7374,92.8486 42.6474,93.0796 42.6684,93.9556 L42.6714,94.1146 C42.6714,94.7026 42.7304,95.5256 42.8274,96.2626 C42.8444,96.3826 42.9254,96.4316 43.3084,96.5496 C43.7434,96.6826 44.4714,96.9056 44.4714,97.8546 C44.4714,99.6156 42.0544,99.6156 40.1104,99.6156 L39.9994,99.6156 Z" id="Fill-63" fill="#232020"></path>
                        <path d="M54.9309,91.8742 C54.9309,91.1532 54.4909,90.5942 53.7499,90.5942 C53.0899,90.5942 52.5499,91.2732 52.5499,91.9142 C52.5499,92.6342 53.2309,92.4742 53.7499,92.4742 C54.2909,92.4742 54.9309,92.5942 54.9309,91.8742 L54.9309,91.8742 Z M53.1909,94.3952 C52.9709,94.3952 52.6509,94.3342 52.6509,94.6742 C52.6509,95.6752 53.9509,96.5152 54.8909,96.5152 C56.3909,96.5152 57.1309,95.6142 57.5509,95.6142 C57.9719,95.6142 58.3309,96.2342 58.3309,96.6142 C58.3309,98.1552 55.5109,99.2752 53.7099,99.2752 C50.1099,99.2752 48.2489,96.6752 48.2489,94.0942 C48.2489,91.0142 50.8699,88.7722 53.8699,88.7722 C57.2719,88.7722 58.7719,91.3942 58.7719,92.8942 C58.7719,94.2142 58.1709,94.3952 57.5319,94.3952 L53.1909,94.3952 Z" id="Fill-65" fill="#FBDCE7"></path>
                        <path d="M53.7502,90.9943 C53.3072,90.9943 52.9502,91.4973 52.9502,91.9143 C52.9502,92.0173 52.9712,92.0493 52.9722,92.0493 C53.0282,92.1013 53.3362,92.0873 53.4862,92.0813 C53.5762,92.0773 53.6652,92.0733 53.7502,92.0733 L53.9672,92.0773 C54.1332,92.0833 54.4402,92.0913 54.5022,92.0313 C54.5102,92.0233 54.5302,91.9803 54.5302,91.8743 C54.5302,91.4483 54.3252,90.9943 53.7502,90.9943 M53.2552,92.8893 C52.9612,92.8893 52.6492,92.8483 52.4182,92.6273 C52.2402,92.4563 52.1492,92.2173 52.1492,91.9143 C52.1492,91.1013 52.8342,90.1933 53.7502,90.1933 C54.6812,90.1933 55.3312,90.8853 55.3312,91.8743 C55.3312,92.1833 55.2392,92.4303 55.0612,92.6043 C54.7572,92.8983 54.3212,92.8863 53.9452,92.8773 L53.7502,92.8743 C53.6772,92.8743 53.6002,92.8773 53.5212,92.8813 C53.4372,92.8853 53.3472,92.8893 53.2552,92.8893 M53.8702,89.1733 C50.9422,89.1733 48.6492,91.3343 48.6492,94.0943 C48.6492,96.4703 50.3882,98.8753 53.7102,98.8753 C55.3382,98.8753 57.9312,97.8413 57.9312,96.6143 C57.9312,96.3793 57.6792,96.0153 57.5512,96.0153 C57.4992,96.0233 57.3172,96.1303 57.1852,96.2083 C56.7052,96.4893 55.9802,96.9153 54.8912,96.9153 C53.7022,96.9153 52.2502,95.8813 52.2502,94.6743 C52.2502,94.4203 52.3552,94.2653 52.4432,94.1803 C52.6522,93.9773 52.9272,93.9803 53.1152,93.9933 L53.1902,94.3943 L53.1902,93.9943 L57.5312,93.9943 C57.9442,93.9943 58.3712,93.9943 58.3712,92.8933 C58.3712,91.5963 57.0512,89.1733 53.8702,89.1733 M53.7102,99.6763 C49.8622,99.6763 47.8492,96.8673 47.8492,94.0943 C47.8492,90.8863 50.4942,88.3723 53.8702,88.3723 C57.6162,88.3723 59.1722,91.3173 59.1722,92.8933 C59.1722,94.1733 58.6352,94.7953 57.5312,94.7953 L53.0892,94.7923 C53.0802,94.7923 53.0702,94.7923 53.0612,94.7913 C53.1692,95.4803 54.1482,96.1143 54.8912,96.1143 C55.7632,96.1143 56.3512,95.7693 56.7792,95.5183 C57.0682,95.3483 57.2972,95.2143 57.5512,95.2143 C58.2352,95.2143 58.7312,96.0513 58.7312,96.6143 C58.7312,98.4543 55.7092,99.6763 53.7102,99.6763" id="Fill-67" fill="#232020"></path>
                        <path d="M72.971,90.9533 C71.631,90.9533 71.391,93.2543 71.391,94.1943 C71.391,95.1353 71.631,96.7743 72.871,96.7743 C74.211,96.7743 74.131,94.3143 74.131,93.4333 C74.131,92.6533 74.131,90.9533 72.971,90.9533 L72.971,90.9533 Z M78.552,95.6143 C78.552,97.0153 79.613,96.5553 79.613,97.5953 C79.613,99.1153 75.232,99.2153 75.012,99.2153 C73.992,99.2153 74.711,98.1153 74.051,98.1153 C73.871,98.1153 73.572,98.3943 73.112,98.6953 C72.651,98.9753 72.031,99.2753 71.151,99.2753 C68.531,99.2753 66.49,96.4943 66.49,94.0343 C66.49,91.3733 68.651,88.7723 71.41,88.7723 C72.791,88.7723 73.572,89.3733 73.791,89.3733 C74.091,89.3733 74.112,88.7133 74.112,88.4933 C74.112,87.2533 72.651,87.9133 72.651,86.8333 C72.651,85.3523 77.752,84.9723 77.812,84.9723 C78.412,84.9723 78.552,85.3923 78.552,86.0533 L78.552,95.6143 Z" id="Fill-69" fill="#FBDCE7"></path>
                        <path d="M72.971,91.3537 C72.003,91.3537 71.791,93.4047 71.791,94.1947 C71.791,94.5587 71.843,96.3747 72.871,96.3747 C73.02,96.3747 73.137,96.3267 73.24,96.2237 C73.741,95.7207 73.735,94.2187 73.732,93.5777 L73.731,93.4337 C73.731,92.4057 73.641,91.3537 72.971,91.3537 M72.871,97.1747 C71.485,97.1747 70.991,95.6347 70.991,94.1947 C70.991,92.5147 71.509,90.5527 72.971,90.5527 C74.532,90.5527 74.532,92.6457 74.532,93.4337 L74.532,93.5747 C74.535,94.4397 74.542,96.0487 73.806,96.7887 C73.554,97.0407 73.231,97.1747 72.871,97.1747 M71.41,89.1727 C69.002,89.1727 66.89,91.4447 66.89,94.0347 C66.89,96.2737 68.751,98.8747 71.151,98.8747 C71.939,98.8747 72.48,98.6117 72.904,98.3537 C73.037,98.2657 73.166,98.1727 73.28,98.0907 C73.582,97.8737 73.801,97.7147 74.051,97.7147 C74.71,97.7147 74.765,98.3137 74.786,98.5397 C74.793,98.6157 74.806,98.7557 74.83,98.7867 C74.839,98.7927 74.893,98.8147 75.012,98.8147 C76.52,98.8147 79.212,98.4077 79.212,97.5947 C79.212,97.3217 79.13,97.2627 78.911,97.1087 C78.609,96.8957 78.152,96.5747 78.152,95.6147 L78.152,86.0527 C78.152,85.3727 78.002,85.3727 77.812,85.3727 C76.144,85.4597 73.051,86.0827 73.051,86.8327 C73.051,87.0437 73.094,87.0827 73.472,87.2117 C73.861,87.3437 74.512,87.5657 74.512,88.4937 C74.512,89.5507 74.119,89.7737 73.791,89.7737 C73.643,89.7737 73.507,89.7117 73.301,89.6197 C72.931,89.4527 72.312,89.1727 71.41,89.1727 M71.151,99.6757 C68.254,99.6757 66.089,96.6977 66.089,94.0347 C66.089,91.0187 68.575,88.3727 71.41,88.3727 C72.484,88.3727 73.23,88.7087 73.63,88.8897 C73.647,88.8977 73.662,88.9047 73.677,88.9117 C73.696,88.8167 73.711,88.6757 73.711,88.4937 C73.711,88.1537 73.6,88.1007 73.214,87.9687 C72.854,87.8457 72.25,87.6407 72.25,86.8327 C72.25,84.8827 77.756,84.5717 77.812,84.5717 C78.952,84.5717 78.952,85.6867 78.952,86.0527 L78.952,95.6147 C78.952,96.1597 79.118,96.2767 79.371,96.4547 C79.642,96.6447 80.013,96.9067 80.013,97.5947 C80.013,99.5917 75.216,99.6157 75.012,99.6157 C74.081,99.6157 74.015,98.8867 73.99,98.6127 C73.989,98.5997 73.987,98.5847 73.986,98.5697 C73.921,98.6157 73.828,98.6817 73.747,98.7407 C73.625,98.8287 73.487,98.9277 73.33,99.0307 C72.83,99.3337 72.143,99.6757 71.151,99.6757" id="Fill-71" fill="#232020"></path>
                        <path d="M87.2307,91.8742 C87.2307,91.1532 86.7907,90.5942 86.0497,90.5942 C85.3897,90.5942 84.8497,91.2732 84.8497,91.9142 C84.8497,92.6342 85.5307,92.4742 86.0497,92.4742 C86.5907,92.4742 87.2307,92.5942 87.2307,91.8742 L87.2307,91.8742 Z M85.4907,94.3952 C85.2707,94.3952 84.9507,94.3342 84.9507,94.6742 C84.9507,95.6752 86.2507,96.5152 87.1907,96.5152 C88.6907,96.5152 89.4307,95.6142 89.8507,95.6142 C90.2717,95.6142 90.6307,96.2342 90.6307,96.6142 C90.6307,98.1552 87.8107,99.2752 86.0097,99.2752 C82.4097,99.2752 80.5487,96.6752 80.5487,94.0942 C80.5487,91.0142 83.1697,88.7722 86.1697,88.7722 C89.5717,88.7722 91.0717,91.3942 91.0717,92.8942 C91.0717,94.2142 90.4707,94.3952 89.8317,94.3952 L85.4907,94.3952 Z" id="Fill-73" fill="#FBDCE7"></path>
                        <path d="M86.0501,90.9943 C85.6071,90.9943 85.2501,91.4973 85.2501,91.9143 C85.2501,92.0173 85.2711,92.0493 85.2721,92.0493 C85.3281,92.1013 85.6361,92.0873 85.7861,92.0813 C85.8761,92.0773 85.9651,92.0733 86.0501,92.0733 L86.2671,92.0773 C86.4331,92.0833 86.7411,92.0913 86.8021,92.0313 C86.8101,92.0233 86.8301,91.9803 86.8301,91.8743 C86.8301,91.4483 86.6251,90.9943 86.0501,90.9943 M85.5551,92.8893 C85.2611,92.8893 84.9491,92.8483 84.7181,92.6273 C84.5401,92.4563 84.4491,92.2173 84.4491,91.9143 C84.4491,91.1013 85.1341,90.1933 86.0501,90.1933 C86.9811,90.1933 87.6311,90.8853 87.6311,91.8743 C87.6311,92.1833 87.5391,92.4303 87.3611,92.6043 C87.0571,92.8983 86.6211,92.8863 86.2451,92.8773 L86.0501,92.8743 C85.9771,92.8743 85.9001,92.8773 85.8211,92.8813 C85.7371,92.8853 85.6471,92.8893 85.5551,92.8893 M86.1701,89.1733 C83.2421,89.1733 80.9491,91.3343 80.9491,94.0943 C80.9491,96.4703 82.6881,98.8753 86.0101,98.8753 C87.6381,98.8753 90.2311,97.8413 90.2311,96.6143 C90.2311,96.3793 89.9791,96.0153 89.8511,96.0153 C89.7991,96.0233 89.6171,96.1303 89.4851,96.2083 C89.0051,96.4893 88.2801,96.9153 87.1911,96.9153 C86.0021,96.9153 84.5501,95.8813 84.5501,94.6743 C84.5501,94.4203 84.6551,94.2653 84.7431,94.1803 C84.9521,93.9773 85.2281,93.9803 85.4151,93.9933 L85.4901,94.3943 L85.4901,93.9943 L89.8311,93.9943 C90.2441,93.9943 90.6711,93.9943 90.6711,92.8933 C90.6711,91.5963 89.3511,89.1733 86.1701,89.1733 M86.0101,99.6763 C82.1621,99.6763 80.1491,96.8673 80.1491,94.0943 C80.1491,90.8863 82.7941,88.3723 86.1701,88.3723 C89.9161,88.3723 91.4721,91.3173 91.4721,92.8933 C91.4721,94.1733 90.9351,94.7953 89.8311,94.7953 L85.3891,94.7923 C85.3801,94.7923 85.3701,94.7923 85.3611,94.7913 C85.4691,95.4803 86.4481,96.1143 87.1911,96.1143 C88.0631,96.1143 88.6511,95.7693 89.0791,95.5183 C89.3681,95.3483 89.5971,95.2143 89.8511,95.2143 C90.5351,95.2143 91.0311,96.0513 91.0311,96.6143 C91.0311,98.4543 88.0091,99.6763 86.0101,99.6763" id="Fill-75" fill="#232020"></path>
                        <path d="M6.262,106.7727 C9.263,106.7727 10.843,108.4337 10.843,109.8347 C10.843,110.9547 10.003,111.8147 8.883,111.8147 C6.722,111.8147 7.723,109.3337 6.142,109.3337 C5.262,109.3337 4.782,110.2337 4.782,111.0347 C4.782,112.5147 5.882,114.0147 7.462,114.0147 C8.723,114.0147 9.143,113.4947 9.563,113.4947 C10.103,113.4947 10.463,114.0947 10.463,114.5747 C10.463,115.7547 8.662,117.2757 5.862,117.2757 C2.841,117.2757 0.401,115.0547 0.401,111.9947 C0.401,109.1137 2.902,106.7727 6.262,106.7727" id="Fill-77" fill="#FBDCE7"></path>
                        <path d="M6.262,107.1731 C3.199,107.1731 0.801,109.2901 0.801,111.9941 C0.801,114.7771 2.977,116.8751 5.862,116.8751 C8.426,116.8751 10.063,115.5131 10.063,114.5741 C10.063,114.3011 9.853,113.8951 9.563,113.8951 C9.495,113.8951 9.365,113.9531 9.226,114.0171 C8.876,114.1751 8.348,114.4151 7.462,114.4151 C5.619,114.4151 4.381,112.6671 4.381,111.0341 C4.381,110.0011 5.04,108.9331 6.142,108.9331 C7.157,108.9331 7.427,109.7231 7.623,110.3001 C7.845,110.9471 8.004,111.4141 8.883,111.4141 C9.773,111.4141 10.443,110.7361 10.443,109.8341 C10.443,108.7291 9.146,107.1731 6.262,107.1731 M5.862,117.6761 C2.521,117.6761 1.08091314e-12,115.2341 1.08091314e-12,111.9941 C1.08091314e-12,108.8421 2.751,106.3721 6.262,106.3721 C9.38,106.3721 11.243,108.1331 11.243,109.8341 C11.243,111.1921 10.229,112.2151 8.883,112.2151 C7.432,112.2151 7.092,111.2181 6.866,110.5591 C6.654,109.9351 6.55,109.7341 6.142,109.7341 C5.48,109.7341 5.182,110.4941 5.182,111.0341 C5.182,112.2801 6.098,113.6141 7.462,113.6141 C8.175,113.6141 8.575,113.4341 8.896,113.2881 C9.116,113.1891 9.323,113.0941 9.563,113.0941 C10.329,113.0941 10.864,113.8741 10.864,114.5741 C10.864,116.0411 8.809,117.6761 5.862,117.6761" id="Fill-79" fill="#232020"></path>
                        <path d="M13.0813,110.9338 C13.0813,108.9738 11.8413,110.0738 11.8413,108.8538 C11.8413,107.2738 16.5213,106.8328 16.7013,106.8328 C17.4623,106.8328 17.4813,107.0338 17.5613,107.7128 C17.5823,107.9538 17.5613,108.4128 17.9023,108.4128 C18.3823,108.4128 18.6823,106.8328 20.4023,106.8328 C21.7433,106.8328 22.6233,107.8328 22.6233,109.1538 C22.6233,110.4948 21.4823,111.5538 20.1623,111.5538 C18.8623,111.5538 18.5023,110.4138 17.9813,110.4138 C17.4223,110.4138 17.5213,111.7538 17.5213,112.1148 C17.5213,112.7138 17.5823,113.5548 17.6823,114.3148 C17.8023,115.1948 19.3223,114.6548 19.3223,115.8548 C19.3223,117.1158 17.5613,117.2148 15.3613,117.2148 C14.4413,117.2148 11.7213,117.2548 11.7213,115.8748 C11.7213,115.0358 12.6413,115.0358 12.8603,114.3348 C13.0203,113.8338 13.0813,112.6948 13.0813,112.1338 L13.0813,110.9338 Z" id="Fill-81" fill="#FBDCE7"></path>
                        <path d="M16.7014,107.2336 C15.8234,107.2646 12.2414,107.8616 12.2414,108.8536 C12.2414,109.1106 12.2504,109.1136 12.4874,109.1996 C12.9904,109.3796 13.4814,109.6636 13.4814,110.9336 L13.4814,112.1336 C13.4814,112.5426 13.4374,113.8446 13.2414,114.4576 C13.1044,114.8916 12.7864,115.1256 12.5304,115.3126 C12.2464,115.5196 12.1214,115.6226 12.1214,115.8756 C12.1214,116.0206 12.1714,116.1386 12.2774,116.2456 C12.8504,116.8176 14.6174,116.7996 15.2854,116.8146 C17.6714,116.8146 18.9224,116.6626 18.9224,115.8546 C18.9224,115.5306 18.8094,115.4626 18.3254,115.3146 C17.9464,115.1986 17.3754,115.0236 17.2854,114.3686 C17.1844,113.5966 17.1214,112.7346 17.1214,112.1146 L17.1194,111.9736 C17.1034,111.3206 17.1174,110.5926 17.4724,110.2306 C17.6104,110.0886 17.7864,110.0136 17.9814,110.0136 C18.3454,110.0136 18.6044,110.2646 18.8564,110.5066 C19.1864,110.8256 19.5274,111.1536 20.1624,111.1536 C21.2794,111.1536 22.2224,110.2376 22.2224,109.1536 C22.2224,108.0046 21.4914,107.2336 20.4024,107.2336 C19.4734,107.2336 19.0554,107.7806 18.7194,108.2206 C18.4854,108.5256 18.2654,108.8136 17.9024,108.8136 C17.2254,108.8136 17.1824,108.0756 17.1694,107.8326 C17.1404,107.5586 17.1124,107.3216 17.0764,107.2706 C17.0734,107.2706 17.0034,107.2336 16.7014,107.2336 L16.7014,107.2336 Z M15.2504,117.6156 C14.2524,117.6156 12.4904,117.5876 11.7124,116.8116 C11.4564,116.5556 11.3204,116.2316 11.3204,115.8756 C11.3204,115.2066 11.7474,114.8946 12.0574,114.6676 C12.2824,114.5026 12.4234,114.3926 12.4784,114.2146 C12.6174,113.7836 12.6804,112.7176 12.6804,112.1336 L12.6804,110.9336 C12.6804,110.1196 12.4864,110.0486 12.2164,109.9526 C11.9264,109.8476 11.4404,109.6726 11.4404,108.8536 C11.4404,106.8046 16.6484,106.4326 16.7014,106.4326 C17.7604,106.4326 17.8684,106.8976 17.9574,107.6556 L17.9674,107.7866 C17.9694,107.8116 17.9714,107.8446 17.9734,107.8806 C18.0084,107.8346 18.0484,107.7806 18.0834,107.7346 C18.4554,107.2486 19.0784,106.4326 20.4024,106.4326 C21.9214,106.4326 23.0234,107.5776 23.0234,109.1536 C23.0234,110.6976 21.7394,111.9546 20.1624,111.9546 C19.2054,111.9546 18.6614,111.4296 18.3014,111.0836 C18.1954,110.9816 18.0364,110.8276 17.9744,110.8136 C17.9884,110.8486 17.8984,111.0796 17.9194,111.9556 L17.9224,112.1146 C17.9224,112.7026 17.9814,113.5256 18.0784,114.2626 C18.0954,114.3826 18.1764,114.4316 18.5594,114.5496 C18.9944,114.6826 19.7224,114.9056 19.7224,115.8546 C19.7224,117.6156 17.3054,117.6156 15.3614,117.6156 L15.2504,117.6156 Z" id="Fill-83" fill="#232020"></path>
                        <path d="M29.6018,112.674 C29.6018,113.475 29.6618,114.715 30.7418,114.715 C32.1818,114.715 31.9818,112.834 31.9818,111.874 C31.9818,111.214 32.0018,110.354 31.9018,109.714 C31.7428,108.713 30.7618,109.054 30.7618,108.213 C30.7618,107.033 34.7828,106.833 35.5428,106.833 C36.2628,106.833 36.5628,107.253 36.5628,107.953 C36.5628,108.594 36.5228,109.214 36.5228,109.854 L36.5228,113.874 C36.5228,115.075 37.6228,114.515 37.6228,115.475 C37.6228,116.835 34.0818,117.215 32.9828,117.215 C31.4418,117.215 32.4618,116.015 31.6628,116.015 C31.4418,116.015 31.1228,116.316 30.6418,116.615 C30.1618,116.915 29.5218,117.215 28.6418,117.215 C24.8408,117.215 25.1608,114.215 25.1608,111.214 C25.1608,108.153 23.7808,109.493 23.7808,108.173 C23.7808,106.893 28.8218,106.833 28.9818,106.833 C29.5408,106.833 29.6018,107.093 29.6018,107.593 L29.6018,112.674 Z" id="Fill-85" fill="#FBDCE7"></path>
                        <path d="M31.6624,115.6145 C32.3684,115.6145 32.4134,116.2145 32.4304,116.4405 C32.4514,116.7275 32.4584,116.8145 32.9824,116.8145 C34.4774,116.8145 37.2234,116.3055 37.2234,115.4745 C37.2234,115.2765 37.1864,115.2605 36.9504,115.1485 C36.6414,115.0055 36.1224,114.7625 36.1224,113.8745 L36.1224,109.8535 C36.1224,109.5295 36.1334,109.2115 36.1424,108.8915 C36.1524,108.5805 36.1624,108.2695 36.1624,107.9535 C36.1624,107.3535 35.9264,107.2335 35.5434,107.2335 C33.6304,107.2335 31.1624,107.7085 31.1624,108.2135 C31.1624,108.3785 31.1944,108.4055 31.4474,108.5435 C31.7404,108.7045 32.1844,108.9465 32.2974,109.6515 C32.3884,110.2335 32.3854,110.9525 32.3824,111.5875 L32.3864,112.1855 C32.4014,112.9855 32.4234,114.0805 31.8214,114.6935 C31.5474,114.9725 31.1834,115.1155 30.7414,115.1155 C29.2014,115.1155 29.2014,113.2775 29.2014,112.6745 L29.2014,107.5935 C29.2014,107.3505 29.1834,107.2745 29.1704,107.2505 L29.1694,107.2505 C29.1594,107.2505 29.1064,107.2335 28.9814,107.2335 C26.6034,107.2335 24.1814,107.7075 24.1814,108.1735 C24.1814,108.4465 24.2044,108.4585 24.4334,108.5695 C25.0274,108.8575 25.5604,109.2765 25.5604,111.2145 L25.5574,111.8675 C25.5444,113.5995 25.5314,115.2375 26.3884,116.1005 C26.8654,116.5815 27.6014,116.8145 28.6414,116.8145 C29.4614,116.8145 30.0274,116.5265 30.4304,116.2755 C30.5824,116.1805 30.7174,116.0865 30.8374,116.0015 C31.1444,115.7855 31.3884,115.6145 31.6624,115.6145 M32.9824,117.6155 C31.7164,117.6155 31.6574,116.8335 31.6324,116.5005 C31.6314,116.4825 31.6304,116.4635 31.6284,116.4435 C31.5374,116.4875 31.4074,116.5795 31.2974,116.6565 C31.1664,116.7485 31.0184,116.8515 30.8534,116.9545 C30.3994,117.2385 29.6764,117.6155 28.6414,117.6155 C27.3784,117.6155 26.4554,117.3035 25.8204,116.6645 C24.7284,115.5645 24.7424,113.7645 24.7574,111.8605 L24.7604,111.2145 C24.7604,109.6175 24.4014,109.4425 24.0844,109.2895 C23.8044,109.1525 23.3804,108.9465 23.3804,108.1735 C23.3804,106.5165 28.0464,106.4325 28.9814,106.4325 C30.0024,106.4325 30.0024,107.2175 30.0024,107.5935 L30.0024,112.6745 C30.0024,114.0365 30.2974,114.3145 30.7414,114.3145 C31.0374,114.3145 31.1744,114.2115 31.2504,114.1345 C31.6164,113.7605 31.5984,112.8225 31.5864,112.2015 L31.5814,111.8745 L31.5824,111.5835 C31.5854,110.9785 31.5884,110.2945 31.5064,109.7765 C31.4564,109.4605 31.3084,109.3795 31.0634,109.2455 C30.7844,109.0935 30.3614,108.8615 30.3614,108.2135 C30.3614,106.4535 35.3314,106.4325 35.5434,106.4325 C36.4454,106.4325 36.9634,106.9875 36.9634,107.9535 C36.9634,108.2785 36.9524,108.5975 36.9424,108.9175 C36.9334,109.2275 36.9234,109.5385 36.9234,109.8535 L36.9234,113.8745 C36.9234,114.2535 37.0224,114.3005 37.2884,114.4245 C37.5624,114.5525 38.0234,114.7665 38.0234,115.4745 C38.0234,117.5225 33.0334,117.6155 32.9824,117.6155" id="Fill-87" fill="#232020"></path>
                        <path d="M45.2415,109.8742 C45.2415,109.1532 44.8015,108.5942 44.0605,108.5942 C43.4005,108.5942 42.8605,109.2732 42.8605,109.9142 C42.8605,110.6342 43.5415,110.4742 44.0605,110.4742 C44.6015,110.4742 45.2415,110.5942 45.2415,109.8742 L45.2415,109.8742 Z M43.5015,112.3952 C43.2815,112.3952 42.9615,112.3342 42.9615,112.6742 C42.9615,113.6752 44.2615,114.5152 45.2015,114.5152 C46.7015,114.5152 47.4415,113.6142 47.8615,113.6142 C48.2825,113.6142 48.6415,114.2342 48.6415,114.6142 C48.6415,116.1552 45.8215,117.2752 44.0205,117.2752 C40.4205,117.2752 38.5595,114.6752 38.5595,112.0942 C38.5595,109.0142 41.1805,106.7722 44.1805,106.7722 C47.5825,106.7722 49.0825,109.3942 49.0825,110.8942 C49.0825,112.2142 48.4815,112.3952 47.8425,112.3952 L43.5015,112.3952 Z" id="Fill-89" fill="#FBDCE7"></path>
                        <path d="M44.0608,108.9943 C43.6178,108.9943 43.2608,109.4973 43.2608,109.9143 C43.2608,110.0173 43.2818,110.0493 43.2828,110.0493 C43.3378,110.1013 43.6468,110.0883 43.7968,110.0813 C43.8868,110.0773 43.9758,110.0733 44.0608,110.0733 L44.2778,110.0773 C44.4438,110.0833 44.7518,110.0913 44.8128,110.0313 C44.8208,110.0233 44.8408,109.9803 44.8408,109.8743 C44.8408,109.4483 44.6358,108.9943 44.0608,108.9943 M43.5658,110.8893 C43.2718,110.8893 42.9598,110.8483 42.7288,110.6273 C42.5508,110.4563 42.4598,110.2173 42.4598,109.9143 C42.4598,109.1013 43.1448,108.1933 44.0608,108.1933 C44.9918,108.1933 45.6418,108.8853 45.6418,109.8743 C45.6418,110.1833 45.5498,110.4303 45.3718,110.6043 C45.0678,110.8983 44.6328,110.8853 44.2558,110.8773 L44.0608,110.8743 C43.9878,110.8743 43.9108,110.8773 43.8318,110.8813 C43.7478,110.8853 43.6578,110.8893 43.5658,110.8893 M44.1808,107.1733 C41.2528,107.1733 38.9598,109.3343 38.9598,112.0943 C38.9598,114.4703 40.6988,116.8753 44.0208,116.8753 C45.6488,116.8753 48.2418,115.8413 48.2418,114.6143 C48.2418,114.3793 47.9898,114.0153 47.8618,114.0153 C47.8098,114.0233 47.6278,114.1303 47.4958,114.2083 C47.0158,114.4893 46.2908,114.9153 45.2018,114.9153 C44.0128,114.9153 42.5608,113.8813 42.5608,112.6743 C42.5608,112.4203 42.6658,112.2653 42.7538,112.1803 C42.9628,111.9773 43.2378,111.9803 43.4258,111.9933 L43.5008,112.3943 L43.5008,111.9943 L47.8418,111.9943 C48.2548,111.9943 48.6818,111.9943 48.6818,110.8933 C48.6818,109.5963 47.3618,107.1733 44.1808,107.1733 M44.0208,117.6763 C40.1728,117.6763 38.1598,114.8673 38.1598,112.0943 C38.1598,108.8863 40.8048,106.3723 44.1808,106.3723 C47.9268,106.3723 49.4828,109.3173 49.4828,110.8933 C49.4828,112.1733 48.9458,112.7953 47.8418,112.7953 L43.3998,112.7923 C43.3908,112.7923 43.3808,112.7923 43.3718,112.7913 C43.4798,113.4803 44.4588,114.1143 45.2018,114.1143 C46.0738,114.1143 46.6618,113.7693 47.0898,113.5183 C47.3788,113.3483 47.6078,113.2143 47.8618,113.2143 C48.5458,113.2143 49.0418,114.0513 49.0418,114.6143 C49.0418,116.4543 46.0198,117.6763 44.0208,117.6763" id="Fill-91" fill="#232020"></path>
                        <path d="M56.0217,113.4143 C56.0217,113.7743 56.0007,114.4353 56.1017,114.7553 C56.3217,115.4753 57.2217,115.1353 57.2217,115.9753 C57.2217,117.3153 54.7817,117.2153 53.9207,117.2153 C53.0207,117.2153 50.2197,117.3153 50.2197,115.8943 C50.2197,115.1943 51.0807,115.4553 51.3207,114.7153 C51.5807,113.8943 51.5807,111.3933 51.5807,110.4143 C51.5807,109.6343 51.6207,108.1333 51.4407,107.2333 C51.1397,105.7533 49.9597,106.2723 49.9597,105.1333 C49.9597,103.3933 55.1617,102.9723 55.4417,102.9723 C56.1217,102.9723 56.2817,103.4123 56.2817,104.0133 C56.2817,104.4733 56.0217,106.6733 56.0217,109.5333 L56.0217,113.4143 Z" id="Fill-93" fill="#FBDCE7"></path>
                        <path d="M53.9211,116.8147 L54.0941,116.8157 C54.7221,116.8287 56.1821,116.8297 56.6721,116.3417 C56.7751,116.2407 56.8211,116.1247 56.8211,115.9747 C56.8211,115.7937 56.7971,115.7777 56.5301,115.6637 C56.2701,115.5517 55.8751,115.3827 55.7191,114.8727 C55.6141,114.5387 55.6181,113.9797 55.6211,113.5717 L55.6211,109.5337 C55.6211,107.4757 55.7531,105.7887 55.8311,104.7797 C55.8601,104.4027 55.8811,104.1397 55.8811,104.0127 C55.8811,103.4027 55.7141,103.3727 55.4421,103.3727 C54.4721,103.3807 50.3601,103.9927 50.3601,105.1327 C50.3601,105.4567 50.4601,105.5147 50.7581,105.6917 C51.1311,105.9127 51.6421,106.2147 51.8321,107.1537 C51.9951,107.9677 51.9871,109.2187 51.9821,110.0477 L51.9811,110.4147 C51.9811,112.0637 51.9481,114.0567 51.7011,114.8357 C51.5301,115.3637 51.1331,115.5497 50.8691,115.6727 C50.6201,115.7897 50.6201,115.8017 50.6201,115.8947 C50.6201,116.0447 50.6701,116.1657 50.7781,116.2727 C51.3381,116.8297 53.0281,116.8137 53.7491,116.8157 L53.9211,116.8147 Z M54.3381,117.6167 C54.2501,117.6167 54.1661,117.6167 54.0891,117.6157 L53.7541,117.6157 C52.8011,117.6287 51.0101,117.6307 50.2141,116.8397 C49.9561,116.5837 49.8191,116.2567 49.8191,115.8947 C49.8191,115.2807 50.2651,115.0727 50.5301,114.9487 C50.7651,114.8387 50.8791,114.7787 50.9401,114.5917 C51.1801,113.8337 51.1801,111.2597 51.1801,110.4147 L51.1821,110.0427 C51.1871,109.2477 51.1941,108.0437 51.0481,107.3117 C50.9291,106.7217 50.6601,106.5637 50.3511,106.3797 C50.0171,106.1827 49.5601,105.9117 49.5601,105.1327 C49.5601,102.8837 55.3831,102.5717 55.4421,102.5717 C56.0071,102.5717 56.6821,102.8217 56.6821,104.0127 C56.6821,104.1497 56.6601,104.4347 56.6281,104.8407 C56.5511,105.8377 56.4221,107.5067 56.4221,109.5337 L56.4211,113.5777 C56.4191,113.8917 56.4151,114.4187 56.4841,114.6347 C56.5281,114.7817 56.6091,114.8267 56.8461,114.9277 C57.1361,115.0517 57.6221,115.2597 57.6221,115.9747 C57.6221,116.3357 57.4881,116.6587 57.2361,116.9097 C56.5761,117.5647 55.2161,117.6167 54.3381,117.6167 L54.3381,117.6167 Z" id="Fill-95" fill="#232020"></path>
                        <path d="M64.6614,108.9533 C63.3214,108.9533 63.0814,111.2543 63.0814,112.1943 C63.0814,113.1353 63.3214,114.7743 64.5614,114.7743 C65.9014,114.7743 65.8214,112.3143 65.8214,111.4333 C65.8214,110.6533 65.8214,108.9533 64.6614,108.9533 L64.6614,108.9533 Z M70.2424,113.6143 C70.2424,115.0153 71.3034,114.5553 71.3034,115.5953 C71.3034,117.1153 66.9224,117.2153 66.7024,117.2153 C65.6824,117.2153 66.4014,116.1153 65.7414,116.1153 C65.5614,116.1153 65.2624,116.3943 64.8024,116.6953 C64.3414,116.9753 63.7214,117.2753 62.8414,117.2753 C60.2214,117.2753 58.1804,114.4943 58.1804,112.0343 C58.1804,109.3733 60.3414,106.7723 63.1004,106.7723 C64.4814,106.7723 65.2624,107.3733 65.4814,107.3733 C65.7814,107.3733 65.8024,106.7133 65.8024,106.4933 C65.8024,105.2533 64.3414,105.9133 64.3414,104.8333 C64.3414,103.3523 69.4424,102.9723 69.5024,102.9723 C70.1024,102.9723 70.2424,103.3923 70.2424,104.0533 L70.2424,113.6143 Z" id="Fill-97" fill="#FBDCE7"></path>
                        <path d="M64.6614,109.3537 C63.6934,109.3537 63.4814,111.4047 63.4814,112.1947 C63.4814,112.5587 63.5334,114.3747 64.5614,114.3747 C64.7104,114.3747 64.8274,114.3267 64.9304,114.2237 C65.4314,113.7207 65.4254,112.2187 65.4224,111.5777 L65.4214,111.4337 C65.4214,110.4057 65.3314,109.3537 64.6614,109.3537 M64.5614,115.1747 C63.1754,115.1747 62.6814,113.6347 62.6814,112.1947 C62.6814,110.5147 63.1994,108.5527 64.6614,108.5527 C66.2224,108.5527 66.2224,110.6457 66.2224,111.4337 L66.2224,111.5747 C66.2254,112.4397 66.2324,114.0487 65.4964,114.7887 C65.2444,115.0407 64.9214,115.1747 64.5614,115.1747 M63.1004,107.1727 C60.6924,107.1727 58.5804,109.4447 58.5804,112.0347 C58.5804,114.2737 60.4414,116.8747 62.8414,116.8747 C63.6294,116.8747 64.1704,116.6117 64.5944,116.3537 C64.7274,116.2657 64.8564,116.1727 64.9704,116.0907 C65.2724,115.8737 65.4914,115.7147 65.7414,115.7147 C66.4004,115.7147 66.4554,116.3137 66.4764,116.5397 C66.4834,116.6157 66.4964,116.7557 66.5204,116.7867 C66.5294,116.7927 66.5834,116.8147 66.7024,116.8147 C68.2104,116.8147 70.9024,116.4077 70.9024,115.5947 C70.9024,115.3217 70.8204,115.2627 70.6014,115.1087 C70.2994,114.8957 69.8424,114.5747 69.8424,113.6147 L69.8424,104.0527 C69.8424,103.3727 69.6924,103.3727 69.5024,103.3727 C67.8344,103.4597 64.7414,104.0827 64.7414,104.8327 C64.7414,105.0437 64.7844,105.0827 65.1624,105.2117 C65.5514,105.3437 66.2024,105.5657 66.2024,106.4937 C66.2024,107.5507 65.8094,107.7737 65.4814,107.7737 C65.3334,107.7737 65.1974,107.7117 64.9914,107.6197 C64.6214,107.4527 64.0024,107.1727 63.1004,107.1727 M62.8414,117.6757 C59.9444,117.6757 57.7794,114.6977 57.7794,112.0347 C57.7794,109.0187 60.2654,106.3727 63.1004,106.3727 C64.1744,106.3727 64.9204,106.7087 65.3204,106.8897 C65.3374,106.8977 65.3524,106.9047 65.3674,106.9117 C65.3864,106.8167 65.4014,106.6757 65.4014,106.4937 C65.4014,106.1537 65.2904,106.1007 64.9044,105.9687 C64.5444,105.8457 63.9404,105.6407 63.9404,104.8327 C63.9404,102.8827 69.4464,102.5717 69.5024,102.5717 C70.6424,102.5717 70.6424,103.6867 70.6424,104.0527 L70.6424,113.6147 C70.6424,114.1597 70.8084,114.2767 71.0614,114.4547 C71.3324,114.6447 71.7034,114.9067 71.7034,115.5947 C71.7034,117.5917 66.9064,117.6157 66.7024,117.6157 C65.7714,117.6157 65.7054,116.8867 65.6804,116.6127 C65.6794,116.5997 65.6774,116.5847 65.6764,116.5697 C65.6114,116.6157 65.5184,116.6817 65.4374,116.7407 C65.3154,116.8287 65.1774,116.9277 65.0204,117.0307 C64.5204,117.3337 63.8334,117.6757 62.8414,117.6757" id="Fill-99" fill="#232020"></path>
                        <path d="M76.3411,113.9748 C76.3411,114.4948 76.6201,115.0548 77.2001,115.0548 C77.9611,115.0548 78.0211,114.2348 78.0211,113.6348 C78.0211,113.1948 78.0411,112.6948 77.4811,112.6948 C76.8011,112.6948 76.3411,113.3338 76.3411,113.9748 L76.3411,113.9748 Z M82.3421,112.2138 C82.3421,115.7348 83.5421,113.8148 83.5421,114.8948 C83.5421,116.0358 81.9821,117.2758 80.5221,117.2758 C78.9411,117.2758 78.9021,116.2548 78.4011,116.2548 C78.1611,116.2548 77.9011,116.5148 77.4611,116.7548 C77.0211,117.0148 76.4201,117.2758 75.5001,117.2758 C73.8401,117.2758 72.1801,116.3948 72.1801,114.4148 C72.1801,112.9948 73.5401,111.2338 77.0611,111.2338 C77.6811,111.2338 77.9611,111.2738 77.9611,110.5538 C77.9611,109.8938 77.9411,108.5138 77.0211,108.5138 C75.8201,108.5138 75.7001,110.6738 73.9201,110.6738 C73.2791,110.6738 72.8001,110.2138 72.8001,109.5738 C72.8001,107.8728 76.1811,106.7728 78.0811,106.7728 C79.2211,106.7728 82.3421,107.2128 82.3421,110.2138 L82.3421,112.2138 Z" id="Fill-101" fill="#FBDCE7"></path>
                        <path d="M77.551,113.1057 C77.031,113.1057 76.741,113.5547 76.741,113.9747 C76.741,114.2097 76.837,114.6547 77.2,114.6547 C77.358,114.6547 77.62,114.6547 77.62,113.6347 C77.621,113.4517 77.621,113.1647 77.571,113.1057 L77.551,113.1057 Z M77.2,115.4557 C76.373,115.4557 75.941,114.7097 75.941,113.9747 C75.941,113.1677 76.53,112.2937 77.481,112.2937 C77.753,112.2937 77.974,112.3767 78.137,112.5407 C78.422,112.8267 78.421,113.2507 78.421,113.5897 C78.421,114.0847 78.421,115.4557 77.2,115.4557 L77.2,115.4557 Z M78.401,115.8547 C78.758,115.8547 78.976,116.0947 79.152,116.2877 C79.403,116.5637 79.687,116.8757 80.522,116.8757 C81.845,116.8757 83.139,115.7447 83.142,114.8977 C82.25,114.8147 81.942,114.0677 81.942,112.2137 L81.942,110.2137 C81.942,107.2577 78.477,107.1727 78.081,107.1727 C76.198,107.1727 73.2,108.2717 73.2,109.5737 C73.2,109.9857 73.496,110.2737 73.92,110.2737 C74.695,110.2737 75.077,109.7517 75.482,109.1997 C75.855,108.6907 76.277,108.1137 77.021,108.1137 C78.362,108.1137 78.362,109.9507 78.362,110.5537 C78.362,110.8237 78.331,111.1617 78.102,111.3907 C77.856,111.6357 77.534,111.6357 77.153,111.6337 L77.152,111.6337 C73.982,111.6337 72.58,113.0757 72.58,114.4157 C72.58,116.2317 74.154,116.8757 75.5,116.8757 C76.36,116.8757 76.891,116.6267 77.258,116.4107 C77.416,116.3237 77.541,116.2417 77.652,116.1687 C77.907,116.0007 78.127,115.8547 78.401,115.8547 L78.401,115.8547 Z M80.522,117.6757 C79.333,117.6757 78.849,117.1437 78.56,116.8267 C78.499,116.7587 78.415,116.6677 78.381,116.6517 C78.355,116.6637 78.202,116.7627 78.092,116.8357 C77.965,116.9197 77.822,117.0137 77.653,117.1057 C77.245,117.3467 76.565,117.6757 75.5,117.6757 C73.649,117.6757 71.78,116.6677 71.78,114.4157 C71.78,112.6907 73.433,110.8337 77.061,110.8337 C77.299,110.8357 77.484,110.8347 77.546,110.8147 C77.54,110.8057 77.561,110.7347 77.561,110.5537 C77.561,109.4507 77.384,108.9147 77.021,108.9147 C76.698,108.9147 76.472,109.2017 76.127,109.6717 C75.67,110.2957 75.101,111.0747 73.92,111.0747 C73.054,111.0747 72.4,110.4287 72.4,109.5737 C72.4,107.5017 76.153,106.3727 78.081,106.3727 C79.813,106.3727 82.742,107.1817 82.742,110.2137 L82.742,112.2137 C82.742,114.0897 83.066,114.0977 83.203,114.1007 C83.386,114.1057 83.943,114.1197 83.943,114.8947 C83.943,116.2717 82.216,117.6757 80.522,117.6757 L80.522,117.6757 Z" id="Fill-103" fill="#232020"></path>
                        <path d="M91.0413,108.9533 C89.7013,108.9533 89.4613,111.2543 89.4613,112.1943 C89.4613,113.1353 89.7013,114.7743 90.9413,114.7743 C92.2813,114.7743 92.2013,112.3143 92.2013,111.4333 C92.2013,110.6533 92.2013,108.9533 91.0413,108.9533 L91.0413,108.9533 Z M96.6223,113.6143 C96.6223,115.0153 97.6833,114.5553 97.6833,115.5953 C97.6833,117.1153 93.3023,117.2153 93.0823,117.2153 C92.0623,117.2153 92.7813,116.1153 92.1213,116.1153 C91.9413,116.1153 91.6423,116.3943 91.1823,116.6953 C90.7213,116.9753 90.1013,117.2753 89.2213,117.2753 C86.6013,117.2753 84.5603,114.4943 84.5603,112.0343 C84.5603,109.3733 86.7213,106.7723 89.4803,106.7723 C90.8613,106.7723 91.6423,107.3733 91.8613,107.3733 C92.1613,107.3733 92.1823,106.7133 92.1823,106.4933 C92.1823,105.2533 90.7213,105.9133 90.7213,104.8333 C90.7213,103.3523 95.8223,102.9723 95.8823,102.9723 C96.4823,102.9723 96.6223,103.3923 96.6223,104.0533 L96.6223,113.6143 Z" id="Fill-105" fill="#FBDCE7"></path>
                        <path d="M91.0413,109.3537 C90.0733,109.3537 89.8613,111.4047 89.8613,112.1947 C89.8613,112.5587 89.9133,114.3747 90.9413,114.3747 C91.0903,114.3747 91.2073,114.3267 91.3103,114.2237 C91.8113,113.7207 91.8053,112.2187 91.8023,111.5777 L91.8013,111.4337 C91.8013,110.4057 91.7113,109.3537 91.0413,109.3537 M90.9413,115.1747 C89.5553,115.1747 89.0613,113.6347 89.0613,112.1947 C89.0613,110.5147 89.5793,108.5527 91.0413,108.5527 C92.6023,108.5527 92.6023,110.6457 92.6023,111.4337 L92.6023,111.5747 C92.6053,112.4397 92.6123,114.0487 91.8763,114.7887 C91.6243,115.0407 91.3013,115.1747 90.9413,115.1747 M89.4803,107.1727 C87.0723,107.1727 84.9603,109.4447 84.9603,112.0347 C84.9603,114.2737 86.8213,116.8747 89.2213,116.8747 C90.0093,116.8747 90.5503,116.6117 90.9743,116.3537 C91.1073,116.2657 91.2363,116.1727 91.3503,116.0907 C91.6523,115.8737 91.8713,115.7147 92.1213,115.7147 C92.7803,115.7147 92.8353,116.3137 92.8563,116.5397 C92.8633,116.6157 92.8763,116.7557 92.9003,116.7867 C92.9093,116.7927 92.9633,116.8147 93.0823,116.8147 C94.5903,116.8147 97.2823,116.4077 97.2823,115.5947 C97.2823,115.3217 97.2003,115.2627 96.9813,115.1087 C96.6793,114.8957 96.2223,114.5747 96.2223,113.6147 L96.2223,104.0527 C96.2223,103.3727 96.0723,103.3727 95.8823,103.3727 C94.2143,103.4597 91.1213,104.0827 91.1213,104.8327 C91.1213,105.0437 91.1643,105.0827 91.5423,105.2117 C91.9313,105.3437 92.5823,105.5657 92.5823,106.4937 C92.5823,107.5507 92.1893,107.7737 91.8613,107.7737 C91.7133,107.7737 91.5773,107.7117 91.3713,107.6197 C91.0013,107.4527 90.3823,107.1727 89.4803,107.1727 M89.2213,117.6757 C86.3243,117.6757 84.1593,114.6977 84.1593,112.0347 C84.1593,109.0187 86.6453,106.3727 89.4803,106.3727 C90.5543,106.3727 91.3003,106.7087 91.7003,106.8897 C91.7173,106.8977 91.7323,106.9047 91.7473,106.9117 C91.7663,106.8167 91.7813,106.6757 91.7813,106.4937 C91.7813,106.1537 91.6703,106.1007 91.2843,105.9687 C90.9243,105.8457 90.3203,105.6407 90.3203,104.8327 C90.3203,102.8827 95.8263,102.5717 95.8823,102.5717 C97.0223,102.5717 97.0223,103.6867 97.0223,104.0527 L97.0223,113.6147 C97.0223,114.1597 97.1883,114.2767 97.4413,114.4547 C97.7123,114.6447 98.0833,114.9067 98.0833,115.5947 C98.0833,117.5917 93.2863,117.6157 93.0823,117.6157 C92.1513,117.6157 92.0853,116.8867 92.0603,116.6127 C92.0593,116.5997 92.0573,116.5847 92.0563,116.5697 C91.9913,116.6157 91.8983,116.6817 91.8173,116.7407 C91.6953,116.8287 91.5573,116.9277 91.4003,117.0307 C90.9003,117.3337 90.2133,117.6757 89.2213,117.6757" id="Fill-107" fill="#232020"></path>
                    </g>
                </g>
            </g>
        </g>
    </g>
</svg>