<svg width="46" height="75" xmlns="http://www.w3.org/2000/svg">
  <g stroke="#231F20" stroke-linecap="round" stroke-linejoin="round" fill="none" fill-rule="evenodd">
    <path d="M33.924 73.852c.335 0 .654-.141.872-.396 5.797-6.792 10.579-19.21 10.579-34.13 0-21.14-9.972-38.278-22.271-38.278-12.3 0-22.27 17.137-22.27 38.277 0 14.92 4.781 27.339 10.578 34.131.217.255.536.396.872.396h21.64zM3.22 57.052h39.768"/>
    <path d="M33.924 73.852c.335 0 .654-.141.872-.397 4.635-5.43 8.622-14.458 10.032-25.486v-.006s-8.25 5.602-21.724 5.602c-13.475 0-21.724-5.602-21.724-5.602l-.002.001c1.411 11.03 5.397 20.06 10.034 25.491.217.256.537.397.873.397h21.639zM36.579 8.847c-3.741-4.894-8.41-7.799-13.476-7.799-5.064 0-9.734 2.906-13.475 7.801h.001s4.454-2.365 13.474-2.365S36.58 8.85 36.58 8.85v-.003z"/>
  </g>
</svg>