<?xml version="1.0" encoding="utf-8"?>
<!-- Generator: Adobe Illustrator 24.1.2, SVG Export Plug-In . SVG Version: 6.00 Build 0)  -->
<svg version="1.1" id="Layer_1" xmlns="http://www.w3.org/2000/svg" xmlns:xlink="http://www.w3.org/1999/xlink" x="0px" y="0px"
	 viewBox="0 0 283.46 283.46" style="enable-background:new 0 0 283.46 283.46;" xml:space="preserve">
<style type="text/css">
	.st0{fill:#268551;}
	.st1{fill:#FFFFFF;}
</style>
<g>
	<path class="st0" d="M282.03,125.66c0-32.69-26.5-59.19-59.19-59.19c-7.38,0-14.44,1.35-20.95,3.82c0.08-1.26,0.13-2.54,0.13-3.82
		c0-32.69-26.5-59.19-59.19-59.19s-59.19,26.5-59.19,59.19c0,1.59,0.06,3.17,0.19,4.72c-7.13-3.04-14.97-4.72-23.21-4.72
		c-32.69,0-59.19,26.5-59.19,59.19c0,25.82,16.53,47.77,39.58,55.86C33.59,191.4,29.2,203.69,29.2,217
		c0,32.69,26.5,59.19,59.19,59.19c24.6,0,45.69-15,54.62-36.36c8.94,21.35,30.03,36.36,54.62,36.36c32.69,0,59.19-26.5,59.19-59.19
		c0-13.64-4.62-26.21-12.38-36.22C266.45,172.15,282.03,150.72,282.03,125.66z"/>
	<g>
		<path class="st1" d="M75.71,129.07h6.71c-2.12,5.59-7.12,9.24-14.3,9.24c-9.77,0-15.71-6.41-15.71-16.18
			c0-9.12,5.94-15.89,15.18-15.89c11.65,0,15.24,9,15.24,18.12H59.06c0.41,5.77,4.47,8.24,9.06,8.24
			C72.18,132.6,74.65,130.89,75.71,129.07z M59.06,119.18H76c-0.12-4.65-3.35-7.77-8.41-7.77
			C62.82,111.42,59.35,114.53,59.06,119.18z"/>
		<path class="st1" d="M89.19,107.12h6.24v4.06c1.65-3.12,5.41-4.94,9.18-4.94c7.41,0,11.36,4.06,11.36,11.77v19.42h-6.47v-17.3
			c0-5.65-1.88-8-6.12-8c-5.47,0-7.71,3.77-7.71,9.36v15.94h-6.47V107.12z"/>
		<path class="st1" d="M133.85,137.42l-13.36-30.3h7.3l9.18,22.3l9.12-22.3h6.94l-12.94,30.3H133.85z"/>
		<path class="st1" d="M157.86,107.12h6.47v30.3h-6.47V107.12z M158.15,103.83l4.71-7.59h7.94l-6.59,7.59H158.15z"/>
		<path class="st1" d="M170.68,122.24c0-9.3,6.59-16,15.71-16s15.71,6.71,15.71,16c0,9.36-6.59,16.06-15.71,16.06
			S170.68,131.6,170.68,122.24z M195.39,122.24c0-6.53-4-10-9-10s-9,3.47-9,10c0,6.59,4,10.06,9,10.06S195.39,128.83,195.39,122.24z
			"/>
		<path class="st1" d="M206.75,128.66h6.77c0.06,2.35,2.59,4.35,5.59,4.35c3.06,0,5-1.53,5-3.88c0-2-1.12-3.29-3.65-3.82l-5.06-1
			c-4.94-1-7.77-4.41-7.77-8.59c0-5.47,4.83-9.47,11.06-9.47c7.3,0,11.42,3.12,11.89,9h-6.77c-0.18-2.47-1.88-3.77-4.88-3.77
			c-2.76,0-4.65,1.47-4.65,3.65c0,1.94,1.06,3.06,4,3.65l5.35,1.12c4.41,0.94,7.18,4.53,7.18,8.94c0,5.47-4.94,9.47-11.77,9.47
			C211.87,138.3,207.05,134.48,206.75,128.66z"/>
		<path class="st1" d="M95.42,165.96v27.01c0,8.47-5.18,13-14.53,13c-7.65,0-13.53-3.94-13.95-9.47h6.77c0.53,2.47,3.41,4,7.41,4
			c5.53,0,7.83-2.82,7.83-8.12v-2.06c-2.06,2.53-4.94,3.53-9.41,3.53c-7.71,0-13.3-6-13.3-14.42c0-8.41,5.59-14.36,13.3-14.36
			c4.47,0,7.35,1,9.41,3.59v-2.71H95.42z M89.24,179.44c0-5.24-3.12-8.77-8.24-8.77c-4.71,0-8.12,3.65-8.12,8.77
			c0,5.12,3.41,8.83,8.12,8.83C86.12,188.26,89.24,184.67,89.24,179.44z"/>
		<path class="st1" d="M119.19,171.97c-6.71,0-8.94,4.18-8.94,10.53v13.77h-6.47v-30.3h6.47v4.88c1.71-3.88,4.83-5.47,8.77-5.47
			h1.18v6.59H119.19z"/>
		<path class="st1" d="M123.49,188.21c0-6.3,4.82-8.65,10.12-9.59l5.83-1.06c2.29-0.41,3.24-0.77,3.24-3.18
			c0-2.29-1.82-4.12-5.53-4.12c-3.35,0-6.06,1.41-6.36,4.65h-6.47c0.41-6.77,5.71-9.83,12.89-9.83c8.59,0,11.94,4.06,11.94,12v11.88
			c0,0.65,0.29,2,1.77,2c0.65,0,1.41-0.12,2-0.35v5.12c-0.88,0.59-2.47,1.12-3.82,1.12c-3.35,0-4.88-1.24-5.88-3.29
			c-1.35,1.53-3.65,3.59-9,3.59C128.02,197.15,123.49,193.5,123.49,188.21z M142.67,184.56v-3.06c-0.76,0.47-1.88,0.82-3.94,1.24
			l-3.65,0.71c-3.06,0.59-4.83,1.77-4.83,4.41c0,2.35,2.18,3.77,5.18,3.77C139.79,191.62,142.67,189.26,142.67,184.56z"/>
		<path class="st1" d="M174.39,189.97v5.65c-1.24,0.77-3,1.24-5.47,1.24c-5.41,0-9-2.29-9-9.41v-15.77h-5.12v-5.71h5.12v-7.65h6.47
			v7.65h7.18v5.71h-7.18v14.18c0,2.94,0.94,4.94,4.06,4.94C171.8,190.79,173.33,190.44,174.39,189.97z"/>
		<path class="st1" d="M178.8,157.9c0-2.35,1.94-4.29,4.3-4.29c2.41,0,4.29,1.94,4.29,4.29c0,2.41-1.88,4.35-4.29,4.35
			C180.74,162.26,178.8,160.32,178.8,157.9z M179.8,165.96h6.47v30.3h-6.47V165.96z"/>
		<path class="st1" d="M192.93,187.5h6.77c0.06,2.35,2.59,4.35,5.59,4.35c3.06,0,5-1.53,5-3.88c0-2-1.12-3.29-3.65-3.82l-5.06-1
			c-4.94-1-7.77-4.41-7.77-8.59c0-5.47,4.83-9.47,11.06-9.47c7.3,0,11.42,3.12,11.89,9h-6.77c-0.18-2.47-1.88-3.77-4.88-3.77
			c-2.76,0-4.65,1.47-4.65,3.65c0,1.94,1.06,3.06,4,3.65l5.35,1.12c4.41,0.94,7.18,4.53,7.18,8.94c0,5.47-4.94,9.47-11.77,9.47
			C198.04,197.15,193.22,193.32,192.93,187.5z"/>
	</g>
</g>
</svg>
