<?xml version="1.0" encoding="utf-8"?>
<!-- Generator: Adobe Illustrator 24.1.2, SVG Export Plug-In . SVG Version: 6.00 Build 0)  -->
<svg version="1.1" id="Layer_1" xmlns="http://www.w3.org/2000/svg" xmlns:xlink="http://www.w3.org/1999/xlink" x="0px" y="0px"
	 viewBox="0 0 283.46 283.46" style="enable-background:new 0 0 283.46 283.46;" xml:space="preserve">
<style type="text/css">
	.st0{fill:#268551;}
</style>
<g>
	<path class="st0" d="M282.03,125.66c0-32.69-26.5-59.19-59.19-59.19c-7.38,0-14.44,1.35-20.95,3.82c0.08-1.26,0.13-2.54,0.13-3.82
		c0-32.69-26.5-59.19-59.19-59.19s-59.19,26.5-59.19,59.19c0,1.59,0.06,3.17,0.19,4.72c-7.13-3.04-14.97-4.72-23.21-4.72
		c-32.69,0-59.19,26.5-59.19,59.19c0,25.82,16.53,47.77,39.58,55.86C33.59,191.4,29.2,203.69,29.2,217
		c0,32.69,26.5,59.19,59.19,59.19c24.6,0,45.69-15,54.62-36.36c8.94,21.35,30.03,36.36,54.62,36.36c32.69,0,59.19-26.5,59.19-59.19
		c0-13.64-4.62-26.21-12.38-36.22C266.45,172.15,282.03,150.72,282.03,125.66z"/>
	<g>
		<path d="M92.37,113.56h5.02c-1.58,4.18-5.32,6.91-10.69,6.91c-7.3,0-11.75-4.8-11.75-12.1c0-6.82,4.45-11.88,11.35-11.88
			c8.71,0,11.4,6.73,11.4,13.55H79.91c0.31,4.31,3.34,6.16,6.78,6.16C89.73,116.2,91.58,114.92,92.37,113.56z M79.91,106.16h12.67
			c-0.09-3.48-2.51-5.81-6.29-5.81C82.73,100.36,80.13,102.69,79.91,106.16z"/>
		<path d="M102.44,97.14h4.67v3.04c1.23-2.33,4.05-3.7,6.87-3.7c5.54,0,8.49,3.04,8.49,8.8v14.52h-4.84v-12.94
			c0-4.22-1.41-5.98-4.58-5.98c-4.09,0-5.76,2.82-5.76,7v11.93h-4.84V97.14z"/>
		<path d="M135.84,119.81l-9.99-22.66h5.46l6.87,16.68l6.82-16.68h5.19l-9.68,22.66H135.84z"/>
		<path d="M153.79,97.14h4.84v22.66h-4.84V97.14z M154.01,94.68l3.52-5.68h5.94l-4.93,5.68H154.01z"/>
		<path d="M163.38,108.45c0-6.95,4.93-11.97,11.75-11.97s11.75,5.02,11.75,11.97c0,7-4.93,12.01-11.75,12.01
			S163.38,115.45,163.38,108.45z M181.86,108.45c0-4.88-2.99-7.48-6.73-7.48s-6.73,2.6-6.73,7.48c0,4.93,2.99,7.52,6.73,7.52
			S181.86,113.38,181.86,108.45z"/>
		<path d="M190.35,113.25h5.06c0.04,1.76,1.94,3.26,4.18,3.26c2.29,0,3.74-1.14,3.74-2.9c0-1.5-0.84-2.46-2.73-2.86l-3.78-0.75
			c-3.7-0.75-5.81-3.3-5.81-6.42c0-4.09,3.61-7.08,8.27-7.08c5.46,0,8.54,2.33,8.89,6.73h-5.06c-0.13-1.85-1.41-2.82-3.65-2.82
			c-2.07,0-3.48,1.1-3.48,2.73c0,1.45,0.79,2.29,2.99,2.73l4,0.84c3.3,0.7,5.37,3.39,5.37,6.69c0,4.09-3.7,7.08-8.8,7.08
			C194.18,120.47,190.57,117.61,190.35,113.25z"/>
		<path d="M107.11,139.14v20.2c0,6.34-3.87,9.73-10.87,9.73c-5.72,0-10.12-2.95-10.43-7.08h5.06c0.4,1.85,2.55,2.99,5.54,2.99
			c4.14,0,5.85-2.11,5.85-6.07v-1.54c-1.54,1.89-3.7,2.64-7.04,2.64c-5.76,0-9.95-4.49-9.95-10.78s4.18-10.74,9.95-10.74
			c3.34,0,5.5,0.75,7.04,2.68v-2.02H107.11z M102.49,149.22c0-3.92-2.33-6.56-6.16-6.56c-3.52,0-6.07,2.73-6.07,6.56
			c0,3.83,2.55,6.6,6.07,6.6C100.15,155.82,102.49,153.14,102.49,149.22z"/>
		<path d="M124.88,143.63c-5.02,0-6.69,3.13-6.69,7.88v10.3h-4.84v-22.66h4.84v3.65c1.28-2.9,3.61-4.09,6.56-4.09h0.88v4.93H124.88z
			"/>
		<path d="M128.09,155.78c0-4.71,3.61-6.47,7.57-7.17l4.36-0.79c1.72-0.31,2.42-0.57,2.42-2.38c0-1.72-1.36-3.08-4.14-3.08
			c-2.51,0-4.53,1.06-4.75,3.48h-4.84c0.31-5.06,4.27-7.35,9.64-7.35c6.42,0,8.93,3.04,8.93,8.98v8.89c0,0.48,0.22,1.5,1.32,1.5
			c0.48,0,1.06-0.09,1.5-0.26v3.83c-0.66,0.44-1.85,0.84-2.86,0.84c-2.51,0-3.65-0.92-4.4-2.46c-1.01,1.14-2.73,2.68-6.73,2.68
			C131.48,162.47,128.09,159.74,128.09,155.78z M142.44,153.05v-2.29c-0.57,0.35-1.41,0.62-2.95,0.92l-2.73,0.53
			c-2.29,0.44-3.61,1.32-3.61,3.3c0,1.76,1.63,2.82,3.87,2.82C140.28,158.33,142.44,156.57,142.44,153.05z"/>
		<path d="M166.15,157.1v4.22c-0.92,0.57-2.24,0.92-4.09,0.92c-4.05,0-6.73-1.72-6.73-7.04v-11.79h-3.83v-4.27h3.83v-5.72h4.84v5.72
			h5.37v4.27h-5.37v10.61c0,2.2,0.7,3.7,3.04,3.7C164.22,157.71,165.36,157.45,166.15,157.1z"/>
		<path d="M169.45,133.11c0-1.76,1.45-3.21,3.21-3.21c1.8,0,3.21,1.45,3.21,3.21c0,1.8-1.41,3.26-3.21,3.26
			C170.9,136.37,169.45,134.92,169.45,133.11z M170.2,139.14h4.84v22.66h-4.84V139.14z"/>
		<path d="M180.01,155.25h5.06c0.04,1.76,1.94,3.26,4.18,3.26c2.29,0,3.74-1.14,3.74-2.9c0-1.5-0.84-2.46-2.73-2.86l-3.78-0.75
			c-3.7-0.75-5.81-3.3-5.81-6.42c0-4.09,3.61-7.08,8.27-7.08c5.46,0,8.54,2.33,8.89,6.73h-5.06c-0.13-1.85-1.41-2.82-3.65-2.82
			c-2.07,0-3.48,1.1-3.48,2.73c0,1.45,0.79,2.29,2.99,2.73l4,0.84c3.3,0.7,5.37,3.39,5.37,6.69c0,4.09-3.7,7.08-8.8,7.08
			C183.84,162.47,180.23,159.61,180.01,155.25z"/>
		<path d="M91.79,201.21v-5.33l14.61-18h5.33v19.01h4.44v4.31h-4.44v6.6h-4.84v-6.6H91.79z M106.71,184.04l-10.17,12.72v0.18h10.34
			v-12.89H106.71z"/>
		<path d="M131.35,207.81V177h4.84v30.8H131.35z"/>
		<path d="M141.69,179.11c0-1.76,1.45-3.21,3.21-3.21c1.8,0,3.21,1.45,3.21,3.21c0,1.8-1.41,3.26-3.21,3.26
			C143.14,182.37,141.69,180.92,141.69,179.11z M142.44,185.14h4.84v22.66h-4.84V185.14z"/>
		<path d="M159.95,183.69v1.45h5.24v4.27h-5.24v18.39h-4.84v-18.39h-3.96v-4.27h3.96V184c0-4.84,2.68-7.44,7.44-7.44
			c1.23,0,2.2,0.09,3.08,0.35v4.27c-0.7-0.18-1.58-0.26-2.51-0.26C161.05,180.92,159.95,181.84,159.95,183.69z"/>
		<path d="M185.16,201.56h5.02c-1.58,4.18-5.32,6.91-10.69,6.91c-7.3,0-11.75-4.8-11.75-12.1c0-6.82,4.45-11.88,11.35-11.88
			c8.71,0,11.4,6.73,11.4,13.55h-17.78c0.31,4.31,3.34,6.16,6.78,6.16C182.52,204.2,184.37,202.92,185.16,201.56z M172.71,194.16
			h12.67c-0.09-3.48-2.51-5.81-6.29-5.81C175.52,188.35,172.93,190.69,172.71,194.16z"/>
	</g>
</g>
</svg>
