<svg id="b35de7a9-e675-4d03-aa03-1705cb1145b3" data-name="Capa 1" xmlns="http://www.w3.org/2000/svg" width="77.62mm" height="115.18mm" viewBox="0 0 220.01 326.5"><rect y="54.19" width="220" height="272.31" fill="#f0e3ee"/><circle cx="65.14" cy="84.87" r="8.82" fill="#ddc5d9"/><circle cx="157.59" cy="84.87" r="8.82" fill="#ddc5d9"/><rect x="21.01" y="34.86" width="177.99" height="19.33" fill="#ddc5d9"/><polygon points="199 34.86 220.01 54.19 199 54.19 199 34.86" fill="#c2a4c0"/><polygon points="21.01 34.86 0 54.19 21.01 54.19 21.01 34.86" fill="#c2a4c0"/><path d="M365.79,395.65a3.34,3.34,0,1,0-3.34-3.34,3.31,3.31,0,0,0,3.34,3.34m-10,0a3.34,3.34,0,1,0-3.34-3.34,3.31,3.31,0,0,0,3.34,3.34m-10,0a3.34,3.34,0,1,0-3.34-3.34,3.3,3.3,0,0,0,3.34,3.34m17.54,25.25h4.85V400.15h-4.85Zm-10-20.75v22.71c0,2.18-.71,3.78-2.62,3.78s-2.54-1.25-2.54-2.85v-.22h-4.9V424c0,4.28,3.16,6.77,7.39,6.77,4.9,0,7.53-3.47,7.53-7.75V400.15Zm-10,20.75h4.85V400.15h-4.85Zm-13.18-21.29a8.17,8.17,0,0,0-7,3.3,8.15,8.15,0,0,0-7-3.3c-4.09,0-8.54,2.19-8.54,8.73V420.9h4.85V408.52c0-3.47,1.78-4.76,4.1-4.76s4.13,1.33,4.13,5V420.9h4.9V408.74c0-3.65,1.74-5,4.14-5s4.1,1.29,4.1,4.76V420.9h4.85V408.34c0-6.54-4.45-8.73-8.55-8.73m-37.13,17.5c-3.91,0-6.1-2.8-6.1-6.59s2.19-6.59,6.1-6.59,6.1,2.81,6.1,6.59-2.18,6.59-6.1,6.59m0,4.32c6.86,0,10.95-4.81,10.95-10.91s-4.09-10.91-10.95-10.91-10.95,4.81-10.95,10.91,4.1,10.91,10.95,10.91m-49.41-.53h4.76l2-21.73,9,21.73h3.87l9-21.73,1.87,21.73h4.9l-2.45-31.17h-5.34l-10,23.64-9.92-23.64h-5.35Z" transform="translate(-195.99 -233.25)" fill="#c95c4b"/><path d="M354,320.72a1.5,1.5,0,0,1-1.5-1.5V281a44.73,44.73,0,1,0-89.45,0v38.24a1.5,1.5,0,0,1-3,0V281a47.73,47.73,0,1,1,95.45,0v38.24A1.5,1.5,0,0,1,354,320.72Z" transform="translate(-195.99 -233.25)" fill="#c95c4b"/></svg>