<svg width="32" height="98" xmlns="http://www.w3.org/2000/svg">
  <g stroke="#231F20" stroke-linecap="round" stroke-linejoin="round" fill="none" fill-rule="evenodd">
    <path d="M15.803.8H.903v4.632S4.205 46.385 5.01 61.548a3857.74 3857.74 0 0 1 1.168 23.784c.01.227.137.432.334.545l4.52 2.594s1.104.5 4.77.5M.904 5.432h14.9M15.803.8h14.9v4.632S27.4 46.385 26.596 61.548c-.53 9.986-1.067 21.6-1.168 23.784a.661.661 0 0 1-.334.545l-4.52 2.594s-1.103.5-4.77.5M30.702 5.432h-14.9M21.188 92.605v-3.634h-10.77v3.634h-1.32v3.539l3.622.708h6.167l3.622-.708v-3.539zM6.512 85.877s9.572 2.68 18.582 0M10.418 92.605h10.77"/>
  </g>
</svg>