<svg width="23" height="23" xmlns="http://www.w3.org/2000/svg"><g fill="none" fill-rule="evenodd"><path d="M23 11.5C23 17.852 17.852 23 11.5 23 5.149 23 0 17.852 0 11.5 0 5.149 5.149 0 11.5 0 17.852 0 23 5.149 23 11.5" fill="#0A0A0A"/><path d="M8.571 5.18c0 .906.854 1.915 3.054 2.916 3.073 1.398 2.797 3.133 2.797 3.664" stroke="#FEFEFE"/><path d="M8.571 17.82c0-.906.854-1.915 3.054-2.916 3.073-1.4 2.797-3.133 2.797-3.665M14.43 5.18c0 .906-.855 1.915-3.055 2.916-3.073 1.398-2.798 3.133-2.798 3.664" stroke="#FEFEFE"/><path d="M14.43 17.82c0-.906-.855-1.915-3.055-2.916-3.073-1.4-2.798-3.133-2.798-3.665" stroke="#FEFEFE"/></g></svg>