<svg width="10" height="8" xmlns="http://www.w3.org/2000/svg">
  <path d="M10.344 1.276a4.155 4.155 0 0 1-.994 1.025 5.632 5.632 0 0 1-.227 1.85A5.996 5.996 0 0 1 7.28 6.97a5.042 5.042 0 0 1-1.584.897 5.796 5.796 0 0 1-1.982.334A5.506 5.506 0 0 1 .67 7.31c.143.016.303.025.479.025.92 0 1.741-.283 2.461-.847a1.933 1.933 0 0 1-1.154-.396 1.94 1.94 0 0 1-.7-.98c.136.021.26.031.375.031.176 0 .35-.022.522-.067a1.95 1.95 0 0 1-1.139-.685 1.916 1.916 0 0 1-.451-1.261v-.025c.278.156.577.24.896.252a1.98 1.98 0 0 1-.884-1.651c0-.36.09-.694.27-1a5.62 5.62 0 0 0 1.808 1.463c.71.366 1.47.57 2.28.611a2.202 2.202 0 0 1-.049-.454c0-.549.194-1.016.58-1.403a1.91 1.91 0 0 1 1.403-.58c.573 0 1.056.209 1.449.626A3.888 3.888 0 0 0 10.074.49c-.151.471-.442.835-.872 1.093a3.95 3.95 0 0 0 1.142-.307z" fill="#F06C4E" fill-rule="evenodd"/>
</svg>