<svg width="11" height="8" xmlns="http://www.w3.org/2000/svg">
  <path d="M10.115 1.805c.082.316.141.797.176 1.441l.018.879-.018.879c-.035.656-.094 1.142-.176 1.459-.058.2-.164.375-.316.527a1.218 1.218 0 0 1-.545.317c-.305.082-1.02.14-2.144.175l-1.6.018-1.6-.018c-1.125-.035-1.84-.093-2.144-.175a1.218 1.218 0 0 1-.545-.317 1.226 1.226 0 0 1-.316-.527C.822 6.146.764 5.66.729 5.003L.71 4.126c0-.258.006-.55.018-.879.035-.644.093-1.125.176-1.441a1.218 1.218 0 0 1 .861-.861C2.07.86 2.786.802 3.91.767L5.51.75l1.6.018C8.235.803 8.95.86 9.254.943c.211.059.393.164.545.317.152.152.258.334.316.545zm-5.59 3.761L7.04 4.125 4.526 2.701v2.865z" fill="#F06C4E" fill-rule="evenodd"/>
</svg>