<svg width="11" height="12" xmlns="http://www.w3.org/2000/svg">
  <path d="M6.655 7.127c.335-.335.502-.74.502-1.213 0-.473-.167-.877-.502-1.212A1.652 1.652 0 0 0 5.443 4.2c-.473 0-.877.168-1.212.502a1.652 1.652 0 0 0-.502 1.212c0 .474.167.878.502 1.213.335.334.739.502 1.212.502s.877-.168 1.212-.502zm.656-3.08c.514.513.77 1.135.77 1.867 0 .733-.256 1.355-.77 1.869a2.544 2.544 0 0 1-1.868.77 2.544 2.544 0 0 1-1.868-.77 2.544 2.544 0 0 1-.77-1.869c0-.732.256-1.354.77-1.868a2.544 2.544 0 0 1 1.868-.77c.732 0 1.355.257 1.868.77zm1.313-1.313c.12.12.18.265.18.435 0 .17-.06.315-.18.435a.593.593 0 0 1-.436.181.593.593 0 0 1-.435-.18.593.593 0 0 1-.18-.436c0-.17.06-.315.18-.435s.266-.181.435-.181c.17 0 .315.06.436.18zM5.952 1.696h-.51l-.511-.004c-.31-.002-.546-.002-.707 0-.16.003-.376.01-.646.02-.27.012-.5.034-.69.067-.19.034-.35.075-.479.124-.223.09-.42.22-.589.389-.17.17-.299.366-.388.589-.05.13-.09.29-.124.479-.034.19-.056.42-.067.69-.011.27-.018.485-.02.646-.002.16-.002.396 0 .706l.003.512-.003.513c-.002.31-.002.546 0 .706.002.16.009.376.02.646.011.27.033.5.067.69.033.19.075.35.124.479a1.737 1.737 0 0 0 .978.978c.129.049.288.09.478.124.19.033.42.055.69.066.27.012.485.018.646.02.16.003.396.003.707 0l.512-.003.512.004c.31.002.546.002.707 0 .16-.003.376-.01.646-.02.27-.012.5-.034.69-.067.19-.034.349-.075.478-.124.224-.09.42-.22.59-.389.17-.17.299-.366.388-.589.05-.13.09-.29.124-.479.033-.19.056-.42.067-.69.011-.27.018-.485.02-.646.002-.16.002-.396 0-.706l-.003-.513c0-.03 0-.202.003-.512.002-.31.002-.546 0-.706-.002-.161-.009-.376-.02-.646-.011-.27-.034-.5-.067-.69a2.685 2.685 0 0 0-.124-.479 1.737 1.737 0 0 0-.388-.59c-.17-.169-.366-.298-.59-.388-.13-.049-.289-.09-.478-.124a5.307 5.307 0 0 0-.69-.067c-.27-.01-.486-.017-.646-.02-.161-.002-.398 0-.71.004zm4.6 2.096c.023.393.034 1.1.034 2.122 0 1.023-.011 1.73-.034 2.123-.044.929-.321 1.648-.83 2.156-.51.51-1.228.786-2.156.83-.393.023-1.1.034-2.123.034-1.022 0-1.73-.01-2.123-.033-.928-.045-1.647-.322-2.156-.83-.51-.51-.786-1.228-.83-2.157C.31 7.644.3 6.937.3 5.914c0-1.022.011-1.73.033-2.122.045-.929.322-1.648.83-2.157.51-.508 1.229-.785 2.157-.83.393-.022 1.1-.033 2.123-.033 1.022 0 1.73.01 2.123.033.928.045 1.647.322 2.156.83.509.51.786 1.228.83 2.157z" fill="#F06C4E" fill-rule="evenodd"/>
</svg>