<svg width="23" height="23" xmlns="http://www.w3.org/2000/svg"><g fill="none" fill-rule="evenodd"><path d="M23 11.5C23 17.851 17.851 23 11.5 23 5.148 23 0 17.851 0 11.5S5.148 0 11.5 0C17.851 0 23 5.149 23 11.5" fill="#0A0A0A"/><path stroke="#FEFEFE" d="M16.366 12.415l.148-.16.136-.171.124-.18.11-.188.097-.196.082-.202.068-.207.052-.213.038-.214.022-.218.006-.218-.009-.218-.025-.217-.04-.215-.057-.212-.07-.205-.085-.202-.099-.194-.113-.188-.126-.178-.139-.168-.15-.159-.16-.148-.172-.135-.18-.123-.19-.11-.196-.095-.202-.082-.208-.067-.213-.051-.215-.036-.217-.022-.219-.005-.218.01-.217.026-.214.04-.21.057-.208.07-.2.087-.194.1-.187.114-.177.126-.169.14-.158.15-.146.162-.135.171-.123.181-.108.19-.109-.19-.123-.18-.134-.172-.147-.162-.158-.15-.169-.14-.177-.127-.187-.114-.194-.1-.2-.085-.207-.071-.21-.058-.215-.04-.217-.026-.218-.01-.219.006-.217.02-.215.037-.212.052-.209.067-.202.082-.196.096-.189.11-.18.122-.172.135-.16.147-.15.159-.139.17-.127.178-.112.186-.1.194-.085.203-.07.206-.056.211-.04.214-.025.218-.01.218.007.218.022.218.037.215.052.212.068.207.082.202.097.196.11.189.124.18.136.17.148.16 4.867 4.918 4.866-4.917"/></g></svg>