<svg xmlns="http://www.w3.org/2000/svg" width="100" height="100" viewBox="0 0 78 62" stroke-linejoin="round"><path d="M10.9 0.8l67.1 43.6 -10.9 16.8 -67.1-43.6 10.9-16.8Z" fill="#d5f3ff"/><path d="M28.3 17.7l-1.2-0.8 -5.1 1.3 2.2-3.3 -0.9-0.6 -4.7 7 0.9 0.6 2.2-3.2 0.7 5.2 1.2 0.8 -0.9-5.7 5.6-1.3Z"/><path d="M25.5 22.7l3 2 0.5-0.8 -3-2 -0.5 0.8Z"/><path d="M34 24.8c-0.7-0.5-1.6-0.6-2.3-0.2l2.1-3.2 -0.9-0.6 -4.7 7 0.9 0.6 0.5-0.8c-0.1 0.8 0.3 1.5 1 2 1.3 0.9 2.9 0.5 3.9-0.9 1-1.4 0.7-3-0.6-3.9Zm-2.9 3.9c-0.9-0.6-1.1-1.7-0.5-2.7 0.7-1 1.7-1.2 2.7-0.6 0.9 0.6 1.1 1.7 0.4 2.7 -0.6 1-1.7 1.2-2.6 0.6Z"/><path d="M39.9 31.9c0.9-1.3 0.6-2.7-0.7-3.6 -1.4-0.9-2.9-0.6-3.9 0.9 -1 1.5-0.7 3 0.7 4 1.1 0.7 2.3 0.7 3 0l-0.9-0.6c-0.5 0.3-1.1 0.3-1.7-0.1 -0.9-0.6-1.1-1.5-0.5-2.4l3.6 2.4c0.2-0.2 0.2-0.3 0.4-0.5Zm-3.5-2.6c0.6-0.8 1.4-0.9 2.3-0.4 0.8 0.6 1 1.4 0.5 2.2l-2.7-1.8Z"/><path d="M41.2 36.7c0.7 0.5 1.6 0.5 2.3 0.2l-0.5 0.8 0.9 0.6 3.1-4.6 -0.9-0.6 -0.5 0.8c0.1-0.8-0.3-1.5-1-2 -1.4-1-3-0.5-3.9 0.9 -0.9 1.4-0.8 3 0.6 3.9Zm0.6-0.7c-0.9-0.6-1.1-1.7-0.4-2.7 0.6-0.9 1.7-1.2 2.6-0.6 1 0.7 1 1.8 0.4 2.7 -0.6 0.9-1.6 1.3-2.7 0.6Z"/><path d="M46.9 40.5c0.8 0.5 1.6 0.5 2.2 0.1l-0.6 0.8 0.9 0.6 3.1-4.6 -0.9-0.6 -1.7 2.5c-0.5 0.7-1.3 1.2-2.3 0.6 -0.8-0.5-0.8-1.3-0.2-2.1l1.8-2.6 -0.9-0.6 -1.9 2.8c-0.9 1.3-0.5 2.4 0.5 3.1Z"/><path d="M53.3 43.6c-0.4-0.3-0.7-0.6-0.1-1.5l1.4-2.2 1.2 0.8 0.5-0.7 -1.2-0.8 1-1.5 -0.9-0.6 -1 1.5 -0.8-0.6 -0.5 0.7 0.8 0.6 -1.6 2.3c-1 1.5-0.2 2.2 0.3 2.5 0.3 0.2 0.6 0.4 0.8 0.4l0.5-0.8c-0.1-0.1-0.4-0.2-0.6-0.3Z"/><path d="M60.8 43l-1.6 2.4c-0.6 0.8-1.5 1.3-2.4 0.7 -0.9-0.6-0.8-1.3-0.2-2.2l1.7-2.6 -0.9-0.6 -1.8 2.7c-0.8 1.2-0.8 2.3 0.4 3.1 0.8 0.5 1.6 0.5 2.2 0.1l-0.6 0.9c-0.7 1-1.5 1.1-2.3 0.6 -0.8-0.6-0.9-1.2-0.6-1.7l-0.9-0.6c-0.3 0.5-0.4 1-0.3 1.5 0.2 0.5 0.6 1.1 1.2 1.5 0.6 0.4 1.3 0.6 1.8 0.5 0.7-0.1 1.2-0.5 1.7-1.2l3.1-4.7 -0.9-0.6Z"/></svg>