<?xml version="1.0" encoding="UTF-8" standalone="no"?><!DOCTYPE svg PUBLIC "-//W3C//DTD SVG 1.1//EN" "http://www.w3.org/Graphics/SVG/1.1/DTD/svg11.dtd"><svg width="100%" height="100%" viewBox="0 0 78 62" version="1.1" xmlns="http://www.w3.org/2000/svg" xmlns:xlink="http://www.w3.org/1999/xlink" xml:space="preserve" xmlns:serif="http://www.serif.com/" style="fill-rule:evenodd;clip-rule:evenodd;stroke-linejoin:round;stroke-miterlimit:2;"><g id="lifestyle"><path d="M10.9,0.828l67.093,43.57l-10.893,16.775l-67.093,-43.571l10.893,-16.774Z" style="fill:#adfad7;"/><g id="Capa1"><g><path d="M21.221,23.806l0.868,0.577l4.647,-6.996l-0.869,-0.577l-4.646,6.996Z" style="fill-rule:nonzero;"/><path d="M27.614,20.274c0.41,0.272 0.905,0.154 1.164,-0.235c0.265,-0.4 0.181,-0.902 -0.228,-1.174c-0.42,-0.278 -0.915,-0.161 -1.18,0.239c-0.259,0.389 -0.175,0.891 0.244,1.17Zm-4.024,5.106l0.868,0.577l3.06,-4.607l-0.868,-0.577l-3.06,4.607Z" style="fill-rule:nonzero;"/><path d="M32.266,22.096c0.17,0.113 0.3,0.242 0.424,0.382l0.497,-0.749c-0.11,-0.159 -0.324,-0.359 -0.634,-0.564c-0.499,-0.332 -1.607,-0.766 -2.563,0.673l-0.531,0.801l-0.98,-0.651l-0.484,0.728l0.98,0.651l-2.576,3.878l0.868,0.577l2.576,-3.878l1.3,0.863l0.483,-0.729l-1.299,-0.863l0.545,-0.82c0.518,-0.78 1.034,-0.538 1.394,-0.299Z" style="fill-rule:nonzero;"/><path d="M35.16,29.364c0.844,-1.27 0.556,-2.742 -0.754,-3.612c-1.37,-0.91 -2.899,-0.559 -3.875,0.911c-0.99,1.49 -0.725,3.019 0.695,3.962c1.08,0.717 2.32,0.692 3.045,-0.052l-0.869,-0.577c-0.476,0.304 -1.062,0.276 -1.672,-0.13c-0.88,-0.584 -1.084,-1.47 -0.513,-2.373l3.569,2.37c0.165,-0.206 0.242,-0.299 0.374,-0.499Zm-3.499,-2.54c0.558,-0.754 1.431,-0.939 2.271,-0.381c0.84,0.558 1.008,1.391 0.469,2.201l-2.74,-1.82Z" style="fill-rule:nonzero;"/><path d="M36.045,33.825c1.119,0.744 2.153,0.596 2.73,-0.274c0.365,-0.55 0.315,-1.275 -0.225,-1.893l-0.937,-1.084c-0.311,-0.336 -0.298,-0.659 -0.119,-0.929c0.259,-0.39 0.766,-0.37 1.236,-0.058c0.6,0.399 0.764,0.911 0.472,1.351l0.858,0.57c0.538,-0.81 0.304,-1.799 -0.846,-2.563c-1.03,-0.684 -2.1,-0.589 -2.605,0.17c-0.385,0.58 -0.398,1.249 0.165,1.897l1.018,1.137c0.277,0.299 0.224,0.639 0.052,0.899c-0.279,0.42 -0.785,0.444 -1.296,0.105c-0.68,-0.452 -0.867,-1.081 -0.568,-1.531l-0.859,-0.57c-0.538,0.81 -0.267,1.983 0.924,2.773Z" style="fill-rule:nonzero;"/><path d="M41.325,36.11c-0.439,-0.292 -0.666,-0.601 -0.082,-1.481l1.435,-2.16l1.159,0.77l0.484,-0.729l-1.159,-0.77l0.969,-1.459l-0.868,-0.577l-0.97,1.459l-0.829,-0.551l-0.484,0.729l0.83,0.551l-1.561,2.35c-0.989,1.488 -0.187,2.165 0.363,2.53c0.29,0.193 0.619,0.369 0.816,0.442l0.51,-0.769c-0.149,-0.056 -0.433,-0.216 -0.613,-0.335Z" style="fill-rule:nonzero;"/><path d="M48.831,35.506l-1.574,2.369c-0.551,0.829 -1.469,1.3 -2.359,0.709c-0.91,-0.605 -0.798,-1.337 -0.254,-2.157l1.707,-2.569l-0.869,-0.577l-1.826,2.749c-0.777,1.17 -0.764,2.343 0.435,3.14c0.78,0.518 1.589,0.494 2.23,0.114l-0.57,0.859c-0.698,1.05 -1.49,1.158 -2.27,0.64c-0.85,-0.565 -0.908,-1.151 -0.566,-1.731l-0.878,-0.584c-0.329,0.517 -0.415,1.037 -0.271,1.535c0.153,0.548 0.581,1.077 1.241,1.515c0.63,0.418 1.269,0.584 1.841,0.504c0.655,-0.098 1.246,-0.512 1.731,-1.243l3.12,-4.697l-0.868,-0.576Z" style="fill-rule:nonzero;"/><path d="M48.14,41.686l0.868,0.577l4.647,-6.996l-0.868,-0.577l-4.647,6.996Z" style="fill-rule:nonzero;"/><path d="M56.302,43.406c0.843,-1.27 0.555,-2.742 -0.755,-3.612c-1.37,-0.91 -2.898,-0.558 -3.875,0.911c-0.989,1.49 -0.724,3.019 0.696,3.962c1.08,0.717 2.32,0.692 3.044,-0.051l-0.868,-0.577c-0.476,0.304 -1.062,0.275 -1.672,-0.13c-0.88,-0.585 -1.085,-1.47 -0.513,-2.374l3.568,2.37c0.166,-0.206 0.242,-0.299 0.375,-0.499Zm-3.499,-2.54c0.558,-0.754 1.43,-0.938 2.27,-0.38c0.84,0.558 1.008,1.39 0.47,2.2l-2.74,-1.82Z" style="fill-rule:nonzero;"/></g></g></g></svg>