<svg width="47" height="38" xmlns="http://www.w3.org/2000/svg">
  <g stroke="#231F20" stroke-linecap="round" stroke-linejoin="round" fill="none" fill-rule="evenodd">
    <path d="M22.87 12.217h18.962a.713.713 0 0 0 .711-.742l-.388-9.236a.707.707 0 0 0-.631-.676C39.558 1.355 32.893.74 22.87.74c-10.022 0-16.688.614-18.654.822a.707.707 0 0 0-.631.676l-.388 9.236a.713.713 0 0 0 .71.742H22.87zM45.007 37.467a.707.707 0 0 0 .51-.683V15.417c0-1.05-.794-1.93-1.84-2.035-.92-.091-1.946-.206-2.46-.306-.248-.047-.493-.136-.531-.857H5.685c-.04.72-.284.81-.532.857-.515.1-1.54.215-2.46.306a2.045 2.045 0 0 0-1.84 2.035v21.367c0 .316.206.597.51.683h43.644z"/>
  </g>
</svg>