<svg width="35" height="89" xmlns="http://www.w3.org/2000/svg">
  <g stroke="#231F20" stroke-linecap="round" stroke-linejoin="round" fill="none" fill-rule="evenodd">
    <path d="M17.675 5.546H33.87V2.093a.712.712 0 0 0-.711-.712H2.19a.712.712 0 0 0-.712.712v3.453h16.196z"/>
    <path d="M27.933 87.145a.702.702 0 0 1-.37.596c-.853.453-3.45.725-9.888.725-6.435 0-9.032-.27-9.887-.724a.7.7 0 0 1-.37-.6L6.939 74.27 1.41 5.57l16.196-.023L33.8 5.523 28.46 74.24l-.527 12.905z"/>
    <path d="M7.257 83.013c.904.309 3.86.384 10.445.375 6.47-.009 9.434-.065 10.391-.387"/>
    <path d="M22.16 83.531c0 2.58-2.006 2.445-4.48 2.445-2.473 0-4.478.136-4.478-2.445 0-2.58 2.005-4.672 4.479-4.672 2.473 0 4.478 2.092 4.478 4.672zM6.94 74.27s2.578.508 10.761.496c8.184-.01 10.76-.526 10.76-.526"/>
  </g>
</svg>