<svg width="105" height="101" xmlns="http://www.w3.org/2000/svg">
  <g fill="none" fill-rule="evenodd">
    <path d="M69.9577586,61.0015517 L69.7181034,87.8256897 C72.2025862,89.0412069 74.6491379,91.3894828 74.6491379,94.442069 C74.6491379,97.2118966 71.4422414,99.4593103 67.3913793,99.4593103 C55.4905172,99.4593103 53.5232759,95.6291379 53.5232759,91.7558621 C53.5232759,89.0894828 54.3603448,87.3265517 54.3603448,86.5618966 C54.3603448,82.7136207 53.7198276,69.3231034 53.7198276,69.3231034 L69.9577586,61.0015517 Z" fill="#F3E4F3" transform="translate(1 1)"/>
    <path d="M69.9577586,61.0015517 L69.7181034,87.8256897 C72.2025862,89.0412069 74.6491379,91.3894828 74.6491379,94.442069 C74.6491379,97.2118966 71.4422414,99.4593103 67.3913793,99.4593103 C55.4905172,99.4593103 53.5232759,95.6291379 53.5232759,91.7558621 C53.5232759,89.0894828 54.3603448,87.3265517 54.3603448,86.5618966 C54.3603448,82.7136207 53.7198276,69.3231034 53.7198276,69.3231034 L69.9577586,61.0015517 Z" stroke="#000" stroke-linecap="round" stroke-linejoin="round" transform="translate(1 1)"/>
    <path d="M33.3830172,61.0015517 L33.6235345,87.8256897 C31.1381897,89.0412069 28.6925,91.3894828 28.6925,94.442069 C28.6925,97.2118966 31.8993966,99.4593103 35.9502586,99.4593103 C47.8511207,99.4593103 49.8183621,95.6291379 49.8183621,91.7558621 C49.8183621,89.0894828 48.9812931,87.3265517 48.9812931,86.5618966 C48.9812931,82.7136207 49.6209483,69.3231034 49.6209483,69.3231034 L33.3830172,61.0015517 Z" fill="#F3E4F3" transform="translate(1 1)"/>
    <path d="M33.3830172,61.0015517 L33.6235345,87.8256897 C31.1381897,89.0412069 28.6925,91.3894828 28.6925,94.442069 C28.6925,97.2118966 31.8993966,99.4593103 35.9502586,99.4593103 C47.8511207,99.4593103 49.8183621,95.6291379 49.8183621,91.7558621 C49.8183621,89.0894828 48.9812931,87.3265517 48.9812931,86.5618966 C48.9812931,82.7136207 49.6209483,69.3231034 49.6209483,69.3231034 L33.3830172,61.0015517 Z" stroke="#000" stroke-linecap="round" stroke-linejoin="round" transform="translate(1 1)"/>
    <path d="M97.1567241,14.3100862 C92.4084483,12.7143966 87.2653448,15.269569 85.6696552,20.019569 C84.8644828,22.4135345 83.6765517,24.494569 82.23,26.3014655 C81.2084483,23.8549138 79.905,21.5557759 78.3558621,19.4480172 C80.3713793,17.3842241 81.617931,14.5652586 81.617931,11.4523276 C81.617931,5.12732759 76.4903448,-0.00025862069 70.1653448,-0.00025862069 C65.4584483,-0.00025862069 61.4187931,2.84284483 59.6584483,6.90318966 C57.0989655,6.2687069 54.4256897,5.92646552 51.6705172,5.92646552 C48.9153448,5.92646552 46.2412069,6.2687069 43.6834483,6.90318966 C41.9231034,2.84284483 37.8825862,-0.00025862069 33.1748276,-0.00025862069 C26.8498276,-0.00025862069 21.7231034,5.12732759 21.7231034,11.4523276 C21.7231034,14.5652586 22.9696552,17.3842241 24.9851724,19.4480172 C23.4360345,21.5557759 22.1334483,23.8549138 21.1118966,26.3014655 C19.6644828,24.494569 18.4756897,22.4135345 17.6722414,20.019569 C16.0756897,15.269569 10.9317241,12.7143966 6.18431034,14.3100862 C1.43517241,15.9057759 -1.12086207,21.0480172 0.474827586,25.7980172 C3.76448276,35.5876724 10.5636207,43.6962931 20.0463793,48.8316379 C24.2239655,62.3264655 36.8024138,72.1299138 51.6705172,72.1299138 C66.5386207,72.1299138 79.1162069,62.3264655 83.2955172,48.8316379 C92.7774138,43.6962931 99.5765517,35.5876724 102.866207,25.7980172 C104.462759,21.0480172 101.905862,15.9057759 97.1567241,14.3100862" fill="#F3E4F3" transform="translate(1 1)"/>
    <path d="M97.1567241,14.3100862 C92.4084483,12.7143966 87.2653448,15.269569 85.6696552,20.019569 C84.8644828,22.4135345 83.6765517,24.494569 82.23,26.3014655 C81.2084483,23.8549138 79.905,21.5557759 78.3558621,19.4480172 C80.3713793,17.3842241 81.617931,14.5652586 81.617931,11.4523276 C81.617931,5.12732759 76.4903448,-0.00025862069 70.1653448,-0.00025862069 C65.4584483,-0.00025862069 61.4187931,2.84284483 59.6584483,6.90318966 C57.0989655,6.2687069 54.4256897,5.92646552 51.6705172,5.92646552 C48.9153448,5.92646552 46.2412069,6.2687069 43.6834483,6.90318966 C41.9231034,2.84284483 37.8825862,-0.00025862069 33.1748276,-0.00025862069 C26.8498276,-0.00025862069 21.7231034,5.12732759 21.7231034,11.4523276 C21.7231034,14.5652586 22.9696552,17.3842241 24.9851724,19.4480172 C23.4360345,21.5557759 22.1334483,23.8549138 21.1118966,26.3014655 C19.6644828,24.494569 18.4756897,22.4135345 17.6722414,20.019569 C16.0756897,15.269569 10.9317241,12.7143966 6.18431034,14.3100862 C1.43517241,15.9057759 -1.12086207,21.0480172 0.474827586,25.7980172 C3.76448276,35.5876724 10.5636207,43.6962931 20.0463793,48.8316379 C24.2239655,62.3264655 36.8024138,72.1299138 51.6705172,72.1299138 C66.5386207,72.1299138 79.1162069,62.3264655 83.2955172,48.8316379 C92.7774138,43.6962931 99.5765517,35.5876724 102.866207,25.7980172 C104.462759,21.0480172 101.905862,15.9057759 97.1567241,14.3100862 Z" stroke="#262626" stroke-linecap="round" stroke-linejoin="round" transform="translate(1 1)"/>
    <path d="M27.6743103 16.2405172C27.6760345 16.2396552 27.6777586 16.237931 27.6794828 16.2362069 26.5631034 14.9551724 25.882069 13.2844828 25.882069 11.4517241 25.882069 7.42327586 29.1467241 4.15862069 33.1751724 4.15862069 36.0234483 4.15862069 38.482931 5.79482759 39.6846552 8.17413793 39.6863793 8.17327586 39.6881034 8.17327586 39.6898276 8.17241379 35.0984483 9.95603448 31.007069 12.7327586 27.6743103 16.2405172M63.6531034 8.17206897C63.6548276 8.17293103 63.6556897 8.1737931 63.6574138 8.1737931 64.8582759 5.79448276 67.3186207 4.15913793 70.1668966 4.15913793 74.1944828 4.15913793 77.46 7.4237931 77.46 11.4522414 77.46 13.285 76.7789655 14.9548276 75.6625862 16.2358621L75.6651724 16.2384483C72.3324138 12.7315517 68.2418966 9.95568966 63.6531034 8.17206897" fill="#FFF" transform="translate(1 1)"/>
    <path d="M57.1968103 24.3510345C57.1968103 21.7544828 58.2761207 19.6501724 59.6080172 19.6501724 60.9390517 19.6501724 62.0183621 21.7544828 62.0183621 24.3510345 62.0183621 26.9475862 60.9390517 29.0518966 59.6080172 29.0518966 58.2761207 29.0518966 57.1968103 26.9475862 57.1968103 24.3510345M46.1448276 24.3510345C46.1448276 21.7544828 45.0655172 19.6501724 43.7336207 19.6501724 42.4017241 19.6501724 41.3224138 21.7544828 41.3224138 24.3510345 41.3224138 26.9475862 42.4017241 29.0518966 43.7336207 29.0518966 45.0655172 29.0518966 46.1448276 26.9475862 46.1448276 24.3510345" fill="#262626" transform="translate(1 1)"/>
    <path d="M40.6600862,44.3856897 C40.6600862,38.3037931 45.5902586,33.3753448 51.670431,33.3753448 C57.7514655,33.3753448 62.6816379,38.3037931 62.6816379,44.3856897 C62.6816379,50.4667241 57.7514655,55.3951724 51.670431,55.3951724 C45.5902586,55.3951724 40.6600862,50.4667241 40.6600862,44.3856897" fill="#FFF" transform="translate(1 1)"/>
    <path d="M43.0812931 43.4142241C43.0812931 38.8090517 46.9269828 42.4599138 51.6709483 42.4599138 56.4140517 42.4599138 60.2597414 38.8090517 60.2597414 43.4142241 60.2597414 48.0185345 56.4140517 51.5280172 51.6709483 51.5280172 46.9269828 51.5280172 43.0812931 48.0185345 43.0812931 43.4142241M48.2494828 33.8859483C48.2494828 31.9962931 49.7805172 30.4643966 51.6710345 30.4643966 53.5598276 30.4643966 55.0925862 31.9962931 55.0925862 33.8859483 55.0925862 35.7747414 53.5598276 37.3075 51.6710345 37.3075 49.7805172 37.3075 48.2494828 35.7747414 48.2494828 33.8859483" fill="#262626" transform="translate(1 1)"/>
    <path d="M0.333103448,0.118017241 C1.60637931,2.44301724 1.92706897,5.12060345 1.92706897,7.7025" fill="#F7BAF7" transform="translate(82.897 27.184)"/>
    <path d="M0.333103448,0.118017241 C1.60637931,2.44301724 1.92706897,5.12060345 1.92706897,7.7025" stroke="#262626" stroke-linecap="round" stroke-linejoin="round" transform="translate(82.897 27.184)"/>
    <g>
      <path d="M2.14646552,0.118017241 C0.873189655,2.44301724 0.5525,5.12060345 0.5525,7.7025" fill="#F7BAF7" transform="translate(19.966 27.184)"/>
      <path d="M2.14646552,0.118017241 C0.873189655,2.44301724 0.5525,5.12060345 0.5525,7.7025" stroke="#262626" stroke-linecap="round" stroke-linejoin="round" transform="translate(19.966 27.184)"/>
    </g>
  </g>
</svg>