<svg width="76" height="87" xmlns="http://www.w3.org/2000/svg">
  <g fill="none" fill-rule="evenodd">
    <path d="M73.225 10.968c0-.49 1.108-1.024 1.598-1.024V.675H15.37v9.269c.49 0 1.598.534 1.598 1.024s-1.108 1.066-1.598 1.066v73.818h59.453V12.034c-.49 0-1.598-.576-1.598-1.066z" stroke="#231F20" fill="#F8F8F8" stroke-linecap="round" stroke-linejoin="round"/>
    <path d="M43.377 49.256a5.866 5.866 0 1 1 0-11.73 5.866 5.866 0 1 1 0 11.73M32.303 73.233c-5.388 0-9.756-2.438-9.756-5.446 0-3.007 4.368-5.446 9.756-5.446s9.755 2.439 9.755 5.446c0 3.008-4.367 5.446-9.755 5.446M15.363 43.39a5.866 5.866 0 0 1 5.866-5.865 5.866 5.866 0 1 1 0 11.731 5.866 5.866 0 0 1-5.866-5.865M32.303 51.589c2.78 0 5.04 2.26 5.04 5.039a.926.926 0 1 1-1.853 0 3.19 3.19 0 0 0-3.187-3.187 3.19 3.19 0 0 0-3.187 3.187.926.926 0 1 1-1.853 0 5.045 5.045 0 0 1 5.04-5.04" fill="#F9FCFC"/>
    <path d="M58.517 50.241c0-.606 2.054-1.096 4.593-1.1-.215-8.149-2.804-15.605-6.989-21.488-1.763 1.733-3.505 2.792-3.925 2.372-.43-.43.684-2.24 2.487-4.044l.102-.1c-5.622-6.924-13.613-11.25-22.482-11.25s-16.856 4.33-22.48 11.253l.1.097c1.802 1.804 2.916 3.614 2.486 4.044-.42.42-2.168-.642-3.934-2.381C4.288 33.527 1.71 40.99 1.495 49.14c2.54.004 4.594.494 4.594 1.1 0 .605-2.054 1.097-4.593 1.1.101 3.852.73 7.55 1.808 11.001 1.202 3.851 2.962 7.393 5.171 10.497 1.766-1.74 3.513-2.802 3.934-2.38.43.43-.684 2.24-2.487 4.042l-.1.097c5.625 6.923 13.612 11.254 22.48 11.254 8.869 0 16.857-4.33 22.481-11.254l-.1-.097c-1.803-1.803-2.916-3.613-2.487-4.043.421-.421 2.169.64 3.934 2.381 4.188-5.884 6.765-13.347 6.98-21.498-2.54-.003-4.593-.495-4.593-1.1" fill="#F8F8F8"/>
    <path d="M43.377 49.256a5.866 5.866 0 1 1 0-11.73 5.866 5.866 0 1 1 0 11.73zM32.303 73.233c-5.388 0-9.756-2.438-9.756-5.446 0-3.007 4.368-5.446 9.756-5.446s9.755 2.439 9.755 5.446c0 3.008-4.367 5.446-9.755 5.446zM15.363 43.39a5.866 5.866 0 0 1 5.866-5.865 5.866 5.866 0 1 1 0 11.731 5.866 5.866 0 0 1-5.866-5.865zM32.303 51.589c2.78 0 5.04 2.26 5.04 5.039a.926.926 0 1 1-1.853 0 3.19 3.19 0 0 0-3.187-3.187 3.19 3.19 0 0 0-3.187 3.187.926.926 0 1 1-1.853 0 5.045 5.045 0 0 1 5.04-5.04z" stroke="#231F20" fill="#F8F8F8" stroke-linecap="round" stroke-linejoin="round"/>
    <path d="M58.517 50.241c0-.606 2.054-1.096 4.593-1.1-.215-8.149-2.804-15.605-6.989-21.488-1.763 1.733-3.505 2.792-3.925 2.372-.43-.43.684-2.24 2.487-4.044l.102-.1c-5.622-6.924-13.613-11.25-22.482-11.25s-16.856 4.33-22.48 11.253l.1.097c1.802 1.804 2.916 3.614 2.486 4.044-.42.42-2.168-.642-3.934-2.381C4.288 33.527 1.71 40.99 1.495 49.14c2.54.004 4.594.494 4.594 1.1 0 .605-2.054 1.097-4.593 1.1.101 3.852.73 7.55 1.808 11.001 1.202 3.851 2.962 7.393 5.171 10.497 1.766-1.74 3.513-2.802 3.934-2.38.43.43-.684 2.24-2.487 4.042l-.1.097c5.625 6.923 13.612 11.254 22.48 11.254 8.869 0 16.857-4.33 22.481-11.254l-.1-.097c-1.803-1.803-2.916-3.613-2.487-4.043.421-.421 2.169.64 3.934 2.381 4.188-5.884 6.765-13.347 6.98-21.498-2.54-.003-4.593-.495-4.593-1.1z" stroke="#231F20" stroke-linecap="round" stroke-linejoin="round"/>
  </g>
</svg>