<svg width="97" height="97" xmlns="http://www.w3.org/2000/svg">
  <g fill="none" fill-rule="evenodd">
  <path d="M48.283 97c26.665 0 48.282-21.714 48.282-48.5 0-13.801-5.739-26.256-14.95-35.088C72.948 5.102 61.209 0 48.283 0 21.617 0 0 21.714 0 48.5S21.617 97 48.283 97z" fill="#439966"/>
  <path d="M61.867 84.255c1.503-.573 2.08-1.82 1.602-3.076-.355-.93-1.197-1.457-2.108-1.354.59-.508.832-1.32.512-2.16-.466-1.223-1.718-1.747-3.199-1.183l-3.027 1.154 2.99 7.85 3.23-1.231zm-2.047-4.293l-1.782.68-.953-2.501 1.76-.671c.897-.342 1.597-.056 1.887.706.291.763-.037 1.453-.912 1.786zm1.495 3.45l-1.94.74-.991-2.602 1.962-.748c.908-.346 1.625-.016 1.924.77.303.796-.07 1.503-.955 1.84zm10.377-4.455l-.632-.92-3.194 2.196-1.523-2.215 2.967-2.04-.632-.92-2.967 2.04-1.339-1.948 3.194-2.196-.632-.92-4.153 2.856 4.758 6.922 4.153-2.855zm3.197-2.584l-1.137-2.17 2.466-2.768 2.286.879.815-.914-8.444-3.15-.902 1.013 4.102 8.024.814-.914zm.268-5.353l-1.931 2.169-1.92-3.655 3.851 1.486zm7.593-4.831c.894-1.767.328-3.465-1.47-4.376l-4.722-2.39-.531 1.05 4.679 2.368c1.263.64 1.65 1.709 1.07 2.855-.575 1.135-1.666 1.457-2.929.817l-4.679-2.368-.531 1.05 4.722 2.39c1.799.91 3.502.36 4.391-1.396zm3.532-9.585L79.2 55.005l.602-2.669-1.112-.25-1.463 6.484 1.112.251.602-2.669 7.082 1.599.259-1.147zm1.014-9.23l-3.467.046-4.974-3.101.017 1.332 3.86 2.372-3.795 2.475.018 1.332 4.89-3.234 3.467-.046-.016-1.176zm-1.878-12.58l-7.927 2.778.385 1.099 7.927-2.778-.385-1.099zm-2.757-6.282c-.859-1.486-2.448-2.078-3.705-1.351-1.04.6-1.448 1.571-1.06 2.747l.502 1.54c.31.943.16 1.403-.432 1.746-.665.384-1.48.079-1.978-.784-.516-.893-.382-1.692.358-2.258l-.636-1.101c-1.31.923-1.522 2.307-.585 3.928.805 1.392 2.37 1.942 3.575 1.246.956-.553 1.348-1.625.956-2.784l-.529-1.538c-.275-.811-.123-1.315.511-1.681.748-.433 1.59-.102 2.113.802.559.966.366 2.048-.39 2.513l.636 1.101c1.335-.855 1.625-2.464.664-4.126zm-8.143-10.08l-3.99 5.182.462-7.898-1.026-.79-5.125 6.655.932.717 3.99-5.182-.463 7.898 1.018.784 5.124-6.656-.922-.71zM63.144 11.18c-2.285-.878-4.628.202-5.535 2.566-.908 2.364.11 4.734 2.395 5.612 2.286.877 4.629-.203 5.536-2.567.908-2.363-.11-4.734-2.396-5.611zm-.382.997c1.523.585 2.43 2.141 1.647 4.18-.783 2.039-2.498 2.589-4.022 2.004-1.523-.585-2.43-2.142-1.647-4.18.783-2.04 2.498-2.59 4.022-2.004zM52.729 8.509l-.748 7.221-2.722-.281-.117 1.134 6.613.684.117-1.134-2.721-.281.747-7.222-1.17-.121zm-14.026.934l1.855 7.02-2.645.698.29 1.102 6.428-1.698-.291-1.102-2.645.699-1.855-7.02-1.137.301zm-6.712 2.368l1.864 3.302-3.825 2.16-1.864-3.303-1.024.578 4.13 7.315 1.023-.578-1.716-3.04 3.824-2.16 1.717 3.041 1.014-.572-4.13-7.315-1.013.572zm-11.967 8.52l.774.804 2.792-2.688 1.864 1.936-2.593 2.497.774.804 2.593-2.497 1.64 1.703-2.792 2.689.774.804 3.63-3.496-5.825-6.051-3.631 3.495zm-6.047 8.258l3 1.403-.904 1.935c-.656 1.402-.42 2.851 1.135 3.578 1.554.727 2.818-.02 3.474-1.423l1.397-2.99-7.609-3.557-.493 1.054zm3.141 3.51l.783-1.675 2.761 1.291-.782 1.674c-.473 1.011-1.148 1.49-2.159 1.018-1-.468-1.075-1.298-.603-2.309zm-7.2 7.755c-.412 2.413 1.107 4.498 3.603 4.924 2.496.426 4.62-1.038 5.032-3.451.411-2.413-1.108-4.498-3.604-4.924-2.496-.426-4.62 1.038-5.032 3.45zm1.052.18c.275-1.61 1.623-2.804 3.776-2.437 2.152.368 3.028 1.941 2.754 3.55-.275 1.609-1.623 2.803-3.775 2.436-2.153-.367-3.03-1.94-2.755-3.55zm-1.915 8.772l8.392-.357-.05-1.163-8.392.357.05 1.163zm.7 5.314l6.335-1.625-5.228 5.937.322 1.256L19.32 57.6l-.292-1.139-6.335 1.625 5.229-5.937-.32-1.244-8.136 2.088.29 1.127zm4.169 12.1l6.348-3.523 1.327 2.393.997-.554-3.226-5.812-.997.553 1.328 2.392-6.348 3.523.57 1.029z" fill="#0A0A0A" fill-rule="nonzero"/>
  </g>
</svg>