
<svg width="25px" height="27px" viewBox="0 0 25 27" version="1.1" xmlns="http://www.w3.org/2000/svg" xmlns:xlink="http://www.w3.org/1999/xlink">
    <g id="rosa----rojo" stroke="none" stroke-width="1" fill="none" fill-rule="evenodd">
        <g id="Home" transform="translate(-1170.000000, -293.000000)">
            <g id="tag/ask-our-expert" transform="translate(1165.000000, 281.000000)">
                <g id="tag">
                    <g id="Group-19" transform="translate(6.190476, 13.000000)">
                        <path d="M20.5969345,6.69988095 C21.2912798,5.98857143 21.720744,5.0177381 21.720744,3.94511905 C21.720744,1.76625 19.954375,-0.000119047619 17.775506,-0.000119047619 C16.1537798,-0.000119047619 14.7621131,0.979047619 14.1555655,2.37815476 C13.2740179,2.15970238 12.3525893,2.04184524 11.4037798,2.04184524 C10.4618155,2.04184524 9.54723214,2.15821429 8.67193452,2.37369048 C8.06419643,0.976964286 6.67401786,-0.000119047619 5.05407738,-0.000119047619 C2.87520833,-0.000119047619 1.10883929,1.76625 1.10883929,3.94511905 C1.10883929,5.01089286 1.53324405,5.97607143 2.22014881,6.68619048 C0.825505952,8.57815476 -8.92857143e-05,10.9150595 -8.92857143e-05,13.4454167 C-8.92857143e-05,19.743631 5.10556548,24.8489881 11.4037798,24.8489881 C17.7016964,24.8489881 22.8073512,19.743631 22.8073512,13.4454167 C22.8073512,10.9210119 21.985625,8.58916667 20.5969345,6.69988095" id="Fill-1" fill="#F3E4F3"></path>
                        <path d="M20.5969345,6.69988095 C21.2912798,5.98857143 21.720744,5.0177381 21.720744,3.94511905 C21.720744,1.76625 19.954375,-0.000119047619 17.775506,-0.000119047619 C16.1537798,-0.000119047619 14.7621131,0.979047619 14.1555655,2.37815476 C13.2740179,2.15970238 12.3525893,2.04184524 11.4037798,2.04184524 C10.4618155,2.04184524 9.54723214,2.15821429 8.67193452,2.37369048 C8.06419643,0.976964286 6.67401786,-0.000119047619 5.05407738,-0.000119047619 C2.87520833,-0.000119047619 1.10883929,1.76625 1.10883929,3.94511905 C1.10883929,5.01089286 1.53324405,5.97607143 2.22014881,6.68619048 C0.825505952,8.57815476 -8.92857143e-05,10.9150595 -8.92857143e-05,13.4454167 C-8.92857143e-05,19.743631 5.10556548,24.8489881 11.4037798,24.8489881 C17.7016964,24.8489881 22.8073512,19.743631 22.8073512,13.4454167 C22.8073512,10.9210119 21.985625,8.58916667 20.5969345,6.69988095 Z" id="Stroke-3" stroke="#262626" stroke-width="1.5" stroke-linecap="round" stroke-linejoin="round"></path>
                        <path d="M7.29285714,2.80845238 C6.87767857,1.99267857 6.03214286,1.43255952 5.05416667,1.43255952 C3.66636905,1.43255952 2.54136905,2.5572619 2.54136905,3.94505952 C2.54136905,4.57065476 2.77142857,5.14178571 3.14970238,5.58136905 C4.29970238,4.37482143 5.71041667,3.42065476 7.29285714,2.80845238" id="Fill-5" fill="#FFFFFF"></path>
                        <path d="M19.6690476,5.59339286 C20.0535714,5.15202381 20.2880952,4.57642857 20.2880952,3.94517857 C20.2880952,2.55738095 19.1630952,1.43267857 17.7755952,1.43267857 C16.7943452,1.43267857 15.9470238,1.99607143 15.5333333,2.8160119 C17.1130952,3.43 18.5217262,4.38565476 19.6690476,5.59339286" id="Fill-7" fill="#FFFFFF"></path>
                        <path d="M7.60880952,15.6389286 C7.60880952,13.5430952 9.30761905,11.8439881 11.40375,11.8439881 C13.4995833,11.8439881 15.1986905,13.5430952 15.1986905,15.6389286 C15.1986905,17.7347619 13.4995833,19.433869 11.40375,19.433869 C9.30761905,19.433869 7.60880952,17.7347619 7.60880952,15.6389286" id="Fill-9" fill="#FFFFFF"></path>
                        <path d="M12.8980655,15.6142262 C12.8980655,16.2204762 12.2290179,16.7118452 11.4037202,16.7118452 C10.5784226,16.7118452 9.909375,16.2204762 9.909375,15.6142262" id="Stroke-11" stroke="#262626" stroke-linecap="round" stroke-linejoin="round"></path>
                        <path d="M10.2250298,12.264256 C10.2250298,11.6133631 10.7527083,11.0856845 11.4036012,11.0856845 C12.054494,11.0856845 12.5824702,11.6133631 12.5824702,12.264256 C12.5824702,12.9154464 12.054494,13.443125 11.4036012,13.443125 C10.7527083,13.443125 10.2250298,12.9154464 10.2250298,12.264256" id="Fill-13" fill="#262626"></path>
                        <path d="M7.73145833,9.38776786 C7.73145833,8.5383631 8.15139881,7.84997024 8.66955357,7.84997024 C9.18770833,7.84997024 9.60764881,8.5383631 9.60764881,9.38776786 C9.60764881,10.2371726 9.18770833,10.9255655 8.66955357,10.9255655 C8.15139881,10.9255655 7.73145833,10.2371726 7.73145833,9.38776786" id="Fill-15" fill="#262626"></path>
                        <path d="M13.1999107,9.38776786 C13.1999107,8.5383631 13.6198512,7.84997024 14.138006,7.84997024 C14.6561607,7.84997024 15.0761012,8.5383631 15.0761012,9.38776786 C15.0761012,10.2371726 14.6561607,10.9255655 14.138006,10.9255655 C13.6198512,10.9255655 13.1999107,10.2371726 13.1999107,9.38776786" id="Fill-17" fill="#262626"></path>
                    </g>
                </g>
            </g>
        </g>
    </g>
</svg>