<svg width="169" height="169" xmlns="http://www.w3.org/2000/svg">
  <g fill="none" fill-rule="evenodd">
    <path fill="#FFD2D2" d="M14.142 0l154.15 154.15-14.143 14.141L0 14.142z"/>
    <path d="M64.236 68.65l5.941-5.941 2.089 2.088c.312.312.538.646.677 1a2.754 2.754 0 0 1-.037 2.139 2.944 2.944 0 0 1-.628.917c-.27.271-.577.481-.92.63a2.747 2.747 0 0 1-2.142.037 2.948 2.948 0 0 1-.998-.675L66.9 67.528l-1.893 1.893-.77-.77zm3.369-1.827l1.317 1.318c.193.193.403.332.628.416.225.084.452.122.681.114.23-.008.455-.063.676-.166a2.08 2.08 0 0 0 .6-.422c.174-.174.313-.372.415-.593a1.734 1.734 0 0 0-.352-1.997l-1.318-1.317-2.647 2.647zm7.052 1.625a.826.826 0 0 1 .596-.249.804.804 0 0 1 .601.245.798.798 0 0 1 .24.596.826.826 0 0 1-.248.597.788.788 0 0 1-.588.24.817.817 0 0 1-.589-.248.827.827 0 0 1-.25-.59.783.783 0 0 1 .238-.591zm-5.08 5.543l3.853-3.853.73.73-3.854 3.853-.729-.73zm3.982.096c.288-.287.598-.509.93-.665.333-.156.67-.244 1.012-.265.34-.02.676.033 1.006.162.33.128.638.335.922.62.265.264.466.552.603.863.137.31.206.626.207.945.002.319-.058.63-.178.932-.12.302-.302.575-.545.818a8.55 8.55 0 0 1-.207.2 3.449 3.449 0 0 1-.31.252l-2.897-2.896c-.163.163-.294.34-.393.53-.1.19-.158.388-.174.593-.017.204.015.412.097.623.081.211.224.42.429.624.293.292.575.453.847.482.272.03.52-.007.744-.11l.75.75c-.196.13-.415.221-.655.274-.24.052-.49.063-.748.03a2.506 2.506 0 0 1-.791-.244 2.87 2.87 0 0 1-.769-.56c-.323-.324-.548-.662-.675-1.016a2.469 2.469 0 0 1-.147-1.05c.029-.347.127-.683.294-1.007.167-.325.383-.62.648-.885zm1.11.415l2.21 2.208c.317-.318.467-.671.45-1.06-.016-.39-.186-.746-.509-1.07-.306-.306-.654-.478-1.042-.515-.388-.038-.757.108-1.108.437zm1.841 6.422l5.941-5.941.738.737-5.942 5.942-.737-.738zm4.488 4.488l3.853-3.853.738.738-.688.687c.301-.14.624-.19.967-.15.344.04.678.22 1.001.544.312.312.5.646.561 1 .063.356 0 .693-.188 1.014a1.879 1.879 0 0 1 1.023-.129c.376.05.742.253 1.098.61.232.231.392.47.48.716.09.246.118.488.086.727a1.964 1.964 0 0 1-.25.715 3.169 3.169 0 0 1-.519.671l-2.436 2.436-.737-.737 2.216-2.217c.356-.356.557-.695.603-1.017.046-.322-.066-.617-.334-.885a1.16 1.16 0 0 0-1.017-.354c-.39.051-.812.303-1.265.756l-1.96 1.96-.738-.737 2.171-2.171c.39-.39.607-.745.65-1.065.045-.32-.061-.61-.318-.866a1.197 1.197 0 0 0-1.021-.367c-.394.043-.82.294-1.279.752l-1.96 1.96-.737-.738zm12.356 1.733a.826.826 0 0 1 .596-.249.804.804 0 0 1 .601.245.798.798 0 0 1 .24.596.826.826 0 0 1-.248.597.788.788 0 0 1-.589.24.817.817 0 0 1-.588-.248.827.827 0 0 1-.25-.59.783.783 0 0 1 .238-.591zm-5.08 5.543l3.853-3.853.73.73-3.854 3.853-.729-.73zm1.811 1.812l3.249-.639.621-3.198.85.85-.477 2.208 2.204-.481.85.85-3.2.62-.637 3.25-.845-.846.484-2.25-2.25.485-.849-.85zm7.14.675l.621-.621.713.713 1.297-1.297.737.737-1.297 1.297 1.003 1.003-.622.621-1.002-1.002-1.774 1.773a2.34 2.34 0 0 0-.397.493.857.857 0 0 0-.12.385.542.542 0 0 0 .084.313c.06.093.138.187.235.284.08.08.171.166.275.259.104.092.19.162.259.209l-.655.655a7.749 7.749 0 0 1-.327-.261 5.89 5.89 0 0 1-.394-.36 3.518 3.518 0 0 1-.354-.421 1.27 1.27 0 0 1-.226-.558c-.033-.21 0-.446.1-.708.1-.263.306-.551.621-.866l1.935-1.935-.712-.713zm1.856 4.467a2.967 2.967 0 0 1 1.979-.872 2.625 2.625 0 0 1 1.99.79c.33.328.54.683.634 1.064.094.381.09.742-.012 1.082l.663-.663.73.729-3.854 3.853-.73-.73.672-.67c-.34.102-.701.107-1.084.014-.382-.092-.74-.306-1.075-.64a2.596 2.596 0 0 1-.613-.936 2.7 2.7 0 0 1-.17-1.053 2.944 2.944 0 0 1 .87-1.968zm.73.73a2.07 2.07 0 0 0-.433.619 1.808 1.808 0 0 0-.054 1.392c.084.23.225.445.424.644.2.2.415.341.647.427a1.799 1.799 0 0 0 1.394-.052c.225-.1.431-.245.62-.433a2.07 2.07 0 0 0 .432-.62c.101-.224.157-.456.168-.693a1.764 1.764 0 0 0-.534-1.355 1.745 1.745 0 0 0-1.351-.53c-.238.01-.47.067-.696.17a2.078 2.078 0 0 0-.617.43z" fill="#0A0A0A"/>
  </g>
</svg>