<svg xmlns="http://www.w3.org/2000/svg" width="16.93mm" height="16.93mm" viewBox="0 0 48 48"><title>momi_48px</title><path d="M48,24A24,24,0,1,1,24,0,24,24,0,0,1,48,24" transform="translate(0 0)" fill="#fff685" fill-rule="evenodd"/><path d="M6.3,18.41l.3-.68,3.57.07L7.73,15.2l.3-.68L12.13,16l-.28.62L9,15.6,11.23,18l-.21.49-3.28-.08,2.65,1.48-.27.61Zm7.23-7a1.5,1.5,0,1,0-2.1,2.12,1.5,1.5,0,1,0,2.1-2.12M10.9,14.07a2.24,2.24,0,1,1,3.16-3.18,2.24,2.24,0,1,1-3.16,3.18M14.5,8l.67-.31,2.61,2.43-.09-3.57.68-.3,2.09,3.8-.62.28L18.36,7.71l.1,3.27L18,11.2,15.58,9l1,2.86-.6.27Zm6.12-2.2.7-.12L22,10l-.7.11Zm3.23.27a.8.8,0,0,1-.79.92.77.77,0,0,1-.22,0V6.72a.79.79,0,0,0,.22,0,.41.41,0,0,0,.33-.15.49.49,0,0,0,.13-.33.33.33,0,0,1-.25.1.44.44,0,0,1-.47-.44.46.46,0,0,1,.47-.49c.24,0,.57.17.59.68m.81,2.28.71.1a.8.8,0,0,0,.73,1c.46.07.75-.11.8-.5s-.08-.51-.54-.77l-.66-.38A1.16,1.16,0,0,1,25,6.57a1.25,1.25,0,0,1,1.54-1,1.31,1.31,0,0,1,1.23,1.53l-.7-.1a.67.67,0,0,0-.64-.83c-.41-.06-.67.12-.71.44s.14.52.61.79l.6.35a1.17,1.17,0,0,1,.64,1.29,1.27,1.27,0,0,1-1.59,1,1.42,1.42,0,0,1-1.36-1.72m8.45,1.26a.83.83,0,0,0-.29-1.17l-.74-.4L31.23,9.6,32,10a.82.82,0,0,0,1.14-.37m.62.34a1.43,1.43,0,0,1-2,.61l-.77-.43-.63,1.14L29.68,11l2.09-3.79,1.4.77a1.44,1.44,0,0,1,.56,2m1.8-.44.55.45-2.77,3.34-.55-.46Zm.14,2.84a2.12,2.12,0,0,1,3.17.41,1.94,1.94,0,0,1,0,2.64l-.47-.63a1.22,1.22,0,0,0,0-1.62A1.45,1.45,0,0,0,36.12,13a1.46,1.46,0,0,0-.39,2.19,1.23,1.23,0,0,0,1.56.47l.47.62a1.94,1.94,0,0,1-2.54-.71,2.12,2.12,0,0,1,.45-3.16m3.67,6L38,20.91l-.31-.84,1.23-2.34L37,18.4l-.24-.66,4.07-1.49.24.66-1.85.68,2.46,1,.31.83Zm2.41,11.18-.3.68-3.56-.08,2.44,2.6-.31.68-4.1-1.45.28-.62,2.87,1-2.25-2.38.22-.49,3.27.08L37.66,28l.27-.61Zm-7.23,7a1.5,1.5,0,1,0-.11-2.21,1.48,1.48,0,0,0,.11,2.21m2.63-2.64a2.24,2.24,0,1,1-3.19,0,2.16,2.16,0,0,1,3.19,0m-3.59,6-.68.31-2.61-2.42.09,3.56-.67.31-2.1-3.81.62-.28,1.48,2.64-.1-3.27.49-.22L32.47,39l-1-2.87.6-.27Zm-6.12,2.2-.71.12L26,37.94l.7-.12Zm-3.23-.26A.79.79,0,0,1,25,40.9h.23v.28H25a.47.47,0,0,0-.34.15.57.57,0,0,0-.13.34.31.31,0,0,1,.26-.11.44.44,0,0,1,.46.44.46.46,0,0,1-.47.49c-.24,0-.57-.17-.58-.67m-.82-2.29-.7-.1a.81.81,0,0,0-.73-1c-.47-.07-.76.11-.81.5s.08.51.54.77l.66.38A1.17,1.17,0,0,1,23,41.35a1.22,1.22,0,0,1-1.53,1,1.31,1.31,0,0,1-1.24-1.52l.71.09a.67.67,0,0,0,.64.84c.4,0,.66-.12.71-.45s-.14-.52-.62-.79l-.59-.35a1.18,1.18,0,0,1-.65-1.29,1.28,1.28,0,0,1,1.59-1,1.41,1.41,0,0,1,1.36,1.72m-8.45-1.26a.84.84,0,0,0,.29,1.17l.74.4.85-1.53-.74-.41a.83.83,0,0,0-1.14.37m-.62-.34a1.44,1.44,0,0,1,2-.61l.78.43.63-1.14.62.35-2.1,3.79L14.89,40a1.45,1.45,0,0,1-.57-2.05m-1.8.44L12,37.93l2.77-3.34.55.46Zm-.13-2.83a2.13,2.13,0,0,1-3.17-.42,1.92,1.92,0,0,1,0-2.63l.47.62a1.23,1.23,0,0,0,0,1.62,1.46,1.46,0,0,0,2.22.21,1.46,1.46,0,0,0,.38-2.19,1.23,1.23,0,0,0-1.55-.47l-.47-.62a1.93,1.93,0,0,1,2.53.71,2.13,2.13,0,0,1-.44,3.17m-3.68-6L10.11,27l.3.83L9.18,30.18,11,29.51l.25.67L7.2,31.67,7,31l1.86-.68-2.47-1L6,28.5Z" transform="translate(0 0)" fill-rule="evenodd"/><path d="M31.42,19.36A3.35,3.35,0,1,0,26,15.68a10,10,0,0,0-2.34-.28,9.83,9.83,0,0,0-2.32.28,3.35,3.35,0,1,0-5.49,3.67,9.69,9.69,0,1,0,15.62,0" transform="translate(0 0)" fill="none"/><path d="M31.42,19.36A3.35,3.35,0,1,0,26,15.68a10,10,0,0,0-2.34-.28,9.83,9.83,0,0,0-2.32.28,3.35,3.35,0,1,0-5.49,3.67,9.69,9.69,0,1,0,15.62,0Z" transform="translate(0 0)" fill="none" stroke="#262626" stroke-linecap="round" stroke-linejoin="round" stroke-width="1.5"/><path d="M20.11,16.05a2.13,2.13,0,1,0-3.52,2.36,9.71,9.71,0,0,1,3.52-2.36m10.52,2.37a2.13,2.13,0,1,0-3.51-2.36,9.59,9.59,0,0,1,3.51,2.36M20.38,27a3.23,3.23,0,1,1,3.23,3.22A3.23,3.23,0,0,1,20.38,27" transform="translate(0 0)" fill="#fff" fill-rule="evenodd"/><path d="M24.88,26.94c0,.51-.57.93-1.27.93s-1.27-.42-1.27-.93" transform="translate(0 0)" fill="none" stroke="#262626" stroke-linecap="round" stroke-linejoin="round"/><path d="M22.61,24.09a1,1,0,1,1,1,1,1,1,0,0,1-1-1m-2.12-2.45c0-.72.35-1.3.79-1.3s.8.58.8,1.3S21.72,23,21.28,23s-.79-.59-.79-1.31m4.65,0c0-.72.35-1.3.79-1.3s.8.58.8,1.3S26.37,23,25.93,23s-.79-.59-.79-1.31" transform="translate(0 0)" fill="#262626" fill-rule="evenodd"/></svg>