<svg width="64" height="64" xmlns="http://www.w3.org/2000/svg">
  <g fill="none" fill-rule="evenodd">
    <path d="M64.2425,32.6213 C64.2425,50.0853 50.0855,64.2423 32.6215,64.2423 C15.1575,64.2423 0.9995,50.0853 0.9995,32.6213 C0.9995,15.1573 15.1575,0.9993 32.6215,0.9993 C50.0855,0.9993 64.2425,15.1573 64.2425,32.6213" fill="#FFF685" transform="translate(-1 -1)"/>
    <g fill="#000">
      <path d="M1.30020313 17.2493438L1.69804688 16.354875 6.39604688 16.4554688 3.18157813 13.0235 3.58032813 12.1290313 8.98067188 14.042125 8.61454688 14.8622812 4.83820313 13.5554687 7.80164063 16.6874688 7.51254688 17.3363437 3.20242188 17.2303125 6.68967188 19.1850938 6.33532813 19.9825937zM10.8308719 8.04700937C9.99893438 7.20691562 8.80993438 7.02566562 7.91909063 7.92104062 7.02734063 8.81732187 7.21402813 10.0045094 8.05774688 10.8328219 8.89059063 11.6729156 10.0786844 11.8550719 10.9704344 10.9587906 11.8621844 10.0625094 11.6745906 8.87532187 10.8308719 8.04700937M7.36174688 11.5324469C6.20627813 10.3824156 6.01687188 8.64060312 7.32277813 7.32925937 8.62868438 6.01700937 10.3714031 6.19735312 11.5268719 7.34829062 12.6832469 8.49832187 12.8717469 10.2392281 11.5658406 11.5514781 10.2599344 12.8628219 8.51812188 12.6833844 7.36174688 11.5324469M12.0977188 3.56487812L12.9885625 3.16159687 16.4286875 6.35522187 16.3081563 1.65903437 17.199 1.25665937 19.9603438 6.26912812 19.1429063 6.63887812 17.19175 3.15615937 17.3240625 7.46265937 16.6779063 7.75537812 13.5305 4.81278437 14.8355 8.58822187 14.041625 8.94709687zM20.1646125.66515L21.0898938.5110875 22.029675 6.1443375 21.1034875 6.29930625zM24.4201812 1.01867812C24.4455562 1.68658438 24.1057125 2.21311562 23.3816187 2.24030312 23.2837437 2.24392812 23.1604937 2.24030312 23.0870875 2.22670937L23.0734937 1.85152187C23.1876812 1.86420937 23.2039937 1.86330313 23.3671187 1.85695937 23.5538062 1.84970938 23.7060562 1.77177188 23.8075562 1.65305313 23.9099625 1.54339687 23.9688687 1.38570938 23.9788375 1.21442813 23.9009 1.31502187 23.7640562 1.35308437 23.6417125 1.35761563 23.324525 1.36939687 23.0472125 1.15099063 23.0327125.776709375 23.0191187.402428125 23.2783062.139615625 23.6453375.126021875 23.962525.114240625 24.3957125.350771875 24.4201812 1.01867812M25.4954469 4.0338625L26.4243531 4.16255C26.3237594 4.8893625 26.6826344 5.384175 27.3849781 5.48114375 27.9994156 5.56633125 28.3773219 5.33070625 28.4480094 4.8223 28.5078219 4.39364375 28.3356344 4.14805 27.7338844 3.80095625L26.8647906 3.3016125C26.1923531 2.92914375 25.8914781 2.36908125 25.9902594 1.64951875 26.1180406.729675 26.9490719.2022375 28.0148219.34995625 29.1449156.5067375 29.7919781 1.3042375 29.6451656 2.3627375L28.7162594 2.23405C28.8014469 1.6196125 28.5105406 1.22539375 27.8725406 1.1374875 27.3396656 1.063175 26.9943844 1.295175 26.9354781 1.722925 26.8820094 2.1108 27.1203531 2.40714375 27.7456656 2.76601875L28.5304781 3.22005C29.2001969 3.6097375 29.4865719 4.15983125 29.3805406 4.92651875 29.2455094 5.89620625 28.4036031 6.44539375 27.2816656 6.290425 25.9730406 6.109175 25.3205406 5.29355 25.4954469 4.0338625M36.625375 5.68486875C36.948 5.09943125 36.784875 4.4514625 36.2429375 4.15149375L35.2723437 3.6159 34.153125 5.642275 35.1237187 6.17786875C35.6656562 6.4778375 36.3018437 6.27030625 36.625375 5.68486875M37.4455312 6.13799375C36.8818437 7.15843125 35.76625 7.49193125 34.7675625 6.94093125L33.747125 6.37724375 32.9197187 7.875275 32.0986562 7.42215 34.8581875 2.4269 36.6987812 3.4437125C37.698375 3.99561875 38.0092187 5.1184625 37.4455312 6.13799375M39.8184562 5.55391562L40.5407375 6.15385312 36.8912687 10.5482594 36.1689875 9.94922812zM39.9910062 9.29346562C41.3793812 8.23677812 43.04235 8.36365312 44.1679125 9.84265312 45.1212875 11.0941844 45.0315687 12.4435906 44.1751625 13.3099656L43.553475 12.4925281C44.0600687 11.8808094 44.0781937 11.1095906 43.5045375 10.3574031 42.7396625 9.35237187 41.6258812 9.28893437 40.588225 10.0782781 39.5505687 10.8685281 39.31585 11.9587469 40.080725 12.9637781 40.653475 13.7159656 41.4011312 13.9053719 42.1261312 13.5791219L42.7478187 14.3956531C41.6847875 14.9901531 40.3607562 14.7173719 39.4073812 13.4658406 38.282725 11.9877469 38.6035375 10.3501531 39.9910062 9.29346562M44.8382656 17.1492937L42.9976719 20.5441062 42.5934844 19.4402937 44.2183906 16.3590437 41.7905469 17.2489812 41.4679219 16.3681062 46.8302031 14.4033562 47.1528281 15.2842312 44.7086719 16.1796062 47.9584844 17.4827937 48.3599531 18.57845zM48.0127687 31.8772156L47.614925 32.7716844 42.916925 32.6710906 46.1313937 36.1030594 45.7326437 36.9975281 40.3323 35.0844344 40.698425 34.2642781 44.4747687 35.5710906 41.5113312 32.4390906 41.800425 31.7902156 46.11055 31.8962469 42.6233 29.9414656 42.9776437 29.1439656zM38.4821 41.0790969C39.3140375 41.9191906 40.5021313 42.1004406 41.3938813 41.2050656 42.2856313 40.3087844 42.0989438 39.1215969 41.255225 38.2932844 40.4223813 37.4531906 39.2342875 37.2710344 38.3425375 38.1673156 37.4507875 39.0635969 37.6383813 40.2507844 38.4821 41.0790969M41.951225 37.5936594C43.1066938 38.7436906 43.2961 40.4855031 41.9901938 41.7968469 40.6842875 43.1090969 38.9415688 42.9287531 37.7861 41.7778156 36.629725 40.6277844 36.441225 38.8868781 37.7471313 37.5746281 39.0530375 36.2632844 40.79485 36.4427219 41.951225 37.5936594M37.2152531 45.5612281L36.3244094 45.9645094 32.8842844 42.7708844 33.0048156 47.4670719 32.1139719 47.8694469 29.3526281 42.8569781 30.1700656 42.4872281 32.1212219 45.9699469 31.9889094 41.6634469 32.6350656 41.3707281 35.7824719 44.3133219 34.4774719 40.5378844 35.2713469 40.1790094zM29.1483594 48.4609562L28.2230781 48.6150187 27.2832969 42.9817688 28.2094844 42.8268zM24.8927906 48.1073375C24.8674156 47.4394313 25.2072594 46.9129 25.9313531 46.8857125 26.0292281 46.8820875 26.1524781 46.8857125 26.2258844 46.8993063L26.2394781 47.2744938C26.1252906 47.2618063 26.1089781 47.2627125 25.9458531 47.2690563 25.7591656 47.2763063 25.6069156 47.3542438 25.5054156 47.4729625 25.4030094 47.5826188 25.3441031 47.7403063 25.3341344 47.9115875 25.4120719 47.8109938 25.5489156 47.7729313 25.6712594 47.7684 25.9884469 47.7566188 26.2657594 47.975025 26.2802594 48.3493063 26.2938531 48.7235875 26.0346656 48.9864 25.6676344 48.9999938 25.3504469 49.011775 24.9172594 48.7752438 24.8927906 48.1073375M23.817525 45.0921531L22.8886187 44.9634656C22.9892125 44.2366531 22.6303375 43.7418406 21.9279937 43.6448719 21.3135562 43.5596844 20.93565 43.7953094 20.8649625 44.3037156 20.80515 44.7323719 20.9773375 44.9779656 21.5790875 45.3250594L22.4481812 45.8244031C23.1206187 46.1968719 23.4214937 46.7569344 23.3227125 47.4764969 23.1949312 48.3963406 22.3639 48.9237781 21.29815 48.7760594 20.1680562 48.6192781 19.5209937 47.8217781 19.6678062 46.7632781L20.5967125 46.8919656C20.511525 47.5064031 20.8024312 47.9006219 21.4404312 47.9885281 21.9733062 48.0628406 22.3185875 47.8308406 22.3774937 47.4030906 22.4309625 47.0152156 22.1926187 46.7188719 21.5673062 46.3599969L20.7824937 45.9059656C20.112775 45.5162781 19.8264 44.9661844 19.9324312 44.1994969 20.0674625 43.2298094 20.9093687 42.6806219 22.0313062 42.8355906 23.3399312 43.0168406 23.9924312 43.8324656 23.817525 45.0921531M12.6875969 43.4411469C12.3649719 44.0265844 12.5280969 44.6745531 13.0700344 44.9745219L14.0406281 45.5101156 15.1598469 43.4837406 14.1892531 42.9481469C13.6473156 42.6481781 13.0111281 42.8557094 12.6875969 43.4411469M11.8674406 42.9880219C12.4311281 41.9675844 13.5467219 41.6340844 14.5454094 42.1850844L15.5658469 42.7487719 16.3932531 41.2507406 17.2143156 41.7038656 14.4547844 46.6991156 12.6141906 45.6823031C11.6145969 45.1303969 11.3037531 44.0075531 11.8674406 42.9880219M9.49451562 43.5721906L8.77223437 42.9722531 12.4217031 38.5778469 13.1439844 39.1768781zM9.321875 39.83255C7.9335 40.8892375 6.27053125 40.7623625 5.14496875 39.2833625 4.19159375 38.0318312 4.2813125 36.682425 5.13771875 35.81605L5.75940625 36.6334875C5.2528125 37.2452062 5.2346875 38.016425 5.80834375 38.7686125 6.57321875 39.7736437 7.687 39.8370812 8.72465625 39.0477375 9.7623125 38.2574875 9.99703125 37.1672687 9.23215625 36.1622375 8.65940625 35.41005 7.91175 35.2206437 7.18675 35.5468937L6.5650625 34.7303625C7.62809375 34.1358625 8.952125 34.4086437 9.9055 35.660175 11.0301562 37.1382687 10.7093437 38.7758625 9.321875 39.83255M4.47470625 31.9762687L6.3153 28.5814562 6.7194875 29.6852687 5.09458125 32.7665188 7.522425 31.8765813 7.84505 32.7574562 2.48276875 34.7222062 2.16014375 33.8413313 4.6043 32.9459563 1.3544875 31.6427688.95301875 30.5471125z" transform="translate(7 7)"/>
    </g>
    <path d="M23.0685667,7.50386667 C23.8462333,6.7072 24.3272333,5.61986667 24.3272333,4.41853333 C24.3272333,1.9782 22.3489,-0.000133333333 19.9085667,-0.000133333333 C18.0922333,-0.000133333333 16.5335667,1.09653333 15.8542333,2.66353333 C14.8669,2.41886667 13.8349,2.28686667 12.7722333,2.28686667 C11.7172333,2.28686667 10.6929,2.4172 9.71256667,2.65853333 C9.0319,1.0942 7.4749,-0.000133333333 5.66056667,-0.000133333333 C3.22023333,-0.000133333333 1.2419,1.9782 1.2419,4.41853333 C1.2419,5.6122 1.71723333,6.6932 2.48656667,7.48853333 C0.924566667,9.60753333 -0.0001,12.2248667 -0.0001,15.0588667 C-0.0001,22.1128667 5.71823333,27.8308667 12.7722333,27.8308667 C19.8259,27.8308667 25.5442333,22.1128667 25.5442333,15.0588667 C25.5442333,12.2315333 24.6239,9.61986667 23.0685667,7.50386667" transform="translate(18.333 18)"/>
    <path d="M23.0685667,7.50386667 C23.8462333,6.7072 24.3272333,5.61986667 24.3272333,4.41853333 C24.3272333,1.9782 22.3489,-0.000133333333 19.9085667,-0.000133333333 C18.0922333,-0.000133333333 16.5335667,1.09653333 15.8542333,2.66353333 C14.8669,2.41886667 13.8349,2.28686667 12.7722333,2.28686667 C11.7172333,2.28686667 10.6929,2.4172 9.71256667,2.65853333 C9.0319,1.0942 7.4749,-0.000133333333 5.66056667,-0.000133333333 C3.22023333,-0.000133333333 1.2419,1.9782 1.2419,4.41853333 C1.2419,5.6122 1.71723333,6.6932 2.48656667,7.48853333 C0.924566667,9.60753333 -0.0001,12.2248667 -0.0001,15.0588667 C-0.0001,22.1128667 5.71823333,27.8308667 12.7722333,27.8308667 C19.8259,27.8308667 25.5442333,22.1128667 25.5442333,15.0588667 C25.5442333,12.2315333 24.6239,9.61986667 23.0685667,7.50386667 Z" stroke="#262626" stroke-width="1.5" stroke-linecap="round" stroke-linejoin="round" transform="translate(18.333 18)"/>
    <path d="M8.168 3.14546667C7.703 2.2318 6.756 1.60446667 5.66066667 1.60446667 4.10633333 1.60446667 2.84633333 2.86413333 2.84633333 4.41846667 2.84633333 5.11913333 3.104 5.7588 3.52766667 6.25113333 4.81566667 4.8998 6.39566667 3.83113333 8.168 3.14546667M22.0293333 6.2646C22.46 5.77026667 22.7226667 5.1256 22.7226667 4.4186 22.7226667 2.86426667 21.4626667 1.6046 19.9086667 1.6046 18.8096667 1.6046 17.8606667 2.2356 17.3973333 3.15393333 19.1666667 3.8416 20.7443333 4.91193333 22.0293333 6.2646M8.52186667 17.5156C8.52186667 15.1682667 10.4245333 13.2652667 12.7722 13.2652667 15.1195333 13.2652667 17.0225333 15.1682667 17.0225333 17.5156 17.0225333 19.8629333 15.1195333 21.7659333 12.7722 21.7659333 10.4245333 21.7659333 8.52186667 19.8629333 8.52186667 17.5156" fill="#FFF" transform="translate(18.333 18)"/>
    <path d="M14.4458333,17.4879333 C14.4458333,18.1669333 13.6965,18.7172667 12.7721667,18.7172667 C11.8478333,18.7172667 11.0985,18.1669333 11.0985,17.4879333" stroke="#262626" stroke-linecap="round" stroke-linejoin="round" transform="translate(18.333 18)"/>
    <path d="M11.4520333 13.7359667C11.4520333 13.0069667 12.0430333 12.4159667 12.7720333 12.4159667 13.5010333 12.4159667 14.0923667 13.0069667 14.0923667 13.7359667 14.0923667 14.4653 13.5010333 15.0563 12.7720333 15.0563 12.0430333 15.0563 11.4520333 14.4653 11.4520333 13.7359667M8.65923333 10.5143C8.65923333 9.56296667 9.12956667 8.79196667 9.7099 8.79196667 10.2902333 8.79196667 10.7605667 9.56296667 10.7605667 10.5143 10.7605667 11.4656333 10.2902333 12.2366333 9.7099 12.2366333 9.12956667 12.2366333 8.65923333 11.4656333 8.65923333 10.5143M14.7839 10.5143C14.7839 9.56296667 15.2542333 8.79196667 15.8345667 8.79196667 16.4149 8.79196667 16.8852333 9.56296667 16.8852333 10.5143 16.8852333 11.4656333 16.4149 12.2366333 15.8345667 12.2366333 15.2542333 12.2366333 14.7839 11.4656333 14.7839 10.5143" fill="#262626" transform="translate(18.333 18)"/>
  </g>
</svg>