<?xml version="1.0" encoding="utf-8"?>
<!-- Generator: Adobe Illustrator 22.0.1, SVG Export Plug-In . SVG Version: 6.00 Build 0)  -->
<svg version="1.1" id="Layer_1" xmlns="http://www.w3.org/2000/svg" xmlns:xlink="http://www.w3.org/1999/xlink" x="0px" y="0px"
	 viewBox="0 0 845.1 285.7" style="enable-background:new 0 0 845.1 285.7;" xml:space="preserve">
<g>
	<path d="M820.5,47.8c12.5,0,22.4-9.9,22.4-22.4C842.9,12.8,833,3,820.5,3c-12.6,0-22.4,9.8-22.4,22.4
		C798.1,37.9,807.9,47.8,820.5,47.8 M753.6,47.8c12.5,0,22.4-9.9,22.4-22.4C776,12.8,766.1,3,753.6,3c-12.6,0-22.4,9.8-22.4,22.4
		C731.2,37.9,741,47.8,753.6,47.8 M686.7,47.8c12.5,0,22.4-9.9,22.4-22.4c0-12.6-9.9-22.4-22.4-22.4c-12.6,0-22.4,9.8-22.4,22.4
		C664.3,37.9,674.1,47.8,686.7,47.8 M804.3,217.1h32.5V78h-32.5V217.1z M737.4,78v152.3c0,14.6-4.8,25.4-17.6,25.4
		c-12.2,0-17-8.4-17-19.1V235h-32.9v3c0,28.7,21.2,45.4,49.6,45.4c32.8,0,50.5-23.3,50.5-52V78H737.4z M670.5,217.1h32.5V78h-32.5
		V217.1z M582.1,74.4c-18.2,0-34.6,5.7-46.9,22.1C523,80,506.6,74.4,488.4,74.4c-27.5,0-57.3,14.6-57.3,58.5v84.2h32.5v-83
		c0-23.3,12-32,27.5-32c16.1,0,27.8,8.9,27.8,33.4v81.5h32.8v-81.5c0-24.5,11.7-33.4,27.8-33.4c15.5,0,27.5,8.7,27.5,32v83h32.5
		v-84.2C639.5,89,609.6,74.4,582.1,74.4 M333.1,191.7c-26.3,0-40.9-18.8-40.9-44.2c0-25.4,14.6-44.2,40.9-44.2s40.9,18.8,40.9,44.2
		C374,172.9,359.3,191.7,333.1,191.7 M333.1,220.7c46,0,73.5-32.3,73.5-73.2c0-40.9-27.5-73.2-73.5-73.2s-73.5,32.3-73.5,73.2
		C259.6,188.4,287.1,220.7,333.1,220.7 M1.6,217.1h32L47,71.4l60.6,145.7h26l60.6-145.7l12.6,145.7h32.8l-16.4-209h-35.8
		l-66.9,158.6L53.8,8.1H18L1.6,217.1z"/>
</g>
</svg>
