<?xml version="1.0" encoding="UTF-8" standalone="no"?><!DOCTYPE svg PUBLIC "-//W3C//DTD SVG 1.1//EN" "http://www.w3.org/Graphics/SVG/1.1/DTD/svg11.dtd"><svg width="100%" height="100%" viewBox="0 0 169 169" version="1.1" xmlns="http://www.w3.org/2000/svg" xmlns:xlink="http://www.w3.org/1999/xlink" xml:space="preserve" xmlns:serif="http://www.serif.com/" style="fill-rule:evenodd;clip-rule:evenodd;stroke-linejoin:round;stroke-miterlimit:2;"><g><path d="M14.142,0l154.15,154.15l-14.143,14.141l-154.149,-154.149l14.142,-14.142Z" style="fill:#d5f3ff;"/></g><g id="Capa1"><path d="M62.925,66.79l0.77,0.791l4.831,-3.946l-2.639,6.2l0.627,0.645l6.271,-2.468l-4.095,4.704l0.786,0.808l5.568,-6.321l-0.853,-0.877l-6.747,2.614l2.815,-6.656l-0.854,-0.877l-6.48,5.383Z" style="fill-rule:nonzero;"/><path d="M72.235,76.567c1.273,1.307 2.978,1.187 4.148,0.048c1.17,-1.138 1.338,-2.84 0.066,-4.148c-1.273,-1.308 -2.978,-1.187 -4.148,-0.048c-1.17,1.138 -1.338,2.84 -0.066,4.148Zm0.722,-0.702c-0.796,-0.818 -0.654,-1.877 0.129,-2.639c0.783,-0.762 1.846,-0.874 2.641,-0.057c0.804,0.826 0.654,1.877 -0.129,2.639c-0.783,0.761 -1.838,0.883 -2.641,0.057Z" style="fill-rule:nonzero;"/><path d="M75.301,79.511l0.777,0.799l2.142,-2.083c0.783,-0.762 1.641,-0.86 2.336,-0.146c0.687,0.706 0.55,1.375 -0.336,2.236l-2.124,2.067l0.777,0.799l2.486,-2.418c1.058,-1.029 1.14,-2.079 0.177,-3.068c-0.653,-0.671 -1.405,-0.877 -2.095,-0.658l0.644,-0.627l-0.777,-0.799l-4.007,3.898Z" style="fill-rule:nonzero;"/><path d="M82.304,85.37c-0.368,-0.379 -0.507,-0.728 0.233,-1.448l1.815,-1.767l0.963,0.99l0.678,-0.66l-0.962,-0.99l1.238,-1.205l-0.785,-0.807l-1.239,1.205l-0.694,-0.714l-0.679,0.66l0.695,0.714l-1.997,1.942c-1.306,1.271 -0.623,2.128 -0.163,2.601c0.259,0.267 0.545,0.508 0.721,0.621l0.705,-0.685c-0.118,-0.087 -0.378,-0.302 -0.529,-0.457Z" style="fill-rule:nonzero;"/><path d="M88.631,88.758c1.11,-1.08 1.14,-2.597 0.035,-3.733c-1.172,-1.204 -2.766,-1.192 -4.048,0.055c-1.291,1.255 -1.346,2.831 -0.132,4.079c0.92,0.946 2.155,1.184 3.028,0.602l-0.794,-0.817c-0.52,0.189 -1.036,0.037 -1.53,-0.47c-0.72,-0.74 -0.759,-1.624 -0.044,-2.353l2.988,3.071c0.214,-0.175 0.342,-0.284 0.497,-0.434Zm-2.867,-3.239c0.68,-0.61 1.554,-0.59 2.241,0.116c0.695,0.714 0.683,1.512 0.003,2.191l-2.244,-2.307Z" style="fill-rule:nonzero;"/><path d="M87.325,91.872l0.778,0.798l1.754,-1.707c0.895,-0.87 1.925,-1.119 2.67,-0.353c0.142,0.146 0.226,0.232 0.342,0.386l0.739,-0.718c-0.066,-0.12 -0.192,-0.266 -0.325,-0.404c-0.469,-0.481 -1.246,-0.73 -2.007,-0.291l0.834,-0.811l-0.777,-0.799l-4.008,3.899Z" style="fill-rule:nonzero;"/><path d="M90.371,95.002l0.777,0.799l1.755,-1.707c0.895,-0.87 1.925,-1.119 2.67,-0.353c0.142,0.146 0.226,0.232 0.342,0.386l0.739,-0.718c-0.066,-0.12 -0.192,-0.266 -0.326,-0.404c-0.468,-0.481 -1.245,-0.73 -2.006,-0.291l0.834,-0.811l-0.778,-0.799l-4.007,3.898Z" style="fill-rule:nonzero;"/><path d="M98.998,99.415c1.111,-1.08 1.14,-2.597 0.035,-3.733c-1.172,-1.204 -2.765,-1.192 -4.047,0.055c-1.291,1.255 -1.347,2.831 -0.133,4.079c0.921,0.946 2.155,1.184 3.029,0.602l-0.794,-0.817c-0.521,0.189 -1.037,0.037 -1.531,-0.47c-0.72,-0.74 -0.758,-1.624 -0.043,-2.353l2.987,3.07c0.214,-0.174 0.343,-0.283 0.497,-0.433Zm-2.866,-3.239c0.68,-0.61 1.554,-0.59 2.24,0.116c0.695,0.714 0.684,1.512 0.004,2.191l-2.244,-2.307Z" style="fill-rule:nonzero;"/><path d="M95.934,104.558c0.702,0.722 1.605,1.049 2.936,0.474l6.402,-2.73l-0.836,-0.86l-4.399,2.053l2.031,-4.487l-0.811,-0.834l-2.566,5.744l-0.376,0.164c-0.674,0.305 -1.249,0.11 -1.625,-0.277c-0.134,-0.137 -0.292,-0.351 -0.391,-0.539l-0.756,0.735c0.132,0.239 0.19,0.35 0.391,0.557Z" style="fill-rule:nonzero;"/></g></svg>