
<svg width="100px" height="100px" viewBox="0 0 100 100" version="1.1" xmlns="http://www.w3.org/2000/svg" xmlns:xlink="http://www.w3.org/1999/xlink">
    <g id="Page-1" stroke="none" stroke-width="1" fill="none" fill-rule="evenodd">
        <g id="Home" transform="translate(-500.000000, -4842.000000)">
            <g id="CTA" transform="translate(0.000000, 4842.000000)">
                <g id="img">
                    <g id="tag" transform="translate(559.000000, 44.000000) rotate(-315.000000) translate(-559.000000, -44.000000) translate(450.000000, 34.000000)">
                        <rect id="Rectangle" fill="#FFF683" x="7.27595761e-12" y="3.63797881e-12" width="218" height="20"></rect>
                        <path d="M92.8094948,13.1213203 L92.8094948,4.71897659 L94.0223854,4.71897659 L97.8016823,11.2111641 L97.8016823,4.71897659 L98.891526,4.71897659 L98.891526,13.1213203 L97.6786354,13.1213203 L93.8993385,6.62913284 L93.8993385,13.1213203 L92.8094948,13.1213203 Z M100.849339,10.8888985 L100.849339,7.67210159 L101.892307,7.67210159 L101.892307,10.5549141 C101.892307,10.8127279 101.916721,11.0490536 101.965549,11.2638985 C102.014378,11.4787433 102.092502,11.6642883 102.199924,11.8205391 C102.307347,11.9767899 102.446994,12.1008121 102.61887,12.1926094 C102.790746,12.2844067 103.001681,12.3303047 103.251682,12.3303047 C103.517309,12.3303047 103.749728,12.2805005 103.948948,12.1808907 C104.148168,12.0812808 104.311252,11.94554 104.438206,11.7736641 C104.565159,11.6017882 104.660862,11.403548 104.725315,11.1789375 C104.789769,10.954327 104.821995,10.7170247 104.821995,10.4670235 L104.821995,7.67210159 L105.864964,7.67210159 L105.864964,13.1213203 L104.821995,13.1213203 L104.821995,12.1486641 C104.661838,12.4846033 104.4177,12.7531553 104.089573,12.9543282 C103.761446,13.155501 103.357153,13.256086 102.876682,13.256086 C102.532931,13.256086 102.223363,13.1974928 101.947971,13.0803047 C101.672579,12.9631166 101.443089,12.785384 101.259495,12.5471016 C101.10715,12.3400693 101.000706,12.1076498 100.940159,11.849836 C100.879612,11.5920222 100.849339,11.2717129 100.849339,10.8888985 Z M107.518089,10.3732735 C107.518089,9.96702144 107.580588,9.59104863 107.705589,9.24534378 C107.830589,8.89963893 108.006369,8.59886069 108.232932,8.34300003 C108.459496,8.08713938 108.734884,7.88792262 109.059104,7.74534378 C109.383325,7.60276494 109.746602,7.53147659 110.148948,7.53147659 C110.52395,7.53147659 110.869649,7.59299942 111.186057,7.71604691 C111.502465,7.8390944 111.773947,8.01292078 112.00051,8.23753128 C112.227074,8.46214178 112.404807,8.72385791 112.533714,9.02268753 C112.66262,9.32151715 112.727073,9.642803 112.727073,9.98655472 C112.727073,10.0646801 112.72512,10.1603823 112.721214,10.2736641 C112.717307,10.3869459 112.703636,10.5197571 112.680198,10.6721016 L108.584495,10.6721016 C108.584495,10.9025715 108.616721,11.1203428 108.681174,11.3254219 C108.745628,11.5305011 108.84426,11.7111633 108.977073,11.8674141 C109.109886,12.0236649 109.279806,12.1476871 109.486839,12.2394844 C109.693871,12.3312817 109.941915,12.3771797 110.230979,12.3771797 C110.645044,12.3771797 110.958517,12.2912431 111.171409,12.1193672 C111.384301,11.9474914 111.533713,11.7463215 111.619651,11.5158516 L112.680198,11.5158516 C112.633323,11.7463215 112.54348,11.9650693 112.410667,12.1721016 C112.277853,12.3791339 112.10891,12.5627258 111.903831,12.7228828 C111.698752,12.8830399 111.454613,13.0119449 111.171409,13.1096016 C110.888204,13.2072583 110.574731,13.256086 110.230979,13.256086 C109.773946,13.256086 109.375512,13.1760086 109.035667,13.0158516 C108.695821,12.8556945 108.413597,12.642806 108.188987,12.3771797 C107.964376,12.1115534 107.796409,11.8049158 107.685081,11.4572578 C107.573752,11.1095999 107.518089,10.7482753 107.518089,10.3732735 Z M108.596214,9.88108597 L111.71926,9.88108597 C111.71926,9.43186497 111.575707,9.07542322 111.288596,8.81175003 C111.001486,8.54807684 110.629419,8.41624222 110.172385,8.41624222 C109.738789,8.41624222 109.371606,8.54026442 109.070823,8.78831253 C108.77004,9.03636065 108.611839,9.40061482 108.596214,9.88108597 Z M113.249339,7.67210159 L114.380198,7.67210159 L116.085276,11.6330391 L117.807932,7.67210159 L118.938792,7.67210159 L116.442698,13.1213203 L115.721995,13.1213203 L113.249339,7.67210159 Z M119.291135,10.396711 C119.291135,10.0138966 119.359494,9.64866583 119.496214,9.30100784 C119.632933,8.95334986 119.825314,8.6467123 120.073362,8.38108597 C120.32141,8.11545964 120.623165,7.90745391 120.978635,7.75706253 C121.334106,7.60667115 121.72668,7.53147659 122.15637,7.53147659 C122.589966,7.53147659 122.98254,7.60667115 123.334104,7.75706253 C123.685668,7.90745391 123.987423,8.11545964 124.239378,8.38108597 C124.491332,8.6467123 124.685666,8.95334986 124.822385,9.30100784 C124.959105,9.64866583 125.027464,10.0138966 125.027464,10.396711 C125.027464,10.7795254 124.959105,11.1437796 124.822385,11.4894844 C124.685666,11.8351893 124.493285,12.1398737 124.245237,12.4035469 C123.997189,12.6672201 123.695434,12.8752258 123.339964,13.0275703 C122.984493,13.1799149 122.589966,13.256086 122.15637,13.256086 C121.714961,13.256086 121.319457,13.1799149 120.969846,13.0275703 C120.620235,12.8752258 120.32141,12.6672201 120.073362,12.4035469 C119.825314,12.1398737 119.632933,11.8351893 119.496214,11.4894844 C119.359494,11.1437796 119.291135,10.7795254 119.291135,10.396711 Z M120.322385,10.396711 C120.322385,10.6623373 120.36633,10.9103817 120.454221,11.1408516 C120.542112,11.3713215 120.666135,11.5734679 120.826292,11.7472969 C120.986449,11.9211259 121.177853,12.0597964 121.40051,12.1633125 C121.623168,12.2668287 121.875118,12.318586 122.15637,12.318586 C122.437621,12.318586 122.690548,12.2668287 122.915159,12.1633125 C123.139769,12.0597964 123.33215,11.9211259 123.492307,11.7472969 C123.652464,11.5734679 123.776487,11.3713215 123.864378,11.1408516 C123.952269,10.9103817 123.996214,10.6623373 123.996214,10.396711 C123.996214,10.1310846 123.952269,9.88304025 123.864378,9.65257034 C123.776487,9.42210044 123.652464,9.21897747 123.492307,9.04319534 C123.33215,8.86741321 123.139769,8.72678962 122.915159,8.62132034 C122.690548,8.51585107 122.437621,8.46311722 122.15637,8.46311722 C121.875118,8.46311722 121.623168,8.51585107 121.40051,8.62132034 C121.177853,8.72678962 120.986449,8.86741321 120.826292,9.04319534 C120.666135,9.21897747 120.542112,9.42307699 120.454221,9.65550003 C120.36633,9.88792307 120.322385,10.1349909 120.322385,10.396711 Z" id="Nuevo" fill="#0A0A0A" fill-rule="nonzero"></path>
                    </g>
                </g>
            </g>
        </g>
    </g>
</svg>