<svg width="78" height="62" xmlns="http://www.w3.org/2000/svg">
  <g fill="none" fill-rule="evenodd">
    <path fill="#D5F3FF" d="M10.9.828l67.093 43.57L67.1 61.173.007 17.602z"/>
    <path d="M23.47 25.406l4.576-7.047 1.017.66-.366 7.504 3.536-5.445.914.594-4.576 7.046-1.018-.66.367-7.503-3.536 5.444-.914-.593zm7.959 2.506l1.752-2.697.874.568-1.57 2.417a3.2 3.2 0 0 0-.325.635 1.597 1.597 0 0 0-.106.594c.005.19.054.37.149.54.094.171.246.324.455.46.223.145.445.23.666.255.222.025.432 0 .633-.075.2-.075.388-.19.564-.342.177-.154.333-.335.47-.545l1.521-2.344.875.568-2.968 4.57-.875-.568.53-.815a1.879 1.879 0 0 1-1.053.276c-.385-.01-.778-.146-1.181-.407a2.35 2.35 0 0 1-.684-.653 1.692 1.692 0 0 1-.287-.823c-.015-.256.023-.51.112-.758.09-.25.239-.535.448-.856zm5.873 3.2c.222-.34.479-.622.772-.844.293-.222.604-.378.934-.47.329-.09.668-.108 1.018-.05.35.056.693.194 1.03.414.315.204.571.444.77.72.198.275.331.568.399.88.067.312.074.628.02.949-.055.32-.176.625-.364.914a8.55 8.55 0 0 1-.16.237 3.449 3.449 0 0 1-.252.312l-3.435-2.23a2.167 2.167 0 0 0-.275.6 1.54 1.54 0 0 0-.047.616c.026.203.101.4.225.59.124.19.307.363.55.52.346.226.656.324.928.296.272-.028.507-.115.705-.262l.89.578c-.166.167-.36.302-.584.403a2.215 2.215 0 0 1-.725.186 2.506 2.506 0 0 1-.825-.074 2.87 2.87 0 0 1-.869-.39c-.383-.249-.673-.533-.871-.852a2.469 2.469 0 0 1-.362-.997 2.668 2.668 0 0 1 .078-1.046c.096-.352.246-.686.45-1zm1.173.174l2.619 1.701c.244-.376.318-.754.22-1.131-.096-.378-.336-.69-.72-.94-.363-.236-.739-.332-1.126-.288-.388.045-.719.264-.993.658zm5.105.682l.948.616-.727 4.25 3.602-2.383.949.616-5.062 3.21-.604-.392.894-5.917zm3.583 5.576a2.967 2.967 0 0 1 1.754-1.265c.353-.087.72-.097 1.1-.03.38.067.75.218 1.11.452.363.236.652.513.865.83.213.318.352.657.419 1.017.067.36.063.723-.012 1.09-.075.365-.216.709-.425 1.03-.208.321-.464.59-.767.805a2.85 2.85 0 0 1-.982.452 2.668 2.668 0 0 1-1.099.03 2.975 2.975 0 0 1-1.117-.453c-.37-.24-.66-.52-.87-.838a2.69 2.69 0 0 1-.413-1.011 2.85 2.85 0 0 1 .014-1.081c.074-.365.215-.707.423-1.028zm.865.561a2.07 2.07 0 0 0-.295.696 1.808 1.808 0 0 0 .237 1.373c.13.208.314.389.55.542.235.153.476.248.72.283a1.799 1.799 0 0 0 1.353-.34c.2-.146.372-.33.516-.553a2.07 2.07 0 0 0 .295-.696c.052-.24.058-.479.02-.713a1.764 1.764 0 0 0-.804-1.214 1.745 1.745 0 0 0-1.432-.238c-.23.06-.445.163-.646.31-.2.148-.371.33-.514.55z" fill="#0A0A0A"/>
  </g>
</svg>