<svg id="b56a2612-b1bd-4950-986c-5468e3cfe4ba" data-name="Capa 1" xmlns="http://www.w3.org/2000/svg" width="89.38mm" height="97.1mm" viewBox="0 0 253.35 275.24"><rect y="108.48" width="253.35" height="166.76" fill="#f1e3f0"/><polygon points="126.68 48.34 0 108.48 253.35 108.48 126.68 48.34" fill="#e0cbde"/><rect x="202.47" y="259.12" width="206.05" height="226.9" transform="matrix(1, 0, 0, 1, -178.45, -259.59)" fill="#fff1da"/><path d="M353.24,308.87a2.68,2.68,0,1,0-2.67-2.68,2.66,2.66,0,0,0,2.67,2.68m-8,0a2.68,2.68,0,1,0-2.67-2.68,2.64,2.64,0,0,0,2.67,2.68m-8,0a2.68,2.68,0,1,0-2.67-2.68,2.64,2.64,0,0,0,2.67,2.68m14,20.28h3.89l0-16.64h-3.89Zm-8-16.66,0,18.21c0,1.75-.58,3-2.11,3s-2-1-2-2.29v-.18H335.2v.36c0,3.42,2.52,5.43,5.91,5.44,3.93,0,6-2.77,6.05-6.2l0-18.35Zm-8,16.62h3.89l0-16.64h-3.89ZM324.75,312a6.55,6.55,0,0,0-5.61,2.63,6.51,6.51,0,0,0-5.6-2.65c-3.28,0-6.85,1.73-6.87,7l0,10.06h3.89l0-9.92c0-2.79,1.44-3.82,3.3-3.81s3.31,1.07,3.31,4l0,9.75h3.93l0-9.75c0-2.93,1.4-4,3.33-4s3.28,1,3.28,3.83l0,9.92h3.89l0-10.07c0-5.24-3.55-7-6.84-7m-29.8,14c-3.14,0-4.89-2.26-4.88-5.29s1.76-5.28,4.9-5.27,4.89,2.26,4.88,5.29-1.76,5.28-4.9,5.27m0,3.46a8.75,8.75,0,1,0-8.76-8.76,8.33,8.33,0,0,0,8.76,8.76m-39.62-.52h3.82l1.65-17.41,7.2,17.43h3.11l7.28-17.4,1.46,17.42h3.93l-1.91-25h-4.28l-8,18.93-7.91-19h-4.29Z" transform="translate(-179.32 -258.88)" fill="#010101"/><path d="M355.53,359.24l-100-.24a1.5,1.5,0,1,1,0-3l100,.24a1.5,1.5,0,0,1,0,3Z" transform="translate(-179.32 -258.88)" fill="#010101"/><path d="M355.49,373.24l-100-.24a1.5,1.5,0,0,1,0-3l100,.24a1.5,1.5,0,1,1,0,3Z" transform="translate(-179.32 -258.88)" fill="#010101"/><path d="M355.46,387.24l-100-.24a1.5,1.5,0,1,1,0-3l100,.24a1.5,1.5,0,0,1,0,3Z" transform="translate(-179.32 -258.88)" fill="#010101"/><polygon points="126.67 188.68 0 109.42 0 273.65 126.67 188.68" fill="#e0cbde"/><polygon points="126.69 188.68 253.35 109.42 253.35 273.65 126.69 188.68" fill="#e0cbde"/><polygon points="126.68 188.65 253.35 273.64 0 273.64 126.68 188.65" fill="#f1e3f0"/></svg>