<svg width="169" height="169" xmlns="http://www.w3.org/2000/svg">
  <g fill="none" fill-rule="evenodd">
    <path fill="#FFF685" d="M14.142 0l154.15 154.15-14.143 14.141L0 14.142z"/>
    <path d="M62.712 67.126l5.941-5.941 2.089 2.088c.312.312.537.646.677 1a2.754 2.754 0 0 1-.037 2.139 2.944 2.944 0 0 1-.628.917c-.27.27-.577.48-.92.63a2.747 2.747 0 0 1-2.142.037 2.948 2.948 0 0 1-.998-.675l-1.318-1.318-1.893 1.894-.771-.77zM66.08 65.3l1.318 1.318c.193.193.403.332.628.416.225.084.452.122.681.114.23-.008.455-.064.676-.166a2.08 2.08 0 0 0 .6-.422c.174-.174.312-.372.415-.593a1.734 1.734 0 0 0-.352-1.997l-1.318-1.317-2.648 2.647zm7.053 1.625a.826.826 0 0 1 .596-.249.804.804 0 0 1 .601.245.798.798 0 0 1 .24.596.826.826 0 0 1-.248.597.788.788 0 0 1-.589.24.817.817 0 0 1-.588-.248.827.827 0 0 1-.25-.59.783.783 0 0 1 .238-.591zm-5.08 5.543l3.853-3.853.73.73-3.854 3.853-.729-.73zm3.982.096c.288-.287.598-.509.93-.665.333-.156.67-.244 1.011-.265.342-.02.677.033 1.007.162.33.128.638.335.922.62.265.264.466.552.603.863.137.31.206.626.207.945.001.319-.058.63-.178.932-.12.302-.302.575-.545.818a8.55 8.55 0 0 1-.207.199 3.449 3.449 0 0 1-.31.253l-2.897-2.896c-.163.163-.294.34-.394.53-.099.19-.157.388-.174.592-.016.205.016.413.098.624.081.211.224.42.429.623.292.293.575.454.847.483.272.03.52-.007.744-.11l.75.75c-.197.13-.415.221-.655.274-.24.052-.49.063-.748.03a2.506 2.506 0 0 1-.791-.244 2.87 2.87 0 0 1-.769-.561c-.323-.323-.548-.662-.675-1.015a2.469 2.469 0 0 1-.147-1.05c.029-.347.127-.683.294-1.007.167-.325.383-.62.648-.885zm1.11.415l2.209 2.208c.318-.318.468-.671.452-1.06-.017-.39-.187-.747-.51-1.07-.307-.306-.654-.478-1.042-.516-.388-.037-.758.109-1.108.438zm1.84 6.422l5.942-5.941.738.737-5.942 5.942-.737-.738zm6.1 2.247a2.967 2.967 0 0 1 1.98-.872 2.625 2.625 0 0 1 1.99.79c.329.328.54.683.634 1.064.094.38.09.741-.013 1.081l.663-.663.73.73-4.098 4.097c-.345.345-.688.591-1.028.737-.34.147-.675.21-1.006.191a2.261 2.261 0 0 1-.968-.288 4.075 4.075 0 0 1-.91-.698c-.367-.367-.628-.726-.782-1.077a2.394 2.394 0 0 1-.226-.997c.004-.313.069-.607.195-.882.125-.275.282-.523.47-.744l.746.746a1.832 1.832 0 0 0-.297.483 1.36 1.36 0 0 0 .044 1.15c.097.21.255.425.476.646.194.193.392.343.595.45.203.106.412.164.628.175a1.43 1.43 0 0 0 .658-.132c.224-.1.45-.263.676-.49l.915-.915c-.34.102-.7.107-1.083.015-.383-.093-.741-.306-1.075-.64a2.596 2.596 0 0 1-.613-.937 2.7 2.7 0 0 1-.17-1.052 2.944 2.944 0 0 1 .87-1.968zm.73.729a2.07 2.07 0 0 0-.433.62 1.799 1.799 0 0 0-.052 1.394c.086.232.227.446.423.642.199.199.414.34.646.427a1.799 1.799 0 0 0 1.394-.052c.225-.101.432-.245.62-.433a2.07 2.07 0 0 0 .433-.62c.1-.225.156-.456.167-.694a1.764 1.764 0 0 0-.534-1.355 1.745 1.745 0 0 0-1.35-.53c-.238.011-.47.068-.697.17a2.078 2.078 0 0 0-.617.431zm2.847 6.7l3.853-3.853.738.737-.755.754c.346-.14.712-.167 1.098-.078.387.088.721.273 1.003.555.141.14.24.279.298.414l-.68.68a3.33 3.33 0 0 0-.157-.224 1.807 1.807 0 0 0-.14-.157c-.448-.448-.916-.638-1.405-.572-.489.066-.964.33-1.425.791l-1.69 1.69-.738-.737zm4.765.912a2.967 2.967 0 0 1 1.978-.872 2.625 2.625 0 0 1 1.99.79c.33.328.541.683.635 1.064.094.381.09.742-.012 1.081l.663-.662.729.729-3.853 3.853-.73-.73.672-.67c-.34.102-.701.107-1.084.014-.382-.093-.74-.306-1.075-.64a2.596 2.596 0 0 1-.613-.936 2.7 2.7 0 0 1-.17-1.053 2.944 2.944 0 0 1 .87-1.968zm.73.73a2.07 2.07 0 0 0-.434.619 1.808 1.808 0 0 0-.054 1.392c.085.23.226.445.425.644.199.199.414.341.647.427a1.799 1.799 0 0 0 1.394-.052c.225-.1.431-.245.62-.433a2.07 2.07 0 0 0 .432-.62c.1-.224.157-.456.168-.693a1.764 1.764 0 0 0-.534-1.355 1.745 1.745 0 0 0-1.351-.53c-.238.01-.47.067-.696.17a2.078 2.078 0 0 0-.618.43zm3.836 5.096l.721.721c-.292.293-.413.586-.362.88.051.295.21.574.474.84.232.231.462.374.688.426.227.053.434-.015.622-.203a.576.576 0 0 0 .178-.315.813.813 0 0 0-.052-.383 3.355 3.355 0 0 0-.245-.522c-.111-.2-.236-.444-.375-.731a5.977 5.977 0 0 1-.252-.547 1.772 1.772 0 0 1-.127-.537 1.34 1.34 0 0 1 .067-.522 1.3 1.3 0 0 1 .329-.5c.193-.192.398-.322.615-.386.217-.065.437-.08.661-.044.224.036.441.115.653.238.211.123.41.279.598.466.221.221.394.456.518.705.125.248.196.498.216.75a1.69 1.69 0 0 1-.505 1.367l-.713-.713c.226-.226.334-.467.323-.72-.011-.255-.144-.509-.398-.763-.21-.21-.426-.34-.648-.387a.61.61 0 0 0-.59.184.533.533 0 0 0-.166.31.831.831 0 0 0 .053.378c.05.14.123.299.218.474l.333.62c.092.18.18.366.266.559.085.193.14.384.165.572.025.187.01.376-.043.565-.054.19-.172.375-.354.557-.194.194-.4.324-.62.392a1.48 1.48 0 0 1-.673.048 1.987 1.987 0 0 1-.688-.253 3.155 3.155 0 0 1-.65-.506 3.25 3.25 0 0 1-.551-.72 2.116 2.116 0 0 1-.26-.777 1.72 1.72 0 0 1 .09-.785c.09-.26.252-.506.484-.738zm4.612 3.352a2.967 2.967 0 0 1 1.979-.872 2.625 2.625 0 0 1 1.99.79c.33.328.54.683.635 1.064.093.382.09.742-.013 1.082l.663-.663.73.73-3.854 3.852-.73-.729.672-.671c-.34.102-.7.107-1.083.014-.383-.092-.741-.306-1.076-.64a2.596 2.596 0 0 1-.613-.936 2.7 2.7 0 0 1-.17-1.053 2.944 2.944 0 0 1 .87-1.968zm.73.73a2.07 2.07 0 0 0-.433.62 1.808 1.808 0 0 0-.054 1.392c.084.23.226.445.424.643.2.2.415.342.647.427a1.799 1.799 0 0 0 1.394-.052c.225-.1.432-.245.62-.433a2.07 2.07 0 0 0 .432-.619c.101-.225.157-.456.168-.694a1.764 1.764 0 0 0-.534-1.355 1.745 1.745 0 0 0-1.351-.53c-.238.01-.47.068-.696.17a2.078 2.078 0 0 0-.617.43z" fill="#0A0A0A"/>
  </g>
</svg>