<svg xmlns="http://www.w3.org/2000/svg" width="17.82cm" height="17.82cm" viewBox="0 0 505 505"><title>popup</title><circle cx="252.5" cy="252.5" r="252.5" fill="#ee6d53"/><path d="M139.55,237.7c0,17.69-12.37,30.31-29.69,30.31H92.16v26H77.93V207.38h31.93C127.18,207.38,139.55,220,139.55,237.7Zm-14.23,0c0-10.15-6.93-17.57-16.33-17.57H92.16v35.14H109C118.39,255.27,125.32,247.84,125.32,237.7Z" transform="translate(-15.97 -15.83)"/><path d="M144.13,265.17c0-17,11.38-30.32,30.44-30.32S205,248.21,205,265.17s-11.38,30.31-30.43,30.31S144.13,282.12,144.13,265.17Zm47.39,0c0-10.52-6.07-18.32-17-18.32s-17,7.8-17,18.32,6.07,18.31,17,18.31S191.52,275.68,191.52,265.17Z" transform="translate(-15.97 -15.83)"/><path d="M274.79,265.17c0,17.81-11.63,30.31-28.34,30.31-7.67,0-15-3.71-18.56-9.28V320H214.53V236.34h13.36v7.79c3.59-5.57,11.26-9.28,19.43-9.28C263.78,234.85,274.79,247,274.79,265.17Zm-13.49,0c0-10.77-6.93-18.32-16.83-18.32-10.14,0-17.07,7.43-17.07,18.32s6.93,18.31,17.07,18.31C254.37,283.48,261.3,275.93,261.3,265.17Z" transform="translate(-15.97 -15.83)"/><path d="M281.84,255.27h38.23v12H281.84Z" transform="translate(-15.97 -15.83)"/><path d="M330.21,265.29V207.38h14.23v57c0,12.5,7.06,18.94,17.95,18.94s17.94-6.44,17.94-18.94v-57h14.23v57.91c0,20.17-12.75,30.81-32.17,30.81S330.21,285.46,330.21,265.29Z" transform="translate(-15.97 -15.83)"/><path d="M467.43,265.17c0,17.81-11.63,30.31-28.33,30.31-7.67,0-15-3.71-18.56-9.28V320H407.17V236.34h13.37v7.79c3.59-5.57,11.26-9.28,19.42-9.28C456.42,234.85,467.43,247,467.43,265.17Zm-13.48,0c0-10.77-6.93-18.32-16.83-18.32-10.15,0-17.08,7.43-17.08,18.32s6.93,18.31,17.08,18.31C447,283.48,454,275.93,454,265.17Z" transform="translate(-15.97 -15.83)"/></svg>