<svg id="bb90a584-b292-4e64-9a34-7c54b324a42e" data-name="Capa 1" xmlns="http://www.w3.org/2000/svg" width="25.35mm" height="81.75mm" viewBox="0 0 71.85 231.73"><path d="M323.93,367l10.27,8.36a21,21,0,0,1,7.73,16.24v114a6.76,6.76,0,0,1-6.76,6.76H276.84a6.76,6.76,0,0,1-6.76-6.76v-114a20.93,20.93,0,0,1,7.72-16.24L288.07,367Z" transform="translate(-270.07 -280.64)" fill="#f1e3f0"/><path d="M329.1,367H282.9a2.25,2.25,0,0,1-2.25-2.25V334a2.26,2.26,0,0,1,2.25-2.26h46.2a2.25,2.25,0,0,1,2.25,2.26v30.8A2.25,2.25,0,0,1,329.1,367Z" transform="translate(-270.07 -280.64)" fill="#d871ad"/><path d="M318.77,331.71v-38.3a12.77,12.77,0,1,0-25.54,0v38.31h25.54Z" transform="translate(-270.07 -280.64)" fill="#e686b7"/><path d="M270.07,485.89h71.86V405.11H270.07Z" transform="translate(-270.07 -280.64)" fill="#bedfe1"/></svg>