
<svg width="39px" height="24px" viewBox="0 0 39 24" version="1.1" xmlns="http://www.w3.org/2000/svg" xmlns:xlink="http://www.w3.org/1999/xlink">
    <g id="Symbols" stroke="none" stroke-width="1" fill="none" fill-rule="evenodd">
        <g id="Footer" transform="translate(-772.000000, -317.000000)">
            <g id="links" transform="translate(773.000000, 318.000000)">
                <g id="icon">
                    <g id="Group-19" transform="translate(0.000000, -0.000000)">
                        <path d="M17.9103778,5.82598344 C18.5141563,5.20745342 18.8876035,4.36325052 18.8876035,3.4305383 C18.8876035,1.53586957 17.3516304,-0.000103519669 15.4569617,-0.000103519669 C14.046765,-0.000103519669 12.8366201,0.851345756 12.3091874,2.06796066 C11.5426242,1.87800207 10.741382,1.7755176 9.91633023,1.7755176 C9.09723085,1.7755176 8.30194099,1.87670807 7.54081263,2.06407867 C7.01234472,0.849534161 5.80349379,-0.000103519669 4.3948499,-0.000103519669 C2.50018116,-0.000103519669 0.964208075,1.53586957 0.964208075,3.4305383 C0.964208075,4.35729814 1.33325569,5.19658385 1.93056418,5.81407867 C0.717831263,7.45926501 -7.76397516e-05,9.49135611 -7.76397516e-05,11.6916667 C-7.76397516e-05,17.1683747 4.43962215,21.6078157 9.91633023,21.6078157 C15.3927795,21.6078157 19.8324793,17.1683747 19.8324793,11.6916667 C19.8324793,9.49653209 19.1179348,7.46884058 17.9103778,5.82598344" id="Fill-1"></path>
                        <path d="M17.9103778,5.82598344 C18.5141563,5.20745342 18.8876035,4.36325052 18.8876035,3.4305383 C18.8876035,1.53586957 17.3516304,-0.000103519669 15.4569617,-0.000103519669 C14.046765,-0.000103519669 12.8366201,0.851345756 12.3091874,2.06796066 C11.5426242,1.87800207 10.741382,1.7755176 9.91633023,1.7755176 C9.09723085,1.7755176 8.30194099,1.87670807 7.54081263,2.06407867 C7.01234472,0.849534161 5.80349379,-0.000103519669 4.3948499,-0.000103519669 C2.50018116,-0.000103519669 0.964208075,1.53586957 0.964208075,3.4305383 C0.964208075,4.35729814 1.33325569,5.19658385 1.93056418,5.81407867 C0.717831263,7.45926501 -7.76397516e-05,9.49135611 -7.76397516e-05,11.6916667 C-7.76397516e-05,17.1683747 4.43962215,21.6078157 9.91633023,21.6078157 C15.3927795,21.6078157 19.8324793,17.1683747 19.8324793,11.6916667 C19.8324793,9.49653209 19.1179348,7.46884058 17.9103778,5.82598344 Z" id="Stroke-3" stroke="#262626" stroke-width="1.5" stroke-linecap="round" stroke-linejoin="round"></path>
                        <path d="M6.34161491,2.44213251 C5.98059006,1.73276398 5.24534161,1.24570393 4.39492754,1.24570393 C3.188147,1.24570393 2.20988613,2.223706 2.20988613,3.43048654 C2.20988613,3.9744824 2.40993789,4.47111801 2.73887164,4.85336439 C3.73887164,3.80419255 4.96557971,2.9744824 6.34161491,2.44213251" id="Fill-5" fill="#FFFFFF"></path>
                        <path d="M17.1035197,4.86381988 C17.4378882,4.4800207 17.6418219,3.97950311 17.6418219,3.43059006 C17.6418219,2.22380952 16.6635611,1.24580745 15.4570393,1.24580745 C14.6037785,1.24580745 13.8669772,1.73571429 13.5072464,2.448706 C14.8809524,2.9826087 16.1058489,3.81361284 17.1035197,4.86381988" id="Fill-7" fill="#FFFFFF"></path>
                        <path d="M6.61635611,13.5990683 C6.61635611,11.7766046 8.09358178,10.2991201 9.91630435,10.2991201 C11.7387681,10.2991201 13.2162526,11.7766046 13.2162526,13.5990683 C13.2162526,15.4215321 11.7387681,16.8990166 9.91630435,16.8990166 C8.09358178,16.8990166 6.61635611,15.4215321 6.61635611,13.5990683" id="Fill-9" fill="#FFFFFF"></path>
                        <path d="M11.2157091,13.577588 C11.2157091,14.1047619 10.6339286,14.5320393 9.91627847,14.5320393 C9.19862836,14.5320393 8.61684783,14.1047619 8.61684783,13.577588" id="Stroke-11" stroke="#262626" stroke-width="1.5" stroke-linecap="round" stroke-linejoin="round"></path>
                        <path d="M8.89133023,10.6645704 C8.89133023,10.0985766 9.35018116,9.63972567 9.91617495,9.63972567 C10.4821687,9.63972567 10.9412785,10.0985766 10.9412785,10.6645704 C10.9412785,11.230823 10.4821687,11.6896739 9.91617495,11.6896739 C9.35018116,11.6896739 8.89133023,11.230823 8.89133023,10.6645704" id="Fill-13" fill="#262626"></path>
                        <path d="M6.72300725,8.1632764 C6.72300725,7.42466356 7.08817288,6.82606108 7.53874224,6.82606108 C7.98931159,6.82606108 8.35447723,7.42466356 8.35447723,8.1632764 C8.35447723,8.90188923 7.98931159,9.50049172 7.53874224,9.50049172 C7.08817288,9.50049172 6.72300725,8.90188923 6.72300725,8.1632764" id="Fill-15" fill="#262626"></path>
                        <path d="M11.4781832,8.1632764 C11.4781832,7.42466356 11.8433489,6.82606108 12.2939182,6.82606108 C12.7444876,6.82606108 13.1096532,7.42466356 13.1096532,8.1632764 C13.1096532,8.90188923 12.7444876,9.50049172 12.2939182,9.50049172 C11.8433489,9.50049172 11.4781832,8.90188923 11.4781832,8.1632764" id="Fill-17" fill="#262626"></path>
                    </g>
                    <g id="bubble" transform="translate(23.000000, 2.000000)">
                        <path d="M6.5331,9.8 L11.9,9.8 C13.0592,9.8 14,8.8599 14,7.7 L14,2.1 C14,0.9408 13.0592,8.8817842e-16 11.9,8.8817842e-16 L2.1,8.8817842e-16 C0.9401,8.8817842e-16 0,0.9408 0,2.1 L0,7.7 C0,8.8599 0.9401,9.8 2.1,9.8 L2.6831,9.8 L2.6831,12.7169 L6.5331,9.8 Z" id="Fill-1" stroke="#262626" stroke-width="1.5" stroke-linecap="square"></path>
                        <path d="M4.5,4.75 C4.5,5.16434071 4.16434071,5.5 3.75,5.5 C3.33638114,5.5 3,5.16434071 3,4.75 C3,4.33565929 3.33638114,4 3.75,4 C4.16434071,4 4.5,4.33565929 4.5,4.75" id="Fill-3" fill="#262626"></path>
                        <path d="M7.5,4.75 C7.5,5.16434071 7.16434071,5.5 6.75,5.5 C6.33638114,5.5 6,5.16434071 6,4.75 C6,4.33565929 6.33638114,4 6.75,4 C7.16434071,4 7.5,4.33565929 7.5,4.75" id="Fill-3" fill="#262626"></path>
                        <path d="M10.5,4.75 C10.5,5.16434071 10.1643407,5.5 9.75,5.5 C9.33638114,5.5 9,5.16434071 9,4.75 C9,4.33565929 9.33638114,4 9.75,4 C10.1643407,4 10.5,4.33565929 10.5,4.75" id="Fill-3" fill="#262626"></path>
                    </g>
                </g>
            </g>
        </g>
    </g>
</svg>