<svg id="a2c00fc7-d6ee-41ef-9696-35a74c5e97d2" data-name="Capa 1" xmlns="http://www.w3.org/2000/svg" width="82.2mm" height="92.78mm" viewBox="0 0 233 263"><path d="M263.5,265a74,74,0,0,0-74,74v74h74a74,74,0,0,0,0-148Z" transform="translate(-189.5 -265)" fill="#f1e3f0"/><polygon points="142.34 31.66 158.5 40.5 142.34 49.34 133.5 65.5 124.66 49.34 108.5 40.5 124.66 31.66 133.5 15.5 142.34 31.66" fill="#e686b7"/><path d="M234.16,342.69a6.29,6.29,0,0,1,12.57,0,6.29,6.29,0,1,1-12.57,0Z" transform="translate(-189.5 -265)" fill="#010101"/><path d="M255.14,342.69a6.24,6.24,0,0,1,6.25-6.25,6.29,6.29,0,1,1-6.25,6.25Z" transform="translate(-189.5 -265)" fill="#010101"/><path d="M276.11,342.69a6.24,6.24,0,0,1,6.25-6.25,6.29,6.29,0,1,1-6.25,6.25Z" transform="translate(-189.5 -265)" fill="#010101"/><path d="M357,397a65.51,65.51,0,0,1,65.5,65.5V528H357a65.5,65.5,0,0,1,0-131Z" transform="translate(-189.5 -265)" fill="#bedfe1"/><polygon points="201.62 134.22 217.78 143.06 201.62 151.9 192.78 168.06 183.94 151.9 167.78 143.06 183.94 134.22 192.78 118.06 201.62 134.22" fill="#3c8552"/><path d="M330.31,463.83a6.24,6.24,0,0,1,6.25-6.25,6.29,6.29,0,1,1-6.25,6.25Z" transform="translate(-189.5 -265)" fill="#010101"/><path d="M351.28,463.83a6.29,6.29,0,0,1,12.57,0,6.29,6.29,0,1,1-12.57,0Z" transform="translate(-189.5 -265)" fill="#010101"/><path d="M372.26,463.83a6.24,6.24,0,0,1,6.24-6.25,6.29,6.29,0,1,1-6.24,6.25Z" transform="translate(-189.5 -265)" fill="#010101"/></svg>