<svg xmlns="http://www.w3.org/2000/svg" width="100" height="100" viewBox="0 0 78 62" stroke-linejoin="round"><path d="M10.9 0.8l67.1 43.6 -10.9 16.8 -67.1-43.6 10.9-16.8Z" fill="#ffd2d2"/><path d="M27.8 21.6c0.9-1.4 0.6-3.1-0.8-4l-2.5-1.7 -4.6 7 0.9 0.6 1.4-2.2 1.5 1 -0.1 3.1 1 0.7 0.1-3.2c1.1 0.3 2.3-0.2 3-1.3Zm-2.9-4.2l1.6 1c0.9 0.6 1 1.7 0.4 2.6 -0.6 0.9-1.7 1.2-2.5 0.6l-1.6-1 2.1-3.2Z"/><path d="M31.6 27c0.8-1.3 0.5-2.7-0.8-3.6 -1.4-0.9-2.9-0.6-3.9 0.9 -1 1.5-0.7 3 0.7 4 1.1 0.7 2.3 0.7 3-0.1l-0.9-0.6c-0.5 0.3-1.1 0.3-1.7-0.1 -0.9-0.6-1.1-1.5-0.5-2.4l3.6 2.4c0.2-0.2 0.2-0.3 0.4-0.5Zm-3.5-2.5c0.6-0.8 1.4-0.9 2.3-0.4 0.8 0.6 1 1.4 0.5 2.2l-2.7-1.8Z"/><path d="M32.5 31.5c1.1 0.7 2.2 0.6 2.7-0.3 0.4-0.6 0.3-1.3-0.2-1.9l-0.9-1.1c-0.3-0.3-0.3-0.7-0.1-0.9 0.3-0.4 0.8-0.4 1.2-0.1 0.6 0.4 0.8 0.9 0.5 1.4l0.9 0.6c0.5-0.8 0.3-1.8-0.9-2.6 -1-0.7-2.1-0.6-2.6 0.2 -0.4 0.6-0.4 1.3 0.2 1.9l1 1.1c0.3 0.3 0.2 0.6 0.1 0.9 -0.3 0.4-0.8 0.4-1.3 0.1 -0.7-0.4-0.9-1.1-0.6-1.5l-0.9-0.6c-0.5 0.8-0.3 2 0.9 2.8Z"/><path d="M41.3 33.4c0.8-1.3 0.5-2.7-0.8-3.6 -1.4-0.9-2.9-0.6-3.9 0.9 -1 1.5-0.7 3 0.7 4 1.1 0.7 2.3 0.7 3-0.1l-0.9-0.6c-0.5 0.3-1.1 0.3-1.7-0.1 -0.9-0.6-1.1-1.5-0.5-2.4l3.6 2.4c0.2-0.2 0.2-0.3 0.4-0.5Zm-3.5-2.5c0.6-0.8 1.4-0.9 2.3-0.4 0.8 0.6 1 1.4 0.5 2.2l-2.7-1.8Z"/><path d="M47.1 33.3c0.3 0.2 0.7 0.3 1.4 0l0-0.7c-0.4 0.1-0.7 0.1-1 0 -0.4-0.3-0.5-1.2-1-1.5 -0.3-0.2-0.7-0.3-1.4 0l0 0.7c0.5-0.2 0.8-0.1 1 0 0.5 0.3 0.5 1.2 1.1 1.5Zm-6.3 3.5l0.9 0.6 1.6-2.4c0.6-0.9 1.5-1.2 2.3-0.7 0.8 0.5 0.8 1.3 0.2 2.3l-1.6 2.5 0.9 0.6 1.9-2.8c0.8-1.2 0.7-2.3-0.5-3 -0.8-0.5-1.6-0.5-2.3-0.1l0.6-0.8 -0.9-0.6 -3 4.6Z"/><path d="M48.2 41.9c0.7 0.5 1.6 0.5 2.3 0.2l-0.5 0.8 0.9 0.6 3-4.6 -0.9-0.6 -0.5 0.8c0.1-0.8-0.3-1.5-1-2 -1.4-0.9-3-0.5-3.9 0.9 -0.9 1.4-0.8 3 0.7 3.9Zm0.6-0.7c-1-0.6-1.1-1.7-0.5-2.7 0.6-1 1.7-1.3 2.6-0.6 1 0.7 1.1 1.8 0.5 2.7 -0.6 0.9-1.6 1.3-2.6 0.6Z"/><path d="M53.8 45.6c1.1 0.7 2.2 0.6 2.7-0.3 0.4-0.6 0.3-1.3-0.2-1.9l-0.9-1.1c-0.3-0.3-0.3-0.7-0.1-0.9 0.3-0.4 0.8-0.4 1.2-0.1 0.6 0.4 0.8 0.9 0.5 1.4l0.9 0.6c0.5-0.8 0.3-1.8-0.9-2.6 -1-0.7-2.1-0.6-2.6 0.2 -0.4 0.6-0.4 1.3 0.2 1.9l1 1.1c0.3 0.3 0.2 0.6 0.1 0.9 -0.3 0.4-0.8 0.4-1.3 0.1 -0.7-0.4-0.9-1.1-0.6-1.5l-0.9-0.6c-0.5 0.8-0.3 2 0.9 2.8Z"/></svg>