<svg xmlns="http://www.w3.org/2000/svg" width="100" height="100" viewBox="0 0 78 62" stroke-linejoin="round"><path d="M10.9 0.8l67.1 43.6 -10.9 16.8 -67.1-43.6 10.9-16.8Z" fill="#f3e4f3"/><path d="M19.1 23c1.4 0.9 2.8 0.7 3.6-0.4 0.6-0.9 0.6-1.9-0.1-2.8l-0.8-1.1c-0.7-0.9-0.8-1.5-0.4-2.1 0.4-0.6 1.2-0.7 1.9-0.2 0.9 0.6 1.1 1.4 0.5 2.3l0.9 0.6c0.9-1.3 0.5-2.7-0.8-3.6 -1.3-0.9-2.7-0.7-3.4 0.4 -0.6 0.9-0.6 1.9 0.2 2.8l0.9 1.2c0.6 0.8 0.7 1.4 0.3 2 -0.5 0.7-1.3 0.8-2.2 0.2 -1-0.7-1.2-1.7-0.5-2.7l-0.9-0.6c-1 1.5-0.7 3 0.9 4.1Z"/><path d="M28.4 25.3c0.8-1.3 0.6-2.7-0.7-3.6 -1.4-0.9-2.9-0.6-3.9 0.9 -1 1.5-0.7 3 0.7 4 1.1 0.7 2.3 0.7 3 0l-0.9-0.6c-0.5 0.3-1.1 0.3-1.7-0.1 -0.9-0.6-1.1-1.5-0.5-2.4l3.6 2.4c0.2-0.2 0.2-0.3 0.4-0.5Zm-3.5-2.5c0.6-0.8 1.4-0.9 2.3-0.4 0.8 0.6 1 1.4 0.5 2.2l-2.7-1.8Z"/><path d="M27.8 28.6l0.9 0.6 4.7-7 -0.9-0.6 -4.7 7Z"/><path d="M36.5 25.3c0.2 0.1 0.3 0.2 0.4 0.4l0.5-0.7c-0.1-0.2-0.3-0.4-0.6-0.6 -0.5-0.3-1.6-0.8-2.6 0.7l-0.5 0.8 -1-0.7 -0.5 0.7 1 0.7 -2.6 3.9 0.9 0.6 2.6-3.9 1.3 0.9 0.5-0.7 -1.3-0.9 0.5-0.8c0.5-0.8 1-0.5 1.4-0.3Z"/><path d="M35 30.2l3 2 0.5-0.8 -3-2 -0.5 0.8Z"/><path d="M39.6 36.7c1.2 0.8 2.5 0.7 3.3-0.2l-0.9-0.6c-0.5 0.5-1.2 0.5-1.9 0 -0.9-0.6-1-1.6-0.3-2.6 0.7-1 1.6-1.3 2.5-0.7 0.7 0.5 0.9 1.1 0.7 1.8l0.9 0.6c0.6-1.1 0.2-2.3-1-3.1 -1.4-0.9-2.9-0.5-3.9 0.9 -1 1.4-0.7 3 0.7 3.9Z"/><path d="M44.9 40.2c0.7 0.5 1.6 0.5 2.3 0.2l-0.5 0.8 0.9 0.6 3.1-4.6 -0.9-0.6 -0.5 0.8c0.1-0.8-0.3-1.5-1-2 -1.4-1-3-0.5-3.9 0.9 -0.9 1.4-0.8 3 0.7 3.9Zm0.6-0.7c-0.9-0.6-1.1-1.7-0.4-2.7 0.6-0.9 1.7-1.3 2.6-0.6 1 0.7 1.1 1.8 0.5 2.7 -0.6 0.9-1.6 1.3-2.6 0.6Z"/><path d="M49 42.7l0.9 0.6 1.3-2c0.7-1 1.7-1.6 2.6-1 0.2 0.1 0.3 0.2 0.4 0.3l0.5-0.8c-0.1-0.1-0.2-0.2-0.4-0.3 -0.6-0.4-1.4-0.4-2.1 0.2l0.7-1 -0.9-0.6 -3.1 4.6Z"/><path d="M58.2 45.2c0.8-1.3 0.6-2.7-0.7-3.6 -1.4-0.9-2.9-0.6-3.9 0.9 -1 1.5-0.7 3 0.7 4 1.1 0.7 2.3 0.7 3 0l-0.9-0.6c-0.5 0.3-1.1 0.3-1.7-0.1 -0.9-0.6-1.1-1.5-0.5-2.4l3.6 2.4c0.2-0.2 0.2-0.3 0.4-0.5Zm-3.5-2.5c0.6-0.8 1.4-0.9 2.3-0.4 0.8 0.6 1 1.4 0.5 2.2l-2.7-1.8Z"/></svg>