<svg width="78" height="62" xmlns="http://www.w3.org/2000/svg">
  <g fill="none" fill-rule="evenodd">
    <path fill="#FFF685" d="M10.9.828l67.093 43.57L67.1 61.173.007 17.602z"/>
    <path d="M11.824 17.194l4.577-7.047.884.574-1.247 7.204 6.078-4.067.884.575-4.576 7.047-.924-.6 3.188-4.91-5.213 3.595-.702-.457 1.153-6.23-3.188 4.91-.914-.594zm9.458 3.48l1.752-2.698.874.568-1.57 2.417a3.2 3.2 0 0 0-.324.635 1.597 1.597 0 0 0-.107.594c.005.19.055.37.149.54.094.171.246.325.455.46.223.145.445.23.667.255.221.025.432 0 .632-.075s.388-.189.564-.342c.177-.153.333-.335.47-.545l1.521-2.344.875.568-2.968 4.57-.874-.568.53-.815a1.879 1.879 0 0 1-1.054.277c-.384-.01-.778-.146-1.181-.408a2.35 2.35 0 0 1-.683-.653 1.692 1.692 0 0 1-.287-.822c-.015-.257.022-.51.112-.76.09-.248.238-.533.447-.854zm4.26 6.274l.856.555c-.223.372-.31.731-.263 1.077.048.345.305.67.77.971.43.28.825.375 1.186.288.362-.086.716-.397 1.062-.93l.74-1.14c-.323.19-.674.282-1.052.276-.379-.006-.772-.141-1.182-.407-.314-.205-.552-.43-.712-.68a1.654 1.654 0 0 1-.27-.79c-.014-.256.025-.51.118-.761.094-.252.251-.548.472-.888L29 21.85l.875.568-1.558 2.398c-.14.217-.25.429-.332.637a1.647 1.647 0 0 0-.123.598c0 .19.046.37.14.542.095.17.251.327.47.47.23.148.456.235.677.26.221.025.433 0 .634-.073a1.73 1.73 0 0 0 .563-.344c.173-.156.327-.338.464-.548l1.522-2.344.875.568-3.179 4.894c-.262.403-.537.713-.826.928a2.21 2.21 0 0 1-.89.414 2 2 0 0 1-.937-.043 3.48 3.48 0 0 1-.96-.446c-.378-.244-.668-.504-.872-.778a2.054 2.054 0 0 1-.387-.846 2.144 2.144 0 0 1 .02-.88c.068-.299.19-.591.367-.877zm7.507 7.55l4.577-7.046.874.568-.51.786a2.03 2.03 0 0 1 1.05-.24c.39.01.782.144 1.178.402.328.213.592.473.791.783.2.309.332.642.395 1a2.967 2.967 0 0 1-.442 2.116c-.208.322-.464.59-.767.805a2.833 2.833 0 0 1-.974.45 2.803 2.803 0 0 1-1.07.05 2.58 2.58 0 0 1-1.05-.403c-.397-.258-.679-.563-.845-.916a2.051 2.051 0 0 1-.207-1.06l-2.125 3.274-.875-.568zm3.967-4.193a2.07 2.07 0 0 0-.294.696c-.052.24-.06.48-.022.716s.124.457.258.663c.134.206.317.385.55.536.236.153.476.247.72.283.245.035.483.022.715-.04.23-.062.444-.166.64-.314.196-.147.364-.33.505-.546.14-.216.239-.445.296-.687.057-.243.067-.481.028-.716a1.764 1.764 0 0 0-.804-1.214 1.745 1.745 0 0 0-.72-.279 1.814 1.814 0 0 0-1.354.347c-.203.15-.375.335-.518.555zm3.834 5.738l2.968-4.57.875.568-.581.895c.308-.21.66-.312 1.058-.306.396.006.762.118 1.096.335.167.108.293.223.378.343l-.524.806a3.33 3.33 0 0 0-.2-.186 1.807 1.807 0 0 0-.17-.125c-.531-.344-1.03-.433-1.494-.267-.464.166-.874.523-1.23 1.07l-1.301 2.005-.875-.568zm4.718-.184a2.967 2.967 0 0 1 1.754-1.265c.353-.088.72-.098 1.1-.03.38.067.75.218 1.11.452.363.236.652.513.865.83.213.318.352.657.419 1.017.067.36.063.723-.012 1.09-.075.365-.216.709-.425 1.03-.208.32-.464.589-.767.805a2.85 2.85 0 0 1-.982.452 2.668 2.668 0 0 1-1.099.03 2.975 2.975 0 0 1-1.117-.453c-.37-.24-.66-.52-.87-.838a2.69 2.69 0 0 1-.413-1.011 2.85 2.85 0 0 1 .014-1.081c.074-.365.215-.707.423-1.028zm.865.561a2.07 2.07 0 0 0-.295.696 1.808 1.808 0 0 0 .237 1.373c.13.208.314.389.55.542.235.153.476.247.72.283a1.799 1.799 0 0 0 1.353-.34c.2-.146.372-.33.516-.553a2.07 2.07 0 0 0 .295-.696c.052-.241.058-.479.02-.714a1.764 1.764 0 0 0-.804-1.214 1.745 1.745 0 0 0-1.432-.238c-.23.06-.445.164-.646.311-.2.147-.371.33-.514.55zm3.824 5.732l2.968-4.57.875.568-.524.806a1.871 1.871 0 0 1 1.047-.277c.38.009.772.145 1.175.406.295.192.524.411.686.66.163.247.256.522.278.826.015.256-.02.51-.106.759a4 4 0 0 1-.44.856l-1.752 2.698-.875-.568 1.576-2.428c.134-.206.24-.415.32-.627.08-.212.117-.412.112-.602a1.154 1.154 0 0 0-.154-.543 1.365 1.365 0 0 0-.46-.463 1.434 1.434 0 0 0-.667-.244 1.446 1.446 0 0 0-.632.085c-.2.075-.387.189-.563.34a2.495 2.495 0 0 0-.46.532l-1.53 2.354-.874-.568zm7.758-.411l.478-.737.846.548.999-1.538.874.568-.999 1.538 1.19.773-.48.737-1.188-.772-1.366 2.103a2.34 2.34 0 0 0-.287.565.857.857 0 0 0-.037.402c.021.114.07.21.148.288.077.078.173.154.288.229.095.062.203.127.323.196s.22.12.297.15l-.504.777a7.749 7.749 0 0 1-.375-.187 5.89 5.89 0 0 1-.46-.27 3.518 3.518 0 0 1-.433-.339 1.27 1.27 0 0 1-.337-.498c-.076-.198-.093-.436-.05-.713.043-.278.185-.603.428-.977l1.49-2.294-.845-.55zm2.794 4.015a2.967 2.967 0 0 1 1.754-1.265c.352-.087.719-.097 1.099-.03.38.068.75.218 1.11.452.364.237.652.513.865.831.213.318.353.656.42 1.016.066.36.062.723-.013 1.09-.074.365-.216.709-.424 1.03-.209.321-.465.59-.767.805a2.85 2.85 0 0 1-.982.452 2.668 2.668 0 0 1-1.1.03 2.975 2.975 0 0 1-1.117-.453c-.37-.24-.66-.52-.87-.837a2.69 2.69 0 0 1-.412-1.012 2.85 2.85 0 0 1 .014-1.081c.073-.364.214-.707.423-1.028zm.865.561a2.07 2.07 0 0 0-.295.696 1.808 1.808 0 0 0 .237 1.373c.13.208.313.389.549.542.236.153.476.248.721.283a1.799 1.799 0 0 0 1.353-.34c.2-.146.371-.33.516-.553a2.07 2.07 0 0 0 .295-.695c.051-.242.058-.48.02-.714a1.764 1.764 0 0 0-.804-1.214 1.745 1.745 0 0 0-1.433-.238c-.23.06-.445.164-.645.31-.2.148-.372.331-.514.55z" fill="#0A0A0A"/>
  </g>
</svg>