<svg width="25" height="75" xmlns="http://www.w3.org/2000/svg">
  <g stroke="#231F20" stroke-linecap="round" stroke-linejoin="round" fill="none" fill-rule="evenodd">
    <path d="M17.863 27.947l3.242 2.64a6.617 6.617 0 0 1 2.44 5.131v35.999a2.135 2.135 0 0 1-2.136 2.135h-9.227.033-9.227a2.136 2.136 0 0 1-2.135-2.135V35.718c0-1.99.895-3.875 2.439-5.132l3.242-2.64h11.329z"/>
    <path d="M19.494 27.947H4.903a.712.712 0 0 1-.712-.712v-9.727c0-.394.319-.712.712-.712h14.591c.394 0 .712.318.712.712v9.727a.712.712 0 0 1-.712.712z"/>
    <path d="M16.232 16.796V4.697a4.033 4.033 0 0 0-8.067 0v12.1h8.067zM9.974 39.98h4.449V27.946H9.974z"/>
    <path d="M.852 65.49h22.693V39.977H.852z"/>
  </g>
</svg>