<svg width="37" height="26" viewBox="0 0 37 26" fill="none" xmlns="http://www.w3.org/2000/svg">
<path d="M12.012 25.386C11.77 23.956 11.132 22.416 10.098 20.766C9.06399 19.094 7.58999 17.543 5.67599 16.113C3.784 14.683 1.892 13.77 0 13.374V11.988C1.87 11.548 3.663 10.734 5.379 9.54599C7.117 8.33599 8.56898 6.88399 9.73499 5.18999C10.923 3.45199 11.682 1.73599 12.012 0.0419922H13.398C13.596 1.14199 13.992 2.27499 14.586 3.44099C15.18 4.58499 15.939 5.68499 16.863 6.74099C17.809 7.77499 18.865 8.70999 20.031 9.54599C21.769 10.778 23.54 11.592 25.344 11.988V13.374C24.134 13.616 22.88 14.111 21.582 14.859C20.306 15.607 19.118 16.498 18.018 17.532C16.918 18.544 16.016 19.611 15.312 20.733C14.278 22.383 13.64 23.934 13.398 25.386H12.012Z" fill="#090909"/>
<path d="M36.8319 4.36499L36.0399 2.02199L32.8389 3.60599L33.3339 0.0749917H30.8589L31.3539 3.60599L28.1529 2.02199L27.3609 4.36499L30.8589 5.05799L28.3839 7.63199L30.3639 9.11699L32.1129 5.91599L33.8289 9.11699L35.8089 7.63199L33.3339 5.05799L36.8319 4.36499Z" fill="#090909"/>
</svg>
