<svg xmlns="http://www.w3.org/2000/svg" viewBox="0 0 1379.7 353.01"><g fill="#090909"><path d="M0 268.07h46.92c0 31.12 14.83 45.44 47.9 45.44 25.7 0 42.98-10.37 42.98-30.14 0-16.78-10.38-26.66-34.08-31.61l-33.57-6.92c-44.46-9.37-66.68-31.12-66.68-70.13 0-47.41 39.01-72.6 91.85-72.6 59.27 0 92.86 32.09 92.86 84.94h-46.92c0-31.1-14.83-45.42-47.91-45.42-25.68 0-42.98 10.37-42.98 30.12 0 16.8 10.37 26.67 34.08 31.61l33.59 6.92c44.45 9.39 66.69 31.12 66.69 70.13 0 47.42-39.03 72.6-91.87 72.6C33.57 353 0 320.91 0 268.07M388.16 346.1v-49.39C375.8 333.75 348.14 353 310.1 353c-55.81 0-84.95-34.57-84.95-99.76V109.03h48.42v139.28c0 40.49 20.73 61.24 53.33 61.24 37.04 0 56.31-27.67 56.31-72.11V109.03h46.92V346.1h-41.97zM526.87 109.03v49.39c12.84-37.04 41.5-56.29 80.51-56.29 57.3 0 87.41 34.57 87.41 99.76V346.1h-48.4V206.82c0-40.49-21.73-61.24-55.81-61.24-38.52 0-58.77 27.67-58.77 72.11V346.1H484.9V109.03h41.97zM731.76 227.56c0-77.04 42.49-125.44 108.68-125.44 35.56 0 69.13 17.28 79.01 45.93V.37h46.9v345.74h-46.9v-39.03c-9.88 28.64-43.45 45.93-79.01 45.93-66.19 0-108.68-48.4-108.68-125.45m188.69 0c0-51.87-26.67-83.47-70.14-83.47-43.45 0-70.11 31.61-70.11 83.47s26.66 83.47 70.11 83.47c43.46.01 70.14-31.6 70.14-83.47M1214.74 240.9c3.45 42.48 27.18 70.13 64.71 70.13 25.68 0 44.93-12.84 52.84-36.54h46.9c-7.88 45.42-48.38 78.51-101.23 78.51-36.54 0-79.52-18.75-91.38-59.74-16.8 40-49.9 59.74-91.38 59.74-48.89 0-85.93-26.66-85.93-72.1 0-48.4 34.1-78.04 108.65-78.04h46.94v-12.34c0-31.62-17.77-48.9-53.35-48.9-31.1 0-50.87 15.8-50.87 41.97h-48.38c0-51.85 40.49-81.49 99.76-81.49 41 0 73.11 13.83 83.96 48.4 14.83-35.07 48.9-48.4 79.01-48.4 66.68 0 104.71 43.96 104.71 119.03v19.76h-164.96zm-49.88 15.32v-14.81h-41c-54.34 0-66.17 17.77-66.17 40 0 21.22 16.8 31.59 45.93 31.59 35.05 0 61.24-22.7 61.24-56.78m108.18-113.11c-33.59 0-56.8 22.72-56.8 59.27h113.58c0-36.55-23.21-59.27-56.78-59.27M1048.94 0c-21.82 0-39.5 17.68-39.5 39.5s17.68 39.5 39.5 39.5 39.5-17.68 39.5-39.5S1070.75 0 1048.94 0zm-2.38 43.21c.76 1.29 1.23 3 1.23 5 0 2.06-.47 3.88-1.35 5.41-2 3.53-6.05 5.64-11.58 5.64h-14.16V18.12h14.16c5.52 0 9.58 2.12 11.58 5.64.88 1.53 1.35 3.35 1.35 5.41 0 2-.47 3.7-1.23 5-1.35 2.35-3.76 3.64-6.82 4.05v.94c3.06.4 5.47 1.7 6.82 4.05zm24.09 18.04c-2.41 6.99-5.23 9.28-9.99 9.28-5.29 0-8.7-2.76-8.7-7.93v-.59h5.58v.59c0 2 1.23 3.06 3.12 3.06 1.88 0 3.29-1 4.11-3.64l1.76-5.41h-5.05l-9.05-25.56h6.4l7.52 23.33h.88l7.52-23.33h6.41l-10.51 30.2z"/><path d="M1040.98 33.22c.53-.88.82-2 .82-3.35s-.24-2.47-.76-3.35c-1.17-1.94-3.47-2.82-6.76-2.82h-7.7v12.34h7.7c3.23 0 5.59-.88 6.7-2.82zM1026.58 41.33v12.34h7.7c3.29 0 5.58-.88 6.76-2.82.53-.88.76-2 .76-3.35s-.29-2.47-.82-3.35c-1.17-1.94-3.47-2.82-6.7-2.82h-7.7zM1127.94 51.14l-.53 4.35h-.88l-.53-4.35-11.1-33.02h-9.58v41.13h5.76V23.52h.88l.65 5.35 10.34 30.38h8.05l10.34-30.38.65-5.35h.88v35.73h5.76V18.12h-9.58zM1170.77 30.22c-5.17 0-9.4 2.17-11.93 5.93-1.64 2.41-2.58 5.46-2.58 8.99 0 3.53.94 6.58 2.58 8.99 2.53 3.76 6.76 5.93 11.93 5.93s9.4-2.17 11.93-5.93c1.65-2.41 2.59-5.46 2.59-8.99 0-3.53-.94-6.58-2.59-8.99-2.52-3.75-6.76-5.93-11.93-5.93zm7 21.27c-1.53 2.23-4 3.58-6.99 3.58-3 0-5.46-1.35-6.99-3.58-1.12-1.65-1.76-3.82-1.76-6.35s.65-4.7 1.76-6.35c1.53-2.23 4-3.58 6.99-3.58 3 0 5.46 1.35 6.99 3.58 1.12 1.65 1.76 3.82 1.76 6.35s-.65 4.71-1.76 6.35zM1224.01 30.22c-4.23 0-7.64 2.23-9.11 8.46h-.88c0-5.58-3.58-8.46-7.82-8.46-4.7 0-7.4 3.06-8.87 8.46h-.88l1.47-7.64h-5.58v28.21h5.58V44.32c0-5.46 2.29-8.93 6.64-8.93 3.17 0 5.46 2.47 5.46 7.11v16.75h5.58V44.32c0-5.46 2.41-8.93 6.76-8.93 3.53 0 5.35 2.47 5.35 7.11v16.75h5.76V41.39c0-7.35-3.29-11.17-9.46-11.17zM1242.27 31.04h5.58v28.21h-5.58zM1241.75 18.12h6.7v6.93h-6.7zM1257.73 18.12h6.7v6.93h-6.7z"/><path d="M1258.26 61.31c0 2.82-1.12 4.35-3.17 4.35-2 0-2.94-1.06-3.11-3h-5.58c.29 5 3.11 7.87 8.58 7.87 5.93 0 8.87-3.47 8.87-10.4V31.04h-5.58v30.27zM1272.71 18.12h6.7v6.93h-6.7zM1273.24 31.04h5.58v28.21h-5.58z"/></g></svg>