<svg width="15" height="13" viewBox="0 0 15 13" fill="none" xmlns="http://www.w3.org/2000/svg">
<path d="M12.57 6.94775C12.96 6.21605 13.23 5.17076 12.86 3.77006C12.09 0.832792 9.55 1.00004 9.55 1.00004C9.52 2.59934 8.38 2.79794 7.85 2.81885H5.32C5.13 2.8084 4.91 2.8084 4.67 2.81885H4.47C3.11 2.81885 2.02 3.96867 2.02 5.37982C2.02 5.96518 2.22 6.49828 2.53 6.9373C1.1 7.14636 0 8.41117 0 9.94775C0 11.6307 1.31 13 2.92 13H12.08C13.69 13 15 11.6307 15 9.94775C15 8.44252 13.95 7.19863 12.57 6.94775Z" fill="#090909"/>
</svg>
