<svg width="45" height="35" viewBox="0 0 45 35" fill="none" xmlns="http://www.w3.org/2000/svg">
<path d="M17.05 33.1C25.9142 33.1 33.1 25.9142 33.1 17.05C33.1 8.18583 25.9142 1 17.05 1C8.18583 1 1 8.18583 1 17.05C1 25.9142 8.18583 33.1 17.05 33.1Z" stroke="#090909" stroke-width="2" stroke-miterlimit="10"/>
<path d="M10.29 21.0601C11.37 23.7301 13.99 25.6201 17.05 25.6201C20.11 25.6201 22.73 23.7301 23.81 21.0601" stroke="#090909" stroke-width="2" stroke-miterlimit="10"/>
<path d="M33.1001 6.88C36.3501 6.88 38.9801 4.25 38.9801 1C38.9801 4.25 41.6101 6.88 44.8601 6.88" stroke="#090909" stroke-width="2" stroke-miterlimit="10"/>
<path d="M33.1001 6.87988C36.3501 6.87988 38.9801 9.50988 38.9801 12.7599C38.9801 9.50988 41.6101 6.87988 44.8601 6.87988" stroke="#090909" stroke-width="2" stroke-miterlimit="10"/>
</svg>
