<svg width="16" height="15" viewBox="0 0 16 15" fill="none" xmlns="http://www.w3.org/2000/svg">
<path d="M12.9081 15H2.37718C1.06973 15 0 13.9302 0 12.6228C0 12.2187 0.332805 11.8859 0.736925 11.8859H14.5483C14.9525 11.8859 15.2853 12.2187 15.2853 12.6228C15.2853 13.9302 14.2155 15 12.9081 15Z" fill="#090909"/>
<path fill-rule="evenodd" clip-rule="evenodd" d="M14.1797 6.53724C14.1797 10.1477 11.2529 13.0745 7.64247 13.0745C4.03205 13.0745 1.10522 10.1477 1.10522 6.53724C1.10522 2.92682 4.03205 0 7.64247 0C11.2529 0 14.1797 2.92682 14.1797 6.53724ZM11.5413 6.53717C11.5413 8.6903 9.79583 10.4357 7.6427 10.4357C5.48958 10.4357 3.74413 8.6903 3.74413 6.53717C3.74413 4.38405 5.48958 2.6386 7.6427 2.6386C9.79583 2.6386 11.5413 4.38405 11.5413 6.53717Z" fill="#090909"/>
</svg>
