<svg width="13" height="12" viewBox="0 0 13 12" fill="none" xmlns="http://www.w3.org/2000/svg">
<path d="M2.54583 11.451C3.95186 11.451 5.09167 10.3112 5.09167 8.90521C5.09167 7.49918 3.95186 6.35938 2.54583 6.35938C1.13981 6.35938 0 7.49918 0 8.90521C0 10.3112 1.13981 11.451 2.54583 11.451Z" fill="#090909"/>
<path d="M10.4543 11.451C11.8603 11.451 13.0001 10.3112 13.0001 8.90521C13.0001 7.49918 11.8603 6.35938 10.4543 6.35938C9.04825 6.35938 7.90845 7.49918 7.90845 8.90521C7.90845 10.3112 9.04825 11.451 10.4543 11.451Z" fill="#090909"/>
<path d="M6.49993 5.09167C7.90596 5.09167 9.04577 3.95186 9.04577 2.54583C9.04577 1.13981 7.90596 0 6.49993 0C5.09391 0 3.9541 1.13981 3.9541 2.54583C3.9541 3.95186 5.09391 5.09167 6.49993 5.09167Z" fill="#090909"/>
</svg>
