<svg width="44" height="44" viewBox="0 0 44 44" fill="none" xmlns="http://www.w3.org/2000/svg">
<path fill-rule="evenodd" clip-rule="evenodd" d="M17.81 30.5101C17.81 31.5001 17.01 32.2901 16.03 32.2901C15.04 32.2901 14.25 31.4901 14.25 30.5101C14.25 29.5301 15.05 28.7301 16.03 28.7301C17.01 28.7201 17.81 29.5201 17.81 30.5101Z" fill="#090909"/>
<path fill-rule="evenodd" clip-rule="evenodd" d="M29.3803 30.5101C29.3803 31.5001 28.5803 32.2901 27.6003 32.2901C26.6203 32.2901 25.8203 31.4901 25.8203 30.5101C25.8203 29.5301 26.6203 28.7301 27.6003 28.7301C28.5803 28.7201 29.3803 29.5201 29.3803 30.5101Z" fill="#090909"/>
<path d="M21.8905 41.58C21.8605 41.58 21.8305 41.58 21.8005 41.58C15.0305 41.53 9.53047 36.34 9.53047 29.96C9.53047 27.02 10.7205 24.2 12.8305 22.06C11.2705 20.1 8.08047 15.08 9.25047 7.8C9.73047 4.84 11.6405 3 14.2205 3C16.2405 3 17.9105 4.26 18.8105 6.46C19.6605 8.53 19.7605 12.76 19.7705 18.52C20.4405 18.41 21.1205 18.35 21.8105 18.35C21.8405 18.35 21.8705 18.35 21.9005 18.35C22.5905 18.35 23.2705 18.41 23.9405 18.52C23.9505 12.76 24.0605 8.53 24.9005 6.46C25.7905 4.26 27.4605 3 29.4805 3C32.0705 3 33.9705 4.84 34.4505 7.8C35.6205 15.08 32.4405 20.1 30.8705 22.06C32.9805 24.2 34.1705 27.02 34.1705 29.96C34.1705 36.34 28.6705 41.53 21.8905 41.58ZM14.2205 5.3C12.2805 5.3 11.7005 7.1 11.5205 8.17C10.2105 16.28 15.0305 21.12 15.2405 21.33L16.2305 22.3L15.1005 23.09C13.0505 24.8 11.8305 27.33 11.8305 29.97C11.8305 35.09 16.3205 39.27 21.8505 39.29C27.3805 39.27 31.8705 35.1 31.8705 29.97C31.8705 27.36 30.6705 24.85 28.5805 23.09L27.4205 22.35L28.4605 21.33C28.6605 21.13 33.4805 16.28 32.1705 8.17C32.0005 7.1 31.4205 5.3 29.4805 5.3C28.1305 5.3 27.4005 6.4 27.0205 7.33C26.2305 9.26 26.2305 14.91 26.2305 19.45L26.2405 21.48L24.7705 21.06C23.8305 20.79 22.8505 20.65 21.8505 20.65C20.8605 20.65 19.8805 20.79 18.9305 21.06L17.4605 21.48L17.4705 19.45C17.4705 14.91 17.4705 9.26 16.6805 7.33C16.3005 6.4 15.5705 5.3 14.2205 5.3Z" fill="#090909"/>
<path d="M22.9602 30.8604H20.6602V35.2603H22.9602V30.8604Z" fill="#090909"/>
<path d="M18.9395 36.1899L18.2695 33.9899L21.8095 32.8999L25.3495 33.9899L24.6695 36.1899L21.8095 35.3099L18.9395 36.1899Z" fill="#090909"/>
</svg>
