<svg width="28" height="36" viewBox="0 0 28 36" fill="none" xmlns="http://www.w3.org/2000/svg">
<path d="M13.8 22.68C19.7867 22.68 24.64 17.8268 24.64 11.84C24.64 5.85323 19.7867 1 13.8 1C7.81319 1 2.95996 5.85323 2.95996 11.84C2.95996 17.8268 7.81319 22.68 13.8 22.68Z" stroke="#090909" stroke-width="2" stroke-miterlimit="10"/>
<path d="M13.8002 18.21C17.3182 18.21 20.1702 15.358 20.1702 11.84C20.1702 8.32192 17.3182 5.46997 13.8002 5.46997C10.2821 5.46997 7.43018 8.32192 7.43018 11.84C7.43018 15.358 10.2821 18.21 13.8002 18.21Z" stroke="#090909" stroke-width="2" stroke-miterlimit="10"/>
<path d="M13.8 30.49C20.8692 30.49 26.6 28.7395 26.6 26.58C26.6 24.4206 20.8692 22.67 13.8 22.67C6.73076 22.67 1 24.4206 1 26.58C1 28.7395 6.73076 30.49 13.8 30.49Z" stroke="#090909" stroke-width="2" stroke-miterlimit="10"/>
<path d="M26.59 26.58V30.76C26.59 32.92 20.86 34.67 13.79 34.67C6.72 34.67 1 32.93 1 30.76V26.58" stroke="#090909" stroke-width="2" stroke-miterlimit="10"/>
</svg>
