<svg width="18" height="12" viewBox="0 0 18 12" fill="none" xmlns="http://www.w3.org/2000/svg">
<path fill-rule="evenodd" clip-rule="evenodd" d="M13.87 1.94001C12.91 1.11001 10.53 1.21593e-05 8.92 2.74001C7.31 1.21593e-05 4.93 1.11001 3.98 1.94001C2.78 2.97001 0 5.75001 0 5.75001C0 5.75001 0.98 6.91001 2.36 8.38001C3.74 9.85001 5.53 11.62 8.92 11.62C12.31 11.62 14.09 9.85001 15.48 8.38001C16.86 6.91001 17.84 5.75001 17.84 5.75001C17.84 5.75001 15.06 2.97001 13.87 1.94001ZM5.99 5.88001C5.99 5.88001 8.84 4.24001 11.85 5.88001C8.84 7.53001 5.99 5.88001 5.99 5.88001Z" fill="#090909"/>
</svg>
