<svg viewBox="0 0 1010 260" fill="none" xmlns="http://www.w3.org/2000/svg">
<path d="M0 196.781H34.314C34.314 219.63 45.1563 230.157 69.3429 230.157C88.168 230.157 100.797 222.501 100.797 208.026C100.797 195.705 93.1721 188.408 75.896 184.819L51.3519 179.675C18.8251 172.737 2.50206 156.827 2.50206 128.117C2.50206 93.3067 31.0971 74.765 69.7004 74.765C113.069 74.765 137.733 98.3309 137.733 137.209H103.419C103.419 114.361 92.5764 103.834 68.3898 103.834C49.5647 103.834 36.9352 111.49 36.9352 125.964C36.9352 138.285 44.5606 145.582 61.8367 149.171L86.3808 154.195C118.908 161.134 135.231 177.044 135.231 205.753C135.231 240.564 106.636 259.106 68.0323 259.106C24.5441 259.225 0 235.659 0 196.781Z" fill="#090909"/>
<path d="M284.163 217.835C275.108 245.11 254.853 259.225 226.973 259.225C186.106 259.225 164.779 233.865 164.779 185.896V79.9088H200.165V182.307C200.165 212.093 215.297 227.286 239.245 227.286C266.41 227.286 280.47 206.95 280.47 174.292V79.9088H314.784V254.201H284.163V217.835Z" fill="#090909"/>
<path d="M385.675 79.9088V116.275C395.088 89.0003 416.058 74.8846 444.653 74.8846C486.592 74.8846 508.634 100.245 508.634 148.214V254.201H473.248V151.803C473.248 122.016 457.401 106.824 432.381 106.824C404.143 106.824 389.369 127.16 389.369 159.818V254.201H355.055V79.9088H385.675Z" fill="#090909"/>
<path d="M535.68 166.995C535.68 110.413 566.777 74.765 615.27 74.765C641.243 74.765 665.907 87.4451 673.055 108.499V0H707.369V254.081H673.174V225.372C665.907 246.425 641.363 259.106 615.389 259.106C566.777 259.225 535.68 223.577 535.68 166.995ZM673.889 166.995C673.889 128.835 654.349 105.628 622.537 105.628C590.726 105.628 571.186 128.835 571.186 166.995C571.186 205.155 590.726 228.362 622.537 228.362C654.349 228.362 673.889 205.155 673.889 166.995Z" fill="#090909"/>
<path d="M889.305 176.804C891.807 208.026 909.203 228.362 936.725 228.362C955.55 228.362 969.61 218.912 975.448 201.447H1009.76C1004.04 234.822 974.375 259.106 935.653 259.106C908.964 259.106 877.391 245.349 868.812 215.204C856.54 244.631 832.234 259.106 801.971 259.106C766.227 259.106 739.062 239.487 739.062 206.112C739.062 170.584 763.964 148.812 818.652 148.812H852.966V139.721C852.966 116.514 839.979 103.714 813.886 103.714C791.129 103.714 776.593 115.318 776.593 134.577H741.088C741.088 96.4169 770.755 74.6454 814.124 74.6454C844.149 74.6454 867.621 84.8134 875.603 110.174C886.446 84.3349 911.347 74.6454 933.389 74.6454C982.239 74.6454 1010 106.944 1010 162.091V176.565H889.305V176.804ZM852.847 188.049V177.163H822.822C783.027 177.163 774.329 190.202 774.329 206.591C774.329 222.142 786.601 229.798 807.929 229.798C833.664 229.798 852.847 213.05 852.847 188.049ZM931.959 104.91C907.415 104.91 890.378 121.658 890.378 148.453H973.541C973.541 121.658 956.623 104.91 931.959 104.91Z" fill="#090909"/>
</svg>
