<svg width="44" height="44" viewBox="0 0 44 44" fill="none" xmlns="http://www.w3.org/2000/svg">
<path d="M34.6104 37.2901H10.1504C9.60039 37.2901 9.15039 36.8401 9.15039 36.2901V16.0601C9.15039 15.5101 9.60039 15.0601 10.1504 15.0601H34.6104C35.1604 15.0601 35.6104 15.5101 35.6104 16.0601V36.2901C35.6104 36.8401 35.1704 37.2901 34.6104 37.2901Z" stroke="black" stroke-width="2.3" stroke-miterlimit="10"/>
<path d="M25.9096 9.70996H18.8496V15.05H25.9096V9.70996Z" stroke="black" stroke-width="2.3" stroke-miterlimit="10"/>
<path d="M29.3399 9.7099H15.4199C14.8699 9.7099 14.4199 9.2599 14.4199 8.7099V4.1499C14.4199 3.5999 14.8699 3.1499 15.4199 3.1499H29.3499C29.8999 3.1499 30.3499 3.5999 30.3499 4.1499V8.7099C30.3399 9.2599 29.8999 9.7099 29.3399 9.7099Z" stroke="black" stroke-width="2.3" stroke-miterlimit="10"/>
<path d="M13.9902 22.0801H16.0902L18.6002 26.3301C18.7302 26.5701 19.1802 27.4101 19.1802 27.4101H19.2002C19.2002 27.4101 19.1802 26.3901 19.1802 26.1001V22.0901H21.2302V30.5501H19.1302L16.6502 26.3601C16.5102 26.1301 16.0502 25.2201 16.0502 25.2201H16.0202C16.0202 25.2201 16.0402 26.3101 16.0402 26.6001V30.5401H13.9902V22.0801Z" fill="black"/>
<path d="M22.7502 26.3299C22.7502 23.7999 24.3702 21.9199 26.9202 21.9199C29.4902 21.9199 31.1102 23.7999 31.1102 26.3299C31.1102 28.8599 29.4902 30.7399 26.9202 30.7399C24.3702 30.7399 22.7502 28.8599 22.7502 26.3299ZM28.9902 26.3299C28.9902 24.7899 28.3202 23.6099 26.9402 23.6099C25.5802 23.6099 24.8802 24.7899 24.8802 26.3299C24.8802 27.8699 25.5802 29.0399 26.9402 29.0399C28.3102 29.0399 28.9902 27.8699 28.9902 26.3299Z" fill="black"/>
</svg>
