<svg width="23" height="9" viewBox="0 0 23 9" fill="none" xmlns="http://www.w3.org/2000/svg">
<path d="M22.1107 1.24004C20.8907 0.700042 16.0907 0.920042 13.4707 3.33004C13.2507 3.53004 13.0707 3.76004 12.9407 4.00004C12.5807 3.89004 12.2207 3.82004 11.8307 3.82004C11.4407 3.82004 11.0707 3.89004 10.7207 4.00004C10.5807 3.76004 10.4007 3.53004 10.1807 3.33004C7.57069 0.920042 2.77069 0.700042 1.54069 1.24004C-0.179312 2.01004 2.41069 7.17004 6.20069 8.60004C7.82069 9.21004 9.47069 8.68004 10.5207 6.86004C10.8007 6.37004 10.9507 5.91004 11.0007 5.48004C11.2607 5.38004 11.5407 5.32004 11.8407 5.32004C12.1407 5.32004 12.4107 5.38004 12.6807 5.48004C12.7307 5.91004 12.8807 6.37004 13.1607 6.86004C14.2107 8.68004 15.8607 9.21004 17.4807 8.60004C21.2407 7.17004 23.8407 2.01004 22.1107 1.24004Z" fill="#090909"/>
</svg>
