<svg width="44" height="44" viewBox="0 0 44 44" fill="none" xmlns="http://www.w3.org/2000/svg">
<path d="M21.97 2.86035C21.97 2.86035 25.38 7.21035 28.41 11.6604C31.11 15.6204 34.93 20.9604 34.93 26.6004C34.93 33.7604 29.13 39.5704 21.96 39.5704C14.79 39.5704 9 33.7604 9 26.6004C9 20.9604 12.82 15.6304 15.52 11.6604C18.55 7.22035 21.97 2.86035 21.97 2.86035Z" stroke="#090909" stroke-width="2.3" stroke-miterlimit="10"/>
<path d="M17.4494 24.2203C18.3275 24.2203 19.0394 23.3518 19.0394 22.2803C19.0394 21.2089 18.3275 20.3403 17.4494 20.3403C16.5712 20.3403 15.8594 21.2089 15.8594 22.2803C15.8594 23.3518 16.5712 24.2203 17.4494 24.2203Z" stroke="#090909" stroke-width="2.3" stroke-miterlimit="10"/>
<path d="M26.4796 29.9806C27.3578 29.9806 28.0696 29.112 28.0696 28.0406C28.0696 26.9692 27.3578 26.1006 26.4796 26.1006C25.6015 26.1006 24.8896 26.9692 24.8896 28.0406C24.8896 29.112 25.6015 29.9806 26.4796 29.9806Z" stroke="#090909" stroke-width="2.3" stroke-miterlimit="10"/>
<path fill-rule="evenodd" clip-rule="evenodd" d="M24.6681 19.0605H27.4377L17.8046 33.4208L15.8945 32.1395L24.6681 19.0605Z" fill="#090909"/>
<path d="M29.7292 31.2603H14.1992V34.1003H29.7292V31.2603Z" fill="white"/>
</svg>
