<svg width="44" height="44" viewBox="0 0 44 44" fill="none" xmlns="http://www.w3.org/2000/svg">
<path d="M22 37.12C33.0457 37.12 42 30.1535 42 21.56C42 12.9664 33.0457 6 22 6C10.9543 6 2 12.9664 2 21.56C2 30.1535 10.9543 37.12 22 37.12Z" stroke="black" stroke-width="2.3" stroke-miterlimit="10"/>
<path d="M20.1899 26.2002H20.1499C19.3199 27.5902 18.1799 28.0902 16.7299 28.0902C14.8899 28.0902 13.4699 27.4302 12.4599 26.3202C11.4599 25.2002 10.8799 23.6302 10.8799 21.8002C10.8799 19.7802 11.5899 18.0102 12.8699 16.8402C13.8599 15.9402 15.1499 15.4502 16.7799 15.4502C19.8399 15.4502 21.5899 17.1302 21.9799 19.5102H19.5699C19.2999 18.3402 18.3999 17.4902 16.8299 17.4902C14.5399 17.4902 13.3999 19.3902 13.3999 21.8102C13.3999 24.2902 14.7099 26.1102 16.7999 26.1102C18.6899 26.1102 19.9299 24.7002 19.9299 23.3602V23.2902H17.0099V21.3902H22.1299V27.8502H20.2799L20.1899 26.2002Z" fill="black"/>
<path d="M24.5195 15.6802H33.2195V17.7702H26.9795V20.6902H32.2695V22.8002H26.9795V27.8302H24.5195V15.6802Z" fill="black"/>
</svg>
