<svg width="36" height="92" xmlns="http://www.w3.org/2000/svg">
  <g stroke="#231F20" stroke-linecap="round" stroke-linejoin="round" fill="none" fill-rule="evenodd">
    <path d="M17.942 91.466c8.147 0 12.355.046 14.527-.641a3.337 3.337 0 0 0 2.318-3.186V28.21a9.453 9.453 0 0 0-4.683-8.161l-4.099-2.395a.712.712 0 0 1-.352-.614v-.66H10.23v.66a.712.712 0 0 1-.352.614L5.78 20.05a9.452 9.452 0 0 0-4.684 8.161v59.43c0 1.452.933 2.745 2.318 3.184 2.173.688 6.38.642 14.528.642zM25.653 16.38V2.138a.94.94 0 0 0-.702-.914c-1.072-.28-3.382-.738-7.009-.738-3.626 0-5.934.457-7.007.737a.943.943 0 0 0-.705.917v14.24"/>
  </g>
</svg>