<svg width="23" height="17" xmlns="http://www.w3.org/2000/svg">
  <g fill="none" fill-rule="evenodd">
    <g stroke="#0A0A0A" stroke-linecap="square" stroke-width="1.7">
      <path d="M6.75,12.9925373 L5.77112019,12.1072914 C2.2949351,8.90780294 0,6.83117887 0,4.24434527 C0,2.13382218 1.6199351,0.5 3.7125,0.5 C4.89371755,0.5 6.00740264,1.04466161 6.75,1.92971234 C7.4925649,1.04466161 8.60621755,0.5 9.7875,0.5 C11.8800649,0.5 13.5,2.13382218 13.5,4.24434527 C13.5,6.8312114 11.2050325,8.90783547 7.72887981,12.1072914 L6.75,12.9925373 Z" transform="translate(1 2)"/>
      <path d="M6.04385252,4.3731342 C6.06217948,4.1899931 6.08625088,4.01345811 6.11606672,3.84352922 C6.35989042,2.45390898 6.98786818,1.50606591 8,1" transform="translate(1 2)"/>
    </g>
    <path d="M8,6.75 C11.7291765,6.75 14.75,9.77241176 14.75,13.5 C14.75,9.77241176 17.7708235,6.75 21.5,6.75 C17.7708235,6.75 14.75,3.72758824 14.75,0 C14.75,3.72758824 11.7291765,6.75 8,6.75" fill="#F06C4E" transform="translate(1)"/>
  </g>
</svg>