<?xml version="1.0" encoding="UTF-8" standalone="no"?><!DOCTYPE svg PUBLIC "-//W3C//DTD SVG 1.1//EN" "http://www.w3.org/Graphics/SVG/1.1/DTD/svg11.dtd"><svg width="100%" height="100%" viewBox="0 0 13 13" version="1.1" xmlns="http://www.w3.org/2000/svg" xmlns:xlink="http://www.w3.org/1999/xlink" xml:space="preserve" xmlns:serif="http://www.serif.com/" style="fill-rule:evenodd;clip-rule:evenodd;"><path id="_2" serif:id="2" d="M6.5,11.856l0.604,-0.547c3.204,-2.949 4.14,-3.917 4.843,-5.204c0.372,-0.682 0.553,-1.33 0.553,-2c0,-1.755 -1.337,-3.105 -3.075,-3.105c-0.973,0 -1.91,0.446 -2.542,1.198l-0.383,0.457l-0.383,-0.457c-0.63,-0.753 -1.56,-1.192 -2.542,-1.198c-1.738,0 -3.075,1.349 -3.075,3.106c0,0.67 0.181,1.317 0.553,1.999c0.703,1.287 1.639,2.255 4.84,5.202l0.607,0.549Z" style="fill:#f06c4e;stroke:#0a0a0a;stroke-width:1px;"/><path d="M4.441,3.084c-0.698,-0.878 -2.655,-0.335 -2.138,1.475" style="fill:none;stroke:#fff;stroke-width:1.2px;stroke-linecap:round;stroke-linejoin:round;stroke-miterlimit:1.5;"/></svg>